G04 #@! TF.GenerationSoftware,KiCad,Pcbnew,5.0.0-fee4fd1~66~ubuntu16.04.1*
G04 #@! TF.CreationDate,2019-03-05T11:42:27-05:00*
G04 #@! TF.ProjectId,quadrant,7175616472616E742E6B696361645F70,rev?*
G04 #@! TF.SameCoordinates,Original*
G04 #@! TF.FileFunction,Legend,Top*
G04 #@! TF.FilePolarity,Positive*
%FSLAX46Y46*%
G04 Gerber Fmt 4.6, Leading zero omitted, Abs format (unit mm)*
G04 Created by KiCad (PCBNEW 5.0.0-fee4fd1~66~ubuntu16.04.1) date Tue Mar  5 11:42:27 2019*
%MOMM*%
%LPD*%
G01*
G04 APERTURE LIST*
%ADD10C,0.190500*%
%ADD11C,0.254000*%
%ADD12C,0.300000*%
%ADD13C,0.120000*%
%ADD14C,0.150000*%
%ADD15O,2.100000X2.100000*%
%ADD16R,2.100000X2.100000*%
%ADD17R,2.900000X1.830000*%
%ADD18O,2.100000X1.750000*%
%ADD19O,1.900000X1.500000*%
%ADD20R,2.050000X0.800000*%
%ADD21R,1.900000X2.400000*%
%ADD22R,1.100000X2.225000*%
%ADD23R,2.400000X1.750000*%
%ADD24C,0.100000*%
%ADD25C,1.550000*%
%ADD26R,0.950000X1.000000*%
%ADD27R,1.050000X1.960000*%
%ADD28R,1.000000X0.950000*%
%ADD29R,0.650000X1.700000*%
%ADD30R,1.700000X0.650000*%
%ADD31C,1.900000*%
%ADD32C,1.350000*%
%ADD33C,3.600000*%
G04 APERTURE END LIST*
D10*
X161979428Y-90789000D02*
X161906857Y-90752714D01*
X161798000Y-90752714D01*
X161689142Y-90789000D01*
X161616571Y-90861571D01*
X161580285Y-90934142D01*
X161544000Y-91079285D01*
X161544000Y-91188142D01*
X161580285Y-91333285D01*
X161616571Y-91405857D01*
X161689142Y-91478428D01*
X161798000Y-91514714D01*
X161870571Y-91514714D01*
X161979428Y-91478428D01*
X162015714Y-91442142D01*
X162015714Y-91188142D01*
X161870571Y-91188142D01*
X162342285Y-91514714D02*
X162342285Y-90752714D01*
X162777714Y-91514714D01*
X162777714Y-90752714D01*
X163140571Y-91514714D02*
X163140571Y-90752714D01*
X163322000Y-90752714D01*
X163430857Y-90789000D01*
X163503428Y-90861571D01*
X163539714Y-90934142D01*
X163576000Y-91079285D01*
X163576000Y-91188142D01*
X163539714Y-91333285D01*
X163503428Y-91405857D01*
X163430857Y-91478428D01*
X163322000Y-91514714D01*
X163140571Y-91514714D01*
X161308142Y-88974714D02*
X161308142Y-88212714D01*
X161743571Y-88974714D01*
X161743571Y-88212714D01*
X162541857Y-88974714D02*
X162287857Y-88611857D01*
X162106428Y-88974714D02*
X162106428Y-88212714D01*
X162396714Y-88212714D01*
X162469285Y-88249000D01*
X162505571Y-88285285D01*
X162541857Y-88357857D01*
X162541857Y-88466714D01*
X162505571Y-88539285D01*
X162469285Y-88575571D01*
X162396714Y-88611857D01*
X162106428Y-88611857D01*
X162832142Y-88938428D02*
X162941000Y-88974714D01*
X163122428Y-88974714D01*
X163195000Y-88938428D01*
X163231285Y-88902142D01*
X163267571Y-88829571D01*
X163267571Y-88757000D01*
X163231285Y-88684428D01*
X163195000Y-88648142D01*
X163122428Y-88611857D01*
X162977285Y-88575571D01*
X162904714Y-88539285D01*
X162868428Y-88503000D01*
X162832142Y-88430428D01*
X162832142Y-88357857D01*
X162868428Y-88285285D01*
X162904714Y-88249000D01*
X162977285Y-88212714D01*
X163158714Y-88212714D01*
X163267571Y-88249000D01*
X163485285Y-88212714D02*
X163920714Y-88212714D01*
X163703000Y-88974714D02*
X163703000Y-88212714D01*
X160945285Y-86398428D02*
X161054142Y-86434714D01*
X161235571Y-86434714D01*
X161308142Y-86398428D01*
X161344428Y-86362142D01*
X161380714Y-86289571D01*
X161380714Y-86217000D01*
X161344428Y-86144428D01*
X161308142Y-86108142D01*
X161235571Y-86071857D01*
X161090428Y-86035571D01*
X161017857Y-85999285D01*
X160981571Y-85963000D01*
X160945285Y-85890428D01*
X160945285Y-85817857D01*
X160981571Y-85745285D01*
X161017857Y-85709000D01*
X161090428Y-85672714D01*
X161271857Y-85672714D01*
X161380714Y-85709000D01*
X161634714Y-85672714D02*
X161816142Y-86434714D01*
X161961285Y-85890428D01*
X162106428Y-86434714D01*
X162287857Y-85672714D01*
X162578142Y-86434714D02*
X162578142Y-85672714D01*
X162759571Y-85672714D01*
X162868428Y-85709000D01*
X162941000Y-85781571D01*
X162977285Y-85854142D01*
X163013571Y-85999285D01*
X163013571Y-86108142D01*
X162977285Y-86253285D01*
X162941000Y-86325857D01*
X162868428Y-86398428D01*
X162759571Y-86434714D01*
X162578142Y-86434714D01*
X163340142Y-86434714D02*
X163340142Y-85672714D01*
X163848142Y-85672714D02*
X163993285Y-85672714D01*
X164065857Y-85709000D01*
X164138428Y-85781571D01*
X164174714Y-85926714D01*
X164174714Y-86180714D01*
X164138428Y-86325857D01*
X164065857Y-86398428D01*
X163993285Y-86434714D01*
X163848142Y-86434714D01*
X163775571Y-86398428D01*
X163703000Y-86325857D01*
X163666714Y-86180714D01*
X163666714Y-85926714D01*
X163703000Y-85781571D01*
X163775571Y-85709000D01*
X163848142Y-85672714D01*
X161979428Y-83169000D02*
X161906857Y-83132714D01*
X161798000Y-83132714D01*
X161689142Y-83169000D01*
X161616571Y-83241571D01*
X161580285Y-83314142D01*
X161544000Y-83459285D01*
X161544000Y-83568142D01*
X161580285Y-83713285D01*
X161616571Y-83785857D01*
X161689142Y-83858428D01*
X161798000Y-83894714D01*
X161870571Y-83894714D01*
X161979428Y-83858428D01*
X162015714Y-83822142D01*
X162015714Y-83568142D01*
X161870571Y-83568142D01*
X162342285Y-83894714D02*
X162342285Y-83132714D01*
X162777714Y-83894714D01*
X162777714Y-83132714D01*
X163140571Y-83894714D02*
X163140571Y-83132714D01*
X163322000Y-83132714D01*
X163430857Y-83169000D01*
X163503428Y-83241571D01*
X163539714Y-83314142D01*
X163576000Y-83459285D01*
X163576000Y-83568142D01*
X163539714Y-83713285D01*
X163503428Y-83785857D01*
X163430857Y-83858428D01*
X163322000Y-83894714D01*
X163140571Y-83894714D01*
X160836428Y-81318428D02*
X160945285Y-81354714D01*
X161126714Y-81354714D01*
X161199285Y-81318428D01*
X161235571Y-81282142D01*
X161271857Y-81209571D01*
X161271857Y-81137000D01*
X161235571Y-81064428D01*
X161199285Y-81028142D01*
X161126714Y-80991857D01*
X160981571Y-80955571D01*
X160909000Y-80919285D01*
X160872714Y-80883000D01*
X160836428Y-80810428D01*
X160836428Y-80737857D01*
X160872714Y-80665285D01*
X160909000Y-80629000D01*
X160981571Y-80592714D01*
X161163000Y-80592714D01*
X161271857Y-80629000D01*
X161525857Y-80592714D02*
X161707285Y-81354714D01*
X161852428Y-80810428D01*
X161997571Y-81354714D01*
X162179000Y-80592714D01*
X162904714Y-81282142D02*
X162868428Y-81318428D01*
X162759571Y-81354714D01*
X162687000Y-81354714D01*
X162578142Y-81318428D01*
X162505571Y-81245857D01*
X162469285Y-81173285D01*
X162433000Y-81028142D01*
X162433000Y-80919285D01*
X162469285Y-80774142D01*
X162505571Y-80701571D01*
X162578142Y-80629000D01*
X162687000Y-80592714D01*
X162759571Y-80592714D01*
X162868428Y-80629000D01*
X162904714Y-80665285D01*
X163594142Y-81354714D02*
X163231285Y-81354714D01*
X163231285Y-80592714D01*
X163848142Y-81354714D02*
X163848142Y-80592714D01*
X164283571Y-81354714D02*
X163957000Y-80919285D01*
X164283571Y-80592714D02*
X163848142Y-81028142D01*
X161217428Y-78524428D02*
X161798000Y-78524428D01*
X161507714Y-78814714D02*
X161507714Y-78234142D01*
X162088285Y-78052714D02*
X162560000Y-78052714D01*
X162306000Y-78343000D01*
X162414857Y-78343000D01*
X162487428Y-78379285D01*
X162523714Y-78415571D01*
X162560000Y-78488142D01*
X162560000Y-78669571D01*
X162523714Y-78742142D01*
X162487428Y-78778428D01*
X162414857Y-78814714D01*
X162197142Y-78814714D01*
X162124571Y-78778428D01*
X162088285Y-78742142D01*
X162777714Y-78052714D02*
X163031714Y-78814714D01*
X163285714Y-78052714D01*
X163467142Y-78052714D02*
X163938857Y-78052714D01*
X163684857Y-78343000D01*
X163793714Y-78343000D01*
X163866285Y-78379285D01*
X163902571Y-78415571D01*
X163938857Y-78488142D01*
X163938857Y-78669571D01*
X163902571Y-78742142D01*
X163866285Y-78778428D01*
X163793714Y-78814714D01*
X163576000Y-78814714D01*
X163503428Y-78778428D01*
X163467142Y-78742142D01*
D11*
X156223428Y-124883857D02*
X156175047Y-124932238D01*
X156029904Y-124980619D01*
X155933142Y-124980619D01*
X155788000Y-124932238D01*
X155691238Y-124835476D01*
X155642857Y-124738714D01*
X155594476Y-124545190D01*
X155594476Y-124400047D01*
X155642857Y-124206523D01*
X155691238Y-124109761D01*
X155788000Y-124013000D01*
X155933142Y-123964619D01*
X156029904Y-123964619D01*
X156175047Y-124013000D01*
X156223428Y-124061380D01*
X156658857Y-124980619D02*
X156658857Y-123964619D01*
X157094285Y-124980619D02*
X157094285Y-124448428D01*
X157045904Y-124351666D01*
X156949142Y-124303285D01*
X156804000Y-124303285D01*
X156707238Y-124351666D01*
X156658857Y-124400047D01*
X157578095Y-124980619D02*
X157578095Y-124303285D01*
X157578095Y-124496809D02*
X157626476Y-124400047D01*
X157674857Y-124351666D01*
X157771619Y-124303285D01*
X157868380Y-124303285D01*
X158207047Y-124980619D02*
X158207047Y-124303285D01*
X158207047Y-123964619D02*
X158158666Y-124013000D01*
X158207047Y-124061380D01*
X158255428Y-124013000D01*
X158207047Y-123964619D01*
X158207047Y-124061380D01*
X158642476Y-124932238D02*
X158739238Y-124980619D01*
X158932761Y-124980619D01*
X159029523Y-124932238D01*
X159077904Y-124835476D01*
X159077904Y-124787095D01*
X159029523Y-124690333D01*
X158932761Y-124641952D01*
X158787619Y-124641952D01*
X158690857Y-124593571D01*
X158642476Y-124496809D01*
X158642476Y-124448428D01*
X158690857Y-124351666D01*
X158787619Y-124303285D01*
X158932761Y-124303285D01*
X159029523Y-124351666D01*
X160868000Y-124883857D02*
X160819619Y-124932238D01*
X160674476Y-124980619D01*
X160577714Y-124980619D01*
X160432571Y-124932238D01*
X160335809Y-124835476D01*
X160287428Y-124738714D01*
X160239047Y-124545190D01*
X160239047Y-124400047D01*
X160287428Y-124206523D01*
X160335809Y-124109761D01*
X160432571Y-124013000D01*
X160577714Y-123964619D01*
X160674476Y-123964619D01*
X160819619Y-124013000D01*
X160868000Y-124061380D01*
X161303428Y-124980619D02*
X161303428Y-123964619D01*
X161738857Y-124980619D02*
X161738857Y-124448428D01*
X161690476Y-124351666D01*
X161593714Y-124303285D01*
X161448571Y-124303285D01*
X161351809Y-124351666D01*
X161303428Y-124400047D01*
X162222666Y-124980619D02*
X162222666Y-124303285D01*
X162222666Y-124496809D02*
X162271047Y-124400047D01*
X162319428Y-124351666D01*
X162416190Y-124303285D01*
X162512952Y-124303285D01*
X162996761Y-124980619D02*
X162900000Y-124932238D01*
X162851619Y-124883857D01*
X162803238Y-124787095D01*
X162803238Y-124496809D01*
X162851619Y-124400047D01*
X162900000Y-124351666D01*
X162996761Y-124303285D01*
X163141904Y-124303285D01*
X163238666Y-124351666D01*
X163287047Y-124400047D01*
X163335428Y-124496809D01*
X163335428Y-124787095D01*
X163287047Y-124883857D01*
X163238666Y-124932238D01*
X163141904Y-124980619D01*
X162996761Y-124980619D01*
X163770857Y-124303285D02*
X163770857Y-124980619D01*
X163770857Y-124400047D02*
X163819238Y-124351666D01*
X163916000Y-124303285D01*
X164061142Y-124303285D01*
X164157904Y-124351666D01*
X164206285Y-124448428D01*
X164206285Y-124980619D01*
X164835238Y-124980619D02*
X164738476Y-124932238D01*
X164690095Y-124883857D01*
X164641714Y-124787095D01*
X164641714Y-124496809D01*
X164690095Y-124400047D01*
X164738476Y-124351666D01*
X164835238Y-124303285D01*
X164980380Y-124303285D01*
X165077142Y-124351666D01*
X165125523Y-124400047D01*
X165173904Y-124496809D01*
X165173904Y-124787095D01*
X165125523Y-124883857D01*
X165077142Y-124932238D01*
X164980380Y-124980619D01*
X164835238Y-124980619D01*
X165609333Y-124303285D02*
X165609333Y-125319285D01*
X165609333Y-124351666D02*
X165706095Y-124303285D01*
X165899619Y-124303285D01*
X165996380Y-124351666D01*
X166044761Y-124400047D01*
X166093142Y-124496809D01*
X166093142Y-124787095D01*
X166044761Y-124883857D01*
X165996380Y-124932238D01*
X165899619Y-124980619D01*
X165706095Y-124980619D01*
X165609333Y-124932238D01*
X166673714Y-124980619D02*
X166576952Y-124932238D01*
X166528571Y-124883857D01*
X166480190Y-124787095D01*
X166480190Y-124496809D01*
X166528571Y-124400047D01*
X166576952Y-124351666D01*
X166673714Y-124303285D01*
X166818857Y-124303285D01*
X166915619Y-124351666D01*
X166964000Y-124400047D01*
X167012380Y-124496809D01*
X167012380Y-124787095D01*
X166964000Y-124883857D01*
X166915619Y-124932238D01*
X166818857Y-124980619D01*
X166673714Y-124980619D01*
X167883238Y-124303285D02*
X167883238Y-124980619D01*
X167447809Y-124303285D02*
X167447809Y-124835476D01*
X167496190Y-124932238D01*
X167592952Y-124980619D01*
X167738095Y-124980619D01*
X167834857Y-124932238D01*
X167883238Y-124883857D01*
X168512190Y-124980619D02*
X168415428Y-124932238D01*
X168367047Y-124835476D01*
X168367047Y-123964619D01*
X169044380Y-124980619D02*
X168947619Y-124932238D01*
X168899238Y-124883857D01*
X168850857Y-124787095D01*
X168850857Y-124496809D01*
X168899238Y-124400047D01*
X168947619Y-124351666D01*
X169044380Y-124303285D01*
X169189523Y-124303285D01*
X169286285Y-124351666D01*
X169334666Y-124400047D01*
X169383047Y-124496809D01*
X169383047Y-124787095D01*
X169334666Y-124883857D01*
X169286285Y-124932238D01*
X169189523Y-124980619D01*
X169044380Y-124980619D01*
X169770095Y-124932238D02*
X169866857Y-124980619D01*
X170060380Y-124980619D01*
X170157142Y-124932238D01*
X170205523Y-124835476D01*
X170205523Y-124787095D01*
X170157142Y-124690333D01*
X170060380Y-124641952D01*
X169915238Y-124641952D01*
X169818476Y-124593571D01*
X169770095Y-124496809D01*
X169770095Y-124448428D01*
X169818476Y-124351666D01*
X169915238Y-124303285D01*
X170060380Y-124303285D01*
X170157142Y-124351666D01*
X157795809Y-126758619D02*
X157457142Y-126274809D01*
X157215238Y-126758619D02*
X157215238Y-125742619D01*
X157602285Y-125742619D01*
X157699047Y-125791000D01*
X157747428Y-125839380D01*
X157795809Y-125936142D01*
X157795809Y-126081285D01*
X157747428Y-126178047D01*
X157699047Y-126226428D01*
X157602285Y-126274809D01*
X157215238Y-126274809D01*
X158618285Y-126710238D02*
X158521523Y-126758619D01*
X158328000Y-126758619D01*
X158231238Y-126710238D01*
X158182857Y-126613476D01*
X158182857Y-126226428D01*
X158231238Y-126129666D01*
X158328000Y-126081285D01*
X158521523Y-126081285D01*
X158618285Y-126129666D01*
X158666666Y-126226428D01*
X158666666Y-126323190D01*
X158182857Y-126419952D01*
X159005333Y-126081285D02*
X159247238Y-126758619D01*
X159489142Y-126081285D01*
X160553523Y-125742619D02*
X161182476Y-125742619D01*
X160843809Y-126129666D01*
X160988952Y-126129666D01*
X161085714Y-126178047D01*
X161134095Y-126226428D01*
X161182476Y-126323190D01*
X161182476Y-126565095D01*
X161134095Y-126661857D01*
X161085714Y-126710238D01*
X160988952Y-126758619D01*
X160698666Y-126758619D01*
X160601904Y-126710238D01*
X160553523Y-126661857D01*
X161617904Y-126661857D02*
X161666285Y-126710238D01*
X161617904Y-126758619D01*
X161569523Y-126710238D01*
X161617904Y-126661857D01*
X161617904Y-126758619D01*
X162633904Y-126758619D02*
X162053333Y-126758619D01*
X162343619Y-126758619D02*
X162343619Y-125742619D01*
X162246857Y-125887761D01*
X162150095Y-125984523D01*
X162053333Y-126032904D01*
X164133714Y-127145666D02*
X164085333Y-127097285D01*
X163988571Y-126952142D01*
X163940190Y-126855380D01*
X163891809Y-126710238D01*
X163843428Y-126468333D01*
X163843428Y-126274809D01*
X163891809Y-126032904D01*
X163940190Y-125887761D01*
X163988571Y-125791000D01*
X164085333Y-125645857D01*
X164133714Y-125597476D01*
X164472380Y-125839380D02*
X164520761Y-125791000D01*
X164617523Y-125742619D01*
X164859428Y-125742619D01*
X164956190Y-125791000D01*
X165004571Y-125839380D01*
X165052952Y-125936142D01*
X165052952Y-126032904D01*
X165004571Y-126178047D01*
X164424000Y-126758619D01*
X165052952Y-126758619D01*
X165681904Y-125742619D02*
X165778666Y-125742619D01*
X165875428Y-125791000D01*
X165923809Y-125839380D01*
X165972190Y-125936142D01*
X166020571Y-126129666D01*
X166020571Y-126371571D01*
X165972190Y-126565095D01*
X165923809Y-126661857D01*
X165875428Y-126710238D01*
X165778666Y-126758619D01*
X165681904Y-126758619D01*
X165585142Y-126710238D01*
X165536761Y-126661857D01*
X165488380Y-126565095D01*
X165440000Y-126371571D01*
X165440000Y-126129666D01*
X165488380Y-125936142D01*
X165536761Y-125839380D01*
X165585142Y-125791000D01*
X165681904Y-125742619D01*
X166988190Y-126758619D02*
X166407619Y-126758619D01*
X166697904Y-126758619D02*
X166697904Y-125742619D01*
X166601142Y-125887761D01*
X166504380Y-125984523D01*
X166407619Y-126032904D01*
X167472000Y-126758619D02*
X167665523Y-126758619D01*
X167762285Y-126710238D01*
X167810666Y-126661857D01*
X167907428Y-126516714D01*
X167955809Y-126323190D01*
X167955809Y-125936142D01*
X167907428Y-125839380D01*
X167859047Y-125791000D01*
X167762285Y-125742619D01*
X167568761Y-125742619D01*
X167472000Y-125791000D01*
X167423619Y-125839380D01*
X167375238Y-125936142D01*
X167375238Y-126178047D01*
X167423619Y-126274809D01*
X167472000Y-126323190D01*
X167568761Y-126371571D01*
X167762285Y-126371571D01*
X167859047Y-126323190D01*
X167907428Y-126274809D01*
X167955809Y-126178047D01*
X168294476Y-127145666D02*
X168342857Y-127097285D01*
X168439619Y-126952142D01*
X168488000Y-126855380D01*
X168536380Y-126710238D01*
X168584761Y-126468333D01*
X168584761Y-126274809D01*
X168536380Y-126032904D01*
X168488000Y-125887761D01*
X168439619Y-125791000D01*
X168342857Y-125645857D01*
X168294476Y-125597476D01*
D12*
X156534666Y-122347000D02*
X156111333Y-122347000D01*
X156111333Y-119807000D01*
X156534666Y-119807000D01*
X158397333Y-121923666D02*
X158228000Y-121839000D01*
X158058666Y-121669666D01*
X157804666Y-121415666D01*
X157635333Y-121331000D01*
X157466000Y-121331000D01*
X157550666Y-121754333D02*
X157381333Y-121669666D01*
X157212000Y-121500333D01*
X157127333Y-121161666D01*
X157127333Y-120569000D01*
X157212000Y-120230333D01*
X157381333Y-120061000D01*
X157550666Y-119976333D01*
X157889333Y-119976333D01*
X158058666Y-120061000D01*
X158228000Y-120230333D01*
X158312666Y-120569000D01*
X158312666Y-121161666D01*
X158228000Y-121500333D01*
X158058666Y-121669666D01*
X157889333Y-121754333D01*
X157550666Y-121754333D01*
X159836666Y-120569000D02*
X159836666Y-121754333D01*
X159074666Y-120569000D02*
X159074666Y-121500333D01*
X159159333Y-121669666D01*
X159328666Y-121754333D01*
X159582666Y-121754333D01*
X159752000Y-121669666D01*
X159836666Y-121585000D01*
X161445333Y-121754333D02*
X161445333Y-120823000D01*
X161360666Y-120653666D01*
X161191333Y-120569000D01*
X160852666Y-120569000D01*
X160683333Y-120653666D01*
X161445333Y-121669666D02*
X161276000Y-121754333D01*
X160852666Y-121754333D01*
X160683333Y-121669666D01*
X160598666Y-121500333D01*
X160598666Y-121331000D01*
X160683333Y-121161666D01*
X160852666Y-121077000D01*
X161276000Y-121077000D01*
X161445333Y-120992333D01*
X163054000Y-121754333D02*
X163054000Y-119976333D01*
X163054000Y-121669666D02*
X162884666Y-121754333D01*
X162546000Y-121754333D01*
X162376666Y-121669666D01*
X162292000Y-121585000D01*
X162207333Y-121415666D01*
X162207333Y-120907666D01*
X162292000Y-120738333D01*
X162376666Y-120653666D01*
X162546000Y-120569000D01*
X162884666Y-120569000D01*
X163054000Y-120653666D01*
X163900666Y-121754333D02*
X163900666Y-120569000D01*
X163900666Y-120907666D02*
X163985333Y-120738333D01*
X164070000Y-120653666D01*
X164239333Y-120569000D01*
X164408666Y-120569000D01*
X165763333Y-121754333D02*
X165763333Y-120823000D01*
X165678666Y-120653666D01*
X165509333Y-120569000D01*
X165170666Y-120569000D01*
X165001333Y-120653666D01*
X165763333Y-121669666D02*
X165594000Y-121754333D01*
X165170666Y-121754333D01*
X165001333Y-121669666D01*
X164916666Y-121500333D01*
X164916666Y-121331000D01*
X165001333Y-121161666D01*
X165170666Y-121077000D01*
X165594000Y-121077000D01*
X165763333Y-120992333D01*
X166610000Y-120569000D02*
X166610000Y-121754333D01*
X166610000Y-120738333D02*
X166694666Y-120653666D01*
X166864000Y-120569000D01*
X167118000Y-120569000D01*
X167287333Y-120653666D01*
X167372000Y-120823000D01*
X167372000Y-121754333D01*
X167964666Y-120569000D02*
X168642000Y-120569000D01*
X168218666Y-119976333D02*
X168218666Y-121500333D01*
X168303333Y-121669666D01*
X168472666Y-121754333D01*
X168642000Y-121754333D01*
X169065333Y-122347000D02*
X169488666Y-122347000D01*
X169488666Y-119807000D01*
X169065333Y-119807000D01*
D13*
G04 #@! TO.C,J1*
X165040000Y-77170000D02*
X166370000Y-77170000D01*
X165040000Y-78500000D02*
X165040000Y-77170000D01*
X165040000Y-79770000D02*
X167700000Y-79770000D01*
X167700000Y-79770000D02*
X167700000Y-92530000D01*
X165040000Y-79770000D02*
X165040000Y-92530000D01*
X165040000Y-92530000D02*
X167700000Y-92530000D01*
G04 #@! TO.C,J2*
X128595000Y-123851000D02*
X129045000Y-123451000D01*
X129045000Y-123451000D02*
X129045000Y-124251000D01*
X129045000Y-124251000D02*
X128595000Y-123851000D01*
X122995000Y-129001000D02*
X125795000Y-129001000D01*
X125795000Y-129001000D02*
X125795000Y-129301000D01*
X125795000Y-129301000D02*
X127345000Y-129301000D01*
X122995000Y-121301000D02*
X125795000Y-121301000D01*
X125795000Y-121001000D02*
X125795000Y-121301000D01*
X125795000Y-121001000D02*
X127345000Y-121001000D01*
G04 #@! TO.C,C1*
X131810000Y-118786252D02*
X131810000Y-118263748D01*
X130390000Y-118786252D02*
X130390000Y-118263748D01*
G04 #@! TO.C,C2*
X126710000Y-102213748D02*
X126710000Y-102736252D01*
X125290000Y-102213748D02*
X125290000Y-102736252D01*
G04 #@! TO.C,C3*
X123290000Y-102213748D02*
X123290000Y-102736252D01*
X124710000Y-102213748D02*
X124710000Y-102736252D01*
G04 #@! TO.C,C4*
X134861252Y-117260000D02*
X134338748Y-117260000D01*
X134861252Y-115840000D02*
X134338748Y-115840000D01*
G04 #@! TO.C,C5*
X153236252Y-71290000D02*
X152713748Y-71290000D01*
X153236252Y-72710000D02*
X152713748Y-72710000D01*
G04 #@! TO.C,C6*
X153236252Y-73290000D02*
X152713748Y-73290000D01*
X153236252Y-74710000D02*
X152713748Y-74710000D01*
G04 #@! TO.C,C7*
X144213748Y-138290000D02*
X144736252Y-138290000D01*
X144213748Y-139710000D02*
X144736252Y-139710000D01*
G04 #@! TO.C,C8*
X138810000Y-121286252D02*
X138810000Y-120763748D01*
X137390000Y-121286252D02*
X137390000Y-120763748D01*
G04 #@! TO.C,C9*
X152563748Y-90690000D02*
X153086252Y-90690000D01*
X152563748Y-92110000D02*
X153086252Y-92110000D01*
G04 #@! TO.C,C10*
X146036252Y-90690000D02*
X145513748Y-90690000D01*
X146036252Y-92110000D02*
X145513748Y-92110000D01*
G04 #@! TO.C,C12*
X144213748Y-140290000D02*
X144736252Y-140290000D01*
X144213748Y-141710000D02*
X144736252Y-141710000D01*
G04 #@! TO.C,C13*
X171710000Y-111236252D02*
X171710000Y-110713748D01*
X170290000Y-111236252D02*
X170290000Y-110713748D01*
G04 #@! TO.C,C14*
X172290000Y-111261252D02*
X172290000Y-110738748D01*
X173710000Y-111261252D02*
X173710000Y-110738748D01*
G04 #@! TO.C,R1*
X158190000Y-103513748D02*
X158190000Y-104036252D01*
X156770000Y-103513748D02*
X156770000Y-104036252D01*
G04 #@! TO.C,R2*
X149011252Y-79790000D02*
X148488748Y-79790000D01*
X149011252Y-81210000D02*
X148488748Y-81210000D01*
G04 #@! TO.C,R3*
X133210000Y-106488748D02*
X133210000Y-107011252D01*
X131790000Y-106488748D02*
X131790000Y-107011252D01*
G04 #@! TO.C,R4*
X164040000Y-107011252D02*
X164040000Y-106488748D01*
X165460000Y-107011252D02*
X165460000Y-106488748D01*
G04 #@! TO.C,R5*
X148488748Y-133460000D02*
X149011252Y-133460000D01*
X148488748Y-132040000D02*
X149011252Y-132040000D01*
G04 #@! TO.C,R6*
X164963748Y-94040000D02*
X165486252Y-94040000D01*
X164963748Y-95460000D02*
X165486252Y-95460000D01*
G04 #@! TO.C,R7*
X164963748Y-97460000D02*
X165486252Y-97460000D01*
X164963748Y-96040000D02*
X165486252Y-96040000D01*
G04 #@! TO.C,R8*
X125290000Y-111786252D02*
X125290000Y-111263748D01*
X126710000Y-111786252D02*
X126710000Y-111263748D01*
G04 #@! TO.C,R9*
X124710000Y-111786252D02*
X124710000Y-111263748D01*
X123290000Y-111786252D02*
X123290000Y-111263748D01*
G04 #@! TO.C,R10*
X143713748Y-73290000D02*
X144236252Y-73290000D01*
X143713748Y-74710000D02*
X144236252Y-74710000D01*
G04 #@! TO.C,R11*
X153786252Y-139710000D02*
X153263748Y-139710000D01*
X153786252Y-138290000D02*
X153263748Y-138290000D01*
G04 #@! TO.C,R12*
X143713748Y-71290000D02*
X144236252Y-71290000D01*
X143713748Y-72710000D02*
X144236252Y-72710000D01*
G04 #@! TO.C,R13*
X153786252Y-140290000D02*
X153263748Y-140290000D01*
X153786252Y-141710000D02*
X153263748Y-141710000D01*
G04 #@! TO.C,R14*
X170290000Y-101763748D02*
X170290000Y-102286252D01*
X171710000Y-101763748D02*
X171710000Y-102286252D01*
G04 #@! TO.C,R15*
X173710000Y-101763748D02*
X173710000Y-102286252D01*
X172290000Y-101763748D02*
X172290000Y-102286252D01*
D14*
G04 #@! TO.C,U1*
X123000000Y-107750000D02*
X123500000Y-107750000D01*
X123500000Y-108250000D02*
X123500000Y-105250000D01*
X128250000Y-108250000D02*
X123500000Y-108250000D01*
X128250000Y-105250000D02*
X128250000Y-108250000D01*
X123500000Y-105250000D02*
X128250000Y-105250000D01*
D13*
G04 #@! TO.C,U2*
X132990000Y-120000000D02*
X132990000Y-121800000D01*
X136210000Y-121800000D02*
X136210000Y-118850000D01*
D14*
G04 #@! TO.C,U3*
X147750000Y-71000000D02*
X147750000Y-71500000D01*
X147250000Y-71500000D02*
X150250000Y-71500000D01*
X147250000Y-76250000D02*
X147250000Y-71500000D01*
X150250000Y-76250000D02*
X147250000Y-76250000D01*
X150250000Y-71500000D02*
X150250000Y-76250000D01*
G04 #@! TO.C,U4*
X147250000Y-141750000D02*
X147250000Y-137000000D01*
X147250000Y-137000000D02*
X150250000Y-137000000D01*
X150250000Y-137000000D02*
X150250000Y-141750000D01*
X150250000Y-141750000D02*
X147250000Y-141750000D01*
X149750000Y-142250000D02*
X149750000Y-141750000D01*
G04 #@! TO.C,U5*
X173750000Y-108250000D02*
X169000000Y-108250000D01*
X169000000Y-108250000D02*
X169000000Y-105250000D01*
X169000000Y-105250000D02*
X173750000Y-105250000D01*
X173750000Y-105250000D02*
X173750000Y-108250000D01*
X174250000Y-105750000D02*
X173750000Y-105750000D01*
D13*
G04 #@! TO.C,U6*
X152310000Y-110310000D02*
X151890000Y-110310000D01*
X145190000Y-110310000D02*
X145610000Y-110310000D01*
X145190000Y-103190000D02*
X145610000Y-103190000D01*
X152310000Y-103190000D02*
X152310000Y-103610000D01*
X145190000Y-110310000D02*
X145190000Y-109890000D01*
X152310000Y-110310000D02*
X152310000Y-109890000D01*
X151890000Y-103190000D02*
X151890000Y-101810000D01*
X152310000Y-103190000D02*
X151890000Y-103190000D01*
X145190000Y-103190000D02*
X145190000Y-103610000D01*
G04 #@! TO.C,Y1*
X152365000Y-98125000D02*
X146115000Y-98125000D01*
X152365000Y-93075000D02*
X146115000Y-93075000D01*
X152365000Y-93075000D02*
G75*
G02X152365000Y-98125000I0J-2525000D01*
G01*
X146115000Y-93075000D02*
G75*
G03X146115000Y-98125000I0J-2525000D01*
G01*
G04 #@! TO.C,C15*
X141090000Y-109163748D02*
X141090000Y-109686252D01*
X142510000Y-109163748D02*
X142510000Y-109686252D01*
G04 #@! TO.C,C16*
X151863748Y-112828000D02*
X152386252Y-112828000D01*
X151863748Y-114248000D02*
X152386252Y-114248000D01*
G04 #@! TO.C,C17*
X156210000Y-104036252D02*
X156210000Y-103513748D01*
X154790000Y-104036252D02*
X154790000Y-103513748D01*
G04 #@! TO.C,C18*
X147086252Y-100210000D02*
X146563748Y-100210000D01*
X147086252Y-98790000D02*
X146563748Y-98790000D01*
G04 #@! TO.C,D1*
X147090000Y-78735000D02*
X149550000Y-78735000D01*
X147090000Y-77265000D02*
X147090000Y-78735000D01*
X149550000Y-77265000D02*
X147090000Y-77265000D01*
G04 #@! TO.C,D2*
X129265000Y-105950000D02*
X129265000Y-108410000D01*
X129265000Y-108410000D02*
X130735000Y-108410000D01*
X130735000Y-108410000D02*
X130735000Y-105950000D01*
G04 #@! TO.C,D3*
X166515000Y-105090000D02*
X166515000Y-107550000D01*
X167985000Y-105090000D02*
X166515000Y-105090000D01*
X167985000Y-107550000D02*
X167985000Y-105090000D01*
G04 #@! TO.C,D4*
X147950000Y-135985000D02*
X150410000Y-135985000D01*
X150410000Y-135985000D02*
X150410000Y-134515000D01*
X150410000Y-134515000D02*
X147950000Y-134515000D01*
G04 #@! TO.C,J1*
D14*
X166036666Y-75622380D02*
X166036666Y-76336666D01*
X165989047Y-76479523D01*
X165893809Y-76574761D01*
X165750952Y-76622380D01*
X165655714Y-76622380D01*
X167036666Y-76622380D02*
X166465238Y-76622380D01*
X166750952Y-76622380D02*
X166750952Y-75622380D01*
X166655714Y-75765238D01*
X166560476Y-75860476D01*
X166465238Y-75908095D01*
G04 #@! TO.C,J2*
X125416666Y-130202380D02*
X125416666Y-130916666D01*
X125369047Y-131059523D01*
X125273809Y-131154761D01*
X125130952Y-131202380D01*
X125035714Y-131202380D01*
X125845238Y-130297619D02*
X125892857Y-130250000D01*
X125988095Y-130202380D01*
X126226190Y-130202380D01*
X126321428Y-130250000D01*
X126369047Y-130297619D01*
X126416666Y-130392857D01*
X126416666Y-130488095D01*
X126369047Y-130630952D01*
X125797619Y-131202380D01*
X126416666Y-131202380D01*
G04 #@! TO.C,C1*
X129607142Y-118666666D02*
X129654761Y-118714285D01*
X129702380Y-118857142D01*
X129702380Y-118952380D01*
X129654761Y-119095238D01*
X129559523Y-119190476D01*
X129464285Y-119238095D01*
X129273809Y-119285714D01*
X129130952Y-119285714D01*
X128940476Y-119238095D01*
X128845238Y-119190476D01*
X128750000Y-119095238D01*
X128702380Y-118952380D01*
X128702380Y-118857142D01*
X128750000Y-118714285D01*
X128797619Y-118666666D01*
X129702380Y-117714285D02*
X129702380Y-118285714D01*
X129702380Y-118000000D02*
X128702380Y-118000000D01*
X128845238Y-118095238D01*
X128940476Y-118190476D01*
X128988095Y-118285714D01*
G04 #@! TO.C,C2*
X126357142Y-99166666D02*
X126404761Y-99214285D01*
X126452380Y-99357142D01*
X126452380Y-99452380D01*
X126404761Y-99595238D01*
X126309523Y-99690476D01*
X126214285Y-99738095D01*
X126023809Y-99785714D01*
X125880952Y-99785714D01*
X125690476Y-99738095D01*
X125595238Y-99690476D01*
X125500000Y-99595238D01*
X125452380Y-99452380D01*
X125452380Y-99357142D01*
X125500000Y-99214285D01*
X125547619Y-99166666D01*
X125547619Y-98785714D02*
X125500000Y-98738095D01*
X125452380Y-98642857D01*
X125452380Y-98404761D01*
X125500000Y-98309523D01*
X125547619Y-98261904D01*
X125642857Y-98214285D01*
X125738095Y-98214285D01*
X125880952Y-98261904D01*
X126452380Y-98833333D01*
X126452380Y-98214285D01*
G04 #@! TO.C,C3*
X124357142Y-99141666D02*
X124404761Y-99189285D01*
X124452380Y-99332142D01*
X124452380Y-99427380D01*
X124404761Y-99570238D01*
X124309523Y-99665476D01*
X124214285Y-99713095D01*
X124023809Y-99760714D01*
X123880952Y-99760714D01*
X123690476Y-99713095D01*
X123595238Y-99665476D01*
X123500000Y-99570238D01*
X123452380Y-99427380D01*
X123452380Y-99332142D01*
X123500000Y-99189285D01*
X123547619Y-99141666D01*
X123452380Y-98808333D02*
X123452380Y-98189285D01*
X123833333Y-98522619D01*
X123833333Y-98379761D01*
X123880952Y-98284523D01*
X123928571Y-98236904D01*
X124023809Y-98189285D01*
X124261904Y-98189285D01*
X124357142Y-98236904D01*
X124404761Y-98284523D01*
X124452380Y-98379761D01*
X124452380Y-98665476D01*
X124404761Y-98760714D01*
X124357142Y-98808333D01*
G04 #@! TO.C,C4*
X134433333Y-115107142D02*
X134385714Y-115154761D01*
X134242857Y-115202380D01*
X134147619Y-115202380D01*
X134004761Y-115154761D01*
X133909523Y-115059523D01*
X133861904Y-114964285D01*
X133814285Y-114773809D01*
X133814285Y-114630952D01*
X133861904Y-114440476D01*
X133909523Y-114345238D01*
X134004761Y-114250000D01*
X134147619Y-114202380D01*
X134242857Y-114202380D01*
X134385714Y-114250000D01*
X134433333Y-114297619D01*
X135290476Y-114535714D02*
X135290476Y-115202380D01*
X135052380Y-114154761D02*
X134814285Y-114869047D01*
X135433333Y-114869047D01*
G04 #@! TO.C,C5*
X156283333Y-72357142D02*
X156235714Y-72404761D01*
X156092857Y-72452380D01*
X155997619Y-72452380D01*
X155854761Y-72404761D01*
X155759523Y-72309523D01*
X155711904Y-72214285D01*
X155664285Y-72023809D01*
X155664285Y-71880952D01*
X155711904Y-71690476D01*
X155759523Y-71595238D01*
X155854761Y-71500000D01*
X155997619Y-71452380D01*
X156092857Y-71452380D01*
X156235714Y-71500000D01*
X156283333Y-71547619D01*
X157188095Y-71452380D02*
X156711904Y-71452380D01*
X156664285Y-71928571D01*
X156711904Y-71880952D01*
X156807142Y-71833333D01*
X157045238Y-71833333D01*
X157140476Y-71880952D01*
X157188095Y-71928571D01*
X157235714Y-72023809D01*
X157235714Y-72261904D01*
X157188095Y-72357142D01*
X157140476Y-72404761D01*
X157045238Y-72452380D01*
X156807142Y-72452380D01*
X156711904Y-72404761D01*
X156664285Y-72357142D01*
G04 #@! TO.C,C6*
X156283333Y-74357142D02*
X156235714Y-74404761D01*
X156092857Y-74452380D01*
X155997619Y-74452380D01*
X155854761Y-74404761D01*
X155759523Y-74309523D01*
X155711904Y-74214285D01*
X155664285Y-74023809D01*
X155664285Y-73880952D01*
X155711904Y-73690476D01*
X155759523Y-73595238D01*
X155854761Y-73500000D01*
X155997619Y-73452380D01*
X156092857Y-73452380D01*
X156235714Y-73500000D01*
X156283333Y-73547619D01*
X157140476Y-73452380D02*
X156950000Y-73452380D01*
X156854761Y-73500000D01*
X156807142Y-73547619D01*
X156711904Y-73690476D01*
X156664285Y-73880952D01*
X156664285Y-74261904D01*
X156711904Y-74357142D01*
X156759523Y-74404761D01*
X156854761Y-74452380D01*
X157045238Y-74452380D01*
X157140476Y-74404761D01*
X157188095Y-74357142D01*
X157235714Y-74261904D01*
X157235714Y-74023809D01*
X157188095Y-73928571D01*
X157140476Y-73880952D01*
X157045238Y-73833333D01*
X156854761Y-73833333D01*
X156759523Y-73880952D01*
X156711904Y-73928571D01*
X156664285Y-74023809D01*
G04 #@! TO.C,C7*
X140883333Y-139357142D02*
X140835714Y-139404761D01*
X140692857Y-139452380D01*
X140597619Y-139452380D01*
X140454761Y-139404761D01*
X140359523Y-139309523D01*
X140311904Y-139214285D01*
X140264285Y-139023809D01*
X140264285Y-138880952D01*
X140311904Y-138690476D01*
X140359523Y-138595238D01*
X140454761Y-138500000D01*
X140597619Y-138452380D01*
X140692857Y-138452380D01*
X140835714Y-138500000D01*
X140883333Y-138547619D01*
X141216666Y-138452380D02*
X141883333Y-138452380D01*
X141454761Y-139452380D01*
G04 #@! TO.C,C8*
X140357142Y-121166666D02*
X140404761Y-121214285D01*
X140452380Y-121357142D01*
X140452380Y-121452380D01*
X140404761Y-121595238D01*
X140309523Y-121690476D01*
X140214285Y-121738095D01*
X140023809Y-121785714D01*
X139880952Y-121785714D01*
X139690476Y-121738095D01*
X139595238Y-121690476D01*
X139500000Y-121595238D01*
X139452380Y-121452380D01*
X139452380Y-121357142D01*
X139500000Y-121214285D01*
X139547619Y-121166666D01*
X139880952Y-120595238D02*
X139833333Y-120690476D01*
X139785714Y-120738095D01*
X139690476Y-120785714D01*
X139642857Y-120785714D01*
X139547619Y-120738095D01*
X139500000Y-120690476D01*
X139452380Y-120595238D01*
X139452380Y-120404761D01*
X139500000Y-120309523D01*
X139547619Y-120261904D01*
X139642857Y-120214285D01*
X139690476Y-120214285D01*
X139785714Y-120261904D01*
X139833333Y-120309523D01*
X139880952Y-120404761D01*
X139880952Y-120595238D01*
X139928571Y-120690476D01*
X139976190Y-120738095D01*
X140071428Y-120785714D01*
X140261904Y-120785714D01*
X140357142Y-120738095D01*
X140404761Y-120690476D01*
X140452380Y-120595238D01*
X140452380Y-120404761D01*
X140404761Y-120309523D01*
X140357142Y-120261904D01*
X140261904Y-120214285D01*
X140071428Y-120214285D01*
X139976190Y-120261904D01*
X139928571Y-120309523D01*
X139880952Y-120404761D01*
G04 #@! TO.C,C9*
X155533333Y-91757142D02*
X155485714Y-91804761D01*
X155342857Y-91852380D01*
X155247619Y-91852380D01*
X155104761Y-91804761D01*
X155009523Y-91709523D01*
X154961904Y-91614285D01*
X154914285Y-91423809D01*
X154914285Y-91280952D01*
X154961904Y-91090476D01*
X155009523Y-90995238D01*
X155104761Y-90900000D01*
X155247619Y-90852380D01*
X155342857Y-90852380D01*
X155485714Y-90900000D01*
X155533333Y-90947619D01*
X156009523Y-91852380D02*
X156200000Y-91852380D01*
X156295238Y-91804761D01*
X156342857Y-91757142D01*
X156438095Y-91614285D01*
X156485714Y-91423809D01*
X156485714Y-91042857D01*
X156438095Y-90947619D01*
X156390476Y-90900000D01*
X156295238Y-90852380D01*
X156104761Y-90852380D01*
X156009523Y-90900000D01*
X155961904Y-90947619D01*
X155914285Y-91042857D01*
X155914285Y-91280952D01*
X155961904Y-91376190D01*
X156009523Y-91423809D01*
X156104761Y-91471428D01*
X156295238Y-91471428D01*
X156390476Y-91423809D01*
X156438095Y-91376190D01*
X156485714Y-91280952D01*
G04 #@! TO.C,C10*
X141757142Y-91807142D02*
X141709523Y-91854761D01*
X141566666Y-91902380D01*
X141471428Y-91902380D01*
X141328571Y-91854761D01*
X141233333Y-91759523D01*
X141185714Y-91664285D01*
X141138095Y-91473809D01*
X141138095Y-91330952D01*
X141185714Y-91140476D01*
X141233333Y-91045238D01*
X141328571Y-90950000D01*
X141471428Y-90902380D01*
X141566666Y-90902380D01*
X141709523Y-90950000D01*
X141757142Y-90997619D01*
X142709523Y-91902380D02*
X142138095Y-91902380D01*
X142423809Y-91902380D02*
X142423809Y-90902380D01*
X142328571Y-91045238D01*
X142233333Y-91140476D01*
X142138095Y-91188095D01*
X143328571Y-90902380D02*
X143423809Y-90902380D01*
X143519047Y-90950000D01*
X143566666Y-90997619D01*
X143614285Y-91092857D01*
X143661904Y-91283333D01*
X143661904Y-91521428D01*
X143614285Y-91711904D01*
X143566666Y-91807142D01*
X143519047Y-91854761D01*
X143423809Y-91902380D01*
X143328571Y-91902380D01*
X143233333Y-91854761D01*
X143185714Y-91807142D01*
X143138095Y-91711904D01*
X143090476Y-91521428D01*
X143090476Y-91283333D01*
X143138095Y-91092857D01*
X143185714Y-90997619D01*
X143233333Y-90950000D01*
X143328571Y-90902380D01*
G04 #@! TO.C,C12*
X140007142Y-141407142D02*
X139959523Y-141454761D01*
X139816666Y-141502380D01*
X139721428Y-141502380D01*
X139578571Y-141454761D01*
X139483333Y-141359523D01*
X139435714Y-141264285D01*
X139388095Y-141073809D01*
X139388095Y-140930952D01*
X139435714Y-140740476D01*
X139483333Y-140645238D01*
X139578571Y-140550000D01*
X139721428Y-140502380D01*
X139816666Y-140502380D01*
X139959523Y-140550000D01*
X140007142Y-140597619D01*
X140959523Y-141502380D02*
X140388095Y-141502380D01*
X140673809Y-141502380D02*
X140673809Y-140502380D01*
X140578571Y-140645238D01*
X140483333Y-140740476D01*
X140388095Y-140788095D01*
X141340476Y-140597619D02*
X141388095Y-140550000D01*
X141483333Y-140502380D01*
X141721428Y-140502380D01*
X141816666Y-140550000D01*
X141864285Y-140597619D01*
X141911904Y-140692857D01*
X141911904Y-140788095D01*
X141864285Y-140930952D01*
X141292857Y-141502380D01*
X141911904Y-141502380D01*
G04 #@! TO.C,C13*
X171407142Y-115442857D02*
X171454761Y-115490476D01*
X171502380Y-115633333D01*
X171502380Y-115728571D01*
X171454761Y-115871428D01*
X171359523Y-115966666D01*
X171264285Y-116014285D01*
X171073809Y-116061904D01*
X170930952Y-116061904D01*
X170740476Y-116014285D01*
X170645238Y-115966666D01*
X170550000Y-115871428D01*
X170502380Y-115728571D01*
X170502380Y-115633333D01*
X170550000Y-115490476D01*
X170597619Y-115442857D01*
X171502380Y-114490476D02*
X171502380Y-115061904D01*
X171502380Y-114776190D02*
X170502380Y-114776190D01*
X170645238Y-114871428D01*
X170740476Y-114966666D01*
X170788095Y-115061904D01*
X170502380Y-114157142D02*
X170502380Y-113538095D01*
X170883333Y-113871428D01*
X170883333Y-113728571D01*
X170930952Y-113633333D01*
X170978571Y-113585714D01*
X171073809Y-113538095D01*
X171311904Y-113538095D01*
X171407142Y-113585714D01*
X171454761Y-113633333D01*
X171502380Y-113728571D01*
X171502380Y-114014285D01*
X171454761Y-114109523D01*
X171407142Y-114157142D01*
G04 #@! TO.C,C14*
X173457142Y-115467857D02*
X173504761Y-115515476D01*
X173552380Y-115658333D01*
X173552380Y-115753571D01*
X173504761Y-115896428D01*
X173409523Y-115991666D01*
X173314285Y-116039285D01*
X173123809Y-116086904D01*
X172980952Y-116086904D01*
X172790476Y-116039285D01*
X172695238Y-115991666D01*
X172600000Y-115896428D01*
X172552380Y-115753571D01*
X172552380Y-115658333D01*
X172600000Y-115515476D01*
X172647619Y-115467857D01*
X173552380Y-114515476D02*
X173552380Y-115086904D01*
X173552380Y-114801190D02*
X172552380Y-114801190D01*
X172695238Y-114896428D01*
X172790476Y-114991666D01*
X172838095Y-115086904D01*
X172885714Y-113658333D02*
X173552380Y-113658333D01*
X172504761Y-113896428D02*
X173219047Y-114134523D01*
X173219047Y-113515476D01*
G04 #@! TO.C,R1*
X157952380Y-106916666D02*
X157476190Y-107250000D01*
X157952380Y-107488095D02*
X156952380Y-107488095D01*
X156952380Y-107107142D01*
X157000000Y-107011904D01*
X157047619Y-106964285D01*
X157142857Y-106916666D01*
X157285714Y-106916666D01*
X157380952Y-106964285D01*
X157428571Y-107011904D01*
X157476190Y-107107142D01*
X157476190Y-107488095D01*
X157952380Y-105964285D02*
X157952380Y-106535714D01*
X157952380Y-106250000D02*
X156952380Y-106250000D01*
X157095238Y-106345238D01*
X157190476Y-106440476D01*
X157238095Y-106535714D01*
G04 #@! TO.C,R2*
X145608333Y-80952380D02*
X145275000Y-80476190D01*
X145036904Y-80952380D02*
X145036904Y-79952380D01*
X145417857Y-79952380D01*
X145513095Y-80000000D01*
X145560714Y-80047619D01*
X145608333Y-80142857D01*
X145608333Y-80285714D01*
X145560714Y-80380952D01*
X145513095Y-80428571D01*
X145417857Y-80476190D01*
X145036904Y-80476190D01*
X145989285Y-80047619D02*
X146036904Y-80000000D01*
X146132142Y-79952380D01*
X146370238Y-79952380D01*
X146465476Y-80000000D01*
X146513095Y-80047619D01*
X146560714Y-80142857D01*
X146560714Y-80238095D01*
X146513095Y-80380952D01*
X145941666Y-80952380D01*
X146560714Y-80952380D01*
G04 #@! TO.C,R3*
X132952380Y-109916666D02*
X132476190Y-110250000D01*
X132952380Y-110488095D02*
X131952380Y-110488095D01*
X131952380Y-110107142D01*
X132000000Y-110011904D01*
X132047619Y-109964285D01*
X132142857Y-109916666D01*
X132285714Y-109916666D01*
X132380952Y-109964285D01*
X132428571Y-110011904D01*
X132476190Y-110107142D01*
X132476190Y-110488095D01*
X131952380Y-109583333D02*
X131952380Y-108964285D01*
X132333333Y-109297619D01*
X132333333Y-109154761D01*
X132380952Y-109059523D01*
X132428571Y-109011904D01*
X132523809Y-108964285D01*
X132761904Y-108964285D01*
X132857142Y-109011904D01*
X132904761Y-109059523D01*
X132952380Y-109154761D01*
X132952380Y-109440476D01*
X132904761Y-109535714D01*
X132857142Y-109583333D01*
G04 #@! TO.C,R4*
X165202380Y-103891666D02*
X164726190Y-104225000D01*
X165202380Y-104463095D02*
X164202380Y-104463095D01*
X164202380Y-104082142D01*
X164250000Y-103986904D01*
X164297619Y-103939285D01*
X164392857Y-103891666D01*
X164535714Y-103891666D01*
X164630952Y-103939285D01*
X164678571Y-103986904D01*
X164726190Y-104082142D01*
X164726190Y-104463095D01*
X164535714Y-103034523D02*
X165202380Y-103034523D01*
X164154761Y-103272619D02*
X164869047Y-103510714D01*
X164869047Y-102891666D01*
G04 #@! TO.C,R5*
X151433333Y-133002380D02*
X151100000Y-132526190D01*
X150861904Y-133002380D02*
X150861904Y-132002380D01*
X151242857Y-132002380D01*
X151338095Y-132050000D01*
X151385714Y-132097619D01*
X151433333Y-132192857D01*
X151433333Y-132335714D01*
X151385714Y-132430952D01*
X151338095Y-132478571D01*
X151242857Y-132526190D01*
X150861904Y-132526190D01*
X152338095Y-132002380D02*
X151861904Y-132002380D01*
X151814285Y-132478571D01*
X151861904Y-132430952D01*
X151957142Y-132383333D01*
X152195238Y-132383333D01*
X152290476Y-132430952D01*
X152338095Y-132478571D01*
X152385714Y-132573809D01*
X152385714Y-132811904D01*
X152338095Y-132907142D01*
X152290476Y-132954761D01*
X152195238Y-133002380D01*
X151957142Y-133002380D01*
X151861904Y-132954761D01*
X151814285Y-132907142D01*
G04 #@! TO.C,R6*
X161833333Y-95202380D02*
X161500000Y-94726190D01*
X161261904Y-95202380D02*
X161261904Y-94202380D01*
X161642857Y-94202380D01*
X161738095Y-94250000D01*
X161785714Y-94297619D01*
X161833333Y-94392857D01*
X161833333Y-94535714D01*
X161785714Y-94630952D01*
X161738095Y-94678571D01*
X161642857Y-94726190D01*
X161261904Y-94726190D01*
X162690476Y-94202380D02*
X162500000Y-94202380D01*
X162404761Y-94250000D01*
X162357142Y-94297619D01*
X162261904Y-94440476D01*
X162214285Y-94630952D01*
X162214285Y-95011904D01*
X162261904Y-95107142D01*
X162309523Y-95154761D01*
X162404761Y-95202380D01*
X162595238Y-95202380D01*
X162690476Y-95154761D01*
X162738095Y-95107142D01*
X162785714Y-95011904D01*
X162785714Y-94773809D01*
X162738095Y-94678571D01*
X162690476Y-94630952D01*
X162595238Y-94583333D01*
X162404761Y-94583333D01*
X162309523Y-94630952D01*
X162261904Y-94678571D01*
X162214285Y-94773809D01*
G04 #@! TO.C,R7*
X161833333Y-97202380D02*
X161500000Y-96726190D01*
X161261904Y-97202380D02*
X161261904Y-96202380D01*
X161642857Y-96202380D01*
X161738095Y-96250000D01*
X161785714Y-96297619D01*
X161833333Y-96392857D01*
X161833333Y-96535714D01*
X161785714Y-96630952D01*
X161738095Y-96678571D01*
X161642857Y-96726190D01*
X161261904Y-96726190D01*
X162166666Y-96202380D02*
X162833333Y-96202380D01*
X162404761Y-97202380D01*
G04 #@! TO.C,R8*
X126452380Y-114916666D02*
X125976190Y-115250000D01*
X126452380Y-115488095D02*
X125452380Y-115488095D01*
X125452380Y-115107142D01*
X125500000Y-115011904D01*
X125547619Y-114964285D01*
X125642857Y-114916666D01*
X125785714Y-114916666D01*
X125880952Y-114964285D01*
X125928571Y-115011904D01*
X125976190Y-115107142D01*
X125976190Y-115488095D01*
X125880952Y-114345238D02*
X125833333Y-114440476D01*
X125785714Y-114488095D01*
X125690476Y-114535714D01*
X125642857Y-114535714D01*
X125547619Y-114488095D01*
X125500000Y-114440476D01*
X125452380Y-114345238D01*
X125452380Y-114154761D01*
X125500000Y-114059523D01*
X125547619Y-114011904D01*
X125642857Y-113964285D01*
X125690476Y-113964285D01*
X125785714Y-114011904D01*
X125833333Y-114059523D01*
X125880952Y-114154761D01*
X125880952Y-114345238D01*
X125928571Y-114440476D01*
X125976190Y-114488095D01*
X126071428Y-114535714D01*
X126261904Y-114535714D01*
X126357142Y-114488095D01*
X126404761Y-114440476D01*
X126452380Y-114345238D01*
X126452380Y-114154761D01*
X126404761Y-114059523D01*
X126357142Y-114011904D01*
X126261904Y-113964285D01*
X126071428Y-113964285D01*
X125976190Y-114011904D01*
X125928571Y-114059523D01*
X125880952Y-114154761D01*
G04 #@! TO.C,R9*
X124452380Y-114916666D02*
X123976190Y-115250000D01*
X124452380Y-115488095D02*
X123452380Y-115488095D01*
X123452380Y-115107142D01*
X123500000Y-115011904D01*
X123547619Y-114964285D01*
X123642857Y-114916666D01*
X123785714Y-114916666D01*
X123880952Y-114964285D01*
X123928571Y-115011904D01*
X123976190Y-115107142D01*
X123976190Y-115488095D01*
X124452380Y-114440476D02*
X124452380Y-114250000D01*
X124404761Y-114154761D01*
X124357142Y-114107142D01*
X124214285Y-114011904D01*
X124023809Y-113964285D01*
X123642857Y-113964285D01*
X123547619Y-114011904D01*
X123500000Y-114059523D01*
X123452380Y-114154761D01*
X123452380Y-114345238D01*
X123500000Y-114440476D01*
X123547619Y-114488095D01*
X123642857Y-114535714D01*
X123880952Y-114535714D01*
X123976190Y-114488095D01*
X124023809Y-114440476D01*
X124071428Y-114345238D01*
X124071428Y-114154761D01*
X124023809Y-114059523D01*
X123976190Y-114011904D01*
X123880952Y-113964285D01*
G04 #@! TO.C,R10*
X139607142Y-74452380D02*
X139273809Y-73976190D01*
X139035714Y-74452380D02*
X139035714Y-73452380D01*
X139416666Y-73452380D01*
X139511904Y-73500000D01*
X139559523Y-73547619D01*
X139607142Y-73642857D01*
X139607142Y-73785714D01*
X139559523Y-73880952D01*
X139511904Y-73928571D01*
X139416666Y-73976190D01*
X139035714Y-73976190D01*
X140559523Y-74452380D02*
X139988095Y-74452380D01*
X140273809Y-74452380D02*
X140273809Y-73452380D01*
X140178571Y-73595238D01*
X140083333Y-73690476D01*
X139988095Y-73738095D01*
X141178571Y-73452380D02*
X141273809Y-73452380D01*
X141369047Y-73500000D01*
X141416666Y-73547619D01*
X141464285Y-73642857D01*
X141511904Y-73833333D01*
X141511904Y-74071428D01*
X141464285Y-74261904D01*
X141416666Y-74357142D01*
X141369047Y-74404761D01*
X141273809Y-74452380D01*
X141178571Y-74452380D01*
X141083333Y-74404761D01*
X141035714Y-74357142D01*
X140988095Y-74261904D01*
X140940476Y-74071428D01*
X140940476Y-73833333D01*
X140988095Y-73642857D01*
X141035714Y-73547619D01*
X141083333Y-73500000D01*
X141178571Y-73452380D01*
G04 #@! TO.C,R11*
X156807142Y-139452380D02*
X156473809Y-138976190D01*
X156235714Y-139452380D02*
X156235714Y-138452380D01*
X156616666Y-138452380D01*
X156711904Y-138500000D01*
X156759523Y-138547619D01*
X156807142Y-138642857D01*
X156807142Y-138785714D01*
X156759523Y-138880952D01*
X156711904Y-138928571D01*
X156616666Y-138976190D01*
X156235714Y-138976190D01*
X157759523Y-139452380D02*
X157188095Y-139452380D01*
X157473809Y-139452380D02*
X157473809Y-138452380D01*
X157378571Y-138595238D01*
X157283333Y-138690476D01*
X157188095Y-138738095D01*
X158711904Y-139452380D02*
X158140476Y-139452380D01*
X158426190Y-139452380D02*
X158426190Y-138452380D01*
X158330952Y-138595238D01*
X158235714Y-138690476D01*
X158140476Y-138738095D01*
G04 #@! TO.C,R12*
X139607142Y-72452380D02*
X139273809Y-71976190D01*
X139035714Y-72452380D02*
X139035714Y-71452380D01*
X139416666Y-71452380D01*
X139511904Y-71500000D01*
X139559523Y-71547619D01*
X139607142Y-71642857D01*
X139607142Y-71785714D01*
X139559523Y-71880952D01*
X139511904Y-71928571D01*
X139416666Y-71976190D01*
X139035714Y-71976190D01*
X140559523Y-72452380D02*
X139988095Y-72452380D01*
X140273809Y-72452380D02*
X140273809Y-71452380D01*
X140178571Y-71595238D01*
X140083333Y-71690476D01*
X139988095Y-71738095D01*
X140940476Y-71547619D02*
X140988095Y-71500000D01*
X141083333Y-71452380D01*
X141321428Y-71452380D01*
X141416666Y-71500000D01*
X141464285Y-71547619D01*
X141511904Y-71642857D01*
X141511904Y-71738095D01*
X141464285Y-71880952D01*
X140892857Y-72452380D01*
X141511904Y-72452380D01*
G04 #@! TO.C,R13*
X156807142Y-141502380D02*
X156473809Y-141026190D01*
X156235714Y-141502380D02*
X156235714Y-140502380D01*
X156616666Y-140502380D01*
X156711904Y-140550000D01*
X156759523Y-140597619D01*
X156807142Y-140692857D01*
X156807142Y-140835714D01*
X156759523Y-140930952D01*
X156711904Y-140978571D01*
X156616666Y-141026190D01*
X156235714Y-141026190D01*
X157759523Y-141502380D02*
X157188095Y-141502380D01*
X157473809Y-141502380D02*
X157473809Y-140502380D01*
X157378571Y-140645238D01*
X157283333Y-140740476D01*
X157188095Y-140788095D01*
X158092857Y-140502380D02*
X158711904Y-140502380D01*
X158378571Y-140883333D01*
X158521428Y-140883333D01*
X158616666Y-140930952D01*
X158664285Y-140978571D01*
X158711904Y-141073809D01*
X158711904Y-141311904D01*
X158664285Y-141407142D01*
X158616666Y-141454761D01*
X158521428Y-141502380D01*
X158235714Y-141502380D01*
X158140476Y-141454761D01*
X158092857Y-141407142D01*
G04 #@! TO.C,R14*
X171302380Y-98942857D02*
X170826190Y-99276190D01*
X171302380Y-99514285D02*
X170302380Y-99514285D01*
X170302380Y-99133333D01*
X170350000Y-99038095D01*
X170397619Y-98990476D01*
X170492857Y-98942857D01*
X170635714Y-98942857D01*
X170730952Y-98990476D01*
X170778571Y-99038095D01*
X170826190Y-99133333D01*
X170826190Y-99514285D01*
X171302380Y-97990476D02*
X171302380Y-98561904D01*
X171302380Y-98276190D02*
X170302380Y-98276190D01*
X170445238Y-98371428D01*
X170540476Y-98466666D01*
X170588095Y-98561904D01*
X170635714Y-97133333D02*
X171302380Y-97133333D01*
X170254761Y-97371428D02*
X170969047Y-97609523D01*
X170969047Y-96990476D01*
G04 #@! TO.C,R15*
X173352380Y-98942857D02*
X172876190Y-99276190D01*
X173352380Y-99514285D02*
X172352380Y-99514285D01*
X172352380Y-99133333D01*
X172400000Y-99038095D01*
X172447619Y-98990476D01*
X172542857Y-98942857D01*
X172685714Y-98942857D01*
X172780952Y-98990476D01*
X172828571Y-99038095D01*
X172876190Y-99133333D01*
X172876190Y-99514285D01*
X173352380Y-97990476D02*
X173352380Y-98561904D01*
X173352380Y-98276190D02*
X172352380Y-98276190D01*
X172495238Y-98371428D01*
X172590476Y-98466666D01*
X172638095Y-98561904D01*
X172352380Y-97085714D02*
X172352380Y-97561904D01*
X172828571Y-97609523D01*
X172780952Y-97561904D01*
X172733333Y-97466666D01*
X172733333Y-97228571D01*
X172780952Y-97133333D01*
X172828571Y-97085714D01*
X172923809Y-97038095D01*
X173161904Y-97038095D01*
X173257142Y-97085714D01*
X173304761Y-97133333D01*
X173352380Y-97228571D01*
X173352380Y-97466666D01*
X173304761Y-97561904D01*
X173257142Y-97609523D01*
G04 #@! TO.C,U1*
X128238095Y-103952380D02*
X128238095Y-104761904D01*
X128285714Y-104857142D01*
X128333333Y-104904761D01*
X128428571Y-104952380D01*
X128619047Y-104952380D01*
X128714285Y-104904761D01*
X128761904Y-104857142D01*
X128809523Y-104761904D01*
X128809523Y-103952380D01*
X129809523Y-104952380D02*
X129238095Y-104952380D01*
X129523809Y-104952380D02*
X129523809Y-103952380D01*
X129428571Y-104095238D01*
X129333333Y-104190476D01*
X129238095Y-104238095D01*
G04 #@! TO.C,U2*
X131238095Y-121952380D02*
X131238095Y-122761904D01*
X131285714Y-122857142D01*
X131333333Y-122904761D01*
X131428571Y-122952380D01*
X131619047Y-122952380D01*
X131714285Y-122904761D01*
X131761904Y-122857142D01*
X131809523Y-122761904D01*
X131809523Y-121952380D01*
X132238095Y-122047619D02*
X132285714Y-122000000D01*
X132380952Y-121952380D01*
X132619047Y-121952380D01*
X132714285Y-122000000D01*
X132761904Y-122047619D01*
X132809523Y-122142857D01*
X132809523Y-122238095D01*
X132761904Y-122380952D01*
X132190476Y-122952380D01*
X132809523Y-122952380D01*
G04 #@! TO.C,U3*
X150738095Y-76452380D02*
X150738095Y-77261904D01*
X150785714Y-77357142D01*
X150833333Y-77404761D01*
X150928571Y-77452380D01*
X151119047Y-77452380D01*
X151214285Y-77404761D01*
X151261904Y-77357142D01*
X151309523Y-77261904D01*
X151309523Y-76452380D01*
X151690476Y-76452380D02*
X152309523Y-76452380D01*
X151976190Y-76833333D01*
X152119047Y-76833333D01*
X152214285Y-76880952D01*
X152261904Y-76928571D01*
X152309523Y-77023809D01*
X152309523Y-77261904D01*
X152261904Y-77357142D01*
X152214285Y-77404761D01*
X152119047Y-77452380D01*
X151833333Y-77452380D01*
X151738095Y-77404761D01*
X151690476Y-77357142D01*
G04 #@! TO.C,U4*
X145238095Y-135952380D02*
X145238095Y-136761904D01*
X145285714Y-136857142D01*
X145333333Y-136904761D01*
X145428571Y-136952380D01*
X145619047Y-136952380D01*
X145714285Y-136904761D01*
X145761904Y-136857142D01*
X145809523Y-136761904D01*
X145809523Y-135952380D01*
X146714285Y-136285714D02*
X146714285Y-136952380D01*
X146476190Y-135904761D02*
X146238095Y-136619047D01*
X146857142Y-136619047D01*
G04 #@! TO.C,U5*
X167488095Y-108952380D02*
X167488095Y-109761904D01*
X167535714Y-109857142D01*
X167583333Y-109904761D01*
X167678571Y-109952380D01*
X167869047Y-109952380D01*
X167964285Y-109904761D01*
X168011904Y-109857142D01*
X168059523Y-109761904D01*
X168059523Y-108952380D01*
X169011904Y-108952380D02*
X168535714Y-108952380D01*
X168488095Y-109428571D01*
X168535714Y-109380952D01*
X168630952Y-109333333D01*
X168869047Y-109333333D01*
X168964285Y-109380952D01*
X169011904Y-109428571D01*
X169059523Y-109523809D01*
X169059523Y-109761904D01*
X169011904Y-109857142D01*
X168964285Y-109904761D01*
X168869047Y-109952380D01*
X168630952Y-109952380D01*
X168535714Y-109904761D01*
X168488095Y-109857142D01*
G04 #@! TO.C,U6*
X143488095Y-110452380D02*
X143488095Y-111261904D01*
X143535714Y-111357142D01*
X143583333Y-111404761D01*
X143678571Y-111452380D01*
X143869047Y-111452380D01*
X143964285Y-111404761D01*
X144011904Y-111357142D01*
X144059523Y-111261904D01*
X144059523Y-110452380D01*
X144964285Y-110452380D02*
X144773809Y-110452380D01*
X144678571Y-110500000D01*
X144630952Y-110547619D01*
X144535714Y-110690476D01*
X144488095Y-110880952D01*
X144488095Y-111261904D01*
X144535714Y-111357142D01*
X144583333Y-111404761D01*
X144678571Y-111452380D01*
X144869047Y-111452380D01*
X144964285Y-111404761D01*
X145011904Y-111357142D01*
X145059523Y-111261904D01*
X145059523Y-111023809D01*
X145011904Y-110928571D01*
X144964285Y-110880952D01*
X144869047Y-110833333D01*
X144678571Y-110833333D01*
X144583333Y-110880952D01*
X144535714Y-110928571D01*
X144488095Y-111023809D01*
G04 #@! TO.C,Y1*
X148923809Y-91976190D02*
X148923809Y-92452380D01*
X148590476Y-91452380D02*
X148923809Y-91976190D01*
X149257142Y-91452380D01*
X150114285Y-92452380D02*
X149542857Y-92452380D01*
X149828571Y-92452380D02*
X149828571Y-91452380D01*
X149733333Y-91595238D01*
X149638095Y-91690476D01*
X149542857Y-91738095D01*
G04 #@! TO.C,C15*
X140107142Y-110142857D02*
X140154761Y-110190476D01*
X140202380Y-110333333D01*
X140202380Y-110428571D01*
X140154761Y-110571428D01*
X140059523Y-110666666D01*
X139964285Y-110714285D01*
X139773809Y-110761904D01*
X139630952Y-110761904D01*
X139440476Y-110714285D01*
X139345238Y-110666666D01*
X139250000Y-110571428D01*
X139202380Y-110428571D01*
X139202380Y-110333333D01*
X139250000Y-110190476D01*
X139297619Y-110142857D01*
X140202380Y-109190476D02*
X140202380Y-109761904D01*
X140202380Y-109476190D02*
X139202380Y-109476190D01*
X139345238Y-109571428D01*
X139440476Y-109666666D01*
X139488095Y-109761904D01*
X139202380Y-108285714D02*
X139202380Y-108761904D01*
X139678571Y-108809523D01*
X139630952Y-108761904D01*
X139583333Y-108666666D01*
X139583333Y-108428571D01*
X139630952Y-108333333D01*
X139678571Y-108285714D01*
X139773809Y-108238095D01*
X140011904Y-108238095D01*
X140107142Y-108285714D01*
X140154761Y-108333333D01*
X140202380Y-108428571D01*
X140202380Y-108666666D01*
X140154761Y-108761904D01*
X140107142Y-108809523D01*
G04 #@! TO.C,C16*
X151607142Y-115857142D02*
X151559523Y-115904761D01*
X151416666Y-115952380D01*
X151321428Y-115952380D01*
X151178571Y-115904761D01*
X151083333Y-115809523D01*
X151035714Y-115714285D01*
X150988095Y-115523809D01*
X150988095Y-115380952D01*
X151035714Y-115190476D01*
X151083333Y-115095238D01*
X151178571Y-115000000D01*
X151321428Y-114952380D01*
X151416666Y-114952380D01*
X151559523Y-115000000D01*
X151607142Y-115047619D01*
X152559523Y-115952380D02*
X151988095Y-115952380D01*
X152273809Y-115952380D02*
X152273809Y-114952380D01*
X152178571Y-115095238D01*
X152083333Y-115190476D01*
X151988095Y-115238095D01*
X153416666Y-114952380D02*
X153226190Y-114952380D01*
X153130952Y-115000000D01*
X153083333Y-115047619D01*
X152988095Y-115190476D01*
X152940476Y-115380952D01*
X152940476Y-115761904D01*
X152988095Y-115857142D01*
X153035714Y-115904761D01*
X153130952Y-115952380D01*
X153321428Y-115952380D01*
X153416666Y-115904761D01*
X153464285Y-115857142D01*
X153511904Y-115761904D01*
X153511904Y-115523809D01*
X153464285Y-115428571D01*
X153416666Y-115380952D01*
X153321428Y-115333333D01*
X153130952Y-115333333D01*
X153035714Y-115380952D01*
X152988095Y-115428571D01*
X152940476Y-115523809D01*
G04 #@! TO.C,C17*
X155857142Y-107892857D02*
X155904761Y-107940476D01*
X155952380Y-108083333D01*
X155952380Y-108178571D01*
X155904761Y-108321428D01*
X155809523Y-108416666D01*
X155714285Y-108464285D01*
X155523809Y-108511904D01*
X155380952Y-108511904D01*
X155190476Y-108464285D01*
X155095238Y-108416666D01*
X155000000Y-108321428D01*
X154952380Y-108178571D01*
X154952380Y-108083333D01*
X155000000Y-107940476D01*
X155047619Y-107892857D01*
X155952380Y-106940476D02*
X155952380Y-107511904D01*
X155952380Y-107226190D02*
X154952380Y-107226190D01*
X155095238Y-107321428D01*
X155190476Y-107416666D01*
X155238095Y-107511904D01*
X154952380Y-106607142D02*
X154952380Y-105940476D01*
X155952380Y-106369047D01*
G04 #@! TO.C,C18*
X142757142Y-99857142D02*
X142709523Y-99904761D01*
X142566666Y-99952380D01*
X142471428Y-99952380D01*
X142328571Y-99904761D01*
X142233333Y-99809523D01*
X142185714Y-99714285D01*
X142138095Y-99523809D01*
X142138095Y-99380952D01*
X142185714Y-99190476D01*
X142233333Y-99095238D01*
X142328571Y-99000000D01*
X142471428Y-98952380D01*
X142566666Y-98952380D01*
X142709523Y-99000000D01*
X142757142Y-99047619D01*
X143709523Y-99952380D02*
X143138095Y-99952380D01*
X143423809Y-99952380D02*
X143423809Y-98952380D01*
X143328571Y-99095238D01*
X143233333Y-99190476D01*
X143138095Y-99238095D01*
X144280952Y-99380952D02*
X144185714Y-99333333D01*
X144138095Y-99285714D01*
X144090476Y-99190476D01*
X144090476Y-99142857D01*
X144138095Y-99047619D01*
X144185714Y-99000000D01*
X144280952Y-98952380D01*
X144471428Y-98952380D01*
X144566666Y-99000000D01*
X144614285Y-99047619D01*
X144661904Y-99142857D01*
X144661904Y-99190476D01*
X144614285Y-99285714D01*
X144566666Y-99333333D01*
X144471428Y-99380952D01*
X144280952Y-99380952D01*
X144185714Y-99428571D01*
X144138095Y-99476190D01*
X144090476Y-99571428D01*
X144090476Y-99761904D01*
X144138095Y-99857142D01*
X144185714Y-99904761D01*
X144280952Y-99952380D01*
X144471428Y-99952380D01*
X144566666Y-99904761D01*
X144614285Y-99857142D01*
X144661904Y-99761904D01*
X144661904Y-99571428D01*
X144614285Y-99476190D01*
X144566666Y-99428571D01*
X144471428Y-99380952D01*
G04 #@! TO.C,D1*
X145024404Y-78452380D02*
X145024404Y-77452380D01*
X145262500Y-77452380D01*
X145405357Y-77500000D01*
X145500595Y-77595238D01*
X145548214Y-77690476D01*
X145595833Y-77880952D01*
X145595833Y-78023809D01*
X145548214Y-78214285D01*
X145500595Y-78309523D01*
X145405357Y-78404761D01*
X145262500Y-78452380D01*
X145024404Y-78452380D01*
X146548214Y-78452380D02*
X145976785Y-78452380D01*
X146262500Y-78452380D02*
X146262500Y-77452380D01*
X146167261Y-77595238D01*
X146072023Y-77690476D01*
X145976785Y-77738095D01*
G04 #@! TO.C,D2*
X130452380Y-110488095D02*
X129452380Y-110488095D01*
X129452380Y-110250000D01*
X129500000Y-110107142D01*
X129595238Y-110011904D01*
X129690476Y-109964285D01*
X129880952Y-109916666D01*
X130023809Y-109916666D01*
X130214285Y-109964285D01*
X130309523Y-110011904D01*
X130404761Y-110107142D01*
X130452380Y-110250000D01*
X130452380Y-110488095D01*
X129547619Y-109535714D02*
X129500000Y-109488095D01*
X129452380Y-109392857D01*
X129452380Y-109154761D01*
X129500000Y-109059523D01*
X129547619Y-109011904D01*
X129642857Y-108964285D01*
X129738095Y-108964285D01*
X129880952Y-109011904D01*
X130452380Y-109583333D01*
X130452380Y-108964285D01*
G04 #@! TO.C,D3*
X167602380Y-104425595D02*
X166602380Y-104425595D01*
X166602380Y-104187500D01*
X166650000Y-104044642D01*
X166745238Y-103949404D01*
X166840476Y-103901785D01*
X167030952Y-103854166D01*
X167173809Y-103854166D01*
X167364285Y-103901785D01*
X167459523Y-103949404D01*
X167554761Y-104044642D01*
X167602380Y-104187500D01*
X167602380Y-104425595D01*
X166602380Y-103520833D02*
X166602380Y-102901785D01*
X166983333Y-103235119D01*
X166983333Y-103092261D01*
X167030952Y-102997023D01*
X167078571Y-102949404D01*
X167173809Y-102901785D01*
X167411904Y-102901785D01*
X167507142Y-102949404D01*
X167554761Y-102997023D01*
X167602380Y-103092261D01*
X167602380Y-103377976D01*
X167554761Y-103473214D01*
X167507142Y-103520833D01*
G04 #@! TO.C,D4*
X150861904Y-135602380D02*
X150861904Y-134602380D01*
X151100000Y-134602380D01*
X151242857Y-134650000D01*
X151338095Y-134745238D01*
X151385714Y-134840476D01*
X151433333Y-135030952D01*
X151433333Y-135173809D01*
X151385714Y-135364285D01*
X151338095Y-135459523D01*
X151242857Y-135554761D01*
X151100000Y-135602380D01*
X150861904Y-135602380D01*
X152290476Y-134935714D02*
X152290476Y-135602380D01*
X152052380Y-134554761D02*
X151814285Y-135269047D01*
X152433333Y-135269047D01*
G04 #@! TD*
%LPC*%
D15*
G04 #@! TO.C,J1*
X166370000Y-91200000D03*
X166370000Y-88660000D03*
X166370000Y-86120000D03*
X166370000Y-83580000D03*
X166370000Y-81040000D03*
D16*
X166370000Y-78500000D03*
G04 #@! TD*
D17*
G04 #@! TO.C,J2*
X124345000Y-126111000D03*
X124345000Y-124191000D03*
D18*
X124615000Y-127881000D03*
X124615000Y-122421000D03*
D19*
X127615000Y-127571000D03*
X127615000Y-122731000D03*
D20*
X127495000Y-126451000D03*
X127495000Y-125801000D03*
X127495000Y-125151000D03*
X127495000Y-124501000D03*
X127495000Y-123851000D03*
D21*
X127615000Y-128051000D03*
X127595000Y-122301000D03*
D22*
X126295000Y-128151000D03*
X126295000Y-122201000D03*
D23*
X125545000Y-122421000D03*
X125545000Y-127901000D03*
G04 #@! TD*
D24*
G04 #@! TO.C,C1*
G36*
X131696071Y-116726623D02*
X131728781Y-116731475D01*
X131760857Y-116739509D01*
X131791991Y-116750649D01*
X131821884Y-116764787D01*
X131850247Y-116781787D01*
X131876807Y-116801485D01*
X131901308Y-116823692D01*
X131923515Y-116848193D01*
X131943213Y-116874753D01*
X131960213Y-116903116D01*
X131974351Y-116933009D01*
X131985491Y-116964143D01*
X131993525Y-116996219D01*
X131998377Y-117028929D01*
X132000000Y-117061956D01*
X132000000Y-117938044D01*
X131998377Y-117971071D01*
X131993525Y-118003781D01*
X131985491Y-118035857D01*
X131974351Y-118066991D01*
X131960213Y-118096884D01*
X131943213Y-118125247D01*
X131923515Y-118151807D01*
X131901308Y-118176308D01*
X131876807Y-118198515D01*
X131850247Y-118218213D01*
X131821884Y-118235213D01*
X131791991Y-118249351D01*
X131760857Y-118260491D01*
X131728781Y-118268525D01*
X131696071Y-118273377D01*
X131663044Y-118275000D01*
X130536956Y-118275000D01*
X130503929Y-118273377D01*
X130471219Y-118268525D01*
X130439143Y-118260491D01*
X130408009Y-118249351D01*
X130378116Y-118235213D01*
X130349753Y-118218213D01*
X130323193Y-118198515D01*
X130298692Y-118176308D01*
X130276485Y-118151807D01*
X130256787Y-118125247D01*
X130239787Y-118096884D01*
X130225649Y-118066991D01*
X130214509Y-118035857D01*
X130206475Y-118003781D01*
X130201623Y-117971071D01*
X130200000Y-117938044D01*
X130200000Y-117061956D01*
X130201623Y-117028929D01*
X130206475Y-116996219D01*
X130214509Y-116964143D01*
X130225649Y-116933009D01*
X130239787Y-116903116D01*
X130256787Y-116874753D01*
X130276485Y-116848193D01*
X130298692Y-116823692D01*
X130323193Y-116801485D01*
X130349753Y-116781787D01*
X130378116Y-116764787D01*
X130408009Y-116750649D01*
X130439143Y-116739509D01*
X130471219Y-116731475D01*
X130503929Y-116726623D01*
X130536956Y-116725000D01*
X131663044Y-116725000D01*
X131696071Y-116726623D01*
X131696071Y-116726623D01*
G37*
D25*
X131100000Y-117500000D03*
D24*
G36*
X131696071Y-118776623D02*
X131728781Y-118781475D01*
X131760857Y-118789509D01*
X131791991Y-118800649D01*
X131821884Y-118814787D01*
X131850247Y-118831787D01*
X131876807Y-118851485D01*
X131901308Y-118873692D01*
X131923515Y-118898193D01*
X131943213Y-118924753D01*
X131960213Y-118953116D01*
X131974351Y-118983009D01*
X131985491Y-119014143D01*
X131993525Y-119046219D01*
X131998377Y-119078929D01*
X132000000Y-119111956D01*
X132000000Y-119988044D01*
X131998377Y-120021071D01*
X131993525Y-120053781D01*
X131985491Y-120085857D01*
X131974351Y-120116991D01*
X131960213Y-120146884D01*
X131943213Y-120175247D01*
X131923515Y-120201807D01*
X131901308Y-120226308D01*
X131876807Y-120248515D01*
X131850247Y-120268213D01*
X131821884Y-120285213D01*
X131791991Y-120299351D01*
X131760857Y-120310491D01*
X131728781Y-120318525D01*
X131696071Y-120323377D01*
X131663044Y-120325000D01*
X130536956Y-120325000D01*
X130503929Y-120323377D01*
X130471219Y-120318525D01*
X130439143Y-120310491D01*
X130408009Y-120299351D01*
X130378116Y-120285213D01*
X130349753Y-120268213D01*
X130323193Y-120248515D01*
X130298692Y-120226308D01*
X130276485Y-120201807D01*
X130256787Y-120175247D01*
X130239787Y-120146884D01*
X130225649Y-120116991D01*
X130214509Y-120085857D01*
X130206475Y-120053781D01*
X130201623Y-120021071D01*
X130200000Y-119988044D01*
X130200000Y-119111956D01*
X130201623Y-119078929D01*
X130206475Y-119046219D01*
X130214509Y-119014143D01*
X130225649Y-118983009D01*
X130239787Y-118953116D01*
X130256787Y-118924753D01*
X130276485Y-118898193D01*
X130298692Y-118873692D01*
X130323193Y-118851485D01*
X130349753Y-118831787D01*
X130378116Y-118814787D01*
X130408009Y-118800649D01*
X130439143Y-118789509D01*
X130471219Y-118781475D01*
X130503929Y-118776623D01*
X130536956Y-118775000D01*
X131663044Y-118775000D01*
X131696071Y-118776623D01*
X131696071Y-118776623D01*
G37*
D25*
X131100000Y-119550000D03*
G04 #@! TD*
D24*
G04 #@! TO.C,C2*
G36*
X126596071Y-100676623D02*
X126628781Y-100681475D01*
X126660857Y-100689509D01*
X126691991Y-100700649D01*
X126721884Y-100714787D01*
X126750247Y-100731787D01*
X126776807Y-100751485D01*
X126801308Y-100773692D01*
X126823515Y-100798193D01*
X126843213Y-100824753D01*
X126860213Y-100853116D01*
X126874351Y-100883009D01*
X126885491Y-100914143D01*
X126893525Y-100946219D01*
X126898377Y-100978929D01*
X126900000Y-101011956D01*
X126900000Y-101888044D01*
X126898377Y-101921071D01*
X126893525Y-101953781D01*
X126885491Y-101985857D01*
X126874351Y-102016991D01*
X126860213Y-102046884D01*
X126843213Y-102075247D01*
X126823515Y-102101807D01*
X126801308Y-102126308D01*
X126776807Y-102148515D01*
X126750247Y-102168213D01*
X126721884Y-102185213D01*
X126691991Y-102199351D01*
X126660857Y-102210491D01*
X126628781Y-102218525D01*
X126596071Y-102223377D01*
X126563044Y-102225000D01*
X125436956Y-102225000D01*
X125403929Y-102223377D01*
X125371219Y-102218525D01*
X125339143Y-102210491D01*
X125308009Y-102199351D01*
X125278116Y-102185213D01*
X125249753Y-102168213D01*
X125223193Y-102148515D01*
X125198692Y-102126308D01*
X125176485Y-102101807D01*
X125156787Y-102075247D01*
X125139787Y-102046884D01*
X125125649Y-102016991D01*
X125114509Y-101985857D01*
X125106475Y-101953781D01*
X125101623Y-101921071D01*
X125100000Y-101888044D01*
X125100000Y-101011956D01*
X125101623Y-100978929D01*
X125106475Y-100946219D01*
X125114509Y-100914143D01*
X125125649Y-100883009D01*
X125139787Y-100853116D01*
X125156787Y-100824753D01*
X125176485Y-100798193D01*
X125198692Y-100773692D01*
X125223193Y-100751485D01*
X125249753Y-100731787D01*
X125278116Y-100714787D01*
X125308009Y-100700649D01*
X125339143Y-100689509D01*
X125371219Y-100681475D01*
X125403929Y-100676623D01*
X125436956Y-100675000D01*
X126563044Y-100675000D01*
X126596071Y-100676623D01*
X126596071Y-100676623D01*
G37*
D25*
X126000000Y-101450000D03*
D24*
G36*
X126596071Y-102726623D02*
X126628781Y-102731475D01*
X126660857Y-102739509D01*
X126691991Y-102750649D01*
X126721884Y-102764787D01*
X126750247Y-102781787D01*
X126776807Y-102801485D01*
X126801308Y-102823692D01*
X126823515Y-102848193D01*
X126843213Y-102874753D01*
X126860213Y-102903116D01*
X126874351Y-102933009D01*
X126885491Y-102964143D01*
X126893525Y-102996219D01*
X126898377Y-103028929D01*
X126900000Y-103061956D01*
X126900000Y-103938044D01*
X126898377Y-103971071D01*
X126893525Y-104003781D01*
X126885491Y-104035857D01*
X126874351Y-104066991D01*
X126860213Y-104096884D01*
X126843213Y-104125247D01*
X126823515Y-104151807D01*
X126801308Y-104176308D01*
X126776807Y-104198515D01*
X126750247Y-104218213D01*
X126721884Y-104235213D01*
X126691991Y-104249351D01*
X126660857Y-104260491D01*
X126628781Y-104268525D01*
X126596071Y-104273377D01*
X126563044Y-104275000D01*
X125436956Y-104275000D01*
X125403929Y-104273377D01*
X125371219Y-104268525D01*
X125339143Y-104260491D01*
X125308009Y-104249351D01*
X125278116Y-104235213D01*
X125249753Y-104218213D01*
X125223193Y-104198515D01*
X125198692Y-104176308D01*
X125176485Y-104151807D01*
X125156787Y-104125247D01*
X125139787Y-104096884D01*
X125125649Y-104066991D01*
X125114509Y-104035857D01*
X125106475Y-104003781D01*
X125101623Y-103971071D01*
X125100000Y-103938044D01*
X125100000Y-103061956D01*
X125101623Y-103028929D01*
X125106475Y-102996219D01*
X125114509Y-102964143D01*
X125125649Y-102933009D01*
X125139787Y-102903116D01*
X125156787Y-102874753D01*
X125176485Y-102848193D01*
X125198692Y-102823692D01*
X125223193Y-102801485D01*
X125249753Y-102781787D01*
X125278116Y-102764787D01*
X125308009Y-102750649D01*
X125339143Y-102739509D01*
X125371219Y-102731475D01*
X125403929Y-102726623D01*
X125436956Y-102725000D01*
X126563044Y-102725000D01*
X126596071Y-102726623D01*
X126596071Y-102726623D01*
G37*
D25*
X126000000Y-103500000D03*
G04 #@! TD*
D24*
G04 #@! TO.C,C3*
G36*
X124596071Y-102726623D02*
X124628781Y-102731475D01*
X124660857Y-102739509D01*
X124691991Y-102750649D01*
X124721884Y-102764787D01*
X124750247Y-102781787D01*
X124776807Y-102801485D01*
X124801308Y-102823692D01*
X124823515Y-102848193D01*
X124843213Y-102874753D01*
X124860213Y-102903116D01*
X124874351Y-102933009D01*
X124885491Y-102964143D01*
X124893525Y-102996219D01*
X124898377Y-103028929D01*
X124900000Y-103061956D01*
X124900000Y-103938044D01*
X124898377Y-103971071D01*
X124893525Y-104003781D01*
X124885491Y-104035857D01*
X124874351Y-104066991D01*
X124860213Y-104096884D01*
X124843213Y-104125247D01*
X124823515Y-104151807D01*
X124801308Y-104176308D01*
X124776807Y-104198515D01*
X124750247Y-104218213D01*
X124721884Y-104235213D01*
X124691991Y-104249351D01*
X124660857Y-104260491D01*
X124628781Y-104268525D01*
X124596071Y-104273377D01*
X124563044Y-104275000D01*
X123436956Y-104275000D01*
X123403929Y-104273377D01*
X123371219Y-104268525D01*
X123339143Y-104260491D01*
X123308009Y-104249351D01*
X123278116Y-104235213D01*
X123249753Y-104218213D01*
X123223193Y-104198515D01*
X123198692Y-104176308D01*
X123176485Y-104151807D01*
X123156787Y-104125247D01*
X123139787Y-104096884D01*
X123125649Y-104066991D01*
X123114509Y-104035857D01*
X123106475Y-104003781D01*
X123101623Y-103971071D01*
X123100000Y-103938044D01*
X123100000Y-103061956D01*
X123101623Y-103028929D01*
X123106475Y-102996219D01*
X123114509Y-102964143D01*
X123125649Y-102933009D01*
X123139787Y-102903116D01*
X123156787Y-102874753D01*
X123176485Y-102848193D01*
X123198692Y-102823692D01*
X123223193Y-102801485D01*
X123249753Y-102781787D01*
X123278116Y-102764787D01*
X123308009Y-102750649D01*
X123339143Y-102739509D01*
X123371219Y-102731475D01*
X123403929Y-102726623D01*
X123436956Y-102725000D01*
X124563044Y-102725000D01*
X124596071Y-102726623D01*
X124596071Y-102726623D01*
G37*
D25*
X124000000Y-103500000D03*
D24*
G36*
X124596071Y-100676623D02*
X124628781Y-100681475D01*
X124660857Y-100689509D01*
X124691991Y-100700649D01*
X124721884Y-100714787D01*
X124750247Y-100731787D01*
X124776807Y-100751485D01*
X124801308Y-100773692D01*
X124823515Y-100798193D01*
X124843213Y-100824753D01*
X124860213Y-100853116D01*
X124874351Y-100883009D01*
X124885491Y-100914143D01*
X124893525Y-100946219D01*
X124898377Y-100978929D01*
X124900000Y-101011956D01*
X124900000Y-101888044D01*
X124898377Y-101921071D01*
X124893525Y-101953781D01*
X124885491Y-101985857D01*
X124874351Y-102016991D01*
X124860213Y-102046884D01*
X124843213Y-102075247D01*
X124823515Y-102101807D01*
X124801308Y-102126308D01*
X124776807Y-102148515D01*
X124750247Y-102168213D01*
X124721884Y-102185213D01*
X124691991Y-102199351D01*
X124660857Y-102210491D01*
X124628781Y-102218525D01*
X124596071Y-102223377D01*
X124563044Y-102225000D01*
X123436956Y-102225000D01*
X123403929Y-102223377D01*
X123371219Y-102218525D01*
X123339143Y-102210491D01*
X123308009Y-102199351D01*
X123278116Y-102185213D01*
X123249753Y-102168213D01*
X123223193Y-102148515D01*
X123198692Y-102126308D01*
X123176485Y-102101807D01*
X123156787Y-102075247D01*
X123139787Y-102046884D01*
X123125649Y-102016991D01*
X123114509Y-101985857D01*
X123106475Y-101953781D01*
X123101623Y-101921071D01*
X123100000Y-101888044D01*
X123100000Y-101011956D01*
X123101623Y-100978929D01*
X123106475Y-100946219D01*
X123114509Y-100914143D01*
X123125649Y-100883009D01*
X123139787Y-100853116D01*
X123156787Y-100824753D01*
X123176485Y-100798193D01*
X123198692Y-100773692D01*
X123223193Y-100751485D01*
X123249753Y-100731787D01*
X123278116Y-100714787D01*
X123308009Y-100700649D01*
X123339143Y-100689509D01*
X123371219Y-100681475D01*
X123403929Y-100676623D01*
X123436956Y-100675000D01*
X124563044Y-100675000D01*
X124596071Y-100676623D01*
X124596071Y-100676623D01*
G37*
D25*
X124000000Y-101450000D03*
G04 #@! TD*
D24*
G04 #@! TO.C,C4*
G36*
X136096071Y-115651623D02*
X136128781Y-115656475D01*
X136160857Y-115664509D01*
X136191991Y-115675649D01*
X136221884Y-115689787D01*
X136250247Y-115706787D01*
X136276807Y-115726485D01*
X136301308Y-115748692D01*
X136323515Y-115773193D01*
X136343213Y-115799753D01*
X136360213Y-115828116D01*
X136374351Y-115858009D01*
X136385491Y-115889143D01*
X136393525Y-115921219D01*
X136398377Y-115953929D01*
X136400000Y-115986956D01*
X136400000Y-117113044D01*
X136398377Y-117146071D01*
X136393525Y-117178781D01*
X136385491Y-117210857D01*
X136374351Y-117241991D01*
X136360213Y-117271884D01*
X136343213Y-117300247D01*
X136323515Y-117326807D01*
X136301308Y-117351308D01*
X136276807Y-117373515D01*
X136250247Y-117393213D01*
X136221884Y-117410213D01*
X136191991Y-117424351D01*
X136160857Y-117435491D01*
X136128781Y-117443525D01*
X136096071Y-117448377D01*
X136063044Y-117450000D01*
X135186956Y-117450000D01*
X135153929Y-117448377D01*
X135121219Y-117443525D01*
X135089143Y-117435491D01*
X135058009Y-117424351D01*
X135028116Y-117410213D01*
X134999753Y-117393213D01*
X134973193Y-117373515D01*
X134948692Y-117351308D01*
X134926485Y-117326807D01*
X134906787Y-117300247D01*
X134889787Y-117271884D01*
X134875649Y-117241991D01*
X134864509Y-117210857D01*
X134856475Y-117178781D01*
X134851623Y-117146071D01*
X134850000Y-117113044D01*
X134850000Y-115986956D01*
X134851623Y-115953929D01*
X134856475Y-115921219D01*
X134864509Y-115889143D01*
X134875649Y-115858009D01*
X134889787Y-115828116D01*
X134906787Y-115799753D01*
X134926485Y-115773193D01*
X134948692Y-115748692D01*
X134973193Y-115726485D01*
X134999753Y-115706787D01*
X135028116Y-115689787D01*
X135058009Y-115675649D01*
X135089143Y-115664509D01*
X135121219Y-115656475D01*
X135153929Y-115651623D01*
X135186956Y-115650000D01*
X136063044Y-115650000D01*
X136096071Y-115651623D01*
X136096071Y-115651623D01*
G37*
D25*
X135625000Y-116550000D03*
D24*
G36*
X134046071Y-115651623D02*
X134078781Y-115656475D01*
X134110857Y-115664509D01*
X134141991Y-115675649D01*
X134171884Y-115689787D01*
X134200247Y-115706787D01*
X134226807Y-115726485D01*
X134251308Y-115748692D01*
X134273515Y-115773193D01*
X134293213Y-115799753D01*
X134310213Y-115828116D01*
X134324351Y-115858009D01*
X134335491Y-115889143D01*
X134343525Y-115921219D01*
X134348377Y-115953929D01*
X134350000Y-115986956D01*
X134350000Y-117113044D01*
X134348377Y-117146071D01*
X134343525Y-117178781D01*
X134335491Y-117210857D01*
X134324351Y-117241991D01*
X134310213Y-117271884D01*
X134293213Y-117300247D01*
X134273515Y-117326807D01*
X134251308Y-117351308D01*
X134226807Y-117373515D01*
X134200247Y-117393213D01*
X134171884Y-117410213D01*
X134141991Y-117424351D01*
X134110857Y-117435491D01*
X134078781Y-117443525D01*
X134046071Y-117448377D01*
X134013044Y-117450000D01*
X133136956Y-117450000D01*
X133103929Y-117448377D01*
X133071219Y-117443525D01*
X133039143Y-117435491D01*
X133008009Y-117424351D01*
X132978116Y-117410213D01*
X132949753Y-117393213D01*
X132923193Y-117373515D01*
X132898692Y-117351308D01*
X132876485Y-117326807D01*
X132856787Y-117300247D01*
X132839787Y-117271884D01*
X132825649Y-117241991D01*
X132814509Y-117210857D01*
X132806475Y-117178781D01*
X132801623Y-117146071D01*
X132800000Y-117113044D01*
X132800000Y-115986956D01*
X132801623Y-115953929D01*
X132806475Y-115921219D01*
X132814509Y-115889143D01*
X132825649Y-115858009D01*
X132839787Y-115828116D01*
X132856787Y-115799753D01*
X132876485Y-115773193D01*
X132898692Y-115748692D01*
X132923193Y-115726485D01*
X132949753Y-115706787D01*
X132978116Y-115689787D01*
X133008009Y-115675649D01*
X133039143Y-115664509D01*
X133071219Y-115656475D01*
X133103929Y-115651623D01*
X133136956Y-115650000D01*
X134013044Y-115650000D01*
X134046071Y-115651623D01*
X134046071Y-115651623D01*
G37*
D25*
X133575000Y-116550000D03*
G04 #@! TD*
D24*
G04 #@! TO.C,C5*
G36*
X152421071Y-71101623D02*
X152453781Y-71106475D01*
X152485857Y-71114509D01*
X152516991Y-71125649D01*
X152546884Y-71139787D01*
X152575247Y-71156787D01*
X152601807Y-71176485D01*
X152626308Y-71198692D01*
X152648515Y-71223193D01*
X152668213Y-71249753D01*
X152685213Y-71278116D01*
X152699351Y-71308009D01*
X152710491Y-71339143D01*
X152718525Y-71371219D01*
X152723377Y-71403929D01*
X152725000Y-71436956D01*
X152725000Y-72563044D01*
X152723377Y-72596071D01*
X152718525Y-72628781D01*
X152710491Y-72660857D01*
X152699351Y-72691991D01*
X152685213Y-72721884D01*
X152668213Y-72750247D01*
X152648515Y-72776807D01*
X152626308Y-72801308D01*
X152601807Y-72823515D01*
X152575247Y-72843213D01*
X152546884Y-72860213D01*
X152516991Y-72874351D01*
X152485857Y-72885491D01*
X152453781Y-72893525D01*
X152421071Y-72898377D01*
X152388044Y-72900000D01*
X151511956Y-72900000D01*
X151478929Y-72898377D01*
X151446219Y-72893525D01*
X151414143Y-72885491D01*
X151383009Y-72874351D01*
X151353116Y-72860213D01*
X151324753Y-72843213D01*
X151298193Y-72823515D01*
X151273692Y-72801308D01*
X151251485Y-72776807D01*
X151231787Y-72750247D01*
X151214787Y-72721884D01*
X151200649Y-72691991D01*
X151189509Y-72660857D01*
X151181475Y-72628781D01*
X151176623Y-72596071D01*
X151175000Y-72563044D01*
X151175000Y-71436956D01*
X151176623Y-71403929D01*
X151181475Y-71371219D01*
X151189509Y-71339143D01*
X151200649Y-71308009D01*
X151214787Y-71278116D01*
X151231787Y-71249753D01*
X151251485Y-71223193D01*
X151273692Y-71198692D01*
X151298193Y-71176485D01*
X151324753Y-71156787D01*
X151353116Y-71139787D01*
X151383009Y-71125649D01*
X151414143Y-71114509D01*
X151446219Y-71106475D01*
X151478929Y-71101623D01*
X151511956Y-71100000D01*
X152388044Y-71100000D01*
X152421071Y-71101623D01*
X152421071Y-71101623D01*
G37*
D25*
X151950000Y-72000000D03*
D24*
G36*
X154471071Y-71101623D02*
X154503781Y-71106475D01*
X154535857Y-71114509D01*
X154566991Y-71125649D01*
X154596884Y-71139787D01*
X154625247Y-71156787D01*
X154651807Y-71176485D01*
X154676308Y-71198692D01*
X154698515Y-71223193D01*
X154718213Y-71249753D01*
X154735213Y-71278116D01*
X154749351Y-71308009D01*
X154760491Y-71339143D01*
X154768525Y-71371219D01*
X154773377Y-71403929D01*
X154775000Y-71436956D01*
X154775000Y-72563044D01*
X154773377Y-72596071D01*
X154768525Y-72628781D01*
X154760491Y-72660857D01*
X154749351Y-72691991D01*
X154735213Y-72721884D01*
X154718213Y-72750247D01*
X154698515Y-72776807D01*
X154676308Y-72801308D01*
X154651807Y-72823515D01*
X154625247Y-72843213D01*
X154596884Y-72860213D01*
X154566991Y-72874351D01*
X154535857Y-72885491D01*
X154503781Y-72893525D01*
X154471071Y-72898377D01*
X154438044Y-72900000D01*
X153561956Y-72900000D01*
X153528929Y-72898377D01*
X153496219Y-72893525D01*
X153464143Y-72885491D01*
X153433009Y-72874351D01*
X153403116Y-72860213D01*
X153374753Y-72843213D01*
X153348193Y-72823515D01*
X153323692Y-72801308D01*
X153301485Y-72776807D01*
X153281787Y-72750247D01*
X153264787Y-72721884D01*
X153250649Y-72691991D01*
X153239509Y-72660857D01*
X153231475Y-72628781D01*
X153226623Y-72596071D01*
X153225000Y-72563044D01*
X153225000Y-71436956D01*
X153226623Y-71403929D01*
X153231475Y-71371219D01*
X153239509Y-71339143D01*
X153250649Y-71308009D01*
X153264787Y-71278116D01*
X153281787Y-71249753D01*
X153301485Y-71223193D01*
X153323692Y-71198692D01*
X153348193Y-71176485D01*
X153374753Y-71156787D01*
X153403116Y-71139787D01*
X153433009Y-71125649D01*
X153464143Y-71114509D01*
X153496219Y-71106475D01*
X153528929Y-71101623D01*
X153561956Y-71100000D01*
X154438044Y-71100000D01*
X154471071Y-71101623D01*
X154471071Y-71101623D01*
G37*
D25*
X154000000Y-72000000D03*
G04 #@! TD*
D24*
G04 #@! TO.C,C6*
G36*
X152421071Y-73101623D02*
X152453781Y-73106475D01*
X152485857Y-73114509D01*
X152516991Y-73125649D01*
X152546884Y-73139787D01*
X152575247Y-73156787D01*
X152601807Y-73176485D01*
X152626308Y-73198692D01*
X152648515Y-73223193D01*
X152668213Y-73249753D01*
X152685213Y-73278116D01*
X152699351Y-73308009D01*
X152710491Y-73339143D01*
X152718525Y-73371219D01*
X152723377Y-73403929D01*
X152725000Y-73436956D01*
X152725000Y-74563044D01*
X152723377Y-74596071D01*
X152718525Y-74628781D01*
X152710491Y-74660857D01*
X152699351Y-74691991D01*
X152685213Y-74721884D01*
X152668213Y-74750247D01*
X152648515Y-74776807D01*
X152626308Y-74801308D01*
X152601807Y-74823515D01*
X152575247Y-74843213D01*
X152546884Y-74860213D01*
X152516991Y-74874351D01*
X152485857Y-74885491D01*
X152453781Y-74893525D01*
X152421071Y-74898377D01*
X152388044Y-74900000D01*
X151511956Y-74900000D01*
X151478929Y-74898377D01*
X151446219Y-74893525D01*
X151414143Y-74885491D01*
X151383009Y-74874351D01*
X151353116Y-74860213D01*
X151324753Y-74843213D01*
X151298193Y-74823515D01*
X151273692Y-74801308D01*
X151251485Y-74776807D01*
X151231787Y-74750247D01*
X151214787Y-74721884D01*
X151200649Y-74691991D01*
X151189509Y-74660857D01*
X151181475Y-74628781D01*
X151176623Y-74596071D01*
X151175000Y-74563044D01*
X151175000Y-73436956D01*
X151176623Y-73403929D01*
X151181475Y-73371219D01*
X151189509Y-73339143D01*
X151200649Y-73308009D01*
X151214787Y-73278116D01*
X151231787Y-73249753D01*
X151251485Y-73223193D01*
X151273692Y-73198692D01*
X151298193Y-73176485D01*
X151324753Y-73156787D01*
X151353116Y-73139787D01*
X151383009Y-73125649D01*
X151414143Y-73114509D01*
X151446219Y-73106475D01*
X151478929Y-73101623D01*
X151511956Y-73100000D01*
X152388044Y-73100000D01*
X152421071Y-73101623D01*
X152421071Y-73101623D01*
G37*
D25*
X151950000Y-74000000D03*
D24*
G36*
X154471071Y-73101623D02*
X154503781Y-73106475D01*
X154535857Y-73114509D01*
X154566991Y-73125649D01*
X154596884Y-73139787D01*
X154625247Y-73156787D01*
X154651807Y-73176485D01*
X154676308Y-73198692D01*
X154698515Y-73223193D01*
X154718213Y-73249753D01*
X154735213Y-73278116D01*
X154749351Y-73308009D01*
X154760491Y-73339143D01*
X154768525Y-73371219D01*
X154773377Y-73403929D01*
X154775000Y-73436956D01*
X154775000Y-74563044D01*
X154773377Y-74596071D01*
X154768525Y-74628781D01*
X154760491Y-74660857D01*
X154749351Y-74691991D01*
X154735213Y-74721884D01*
X154718213Y-74750247D01*
X154698515Y-74776807D01*
X154676308Y-74801308D01*
X154651807Y-74823515D01*
X154625247Y-74843213D01*
X154596884Y-74860213D01*
X154566991Y-74874351D01*
X154535857Y-74885491D01*
X154503781Y-74893525D01*
X154471071Y-74898377D01*
X154438044Y-74900000D01*
X153561956Y-74900000D01*
X153528929Y-74898377D01*
X153496219Y-74893525D01*
X153464143Y-74885491D01*
X153433009Y-74874351D01*
X153403116Y-74860213D01*
X153374753Y-74843213D01*
X153348193Y-74823515D01*
X153323692Y-74801308D01*
X153301485Y-74776807D01*
X153281787Y-74750247D01*
X153264787Y-74721884D01*
X153250649Y-74691991D01*
X153239509Y-74660857D01*
X153231475Y-74628781D01*
X153226623Y-74596071D01*
X153225000Y-74563044D01*
X153225000Y-73436956D01*
X153226623Y-73403929D01*
X153231475Y-73371219D01*
X153239509Y-73339143D01*
X153250649Y-73308009D01*
X153264787Y-73278116D01*
X153281787Y-73249753D01*
X153301485Y-73223193D01*
X153323692Y-73198692D01*
X153348193Y-73176485D01*
X153374753Y-73156787D01*
X153403116Y-73139787D01*
X153433009Y-73125649D01*
X153464143Y-73114509D01*
X153496219Y-73106475D01*
X153528929Y-73101623D01*
X153561956Y-73100000D01*
X154438044Y-73100000D01*
X154471071Y-73101623D01*
X154471071Y-73101623D01*
G37*
D25*
X154000000Y-74000000D03*
G04 #@! TD*
D24*
G04 #@! TO.C,C7*
G36*
X143921071Y-138101623D02*
X143953781Y-138106475D01*
X143985857Y-138114509D01*
X144016991Y-138125649D01*
X144046884Y-138139787D01*
X144075247Y-138156787D01*
X144101807Y-138176485D01*
X144126308Y-138198692D01*
X144148515Y-138223193D01*
X144168213Y-138249753D01*
X144185213Y-138278116D01*
X144199351Y-138308009D01*
X144210491Y-138339143D01*
X144218525Y-138371219D01*
X144223377Y-138403929D01*
X144225000Y-138436956D01*
X144225000Y-139563044D01*
X144223377Y-139596071D01*
X144218525Y-139628781D01*
X144210491Y-139660857D01*
X144199351Y-139691991D01*
X144185213Y-139721884D01*
X144168213Y-139750247D01*
X144148515Y-139776807D01*
X144126308Y-139801308D01*
X144101807Y-139823515D01*
X144075247Y-139843213D01*
X144046884Y-139860213D01*
X144016991Y-139874351D01*
X143985857Y-139885491D01*
X143953781Y-139893525D01*
X143921071Y-139898377D01*
X143888044Y-139900000D01*
X143011956Y-139900000D01*
X142978929Y-139898377D01*
X142946219Y-139893525D01*
X142914143Y-139885491D01*
X142883009Y-139874351D01*
X142853116Y-139860213D01*
X142824753Y-139843213D01*
X142798193Y-139823515D01*
X142773692Y-139801308D01*
X142751485Y-139776807D01*
X142731787Y-139750247D01*
X142714787Y-139721884D01*
X142700649Y-139691991D01*
X142689509Y-139660857D01*
X142681475Y-139628781D01*
X142676623Y-139596071D01*
X142675000Y-139563044D01*
X142675000Y-138436956D01*
X142676623Y-138403929D01*
X142681475Y-138371219D01*
X142689509Y-138339143D01*
X142700649Y-138308009D01*
X142714787Y-138278116D01*
X142731787Y-138249753D01*
X142751485Y-138223193D01*
X142773692Y-138198692D01*
X142798193Y-138176485D01*
X142824753Y-138156787D01*
X142853116Y-138139787D01*
X142883009Y-138125649D01*
X142914143Y-138114509D01*
X142946219Y-138106475D01*
X142978929Y-138101623D01*
X143011956Y-138100000D01*
X143888044Y-138100000D01*
X143921071Y-138101623D01*
X143921071Y-138101623D01*
G37*
D25*
X143450000Y-139000000D03*
D24*
G36*
X145971071Y-138101623D02*
X146003781Y-138106475D01*
X146035857Y-138114509D01*
X146066991Y-138125649D01*
X146096884Y-138139787D01*
X146125247Y-138156787D01*
X146151807Y-138176485D01*
X146176308Y-138198692D01*
X146198515Y-138223193D01*
X146218213Y-138249753D01*
X146235213Y-138278116D01*
X146249351Y-138308009D01*
X146260491Y-138339143D01*
X146268525Y-138371219D01*
X146273377Y-138403929D01*
X146275000Y-138436956D01*
X146275000Y-139563044D01*
X146273377Y-139596071D01*
X146268525Y-139628781D01*
X146260491Y-139660857D01*
X146249351Y-139691991D01*
X146235213Y-139721884D01*
X146218213Y-139750247D01*
X146198515Y-139776807D01*
X146176308Y-139801308D01*
X146151807Y-139823515D01*
X146125247Y-139843213D01*
X146096884Y-139860213D01*
X146066991Y-139874351D01*
X146035857Y-139885491D01*
X146003781Y-139893525D01*
X145971071Y-139898377D01*
X145938044Y-139900000D01*
X145061956Y-139900000D01*
X145028929Y-139898377D01*
X144996219Y-139893525D01*
X144964143Y-139885491D01*
X144933009Y-139874351D01*
X144903116Y-139860213D01*
X144874753Y-139843213D01*
X144848193Y-139823515D01*
X144823692Y-139801308D01*
X144801485Y-139776807D01*
X144781787Y-139750247D01*
X144764787Y-139721884D01*
X144750649Y-139691991D01*
X144739509Y-139660857D01*
X144731475Y-139628781D01*
X144726623Y-139596071D01*
X144725000Y-139563044D01*
X144725000Y-138436956D01*
X144726623Y-138403929D01*
X144731475Y-138371219D01*
X144739509Y-138339143D01*
X144750649Y-138308009D01*
X144764787Y-138278116D01*
X144781787Y-138249753D01*
X144801485Y-138223193D01*
X144823692Y-138198692D01*
X144848193Y-138176485D01*
X144874753Y-138156787D01*
X144903116Y-138139787D01*
X144933009Y-138125649D01*
X144964143Y-138114509D01*
X144996219Y-138106475D01*
X145028929Y-138101623D01*
X145061956Y-138100000D01*
X145938044Y-138100000D01*
X145971071Y-138101623D01*
X145971071Y-138101623D01*
G37*
D25*
X145500000Y-139000000D03*
G04 #@! TD*
D24*
G04 #@! TO.C,C8*
G36*
X138696071Y-119226623D02*
X138728781Y-119231475D01*
X138760857Y-119239509D01*
X138791991Y-119250649D01*
X138821884Y-119264787D01*
X138850247Y-119281787D01*
X138876807Y-119301485D01*
X138901308Y-119323692D01*
X138923515Y-119348193D01*
X138943213Y-119374753D01*
X138960213Y-119403116D01*
X138974351Y-119433009D01*
X138985491Y-119464143D01*
X138993525Y-119496219D01*
X138998377Y-119528929D01*
X139000000Y-119561956D01*
X139000000Y-120438044D01*
X138998377Y-120471071D01*
X138993525Y-120503781D01*
X138985491Y-120535857D01*
X138974351Y-120566991D01*
X138960213Y-120596884D01*
X138943213Y-120625247D01*
X138923515Y-120651807D01*
X138901308Y-120676308D01*
X138876807Y-120698515D01*
X138850247Y-120718213D01*
X138821884Y-120735213D01*
X138791991Y-120749351D01*
X138760857Y-120760491D01*
X138728781Y-120768525D01*
X138696071Y-120773377D01*
X138663044Y-120775000D01*
X137536956Y-120775000D01*
X137503929Y-120773377D01*
X137471219Y-120768525D01*
X137439143Y-120760491D01*
X137408009Y-120749351D01*
X137378116Y-120735213D01*
X137349753Y-120718213D01*
X137323193Y-120698515D01*
X137298692Y-120676308D01*
X137276485Y-120651807D01*
X137256787Y-120625247D01*
X137239787Y-120596884D01*
X137225649Y-120566991D01*
X137214509Y-120535857D01*
X137206475Y-120503781D01*
X137201623Y-120471071D01*
X137200000Y-120438044D01*
X137200000Y-119561956D01*
X137201623Y-119528929D01*
X137206475Y-119496219D01*
X137214509Y-119464143D01*
X137225649Y-119433009D01*
X137239787Y-119403116D01*
X137256787Y-119374753D01*
X137276485Y-119348193D01*
X137298692Y-119323692D01*
X137323193Y-119301485D01*
X137349753Y-119281787D01*
X137378116Y-119264787D01*
X137408009Y-119250649D01*
X137439143Y-119239509D01*
X137471219Y-119231475D01*
X137503929Y-119226623D01*
X137536956Y-119225000D01*
X138663044Y-119225000D01*
X138696071Y-119226623D01*
X138696071Y-119226623D01*
G37*
D25*
X138100000Y-120000000D03*
D24*
G36*
X138696071Y-121276623D02*
X138728781Y-121281475D01*
X138760857Y-121289509D01*
X138791991Y-121300649D01*
X138821884Y-121314787D01*
X138850247Y-121331787D01*
X138876807Y-121351485D01*
X138901308Y-121373692D01*
X138923515Y-121398193D01*
X138943213Y-121424753D01*
X138960213Y-121453116D01*
X138974351Y-121483009D01*
X138985491Y-121514143D01*
X138993525Y-121546219D01*
X138998377Y-121578929D01*
X139000000Y-121611956D01*
X139000000Y-122488044D01*
X138998377Y-122521071D01*
X138993525Y-122553781D01*
X138985491Y-122585857D01*
X138974351Y-122616991D01*
X138960213Y-122646884D01*
X138943213Y-122675247D01*
X138923515Y-122701807D01*
X138901308Y-122726308D01*
X138876807Y-122748515D01*
X138850247Y-122768213D01*
X138821884Y-122785213D01*
X138791991Y-122799351D01*
X138760857Y-122810491D01*
X138728781Y-122818525D01*
X138696071Y-122823377D01*
X138663044Y-122825000D01*
X137536956Y-122825000D01*
X137503929Y-122823377D01*
X137471219Y-122818525D01*
X137439143Y-122810491D01*
X137408009Y-122799351D01*
X137378116Y-122785213D01*
X137349753Y-122768213D01*
X137323193Y-122748515D01*
X137298692Y-122726308D01*
X137276485Y-122701807D01*
X137256787Y-122675247D01*
X137239787Y-122646884D01*
X137225649Y-122616991D01*
X137214509Y-122585857D01*
X137206475Y-122553781D01*
X137201623Y-122521071D01*
X137200000Y-122488044D01*
X137200000Y-121611956D01*
X137201623Y-121578929D01*
X137206475Y-121546219D01*
X137214509Y-121514143D01*
X137225649Y-121483009D01*
X137239787Y-121453116D01*
X137256787Y-121424753D01*
X137276485Y-121398193D01*
X137298692Y-121373692D01*
X137323193Y-121351485D01*
X137349753Y-121331787D01*
X137378116Y-121314787D01*
X137408009Y-121300649D01*
X137439143Y-121289509D01*
X137471219Y-121281475D01*
X137503929Y-121276623D01*
X137536956Y-121275000D01*
X138663044Y-121275000D01*
X138696071Y-121276623D01*
X138696071Y-121276623D01*
G37*
D25*
X138100000Y-122050000D03*
G04 #@! TD*
D24*
G04 #@! TO.C,C9*
G36*
X152271071Y-90501623D02*
X152303781Y-90506475D01*
X152335857Y-90514509D01*
X152366991Y-90525649D01*
X152396884Y-90539787D01*
X152425247Y-90556787D01*
X152451807Y-90576485D01*
X152476308Y-90598692D01*
X152498515Y-90623193D01*
X152518213Y-90649753D01*
X152535213Y-90678116D01*
X152549351Y-90708009D01*
X152560491Y-90739143D01*
X152568525Y-90771219D01*
X152573377Y-90803929D01*
X152575000Y-90836956D01*
X152575000Y-91963044D01*
X152573377Y-91996071D01*
X152568525Y-92028781D01*
X152560491Y-92060857D01*
X152549351Y-92091991D01*
X152535213Y-92121884D01*
X152518213Y-92150247D01*
X152498515Y-92176807D01*
X152476308Y-92201308D01*
X152451807Y-92223515D01*
X152425247Y-92243213D01*
X152396884Y-92260213D01*
X152366991Y-92274351D01*
X152335857Y-92285491D01*
X152303781Y-92293525D01*
X152271071Y-92298377D01*
X152238044Y-92300000D01*
X151361956Y-92300000D01*
X151328929Y-92298377D01*
X151296219Y-92293525D01*
X151264143Y-92285491D01*
X151233009Y-92274351D01*
X151203116Y-92260213D01*
X151174753Y-92243213D01*
X151148193Y-92223515D01*
X151123692Y-92201308D01*
X151101485Y-92176807D01*
X151081787Y-92150247D01*
X151064787Y-92121884D01*
X151050649Y-92091991D01*
X151039509Y-92060857D01*
X151031475Y-92028781D01*
X151026623Y-91996071D01*
X151025000Y-91963044D01*
X151025000Y-90836956D01*
X151026623Y-90803929D01*
X151031475Y-90771219D01*
X151039509Y-90739143D01*
X151050649Y-90708009D01*
X151064787Y-90678116D01*
X151081787Y-90649753D01*
X151101485Y-90623193D01*
X151123692Y-90598692D01*
X151148193Y-90576485D01*
X151174753Y-90556787D01*
X151203116Y-90539787D01*
X151233009Y-90525649D01*
X151264143Y-90514509D01*
X151296219Y-90506475D01*
X151328929Y-90501623D01*
X151361956Y-90500000D01*
X152238044Y-90500000D01*
X152271071Y-90501623D01*
X152271071Y-90501623D01*
G37*
D25*
X151800000Y-91400000D03*
D24*
G36*
X154321071Y-90501623D02*
X154353781Y-90506475D01*
X154385857Y-90514509D01*
X154416991Y-90525649D01*
X154446884Y-90539787D01*
X154475247Y-90556787D01*
X154501807Y-90576485D01*
X154526308Y-90598692D01*
X154548515Y-90623193D01*
X154568213Y-90649753D01*
X154585213Y-90678116D01*
X154599351Y-90708009D01*
X154610491Y-90739143D01*
X154618525Y-90771219D01*
X154623377Y-90803929D01*
X154625000Y-90836956D01*
X154625000Y-91963044D01*
X154623377Y-91996071D01*
X154618525Y-92028781D01*
X154610491Y-92060857D01*
X154599351Y-92091991D01*
X154585213Y-92121884D01*
X154568213Y-92150247D01*
X154548515Y-92176807D01*
X154526308Y-92201308D01*
X154501807Y-92223515D01*
X154475247Y-92243213D01*
X154446884Y-92260213D01*
X154416991Y-92274351D01*
X154385857Y-92285491D01*
X154353781Y-92293525D01*
X154321071Y-92298377D01*
X154288044Y-92300000D01*
X153411956Y-92300000D01*
X153378929Y-92298377D01*
X153346219Y-92293525D01*
X153314143Y-92285491D01*
X153283009Y-92274351D01*
X153253116Y-92260213D01*
X153224753Y-92243213D01*
X153198193Y-92223515D01*
X153173692Y-92201308D01*
X153151485Y-92176807D01*
X153131787Y-92150247D01*
X153114787Y-92121884D01*
X153100649Y-92091991D01*
X153089509Y-92060857D01*
X153081475Y-92028781D01*
X153076623Y-91996071D01*
X153075000Y-91963044D01*
X153075000Y-90836956D01*
X153076623Y-90803929D01*
X153081475Y-90771219D01*
X153089509Y-90739143D01*
X153100649Y-90708009D01*
X153114787Y-90678116D01*
X153131787Y-90649753D01*
X153151485Y-90623193D01*
X153173692Y-90598692D01*
X153198193Y-90576485D01*
X153224753Y-90556787D01*
X153253116Y-90539787D01*
X153283009Y-90525649D01*
X153314143Y-90514509D01*
X153346219Y-90506475D01*
X153378929Y-90501623D01*
X153411956Y-90500000D01*
X154288044Y-90500000D01*
X154321071Y-90501623D01*
X154321071Y-90501623D01*
G37*
D25*
X153850000Y-91400000D03*
G04 #@! TD*
D24*
G04 #@! TO.C,C10*
G36*
X145221071Y-90501623D02*
X145253781Y-90506475D01*
X145285857Y-90514509D01*
X145316991Y-90525649D01*
X145346884Y-90539787D01*
X145375247Y-90556787D01*
X145401807Y-90576485D01*
X145426308Y-90598692D01*
X145448515Y-90623193D01*
X145468213Y-90649753D01*
X145485213Y-90678116D01*
X145499351Y-90708009D01*
X145510491Y-90739143D01*
X145518525Y-90771219D01*
X145523377Y-90803929D01*
X145525000Y-90836956D01*
X145525000Y-91963044D01*
X145523377Y-91996071D01*
X145518525Y-92028781D01*
X145510491Y-92060857D01*
X145499351Y-92091991D01*
X145485213Y-92121884D01*
X145468213Y-92150247D01*
X145448515Y-92176807D01*
X145426308Y-92201308D01*
X145401807Y-92223515D01*
X145375247Y-92243213D01*
X145346884Y-92260213D01*
X145316991Y-92274351D01*
X145285857Y-92285491D01*
X145253781Y-92293525D01*
X145221071Y-92298377D01*
X145188044Y-92300000D01*
X144311956Y-92300000D01*
X144278929Y-92298377D01*
X144246219Y-92293525D01*
X144214143Y-92285491D01*
X144183009Y-92274351D01*
X144153116Y-92260213D01*
X144124753Y-92243213D01*
X144098193Y-92223515D01*
X144073692Y-92201308D01*
X144051485Y-92176807D01*
X144031787Y-92150247D01*
X144014787Y-92121884D01*
X144000649Y-92091991D01*
X143989509Y-92060857D01*
X143981475Y-92028781D01*
X143976623Y-91996071D01*
X143975000Y-91963044D01*
X143975000Y-90836956D01*
X143976623Y-90803929D01*
X143981475Y-90771219D01*
X143989509Y-90739143D01*
X144000649Y-90708009D01*
X144014787Y-90678116D01*
X144031787Y-90649753D01*
X144051485Y-90623193D01*
X144073692Y-90598692D01*
X144098193Y-90576485D01*
X144124753Y-90556787D01*
X144153116Y-90539787D01*
X144183009Y-90525649D01*
X144214143Y-90514509D01*
X144246219Y-90506475D01*
X144278929Y-90501623D01*
X144311956Y-90500000D01*
X145188044Y-90500000D01*
X145221071Y-90501623D01*
X145221071Y-90501623D01*
G37*
D25*
X144750000Y-91400000D03*
D24*
G36*
X147271071Y-90501623D02*
X147303781Y-90506475D01*
X147335857Y-90514509D01*
X147366991Y-90525649D01*
X147396884Y-90539787D01*
X147425247Y-90556787D01*
X147451807Y-90576485D01*
X147476308Y-90598692D01*
X147498515Y-90623193D01*
X147518213Y-90649753D01*
X147535213Y-90678116D01*
X147549351Y-90708009D01*
X147560491Y-90739143D01*
X147568525Y-90771219D01*
X147573377Y-90803929D01*
X147575000Y-90836956D01*
X147575000Y-91963044D01*
X147573377Y-91996071D01*
X147568525Y-92028781D01*
X147560491Y-92060857D01*
X147549351Y-92091991D01*
X147535213Y-92121884D01*
X147518213Y-92150247D01*
X147498515Y-92176807D01*
X147476308Y-92201308D01*
X147451807Y-92223515D01*
X147425247Y-92243213D01*
X147396884Y-92260213D01*
X147366991Y-92274351D01*
X147335857Y-92285491D01*
X147303781Y-92293525D01*
X147271071Y-92298377D01*
X147238044Y-92300000D01*
X146361956Y-92300000D01*
X146328929Y-92298377D01*
X146296219Y-92293525D01*
X146264143Y-92285491D01*
X146233009Y-92274351D01*
X146203116Y-92260213D01*
X146174753Y-92243213D01*
X146148193Y-92223515D01*
X146123692Y-92201308D01*
X146101485Y-92176807D01*
X146081787Y-92150247D01*
X146064787Y-92121884D01*
X146050649Y-92091991D01*
X146039509Y-92060857D01*
X146031475Y-92028781D01*
X146026623Y-91996071D01*
X146025000Y-91963044D01*
X146025000Y-90836956D01*
X146026623Y-90803929D01*
X146031475Y-90771219D01*
X146039509Y-90739143D01*
X146050649Y-90708009D01*
X146064787Y-90678116D01*
X146081787Y-90649753D01*
X146101485Y-90623193D01*
X146123692Y-90598692D01*
X146148193Y-90576485D01*
X146174753Y-90556787D01*
X146203116Y-90539787D01*
X146233009Y-90525649D01*
X146264143Y-90514509D01*
X146296219Y-90506475D01*
X146328929Y-90501623D01*
X146361956Y-90500000D01*
X147238044Y-90500000D01*
X147271071Y-90501623D01*
X147271071Y-90501623D01*
G37*
D25*
X146800000Y-91400000D03*
G04 #@! TD*
D24*
G04 #@! TO.C,C12*
G36*
X143921071Y-140101623D02*
X143953781Y-140106475D01*
X143985857Y-140114509D01*
X144016991Y-140125649D01*
X144046884Y-140139787D01*
X144075247Y-140156787D01*
X144101807Y-140176485D01*
X144126308Y-140198692D01*
X144148515Y-140223193D01*
X144168213Y-140249753D01*
X144185213Y-140278116D01*
X144199351Y-140308009D01*
X144210491Y-140339143D01*
X144218525Y-140371219D01*
X144223377Y-140403929D01*
X144225000Y-140436956D01*
X144225000Y-141563044D01*
X144223377Y-141596071D01*
X144218525Y-141628781D01*
X144210491Y-141660857D01*
X144199351Y-141691991D01*
X144185213Y-141721884D01*
X144168213Y-141750247D01*
X144148515Y-141776807D01*
X144126308Y-141801308D01*
X144101807Y-141823515D01*
X144075247Y-141843213D01*
X144046884Y-141860213D01*
X144016991Y-141874351D01*
X143985857Y-141885491D01*
X143953781Y-141893525D01*
X143921071Y-141898377D01*
X143888044Y-141900000D01*
X143011956Y-141900000D01*
X142978929Y-141898377D01*
X142946219Y-141893525D01*
X142914143Y-141885491D01*
X142883009Y-141874351D01*
X142853116Y-141860213D01*
X142824753Y-141843213D01*
X142798193Y-141823515D01*
X142773692Y-141801308D01*
X142751485Y-141776807D01*
X142731787Y-141750247D01*
X142714787Y-141721884D01*
X142700649Y-141691991D01*
X142689509Y-141660857D01*
X142681475Y-141628781D01*
X142676623Y-141596071D01*
X142675000Y-141563044D01*
X142675000Y-140436956D01*
X142676623Y-140403929D01*
X142681475Y-140371219D01*
X142689509Y-140339143D01*
X142700649Y-140308009D01*
X142714787Y-140278116D01*
X142731787Y-140249753D01*
X142751485Y-140223193D01*
X142773692Y-140198692D01*
X142798193Y-140176485D01*
X142824753Y-140156787D01*
X142853116Y-140139787D01*
X142883009Y-140125649D01*
X142914143Y-140114509D01*
X142946219Y-140106475D01*
X142978929Y-140101623D01*
X143011956Y-140100000D01*
X143888044Y-140100000D01*
X143921071Y-140101623D01*
X143921071Y-140101623D01*
G37*
D25*
X143450000Y-141000000D03*
D24*
G36*
X145971071Y-140101623D02*
X146003781Y-140106475D01*
X146035857Y-140114509D01*
X146066991Y-140125649D01*
X146096884Y-140139787D01*
X146125247Y-140156787D01*
X146151807Y-140176485D01*
X146176308Y-140198692D01*
X146198515Y-140223193D01*
X146218213Y-140249753D01*
X146235213Y-140278116D01*
X146249351Y-140308009D01*
X146260491Y-140339143D01*
X146268525Y-140371219D01*
X146273377Y-140403929D01*
X146275000Y-140436956D01*
X146275000Y-141563044D01*
X146273377Y-141596071D01*
X146268525Y-141628781D01*
X146260491Y-141660857D01*
X146249351Y-141691991D01*
X146235213Y-141721884D01*
X146218213Y-141750247D01*
X146198515Y-141776807D01*
X146176308Y-141801308D01*
X146151807Y-141823515D01*
X146125247Y-141843213D01*
X146096884Y-141860213D01*
X146066991Y-141874351D01*
X146035857Y-141885491D01*
X146003781Y-141893525D01*
X145971071Y-141898377D01*
X145938044Y-141900000D01*
X145061956Y-141900000D01*
X145028929Y-141898377D01*
X144996219Y-141893525D01*
X144964143Y-141885491D01*
X144933009Y-141874351D01*
X144903116Y-141860213D01*
X144874753Y-141843213D01*
X144848193Y-141823515D01*
X144823692Y-141801308D01*
X144801485Y-141776807D01*
X144781787Y-141750247D01*
X144764787Y-141721884D01*
X144750649Y-141691991D01*
X144739509Y-141660857D01*
X144731475Y-141628781D01*
X144726623Y-141596071D01*
X144725000Y-141563044D01*
X144725000Y-140436956D01*
X144726623Y-140403929D01*
X144731475Y-140371219D01*
X144739509Y-140339143D01*
X144750649Y-140308009D01*
X144764787Y-140278116D01*
X144781787Y-140249753D01*
X144801485Y-140223193D01*
X144823692Y-140198692D01*
X144848193Y-140176485D01*
X144874753Y-140156787D01*
X144903116Y-140139787D01*
X144933009Y-140125649D01*
X144964143Y-140114509D01*
X144996219Y-140106475D01*
X145028929Y-140101623D01*
X145061956Y-140100000D01*
X145938044Y-140100000D01*
X145971071Y-140101623D01*
X145971071Y-140101623D01*
G37*
D25*
X145500000Y-141000000D03*
G04 #@! TD*
D24*
G04 #@! TO.C,C13*
G36*
X171596071Y-109176623D02*
X171628781Y-109181475D01*
X171660857Y-109189509D01*
X171691991Y-109200649D01*
X171721884Y-109214787D01*
X171750247Y-109231787D01*
X171776807Y-109251485D01*
X171801308Y-109273692D01*
X171823515Y-109298193D01*
X171843213Y-109324753D01*
X171860213Y-109353116D01*
X171874351Y-109383009D01*
X171885491Y-109414143D01*
X171893525Y-109446219D01*
X171898377Y-109478929D01*
X171900000Y-109511956D01*
X171900000Y-110388044D01*
X171898377Y-110421071D01*
X171893525Y-110453781D01*
X171885491Y-110485857D01*
X171874351Y-110516991D01*
X171860213Y-110546884D01*
X171843213Y-110575247D01*
X171823515Y-110601807D01*
X171801308Y-110626308D01*
X171776807Y-110648515D01*
X171750247Y-110668213D01*
X171721884Y-110685213D01*
X171691991Y-110699351D01*
X171660857Y-110710491D01*
X171628781Y-110718525D01*
X171596071Y-110723377D01*
X171563044Y-110725000D01*
X170436956Y-110725000D01*
X170403929Y-110723377D01*
X170371219Y-110718525D01*
X170339143Y-110710491D01*
X170308009Y-110699351D01*
X170278116Y-110685213D01*
X170249753Y-110668213D01*
X170223193Y-110648515D01*
X170198692Y-110626308D01*
X170176485Y-110601807D01*
X170156787Y-110575247D01*
X170139787Y-110546884D01*
X170125649Y-110516991D01*
X170114509Y-110485857D01*
X170106475Y-110453781D01*
X170101623Y-110421071D01*
X170100000Y-110388044D01*
X170100000Y-109511956D01*
X170101623Y-109478929D01*
X170106475Y-109446219D01*
X170114509Y-109414143D01*
X170125649Y-109383009D01*
X170139787Y-109353116D01*
X170156787Y-109324753D01*
X170176485Y-109298193D01*
X170198692Y-109273692D01*
X170223193Y-109251485D01*
X170249753Y-109231787D01*
X170278116Y-109214787D01*
X170308009Y-109200649D01*
X170339143Y-109189509D01*
X170371219Y-109181475D01*
X170403929Y-109176623D01*
X170436956Y-109175000D01*
X171563044Y-109175000D01*
X171596071Y-109176623D01*
X171596071Y-109176623D01*
G37*
D25*
X171000000Y-109950000D03*
D24*
G36*
X171596071Y-111226623D02*
X171628781Y-111231475D01*
X171660857Y-111239509D01*
X171691991Y-111250649D01*
X171721884Y-111264787D01*
X171750247Y-111281787D01*
X171776807Y-111301485D01*
X171801308Y-111323692D01*
X171823515Y-111348193D01*
X171843213Y-111374753D01*
X171860213Y-111403116D01*
X171874351Y-111433009D01*
X171885491Y-111464143D01*
X171893525Y-111496219D01*
X171898377Y-111528929D01*
X171900000Y-111561956D01*
X171900000Y-112438044D01*
X171898377Y-112471071D01*
X171893525Y-112503781D01*
X171885491Y-112535857D01*
X171874351Y-112566991D01*
X171860213Y-112596884D01*
X171843213Y-112625247D01*
X171823515Y-112651807D01*
X171801308Y-112676308D01*
X171776807Y-112698515D01*
X171750247Y-112718213D01*
X171721884Y-112735213D01*
X171691991Y-112749351D01*
X171660857Y-112760491D01*
X171628781Y-112768525D01*
X171596071Y-112773377D01*
X171563044Y-112775000D01*
X170436956Y-112775000D01*
X170403929Y-112773377D01*
X170371219Y-112768525D01*
X170339143Y-112760491D01*
X170308009Y-112749351D01*
X170278116Y-112735213D01*
X170249753Y-112718213D01*
X170223193Y-112698515D01*
X170198692Y-112676308D01*
X170176485Y-112651807D01*
X170156787Y-112625247D01*
X170139787Y-112596884D01*
X170125649Y-112566991D01*
X170114509Y-112535857D01*
X170106475Y-112503781D01*
X170101623Y-112471071D01*
X170100000Y-112438044D01*
X170100000Y-111561956D01*
X170101623Y-111528929D01*
X170106475Y-111496219D01*
X170114509Y-111464143D01*
X170125649Y-111433009D01*
X170139787Y-111403116D01*
X170156787Y-111374753D01*
X170176485Y-111348193D01*
X170198692Y-111323692D01*
X170223193Y-111301485D01*
X170249753Y-111281787D01*
X170278116Y-111264787D01*
X170308009Y-111250649D01*
X170339143Y-111239509D01*
X170371219Y-111231475D01*
X170403929Y-111226623D01*
X170436956Y-111225000D01*
X171563044Y-111225000D01*
X171596071Y-111226623D01*
X171596071Y-111226623D01*
G37*
D25*
X171000000Y-112000000D03*
G04 #@! TD*
D24*
G04 #@! TO.C,C14*
G36*
X173596071Y-111251623D02*
X173628781Y-111256475D01*
X173660857Y-111264509D01*
X173691991Y-111275649D01*
X173721884Y-111289787D01*
X173750247Y-111306787D01*
X173776807Y-111326485D01*
X173801308Y-111348692D01*
X173823515Y-111373193D01*
X173843213Y-111399753D01*
X173860213Y-111428116D01*
X173874351Y-111458009D01*
X173885491Y-111489143D01*
X173893525Y-111521219D01*
X173898377Y-111553929D01*
X173900000Y-111586956D01*
X173900000Y-112463044D01*
X173898377Y-112496071D01*
X173893525Y-112528781D01*
X173885491Y-112560857D01*
X173874351Y-112591991D01*
X173860213Y-112621884D01*
X173843213Y-112650247D01*
X173823515Y-112676807D01*
X173801308Y-112701308D01*
X173776807Y-112723515D01*
X173750247Y-112743213D01*
X173721884Y-112760213D01*
X173691991Y-112774351D01*
X173660857Y-112785491D01*
X173628781Y-112793525D01*
X173596071Y-112798377D01*
X173563044Y-112800000D01*
X172436956Y-112800000D01*
X172403929Y-112798377D01*
X172371219Y-112793525D01*
X172339143Y-112785491D01*
X172308009Y-112774351D01*
X172278116Y-112760213D01*
X172249753Y-112743213D01*
X172223193Y-112723515D01*
X172198692Y-112701308D01*
X172176485Y-112676807D01*
X172156787Y-112650247D01*
X172139787Y-112621884D01*
X172125649Y-112591991D01*
X172114509Y-112560857D01*
X172106475Y-112528781D01*
X172101623Y-112496071D01*
X172100000Y-112463044D01*
X172100000Y-111586956D01*
X172101623Y-111553929D01*
X172106475Y-111521219D01*
X172114509Y-111489143D01*
X172125649Y-111458009D01*
X172139787Y-111428116D01*
X172156787Y-111399753D01*
X172176485Y-111373193D01*
X172198692Y-111348692D01*
X172223193Y-111326485D01*
X172249753Y-111306787D01*
X172278116Y-111289787D01*
X172308009Y-111275649D01*
X172339143Y-111264509D01*
X172371219Y-111256475D01*
X172403929Y-111251623D01*
X172436956Y-111250000D01*
X173563044Y-111250000D01*
X173596071Y-111251623D01*
X173596071Y-111251623D01*
G37*
D25*
X173000000Y-112025000D03*
D24*
G36*
X173596071Y-109201623D02*
X173628781Y-109206475D01*
X173660857Y-109214509D01*
X173691991Y-109225649D01*
X173721884Y-109239787D01*
X173750247Y-109256787D01*
X173776807Y-109276485D01*
X173801308Y-109298692D01*
X173823515Y-109323193D01*
X173843213Y-109349753D01*
X173860213Y-109378116D01*
X173874351Y-109408009D01*
X173885491Y-109439143D01*
X173893525Y-109471219D01*
X173898377Y-109503929D01*
X173900000Y-109536956D01*
X173900000Y-110413044D01*
X173898377Y-110446071D01*
X173893525Y-110478781D01*
X173885491Y-110510857D01*
X173874351Y-110541991D01*
X173860213Y-110571884D01*
X173843213Y-110600247D01*
X173823515Y-110626807D01*
X173801308Y-110651308D01*
X173776807Y-110673515D01*
X173750247Y-110693213D01*
X173721884Y-110710213D01*
X173691991Y-110724351D01*
X173660857Y-110735491D01*
X173628781Y-110743525D01*
X173596071Y-110748377D01*
X173563044Y-110750000D01*
X172436956Y-110750000D01*
X172403929Y-110748377D01*
X172371219Y-110743525D01*
X172339143Y-110735491D01*
X172308009Y-110724351D01*
X172278116Y-110710213D01*
X172249753Y-110693213D01*
X172223193Y-110673515D01*
X172198692Y-110651308D01*
X172176485Y-110626807D01*
X172156787Y-110600247D01*
X172139787Y-110571884D01*
X172125649Y-110541991D01*
X172114509Y-110510857D01*
X172106475Y-110478781D01*
X172101623Y-110446071D01*
X172100000Y-110413044D01*
X172100000Y-109536956D01*
X172101623Y-109503929D01*
X172106475Y-109471219D01*
X172114509Y-109439143D01*
X172125649Y-109408009D01*
X172139787Y-109378116D01*
X172156787Y-109349753D01*
X172176485Y-109323193D01*
X172198692Y-109298692D01*
X172223193Y-109276485D01*
X172249753Y-109256787D01*
X172278116Y-109239787D01*
X172308009Y-109225649D01*
X172339143Y-109214509D01*
X172371219Y-109206475D01*
X172403929Y-109201623D01*
X172436956Y-109200000D01*
X173563044Y-109200000D01*
X173596071Y-109201623D01*
X173596071Y-109201623D01*
G37*
D25*
X173000000Y-109975000D03*
G04 #@! TD*
D24*
G04 #@! TO.C,R1*
G36*
X158076071Y-101976623D02*
X158108781Y-101981475D01*
X158140857Y-101989509D01*
X158171991Y-102000649D01*
X158201884Y-102014787D01*
X158230247Y-102031787D01*
X158256807Y-102051485D01*
X158281308Y-102073692D01*
X158303515Y-102098193D01*
X158323213Y-102124753D01*
X158340213Y-102153116D01*
X158354351Y-102183009D01*
X158365491Y-102214143D01*
X158373525Y-102246219D01*
X158378377Y-102278929D01*
X158380000Y-102311956D01*
X158380000Y-103188044D01*
X158378377Y-103221071D01*
X158373525Y-103253781D01*
X158365491Y-103285857D01*
X158354351Y-103316991D01*
X158340213Y-103346884D01*
X158323213Y-103375247D01*
X158303515Y-103401807D01*
X158281308Y-103426308D01*
X158256807Y-103448515D01*
X158230247Y-103468213D01*
X158201884Y-103485213D01*
X158171991Y-103499351D01*
X158140857Y-103510491D01*
X158108781Y-103518525D01*
X158076071Y-103523377D01*
X158043044Y-103525000D01*
X156916956Y-103525000D01*
X156883929Y-103523377D01*
X156851219Y-103518525D01*
X156819143Y-103510491D01*
X156788009Y-103499351D01*
X156758116Y-103485213D01*
X156729753Y-103468213D01*
X156703193Y-103448515D01*
X156678692Y-103426308D01*
X156656485Y-103401807D01*
X156636787Y-103375247D01*
X156619787Y-103346884D01*
X156605649Y-103316991D01*
X156594509Y-103285857D01*
X156586475Y-103253781D01*
X156581623Y-103221071D01*
X156580000Y-103188044D01*
X156580000Y-102311956D01*
X156581623Y-102278929D01*
X156586475Y-102246219D01*
X156594509Y-102214143D01*
X156605649Y-102183009D01*
X156619787Y-102153116D01*
X156636787Y-102124753D01*
X156656485Y-102098193D01*
X156678692Y-102073692D01*
X156703193Y-102051485D01*
X156729753Y-102031787D01*
X156758116Y-102014787D01*
X156788009Y-102000649D01*
X156819143Y-101989509D01*
X156851219Y-101981475D01*
X156883929Y-101976623D01*
X156916956Y-101975000D01*
X158043044Y-101975000D01*
X158076071Y-101976623D01*
X158076071Y-101976623D01*
G37*
D25*
X157480000Y-102750000D03*
D24*
G36*
X158076071Y-104026623D02*
X158108781Y-104031475D01*
X158140857Y-104039509D01*
X158171991Y-104050649D01*
X158201884Y-104064787D01*
X158230247Y-104081787D01*
X158256807Y-104101485D01*
X158281308Y-104123692D01*
X158303515Y-104148193D01*
X158323213Y-104174753D01*
X158340213Y-104203116D01*
X158354351Y-104233009D01*
X158365491Y-104264143D01*
X158373525Y-104296219D01*
X158378377Y-104328929D01*
X158380000Y-104361956D01*
X158380000Y-105238044D01*
X158378377Y-105271071D01*
X158373525Y-105303781D01*
X158365491Y-105335857D01*
X158354351Y-105366991D01*
X158340213Y-105396884D01*
X158323213Y-105425247D01*
X158303515Y-105451807D01*
X158281308Y-105476308D01*
X158256807Y-105498515D01*
X158230247Y-105518213D01*
X158201884Y-105535213D01*
X158171991Y-105549351D01*
X158140857Y-105560491D01*
X158108781Y-105568525D01*
X158076071Y-105573377D01*
X158043044Y-105575000D01*
X156916956Y-105575000D01*
X156883929Y-105573377D01*
X156851219Y-105568525D01*
X156819143Y-105560491D01*
X156788009Y-105549351D01*
X156758116Y-105535213D01*
X156729753Y-105518213D01*
X156703193Y-105498515D01*
X156678692Y-105476308D01*
X156656485Y-105451807D01*
X156636787Y-105425247D01*
X156619787Y-105396884D01*
X156605649Y-105366991D01*
X156594509Y-105335857D01*
X156586475Y-105303781D01*
X156581623Y-105271071D01*
X156580000Y-105238044D01*
X156580000Y-104361956D01*
X156581623Y-104328929D01*
X156586475Y-104296219D01*
X156594509Y-104264143D01*
X156605649Y-104233009D01*
X156619787Y-104203116D01*
X156636787Y-104174753D01*
X156656485Y-104148193D01*
X156678692Y-104123692D01*
X156703193Y-104101485D01*
X156729753Y-104081787D01*
X156758116Y-104064787D01*
X156788009Y-104050649D01*
X156819143Y-104039509D01*
X156851219Y-104031475D01*
X156883929Y-104026623D01*
X156916956Y-104025000D01*
X158043044Y-104025000D01*
X158076071Y-104026623D01*
X158076071Y-104026623D01*
G37*
D25*
X157480000Y-104800000D03*
G04 #@! TD*
D24*
G04 #@! TO.C,R2*
G36*
X148196071Y-79601623D02*
X148228781Y-79606475D01*
X148260857Y-79614509D01*
X148291991Y-79625649D01*
X148321884Y-79639787D01*
X148350247Y-79656787D01*
X148376807Y-79676485D01*
X148401308Y-79698692D01*
X148423515Y-79723193D01*
X148443213Y-79749753D01*
X148460213Y-79778116D01*
X148474351Y-79808009D01*
X148485491Y-79839143D01*
X148493525Y-79871219D01*
X148498377Y-79903929D01*
X148500000Y-79936956D01*
X148500000Y-81063044D01*
X148498377Y-81096071D01*
X148493525Y-81128781D01*
X148485491Y-81160857D01*
X148474351Y-81191991D01*
X148460213Y-81221884D01*
X148443213Y-81250247D01*
X148423515Y-81276807D01*
X148401308Y-81301308D01*
X148376807Y-81323515D01*
X148350247Y-81343213D01*
X148321884Y-81360213D01*
X148291991Y-81374351D01*
X148260857Y-81385491D01*
X148228781Y-81393525D01*
X148196071Y-81398377D01*
X148163044Y-81400000D01*
X147286956Y-81400000D01*
X147253929Y-81398377D01*
X147221219Y-81393525D01*
X147189143Y-81385491D01*
X147158009Y-81374351D01*
X147128116Y-81360213D01*
X147099753Y-81343213D01*
X147073193Y-81323515D01*
X147048692Y-81301308D01*
X147026485Y-81276807D01*
X147006787Y-81250247D01*
X146989787Y-81221884D01*
X146975649Y-81191991D01*
X146964509Y-81160857D01*
X146956475Y-81128781D01*
X146951623Y-81096071D01*
X146950000Y-81063044D01*
X146950000Y-79936956D01*
X146951623Y-79903929D01*
X146956475Y-79871219D01*
X146964509Y-79839143D01*
X146975649Y-79808009D01*
X146989787Y-79778116D01*
X147006787Y-79749753D01*
X147026485Y-79723193D01*
X147048692Y-79698692D01*
X147073193Y-79676485D01*
X147099753Y-79656787D01*
X147128116Y-79639787D01*
X147158009Y-79625649D01*
X147189143Y-79614509D01*
X147221219Y-79606475D01*
X147253929Y-79601623D01*
X147286956Y-79600000D01*
X148163044Y-79600000D01*
X148196071Y-79601623D01*
X148196071Y-79601623D01*
G37*
D25*
X147725000Y-80500000D03*
D24*
G36*
X150246071Y-79601623D02*
X150278781Y-79606475D01*
X150310857Y-79614509D01*
X150341991Y-79625649D01*
X150371884Y-79639787D01*
X150400247Y-79656787D01*
X150426807Y-79676485D01*
X150451308Y-79698692D01*
X150473515Y-79723193D01*
X150493213Y-79749753D01*
X150510213Y-79778116D01*
X150524351Y-79808009D01*
X150535491Y-79839143D01*
X150543525Y-79871219D01*
X150548377Y-79903929D01*
X150550000Y-79936956D01*
X150550000Y-81063044D01*
X150548377Y-81096071D01*
X150543525Y-81128781D01*
X150535491Y-81160857D01*
X150524351Y-81191991D01*
X150510213Y-81221884D01*
X150493213Y-81250247D01*
X150473515Y-81276807D01*
X150451308Y-81301308D01*
X150426807Y-81323515D01*
X150400247Y-81343213D01*
X150371884Y-81360213D01*
X150341991Y-81374351D01*
X150310857Y-81385491D01*
X150278781Y-81393525D01*
X150246071Y-81398377D01*
X150213044Y-81400000D01*
X149336956Y-81400000D01*
X149303929Y-81398377D01*
X149271219Y-81393525D01*
X149239143Y-81385491D01*
X149208009Y-81374351D01*
X149178116Y-81360213D01*
X149149753Y-81343213D01*
X149123193Y-81323515D01*
X149098692Y-81301308D01*
X149076485Y-81276807D01*
X149056787Y-81250247D01*
X149039787Y-81221884D01*
X149025649Y-81191991D01*
X149014509Y-81160857D01*
X149006475Y-81128781D01*
X149001623Y-81096071D01*
X149000000Y-81063044D01*
X149000000Y-79936956D01*
X149001623Y-79903929D01*
X149006475Y-79871219D01*
X149014509Y-79839143D01*
X149025649Y-79808009D01*
X149039787Y-79778116D01*
X149056787Y-79749753D01*
X149076485Y-79723193D01*
X149098692Y-79698692D01*
X149123193Y-79676485D01*
X149149753Y-79656787D01*
X149178116Y-79639787D01*
X149208009Y-79625649D01*
X149239143Y-79614509D01*
X149271219Y-79606475D01*
X149303929Y-79601623D01*
X149336956Y-79600000D01*
X150213044Y-79600000D01*
X150246071Y-79601623D01*
X150246071Y-79601623D01*
G37*
D25*
X149775000Y-80500000D03*
G04 #@! TD*
D24*
G04 #@! TO.C,R3*
G36*
X133096071Y-104951623D02*
X133128781Y-104956475D01*
X133160857Y-104964509D01*
X133191991Y-104975649D01*
X133221884Y-104989787D01*
X133250247Y-105006787D01*
X133276807Y-105026485D01*
X133301308Y-105048692D01*
X133323515Y-105073193D01*
X133343213Y-105099753D01*
X133360213Y-105128116D01*
X133374351Y-105158009D01*
X133385491Y-105189143D01*
X133393525Y-105221219D01*
X133398377Y-105253929D01*
X133400000Y-105286956D01*
X133400000Y-106163044D01*
X133398377Y-106196071D01*
X133393525Y-106228781D01*
X133385491Y-106260857D01*
X133374351Y-106291991D01*
X133360213Y-106321884D01*
X133343213Y-106350247D01*
X133323515Y-106376807D01*
X133301308Y-106401308D01*
X133276807Y-106423515D01*
X133250247Y-106443213D01*
X133221884Y-106460213D01*
X133191991Y-106474351D01*
X133160857Y-106485491D01*
X133128781Y-106493525D01*
X133096071Y-106498377D01*
X133063044Y-106500000D01*
X131936956Y-106500000D01*
X131903929Y-106498377D01*
X131871219Y-106493525D01*
X131839143Y-106485491D01*
X131808009Y-106474351D01*
X131778116Y-106460213D01*
X131749753Y-106443213D01*
X131723193Y-106423515D01*
X131698692Y-106401308D01*
X131676485Y-106376807D01*
X131656787Y-106350247D01*
X131639787Y-106321884D01*
X131625649Y-106291991D01*
X131614509Y-106260857D01*
X131606475Y-106228781D01*
X131601623Y-106196071D01*
X131600000Y-106163044D01*
X131600000Y-105286956D01*
X131601623Y-105253929D01*
X131606475Y-105221219D01*
X131614509Y-105189143D01*
X131625649Y-105158009D01*
X131639787Y-105128116D01*
X131656787Y-105099753D01*
X131676485Y-105073193D01*
X131698692Y-105048692D01*
X131723193Y-105026485D01*
X131749753Y-105006787D01*
X131778116Y-104989787D01*
X131808009Y-104975649D01*
X131839143Y-104964509D01*
X131871219Y-104956475D01*
X131903929Y-104951623D01*
X131936956Y-104950000D01*
X133063044Y-104950000D01*
X133096071Y-104951623D01*
X133096071Y-104951623D01*
G37*
D25*
X132500000Y-105725000D03*
D24*
G36*
X133096071Y-107001623D02*
X133128781Y-107006475D01*
X133160857Y-107014509D01*
X133191991Y-107025649D01*
X133221884Y-107039787D01*
X133250247Y-107056787D01*
X133276807Y-107076485D01*
X133301308Y-107098692D01*
X133323515Y-107123193D01*
X133343213Y-107149753D01*
X133360213Y-107178116D01*
X133374351Y-107208009D01*
X133385491Y-107239143D01*
X133393525Y-107271219D01*
X133398377Y-107303929D01*
X133400000Y-107336956D01*
X133400000Y-108213044D01*
X133398377Y-108246071D01*
X133393525Y-108278781D01*
X133385491Y-108310857D01*
X133374351Y-108341991D01*
X133360213Y-108371884D01*
X133343213Y-108400247D01*
X133323515Y-108426807D01*
X133301308Y-108451308D01*
X133276807Y-108473515D01*
X133250247Y-108493213D01*
X133221884Y-108510213D01*
X133191991Y-108524351D01*
X133160857Y-108535491D01*
X133128781Y-108543525D01*
X133096071Y-108548377D01*
X133063044Y-108550000D01*
X131936956Y-108550000D01*
X131903929Y-108548377D01*
X131871219Y-108543525D01*
X131839143Y-108535491D01*
X131808009Y-108524351D01*
X131778116Y-108510213D01*
X131749753Y-108493213D01*
X131723193Y-108473515D01*
X131698692Y-108451308D01*
X131676485Y-108426807D01*
X131656787Y-108400247D01*
X131639787Y-108371884D01*
X131625649Y-108341991D01*
X131614509Y-108310857D01*
X131606475Y-108278781D01*
X131601623Y-108246071D01*
X131600000Y-108213044D01*
X131600000Y-107336956D01*
X131601623Y-107303929D01*
X131606475Y-107271219D01*
X131614509Y-107239143D01*
X131625649Y-107208009D01*
X131639787Y-107178116D01*
X131656787Y-107149753D01*
X131676485Y-107123193D01*
X131698692Y-107098692D01*
X131723193Y-107076485D01*
X131749753Y-107056787D01*
X131778116Y-107039787D01*
X131808009Y-107025649D01*
X131839143Y-107014509D01*
X131871219Y-107006475D01*
X131903929Y-107001623D01*
X131936956Y-107000000D01*
X133063044Y-107000000D01*
X133096071Y-107001623D01*
X133096071Y-107001623D01*
G37*
D25*
X132500000Y-107775000D03*
G04 #@! TD*
D24*
G04 #@! TO.C,R4*
G36*
X165346071Y-107001623D02*
X165378781Y-107006475D01*
X165410857Y-107014509D01*
X165441991Y-107025649D01*
X165471884Y-107039787D01*
X165500247Y-107056787D01*
X165526807Y-107076485D01*
X165551308Y-107098692D01*
X165573515Y-107123193D01*
X165593213Y-107149753D01*
X165610213Y-107178116D01*
X165624351Y-107208009D01*
X165635491Y-107239143D01*
X165643525Y-107271219D01*
X165648377Y-107303929D01*
X165650000Y-107336956D01*
X165650000Y-108213044D01*
X165648377Y-108246071D01*
X165643525Y-108278781D01*
X165635491Y-108310857D01*
X165624351Y-108341991D01*
X165610213Y-108371884D01*
X165593213Y-108400247D01*
X165573515Y-108426807D01*
X165551308Y-108451308D01*
X165526807Y-108473515D01*
X165500247Y-108493213D01*
X165471884Y-108510213D01*
X165441991Y-108524351D01*
X165410857Y-108535491D01*
X165378781Y-108543525D01*
X165346071Y-108548377D01*
X165313044Y-108550000D01*
X164186956Y-108550000D01*
X164153929Y-108548377D01*
X164121219Y-108543525D01*
X164089143Y-108535491D01*
X164058009Y-108524351D01*
X164028116Y-108510213D01*
X163999753Y-108493213D01*
X163973193Y-108473515D01*
X163948692Y-108451308D01*
X163926485Y-108426807D01*
X163906787Y-108400247D01*
X163889787Y-108371884D01*
X163875649Y-108341991D01*
X163864509Y-108310857D01*
X163856475Y-108278781D01*
X163851623Y-108246071D01*
X163850000Y-108213044D01*
X163850000Y-107336956D01*
X163851623Y-107303929D01*
X163856475Y-107271219D01*
X163864509Y-107239143D01*
X163875649Y-107208009D01*
X163889787Y-107178116D01*
X163906787Y-107149753D01*
X163926485Y-107123193D01*
X163948692Y-107098692D01*
X163973193Y-107076485D01*
X163999753Y-107056787D01*
X164028116Y-107039787D01*
X164058009Y-107025649D01*
X164089143Y-107014509D01*
X164121219Y-107006475D01*
X164153929Y-107001623D01*
X164186956Y-107000000D01*
X165313044Y-107000000D01*
X165346071Y-107001623D01*
X165346071Y-107001623D01*
G37*
D25*
X164750000Y-107775000D03*
D24*
G36*
X165346071Y-104951623D02*
X165378781Y-104956475D01*
X165410857Y-104964509D01*
X165441991Y-104975649D01*
X165471884Y-104989787D01*
X165500247Y-105006787D01*
X165526807Y-105026485D01*
X165551308Y-105048692D01*
X165573515Y-105073193D01*
X165593213Y-105099753D01*
X165610213Y-105128116D01*
X165624351Y-105158009D01*
X165635491Y-105189143D01*
X165643525Y-105221219D01*
X165648377Y-105253929D01*
X165650000Y-105286956D01*
X165650000Y-106163044D01*
X165648377Y-106196071D01*
X165643525Y-106228781D01*
X165635491Y-106260857D01*
X165624351Y-106291991D01*
X165610213Y-106321884D01*
X165593213Y-106350247D01*
X165573515Y-106376807D01*
X165551308Y-106401308D01*
X165526807Y-106423515D01*
X165500247Y-106443213D01*
X165471884Y-106460213D01*
X165441991Y-106474351D01*
X165410857Y-106485491D01*
X165378781Y-106493525D01*
X165346071Y-106498377D01*
X165313044Y-106500000D01*
X164186956Y-106500000D01*
X164153929Y-106498377D01*
X164121219Y-106493525D01*
X164089143Y-106485491D01*
X164058009Y-106474351D01*
X164028116Y-106460213D01*
X163999753Y-106443213D01*
X163973193Y-106423515D01*
X163948692Y-106401308D01*
X163926485Y-106376807D01*
X163906787Y-106350247D01*
X163889787Y-106321884D01*
X163875649Y-106291991D01*
X163864509Y-106260857D01*
X163856475Y-106228781D01*
X163851623Y-106196071D01*
X163850000Y-106163044D01*
X163850000Y-105286956D01*
X163851623Y-105253929D01*
X163856475Y-105221219D01*
X163864509Y-105189143D01*
X163875649Y-105158009D01*
X163889787Y-105128116D01*
X163906787Y-105099753D01*
X163926485Y-105073193D01*
X163948692Y-105048692D01*
X163973193Y-105026485D01*
X163999753Y-105006787D01*
X164028116Y-104989787D01*
X164058009Y-104975649D01*
X164089143Y-104964509D01*
X164121219Y-104956475D01*
X164153929Y-104951623D01*
X164186956Y-104950000D01*
X165313044Y-104950000D01*
X165346071Y-104951623D01*
X165346071Y-104951623D01*
G37*
D25*
X164750000Y-105725000D03*
G04 #@! TD*
D24*
G04 #@! TO.C,R5*
G36*
X150246071Y-131851623D02*
X150278781Y-131856475D01*
X150310857Y-131864509D01*
X150341991Y-131875649D01*
X150371884Y-131889787D01*
X150400247Y-131906787D01*
X150426807Y-131926485D01*
X150451308Y-131948692D01*
X150473515Y-131973193D01*
X150493213Y-131999753D01*
X150510213Y-132028116D01*
X150524351Y-132058009D01*
X150535491Y-132089143D01*
X150543525Y-132121219D01*
X150548377Y-132153929D01*
X150550000Y-132186956D01*
X150550000Y-133313044D01*
X150548377Y-133346071D01*
X150543525Y-133378781D01*
X150535491Y-133410857D01*
X150524351Y-133441991D01*
X150510213Y-133471884D01*
X150493213Y-133500247D01*
X150473515Y-133526807D01*
X150451308Y-133551308D01*
X150426807Y-133573515D01*
X150400247Y-133593213D01*
X150371884Y-133610213D01*
X150341991Y-133624351D01*
X150310857Y-133635491D01*
X150278781Y-133643525D01*
X150246071Y-133648377D01*
X150213044Y-133650000D01*
X149336956Y-133650000D01*
X149303929Y-133648377D01*
X149271219Y-133643525D01*
X149239143Y-133635491D01*
X149208009Y-133624351D01*
X149178116Y-133610213D01*
X149149753Y-133593213D01*
X149123193Y-133573515D01*
X149098692Y-133551308D01*
X149076485Y-133526807D01*
X149056787Y-133500247D01*
X149039787Y-133471884D01*
X149025649Y-133441991D01*
X149014509Y-133410857D01*
X149006475Y-133378781D01*
X149001623Y-133346071D01*
X149000000Y-133313044D01*
X149000000Y-132186956D01*
X149001623Y-132153929D01*
X149006475Y-132121219D01*
X149014509Y-132089143D01*
X149025649Y-132058009D01*
X149039787Y-132028116D01*
X149056787Y-131999753D01*
X149076485Y-131973193D01*
X149098692Y-131948692D01*
X149123193Y-131926485D01*
X149149753Y-131906787D01*
X149178116Y-131889787D01*
X149208009Y-131875649D01*
X149239143Y-131864509D01*
X149271219Y-131856475D01*
X149303929Y-131851623D01*
X149336956Y-131850000D01*
X150213044Y-131850000D01*
X150246071Y-131851623D01*
X150246071Y-131851623D01*
G37*
D25*
X149775000Y-132750000D03*
D24*
G36*
X148196071Y-131851623D02*
X148228781Y-131856475D01*
X148260857Y-131864509D01*
X148291991Y-131875649D01*
X148321884Y-131889787D01*
X148350247Y-131906787D01*
X148376807Y-131926485D01*
X148401308Y-131948692D01*
X148423515Y-131973193D01*
X148443213Y-131999753D01*
X148460213Y-132028116D01*
X148474351Y-132058009D01*
X148485491Y-132089143D01*
X148493525Y-132121219D01*
X148498377Y-132153929D01*
X148500000Y-132186956D01*
X148500000Y-133313044D01*
X148498377Y-133346071D01*
X148493525Y-133378781D01*
X148485491Y-133410857D01*
X148474351Y-133441991D01*
X148460213Y-133471884D01*
X148443213Y-133500247D01*
X148423515Y-133526807D01*
X148401308Y-133551308D01*
X148376807Y-133573515D01*
X148350247Y-133593213D01*
X148321884Y-133610213D01*
X148291991Y-133624351D01*
X148260857Y-133635491D01*
X148228781Y-133643525D01*
X148196071Y-133648377D01*
X148163044Y-133650000D01*
X147286956Y-133650000D01*
X147253929Y-133648377D01*
X147221219Y-133643525D01*
X147189143Y-133635491D01*
X147158009Y-133624351D01*
X147128116Y-133610213D01*
X147099753Y-133593213D01*
X147073193Y-133573515D01*
X147048692Y-133551308D01*
X147026485Y-133526807D01*
X147006787Y-133500247D01*
X146989787Y-133471884D01*
X146975649Y-133441991D01*
X146964509Y-133410857D01*
X146956475Y-133378781D01*
X146951623Y-133346071D01*
X146950000Y-133313044D01*
X146950000Y-132186956D01*
X146951623Y-132153929D01*
X146956475Y-132121219D01*
X146964509Y-132089143D01*
X146975649Y-132058009D01*
X146989787Y-132028116D01*
X147006787Y-131999753D01*
X147026485Y-131973193D01*
X147048692Y-131948692D01*
X147073193Y-131926485D01*
X147099753Y-131906787D01*
X147128116Y-131889787D01*
X147158009Y-131875649D01*
X147189143Y-131864509D01*
X147221219Y-131856475D01*
X147253929Y-131851623D01*
X147286956Y-131850000D01*
X148163044Y-131850000D01*
X148196071Y-131851623D01*
X148196071Y-131851623D01*
G37*
D25*
X147725000Y-132750000D03*
G04 #@! TD*
D24*
G04 #@! TO.C,R6*
G36*
X164671071Y-93851623D02*
X164703781Y-93856475D01*
X164735857Y-93864509D01*
X164766991Y-93875649D01*
X164796884Y-93889787D01*
X164825247Y-93906787D01*
X164851807Y-93926485D01*
X164876308Y-93948692D01*
X164898515Y-93973193D01*
X164918213Y-93999753D01*
X164935213Y-94028116D01*
X164949351Y-94058009D01*
X164960491Y-94089143D01*
X164968525Y-94121219D01*
X164973377Y-94153929D01*
X164975000Y-94186956D01*
X164975000Y-95313044D01*
X164973377Y-95346071D01*
X164968525Y-95378781D01*
X164960491Y-95410857D01*
X164949351Y-95441991D01*
X164935213Y-95471884D01*
X164918213Y-95500247D01*
X164898515Y-95526807D01*
X164876308Y-95551308D01*
X164851807Y-95573515D01*
X164825247Y-95593213D01*
X164796884Y-95610213D01*
X164766991Y-95624351D01*
X164735857Y-95635491D01*
X164703781Y-95643525D01*
X164671071Y-95648377D01*
X164638044Y-95650000D01*
X163761956Y-95650000D01*
X163728929Y-95648377D01*
X163696219Y-95643525D01*
X163664143Y-95635491D01*
X163633009Y-95624351D01*
X163603116Y-95610213D01*
X163574753Y-95593213D01*
X163548193Y-95573515D01*
X163523692Y-95551308D01*
X163501485Y-95526807D01*
X163481787Y-95500247D01*
X163464787Y-95471884D01*
X163450649Y-95441991D01*
X163439509Y-95410857D01*
X163431475Y-95378781D01*
X163426623Y-95346071D01*
X163425000Y-95313044D01*
X163425000Y-94186956D01*
X163426623Y-94153929D01*
X163431475Y-94121219D01*
X163439509Y-94089143D01*
X163450649Y-94058009D01*
X163464787Y-94028116D01*
X163481787Y-93999753D01*
X163501485Y-93973193D01*
X163523692Y-93948692D01*
X163548193Y-93926485D01*
X163574753Y-93906787D01*
X163603116Y-93889787D01*
X163633009Y-93875649D01*
X163664143Y-93864509D01*
X163696219Y-93856475D01*
X163728929Y-93851623D01*
X163761956Y-93850000D01*
X164638044Y-93850000D01*
X164671071Y-93851623D01*
X164671071Y-93851623D01*
G37*
D25*
X164200000Y-94750000D03*
D24*
G36*
X166721071Y-93851623D02*
X166753781Y-93856475D01*
X166785857Y-93864509D01*
X166816991Y-93875649D01*
X166846884Y-93889787D01*
X166875247Y-93906787D01*
X166901807Y-93926485D01*
X166926308Y-93948692D01*
X166948515Y-93973193D01*
X166968213Y-93999753D01*
X166985213Y-94028116D01*
X166999351Y-94058009D01*
X167010491Y-94089143D01*
X167018525Y-94121219D01*
X167023377Y-94153929D01*
X167025000Y-94186956D01*
X167025000Y-95313044D01*
X167023377Y-95346071D01*
X167018525Y-95378781D01*
X167010491Y-95410857D01*
X166999351Y-95441991D01*
X166985213Y-95471884D01*
X166968213Y-95500247D01*
X166948515Y-95526807D01*
X166926308Y-95551308D01*
X166901807Y-95573515D01*
X166875247Y-95593213D01*
X166846884Y-95610213D01*
X166816991Y-95624351D01*
X166785857Y-95635491D01*
X166753781Y-95643525D01*
X166721071Y-95648377D01*
X166688044Y-95650000D01*
X165811956Y-95650000D01*
X165778929Y-95648377D01*
X165746219Y-95643525D01*
X165714143Y-95635491D01*
X165683009Y-95624351D01*
X165653116Y-95610213D01*
X165624753Y-95593213D01*
X165598193Y-95573515D01*
X165573692Y-95551308D01*
X165551485Y-95526807D01*
X165531787Y-95500247D01*
X165514787Y-95471884D01*
X165500649Y-95441991D01*
X165489509Y-95410857D01*
X165481475Y-95378781D01*
X165476623Y-95346071D01*
X165475000Y-95313044D01*
X165475000Y-94186956D01*
X165476623Y-94153929D01*
X165481475Y-94121219D01*
X165489509Y-94089143D01*
X165500649Y-94058009D01*
X165514787Y-94028116D01*
X165531787Y-93999753D01*
X165551485Y-93973193D01*
X165573692Y-93948692D01*
X165598193Y-93926485D01*
X165624753Y-93906787D01*
X165653116Y-93889787D01*
X165683009Y-93875649D01*
X165714143Y-93864509D01*
X165746219Y-93856475D01*
X165778929Y-93851623D01*
X165811956Y-93850000D01*
X166688044Y-93850000D01*
X166721071Y-93851623D01*
X166721071Y-93851623D01*
G37*
D25*
X166250000Y-94750000D03*
G04 #@! TD*
D24*
G04 #@! TO.C,R7*
G36*
X166721071Y-95851623D02*
X166753781Y-95856475D01*
X166785857Y-95864509D01*
X166816991Y-95875649D01*
X166846884Y-95889787D01*
X166875247Y-95906787D01*
X166901807Y-95926485D01*
X166926308Y-95948692D01*
X166948515Y-95973193D01*
X166968213Y-95999753D01*
X166985213Y-96028116D01*
X166999351Y-96058009D01*
X167010491Y-96089143D01*
X167018525Y-96121219D01*
X167023377Y-96153929D01*
X167025000Y-96186956D01*
X167025000Y-97313044D01*
X167023377Y-97346071D01*
X167018525Y-97378781D01*
X167010491Y-97410857D01*
X166999351Y-97441991D01*
X166985213Y-97471884D01*
X166968213Y-97500247D01*
X166948515Y-97526807D01*
X166926308Y-97551308D01*
X166901807Y-97573515D01*
X166875247Y-97593213D01*
X166846884Y-97610213D01*
X166816991Y-97624351D01*
X166785857Y-97635491D01*
X166753781Y-97643525D01*
X166721071Y-97648377D01*
X166688044Y-97650000D01*
X165811956Y-97650000D01*
X165778929Y-97648377D01*
X165746219Y-97643525D01*
X165714143Y-97635491D01*
X165683009Y-97624351D01*
X165653116Y-97610213D01*
X165624753Y-97593213D01*
X165598193Y-97573515D01*
X165573692Y-97551308D01*
X165551485Y-97526807D01*
X165531787Y-97500247D01*
X165514787Y-97471884D01*
X165500649Y-97441991D01*
X165489509Y-97410857D01*
X165481475Y-97378781D01*
X165476623Y-97346071D01*
X165475000Y-97313044D01*
X165475000Y-96186956D01*
X165476623Y-96153929D01*
X165481475Y-96121219D01*
X165489509Y-96089143D01*
X165500649Y-96058009D01*
X165514787Y-96028116D01*
X165531787Y-95999753D01*
X165551485Y-95973193D01*
X165573692Y-95948692D01*
X165598193Y-95926485D01*
X165624753Y-95906787D01*
X165653116Y-95889787D01*
X165683009Y-95875649D01*
X165714143Y-95864509D01*
X165746219Y-95856475D01*
X165778929Y-95851623D01*
X165811956Y-95850000D01*
X166688044Y-95850000D01*
X166721071Y-95851623D01*
X166721071Y-95851623D01*
G37*
D25*
X166250000Y-96750000D03*
D24*
G36*
X164671071Y-95851623D02*
X164703781Y-95856475D01*
X164735857Y-95864509D01*
X164766991Y-95875649D01*
X164796884Y-95889787D01*
X164825247Y-95906787D01*
X164851807Y-95926485D01*
X164876308Y-95948692D01*
X164898515Y-95973193D01*
X164918213Y-95999753D01*
X164935213Y-96028116D01*
X164949351Y-96058009D01*
X164960491Y-96089143D01*
X164968525Y-96121219D01*
X164973377Y-96153929D01*
X164975000Y-96186956D01*
X164975000Y-97313044D01*
X164973377Y-97346071D01*
X164968525Y-97378781D01*
X164960491Y-97410857D01*
X164949351Y-97441991D01*
X164935213Y-97471884D01*
X164918213Y-97500247D01*
X164898515Y-97526807D01*
X164876308Y-97551308D01*
X164851807Y-97573515D01*
X164825247Y-97593213D01*
X164796884Y-97610213D01*
X164766991Y-97624351D01*
X164735857Y-97635491D01*
X164703781Y-97643525D01*
X164671071Y-97648377D01*
X164638044Y-97650000D01*
X163761956Y-97650000D01*
X163728929Y-97648377D01*
X163696219Y-97643525D01*
X163664143Y-97635491D01*
X163633009Y-97624351D01*
X163603116Y-97610213D01*
X163574753Y-97593213D01*
X163548193Y-97573515D01*
X163523692Y-97551308D01*
X163501485Y-97526807D01*
X163481787Y-97500247D01*
X163464787Y-97471884D01*
X163450649Y-97441991D01*
X163439509Y-97410857D01*
X163431475Y-97378781D01*
X163426623Y-97346071D01*
X163425000Y-97313044D01*
X163425000Y-96186956D01*
X163426623Y-96153929D01*
X163431475Y-96121219D01*
X163439509Y-96089143D01*
X163450649Y-96058009D01*
X163464787Y-96028116D01*
X163481787Y-95999753D01*
X163501485Y-95973193D01*
X163523692Y-95948692D01*
X163548193Y-95926485D01*
X163574753Y-95906787D01*
X163603116Y-95889787D01*
X163633009Y-95875649D01*
X163664143Y-95864509D01*
X163696219Y-95856475D01*
X163728929Y-95851623D01*
X163761956Y-95850000D01*
X164638044Y-95850000D01*
X164671071Y-95851623D01*
X164671071Y-95851623D01*
G37*
D25*
X164200000Y-96750000D03*
G04 #@! TD*
D24*
G04 #@! TO.C,R8*
G36*
X126596071Y-111776623D02*
X126628781Y-111781475D01*
X126660857Y-111789509D01*
X126691991Y-111800649D01*
X126721884Y-111814787D01*
X126750247Y-111831787D01*
X126776807Y-111851485D01*
X126801308Y-111873692D01*
X126823515Y-111898193D01*
X126843213Y-111924753D01*
X126860213Y-111953116D01*
X126874351Y-111983009D01*
X126885491Y-112014143D01*
X126893525Y-112046219D01*
X126898377Y-112078929D01*
X126900000Y-112111956D01*
X126900000Y-112988044D01*
X126898377Y-113021071D01*
X126893525Y-113053781D01*
X126885491Y-113085857D01*
X126874351Y-113116991D01*
X126860213Y-113146884D01*
X126843213Y-113175247D01*
X126823515Y-113201807D01*
X126801308Y-113226308D01*
X126776807Y-113248515D01*
X126750247Y-113268213D01*
X126721884Y-113285213D01*
X126691991Y-113299351D01*
X126660857Y-113310491D01*
X126628781Y-113318525D01*
X126596071Y-113323377D01*
X126563044Y-113325000D01*
X125436956Y-113325000D01*
X125403929Y-113323377D01*
X125371219Y-113318525D01*
X125339143Y-113310491D01*
X125308009Y-113299351D01*
X125278116Y-113285213D01*
X125249753Y-113268213D01*
X125223193Y-113248515D01*
X125198692Y-113226308D01*
X125176485Y-113201807D01*
X125156787Y-113175247D01*
X125139787Y-113146884D01*
X125125649Y-113116991D01*
X125114509Y-113085857D01*
X125106475Y-113053781D01*
X125101623Y-113021071D01*
X125100000Y-112988044D01*
X125100000Y-112111956D01*
X125101623Y-112078929D01*
X125106475Y-112046219D01*
X125114509Y-112014143D01*
X125125649Y-111983009D01*
X125139787Y-111953116D01*
X125156787Y-111924753D01*
X125176485Y-111898193D01*
X125198692Y-111873692D01*
X125223193Y-111851485D01*
X125249753Y-111831787D01*
X125278116Y-111814787D01*
X125308009Y-111800649D01*
X125339143Y-111789509D01*
X125371219Y-111781475D01*
X125403929Y-111776623D01*
X125436956Y-111775000D01*
X126563044Y-111775000D01*
X126596071Y-111776623D01*
X126596071Y-111776623D01*
G37*
D25*
X126000000Y-112550000D03*
D24*
G36*
X126596071Y-109726623D02*
X126628781Y-109731475D01*
X126660857Y-109739509D01*
X126691991Y-109750649D01*
X126721884Y-109764787D01*
X126750247Y-109781787D01*
X126776807Y-109801485D01*
X126801308Y-109823692D01*
X126823515Y-109848193D01*
X126843213Y-109874753D01*
X126860213Y-109903116D01*
X126874351Y-109933009D01*
X126885491Y-109964143D01*
X126893525Y-109996219D01*
X126898377Y-110028929D01*
X126900000Y-110061956D01*
X126900000Y-110938044D01*
X126898377Y-110971071D01*
X126893525Y-111003781D01*
X126885491Y-111035857D01*
X126874351Y-111066991D01*
X126860213Y-111096884D01*
X126843213Y-111125247D01*
X126823515Y-111151807D01*
X126801308Y-111176308D01*
X126776807Y-111198515D01*
X126750247Y-111218213D01*
X126721884Y-111235213D01*
X126691991Y-111249351D01*
X126660857Y-111260491D01*
X126628781Y-111268525D01*
X126596071Y-111273377D01*
X126563044Y-111275000D01*
X125436956Y-111275000D01*
X125403929Y-111273377D01*
X125371219Y-111268525D01*
X125339143Y-111260491D01*
X125308009Y-111249351D01*
X125278116Y-111235213D01*
X125249753Y-111218213D01*
X125223193Y-111198515D01*
X125198692Y-111176308D01*
X125176485Y-111151807D01*
X125156787Y-111125247D01*
X125139787Y-111096884D01*
X125125649Y-111066991D01*
X125114509Y-111035857D01*
X125106475Y-111003781D01*
X125101623Y-110971071D01*
X125100000Y-110938044D01*
X125100000Y-110061956D01*
X125101623Y-110028929D01*
X125106475Y-109996219D01*
X125114509Y-109964143D01*
X125125649Y-109933009D01*
X125139787Y-109903116D01*
X125156787Y-109874753D01*
X125176485Y-109848193D01*
X125198692Y-109823692D01*
X125223193Y-109801485D01*
X125249753Y-109781787D01*
X125278116Y-109764787D01*
X125308009Y-109750649D01*
X125339143Y-109739509D01*
X125371219Y-109731475D01*
X125403929Y-109726623D01*
X125436956Y-109725000D01*
X126563044Y-109725000D01*
X126596071Y-109726623D01*
X126596071Y-109726623D01*
G37*
D25*
X126000000Y-110500000D03*
G04 #@! TD*
D24*
G04 #@! TO.C,R9*
G36*
X124596071Y-109726623D02*
X124628781Y-109731475D01*
X124660857Y-109739509D01*
X124691991Y-109750649D01*
X124721884Y-109764787D01*
X124750247Y-109781787D01*
X124776807Y-109801485D01*
X124801308Y-109823692D01*
X124823515Y-109848193D01*
X124843213Y-109874753D01*
X124860213Y-109903116D01*
X124874351Y-109933009D01*
X124885491Y-109964143D01*
X124893525Y-109996219D01*
X124898377Y-110028929D01*
X124900000Y-110061956D01*
X124900000Y-110938044D01*
X124898377Y-110971071D01*
X124893525Y-111003781D01*
X124885491Y-111035857D01*
X124874351Y-111066991D01*
X124860213Y-111096884D01*
X124843213Y-111125247D01*
X124823515Y-111151807D01*
X124801308Y-111176308D01*
X124776807Y-111198515D01*
X124750247Y-111218213D01*
X124721884Y-111235213D01*
X124691991Y-111249351D01*
X124660857Y-111260491D01*
X124628781Y-111268525D01*
X124596071Y-111273377D01*
X124563044Y-111275000D01*
X123436956Y-111275000D01*
X123403929Y-111273377D01*
X123371219Y-111268525D01*
X123339143Y-111260491D01*
X123308009Y-111249351D01*
X123278116Y-111235213D01*
X123249753Y-111218213D01*
X123223193Y-111198515D01*
X123198692Y-111176308D01*
X123176485Y-111151807D01*
X123156787Y-111125247D01*
X123139787Y-111096884D01*
X123125649Y-111066991D01*
X123114509Y-111035857D01*
X123106475Y-111003781D01*
X123101623Y-110971071D01*
X123100000Y-110938044D01*
X123100000Y-110061956D01*
X123101623Y-110028929D01*
X123106475Y-109996219D01*
X123114509Y-109964143D01*
X123125649Y-109933009D01*
X123139787Y-109903116D01*
X123156787Y-109874753D01*
X123176485Y-109848193D01*
X123198692Y-109823692D01*
X123223193Y-109801485D01*
X123249753Y-109781787D01*
X123278116Y-109764787D01*
X123308009Y-109750649D01*
X123339143Y-109739509D01*
X123371219Y-109731475D01*
X123403929Y-109726623D01*
X123436956Y-109725000D01*
X124563044Y-109725000D01*
X124596071Y-109726623D01*
X124596071Y-109726623D01*
G37*
D25*
X124000000Y-110500000D03*
D24*
G36*
X124596071Y-111776623D02*
X124628781Y-111781475D01*
X124660857Y-111789509D01*
X124691991Y-111800649D01*
X124721884Y-111814787D01*
X124750247Y-111831787D01*
X124776807Y-111851485D01*
X124801308Y-111873692D01*
X124823515Y-111898193D01*
X124843213Y-111924753D01*
X124860213Y-111953116D01*
X124874351Y-111983009D01*
X124885491Y-112014143D01*
X124893525Y-112046219D01*
X124898377Y-112078929D01*
X124900000Y-112111956D01*
X124900000Y-112988044D01*
X124898377Y-113021071D01*
X124893525Y-113053781D01*
X124885491Y-113085857D01*
X124874351Y-113116991D01*
X124860213Y-113146884D01*
X124843213Y-113175247D01*
X124823515Y-113201807D01*
X124801308Y-113226308D01*
X124776807Y-113248515D01*
X124750247Y-113268213D01*
X124721884Y-113285213D01*
X124691991Y-113299351D01*
X124660857Y-113310491D01*
X124628781Y-113318525D01*
X124596071Y-113323377D01*
X124563044Y-113325000D01*
X123436956Y-113325000D01*
X123403929Y-113323377D01*
X123371219Y-113318525D01*
X123339143Y-113310491D01*
X123308009Y-113299351D01*
X123278116Y-113285213D01*
X123249753Y-113268213D01*
X123223193Y-113248515D01*
X123198692Y-113226308D01*
X123176485Y-113201807D01*
X123156787Y-113175247D01*
X123139787Y-113146884D01*
X123125649Y-113116991D01*
X123114509Y-113085857D01*
X123106475Y-113053781D01*
X123101623Y-113021071D01*
X123100000Y-112988044D01*
X123100000Y-112111956D01*
X123101623Y-112078929D01*
X123106475Y-112046219D01*
X123114509Y-112014143D01*
X123125649Y-111983009D01*
X123139787Y-111953116D01*
X123156787Y-111924753D01*
X123176485Y-111898193D01*
X123198692Y-111873692D01*
X123223193Y-111851485D01*
X123249753Y-111831787D01*
X123278116Y-111814787D01*
X123308009Y-111800649D01*
X123339143Y-111789509D01*
X123371219Y-111781475D01*
X123403929Y-111776623D01*
X123436956Y-111775000D01*
X124563044Y-111775000D01*
X124596071Y-111776623D01*
X124596071Y-111776623D01*
G37*
D25*
X124000000Y-112550000D03*
G04 #@! TD*
D24*
G04 #@! TO.C,R10*
G36*
X143421071Y-73101623D02*
X143453781Y-73106475D01*
X143485857Y-73114509D01*
X143516991Y-73125649D01*
X143546884Y-73139787D01*
X143575247Y-73156787D01*
X143601807Y-73176485D01*
X143626308Y-73198692D01*
X143648515Y-73223193D01*
X143668213Y-73249753D01*
X143685213Y-73278116D01*
X143699351Y-73308009D01*
X143710491Y-73339143D01*
X143718525Y-73371219D01*
X143723377Y-73403929D01*
X143725000Y-73436956D01*
X143725000Y-74563044D01*
X143723377Y-74596071D01*
X143718525Y-74628781D01*
X143710491Y-74660857D01*
X143699351Y-74691991D01*
X143685213Y-74721884D01*
X143668213Y-74750247D01*
X143648515Y-74776807D01*
X143626308Y-74801308D01*
X143601807Y-74823515D01*
X143575247Y-74843213D01*
X143546884Y-74860213D01*
X143516991Y-74874351D01*
X143485857Y-74885491D01*
X143453781Y-74893525D01*
X143421071Y-74898377D01*
X143388044Y-74900000D01*
X142511956Y-74900000D01*
X142478929Y-74898377D01*
X142446219Y-74893525D01*
X142414143Y-74885491D01*
X142383009Y-74874351D01*
X142353116Y-74860213D01*
X142324753Y-74843213D01*
X142298193Y-74823515D01*
X142273692Y-74801308D01*
X142251485Y-74776807D01*
X142231787Y-74750247D01*
X142214787Y-74721884D01*
X142200649Y-74691991D01*
X142189509Y-74660857D01*
X142181475Y-74628781D01*
X142176623Y-74596071D01*
X142175000Y-74563044D01*
X142175000Y-73436956D01*
X142176623Y-73403929D01*
X142181475Y-73371219D01*
X142189509Y-73339143D01*
X142200649Y-73308009D01*
X142214787Y-73278116D01*
X142231787Y-73249753D01*
X142251485Y-73223193D01*
X142273692Y-73198692D01*
X142298193Y-73176485D01*
X142324753Y-73156787D01*
X142353116Y-73139787D01*
X142383009Y-73125649D01*
X142414143Y-73114509D01*
X142446219Y-73106475D01*
X142478929Y-73101623D01*
X142511956Y-73100000D01*
X143388044Y-73100000D01*
X143421071Y-73101623D01*
X143421071Y-73101623D01*
G37*
D25*
X142950000Y-74000000D03*
D24*
G36*
X145471071Y-73101623D02*
X145503781Y-73106475D01*
X145535857Y-73114509D01*
X145566991Y-73125649D01*
X145596884Y-73139787D01*
X145625247Y-73156787D01*
X145651807Y-73176485D01*
X145676308Y-73198692D01*
X145698515Y-73223193D01*
X145718213Y-73249753D01*
X145735213Y-73278116D01*
X145749351Y-73308009D01*
X145760491Y-73339143D01*
X145768525Y-73371219D01*
X145773377Y-73403929D01*
X145775000Y-73436956D01*
X145775000Y-74563044D01*
X145773377Y-74596071D01*
X145768525Y-74628781D01*
X145760491Y-74660857D01*
X145749351Y-74691991D01*
X145735213Y-74721884D01*
X145718213Y-74750247D01*
X145698515Y-74776807D01*
X145676308Y-74801308D01*
X145651807Y-74823515D01*
X145625247Y-74843213D01*
X145596884Y-74860213D01*
X145566991Y-74874351D01*
X145535857Y-74885491D01*
X145503781Y-74893525D01*
X145471071Y-74898377D01*
X145438044Y-74900000D01*
X144561956Y-74900000D01*
X144528929Y-74898377D01*
X144496219Y-74893525D01*
X144464143Y-74885491D01*
X144433009Y-74874351D01*
X144403116Y-74860213D01*
X144374753Y-74843213D01*
X144348193Y-74823515D01*
X144323692Y-74801308D01*
X144301485Y-74776807D01*
X144281787Y-74750247D01*
X144264787Y-74721884D01*
X144250649Y-74691991D01*
X144239509Y-74660857D01*
X144231475Y-74628781D01*
X144226623Y-74596071D01*
X144225000Y-74563044D01*
X144225000Y-73436956D01*
X144226623Y-73403929D01*
X144231475Y-73371219D01*
X144239509Y-73339143D01*
X144250649Y-73308009D01*
X144264787Y-73278116D01*
X144281787Y-73249753D01*
X144301485Y-73223193D01*
X144323692Y-73198692D01*
X144348193Y-73176485D01*
X144374753Y-73156787D01*
X144403116Y-73139787D01*
X144433009Y-73125649D01*
X144464143Y-73114509D01*
X144496219Y-73106475D01*
X144528929Y-73101623D01*
X144561956Y-73100000D01*
X145438044Y-73100000D01*
X145471071Y-73101623D01*
X145471071Y-73101623D01*
G37*
D25*
X145000000Y-74000000D03*
G04 #@! TD*
D24*
G04 #@! TO.C,R11*
G36*
X155021071Y-138101623D02*
X155053781Y-138106475D01*
X155085857Y-138114509D01*
X155116991Y-138125649D01*
X155146884Y-138139787D01*
X155175247Y-138156787D01*
X155201807Y-138176485D01*
X155226308Y-138198692D01*
X155248515Y-138223193D01*
X155268213Y-138249753D01*
X155285213Y-138278116D01*
X155299351Y-138308009D01*
X155310491Y-138339143D01*
X155318525Y-138371219D01*
X155323377Y-138403929D01*
X155325000Y-138436956D01*
X155325000Y-139563044D01*
X155323377Y-139596071D01*
X155318525Y-139628781D01*
X155310491Y-139660857D01*
X155299351Y-139691991D01*
X155285213Y-139721884D01*
X155268213Y-139750247D01*
X155248515Y-139776807D01*
X155226308Y-139801308D01*
X155201807Y-139823515D01*
X155175247Y-139843213D01*
X155146884Y-139860213D01*
X155116991Y-139874351D01*
X155085857Y-139885491D01*
X155053781Y-139893525D01*
X155021071Y-139898377D01*
X154988044Y-139900000D01*
X154111956Y-139900000D01*
X154078929Y-139898377D01*
X154046219Y-139893525D01*
X154014143Y-139885491D01*
X153983009Y-139874351D01*
X153953116Y-139860213D01*
X153924753Y-139843213D01*
X153898193Y-139823515D01*
X153873692Y-139801308D01*
X153851485Y-139776807D01*
X153831787Y-139750247D01*
X153814787Y-139721884D01*
X153800649Y-139691991D01*
X153789509Y-139660857D01*
X153781475Y-139628781D01*
X153776623Y-139596071D01*
X153775000Y-139563044D01*
X153775000Y-138436956D01*
X153776623Y-138403929D01*
X153781475Y-138371219D01*
X153789509Y-138339143D01*
X153800649Y-138308009D01*
X153814787Y-138278116D01*
X153831787Y-138249753D01*
X153851485Y-138223193D01*
X153873692Y-138198692D01*
X153898193Y-138176485D01*
X153924753Y-138156787D01*
X153953116Y-138139787D01*
X153983009Y-138125649D01*
X154014143Y-138114509D01*
X154046219Y-138106475D01*
X154078929Y-138101623D01*
X154111956Y-138100000D01*
X154988044Y-138100000D01*
X155021071Y-138101623D01*
X155021071Y-138101623D01*
G37*
D25*
X154550000Y-139000000D03*
D24*
G36*
X152971071Y-138101623D02*
X153003781Y-138106475D01*
X153035857Y-138114509D01*
X153066991Y-138125649D01*
X153096884Y-138139787D01*
X153125247Y-138156787D01*
X153151807Y-138176485D01*
X153176308Y-138198692D01*
X153198515Y-138223193D01*
X153218213Y-138249753D01*
X153235213Y-138278116D01*
X153249351Y-138308009D01*
X153260491Y-138339143D01*
X153268525Y-138371219D01*
X153273377Y-138403929D01*
X153275000Y-138436956D01*
X153275000Y-139563044D01*
X153273377Y-139596071D01*
X153268525Y-139628781D01*
X153260491Y-139660857D01*
X153249351Y-139691991D01*
X153235213Y-139721884D01*
X153218213Y-139750247D01*
X153198515Y-139776807D01*
X153176308Y-139801308D01*
X153151807Y-139823515D01*
X153125247Y-139843213D01*
X153096884Y-139860213D01*
X153066991Y-139874351D01*
X153035857Y-139885491D01*
X153003781Y-139893525D01*
X152971071Y-139898377D01*
X152938044Y-139900000D01*
X152061956Y-139900000D01*
X152028929Y-139898377D01*
X151996219Y-139893525D01*
X151964143Y-139885491D01*
X151933009Y-139874351D01*
X151903116Y-139860213D01*
X151874753Y-139843213D01*
X151848193Y-139823515D01*
X151823692Y-139801308D01*
X151801485Y-139776807D01*
X151781787Y-139750247D01*
X151764787Y-139721884D01*
X151750649Y-139691991D01*
X151739509Y-139660857D01*
X151731475Y-139628781D01*
X151726623Y-139596071D01*
X151725000Y-139563044D01*
X151725000Y-138436956D01*
X151726623Y-138403929D01*
X151731475Y-138371219D01*
X151739509Y-138339143D01*
X151750649Y-138308009D01*
X151764787Y-138278116D01*
X151781787Y-138249753D01*
X151801485Y-138223193D01*
X151823692Y-138198692D01*
X151848193Y-138176485D01*
X151874753Y-138156787D01*
X151903116Y-138139787D01*
X151933009Y-138125649D01*
X151964143Y-138114509D01*
X151996219Y-138106475D01*
X152028929Y-138101623D01*
X152061956Y-138100000D01*
X152938044Y-138100000D01*
X152971071Y-138101623D01*
X152971071Y-138101623D01*
G37*
D25*
X152500000Y-139000000D03*
G04 #@! TD*
D24*
G04 #@! TO.C,R12*
G36*
X143421071Y-71101623D02*
X143453781Y-71106475D01*
X143485857Y-71114509D01*
X143516991Y-71125649D01*
X143546884Y-71139787D01*
X143575247Y-71156787D01*
X143601807Y-71176485D01*
X143626308Y-71198692D01*
X143648515Y-71223193D01*
X143668213Y-71249753D01*
X143685213Y-71278116D01*
X143699351Y-71308009D01*
X143710491Y-71339143D01*
X143718525Y-71371219D01*
X143723377Y-71403929D01*
X143725000Y-71436956D01*
X143725000Y-72563044D01*
X143723377Y-72596071D01*
X143718525Y-72628781D01*
X143710491Y-72660857D01*
X143699351Y-72691991D01*
X143685213Y-72721884D01*
X143668213Y-72750247D01*
X143648515Y-72776807D01*
X143626308Y-72801308D01*
X143601807Y-72823515D01*
X143575247Y-72843213D01*
X143546884Y-72860213D01*
X143516991Y-72874351D01*
X143485857Y-72885491D01*
X143453781Y-72893525D01*
X143421071Y-72898377D01*
X143388044Y-72900000D01*
X142511956Y-72900000D01*
X142478929Y-72898377D01*
X142446219Y-72893525D01*
X142414143Y-72885491D01*
X142383009Y-72874351D01*
X142353116Y-72860213D01*
X142324753Y-72843213D01*
X142298193Y-72823515D01*
X142273692Y-72801308D01*
X142251485Y-72776807D01*
X142231787Y-72750247D01*
X142214787Y-72721884D01*
X142200649Y-72691991D01*
X142189509Y-72660857D01*
X142181475Y-72628781D01*
X142176623Y-72596071D01*
X142175000Y-72563044D01*
X142175000Y-71436956D01*
X142176623Y-71403929D01*
X142181475Y-71371219D01*
X142189509Y-71339143D01*
X142200649Y-71308009D01*
X142214787Y-71278116D01*
X142231787Y-71249753D01*
X142251485Y-71223193D01*
X142273692Y-71198692D01*
X142298193Y-71176485D01*
X142324753Y-71156787D01*
X142353116Y-71139787D01*
X142383009Y-71125649D01*
X142414143Y-71114509D01*
X142446219Y-71106475D01*
X142478929Y-71101623D01*
X142511956Y-71100000D01*
X143388044Y-71100000D01*
X143421071Y-71101623D01*
X143421071Y-71101623D01*
G37*
D25*
X142950000Y-72000000D03*
D24*
G36*
X145471071Y-71101623D02*
X145503781Y-71106475D01*
X145535857Y-71114509D01*
X145566991Y-71125649D01*
X145596884Y-71139787D01*
X145625247Y-71156787D01*
X145651807Y-71176485D01*
X145676308Y-71198692D01*
X145698515Y-71223193D01*
X145718213Y-71249753D01*
X145735213Y-71278116D01*
X145749351Y-71308009D01*
X145760491Y-71339143D01*
X145768525Y-71371219D01*
X145773377Y-71403929D01*
X145775000Y-71436956D01*
X145775000Y-72563044D01*
X145773377Y-72596071D01*
X145768525Y-72628781D01*
X145760491Y-72660857D01*
X145749351Y-72691991D01*
X145735213Y-72721884D01*
X145718213Y-72750247D01*
X145698515Y-72776807D01*
X145676308Y-72801308D01*
X145651807Y-72823515D01*
X145625247Y-72843213D01*
X145596884Y-72860213D01*
X145566991Y-72874351D01*
X145535857Y-72885491D01*
X145503781Y-72893525D01*
X145471071Y-72898377D01*
X145438044Y-72900000D01*
X144561956Y-72900000D01*
X144528929Y-72898377D01*
X144496219Y-72893525D01*
X144464143Y-72885491D01*
X144433009Y-72874351D01*
X144403116Y-72860213D01*
X144374753Y-72843213D01*
X144348193Y-72823515D01*
X144323692Y-72801308D01*
X144301485Y-72776807D01*
X144281787Y-72750247D01*
X144264787Y-72721884D01*
X144250649Y-72691991D01*
X144239509Y-72660857D01*
X144231475Y-72628781D01*
X144226623Y-72596071D01*
X144225000Y-72563044D01*
X144225000Y-71436956D01*
X144226623Y-71403929D01*
X144231475Y-71371219D01*
X144239509Y-71339143D01*
X144250649Y-71308009D01*
X144264787Y-71278116D01*
X144281787Y-71249753D01*
X144301485Y-71223193D01*
X144323692Y-71198692D01*
X144348193Y-71176485D01*
X144374753Y-71156787D01*
X144403116Y-71139787D01*
X144433009Y-71125649D01*
X144464143Y-71114509D01*
X144496219Y-71106475D01*
X144528929Y-71101623D01*
X144561956Y-71100000D01*
X145438044Y-71100000D01*
X145471071Y-71101623D01*
X145471071Y-71101623D01*
G37*
D25*
X145000000Y-72000000D03*
G04 #@! TD*
D24*
G04 #@! TO.C,R13*
G36*
X152971071Y-140101623D02*
X153003781Y-140106475D01*
X153035857Y-140114509D01*
X153066991Y-140125649D01*
X153096884Y-140139787D01*
X153125247Y-140156787D01*
X153151807Y-140176485D01*
X153176308Y-140198692D01*
X153198515Y-140223193D01*
X153218213Y-140249753D01*
X153235213Y-140278116D01*
X153249351Y-140308009D01*
X153260491Y-140339143D01*
X153268525Y-140371219D01*
X153273377Y-140403929D01*
X153275000Y-140436956D01*
X153275000Y-141563044D01*
X153273377Y-141596071D01*
X153268525Y-141628781D01*
X153260491Y-141660857D01*
X153249351Y-141691991D01*
X153235213Y-141721884D01*
X153218213Y-141750247D01*
X153198515Y-141776807D01*
X153176308Y-141801308D01*
X153151807Y-141823515D01*
X153125247Y-141843213D01*
X153096884Y-141860213D01*
X153066991Y-141874351D01*
X153035857Y-141885491D01*
X153003781Y-141893525D01*
X152971071Y-141898377D01*
X152938044Y-141900000D01*
X152061956Y-141900000D01*
X152028929Y-141898377D01*
X151996219Y-141893525D01*
X151964143Y-141885491D01*
X151933009Y-141874351D01*
X151903116Y-141860213D01*
X151874753Y-141843213D01*
X151848193Y-141823515D01*
X151823692Y-141801308D01*
X151801485Y-141776807D01*
X151781787Y-141750247D01*
X151764787Y-141721884D01*
X151750649Y-141691991D01*
X151739509Y-141660857D01*
X151731475Y-141628781D01*
X151726623Y-141596071D01*
X151725000Y-141563044D01*
X151725000Y-140436956D01*
X151726623Y-140403929D01*
X151731475Y-140371219D01*
X151739509Y-140339143D01*
X151750649Y-140308009D01*
X151764787Y-140278116D01*
X151781787Y-140249753D01*
X151801485Y-140223193D01*
X151823692Y-140198692D01*
X151848193Y-140176485D01*
X151874753Y-140156787D01*
X151903116Y-140139787D01*
X151933009Y-140125649D01*
X151964143Y-140114509D01*
X151996219Y-140106475D01*
X152028929Y-140101623D01*
X152061956Y-140100000D01*
X152938044Y-140100000D01*
X152971071Y-140101623D01*
X152971071Y-140101623D01*
G37*
D25*
X152500000Y-141000000D03*
D24*
G36*
X155021071Y-140101623D02*
X155053781Y-140106475D01*
X155085857Y-140114509D01*
X155116991Y-140125649D01*
X155146884Y-140139787D01*
X155175247Y-140156787D01*
X155201807Y-140176485D01*
X155226308Y-140198692D01*
X155248515Y-140223193D01*
X155268213Y-140249753D01*
X155285213Y-140278116D01*
X155299351Y-140308009D01*
X155310491Y-140339143D01*
X155318525Y-140371219D01*
X155323377Y-140403929D01*
X155325000Y-140436956D01*
X155325000Y-141563044D01*
X155323377Y-141596071D01*
X155318525Y-141628781D01*
X155310491Y-141660857D01*
X155299351Y-141691991D01*
X155285213Y-141721884D01*
X155268213Y-141750247D01*
X155248515Y-141776807D01*
X155226308Y-141801308D01*
X155201807Y-141823515D01*
X155175247Y-141843213D01*
X155146884Y-141860213D01*
X155116991Y-141874351D01*
X155085857Y-141885491D01*
X155053781Y-141893525D01*
X155021071Y-141898377D01*
X154988044Y-141900000D01*
X154111956Y-141900000D01*
X154078929Y-141898377D01*
X154046219Y-141893525D01*
X154014143Y-141885491D01*
X153983009Y-141874351D01*
X153953116Y-141860213D01*
X153924753Y-141843213D01*
X153898193Y-141823515D01*
X153873692Y-141801308D01*
X153851485Y-141776807D01*
X153831787Y-141750247D01*
X153814787Y-141721884D01*
X153800649Y-141691991D01*
X153789509Y-141660857D01*
X153781475Y-141628781D01*
X153776623Y-141596071D01*
X153775000Y-141563044D01*
X153775000Y-140436956D01*
X153776623Y-140403929D01*
X153781475Y-140371219D01*
X153789509Y-140339143D01*
X153800649Y-140308009D01*
X153814787Y-140278116D01*
X153831787Y-140249753D01*
X153851485Y-140223193D01*
X153873692Y-140198692D01*
X153898193Y-140176485D01*
X153924753Y-140156787D01*
X153953116Y-140139787D01*
X153983009Y-140125649D01*
X154014143Y-140114509D01*
X154046219Y-140106475D01*
X154078929Y-140101623D01*
X154111956Y-140100000D01*
X154988044Y-140100000D01*
X155021071Y-140101623D01*
X155021071Y-140101623D01*
G37*
D25*
X154550000Y-141000000D03*
G04 #@! TD*
D24*
G04 #@! TO.C,R14*
G36*
X171596071Y-102276623D02*
X171628781Y-102281475D01*
X171660857Y-102289509D01*
X171691991Y-102300649D01*
X171721884Y-102314787D01*
X171750247Y-102331787D01*
X171776807Y-102351485D01*
X171801308Y-102373692D01*
X171823515Y-102398193D01*
X171843213Y-102424753D01*
X171860213Y-102453116D01*
X171874351Y-102483009D01*
X171885491Y-102514143D01*
X171893525Y-102546219D01*
X171898377Y-102578929D01*
X171900000Y-102611956D01*
X171900000Y-103488044D01*
X171898377Y-103521071D01*
X171893525Y-103553781D01*
X171885491Y-103585857D01*
X171874351Y-103616991D01*
X171860213Y-103646884D01*
X171843213Y-103675247D01*
X171823515Y-103701807D01*
X171801308Y-103726308D01*
X171776807Y-103748515D01*
X171750247Y-103768213D01*
X171721884Y-103785213D01*
X171691991Y-103799351D01*
X171660857Y-103810491D01*
X171628781Y-103818525D01*
X171596071Y-103823377D01*
X171563044Y-103825000D01*
X170436956Y-103825000D01*
X170403929Y-103823377D01*
X170371219Y-103818525D01*
X170339143Y-103810491D01*
X170308009Y-103799351D01*
X170278116Y-103785213D01*
X170249753Y-103768213D01*
X170223193Y-103748515D01*
X170198692Y-103726308D01*
X170176485Y-103701807D01*
X170156787Y-103675247D01*
X170139787Y-103646884D01*
X170125649Y-103616991D01*
X170114509Y-103585857D01*
X170106475Y-103553781D01*
X170101623Y-103521071D01*
X170100000Y-103488044D01*
X170100000Y-102611956D01*
X170101623Y-102578929D01*
X170106475Y-102546219D01*
X170114509Y-102514143D01*
X170125649Y-102483009D01*
X170139787Y-102453116D01*
X170156787Y-102424753D01*
X170176485Y-102398193D01*
X170198692Y-102373692D01*
X170223193Y-102351485D01*
X170249753Y-102331787D01*
X170278116Y-102314787D01*
X170308009Y-102300649D01*
X170339143Y-102289509D01*
X170371219Y-102281475D01*
X170403929Y-102276623D01*
X170436956Y-102275000D01*
X171563044Y-102275000D01*
X171596071Y-102276623D01*
X171596071Y-102276623D01*
G37*
D25*
X171000000Y-103050000D03*
D24*
G36*
X171596071Y-100226623D02*
X171628781Y-100231475D01*
X171660857Y-100239509D01*
X171691991Y-100250649D01*
X171721884Y-100264787D01*
X171750247Y-100281787D01*
X171776807Y-100301485D01*
X171801308Y-100323692D01*
X171823515Y-100348193D01*
X171843213Y-100374753D01*
X171860213Y-100403116D01*
X171874351Y-100433009D01*
X171885491Y-100464143D01*
X171893525Y-100496219D01*
X171898377Y-100528929D01*
X171900000Y-100561956D01*
X171900000Y-101438044D01*
X171898377Y-101471071D01*
X171893525Y-101503781D01*
X171885491Y-101535857D01*
X171874351Y-101566991D01*
X171860213Y-101596884D01*
X171843213Y-101625247D01*
X171823515Y-101651807D01*
X171801308Y-101676308D01*
X171776807Y-101698515D01*
X171750247Y-101718213D01*
X171721884Y-101735213D01*
X171691991Y-101749351D01*
X171660857Y-101760491D01*
X171628781Y-101768525D01*
X171596071Y-101773377D01*
X171563044Y-101775000D01*
X170436956Y-101775000D01*
X170403929Y-101773377D01*
X170371219Y-101768525D01*
X170339143Y-101760491D01*
X170308009Y-101749351D01*
X170278116Y-101735213D01*
X170249753Y-101718213D01*
X170223193Y-101698515D01*
X170198692Y-101676308D01*
X170176485Y-101651807D01*
X170156787Y-101625247D01*
X170139787Y-101596884D01*
X170125649Y-101566991D01*
X170114509Y-101535857D01*
X170106475Y-101503781D01*
X170101623Y-101471071D01*
X170100000Y-101438044D01*
X170100000Y-100561956D01*
X170101623Y-100528929D01*
X170106475Y-100496219D01*
X170114509Y-100464143D01*
X170125649Y-100433009D01*
X170139787Y-100403116D01*
X170156787Y-100374753D01*
X170176485Y-100348193D01*
X170198692Y-100323692D01*
X170223193Y-100301485D01*
X170249753Y-100281787D01*
X170278116Y-100264787D01*
X170308009Y-100250649D01*
X170339143Y-100239509D01*
X170371219Y-100231475D01*
X170403929Y-100226623D01*
X170436956Y-100225000D01*
X171563044Y-100225000D01*
X171596071Y-100226623D01*
X171596071Y-100226623D01*
G37*
D25*
X171000000Y-101000000D03*
G04 #@! TD*
D24*
G04 #@! TO.C,R15*
G36*
X173596071Y-100226623D02*
X173628781Y-100231475D01*
X173660857Y-100239509D01*
X173691991Y-100250649D01*
X173721884Y-100264787D01*
X173750247Y-100281787D01*
X173776807Y-100301485D01*
X173801308Y-100323692D01*
X173823515Y-100348193D01*
X173843213Y-100374753D01*
X173860213Y-100403116D01*
X173874351Y-100433009D01*
X173885491Y-100464143D01*
X173893525Y-100496219D01*
X173898377Y-100528929D01*
X173900000Y-100561956D01*
X173900000Y-101438044D01*
X173898377Y-101471071D01*
X173893525Y-101503781D01*
X173885491Y-101535857D01*
X173874351Y-101566991D01*
X173860213Y-101596884D01*
X173843213Y-101625247D01*
X173823515Y-101651807D01*
X173801308Y-101676308D01*
X173776807Y-101698515D01*
X173750247Y-101718213D01*
X173721884Y-101735213D01*
X173691991Y-101749351D01*
X173660857Y-101760491D01*
X173628781Y-101768525D01*
X173596071Y-101773377D01*
X173563044Y-101775000D01*
X172436956Y-101775000D01*
X172403929Y-101773377D01*
X172371219Y-101768525D01*
X172339143Y-101760491D01*
X172308009Y-101749351D01*
X172278116Y-101735213D01*
X172249753Y-101718213D01*
X172223193Y-101698515D01*
X172198692Y-101676308D01*
X172176485Y-101651807D01*
X172156787Y-101625247D01*
X172139787Y-101596884D01*
X172125649Y-101566991D01*
X172114509Y-101535857D01*
X172106475Y-101503781D01*
X172101623Y-101471071D01*
X172100000Y-101438044D01*
X172100000Y-100561956D01*
X172101623Y-100528929D01*
X172106475Y-100496219D01*
X172114509Y-100464143D01*
X172125649Y-100433009D01*
X172139787Y-100403116D01*
X172156787Y-100374753D01*
X172176485Y-100348193D01*
X172198692Y-100323692D01*
X172223193Y-100301485D01*
X172249753Y-100281787D01*
X172278116Y-100264787D01*
X172308009Y-100250649D01*
X172339143Y-100239509D01*
X172371219Y-100231475D01*
X172403929Y-100226623D01*
X172436956Y-100225000D01*
X173563044Y-100225000D01*
X173596071Y-100226623D01*
X173596071Y-100226623D01*
G37*
D25*
X173000000Y-101000000D03*
D24*
G36*
X173596071Y-102276623D02*
X173628781Y-102281475D01*
X173660857Y-102289509D01*
X173691991Y-102300649D01*
X173721884Y-102314787D01*
X173750247Y-102331787D01*
X173776807Y-102351485D01*
X173801308Y-102373692D01*
X173823515Y-102398193D01*
X173843213Y-102424753D01*
X173860213Y-102453116D01*
X173874351Y-102483009D01*
X173885491Y-102514143D01*
X173893525Y-102546219D01*
X173898377Y-102578929D01*
X173900000Y-102611956D01*
X173900000Y-103488044D01*
X173898377Y-103521071D01*
X173893525Y-103553781D01*
X173885491Y-103585857D01*
X173874351Y-103616991D01*
X173860213Y-103646884D01*
X173843213Y-103675247D01*
X173823515Y-103701807D01*
X173801308Y-103726308D01*
X173776807Y-103748515D01*
X173750247Y-103768213D01*
X173721884Y-103785213D01*
X173691991Y-103799351D01*
X173660857Y-103810491D01*
X173628781Y-103818525D01*
X173596071Y-103823377D01*
X173563044Y-103825000D01*
X172436956Y-103825000D01*
X172403929Y-103823377D01*
X172371219Y-103818525D01*
X172339143Y-103810491D01*
X172308009Y-103799351D01*
X172278116Y-103785213D01*
X172249753Y-103768213D01*
X172223193Y-103748515D01*
X172198692Y-103726308D01*
X172176485Y-103701807D01*
X172156787Y-103675247D01*
X172139787Y-103646884D01*
X172125649Y-103616991D01*
X172114509Y-103585857D01*
X172106475Y-103553781D01*
X172101623Y-103521071D01*
X172100000Y-103488044D01*
X172100000Y-102611956D01*
X172101623Y-102578929D01*
X172106475Y-102546219D01*
X172114509Y-102514143D01*
X172125649Y-102483009D01*
X172139787Y-102453116D01*
X172156787Y-102424753D01*
X172176485Y-102398193D01*
X172198692Y-102373692D01*
X172223193Y-102351485D01*
X172249753Y-102331787D01*
X172278116Y-102314787D01*
X172308009Y-102300649D01*
X172339143Y-102289509D01*
X172371219Y-102281475D01*
X172403929Y-102276623D01*
X172436956Y-102275000D01*
X173563044Y-102275000D01*
X173596071Y-102276623D01*
X173596071Y-102276623D01*
G37*
D25*
X173000000Y-103050000D03*
G04 #@! TD*
D26*
G04 #@! TO.C,U1*
X124000000Y-105750000D03*
X124750000Y-105750000D03*
X125500000Y-105750000D03*
X126250000Y-105750000D03*
X127000000Y-105750000D03*
X127750000Y-105750000D03*
X127750000Y-107750000D03*
X127000000Y-107750000D03*
X126250000Y-107750000D03*
X125500000Y-107750000D03*
X124750000Y-107750000D03*
X124000000Y-107750000D03*
G04 #@! TD*
D27*
G04 #@! TO.C,U2*
X135550000Y-119550000D03*
X134600000Y-119550000D03*
X133650000Y-119550000D03*
X133650000Y-122250000D03*
X135550000Y-122250000D03*
X134600000Y-122250000D03*
G04 #@! TD*
D28*
G04 #@! TO.C,U3*
X149750000Y-72000000D03*
X149750000Y-72750000D03*
X149750000Y-73500000D03*
X149750000Y-74250000D03*
X149750000Y-75000000D03*
X149750000Y-75750000D03*
X147750000Y-75750000D03*
X147750000Y-75000000D03*
X147750000Y-74250000D03*
X147750000Y-73500000D03*
X147750000Y-72750000D03*
X147750000Y-72000000D03*
G04 #@! TD*
G04 #@! TO.C,U4*
X149750000Y-141250000D03*
X149750000Y-140500000D03*
X149750000Y-139750000D03*
X149750000Y-139000000D03*
X149750000Y-138250000D03*
X149750000Y-137500000D03*
X147750000Y-137500000D03*
X147750000Y-138250000D03*
X147750000Y-139000000D03*
X147750000Y-139750000D03*
X147750000Y-140500000D03*
X147750000Y-141250000D03*
G04 #@! TD*
D26*
G04 #@! TO.C,U5*
X173250000Y-105750000D03*
X172500000Y-105750000D03*
X171750000Y-105750000D03*
X171000000Y-105750000D03*
X170250000Y-105750000D03*
X169500000Y-105750000D03*
X169500000Y-107750000D03*
X170250000Y-107750000D03*
X171000000Y-107750000D03*
X171750000Y-107750000D03*
X172500000Y-107750000D03*
X173250000Y-107750000D03*
G04 #@! TD*
D29*
G04 #@! TO.C,U6*
X151500000Y-102400000D03*
X151000000Y-102400000D03*
X150500000Y-102400000D03*
X150000000Y-102400000D03*
X149500000Y-102400000D03*
X149000000Y-102400000D03*
X148500000Y-102400000D03*
X148000000Y-102400000D03*
X147500000Y-102400000D03*
X147000000Y-102400000D03*
X146500000Y-102400000D03*
X146000000Y-102400000D03*
D30*
X144400000Y-104000000D03*
X144400000Y-104500000D03*
X144400000Y-105000000D03*
X144400000Y-105500000D03*
X144400000Y-106000000D03*
X144400000Y-106500000D03*
X144400000Y-107000000D03*
X144400000Y-107500000D03*
X144400000Y-108000000D03*
X144400000Y-108500000D03*
X144400000Y-109000000D03*
X144400000Y-109500000D03*
D29*
X146000000Y-111100000D03*
X146500000Y-111100000D03*
X147000000Y-111100000D03*
X147500000Y-111100000D03*
X148000000Y-111100000D03*
X148500000Y-111100000D03*
X149000000Y-111100000D03*
X149500000Y-111100000D03*
X150000000Y-111100000D03*
X150500000Y-111100000D03*
X151000000Y-111100000D03*
X151500000Y-111100000D03*
D30*
X153100000Y-109500000D03*
X153100000Y-109000000D03*
X153100000Y-108500000D03*
X153100000Y-108000000D03*
X153100000Y-107500000D03*
X153100000Y-107000000D03*
X153100000Y-106500000D03*
X153100000Y-106000000D03*
X153100000Y-105500000D03*
X153100000Y-105000000D03*
X153100000Y-104500000D03*
X153100000Y-104000000D03*
G04 #@! TD*
D31*
G04 #@! TO.C,Y1*
X151680000Y-95600000D03*
X146800000Y-95600000D03*
G04 #@! TD*
D24*
G04 #@! TO.C,C15*
G36*
X142396071Y-109676623D02*
X142428781Y-109681475D01*
X142460857Y-109689509D01*
X142491991Y-109700649D01*
X142521884Y-109714787D01*
X142550247Y-109731787D01*
X142576807Y-109751485D01*
X142601308Y-109773692D01*
X142623515Y-109798193D01*
X142643213Y-109824753D01*
X142660213Y-109853116D01*
X142674351Y-109883009D01*
X142685491Y-109914143D01*
X142693525Y-109946219D01*
X142698377Y-109978929D01*
X142700000Y-110011956D01*
X142700000Y-110888044D01*
X142698377Y-110921071D01*
X142693525Y-110953781D01*
X142685491Y-110985857D01*
X142674351Y-111016991D01*
X142660213Y-111046884D01*
X142643213Y-111075247D01*
X142623515Y-111101807D01*
X142601308Y-111126308D01*
X142576807Y-111148515D01*
X142550247Y-111168213D01*
X142521884Y-111185213D01*
X142491991Y-111199351D01*
X142460857Y-111210491D01*
X142428781Y-111218525D01*
X142396071Y-111223377D01*
X142363044Y-111225000D01*
X141236956Y-111225000D01*
X141203929Y-111223377D01*
X141171219Y-111218525D01*
X141139143Y-111210491D01*
X141108009Y-111199351D01*
X141078116Y-111185213D01*
X141049753Y-111168213D01*
X141023193Y-111148515D01*
X140998692Y-111126308D01*
X140976485Y-111101807D01*
X140956787Y-111075247D01*
X140939787Y-111046884D01*
X140925649Y-111016991D01*
X140914509Y-110985857D01*
X140906475Y-110953781D01*
X140901623Y-110921071D01*
X140900000Y-110888044D01*
X140900000Y-110011956D01*
X140901623Y-109978929D01*
X140906475Y-109946219D01*
X140914509Y-109914143D01*
X140925649Y-109883009D01*
X140939787Y-109853116D01*
X140956787Y-109824753D01*
X140976485Y-109798193D01*
X140998692Y-109773692D01*
X141023193Y-109751485D01*
X141049753Y-109731787D01*
X141078116Y-109714787D01*
X141108009Y-109700649D01*
X141139143Y-109689509D01*
X141171219Y-109681475D01*
X141203929Y-109676623D01*
X141236956Y-109675000D01*
X142363044Y-109675000D01*
X142396071Y-109676623D01*
X142396071Y-109676623D01*
G37*
D25*
X141800000Y-110450000D03*
D24*
G36*
X142396071Y-107626623D02*
X142428781Y-107631475D01*
X142460857Y-107639509D01*
X142491991Y-107650649D01*
X142521884Y-107664787D01*
X142550247Y-107681787D01*
X142576807Y-107701485D01*
X142601308Y-107723692D01*
X142623515Y-107748193D01*
X142643213Y-107774753D01*
X142660213Y-107803116D01*
X142674351Y-107833009D01*
X142685491Y-107864143D01*
X142693525Y-107896219D01*
X142698377Y-107928929D01*
X142700000Y-107961956D01*
X142700000Y-108838044D01*
X142698377Y-108871071D01*
X142693525Y-108903781D01*
X142685491Y-108935857D01*
X142674351Y-108966991D01*
X142660213Y-108996884D01*
X142643213Y-109025247D01*
X142623515Y-109051807D01*
X142601308Y-109076308D01*
X142576807Y-109098515D01*
X142550247Y-109118213D01*
X142521884Y-109135213D01*
X142491991Y-109149351D01*
X142460857Y-109160491D01*
X142428781Y-109168525D01*
X142396071Y-109173377D01*
X142363044Y-109175000D01*
X141236956Y-109175000D01*
X141203929Y-109173377D01*
X141171219Y-109168525D01*
X141139143Y-109160491D01*
X141108009Y-109149351D01*
X141078116Y-109135213D01*
X141049753Y-109118213D01*
X141023193Y-109098515D01*
X140998692Y-109076308D01*
X140976485Y-109051807D01*
X140956787Y-109025247D01*
X140939787Y-108996884D01*
X140925649Y-108966991D01*
X140914509Y-108935857D01*
X140906475Y-108903781D01*
X140901623Y-108871071D01*
X140900000Y-108838044D01*
X140900000Y-107961956D01*
X140901623Y-107928929D01*
X140906475Y-107896219D01*
X140914509Y-107864143D01*
X140925649Y-107833009D01*
X140939787Y-107803116D01*
X140956787Y-107774753D01*
X140976485Y-107748193D01*
X140998692Y-107723692D01*
X141023193Y-107701485D01*
X141049753Y-107681787D01*
X141078116Y-107664787D01*
X141108009Y-107650649D01*
X141139143Y-107639509D01*
X141171219Y-107631475D01*
X141203929Y-107626623D01*
X141236956Y-107625000D01*
X142363044Y-107625000D01*
X142396071Y-107626623D01*
X142396071Y-107626623D01*
G37*
D25*
X141800000Y-108400000D03*
G04 #@! TD*
D24*
G04 #@! TO.C,C16*
G36*
X151571071Y-112639623D02*
X151603781Y-112644475D01*
X151635857Y-112652509D01*
X151666991Y-112663649D01*
X151696884Y-112677787D01*
X151725247Y-112694787D01*
X151751807Y-112714485D01*
X151776308Y-112736692D01*
X151798515Y-112761193D01*
X151818213Y-112787753D01*
X151835213Y-112816116D01*
X151849351Y-112846009D01*
X151860491Y-112877143D01*
X151868525Y-112909219D01*
X151873377Y-112941929D01*
X151875000Y-112974956D01*
X151875000Y-114101044D01*
X151873377Y-114134071D01*
X151868525Y-114166781D01*
X151860491Y-114198857D01*
X151849351Y-114229991D01*
X151835213Y-114259884D01*
X151818213Y-114288247D01*
X151798515Y-114314807D01*
X151776308Y-114339308D01*
X151751807Y-114361515D01*
X151725247Y-114381213D01*
X151696884Y-114398213D01*
X151666991Y-114412351D01*
X151635857Y-114423491D01*
X151603781Y-114431525D01*
X151571071Y-114436377D01*
X151538044Y-114438000D01*
X150661956Y-114438000D01*
X150628929Y-114436377D01*
X150596219Y-114431525D01*
X150564143Y-114423491D01*
X150533009Y-114412351D01*
X150503116Y-114398213D01*
X150474753Y-114381213D01*
X150448193Y-114361515D01*
X150423692Y-114339308D01*
X150401485Y-114314807D01*
X150381787Y-114288247D01*
X150364787Y-114259884D01*
X150350649Y-114229991D01*
X150339509Y-114198857D01*
X150331475Y-114166781D01*
X150326623Y-114134071D01*
X150325000Y-114101044D01*
X150325000Y-112974956D01*
X150326623Y-112941929D01*
X150331475Y-112909219D01*
X150339509Y-112877143D01*
X150350649Y-112846009D01*
X150364787Y-112816116D01*
X150381787Y-112787753D01*
X150401485Y-112761193D01*
X150423692Y-112736692D01*
X150448193Y-112714485D01*
X150474753Y-112694787D01*
X150503116Y-112677787D01*
X150533009Y-112663649D01*
X150564143Y-112652509D01*
X150596219Y-112644475D01*
X150628929Y-112639623D01*
X150661956Y-112638000D01*
X151538044Y-112638000D01*
X151571071Y-112639623D01*
X151571071Y-112639623D01*
G37*
D25*
X151100000Y-113538000D03*
D24*
G36*
X153621071Y-112639623D02*
X153653781Y-112644475D01*
X153685857Y-112652509D01*
X153716991Y-112663649D01*
X153746884Y-112677787D01*
X153775247Y-112694787D01*
X153801807Y-112714485D01*
X153826308Y-112736692D01*
X153848515Y-112761193D01*
X153868213Y-112787753D01*
X153885213Y-112816116D01*
X153899351Y-112846009D01*
X153910491Y-112877143D01*
X153918525Y-112909219D01*
X153923377Y-112941929D01*
X153925000Y-112974956D01*
X153925000Y-114101044D01*
X153923377Y-114134071D01*
X153918525Y-114166781D01*
X153910491Y-114198857D01*
X153899351Y-114229991D01*
X153885213Y-114259884D01*
X153868213Y-114288247D01*
X153848515Y-114314807D01*
X153826308Y-114339308D01*
X153801807Y-114361515D01*
X153775247Y-114381213D01*
X153746884Y-114398213D01*
X153716991Y-114412351D01*
X153685857Y-114423491D01*
X153653781Y-114431525D01*
X153621071Y-114436377D01*
X153588044Y-114438000D01*
X152711956Y-114438000D01*
X152678929Y-114436377D01*
X152646219Y-114431525D01*
X152614143Y-114423491D01*
X152583009Y-114412351D01*
X152553116Y-114398213D01*
X152524753Y-114381213D01*
X152498193Y-114361515D01*
X152473692Y-114339308D01*
X152451485Y-114314807D01*
X152431787Y-114288247D01*
X152414787Y-114259884D01*
X152400649Y-114229991D01*
X152389509Y-114198857D01*
X152381475Y-114166781D01*
X152376623Y-114134071D01*
X152375000Y-114101044D01*
X152375000Y-112974956D01*
X152376623Y-112941929D01*
X152381475Y-112909219D01*
X152389509Y-112877143D01*
X152400649Y-112846009D01*
X152414787Y-112816116D01*
X152431787Y-112787753D01*
X152451485Y-112761193D01*
X152473692Y-112736692D01*
X152498193Y-112714485D01*
X152524753Y-112694787D01*
X152553116Y-112677787D01*
X152583009Y-112663649D01*
X152614143Y-112652509D01*
X152646219Y-112644475D01*
X152678929Y-112639623D01*
X152711956Y-112638000D01*
X153588044Y-112638000D01*
X153621071Y-112639623D01*
X153621071Y-112639623D01*
G37*
D25*
X153150000Y-113538000D03*
G04 #@! TD*
D24*
G04 #@! TO.C,C17*
G36*
X156096071Y-101976623D02*
X156128781Y-101981475D01*
X156160857Y-101989509D01*
X156191991Y-102000649D01*
X156221884Y-102014787D01*
X156250247Y-102031787D01*
X156276807Y-102051485D01*
X156301308Y-102073692D01*
X156323515Y-102098193D01*
X156343213Y-102124753D01*
X156360213Y-102153116D01*
X156374351Y-102183009D01*
X156385491Y-102214143D01*
X156393525Y-102246219D01*
X156398377Y-102278929D01*
X156400000Y-102311956D01*
X156400000Y-103188044D01*
X156398377Y-103221071D01*
X156393525Y-103253781D01*
X156385491Y-103285857D01*
X156374351Y-103316991D01*
X156360213Y-103346884D01*
X156343213Y-103375247D01*
X156323515Y-103401807D01*
X156301308Y-103426308D01*
X156276807Y-103448515D01*
X156250247Y-103468213D01*
X156221884Y-103485213D01*
X156191991Y-103499351D01*
X156160857Y-103510491D01*
X156128781Y-103518525D01*
X156096071Y-103523377D01*
X156063044Y-103525000D01*
X154936956Y-103525000D01*
X154903929Y-103523377D01*
X154871219Y-103518525D01*
X154839143Y-103510491D01*
X154808009Y-103499351D01*
X154778116Y-103485213D01*
X154749753Y-103468213D01*
X154723193Y-103448515D01*
X154698692Y-103426308D01*
X154676485Y-103401807D01*
X154656787Y-103375247D01*
X154639787Y-103346884D01*
X154625649Y-103316991D01*
X154614509Y-103285857D01*
X154606475Y-103253781D01*
X154601623Y-103221071D01*
X154600000Y-103188044D01*
X154600000Y-102311956D01*
X154601623Y-102278929D01*
X154606475Y-102246219D01*
X154614509Y-102214143D01*
X154625649Y-102183009D01*
X154639787Y-102153116D01*
X154656787Y-102124753D01*
X154676485Y-102098193D01*
X154698692Y-102073692D01*
X154723193Y-102051485D01*
X154749753Y-102031787D01*
X154778116Y-102014787D01*
X154808009Y-102000649D01*
X154839143Y-101989509D01*
X154871219Y-101981475D01*
X154903929Y-101976623D01*
X154936956Y-101975000D01*
X156063044Y-101975000D01*
X156096071Y-101976623D01*
X156096071Y-101976623D01*
G37*
D25*
X155500000Y-102750000D03*
D24*
G36*
X156096071Y-104026623D02*
X156128781Y-104031475D01*
X156160857Y-104039509D01*
X156191991Y-104050649D01*
X156221884Y-104064787D01*
X156250247Y-104081787D01*
X156276807Y-104101485D01*
X156301308Y-104123692D01*
X156323515Y-104148193D01*
X156343213Y-104174753D01*
X156360213Y-104203116D01*
X156374351Y-104233009D01*
X156385491Y-104264143D01*
X156393525Y-104296219D01*
X156398377Y-104328929D01*
X156400000Y-104361956D01*
X156400000Y-105238044D01*
X156398377Y-105271071D01*
X156393525Y-105303781D01*
X156385491Y-105335857D01*
X156374351Y-105366991D01*
X156360213Y-105396884D01*
X156343213Y-105425247D01*
X156323515Y-105451807D01*
X156301308Y-105476308D01*
X156276807Y-105498515D01*
X156250247Y-105518213D01*
X156221884Y-105535213D01*
X156191991Y-105549351D01*
X156160857Y-105560491D01*
X156128781Y-105568525D01*
X156096071Y-105573377D01*
X156063044Y-105575000D01*
X154936956Y-105575000D01*
X154903929Y-105573377D01*
X154871219Y-105568525D01*
X154839143Y-105560491D01*
X154808009Y-105549351D01*
X154778116Y-105535213D01*
X154749753Y-105518213D01*
X154723193Y-105498515D01*
X154698692Y-105476308D01*
X154676485Y-105451807D01*
X154656787Y-105425247D01*
X154639787Y-105396884D01*
X154625649Y-105366991D01*
X154614509Y-105335857D01*
X154606475Y-105303781D01*
X154601623Y-105271071D01*
X154600000Y-105238044D01*
X154600000Y-104361956D01*
X154601623Y-104328929D01*
X154606475Y-104296219D01*
X154614509Y-104264143D01*
X154625649Y-104233009D01*
X154639787Y-104203116D01*
X154656787Y-104174753D01*
X154676485Y-104148193D01*
X154698692Y-104123692D01*
X154723193Y-104101485D01*
X154749753Y-104081787D01*
X154778116Y-104064787D01*
X154808009Y-104050649D01*
X154839143Y-104039509D01*
X154871219Y-104031475D01*
X154903929Y-104026623D01*
X154936956Y-104025000D01*
X156063044Y-104025000D01*
X156096071Y-104026623D01*
X156096071Y-104026623D01*
G37*
D25*
X155500000Y-104800000D03*
G04 #@! TD*
D24*
G04 #@! TO.C,C18*
G36*
X148321071Y-98601623D02*
X148353781Y-98606475D01*
X148385857Y-98614509D01*
X148416991Y-98625649D01*
X148446884Y-98639787D01*
X148475247Y-98656787D01*
X148501807Y-98676485D01*
X148526308Y-98698692D01*
X148548515Y-98723193D01*
X148568213Y-98749753D01*
X148585213Y-98778116D01*
X148599351Y-98808009D01*
X148610491Y-98839143D01*
X148618525Y-98871219D01*
X148623377Y-98903929D01*
X148625000Y-98936956D01*
X148625000Y-100063044D01*
X148623377Y-100096071D01*
X148618525Y-100128781D01*
X148610491Y-100160857D01*
X148599351Y-100191991D01*
X148585213Y-100221884D01*
X148568213Y-100250247D01*
X148548515Y-100276807D01*
X148526308Y-100301308D01*
X148501807Y-100323515D01*
X148475247Y-100343213D01*
X148446884Y-100360213D01*
X148416991Y-100374351D01*
X148385857Y-100385491D01*
X148353781Y-100393525D01*
X148321071Y-100398377D01*
X148288044Y-100400000D01*
X147411956Y-100400000D01*
X147378929Y-100398377D01*
X147346219Y-100393525D01*
X147314143Y-100385491D01*
X147283009Y-100374351D01*
X147253116Y-100360213D01*
X147224753Y-100343213D01*
X147198193Y-100323515D01*
X147173692Y-100301308D01*
X147151485Y-100276807D01*
X147131787Y-100250247D01*
X147114787Y-100221884D01*
X147100649Y-100191991D01*
X147089509Y-100160857D01*
X147081475Y-100128781D01*
X147076623Y-100096071D01*
X147075000Y-100063044D01*
X147075000Y-98936956D01*
X147076623Y-98903929D01*
X147081475Y-98871219D01*
X147089509Y-98839143D01*
X147100649Y-98808009D01*
X147114787Y-98778116D01*
X147131787Y-98749753D01*
X147151485Y-98723193D01*
X147173692Y-98698692D01*
X147198193Y-98676485D01*
X147224753Y-98656787D01*
X147253116Y-98639787D01*
X147283009Y-98625649D01*
X147314143Y-98614509D01*
X147346219Y-98606475D01*
X147378929Y-98601623D01*
X147411956Y-98600000D01*
X148288044Y-98600000D01*
X148321071Y-98601623D01*
X148321071Y-98601623D01*
G37*
D25*
X147850000Y-99500000D03*
D24*
G36*
X146271071Y-98601623D02*
X146303781Y-98606475D01*
X146335857Y-98614509D01*
X146366991Y-98625649D01*
X146396884Y-98639787D01*
X146425247Y-98656787D01*
X146451807Y-98676485D01*
X146476308Y-98698692D01*
X146498515Y-98723193D01*
X146518213Y-98749753D01*
X146535213Y-98778116D01*
X146549351Y-98808009D01*
X146560491Y-98839143D01*
X146568525Y-98871219D01*
X146573377Y-98903929D01*
X146575000Y-98936956D01*
X146575000Y-100063044D01*
X146573377Y-100096071D01*
X146568525Y-100128781D01*
X146560491Y-100160857D01*
X146549351Y-100191991D01*
X146535213Y-100221884D01*
X146518213Y-100250247D01*
X146498515Y-100276807D01*
X146476308Y-100301308D01*
X146451807Y-100323515D01*
X146425247Y-100343213D01*
X146396884Y-100360213D01*
X146366991Y-100374351D01*
X146335857Y-100385491D01*
X146303781Y-100393525D01*
X146271071Y-100398377D01*
X146238044Y-100400000D01*
X145361956Y-100400000D01*
X145328929Y-100398377D01*
X145296219Y-100393525D01*
X145264143Y-100385491D01*
X145233009Y-100374351D01*
X145203116Y-100360213D01*
X145174753Y-100343213D01*
X145148193Y-100323515D01*
X145123692Y-100301308D01*
X145101485Y-100276807D01*
X145081787Y-100250247D01*
X145064787Y-100221884D01*
X145050649Y-100191991D01*
X145039509Y-100160857D01*
X145031475Y-100128781D01*
X145026623Y-100096071D01*
X145025000Y-100063044D01*
X145025000Y-98936956D01*
X145026623Y-98903929D01*
X145031475Y-98871219D01*
X145039509Y-98839143D01*
X145050649Y-98808009D01*
X145064787Y-98778116D01*
X145081787Y-98749753D01*
X145101485Y-98723193D01*
X145123692Y-98698692D01*
X145148193Y-98676485D01*
X145174753Y-98656787D01*
X145203116Y-98639787D01*
X145233009Y-98625649D01*
X145264143Y-98614509D01*
X145296219Y-98606475D01*
X145328929Y-98601623D01*
X145361956Y-98600000D01*
X146238044Y-98600000D01*
X146271071Y-98601623D01*
X146271071Y-98601623D01*
G37*
D25*
X145800000Y-99500000D03*
G04 #@! TD*
D24*
G04 #@! TO.C,D1*
G36*
X150045581Y-77326625D02*
X150078343Y-77331485D01*
X150110471Y-77339533D01*
X150141656Y-77350691D01*
X150171596Y-77364852D01*
X150200005Y-77381879D01*
X150226608Y-77401609D01*
X150251149Y-77423851D01*
X150273391Y-77448392D01*
X150293121Y-77474995D01*
X150310148Y-77503404D01*
X150324309Y-77533344D01*
X150335467Y-77564529D01*
X150343515Y-77596657D01*
X150348375Y-77629419D01*
X150350000Y-77662500D01*
X150350000Y-78337500D01*
X150348375Y-78370581D01*
X150343515Y-78403343D01*
X150335467Y-78435471D01*
X150324309Y-78466656D01*
X150310148Y-78496596D01*
X150293121Y-78525005D01*
X150273391Y-78551608D01*
X150251149Y-78576149D01*
X150226608Y-78598391D01*
X150200005Y-78618121D01*
X150171596Y-78635148D01*
X150141656Y-78649309D01*
X150110471Y-78660467D01*
X150078343Y-78668515D01*
X150045581Y-78673375D01*
X150012500Y-78675000D01*
X149237500Y-78675000D01*
X149204419Y-78673375D01*
X149171657Y-78668515D01*
X149139529Y-78660467D01*
X149108344Y-78649309D01*
X149078404Y-78635148D01*
X149049995Y-78618121D01*
X149023392Y-78598391D01*
X148998851Y-78576149D01*
X148976609Y-78551608D01*
X148956879Y-78525005D01*
X148939852Y-78496596D01*
X148925691Y-78466656D01*
X148914533Y-78435471D01*
X148906485Y-78403343D01*
X148901625Y-78370581D01*
X148900000Y-78337500D01*
X148900000Y-77662500D01*
X148901625Y-77629419D01*
X148906485Y-77596657D01*
X148914533Y-77564529D01*
X148925691Y-77533344D01*
X148939852Y-77503404D01*
X148956879Y-77474995D01*
X148976609Y-77448392D01*
X148998851Y-77423851D01*
X149023392Y-77401609D01*
X149049995Y-77381879D01*
X149078404Y-77364852D01*
X149108344Y-77350691D01*
X149139529Y-77339533D01*
X149171657Y-77331485D01*
X149204419Y-77326625D01*
X149237500Y-77325000D01*
X150012500Y-77325000D01*
X150045581Y-77326625D01*
X150045581Y-77326625D01*
G37*
D32*
X149625000Y-78000000D03*
D24*
G36*
X148295581Y-77326625D02*
X148328343Y-77331485D01*
X148360471Y-77339533D01*
X148391656Y-77350691D01*
X148421596Y-77364852D01*
X148450005Y-77381879D01*
X148476608Y-77401609D01*
X148501149Y-77423851D01*
X148523391Y-77448392D01*
X148543121Y-77474995D01*
X148560148Y-77503404D01*
X148574309Y-77533344D01*
X148585467Y-77564529D01*
X148593515Y-77596657D01*
X148598375Y-77629419D01*
X148600000Y-77662500D01*
X148600000Y-78337500D01*
X148598375Y-78370581D01*
X148593515Y-78403343D01*
X148585467Y-78435471D01*
X148574309Y-78466656D01*
X148560148Y-78496596D01*
X148543121Y-78525005D01*
X148523391Y-78551608D01*
X148501149Y-78576149D01*
X148476608Y-78598391D01*
X148450005Y-78618121D01*
X148421596Y-78635148D01*
X148391656Y-78649309D01*
X148360471Y-78660467D01*
X148328343Y-78668515D01*
X148295581Y-78673375D01*
X148262500Y-78675000D01*
X147487500Y-78675000D01*
X147454419Y-78673375D01*
X147421657Y-78668515D01*
X147389529Y-78660467D01*
X147358344Y-78649309D01*
X147328404Y-78635148D01*
X147299995Y-78618121D01*
X147273392Y-78598391D01*
X147248851Y-78576149D01*
X147226609Y-78551608D01*
X147206879Y-78525005D01*
X147189852Y-78496596D01*
X147175691Y-78466656D01*
X147164533Y-78435471D01*
X147156485Y-78403343D01*
X147151625Y-78370581D01*
X147150000Y-78337500D01*
X147150000Y-77662500D01*
X147151625Y-77629419D01*
X147156485Y-77596657D01*
X147164533Y-77564529D01*
X147175691Y-77533344D01*
X147189852Y-77503404D01*
X147206879Y-77474995D01*
X147226609Y-77448392D01*
X147248851Y-77423851D01*
X147273392Y-77401609D01*
X147299995Y-77381879D01*
X147328404Y-77364852D01*
X147358344Y-77350691D01*
X147389529Y-77339533D01*
X147421657Y-77331485D01*
X147454419Y-77326625D01*
X147487500Y-77325000D01*
X148262500Y-77325000D01*
X148295581Y-77326625D01*
X148295581Y-77326625D01*
G37*
D32*
X147875000Y-78000000D03*
G04 #@! TD*
D24*
G04 #@! TO.C,D2*
G36*
X130370581Y-106901625D02*
X130403343Y-106906485D01*
X130435471Y-106914533D01*
X130466656Y-106925691D01*
X130496596Y-106939852D01*
X130525005Y-106956879D01*
X130551608Y-106976609D01*
X130576149Y-106998851D01*
X130598391Y-107023392D01*
X130618121Y-107049995D01*
X130635148Y-107078404D01*
X130649309Y-107108344D01*
X130660467Y-107139529D01*
X130668515Y-107171657D01*
X130673375Y-107204419D01*
X130675000Y-107237500D01*
X130675000Y-108012500D01*
X130673375Y-108045581D01*
X130668515Y-108078343D01*
X130660467Y-108110471D01*
X130649309Y-108141656D01*
X130635148Y-108171596D01*
X130618121Y-108200005D01*
X130598391Y-108226608D01*
X130576149Y-108251149D01*
X130551608Y-108273391D01*
X130525005Y-108293121D01*
X130496596Y-108310148D01*
X130466656Y-108324309D01*
X130435471Y-108335467D01*
X130403343Y-108343515D01*
X130370581Y-108348375D01*
X130337500Y-108350000D01*
X129662500Y-108350000D01*
X129629419Y-108348375D01*
X129596657Y-108343515D01*
X129564529Y-108335467D01*
X129533344Y-108324309D01*
X129503404Y-108310148D01*
X129474995Y-108293121D01*
X129448392Y-108273391D01*
X129423851Y-108251149D01*
X129401609Y-108226608D01*
X129381879Y-108200005D01*
X129364852Y-108171596D01*
X129350691Y-108141656D01*
X129339533Y-108110471D01*
X129331485Y-108078343D01*
X129326625Y-108045581D01*
X129325000Y-108012500D01*
X129325000Y-107237500D01*
X129326625Y-107204419D01*
X129331485Y-107171657D01*
X129339533Y-107139529D01*
X129350691Y-107108344D01*
X129364852Y-107078404D01*
X129381879Y-107049995D01*
X129401609Y-107023392D01*
X129423851Y-106998851D01*
X129448392Y-106976609D01*
X129474995Y-106956879D01*
X129503404Y-106939852D01*
X129533344Y-106925691D01*
X129564529Y-106914533D01*
X129596657Y-106906485D01*
X129629419Y-106901625D01*
X129662500Y-106900000D01*
X130337500Y-106900000D01*
X130370581Y-106901625D01*
X130370581Y-106901625D01*
G37*
D32*
X130000000Y-107625000D03*
D24*
G36*
X130370581Y-105151625D02*
X130403343Y-105156485D01*
X130435471Y-105164533D01*
X130466656Y-105175691D01*
X130496596Y-105189852D01*
X130525005Y-105206879D01*
X130551608Y-105226609D01*
X130576149Y-105248851D01*
X130598391Y-105273392D01*
X130618121Y-105299995D01*
X130635148Y-105328404D01*
X130649309Y-105358344D01*
X130660467Y-105389529D01*
X130668515Y-105421657D01*
X130673375Y-105454419D01*
X130675000Y-105487500D01*
X130675000Y-106262500D01*
X130673375Y-106295581D01*
X130668515Y-106328343D01*
X130660467Y-106360471D01*
X130649309Y-106391656D01*
X130635148Y-106421596D01*
X130618121Y-106450005D01*
X130598391Y-106476608D01*
X130576149Y-106501149D01*
X130551608Y-106523391D01*
X130525005Y-106543121D01*
X130496596Y-106560148D01*
X130466656Y-106574309D01*
X130435471Y-106585467D01*
X130403343Y-106593515D01*
X130370581Y-106598375D01*
X130337500Y-106600000D01*
X129662500Y-106600000D01*
X129629419Y-106598375D01*
X129596657Y-106593515D01*
X129564529Y-106585467D01*
X129533344Y-106574309D01*
X129503404Y-106560148D01*
X129474995Y-106543121D01*
X129448392Y-106523391D01*
X129423851Y-106501149D01*
X129401609Y-106476608D01*
X129381879Y-106450005D01*
X129364852Y-106421596D01*
X129350691Y-106391656D01*
X129339533Y-106360471D01*
X129331485Y-106328343D01*
X129326625Y-106295581D01*
X129325000Y-106262500D01*
X129325000Y-105487500D01*
X129326625Y-105454419D01*
X129331485Y-105421657D01*
X129339533Y-105389529D01*
X129350691Y-105358344D01*
X129364852Y-105328404D01*
X129381879Y-105299995D01*
X129401609Y-105273392D01*
X129423851Y-105248851D01*
X129448392Y-105226609D01*
X129474995Y-105206879D01*
X129503404Y-105189852D01*
X129533344Y-105175691D01*
X129564529Y-105164533D01*
X129596657Y-105156485D01*
X129629419Y-105151625D01*
X129662500Y-105150000D01*
X130337500Y-105150000D01*
X130370581Y-105151625D01*
X130370581Y-105151625D01*
G37*
D32*
X130000000Y-105875000D03*
G04 #@! TD*
D24*
G04 #@! TO.C,D3*
G36*
X167620581Y-106901625D02*
X167653343Y-106906485D01*
X167685471Y-106914533D01*
X167716656Y-106925691D01*
X167746596Y-106939852D01*
X167775005Y-106956879D01*
X167801608Y-106976609D01*
X167826149Y-106998851D01*
X167848391Y-107023392D01*
X167868121Y-107049995D01*
X167885148Y-107078404D01*
X167899309Y-107108344D01*
X167910467Y-107139529D01*
X167918515Y-107171657D01*
X167923375Y-107204419D01*
X167925000Y-107237500D01*
X167925000Y-108012500D01*
X167923375Y-108045581D01*
X167918515Y-108078343D01*
X167910467Y-108110471D01*
X167899309Y-108141656D01*
X167885148Y-108171596D01*
X167868121Y-108200005D01*
X167848391Y-108226608D01*
X167826149Y-108251149D01*
X167801608Y-108273391D01*
X167775005Y-108293121D01*
X167746596Y-108310148D01*
X167716656Y-108324309D01*
X167685471Y-108335467D01*
X167653343Y-108343515D01*
X167620581Y-108348375D01*
X167587500Y-108350000D01*
X166912500Y-108350000D01*
X166879419Y-108348375D01*
X166846657Y-108343515D01*
X166814529Y-108335467D01*
X166783344Y-108324309D01*
X166753404Y-108310148D01*
X166724995Y-108293121D01*
X166698392Y-108273391D01*
X166673851Y-108251149D01*
X166651609Y-108226608D01*
X166631879Y-108200005D01*
X166614852Y-108171596D01*
X166600691Y-108141656D01*
X166589533Y-108110471D01*
X166581485Y-108078343D01*
X166576625Y-108045581D01*
X166575000Y-108012500D01*
X166575000Y-107237500D01*
X166576625Y-107204419D01*
X166581485Y-107171657D01*
X166589533Y-107139529D01*
X166600691Y-107108344D01*
X166614852Y-107078404D01*
X166631879Y-107049995D01*
X166651609Y-107023392D01*
X166673851Y-106998851D01*
X166698392Y-106976609D01*
X166724995Y-106956879D01*
X166753404Y-106939852D01*
X166783344Y-106925691D01*
X166814529Y-106914533D01*
X166846657Y-106906485D01*
X166879419Y-106901625D01*
X166912500Y-106900000D01*
X167587500Y-106900000D01*
X167620581Y-106901625D01*
X167620581Y-106901625D01*
G37*
D32*
X167250000Y-107625000D03*
D24*
G36*
X167620581Y-105151625D02*
X167653343Y-105156485D01*
X167685471Y-105164533D01*
X167716656Y-105175691D01*
X167746596Y-105189852D01*
X167775005Y-105206879D01*
X167801608Y-105226609D01*
X167826149Y-105248851D01*
X167848391Y-105273392D01*
X167868121Y-105299995D01*
X167885148Y-105328404D01*
X167899309Y-105358344D01*
X167910467Y-105389529D01*
X167918515Y-105421657D01*
X167923375Y-105454419D01*
X167925000Y-105487500D01*
X167925000Y-106262500D01*
X167923375Y-106295581D01*
X167918515Y-106328343D01*
X167910467Y-106360471D01*
X167899309Y-106391656D01*
X167885148Y-106421596D01*
X167868121Y-106450005D01*
X167848391Y-106476608D01*
X167826149Y-106501149D01*
X167801608Y-106523391D01*
X167775005Y-106543121D01*
X167746596Y-106560148D01*
X167716656Y-106574309D01*
X167685471Y-106585467D01*
X167653343Y-106593515D01*
X167620581Y-106598375D01*
X167587500Y-106600000D01*
X166912500Y-106600000D01*
X166879419Y-106598375D01*
X166846657Y-106593515D01*
X166814529Y-106585467D01*
X166783344Y-106574309D01*
X166753404Y-106560148D01*
X166724995Y-106543121D01*
X166698392Y-106523391D01*
X166673851Y-106501149D01*
X166651609Y-106476608D01*
X166631879Y-106450005D01*
X166614852Y-106421596D01*
X166600691Y-106391656D01*
X166589533Y-106360471D01*
X166581485Y-106328343D01*
X166576625Y-106295581D01*
X166575000Y-106262500D01*
X166575000Y-105487500D01*
X166576625Y-105454419D01*
X166581485Y-105421657D01*
X166589533Y-105389529D01*
X166600691Y-105358344D01*
X166614852Y-105328404D01*
X166631879Y-105299995D01*
X166651609Y-105273392D01*
X166673851Y-105248851D01*
X166698392Y-105226609D01*
X166724995Y-105206879D01*
X166753404Y-105189852D01*
X166783344Y-105175691D01*
X166814529Y-105164533D01*
X166846657Y-105156485D01*
X166879419Y-105151625D01*
X166912500Y-105150000D01*
X167587500Y-105150000D01*
X167620581Y-105151625D01*
X167620581Y-105151625D01*
G37*
D32*
X167250000Y-105875000D03*
G04 #@! TD*
D24*
G04 #@! TO.C,D4*
G36*
X150045581Y-134576625D02*
X150078343Y-134581485D01*
X150110471Y-134589533D01*
X150141656Y-134600691D01*
X150171596Y-134614852D01*
X150200005Y-134631879D01*
X150226608Y-134651609D01*
X150251149Y-134673851D01*
X150273391Y-134698392D01*
X150293121Y-134724995D01*
X150310148Y-134753404D01*
X150324309Y-134783344D01*
X150335467Y-134814529D01*
X150343515Y-134846657D01*
X150348375Y-134879419D01*
X150350000Y-134912500D01*
X150350000Y-135587500D01*
X150348375Y-135620581D01*
X150343515Y-135653343D01*
X150335467Y-135685471D01*
X150324309Y-135716656D01*
X150310148Y-135746596D01*
X150293121Y-135775005D01*
X150273391Y-135801608D01*
X150251149Y-135826149D01*
X150226608Y-135848391D01*
X150200005Y-135868121D01*
X150171596Y-135885148D01*
X150141656Y-135899309D01*
X150110471Y-135910467D01*
X150078343Y-135918515D01*
X150045581Y-135923375D01*
X150012500Y-135925000D01*
X149237500Y-135925000D01*
X149204419Y-135923375D01*
X149171657Y-135918515D01*
X149139529Y-135910467D01*
X149108344Y-135899309D01*
X149078404Y-135885148D01*
X149049995Y-135868121D01*
X149023392Y-135848391D01*
X148998851Y-135826149D01*
X148976609Y-135801608D01*
X148956879Y-135775005D01*
X148939852Y-135746596D01*
X148925691Y-135716656D01*
X148914533Y-135685471D01*
X148906485Y-135653343D01*
X148901625Y-135620581D01*
X148900000Y-135587500D01*
X148900000Y-134912500D01*
X148901625Y-134879419D01*
X148906485Y-134846657D01*
X148914533Y-134814529D01*
X148925691Y-134783344D01*
X148939852Y-134753404D01*
X148956879Y-134724995D01*
X148976609Y-134698392D01*
X148998851Y-134673851D01*
X149023392Y-134651609D01*
X149049995Y-134631879D01*
X149078404Y-134614852D01*
X149108344Y-134600691D01*
X149139529Y-134589533D01*
X149171657Y-134581485D01*
X149204419Y-134576625D01*
X149237500Y-134575000D01*
X150012500Y-134575000D01*
X150045581Y-134576625D01*
X150045581Y-134576625D01*
G37*
D32*
X149625000Y-135250000D03*
D24*
G36*
X148295581Y-134576625D02*
X148328343Y-134581485D01*
X148360471Y-134589533D01*
X148391656Y-134600691D01*
X148421596Y-134614852D01*
X148450005Y-134631879D01*
X148476608Y-134651609D01*
X148501149Y-134673851D01*
X148523391Y-134698392D01*
X148543121Y-134724995D01*
X148560148Y-134753404D01*
X148574309Y-134783344D01*
X148585467Y-134814529D01*
X148593515Y-134846657D01*
X148598375Y-134879419D01*
X148600000Y-134912500D01*
X148600000Y-135587500D01*
X148598375Y-135620581D01*
X148593515Y-135653343D01*
X148585467Y-135685471D01*
X148574309Y-135716656D01*
X148560148Y-135746596D01*
X148543121Y-135775005D01*
X148523391Y-135801608D01*
X148501149Y-135826149D01*
X148476608Y-135848391D01*
X148450005Y-135868121D01*
X148421596Y-135885148D01*
X148391656Y-135899309D01*
X148360471Y-135910467D01*
X148328343Y-135918515D01*
X148295581Y-135923375D01*
X148262500Y-135925000D01*
X147487500Y-135925000D01*
X147454419Y-135923375D01*
X147421657Y-135918515D01*
X147389529Y-135910467D01*
X147358344Y-135899309D01*
X147328404Y-135885148D01*
X147299995Y-135868121D01*
X147273392Y-135848391D01*
X147248851Y-135826149D01*
X147226609Y-135801608D01*
X147206879Y-135775005D01*
X147189852Y-135746596D01*
X147175691Y-135716656D01*
X147164533Y-135685471D01*
X147156485Y-135653343D01*
X147151625Y-135620581D01*
X147150000Y-135587500D01*
X147150000Y-134912500D01*
X147151625Y-134879419D01*
X147156485Y-134846657D01*
X147164533Y-134814529D01*
X147175691Y-134783344D01*
X147189852Y-134753404D01*
X147206879Y-134724995D01*
X147226609Y-134698392D01*
X147248851Y-134673851D01*
X147273392Y-134651609D01*
X147299995Y-134631879D01*
X147328404Y-134614852D01*
X147358344Y-134600691D01*
X147389529Y-134589533D01*
X147421657Y-134581485D01*
X147454419Y-134576625D01*
X147487500Y-134575000D01*
X148262500Y-134575000D01*
X148295581Y-134576625D01*
X148295581Y-134576625D01*
G37*
D32*
X147875000Y-135250000D03*
G04 #@! TD*
D33*
G04 #@! TO.C,REF\002A\002A*
X126000000Y-74000000D03*
G04 #@! TD*
G04 #@! TO.C,REF\002A\002A*
X171000000Y-74000000D03*
G04 #@! TD*
G04 #@! TO.C,REF\002A\002A*
X171000000Y-139500000D03*
G04 #@! TD*
G04 #@! TO.C,REF\002A\002A*
X126000000Y-139500000D03*
G04 #@! TD*
M02*
