G04 #@! TF.GenerationSoftware,KiCad,Pcbnew,5.0.0-fee4fd1~66~ubuntu16.04.1*
G04 #@! TF.CreationDate,2019-03-05T11:42:27-05:00*
G04 #@! TF.ProjectId,quadrant,7175616472616E742E6B696361645F70,rev?*
G04 #@! TF.SameCoordinates,Original*
G04 #@! TF.FileFunction,Paste,Top*
G04 #@! TF.FilePolarity,Positive*
%FSLAX46Y46*%
G04 Gerber Fmt 4.6, Leading zero omitted, Abs format (unit mm)*
G04 Created by KiCad (PCBNEW 5.0.0-fee4fd1~66~ubuntu16.04.1) date Tue Mar  5 11:42:27 2019*
%MOMM*%
%LPD*%
G01*
G04 APERTURE LIST*
%ADD10R,2.500000X1.430000*%
%ADD11R,1.650000X0.400000*%
%ADD12R,1.500000X2.000000*%
%ADD13R,0.700000X1.825000*%
%ADD14R,2.000000X1.350000*%
%ADD15C,0.100000*%
%ADD16C,1.150000*%
%ADD17R,0.550000X0.600000*%
%ADD18R,0.650000X1.560000*%
%ADD19R,0.600000X0.550000*%
%ADD20R,0.250000X1.300000*%
%ADD21R,1.300000X0.250000*%
%ADD22C,0.950000*%
G04 APERTURE END LIST*
D10*
G04 #@! TO.C,J2*
X124345000Y-126111000D03*
X124345000Y-124191000D03*
D11*
X127495000Y-126451000D03*
X127495000Y-125801000D03*
X127495000Y-125151000D03*
X127495000Y-124501000D03*
X127495000Y-123851000D03*
D12*
X127615000Y-128051000D03*
X127595000Y-122301000D03*
D13*
X126295000Y-128151000D03*
X126295000Y-122201000D03*
D14*
X125545000Y-122421000D03*
X125545000Y-127901000D03*
G04 #@! TD*
D15*
G04 #@! TO.C,C1*
G36*
X131574505Y-116926204D02*
X131598773Y-116929804D01*
X131622572Y-116935765D01*
X131645671Y-116944030D01*
X131667850Y-116954520D01*
X131688893Y-116967132D01*
X131708599Y-116981747D01*
X131726777Y-116998223D01*
X131743253Y-117016401D01*
X131757868Y-117036107D01*
X131770480Y-117057150D01*
X131780970Y-117079329D01*
X131789235Y-117102428D01*
X131795196Y-117126227D01*
X131798796Y-117150495D01*
X131800000Y-117174999D01*
X131800000Y-117825001D01*
X131798796Y-117849505D01*
X131795196Y-117873773D01*
X131789235Y-117897572D01*
X131780970Y-117920671D01*
X131770480Y-117942850D01*
X131757868Y-117963893D01*
X131743253Y-117983599D01*
X131726777Y-118001777D01*
X131708599Y-118018253D01*
X131688893Y-118032868D01*
X131667850Y-118045480D01*
X131645671Y-118055970D01*
X131622572Y-118064235D01*
X131598773Y-118070196D01*
X131574505Y-118073796D01*
X131550001Y-118075000D01*
X130649999Y-118075000D01*
X130625495Y-118073796D01*
X130601227Y-118070196D01*
X130577428Y-118064235D01*
X130554329Y-118055970D01*
X130532150Y-118045480D01*
X130511107Y-118032868D01*
X130491401Y-118018253D01*
X130473223Y-118001777D01*
X130456747Y-117983599D01*
X130442132Y-117963893D01*
X130429520Y-117942850D01*
X130419030Y-117920671D01*
X130410765Y-117897572D01*
X130404804Y-117873773D01*
X130401204Y-117849505D01*
X130400000Y-117825001D01*
X130400000Y-117174999D01*
X130401204Y-117150495D01*
X130404804Y-117126227D01*
X130410765Y-117102428D01*
X130419030Y-117079329D01*
X130429520Y-117057150D01*
X130442132Y-117036107D01*
X130456747Y-117016401D01*
X130473223Y-116998223D01*
X130491401Y-116981747D01*
X130511107Y-116967132D01*
X130532150Y-116954520D01*
X130554329Y-116944030D01*
X130577428Y-116935765D01*
X130601227Y-116929804D01*
X130625495Y-116926204D01*
X130649999Y-116925000D01*
X131550001Y-116925000D01*
X131574505Y-116926204D01*
X131574505Y-116926204D01*
G37*
D16*
X131100000Y-117500000D03*
D15*
G36*
X131574505Y-118976204D02*
X131598773Y-118979804D01*
X131622572Y-118985765D01*
X131645671Y-118994030D01*
X131667850Y-119004520D01*
X131688893Y-119017132D01*
X131708599Y-119031747D01*
X131726777Y-119048223D01*
X131743253Y-119066401D01*
X131757868Y-119086107D01*
X131770480Y-119107150D01*
X131780970Y-119129329D01*
X131789235Y-119152428D01*
X131795196Y-119176227D01*
X131798796Y-119200495D01*
X131800000Y-119224999D01*
X131800000Y-119875001D01*
X131798796Y-119899505D01*
X131795196Y-119923773D01*
X131789235Y-119947572D01*
X131780970Y-119970671D01*
X131770480Y-119992850D01*
X131757868Y-120013893D01*
X131743253Y-120033599D01*
X131726777Y-120051777D01*
X131708599Y-120068253D01*
X131688893Y-120082868D01*
X131667850Y-120095480D01*
X131645671Y-120105970D01*
X131622572Y-120114235D01*
X131598773Y-120120196D01*
X131574505Y-120123796D01*
X131550001Y-120125000D01*
X130649999Y-120125000D01*
X130625495Y-120123796D01*
X130601227Y-120120196D01*
X130577428Y-120114235D01*
X130554329Y-120105970D01*
X130532150Y-120095480D01*
X130511107Y-120082868D01*
X130491401Y-120068253D01*
X130473223Y-120051777D01*
X130456747Y-120033599D01*
X130442132Y-120013893D01*
X130429520Y-119992850D01*
X130419030Y-119970671D01*
X130410765Y-119947572D01*
X130404804Y-119923773D01*
X130401204Y-119899505D01*
X130400000Y-119875001D01*
X130400000Y-119224999D01*
X130401204Y-119200495D01*
X130404804Y-119176227D01*
X130410765Y-119152428D01*
X130419030Y-119129329D01*
X130429520Y-119107150D01*
X130442132Y-119086107D01*
X130456747Y-119066401D01*
X130473223Y-119048223D01*
X130491401Y-119031747D01*
X130511107Y-119017132D01*
X130532150Y-119004520D01*
X130554329Y-118994030D01*
X130577428Y-118985765D01*
X130601227Y-118979804D01*
X130625495Y-118976204D01*
X130649999Y-118975000D01*
X131550001Y-118975000D01*
X131574505Y-118976204D01*
X131574505Y-118976204D01*
G37*
D16*
X131100000Y-119550000D03*
G04 #@! TD*
D15*
G04 #@! TO.C,C2*
G36*
X126474505Y-100876204D02*
X126498773Y-100879804D01*
X126522572Y-100885765D01*
X126545671Y-100894030D01*
X126567850Y-100904520D01*
X126588893Y-100917132D01*
X126608599Y-100931747D01*
X126626777Y-100948223D01*
X126643253Y-100966401D01*
X126657868Y-100986107D01*
X126670480Y-101007150D01*
X126680970Y-101029329D01*
X126689235Y-101052428D01*
X126695196Y-101076227D01*
X126698796Y-101100495D01*
X126700000Y-101124999D01*
X126700000Y-101775001D01*
X126698796Y-101799505D01*
X126695196Y-101823773D01*
X126689235Y-101847572D01*
X126680970Y-101870671D01*
X126670480Y-101892850D01*
X126657868Y-101913893D01*
X126643253Y-101933599D01*
X126626777Y-101951777D01*
X126608599Y-101968253D01*
X126588893Y-101982868D01*
X126567850Y-101995480D01*
X126545671Y-102005970D01*
X126522572Y-102014235D01*
X126498773Y-102020196D01*
X126474505Y-102023796D01*
X126450001Y-102025000D01*
X125549999Y-102025000D01*
X125525495Y-102023796D01*
X125501227Y-102020196D01*
X125477428Y-102014235D01*
X125454329Y-102005970D01*
X125432150Y-101995480D01*
X125411107Y-101982868D01*
X125391401Y-101968253D01*
X125373223Y-101951777D01*
X125356747Y-101933599D01*
X125342132Y-101913893D01*
X125329520Y-101892850D01*
X125319030Y-101870671D01*
X125310765Y-101847572D01*
X125304804Y-101823773D01*
X125301204Y-101799505D01*
X125300000Y-101775001D01*
X125300000Y-101124999D01*
X125301204Y-101100495D01*
X125304804Y-101076227D01*
X125310765Y-101052428D01*
X125319030Y-101029329D01*
X125329520Y-101007150D01*
X125342132Y-100986107D01*
X125356747Y-100966401D01*
X125373223Y-100948223D01*
X125391401Y-100931747D01*
X125411107Y-100917132D01*
X125432150Y-100904520D01*
X125454329Y-100894030D01*
X125477428Y-100885765D01*
X125501227Y-100879804D01*
X125525495Y-100876204D01*
X125549999Y-100875000D01*
X126450001Y-100875000D01*
X126474505Y-100876204D01*
X126474505Y-100876204D01*
G37*
D16*
X126000000Y-101450000D03*
D15*
G36*
X126474505Y-102926204D02*
X126498773Y-102929804D01*
X126522572Y-102935765D01*
X126545671Y-102944030D01*
X126567850Y-102954520D01*
X126588893Y-102967132D01*
X126608599Y-102981747D01*
X126626777Y-102998223D01*
X126643253Y-103016401D01*
X126657868Y-103036107D01*
X126670480Y-103057150D01*
X126680970Y-103079329D01*
X126689235Y-103102428D01*
X126695196Y-103126227D01*
X126698796Y-103150495D01*
X126700000Y-103174999D01*
X126700000Y-103825001D01*
X126698796Y-103849505D01*
X126695196Y-103873773D01*
X126689235Y-103897572D01*
X126680970Y-103920671D01*
X126670480Y-103942850D01*
X126657868Y-103963893D01*
X126643253Y-103983599D01*
X126626777Y-104001777D01*
X126608599Y-104018253D01*
X126588893Y-104032868D01*
X126567850Y-104045480D01*
X126545671Y-104055970D01*
X126522572Y-104064235D01*
X126498773Y-104070196D01*
X126474505Y-104073796D01*
X126450001Y-104075000D01*
X125549999Y-104075000D01*
X125525495Y-104073796D01*
X125501227Y-104070196D01*
X125477428Y-104064235D01*
X125454329Y-104055970D01*
X125432150Y-104045480D01*
X125411107Y-104032868D01*
X125391401Y-104018253D01*
X125373223Y-104001777D01*
X125356747Y-103983599D01*
X125342132Y-103963893D01*
X125329520Y-103942850D01*
X125319030Y-103920671D01*
X125310765Y-103897572D01*
X125304804Y-103873773D01*
X125301204Y-103849505D01*
X125300000Y-103825001D01*
X125300000Y-103174999D01*
X125301204Y-103150495D01*
X125304804Y-103126227D01*
X125310765Y-103102428D01*
X125319030Y-103079329D01*
X125329520Y-103057150D01*
X125342132Y-103036107D01*
X125356747Y-103016401D01*
X125373223Y-102998223D01*
X125391401Y-102981747D01*
X125411107Y-102967132D01*
X125432150Y-102954520D01*
X125454329Y-102944030D01*
X125477428Y-102935765D01*
X125501227Y-102929804D01*
X125525495Y-102926204D01*
X125549999Y-102925000D01*
X126450001Y-102925000D01*
X126474505Y-102926204D01*
X126474505Y-102926204D01*
G37*
D16*
X126000000Y-103500000D03*
G04 #@! TD*
D15*
G04 #@! TO.C,C3*
G36*
X124474505Y-102926204D02*
X124498773Y-102929804D01*
X124522572Y-102935765D01*
X124545671Y-102944030D01*
X124567850Y-102954520D01*
X124588893Y-102967132D01*
X124608599Y-102981747D01*
X124626777Y-102998223D01*
X124643253Y-103016401D01*
X124657868Y-103036107D01*
X124670480Y-103057150D01*
X124680970Y-103079329D01*
X124689235Y-103102428D01*
X124695196Y-103126227D01*
X124698796Y-103150495D01*
X124700000Y-103174999D01*
X124700000Y-103825001D01*
X124698796Y-103849505D01*
X124695196Y-103873773D01*
X124689235Y-103897572D01*
X124680970Y-103920671D01*
X124670480Y-103942850D01*
X124657868Y-103963893D01*
X124643253Y-103983599D01*
X124626777Y-104001777D01*
X124608599Y-104018253D01*
X124588893Y-104032868D01*
X124567850Y-104045480D01*
X124545671Y-104055970D01*
X124522572Y-104064235D01*
X124498773Y-104070196D01*
X124474505Y-104073796D01*
X124450001Y-104075000D01*
X123549999Y-104075000D01*
X123525495Y-104073796D01*
X123501227Y-104070196D01*
X123477428Y-104064235D01*
X123454329Y-104055970D01*
X123432150Y-104045480D01*
X123411107Y-104032868D01*
X123391401Y-104018253D01*
X123373223Y-104001777D01*
X123356747Y-103983599D01*
X123342132Y-103963893D01*
X123329520Y-103942850D01*
X123319030Y-103920671D01*
X123310765Y-103897572D01*
X123304804Y-103873773D01*
X123301204Y-103849505D01*
X123300000Y-103825001D01*
X123300000Y-103174999D01*
X123301204Y-103150495D01*
X123304804Y-103126227D01*
X123310765Y-103102428D01*
X123319030Y-103079329D01*
X123329520Y-103057150D01*
X123342132Y-103036107D01*
X123356747Y-103016401D01*
X123373223Y-102998223D01*
X123391401Y-102981747D01*
X123411107Y-102967132D01*
X123432150Y-102954520D01*
X123454329Y-102944030D01*
X123477428Y-102935765D01*
X123501227Y-102929804D01*
X123525495Y-102926204D01*
X123549999Y-102925000D01*
X124450001Y-102925000D01*
X124474505Y-102926204D01*
X124474505Y-102926204D01*
G37*
D16*
X124000000Y-103500000D03*
D15*
G36*
X124474505Y-100876204D02*
X124498773Y-100879804D01*
X124522572Y-100885765D01*
X124545671Y-100894030D01*
X124567850Y-100904520D01*
X124588893Y-100917132D01*
X124608599Y-100931747D01*
X124626777Y-100948223D01*
X124643253Y-100966401D01*
X124657868Y-100986107D01*
X124670480Y-101007150D01*
X124680970Y-101029329D01*
X124689235Y-101052428D01*
X124695196Y-101076227D01*
X124698796Y-101100495D01*
X124700000Y-101124999D01*
X124700000Y-101775001D01*
X124698796Y-101799505D01*
X124695196Y-101823773D01*
X124689235Y-101847572D01*
X124680970Y-101870671D01*
X124670480Y-101892850D01*
X124657868Y-101913893D01*
X124643253Y-101933599D01*
X124626777Y-101951777D01*
X124608599Y-101968253D01*
X124588893Y-101982868D01*
X124567850Y-101995480D01*
X124545671Y-102005970D01*
X124522572Y-102014235D01*
X124498773Y-102020196D01*
X124474505Y-102023796D01*
X124450001Y-102025000D01*
X123549999Y-102025000D01*
X123525495Y-102023796D01*
X123501227Y-102020196D01*
X123477428Y-102014235D01*
X123454329Y-102005970D01*
X123432150Y-101995480D01*
X123411107Y-101982868D01*
X123391401Y-101968253D01*
X123373223Y-101951777D01*
X123356747Y-101933599D01*
X123342132Y-101913893D01*
X123329520Y-101892850D01*
X123319030Y-101870671D01*
X123310765Y-101847572D01*
X123304804Y-101823773D01*
X123301204Y-101799505D01*
X123300000Y-101775001D01*
X123300000Y-101124999D01*
X123301204Y-101100495D01*
X123304804Y-101076227D01*
X123310765Y-101052428D01*
X123319030Y-101029329D01*
X123329520Y-101007150D01*
X123342132Y-100986107D01*
X123356747Y-100966401D01*
X123373223Y-100948223D01*
X123391401Y-100931747D01*
X123411107Y-100917132D01*
X123432150Y-100904520D01*
X123454329Y-100894030D01*
X123477428Y-100885765D01*
X123501227Y-100879804D01*
X123525495Y-100876204D01*
X123549999Y-100875000D01*
X124450001Y-100875000D01*
X124474505Y-100876204D01*
X124474505Y-100876204D01*
G37*
D16*
X124000000Y-101450000D03*
G04 #@! TD*
D15*
G04 #@! TO.C,C4*
G36*
X135974505Y-115851204D02*
X135998773Y-115854804D01*
X136022572Y-115860765D01*
X136045671Y-115869030D01*
X136067850Y-115879520D01*
X136088893Y-115892132D01*
X136108599Y-115906747D01*
X136126777Y-115923223D01*
X136143253Y-115941401D01*
X136157868Y-115961107D01*
X136170480Y-115982150D01*
X136180970Y-116004329D01*
X136189235Y-116027428D01*
X136195196Y-116051227D01*
X136198796Y-116075495D01*
X136200000Y-116099999D01*
X136200000Y-117000001D01*
X136198796Y-117024505D01*
X136195196Y-117048773D01*
X136189235Y-117072572D01*
X136180970Y-117095671D01*
X136170480Y-117117850D01*
X136157868Y-117138893D01*
X136143253Y-117158599D01*
X136126777Y-117176777D01*
X136108599Y-117193253D01*
X136088893Y-117207868D01*
X136067850Y-117220480D01*
X136045671Y-117230970D01*
X136022572Y-117239235D01*
X135998773Y-117245196D01*
X135974505Y-117248796D01*
X135950001Y-117250000D01*
X135299999Y-117250000D01*
X135275495Y-117248796D01*
X135251227Y-117245196D01*
X135227428Y-117239235D01*
X135204329Y-117230970D01*
X135182150Y-117220480D01*
X135161107Y-117207868D01*
X135141401Y-117193253D01*
X135123223Y-117176777D01*
X135106747Y-117158599D01*
X135092132Y-117138893D01*
X135079520Y-117117850D01*
X135069030Y-117095671D01*
X135060765Y-117072572D01*
X135054804Y-117048773D01*
X135051204Y-117024505D01*
X135050000Y-117000001D01*
X135050000Y-116099999D01*
X135051204Y-116075495D01*
X135054804Y-116051227D01*
X135060765Y-116027428D01*
X135069030Y-116004329D01*
X135079520Y-115982150D01*
X135092132Y-115961107D01*
X135106747Y-115941401D01*
X135123223Y-115923223D01*
X135141401Y-115906747D01*
X135161107Y-115892132D01*
X135182150Y-115879520D01*
X135204329Y-115869030D01*
X135227428Y-115860765D01*
X135251227Y-115854804D01*
X135275495Y-115851204D01*
X135299999Y-115850000D01*
X135950001Y-115850000D01*
X135974505Y-115851204D01*
X135974505Y-115851204D01*
G37*
D16*
X135625000Y-116550000D03*
D15*
G36*
X133924505Y-115851204D02*
X133948773Y-115854804D01*
X133972572Y-115860765D01*
X133995671Y-115869030D01*
X134017850Y-115879520D01*
X134038893Y-115892132D01*
X134058599Y-115906747D01*
X134076777Y-115923223D01*
X134093253Y-115941401D01*
X134107868Y-115961107D01*
X134120480Y-115982150D01*
X134130970Y-116004329D01*
X134139235Y-116027428D01*
X134145196Y-116051227D01*
X134148796Y-116075495D01*
X134150000Y-116099999D01*
X134150000Y-117000001D01*
X134148796Y-117024505D01*
X134145196Y-117048773D01*
X134139235Y-117072572D01*
X134130970Y-117095671D01*
X134120480Y-117117850D01*
X134107868Y-117138893D01*
X134093253Y-117158599D01*
X134076777Y-117176777D01*
X134058599Y-117193253D01*
X134038893Y-117207868D01*
X134017850Y-117220480D01*
X133995671Y-117230970D01*
X133972572Y-117239235D01*
X133948773Y-117245196D01*
X133924505Y-117248796D01*
X133900001Y-117250000D01*
X133249999Y-117250000D01*
X133225495Y-117248796D01*
X133201227Y-117245196D01*
X133177428Y-117239235D01*
X133154329Y-117230970D01*
X133132150Y-117220480D01*
X133111107Y-117207868D01*
X133091401Y-117193253D01*
X133073223Y-117176777D01*
X133056747Y-117158599D01*
X133042132Y-117138893D01*
X133029520Y-117117850D01*
X133019030Y-117095671D01*
X133010765Y-117072572D01*
X133004804Y-117048773D01*
X133001204Y-117024505D01*
X133000000Y-117000001D01*
X133000000Y-116099999D01*
X133001204Y-116075495D01*
X133004804Y-116051227D01*
X133010765Y-116027428D01*
X133019030Y-116004329D01*
X133029520Y-115982150D01*
X133042132Y-115961107D01*
X133056747Y-115941401D01*
X133073223Y-115923223D01*
X133091401Y-115906747D01*
X133111107Y-115892132D01*
X133132150Y-115879520D01*
X133154329Y-115869030D01*
X133177428Y-115860765D01*
X133201227Y-115854804D01*
X133225495Y-115851204D01*
X133249999Y-115850000D01*
X133900001Y-115850000D01*
X133924505Y-115851204D01*
X133924505Y-115851204D01*
G37*
D16*
X133575000Y-116550000D03*
G04 #@! TD*
D15*
G04 #@! TO.C,C5*
G36*
X152299505Y-71301204D02*
X152323773Y-71304804D01*
X152347572Y-71310765D01*
X152370671Y-71319030D01*
X152392850Y-71329520D01*
X152413893Y-71342132D01*
X152433599Y-71356747D01*
X152451777Y-71373223D01*
X152468253Y-71391401D01*
X152482868Y-71411107D01*
X152495480Y-71432150D01*
X152505970Y-71454329D01*
X152514235Y-71477428D01*
X152520196Y-71501227D01*
X152523796Y-71525495D01*
X152525000Y-71549999D01*
X152525000Y-72450001D01*
X152523796Y-72474505D01*
X152520196Y-72498773D01*
X152514235Y-72522572D01*
X152505970Y-72545671D01*
X152495480Y-72567850D01*
X152482868Y-72588893D01*
X152468253Y-72608599D01*
X152451777Y-72626777D01*
X152433599Y-72643253D01*
X152413893Y-72657868D01*
X152392850Y-72670480D01*
X152370671Y-72680970D01*
X152347572Y-72689235D01*
X152323773Y-72695196D01*
X152299505Y-72698796D01*
X152275001Y-72700000D01*
X151624999Y-72700000D01*
X151600495Y-72698796D01*
X151576227Y-72695196D01*
X151552428Y-72689235D01*
X151529329Y-72680970D01*
X151507150Y-72670480D01*
X151486107Y-72657868D01*
X151466401Y-72643253D01*
X151448223Y-72626777D01*
X151431747Y-72608599D01*
X151417132Y-72588893D01*
X151404520Y-72567850D01*
X151394030Y-72545671D01*
X151385765Y-72522572D01*
X151379804Y-72498773D01*
X151376204Y-72474505D01*
X151375000Y-72450001D01*
X151375000Y-71549999D01*
X151376204Y-71525495D01*
X151379804Y-71501227D01*
X151385765Y-71477428D01*
X151394030Y-71454329D01*
X151404520Y-71432150D01*
X151417132Y-71411107D01*
X151431747Y-71391401D01*
X151448223Y-71373223D01*
X151466401Y-71356747D01*
X151486107Y-71342132D01*
X151507150Y-71329520D01*
X151529329Y-71319030D01*
X151552428Y-71310765D01*
X151576227Y-71304804D01*
X151600495Y-71301204D01*
X151624999Y-71300000D01*
X152275001Y-71300000D01*
X152299505Y-71301204D01*
X152299505Y-71301204D01*
G37*
D16*
X151950000Y-72000000D03*
D15*
G36*
X154349505Y-71301204D02*
X154373773Y-71304804D01*
X154397572Y-71310765D01*
X154420671Y-71319030D01*
X154442850Y-71329520D01*
X154463893Y-71342132D01*
X154483599Y-71356747D01*
X154501777Y-71373223D01*
X154518253Y-71391401D01*
X154532868Y-71411107D01*
X154545480Y-71432150D01*
X154555970Y-71454329D01*
X154564235Y-71477428D01*
X154570196Y-71501227D01*
X154573796Y-71525495D01*
X154575000Y-71549999D01*
X154575000Y-72450001D01*
X154573796Y-72474505D01*
X154570196Y-72498773D01*
X154564235Y-72522572D01*
X154555970Y-72545671D01*
X154545480Y-72567850D01*
X154532868Y-72588893D01*
X154518253Y-72608599D01*
X154501777Y-72626777D01*
X154483599Y-72643253D01*
X154463893Y-72657868D01*
X154442850Y-72670480D01*
X154420671Y-72680970D01*
X154397572Y-72689235D01*
X154373773Y-72695196D01*
X154349505Y-72698796D01*
X154325001Y-72700000D01*
X153674999Y-72700000D01*
X153650495Y-72698796D01*
X153626227Y-72695196D01*
X153602428Y-72689235D01*
X153579329Y-72680970D01*
X153557150Y-72670480D01*
X153536107Y-72657868D01*
X153516401Y-72643253D01*
X153498223Y-72626777D01*
X153481747Y-72608599D01*
X153467132Y-72588893D01*
X153454520Y-72567850D01*
X153444030Y-72545671D01*
X153435765Y-72522572D01*
X153429804Y-72498773D01*
X153426204Y-72474505D01*
X153425000Y-72450001D01*
X153425000Y-71549999D01*
X153426204Y-71525495D01*
X153429804Y-71501227D01*
X153435765Y-71477428D01*
X153444030Y-71454329D01*
X153454520Y-71432150D01*
X153467132Y-71411107D01*
X153481747Y-71391401D01*
X153498223Y-71373223D01*
X153516401Y-71356747D01*
X153536107Y-71342132D01*
X153557150Y-71329520D01*
X153579329Y-71319030D01*
X153602428Y-71310765D01*
X153626227Y-71304804D01*
X153650495Y-71301204D01*
X153674999Y-71300000D01*
X154325001Y-71300000D01*
X154349505Y-71301204D01*
X154349505Y-71301204D01*
G37*
D16*
X154000000Y-72000000D03*
G04 #@! TD*
D15*
G04 #@! TO.C,C6*
G36*
X152299505Y-73301204D02*
X152323773Y-73304804D01*
X152347572Y-73310765D01*
X152370671Y-73319030D01*
X152392850Y-73329520D01*
X152413893Y-73342132D01*
X152433599Y-73356747D01*
X152451777Y-73373223D01*
X152468253Y-73391401D01*
X152482868Y-73411107D01*
X152495480Y-73432150D01*
X152505970Y-73454329D01*
X152514235Y-73477428D01*
X152520196Y-73501227D01*
X152523796Y-73525495D01*
X152525000Y-73549999D01*
X152525000Y-74450001D01*
X152523796Y-74474505D01*
X152520196Y-74498773D01*
X152514235Y-74522572D01*
X152505970Y-74545671D01*
X152495480Y-74567850D01*
X152482868Y-74588893D01*
X152468253Y-74608599D01*
X152451777Y-74626777D01*
X152433599Y-74643253D01*
X152413893Y-74657868D01*
X152392850Y-74670480D01*
X152370671Y-74680970D01*
X152347572Y-74689235D01*
X152323773Y-74695196D01*
X152299505Y-74698796D01*
X152275001Y-74700000D01*
X151624999Y-74700000D01*
X151600495Y-74698796D01*
X151576227Y-74695196D01*
X151552428Y-74689235D01*
X151529329Y-74680970D01*
X151507150Y-74670480D01*
X151486107Y-74657868D01*
X151466401Y-74643253D01*
X151448223Y-74626777D01*
X151431747Y-74608599D01*
X151417132Y-74588893D01*
X151404520Y-74567850D01*
X151394030Y-74545671D01*
X151385765Y-74522572D01*
X151379804Y-74498773D01*
X151376204Y-74474505D01*
X151375000Y-74450001D01*
X151375000Y-73549999D01*
X151376204Y-73525495D01*
X151379804Y-73501227D01*
X151385765Y-73477428D01*
X151394030Y-73454329D01*
X151404520Y-73432150D01*
X151417132Y-73411107D01*
X151431747Y-73391401D01*
X151448223Y-73373223D01*
X151466401Y-73356747D01*
X151486107Y-73342132D01*
X151507150Y-73329520D01*
X151529329Y-73319030D01*
X151552428Y-73310765D01*
X151576227Y-73304804D01*
X151600495Y-73301204D01*
X151624999Y-73300000D01*
X152275001Y-73300000D01*
X152299505Y-73301204D01*
X152299505Y-73301204D01*
G37*
D16*
X151950000Y-74000000D03*
D15*
G36*
X154349505Y-73301204D02*
X154373773Y-73304804D01*
X154397572Y-73310765D01*
X154420671Y-73319030D01*
X154442850Y-73329520D01*
X154463893Y-73342132D01*
X154483599Y-73356747D01*
X154501777Y-73373223D01*
X154518253Y-73391401D01*
X154532868Y-73411107D01*
X154545480Y-73432150D01*
X154555970Y-73454329D01*
X154564235Y-73477428D01*
X154570196Y-73501227D01*
X154573796Y-73525495D01*
X154575000Y-73549999D01*
X154575000Y-74450001D01*
X154573796Y-74474505D01*
X154570196Y-74498773D01*
X154564235Y-74522572D01*
X154555970Y-74545671D01*
X154545480Y-74567850D01*
X154532868Y-74588893D01*
X154518253Y-74608599D01*
X154501777Y-74626777D01*
X154483599Y-74643253D01*
X154463893Y-74657868D01*
X154442850Y-74670480D01*
X154420671Y-74680970D01*
X154397572Y-74689235D01*
X154373773Y-74695196D01*
X154349505Y-74698796D01*
X154325001Y-74700000D01*
X153674999Y-74700000D01*
X153650495Y-74698796D01*
X153626227Y-74695196D01*
X153602428Y-74689235D01*
X153579329Y-74680970D01*
X153557150Y-74670480D01*
X153536107Y-74657868D01*
X153516401Y-74643253D01*
X153498223Y-74626777D01*
X153481747Y-74608599D01*
X153467132Y-74588893D01*
X153454520Y-74567850D01*
X153444030Y-74545671D01*
X153435765Y-74522572D01*
X153429804Y-74498773D01*
X153426204Y-74474505D01*
X153425000Y-74450001D01*
X153425000Y-73549999D01*
X153426204Y-73525495D01*
X153429804Y-73501227D01*
X153435765Y-73477428D01*
X153444030Y-73454329D01*
X153454520Y-73432150D01*
X153467132Y-73411107D01*
X153481747Y-73391401D01*
X153498223Y-73373223D01*
X153516401Y-73356747D01*
X153536107Y-73342132D01*
X153557150Y-73329520D01*
X153579329Y-73319030D01*
X153602428Y-73310765D01*
X153626227Y-73304804D01*
X153650495Y-73301204D01*
X153674999Y-73300000D01*
X154325001Y-73300000D01*
X154349505Y-73301204D01*
X154349505Y-73301204D01*
G37*
D16*
X154000000Y-74000000D03*
G04 #@! TD*
D15*
G04 #@! TO.C,C7*
G36*
X143799505Y-138301204D02*
X143823773Y-138304804D01*
X143847572Y-138310765D01*
X143870671Y-138319030D01*
X143892850Y-138329520D01*
X143913893Y-138342132D01*
X143933599Y-138356747D01*
X143951777Y-138373223D01*
X143968253Y-138391401D01*
X143982868Y-138411107D01*
X143995480Y-138432150D01*
X144005970Y-138454329D01*
X144014235Y-138477428D01*
X144020196Y-138501227D01*
X144023796Y-138525495D01*
X144025000Y-138549999D01*
X144025000Y-139450001D01*
X144023796Y-139474505D01*
X144020196Y-139498773D01*
X144014235Y-139522572D01*
X144005970Y-139545671D01*
X143995480Y-139567850D01*
X143982868Y-139588893D01*
X143968253Y-139608599D01*
X143951777Y-139626777D01*
X143933599Y-139643253D01*
X143913893Y-139657868D01*
X143892850Y-139670480D01*
X143870671Y-139680970D01*
X143847572Y-139689235D01*
X143823773Y-139695196D01*
X143799505Y-139698796D01*
X143775001Y-139700000D01*
X143124999Y-139700000D01*
X143100495Y-139698796D01*
X143076227Y-139695196D01*
X143052428Y-139689235D01*
X143029329Y-139680970D01*
X143007150Y-139670480D01*
X142986107Y-139657868D01*
X142966401Y-139643253D01*
X142948223Y-139626777D01*
X142931747Y-139608599D01*
X142917132Y-139588893D01*
X142904520Y-139567850D01*
X142894030Y-139545671D01*
X142885765Y-139522572D01*
X142879804Y-139498773D01*
X142876204Y-139474505D01*
X142875000Y-139450001D01*
X142875000Y-138549999D01*
X142876204Y-138525495D01*
X142879804Y-138501227D01*
X142885765Y-138477428D01*
X142894030Y-138454329D01*
X142904520Y-138432150D01*
X142917132Y-138411107D01*
X142931747Y-138391401D01*
X142948223Y-138373223D01*
X142966401Y-138356747D01*
X142986107Y-138342132D01*
X143007150Y-138329520D01*
X143029329Y-138319030D01*
X143052428Y-138310765D01*
X143076227Y-138304804D01*
X143100495Y-138301204D01*
X143124999Y-138300000D01*
X143775001Y-138300000D01*
X143799505Y-138301204D01*
X143799505Y-138301204D01*
G37*
D16*
X143450000Y-139000000D03*
D15*
G36*
X145849505Y-138301204D02*
X145873773Y-138304804D01*
X145897572Y-138310765D01*
X145920671Y-138319030D01*
X145942850Y-138329520D01*
X145963893Y-138342132D01*
X145983599Y-138356747D01*
X146001777Y-138373223D01*
X146018253Y-138391401D01*
X146032868Y-138411107D01*
X146045480Y-138432150D01*
X146055970Y-138454329D01*
X146064235Y-138477428D01*
X146070196Y-138501227D01*
X146073796Y-138525495D01*
X146075000Y-138549999D01*
X146075000Y-139450001D01*
X146073796Y-139474505D01*
X146070196Y-139498773D01*
X146064235Y-139522572D01*
X146055970Y-139545671D01*
X146045480Y-139567850D01*
X146032868Y-139588893D01*
X146018253Y-139608599D01*
X146001777Y-139626777D01*
X145983599Y-139643253D01*
X145963893Y-139657868D01*
X145942850Y-139670480D01*
X145920671Y-139680970D01*
X145897572Y-139689235D01*
X145873773Y-139695196D01*
X145849505Y-139698796D01*
X145825001Y-139700000D01*
X145174999Y-139700000D01*
X145150495Y-139698796D01*
X145126227Y-139695196D01*
X145102428Y-139689235D01*
X145079329Y-139680970D01*
X145057150Y-139670480D01*
X145036107Y-139657868D01*
X145016401Y-139643253D01*
X144998223Y-139626777D01*
X144981747Y-139608599D01*
X144967132Y-139588893D01*
X144954520Y-139567850D01*
X144944030Y-139545671D01*
X144935765Y-139522572D01*
X144929804Y-139498773D01*
X144926204Y-139474505D01*
X144925000Y-139450001D01*
X144925000Y-138549999D01*
X144926204Y-138525495D01*
X144929804Y-138501227D01*
X144935765Y-138477428D01*
X144944030Y-138454329D01*
X144954520Y-138432150D01*
X144967132Y-138411107D01*
X144981747Y-138391401D01*
X144998223Y-138373223D01*
X145016401Y-138356747D01*
X145036107Y-138342132D01*
X145057150Y-138329520D01*
X145079329Y-138319030D01*
X145102428Y-138310765D01*
X145126227Y-138304804D01*
X145150495Y-138301204D01*
X145174999Y-138300000D01*
X145825001Y-138300000D01*
X145849505Y-138301204D01*
X145849505Y-138301204D01*
G37*
D16*
X145500000Y-139000000D03*
G04 #@! TD*
D15*
G04 #@! TO.C,C8*
G36*
X138574505Y-119426204D02*
X138598773Y-119429804D01*
X138622572Y-119435765D01*
X138645671Y-119444030D01*
X138667850Y-119454520D01*
X138688893Y-119467132D01*
X138708599Y-119481747D01*
X138726777Y-119498223D01*
X138743253Y-119516401D01*
X138757868Y-119536107D01*
X138770480Y-119557150D01*
X138780970Y-119579329D01*
X138789235Y-119602428D01*
X138795196Y-119626227D01*
X138798796Y-119650495D01*
X138800000Y-119674999D01*
X138800000Y-120325001D01*
X138798796Y-120349505D01*
X138795196Y-120373773D01*
X138789235Y-120397572D01*
X138780970Y-120420671D01*
X138770480Y-120442850D01*
X138757868Y-120463893D01*
X138743253Y-120483599D01*
X138726777Y-120501777D01*
X138708599Y-120518253D01*
X138688893Y-120532868D01*
X138667850Y-120545480D01*
X138645671Y-120555970D01*
X138622572Y-120564235D01*
X138598773Y-120570196D01*
X138574505Y-120573796D01*
X138550001Y-120575000D01*
X137649999Y-120575000D01*
X137625495Y-120573796D01*
X137601227Y-120570196D01*
X137577428Y-120564235D01*
X137554329Y-120555970D01*
X137532150Y-120545480D01*
X137511107Y-120532868D01*
X137491401Y-120518253D01*
X137473223Y-120501777D01*
X137456747Y-120483599D01*
X137442132Y-120463893D01*
X137429520Y-120442850D01*
X137419030Y-120420671D01*
X137410765Y-120397572D01*
X137404804Y-120373773D01*
X137401204Y-120349505D01*
X137400000Y-120325001D01*
X137400000Y-119674999D01*
X137401204Y-119650495D01*
X137404804Y-119626227D01*
X137410765Y-119602428D01*
X137419030Y-119579329D01*
X137429520Y-119557150D01*
X137442132Y-119536107D01*
X137456747Y-119516401D01*
X137473223Y-119498223D01*
X137491401Y-119481747D01*
X137511107Y-119467132D01*
X137532150Y-119454520D01*
X137554329Y-119444030D01*
X137577428Y-119435765D01*
X137601227Y-119429804D01*
X137625495Y-119426204D01*
X137649999Y-119425000D01*
X138550001Y-119425000D01*
X138574505Y-119426204D01*
X138574505Y-119426204D01*
G37*
D16*
X138100000Y-120000000D03*
D15*
G36*
X138574505Y-121476204D02*
X138598773Y-121479804D01*
X138622572Y-121485765D01*
X138645671Y-121494030D01*
X138667850Y-121504520D01*
X138688893Y-121517132D01*
X138708599Y-121531747D01*
X138726777Y-121548223D01*
X138743253Y-121566401D01*
X138757868Y-121586107D01*
X138770480Y-121607150D01*
X138780970Y-121629329D01*
X138789235Y-121652428D01*
X138795196Y-121676227D01*
X138798796Y-121700495D01*
X138800000Y-121724999D01*
X138800000Y-122375001D01*
X138798796Y-122399505D01*
X138795196Y-122423773D01*
X138789235Y-122447572D01*
X138780970Y-122470671D01*
X138770480Y-122492850D01*
X138757868Y-122513893D01*
X138743253Y-122533599D01*
X138726777Y-122551777D01*
X138708599Y-122568253D01*
X138688893Y-122582868D01*
X138667850Y-122595480D01*
X138645671Y-122605970D01*
X138622572Y-122614235D01*
X138598773Y-122620196D01*
X138574505Y-122623796D01*
X138550001Y-122625000D01*
X137649999Y-122625000D01*
X137625495Y-122623796D01*
X137601227Y-122620196D01*
X137577428Y-122614235D01*
X137554329Y-122605970D01*
X137532150Y-122595480D01*
X137511107Y-122582868D01*
X137491401Y-122568253D01*
X137473223Y-122551777D01*
X137456747Y-122533599D01*
X137442132Y-122513893D01*
X137429520Y-122492850D01*
X137419030Y-122470671D01*
X137410765Y-122447572D01*
X137404804Y-122423773D01*
X137401204Y-122399505D01*
X137400000Y-122375001D01*
X137400000Y-121724999D01*
X137401204Y-121700495D01*
X137404804Y-121676227D01*
X137410765Y-121652428D01*
X137419030Y-121629329D01*
X137429520Y-121607150D01*
X137442132Y-121586107D01*
X137456747Y-121566401D01*
X137473223Y-121548223D01*
X137491401Y-121531747D01*
X137511107Y-121517132D01*
X137532150Y-121504520D01*
X137554329Y-121494030D01*
X137577428Y-121485765D01*
X137601227Y-121479804D01*
X137625495Y-121476204D01*
X137649999Y-121475000D01*
X138550001Y-121475000D01*
X138574505Y-121476204D01*
X138574505Y-121476204D01*
G37*
D16*
X138100000Y-122050000D03*
G04 #@! TD*
D15*
G04 #@! TO.C,C9*
G36*
X152149505Y-90701204D02*
X152173773Y-90704804D01*
X152197572Y-90710765D01*
X152220671Y-90719030D01*
X152242850Y-90729520D01*
X152263893Y-90742132D01*
X152283599Y-90756747D01*
X152301777Y-90773223D01*
X152318253Y-90791401D01*
X152332868Y-90811107D01*
X152345480Y-90832150D01*
X152355970Y-90854329D01*
X152364235Y-90877428D01*
X152370196Y-90901227D01*
X152373796Y-90925495D01*
X152375000Y-90949999D01*
X152375000Y-91850001D01*
X152373796Y-91874505D01*
X152370196Y-91898773D01*
X152364235Y-91922572D01*
X152355970Y-91945671D01*
X152345480Y-91967850D01*
X152332868Y-91988893D01*
X152318253Y-92008599D01*
X152301777Y-92026777D01*
X152283599Y-92043253D01*
X152263893Y-92057868D01*
X152242850Y-92070480D01*
X152220671Y-92080970D01*
X152197572Y-92089235D01*
X152173773Y-92095196D01*
X152149505Y-92098796D01*
X152125001Y-92100000D01*
X151474999Y-92100000D01*
X151450495Y-92098796D01*
X151426227Y-92095196D01*
X151402428Y-92089235D01*
X151379329Y-92080970D01*
X151357150Y-92070480D01*
X151336107Y-92057868D01*
X151316401Y-92043253D01*
X151298223Y-92026777D01*
X151281747Y-92008599D01*
X151267132Y-91988893D01*
X151254520Y-91967850D01*
X151244030Y-91945671D01*
X151235765Y-91922572D01*
X151229804Y-91898773D01*
X151226204Y-91874505D01*
X151225000Y-91850001D01*
X151225000Y-90949999D01*
X151226204Y-90925495D01*
X151229804Y-90901227D01*
X151235765Y-90877428D01*
X151244030Y-90854329D01*
X151254520Y-90832150D01*
X151267132Y-90811107D01*
X151281747Y-90791401D01*
X151298223Y-90773223D01*
X151316401Y-90756747D01*
X151336107Y-90742132D01*
X151357150Y-90729520D01*
X151379329Y-90719030D01*
X151402428Y-90710765D01*
X151426227Y-90704804D01*
X151450495Y-90701204D01*
X151474999Y-90700000D01*
X152125001Y-90700000D01*
X152149505Y-90701204D01*
X152149505Y-90701204D01*
G37*
D16*
X151800000Y-91400000D03*
D15*
G36*
X154199505Y-90701204D02*
X154223773Y-90704804D01*
X154247572Y-90710765D01*
X154270671Y-90719030D01*
X154292850Y-90729520D01*
X154313893Y-90742132D01*
X154333599Y-90756747D01*
X154351777Y-90773223D01*
X154368253Y-90791401D01*
X154382868Y-90811107D01*
X154395480Y-90832150D01*
X154405970Y-90854329D01*
X154414235Y-90877428D01*
X154420196Y-90901227D01*
X154423796Y-90925495D01*
X154425000Y-90949999D01*
X154425000Y-91850001D01*
X154423796Y-91874505D01*
X154420196Y-91898773D01*
X154414235Y-91922572D01*
X154405970Y-91945671D01*
X154395480Y-91967850D01*
X154382868Y-91988893D01*
X154368253Y-92008599D01*
X154351777Y-92026777D01*
X154333599Y-92043253D01*
X154313893Y-92057868D01*
X154292850Y-92070480D01*
X154270671Y-92080970D01*
X154247572Y-92089235D01*
X154223773Y-92095196D01*
X154199505Y-92098796D01*
X154175001Y-92100000D01*
X153524999Y-92100000D01*
X153500495Y-92098796D01*
X153476227Y-92095196D01*
X153452428Y-92089235D01*
X153429329Y-92080970D01*
X153407150Y-92070480D01*
X153386107Y-92057868D01*
X153366401Y-92043253D01*
X153348223Y-92026777D01*
X153331747Y-92008599D01*
X153317132Y-91988893D01*
X153304520Y-91967850D01*
X153294030Y-91945671D01*
X153285765Y-91922572D01*
X153279804Y-91898773D01*
X153276204Y-91874505D01*
X153275000Y-91850001D01*
X153275000Y-90949999D01*
X153276204Y-90925495D01*
X153279804Y-90901227D01*
X153285765Y-90877428D01*
X153294030Y-90854329D01*
X153304520Y-90832150D01*
X153317132Y-90811107D01*
X153331747Y-90791401D01*
X153348223Y-90773223D01*
X153366401Y-90756747D01*
X153386107Y-90742132D01*
X153407150Y-90729520D01*
X153429329Y-90719030D01*
X153452428Y-90710765D01*
X153476227Y-90704804D01*
X153500495Y-90701204D01*
X153524999Y-90700000D01*
X154175001Y-90700000D01*
X154199505Y-90701204D01*
X154199505Y-90701204D01*
G37*
D16*
X153850000Y-91400000D03*
G04 #@! TD*
D15*
G04 #@! TO.C,C10*
G36*
X145099505Y-90701204D02*
X145123773Y-90704804D01*
X145147572Y-90710765D01*
X145170671Y-90719030D01*
X145192850Y-90729520D01*
X145213893Y-90742132D01*
X145233599Y-90756747D01*
X145251777Y-90773223D01*
X145268253Y-90791401D01*
X145282868Y-90811107D01*
X145295480Y-90832150D01*
X145305970Y-90854329D01*
X145314235Y-90877428D01*
X145320196Y-90901227D01*
X145323796Y-90925495D01*
X145325000Y-90949999D01*
X145325000Y-91850001D01*
X145323796Y-91874505D01*
X145320196Y-91898773D01*
X145314235Y-91922572D01*
X145305970Y-91945671D01*
X145295480Y-91967850D01*
X145282868Y-91988893D01*
X145268253Y-92008599D01*
X145251777Y-92026777D01*
X145233599Y-92043253D01*
X145213893Y-92057868D01*
X145192850Y-92070480D01*
X145170671Y-92080970D01*
X145147572Y-92089235D01*
X145123773Y-92095196D01*
X145099505Y-92098796D01*
X145075001Y-92100000D01*
X144424999Y-92100000D01*
X144400495Y-92098796D01*
X144376227Y-92095196D01*
X144352428Y-92089235D01*
X144329329Y-92080970D01*
X144307150Y-92070480D01*
X144286107Y-92057868D01*
X144266401Y-92043253D01*
X144248223Y-92026777D01*
X144231747Y-92008599D01*
X144217132Y-91988893D01*
X144204520Y-91967850D01*
X144194030Y-91945671D01*
X144185765Y-91922572D01*
X144179804Y-91898773D01*
X144176204Y-91874505D01*
X144175000Y-91850001D01*
X144175000Y-90949999D01*
X144176204Y-90925495D01*
X144179804Y-90901227D01*
X144185765Y-90877428D01*
X144194030Y-90854329D01*
X144204520Y-90832150D01*
X144217132Y-90811107D01*
X144231747Y-90791401D01*
X144248223Y-90773223D01*
X144266401Y-90756747D01*
X144286107Y-90742132D01*
X144307150Y-90729520D01*
X144329329Y-90719030D01*
X144352428Y-90710765D01*
X144376227Y-90704804D01*
X144400495Y-90701204D01*
X144424999Y-90700000D01*
X145075001Y-90700000D01*
X145099505Y-90701204D01*
X145099505Y-90701204D01*
G37*
D16*
X144750000Y-91400000D03*
D15*
G36*
X147149505Y-90701204D02*
X147173773Y-90704804D01*
X147197572Y-90710765D01*
X147220671Y-90719030D01*
X147242850Y-90729520D01*
X147263893Y-90742132D01*
X147283599Y-90756747D01*
X147301777Y-90773223D01*
X147318253Y-90791401D01*
X147332868Y-90811107D01*
X147345480Y-90832150D01*
X147355970Y-90854329D01*
X147364235Y-90877428D01*
X147370196Y-90901227D01*
X147373796Y-90925495D01*
X147375000Y-90949999D01*
X147375000Y-91850001D01*
X147373796Y-91874505D01*
X147370196Y-91898773D01*
X147364235Y-91922572D01*
X147355970Y-91945671D01*
X147345480Y-91967850D01*
X147332868Y-91988893D01*
X147318253Y-92008599D01*
X147301777Y-92026777D01*
X147283599Y-92043253D01*
X147263893Y-92057868D01*
X147242850Y-92070480D01*
X147220671Y-92080970D01*
X147197572Y-92089235D01*
X147173773Y-92095196D01*
X147149505Y-92098796D01*
X147125001Y-92100000D01*
X146474999Y-92100000D01*
X146450495Y-92098796D01*
X146426227Y-92095196D01*
X146402428Y-92089235D01*
X146379329Y-92080970D01*
X146357150Y-92070480D01*
X146336107Y-92057868D01*
X146316401Y-92043253D01*
X146298223Y-92026777D01*
X146281747Y-92008599D01*
X146267132Y-91988893D01*
X146254520Y-91967850D01*
X146244030Y-91945671D01*
X146235765Y-91922572D01*
X146229804Y-91898773D01*
X146226204Y-91874505D01*
X146225000Y-91850001D01*
X146225000Y-90949999D01*
X146226204Y-90925495D01*
X146229804Y-90901227D01*
X146235765Y-90877428D01*
X146244030Y-90854329D01*
X146254520Y-90832150D01*
X146267132Y-90811107D01*
X146281747Y-90791401D01*
X146298223Y-90773223D01*
X146316401Y-90756747D01*
X146336107Y-90742132D01*
X146357150Y-90729520D01*
X146379329Y-90719030D01*
X146402428Y-90710765D01*
X146426227Y-90704804D01*
X146450495Y-90701204D01*
X146474999Y-90700000D01*
X147125001Y-90700000D01*
X147149505Y-90701204D01*
X147149505Y-90701204D01*
G37*
D16*
X146800000Y-91400000D03*
G04 #@! TD*
D15*
G04 #@! TO.C,C12*
G36*
X143799505Y-140301204D02*
X143823773Y-140304804D01*
X143847572Y-140310765D01*
X143870671Y-140319030D01*
X143892850Y-140329520D01*
X143913893Y-140342132D01*
X143933599Y-140356747D01*
X143951777Y-140373223D01*
X143968253Y-140391401D01*
X143982868Y-140411107D01*
X143995480Y-140432150D01*
X144005970Y-140454329D01*
X144014235Y-140477428D01*
X144020196Y-140501227D01*
X144023796Y-140525495D01*
X144025000Y-140549999D01*
X144025000Y-141450001D01*
X144023796Y-141474505D01*
X144020196Y-141498773D01*
X144014235Y-141522572D01*
X144005970Y-141545671D01*
X143995480Y-141567850D01*
X143982868Y-141588893D01*
X143968253Y-141608599D01*
X143951777Y-141626777D01*
X143933599Y-141643253D01*
X143913893Y-141657868D01*
X143892850Y-141670480D01*
X143870671Y-141680970D01*
X143847572Y-141689235D01*
X143823773Y-141695196D01*
X143799505Y-141698796D01*
X143775001Y-141700000D01*
X143124999Y-141700000D01*
X143100495Y-141698796D01*
X143076227Y-141695196D01*
X143052428Y-141689235D01*
X143029329Y-141680970D01*
X143007150Y-141670480D01*
X142986107Y-141657868D01*
X142966401Y-141643253D01*
X142948223Y-141626777D01*
X142931747Y-141608599D01*
X142917132Y-141588893D01*
X142904520Y-141567850D01*
X142894030Y-141545671D01*
X142885765Y-141522572D01*
X142879804Y-141498773D01*
X142876204Y-141474505D01*
X142875000Y-141450001D01*
X142875000Y-140549999D01*
X142876204Y-140525495D01*
X142879804Y-140501227D01*
X142885765Y-140477428D01*
X142894030Y-140454329D01*
X142904520Y-140432150D01*
X142917132Y-140411107D01*
X142931747Y-140391401D01*
X142948223Y-140373223D01*
X142966401Y-140356747D01*
X142986107Y-140342132D01*
X143007150Y-140329520D01*
X143029329Y-140319030D01*
X143052428Y-140310765D01*
X143076227Y-140304804D01*
X143100495Y-140301204D01*
X143124999Y-140300000D01*
X143775001Y-140300000D01*
X143799505Y-140301204D01*
X143799505Y-140301204D01*
G37*
D16*
X143450000Y-141000000D03*
D15*
G36*
X145849505Y-140301204D02*
X145873773Y-140304804D01*
X145897572Y-140310765D01*
X145920671Y-140319030D01*
X145942850Y-140329520D01*
X145963893Y-140342132D01*
X145983599Y-140356747D01*
X146001777Y-140373223D01*
X146018253Y-140391401D01*
X146032868Y-140411107D01*
X146045480Y-140432150D01*
X146055970Y-140454329D01*
X146064235Y-140477428D01*
X146070196Y-140501227D01*
X146073796Y-140525495D01*
X146075000Y-140549999D01*
X146075000Y-141450001D01*
X146073796Y-141474505D01*
X146070196Y-141498773D01*
X146064235Y-141522572D01*
X146055970Y-141545671D01*
X146045480Y-141567850D01*
X146032868Y-141588893D01*
X146018253Y-141608599D01*
X146001777Y-141626777D01*
X145983599Y-141643253D01*
X145963893Y-141657868D01*
X145942850Y-141670480D01*
X145920671Y-141680970D01*
X145897572Y-141689235D01*
X145873773Y-141695196D01*
X145849505Y-141698796D01*
X145825001Y-141700000D01*
X145174999Y-141700000D01*
X145150495Y-141698796D01*
X145126227Y-141695196D01*
X145102428Y-141689235D01*
X145079329Y-141680970D01*
X145057150Y-141670480D01*
X145036107Y-141657868D01*
X145016401Y-141643253D01*
X144998223Y-141626777D01*
X144981747Y-141608599D01*
X144967132Y-141588893D01*
X144954520Y-141567850D01*
X144944030Y-141545671D01*
X144935765Y-141522572D01*
X144929804Y-141498773D01*
X144926204Y-141474505D01*
X144925000Y-141450001D01*
X144925000Y-140549999D01*
X144926204Y-140525495D01*
X144929804Y-140501227D01*
X144935765Y-140477428D01*
X144944030Y-140454329D01*
X144954520Y-140432150D01*
X144967132Y-140411107D01*
X144981747Y-140391401D01*
X144998223Y-140373223D01*
X145016401Y-140356747D01*
X145036107Y-140342132D01*
X145057150Y-140329520D01*
X145079329Y-140319030D01*
X145102428Y-140310765D01*
X145126227Y-140304804D01*
X145150495Y-140301204D01*
X145174999Y-140300000D01*
X145825001Y-140300000D01*
X145849505Y-140301204D01*
X145849505Y-140301204D01*
G37*
D16*
X145500000Y-141000000D03*
G04 #@! TD*
D15*
G04 #@! TO.C,C13*
G36*
X171474505Y-109376204D02*
X171498773Y-109379804D01*
X171522572Y-109385765D01*
X171545671Y-109394030D01*
X171567850Y-109404520D01*
X171588893Y-109417132D01*
X171608599Y-109431747D01*
X171626777Y-109448223D01*
X171643253Y-109466401D01*
X171657868Y-109486107D01*
X171670480Y-109507150D01*
X171680970Y-109529329D01*
X171689235Y-109552428D01*
X171695196Y-109576227D01*
X171698796Y-109600495D01*
X171700000Y-109624999D01*
X171700000Y-110275001D01*
X171698796Y-110299505D01*
X171695196Y-110323773D01*
X171689235Y-110347572D01*
X171680970Y-110370671D01*
X171670480Y-110392850D01*
X171657868Y-110413893D01*
X171643253Y-110433599D01*
X171626777Y-110451777D01*
X171608599Y-110468253D01*
X171588893Y-110482868D01*
X171567850Y-110495480D01*
X171545671Y-110505970D01*
X171522572Y-110514235D01*
X171498773Y-110520196D01*
X171474505Y-110523796D01*
X171450001Y-110525000D01*
X170549999Y-110525000D01*
X170525495Y-110523796D01*
X170501227Y-110520196D01*
X170477428Y-110514235D01*
X170454329Y-110505970D01*
X170432150Y-110495480D01*
X170411107Y-110482868D01*
X170391401Y-110468253D01*
X170373223Y-110451777D01*
X170356747Y-110433599D01*
X170342132Y-110413893D01*
X170329520Y-110392850D01*
X170319030Y-110370671D01*
X170310765Y-110347572D01*
X170304804Y-110323773D01*
X170301204Y-110299505D01*
X170300000Y-110275001D01*
X170300000Y-109624999D01*
X170301204Y-109600495D01*
X170304804Y-109576227D01*
X170310765Y-109552428D01*
X170319030Y-109529329D01*
X170329520Y-109507150D01*
X170342132Y-109486107D01*
X170356747Y-109466401D01*
X170373223Y-109448223D01*
X170391401Y-109431747D01*
X170411107Y-109417132D01*
X170432150Y-109404520D01*
X170454329Y-109394030D01*
X170477428Y-109385765D01*
X170501227Y-109379804D01*
X170525495Y-109376204D01*
X170549999Y-109375000D01*
X171450001Y-109375000D01*
X171474505Y-109376204D01*
X171474505Y-109376204D01*
G37*
D16*
X171000000Y-109950000D03*
D15*
G36*
X171474505Y-111426204D02*
X171498773Y-111429804D01*
X171522572Y-111435765D01*
X171545671Y-111444030D01*
X171567850Y-111454520D01*
X171588893Y-111467132D01*
X171608599Y-111481747D01*
X171626777Y-111498223D01*
X171643253Y-111516401D01*
X171657868Y-111536107D01*
X171670480Y-111557150D01*
X171680970Y-111579329D01*
X171689235Y-111602428D01*
X171695196Y-111626227D01*
X171698796Y-111650495D01*
X171700000Y-111674999D01*
X171700000Y-112325001D01*
X171698796Y-112349505D01*
X171695196Y-112373773D01*
X171689235Y-112397572D01*
X171680970Y-112420671D01*
X171670480Y-112442850D01*
X171657868Y-112463893D01*
X171643253Y-112483599D01*
X171626777Y-112501777D01*
X171608599Y-112518253D01*
X171588893Y-112532868D01*
X171567850Y-112545480D01*
X171545671Y-112555970D01*
X171522572Y-112564235D01*
X171498773Y-112570196D01*
X171474505Y-112573796D01*
X171450001Y-112575000D01*
X170549999Y-112575000D01*
X170525495Y-112573796D01*
X170501227Y-112570196D01*
X170477428Y-112564235D01*
X170454329Y-112555970D01*
X170432150Y-112545480D01*
X170411107Y-112532868D01*
X170391401Y-112518253D01*
X170373223Y-112501777D01*
X170356747Y-112483599D01*
X170342132Y-112463893D01*
X170329520Y-112442850D01*
X170319030Y-112420671D01*
X170310765Y-112397572D01*
X170304804Y-112373773D01*
X170301204Y-112349505D01*
X170300000Y-112325001D01*
X170300000Y-111674999D01*
X170301204Y-111650495D01*
X170304804Y-111626227D01*
X170310765Y-111602428D01*
X170319030Y-111579329D01*
X170329520Y-111557150D01*
X170342132Y-111536107D01*
X170356747Y-111516401D01*
X170373223Y-111498223D01*
X170391401Y-111481747D01*
X170411107Y-111467132D01*
X170432150Y-111454520D01*
X170454329Y-111444030D01*
X170477428Y-111435765D01*
X170501227Y-111429804D01*
X170525495Y-111426204D01*
X170549999Y-111425000D01*
X171450001Y-111425000D01*
X171474505Y-111426204D01*
X171474505Y-111426204D01*
G37*
D16*
X171000000Y-112000000D03*
G04 #@! TD*
D15*
G04 #@! TO.C,C14*
G36*
X173474505Y-111451204D02*
X173498773Y-111454804D01*
X173522572Y-111460765D01*
X173545671Y-111469030D01*
X173567850Y-111479520D01*
X173588893Y-111492132D01*
X173608599Y-111506747D01*
X173626777Y-111523223D01*
X173643253Y-111541401D01*
X173657868Y-111561107D01*
X173670480Y-111582150D01*
X173680970Y-111604329D01*
X173689235Y-111627428D01*
X173695196Y-111651227D01*
X173698796Y-111675495D01*
X173700000Y-111699999D01*
X173700000Y-112350001D01*
X173698796Y-112374505D01*
X173695196Y-112398773D01*
X173689235Y-112422572D01*
X173680970Y-112445671D01*
X173670480Y-112467850D01*
X173657868Y-112488893D01*
X173643253Y-112508599D01*
X173626777Y-112526777D01*
X173608599Y-112543253D01*
X173588893Y-112557868D01*
X173567850Y-112570480D01*
X173545671Y-112580970D01*
X173522572Y-112589235D01*
X173498773Y-112595196D01*
X173474505Y-112598796D01*
X173450001Y-112600000D01*
X172549999Y-112600000D01*
X172525495Y-112598796D01*
X172501227Y-112595196D01*
X172477428Y-112589235D01*
X172454329Y-112580970D01*
X172432150Y-112570480D01*
X172411107Y-112557868D01*
X172391401Y-112543253D01*
X172373223Y-112526777D01*
X172356747Y-112508599D01*
X172342132Y-112488893D01*
X172329520Y-112467850D01*
X172319030Y-112445671D01*
X172310765Y-112422572D01*
X172304804Y-112398773D01*
X172301204Y-112374505D01*
X172300000Y-112350001D01*
X172300000Y-111699999D01*
X172301204Y-111675495D01*
X172304804Y-111651227D01*
X172310765Y-111627428D01*
X172319030Y-111604329D01*
X172329520Y-111582150D01*
X172342132Y-111561107D01*
X172356747Y-111541401D01*
X172373223Y-111523223D01*
X172391401Y-111506747D01*
X172411107Y-111492132D01*
X172432150Y-111479520D01*
X172454329Y-111469030D01*
X172477428Y-111460765D01*
X172501227Y-111454804D01*
X172525495Y-111451204D01*
X172549999Y-111450000D01*
X173450001Y-111450000D01*
X173474505Y-111451204D01*
X173474505Y-111451204D01*
G37*
D16*
X173000000Y-112025000D03*
D15*
G36*
X173474505Y-109401204D02*
X173498773Y-109404804D01*
X173522572Y-109410765D01*
X173545671Y-109419030D01*
X173567850Y-109429520D01*
X173588893Y-109442132D01*
X173608599Y-109456747D01*
X173626777Y-109473223D01*
X173643253Y-109491401D01*
X173657868Y-109511107D01*
X173670480Y-109532150D01*
X173680970Y-109554329D01*
X173689235Y-109577428D01*
X173695196Y-109601227D01*
X173698796Y-109625495D01*
X173700000Y-109649999D01*
X173700000Y-110300001D01*
X173698796Y-110324505D01*
X173695196Y-110348773D01*
X173689235Y-110372572D01*
X173680970Y-110395671D01*
X173670480Y-110417850D01*
X173657868Y-110438893D01*
X173643253Y-110458599D01*
X173626777Y-110476777D01*
X173608599Y-110493253D01*
X173588893Y-110507868D01*
X173567850Y-110520480D01*
X173545671Y-110530970D01*
X173522572Y-110539235D01*
X173498773Y-110545196D01*
X173474505Y-110548796D01*
X173450001Y-110550000D01*
X172549999Y-110550000D01*
X172525495Y-110548796D01*
X172501227Y-110545196D01*
X172477428Y-110539235D01*
X172454329Y-110530970D01*
X172432150Y-110520480D01*
X172411107Y-110507868D01*
X172391401Y-110493253D01*
X172373223Y-110476777D01*
X172356747Y-110458599D01*
X172342132Y-110438893D01*
X172329520Y-110417850D01*
X172319030Y-110395671D01*
X172310765Y-110372572D01*
X172304804Y-110348773D01*
X172301204Y-110324505D01*
X172300000Y-110300001D01*
X172300000Y-109649999D01*
X172301204Y-109625495D01*
X172304804Y-109601227D01*
X172310765Y-109577428D01*
X172319030Y-109554329D01*
X172329520Y-109532150D01*
X172342132Y-109511107D01*
X172356747Y-109491401D01*
X172373223Y-109473223D01*
X172391401Y-109456747D01*
X172411107Y-109442132D01*
X172432150Y-109429520D01*
X172454329Y-109419030D01*
X172477428Y-109410765D01*
X172501227Y-109404804D01*
X172525495Y-109401204D01*
X172549999Y-109400000D01*
X173450001Y-109400000D01*
X173474505Y-109401204D01*
X173474505Y-109401204D01*
G37*
D16*
X173000000Y-109975000D03*
G04 #@! TD*
D15*
G04 #@! TO.C,R1*
G36*
X157954505Y-102176204D02*
X157978773Y-102179804D01*
X158002572Y-102185765D01*
X158025671Y-102194030D01*
X158047850Y-102204520D01*
X158068893Y-102217132D01*
X158088599Y-102231747D01*
X158106777Y-102248223D01*
X158123253Y-102266401D01*
X158137868Y-102286107D01*
X158150480Y-102307150D01*
X158160970Y-102329329D01*
X158169235Y-102352428D01*
X158175196Y-102376227D01*
X158178796Y-102400495D01*
X158180000Y-102424999D01*
X158180000Y-103075001D01*
X158178796Y-103099505D01*
X158175196Y-103123773D01*
X158169235Y-103147572D01*
X158160970Y-103170671D01*
X158150480Y-103192850D01*
X158137868Y-103213893D01*
X158123253Y-103233599D01*
X158106777Y-103251777D01*
X158088599Y-103268253D01*
X158068893Y-103282868D01*
X158047850Y-103295480D01*
X158025671Y-103305970D01*
X158002572Y-103314235D01*
X157978773Y-103320196D01*
X157954505Y-103323796D01*
X157930001Y-103325000D01*
X157029999Y-103325000D01*
X157005495Y-103323796D01*
X156981227Y-103320196D01*
X156957428Y-103314235D01*
X156934329Y-103305970D01*
X156912150Y-103295480D01*
X156891107Y-103282868D01*
X156871401Y-103268253D01*
X156853223Y-103251777D01*
X156836747Y-103233599D01*
X156822132Y-103213893D01*
X156809520Y-103192850D01*
X156799030Y-103170671D01*
X156790765Y-103147572D01*
X156784804Y-103123773D01*
X156781204Y-103099505D01*
X156780000Y-103075001D01*
X156780000Y-102424999D01*
X156781204Y-102400495D01*
X156784804Y-102376227D01*
X156790765Y-102352428D01*
X156799030Y-102329329D01*
X156809520Y-102307150D01*
X156822132Y-102286107D01*
X156836747Y-102266401D01*
X156853223Y-102248223D01*
X156871401Y-102231747D01*
X156891107Y-102217132D01*
X156912150Y-102204520D01*
X156934329Y-102194030D01*
X156957428Y-102185765D01*
X156981227Y-102179804D01*
X157005495Y-102176204D01*
X157029999Y-102175000D01*
X157930001Y-102175000D01*
X157954505Y-102176204D01*
X157954505Y-102176204D01*
G37*
D16*
X157480000Y-102750000D03*
D15*
G36*
X157954505Y-104226204D02*
X157978773Y-104229804D01*
X158002572Y-104235765D01*
X158025671Y-104244030D01*
X158047850Y-104254520D01*
X158068893Y-104267132D01*
X158088599Y-104281747D01*
X158106777Y-104298223D01*
X158123253Y-104316401D01*
X158137868Y-104336107D01*
X158150480Y-104357150D01*
X158160970Y-104379329D01*
X158169235Y-104402428D01*
X158175196Y-104426227D01*
X158178796Y-104450495D01*
X158180000Y-104474999D01*
X158180000Y-105125001D01*
X158178796Y-105149505D01*
X158175196Y-105173773D01*
X158169235Y-105197572D01*
X158160970Y-105220671D01*
X158150480Y-105242850D01*
X158137868Y-105263893D01*
X158123253Y-105283599D01*
X158106777Y-105301777D01*
X158088599Y-105318253D01*
X158068893Y-105332868D01*
X158047850Y-105345480D01*
X158025671Y-105355970D01*
X158002572Y-105364235D01*
X157978773Y-105370196D01*
X157954505Y-105373796D01*
X157930001Y-105375000D01*
X157029999Y-105375000D01*
X157005495Y-105373796D01*
X156981227Y-105370196D01*
X156957428Y-105364235D01*
X156934329Y-105355970D01*
X156912150Y-105345480D01*
X156891107Y-105332868D01*
X156871401Y-105318253D01*
X156853223Y-105301777D01*
X156836747Y-105283599D01*
X156822132Y-105263893D01*
X156809520Y-105242850D01*
X156799030Y-105220671D01*
X156790765Y-105197572D01*
X156784804Y-105173773D01*
X156781204Y-105149505D01*
X156780000Y-105125001D01*
X156780000Y-104474999D01*
X156781204Y-104450495D01*
X156784804Y-104426227D01*
X156790765Y-104402428D01*
X156799030Y-104379329D01*
X156809520Y-104357150D01*
X156822132Y-104336107D01*
X156836747Y-104316401D01*
X156853223Y-104298223D01*
X156871401Y-104281747D01*
X156891107Y-104267132D01*
X156912150Y-104254520D01*
X156934329Y-104244030D01*
X156957428Y-104235765D01*
X156981227Y-104229804D01*
X157005495Y-104226204D01*
X157029999Y-104225000D01*
X157930001Y-104225000D01*
X157954505Y-104226204D01*
X157954505Y-104226204D01*
G37*
D16*
X157480000Y-104800000D03*
G04 #@! TD*
D15*
G04 #@! TO.C,R2*
G36*
X148074505Y-79801204D02*
X148098773Y-79804804D01*
X148122572Y-79810765D01*
X148145671Y-79819030D01*
X148167850Y-79829520D01*
X148188893Y-79842132D01*
X148208599Y-79856747D01*
X148226777Y-79873223D01*
X148243253Y-79891401D01*
X148257868Y-79911107D01*
X148270480Y-79932150D01*
X148280970Y-79954329D01*
X148289235Y-79977428D01*
X148295196Y-80001227D01*
X148298796Y-80025495D01*
X148300000Y-80049999D01*
X148300000Y-80950001D01*
X148298796Y-80974505D01*
X148295196Y-80998773D01*
X148289235Y-81022572D01*
X148280970Y-81045671D01*
X148270480Y-81067850D01*
X148257868Y-81088893D01*
X148243253Y-81108599D01*
X148226777Y-81126777D01*
X148208599Y-81143253D01*
X148188893Y-81157868D01*
X148167850Y-81170480D01*
X148145671Y-81180970D01*
X148122572Y-81189235D01*
X148098773Y-81195196D01*
X148074505Y-81198796D01*
X148050001Y-81200000D01*
X147399999Y-81200000D01*
X147375495Y-81198796D01*
X147351227Y-81195196D01*
X147327428Y-81189235D01*
X147304329Y-81180970D01*
X147282150Y-81170480D01*
X147261107Y-81157868D01*
X147241401Y-81143253D01*
X147223223Y-81126777D01*
X147206747Y-81108599D01*
X147192132Y-81088893D01*
X147179520Y-81067850D01*
X147169030Y-81045671D01*
X147160765Y-81022572D01*
X147154804Y-80998773D01*
X147151204Y-80974505D01*
X147150000Y-80950001D01*
X147150000Y-80049999D01*
X147151204Y-80025495D01*
X147154804Y-80001227D01*
X147160765Y-79977428D01*
X147169030Y-79954329D01*
X147179520Y-79932150D01*
X147192132Y-79911107D01*
X147206747Y-79891401D01*
X147223223Y-79873223D01*
X147241401Y-79856747D01*
X147261107Y-79842132D01*
X147282150Y-79829520D01*
X147304329Y-79819030D01*
X147327428Y-79810765D01*
X147351227Y-79804804D01*
X147375495Y-79801204D01*
X147399999Y-79800000D01*
X148050001Y-79800000D01*
X148074505Y-79801204D01*
X148074505Y-79801204D01*
G37*
D16*
X147725000Y-80500000D03*
D15*
G36*
X150124505Y-79801204D02*
X150148773Y-79804804D01*
X150172572Y-79810765D01*
X150195671Y-79819030D01*
X150217850Y-79829520D01*
X150238893Y-79842132D01*
X150258599Y-79856747D01*
X150276777Y-79873223D01*
X150293253Y-79891401D01*
X150307868Y-79911107D01*
X150320480Y-79932150D01*
X150330970Y-79954329D01*
X150339235Y-79977428D01*
X150345196Y-80001227D01*
X150348796Y-80025495D01*
X150350000Y-80049999D01*
X150350000Y-80950001D01*
X150348796Y-80974505D01*
X150345196Y-80998773D01*
X150339235Y-81022572D01*
X150330970Y-81045671D01*
X150320480Y-81067850D01*
X150307868Y-81088893D01*
X150293253Y-81108599D01*
X150276777Y-81126777D01*
X150258599Y-81143253D01*
X150238893Y-81157868D01*
X150217850Y-81170480D01*
X150195671Y-81180970D01*
X150172572Y-81189235D01*
X150148773Y-81195196D01*
X150124505Y-81198796D01*
X150100001Y-81200000D01*
X149449999Y-81200000D01*
X149425495Y-81198796D01*
X149401227Y-81195196D01*
X149377428Y-81189235D01*
X149354329Y-81180970D01*
X149332150Y-81170480D01*
X149311107Y-81157868D01*
X149291401Y-81143253D01*
X149273223Y-81126777D01*
X149256747Y-81108599D01*
X149242132Y-81088893D01*
X149229520Y-81067850D01*
X149219030Y-81045671D01*
X149210765Y-81022572D01*
X149204804Y-80998773D01*
X149201204Y-80974505D01*
X149200000Y-80950001D01*
X149200000Y-80049999D01*
X149201204Y-80025495D01*
X149204804Y-80001227D01*
X149210765Y-79977428D01*
X149219030Y-79954329D01*
X149229520Y-79932150D01*
X149242132Y-79911107D01*
X149256747Y-79891401D01*
X149273223Y-79873223D01*
X149291401Y-79856747D01*
X149311107Y-79842132D01*
X149332150Y-79829520D01*
X149354329Y-79819030D01*
X149377428Y-79810765D01*
X149401227Y-79804804D01*
X149425495Y-79801204D01*
X149449999Y-79800000D01*
X150100001Y-79800000D01*
X150124505Y-79801204D01*
X150124505Y-79801204D01*
G37*
D16*
X149775000Y-80500000D03*
G04 #@! TD*
D15*
G04 #@! TO.C,R3*
G36*
X132974505Y-105151204D02*
X132998773Y-105154804D01*
X133022572Y-105160765D01*
X133045671Y-105169030D01*
X133067850Y-105179520D01*
X133088893Y-105192132D01*
X133108599Y-105206747D01*
X133126777Y-105223223D01*
X133143253Y-105241401D01*
X133157868Y-105261107D01*
X133170480Y-105282150D01*
X133180970Y-105304329D01*
X133189235Y-105327428D01*
X133195196Y-105351227D01*
X133198796Y-105375495D01*
X133200000Y-105399999D01*
X133200000Y-106050001D01*
X133198796Y-106074505D01*
X133195196Y-106098773D01*
X133189235Y-106122572D01*
X133180970Y-106145671D01*
X133170480Y-106167850D01*
X133157868Y-106188893D01*
X133143253Y-106208599D01*
X133126777Y-106226777D01*
X133108599Y-106243253D01*
X133088893Y-106257868D01*
X133067850Y-106270480D01*
X133045671Y-106280970D01*
X133022572Y-106289235D01*
X132998773Y-106295196D01*
X132974505Y-106298796D01*
X132950001Y-106300000D01*
X132049999Y-106300000D01*
X132025495Y-106298796D01*
X132001227Y-106295196D01*
X131977428Y-106289235D01*
X131954329Y-106280970D01*
X131932150Y-106270480D01*
X131911107Y-106257868D01*
X131891401Y-106243253D01*
X131873223Y-106226777D01*
X131856747Y-106208599D01*
X131842132Y-106188893D01*
X131829520Y-106167850D01*
X131819030Y-106145671D01*
X131810765Y-106122572D01*
X131804804Y-106098773D01*
X131801204Y-106074505D01*
X131800000Y-106050001D01*
X131800000Y-105399999D01*
X131801204Y-105375495D01*
X131804804Y-105351227D01*
X131810765Y-105327428D01*
X131819030Y-105304329D01*
X131829520Y-105282150D01*
X131842132Y-105261107D01*
X131856747Y-105241401D01*
X131873223Y-105223223D01*
X131891401Y-105206747D01*
X131911107Y-105192132D01*
X131932150Y-105179520D01*
X131954329Y-105169030D01*
X131977428Y-105160765D01*
X132001227Y-105154804D01*
X132025495Y-105151204D01*
X132049999Y-105150000D01*
X132950001Y-105150000D01*
X132974505Y-105151204D01*
X132974505Y-105151204D01*
G37*
D16*
X132500000Y-105725000D03*
D15*
G36*
X132974505Y-107201204D02*
X132998773Y-107204804D01*
X133022572Y-107210765D01*
X133045671Y-107219030D01*
X133067850Y-107229520D01*
X133088893Y-107242132D01*
X133108599Y-107256747D01*
X133126777Y-107273223D01*
X133143253Y-107291401D01*
X133157868Y-107311107D01*
X133170480Y-107332150D01*
X133180970Y-107354329D01*
X133189235Y-107377428D01*
X133195196Y-107401227D01*
X133198796Y-107425495D01*
X133200000Y-107449999D01*
X133200000Y-108100001D01*
X133198796Y-108124505D01*
X133195196Y-108148773D01*
X133189235Y-108172572D01*
X133180970Y-108195671D01*
X133170480Y-108217850D01*
X133157868Y-108238893D01*
X133143253Y-108258599D01*
X133126777Y-108276777D01*
X133108599Y-108293253D01*
X133088893Y-108307868D01*
X133067850Y-108320480D01*
X133045671Y-108330970D01*
X133022572Y-108339235D01*
X132998773Y-108345196D01*
X132974505Y-108348796D01*
X132950001Y-108350000D01*
X132049999Y-108350000D01*
X132025495Y-108348796D01*
X132001227Y-108345196D01*
X131977428Y-108339235D01*
X131954329Y-108330970D01*
X131932150Y-108320480D01*
X131911107Y-108307868D01*
X131891401Y-108293253D01*
X131873223Y-108276777D01*
X131856747Y-108258599D01*
X131842132Y-108238893D01*
X131829520Y-108217850D01*
X131819030Y-108195671D01*
X131810765Y-108172572D01*
X131804804Y-108148773D01*
X131801204Y-108124505D01*
X131800000Y-108100001D01*
X131800000Y-107449999D01*
X131801204Y-107425495D01*
X131804804Y-107401227D01*
X131810765Y-107377428D01*
X131819030Y-107354329D01*
X131829520Y-107332150D01*
X131842132Y-107311107D01*
X131856747Y-107291401D01*
X131873223Y-107273223D01*
X131891401Y-107256747D01*
X131911107Y-107242132D01*
X131932150Y-107229520D01*
X131954329Y-107219030D01*
X131977428Y-107210765D01*
X132001227Y-107204804D01*
X132025495Y-107201204D01*
X132049999Y-107200000D01*
X132950001Y-107200000D01*
X132974505Y-107201204D01*
X132974505Y-107201204D01*
G37*
D16*
X132500000Y-107775000D03*
G04 #@! TD*
D15*
G04 #@! TO.C,R4*
G36*
X165224505Y-107201204D02*
X165248773Y-107204804D01*
X165272572Y-107210765D01*
X165295671Y-107219030D01*
X165317850Y-107229520D01*
X165338893Y-107242132D01*
X165358599Y-107256747D01*
X165376777Y-107273223D01*
X165393253Y-107291401D01*
X165407868Y-107311107D01*
X165420480Y-107332150D01*
X165430970Y-107354329D01*
X165439235Y-107377428D01*
X165445196Y-107401227D01*
X165448796Y-107425495D01*
X165450000Y-107449999D01*
X165450000Y-108100001D01*
X165448796Y-108124505D01*
X165445196Y-108148773D01*
X165439235Y-108172572D01*
X165430970Y-108195671D01*
X165420480Y-108217850D01*
X165407868Y-108238893D01*
X165393253Y-108258599D01*
X165376777Y-108276777D01*
X165358599Y-108293253D01*
X165338893Y-108307868D01*
X165317850Y-108320480D01*
X165295671Y-108330970D01*
X165272572Y-108339235D01*
X165248773Y-108345196D01*
X165224505Y-108348796D01*
X165200001Y-108350000D01*
X164299999Y-108350000D01*
X164275495Y-108348796D01*
X164251227Y-108345196D01*
X164227428Y-108339235D01*
X164204329Y-108330970D01*
X164182150Y-108320480D01*
X164161107Y-108307868D01*
X164141401Y-108293253D01*
X164123223Y-108276777D01*
X164106747Y-108258599D01*
X164092132Y-108238893D01*
X164079520Y-108217850D01*
X164069030Y-108195671D01*
X164060765Y-108172572D01*
X164054804Y-108148773D01*
X164051204Y-108124505D01*
X164050000Y-108100001D01*
X164050000Y-107449999D01*
X164051204Y-107425495D01*
X164054804Y-107401227D01*
X164060765Y-107377428D01*
X164069030Y-107354329D01*
X164079520Y-107332150D01*
X164092132Y-107311107D01*
X164106747Y-107291401D01*
X164123223Y-107273223D01*
X164141401Y-107256747D01*
X164161107Y-107242132D01*
X164182150Y-107229520D01*
X164204329Y-107219030D01*
X164227428Y-107210765D01*
X164251227Y-107204804D01*
X164275495Y-107201204D01*
X164299999Y-107200000D01*
X165200001Y-107200000D01*
X165224505Y-107201204D01*
X165224505Y-107201204D01*
G37*
D16*
X164750000Y-107775000D03*
D15*
G36*
X165224505Y-105151204D02*
X165248773Y-105154804D01*
X165272572Y-105160765D01*
X165295671Y-105169030D01*
X165317850Y-105179520D01*
X165338893Y-105192132D01*
X165358599Y-105206747D01*
X165376777Y-105223223D01*
X165393253Y-105241401D01*
X165407868Y-105261107D01*
X165420480Y-105282150D01*
X165430970Y-105304329D01*
X165439235Y-105327428D01*
X165445196Y-105351227D01*
X165448796Y-105375495D01*
X165450000Y-105399999D01*
X165450000Y-106050001D01*
X165448796Y-106074505D01*
X165445196Y-106098773D01*
X165439235Y-106122572D01*
X165430970Y-106145671D01*
X165420480Y-106167850D01*
X165407868Y-106188893D01*
X165393253Y-106208599D01*
X165376777Y-106226777D01*
X165358599Y-106243253D01*
X165338893Y-106257868D01*
X165317850Y-106270480D01*
X165295671Y-106280970D01*
X165272572Y-106289235D01*
X165248773Y-106295196D01*
X165224505Y-106298796D01*
X165200001Y-106300000D01*
X164299999Y-106300000D01*
X164275495Y-106298796D01*
X164251227Y-106295196D01*
X164227428Y-106289235D01*
X164204329Y-106280970D01*
X164182150Y-106270480D01*
X164161107Y-106257868D01*
X164141401Y-106243253D01*
X164123223Y-106226777D01*
X164106747Y-106208599D01*
X164092132Y-106188893D01*
X164079520Y-106167850D01*
X164069030Y-106145671D01*
X164060765Y-106122572D01*
X164054804Y-106098773D01*
X164051204Y-106074505D01*
X164050000Y-106050001D01*
X164050000Y-105399999D01*
X164051204Y-105375495D01*
X164054804Y-105351227D01*
X164060765Y-105327428D01*
X164069030Y-105304329D01*
X164079520Y-105282150D01*
X164092132Y-105261107D01*
X164106747Y-105241401D01*
X164123223Y-105223223D01*
X164141401Y-105206747D01*
X164161107Y-105192132D01*
X164182150Y-105179520D01*
X164204329Y-105169030D01*
X164227428Y-105160765D01*
X164251227Y-105154804D01*
X164275495Y-105151204D01*
X164299999Y-105150000D01*
X165200001Y-105150000D01*
X165224505Y-105151204D01*
X165224505Y-105151204D01*
G37*
D16*
X164750000Y-105725000D03*
G04 #@! TD*
D15*
G04 #@! TO.C,R5*
G36*
X150124505Y-132051204D02*
X150148773Y-132054804D01*
X150172572Y-132060765D01*
X150195671Y-132069030D01*
X150217850Y-132079520D01*
X150238893Y-132092132D01*
X150258599Y-132106747D01*
X150276777Y-132123223D01*
X150293253Y-132141401D01*
X150307868Y-132161107D01*
X150320480Y-132182150D01*
X150330970Y-132204329D01*
X150339235Y-132227428D01*
X150345196Y-132251227D01*
X150348796Y-132275495D01*
X150350000Y-132299999D01*
X150350000Y-133200001D01*
X150348796Y-133224505D01*
X150345196Y-133248773D01*
X150339235Y-133272572D01*
X150330970Y-133295671D01*
X150320480Y-133317850D01*
X150307868Y-133338893D01*
X150293253Y-133358599D01*
X150276777Y-133376777D01*
X150258599Y-133393253D01*
X150238893Y-133407868D01*
X150217850Y-133420480D01*
X150195671Y-133430970D01*
X150172572Y-133439235D01*
X150148773Y-133445196D01*
X150124505Y-133448796D01*
X150100001Y-133450000D01*
X149449999Y-133450000D01*
X149425495Y-133448796D01*
X149401227Y-133445196D01*
X149377428Y-133439235D01*
X149354329Y-133430970D01*
X149332150Y-133420480D01*
X149311107Y-133407868D01*
X149291401Y-133393253D01*
X149273223Y-133376777D01*
X149256747Y-133358599D01*
X149242132Y-133338893D01*
X149229520Y-133317850D01*
X149219030Y-133295671D01*
X149210765Y-133272572D01*
X149204804Y-133248773D01*
X149201204Y-133224505D01*
X149200000Y-133200001D01*
X149200000Y-132299999D01*
X149201204Y-132275495D01*
X149204804Y-132251227D01*
X149210765Y-132227428D01*
X149219030Y-132204329D01*
X149229520Y-132182150D01*
X149242132Y-132161107D01*
X149256747Y-132141401D01*
X149273223Y-132123223D01*
X149291401Y-132106747D01*
X149311107Y-132092132D01*
X149332150Y-132079520D01*
X149354329Y-132069030D01*
X149377428Y-132060765D01*
X149401227Y-132054804D01*
X149425495Y-132051204D01*
X149449999Y-132050000D01*
X150100001Y-132050000D01*
X150124505Y-132051204D01*
X150124505Y-132051204D01*
G37*
D16*
X149775000Y-132750000D03*
D15*
G36*
X148074505Y-132051204D02*
X148098773Y-132054804D01*
X148122572Y-132060765D01*
X148145671Y-132069030D01*
X148167850Y-132079520D01*
X148188893Y-132092132D01*
X148208599Y-132106747D01*
X148226777Y-132123223D01*
X148243253Y-132141401D01*
X148257868Y-132161107D01*
X148270480Y-132182150D01*
X148280970Y-132204329D01*
X148289235Y-132227428D01*
X148295196Y-132251227D01*
X148298796Y-132275495D01*
X148300000Y-132299999D01*
X148300000Y-133200001D01*
X148298796Y-133224505D01*
X148295196Y-133248773D01*
X148289235Y-133272572D01*
X148280970Y-133295671D01*
X148270480Y-133317850D01*
X148257868Y-133338893D01*
X148243253Y-133358599D01*
X148226777Y-133376777D01*
X148208599Y-133393253D01*
X148188893Y-133407868D01*
X148167850Y-133420480D01*
X148145671Y-133430970D01*
X148122572Y-133439235D01*
X148098773Y-133445196D01*
X148074505Y-133448796D01*
X148050001Y-133450000D01*
X147399999Y-133450000D01*
X147375495Y-133448796D01*
X147351227Y-133445196D01*
X147327428Y-133439235D01*
X147304329Y-133430970D01*
X147282150Y-133420480D01*
X147261107Y-133407868D01*
X147241401Y-133393253D01*
X147223223Y-133376777D01*
X147206747Y-133358599D01*
X147192132Y-133338893D01*
X147179520Y-133317850D01*
X147169030Y-133295671D01*
X147160765Y-133272572D01*
X147154804Y-133248773D01*
X147151204Y-133224505D01*
X147150000Y-133200001D01*
X147150000Y-132299999D01*
X147151204Y-132275495D01*
X147154804Y-132251227D01*
X147160765Y-132227428D01*
X147169030Y-132204329D01*
X147179520Y-132182150D01*
X147192132Y-132161107D01*
X147206747Y-132141401D01*
X147223223Y-132123223D01*
X147241401Y-132106747D01*
X147261107Y-132092132D01*
X147282150Y-132079520D01*
X147304329Y-132069030D01*
X147327428Y-132060765D01*
X147351227Y-132054804D01*
X147375495Y-132051204D01*
X147399999Y-132050000D01*
X148050001Y-132050000D01*
X148074505Y-132051204D01*
X148074505Y-132051204D01*
G37*
D16*
X147725000Y-132750000D03*
G04 #@! TD*
D15*
G04 #@! TO.C,R6*
G36*
X164549505Y-94051204D02*
X164573773Y-94054804D01*
X164597572Y-94060765D01*
X164620671Y-94069030D01*
X164642850Y-94079520D01*
X164663893Y-94092132D01*
X164683599Y-94106747D01*
X164701777Y-94123223D01*
X164718253Y-94141401D01*
X164732868Y-94161107D01*
X164745480Y-94182150D01*
X164755970Y-94204329D01*
X164764235Y-94227428D01*
X164770196Y-94251227D01*
X164773796Y-94275495D01*
X164775000Y-94299999D01*
X164775000Y-95200001D01*
X164773796Y-95224505D01*
X164770196Y-95248773D01*
X164764235Y-95272572D01*
X164755970Y-95295671D01*
X164745480Y-95317850D01*
X164732868Y-95338893D01*
X164718253Y-95358599D01*
X164701777Y-95376777D01*
X164683599Y-95393253D01*
X164663893Y-95407868D01*
X164642850Y-95420480D01*
X164620671Y-95430970D01*
X164597572Y-95439235D01*
X164573773Y-95445196D01*
X164549505Y-95448796D01*
X164525001Y-95450000D01*
X163874999Y-95450000D01*
X163850495Y-95448796D01*
X163826227Y-95445196D01*
X163802428Y-95439235D01*
X163779329Y-95430970D01*
X163757150Y-95420480D01*
X163736107Y-95407868D01*
X163716401Y-95393253D01*
X163698223Y-95376777D01*
X163681747Y-95358599D01*
X163667132Y-95338893D01*
X163654520Y-95317850D01*
X163644030Y-95295671D01*
X163635765Y-95272572D01*
X163629804Y-95248773D01*
X163626204Y-95224505D01*
X163625000Y-95200001D01*
X163625000Y-94299999D01*
X163626204Y-94275495D01*
X163629804Y-94251227D01*
X163635765Y-94227428D01*
X163644030Y-94204329D01*
X163654520Y-94182150D01*
X163667132Y-94161107D01*
X163681747Y-94141401D01*
X163698223Y-94123223D01*
X163716401Y-94106747D01*
X163736107Y-94092132D01*
X163757150Y-94079520D01*
X163779329Y-94069030D01*
X163802428Y-94060765D01*
X163826227Y-94054804D01*
X163850495Y-94051204D01*
X163874999Y-94050000D01*
X164525001Y-94050000D01*
X164549505Y-94051204D01*
X164549505Y-94051204D01*
G37*
D16*
X164200000Y-94750000D03*
D15*
G36*
X166599505Y-94051204D02*
X166623773Y-94054804D01*
X166647572Y-94060765D01*
X166670671Y-94069030D01*
X166692850Y-94079520D01*
X166713893Y-94092132D01*
X166733599Y-94106747D01*
X166751777Y-94123223D01*
X166768253Y-94141401D01*
X166782868Y-94161107D01*
X166795480Y-94182150D01*
X166805970Y-94204329D01*
X166814235Y-94227428D01*
X166820196Y-94251227D01*
X166823796Y-94275495D01*
X166825000Y-94299999D01*
X166825000Y-95200001D01*
X166823796Y-95224505D01*
X166820196Y-95248773D01*
X166814235Y-95272572D01*
X166805970Y-95295671D01*
X166795480Y-95317850D01*
X166782868Y-95338893D01*
X166768253Y-95358599D01*
X166751777Y-95376777D01*
X166733599Y-95393253D01*
X166713893Y-95407868D01*
X166692850Y-95420480D01*
X166670671Y-95430970D01*
X166647572Y-95439235D01*
X166623773Y-95445196D01*
X166599505Y-95448796D01*
X166575001Y-95450000D01*
X165924999Y-95450000D01*
X165900495Y-95448796D01*
X165876227Y-95445196D01*
X165852428Y-95439235D01*
X165829329Y-95430970D01*
X165807150Y-95420480D01*
X165786107Y-95407868D01*
X165766401Y-95393253D01*
X165748223Y-95376777D01*
X165731747Y-95358599D01*
X165717132Y-95338893D01*
X165704520Y-95317850D01*
X165694030Y-95295671D01*
X165685765Y-95272572D01*
X165679804Y-95248773D01*
X165676204Y-95224505D01*
X165675000Y-95200001D01*
X165675000Y-94299999D01*
X165676204Y-94275495D01*
X165679804Y-94251227D01*
X165685765Y-94227428D01*
X165694030Y-94204329D01*
X165704520Y-94182150D01*
X165717132Y-94161107D01*
X165731747Y-94141401D01*
X165748223Y-94123223D01*
X165766401Y-94106747D01*
X165786107Y-94092132D01*
X165807150Y-94079520D01*
X165829329Y-94069030D01*
X165852428Y-94060765D01*
X165876227Y-94054804D01*
X165900495Y-94051204D01*
X165924999Y-94050000D01*
X166575001Y-94050000D01*
X166599505Y-94051204D01*
X166599505Y-94051204D01*
G37*
D16*
X166250000Y-94750000D03*
G04 #@! TD*
D15*
G04 #@! TO.C,R7*
G36*
X166599505Y-96051204D02*
X166623773Y-96054804D01*
X166647572Y-96060765D01*
X166670671Y-96069030D01*
X166692850Y-96079520D01*
X166713893Y-96092132D01*
X166733599Y-96106747D01*
X166751777Y-96123223D01*
X166768253Y-96141401D01*
X166782868Y-96161107D01*
X166795480Y-96182150D01*
X166805970Y-96204329D01*
X166814235Y-96227428D01*
X166820196Y-96251227D01*
X166823796Y-96275495D01*
X166825000Y-96299999D01*
X166825000Y-97200001D01*
X166823796Y-97224505D01*
X166820196Y-97248773D01*
X166814235Y-97272572D01*
X166805970Y-97295671D01*
X166795480Y-97317850D01*
X166782868Y-97338893D01*
X166768253Y-97358599D01*
X166751777Y-97376777D01*
X166733599Y-97393253D01*
X166713893Y-97407868D01*
X166692850Y-97420480D01*
X166670671Y-97430970D01*
X166647572Y-97439235D01*
X166623773Y-97445196D01*
X166599505Y-97448796D01*
X166575001Y-97450000D01*
X165924999Y-97450000D01*
X165900495Y-97448796D01*
X165876227Y-97445196D01*
X165852428Y-97439235D01*
X165829329Y-97430970D01*
X165807150Y-97420480D01*
X165786107Y-97407868D01*
X165766401Y-97393253D01*
X165748223Y-97376777D01*
X165731747Y-97358599D01*
X165717132Y-97338893D01*
X165704520Y-97317850D01*
X165694030Y-97295671D01*
X165685765Y-97272572D01*
X165679804Y-97248773D01*
X165676204Y-97224505D01*
X165675000Y-97200001D01*
X165675000Y-96299999D01*
X165676204Y-96275495D01*
X165679804Y-96251227D01*
X165685765Y-96227428D01*
X165694030Y-96204329D01*
X165704520Y-96182150D01*
X165717132Y-96161107D01*
X165731747Y-96141401D01*
X165748223Y-96123223D01*
X165766401Y-96106747D01*
X165786107Y-96092132D01*
X165807150Y-96079520D01*
X165829329Y-96069030D01*
X165852428Y-96060765D01*
X165876227Y-96054804D01*
X165900495Y-96051204D01*
X165924999Y-96050000D01*
X166575001Y-96050000D01*
X166599505Y-96051204D01*
X166599505Y-96051204D01*
G37*
D16*
X166250000Y-96750000D03*
D15*
G36*
X164549505Y-96051204D02*
X164573773Y-96054804D01*
X164597572Y-96060765D01*
X164620671Y-96069030D01*
X164642850Y-96079520D01*
X164663893Y-96092132D01*
X164683599Y-96106747D01*
X164701777Y-96123223D01*
X164718253Y-96141401D01*
X164732868Y-96161107D01*
X164745480Y-96182150D01*
X164755970Y-96204329D01*
X164764235Y-96227428D01*
X164770196Y-96251227D01*
X164773796Y-96275495D01*
X164775000Y-96299999D01*
X164775000Y-97200001D01*
X164773796Y-97224505D01*
X164770196Y-97248773D01*
X164764235Y-97272572D01*
X164755970Y-97295671D01*
X164745480Y-97317850D01*
X164732868Y-97338893D01*
X164718253Y-97358599D01*
X164701777Y-97376777D01*
X164683599Y-97393253D01*
X164663893Y-97407868D01*
X164642850Y-97420480D01*
X164620671Y-97430970D01*
X164597572Y-97439235D01*
X164573773Y-97445196D01*
X164549505Y-97448796D01*
X164525001Y-97450000D01*
X163874999Y-97450000D01*
X163850495Y-97448796D01*
X163826227Y-97445196D01*
X163802428Y-97439235D01*
X163779329Y-97430970D01*
X163757150Y-97420480D01*
X163736107Y-97407868D01*
X163716401Y-97393253D01*
X163698223Y-97376777D01*
X163681747Y-97358599D01*
X163667132Y-97338893D01*
X163654520Y-97317850D01*
X163644030Y-97295671D01*
X163635765Y-97272572D01*
X163629804Y-97248773D01*
X163626204Y-97224505D01*
X163625000Y-97200001D01*
X163625000Y-96299999D01*
X163626204Y-96275495D01*
X163629804Y-96251227D01*
X163635765Y-96227428D01*
X163644030Y-96204329D01*
X163654520Y-96182150D01*
X163667132Y-96161107D01*
X163681747Y-96141401D01*
X163698223Y-96123223D01*
X163716401Y-96106747D01*
X163736107Y-96092132D01*
X163757150Y-96079520D01*
X163779329Y-96069030D01*
X163802428Y-96060765D01*
X163826227Y-96054804D01*
X163850495Y-96051204D01*
X163874999Y-96050000D01*
X164525001Y-96050000D01*
X164549505Y-96051204D01*
X164549505Y-96051204D01*
G37*
D16*
X164200000Y-96750000D03*
G04 #@! TD*
D15*
G04 #@! TO.C,R8*
G36*
X126474505Y-111976204D02*
X126498773Y-111979804D01*
X126522572Y-111985765D01*
X126545671Y-111994030D01*
X126567850Y-112004520D01*
X126588893Y-112017132D01*
X126608599Y-112031747D01*
X126626777Y-112048223D01*
X126643253Y-112066401D01*
X126657868Y-112086107D01*
X126670480Y-112107150D01*
X126680970Y-112129329D01*
X126689235Y-112152428D01*
X126695196Y-112176227D01*
X126698796Y-112200495D01*
X126700000Y-112224999D01*
X126700000Y-112875001D01*
X126698796Y-112899505D01*
X126695196Y-112923773D01*
X126689235Y-112947572D01*
X126680970Y-112970671D01*
X126670480Y-112992850D01*
X126657868Y-113013893D01*
X126643253Y-113033599D01*
X126626777Y-113051777D01*
X126608599Y-113068253D01*
X126588893Y-113082868D01*
X126567850Y-113095480D01*
X126545671Y-113105970D01*
X126522572Y-113114235D01*
X126498773Y-113120196D01*
X126474505Y-113123796D01*
X126450001Y-113125000D01*
X125549999Y-113125000D01*
X125525495Y-113123796D01*
X125501227Y-113120196D01*
X125477428Y-113114235D01*
X125454329Y-113105970D01*
X125432150Y-113095480D01*
X125411107Y-113082868D01*
X125391401Y-113068253D01*
X125373223Y-113051777D01*
X125356747Y-113033599D01*
X125342132Y-113013893D01*
X125329520Y-112992850D01*
X125319030Y-112970671D01*
X125310765Y-112947572D01*
X125304804Y-112923773D01*
X125301204Y-112899505D01*
X125300000Y-112875001D01*
X125300000Y-112224999D01*
X125301204Y-112200495D01*
X125304804Y-112176227D01*
X125310765Y-112152428D01*
X125319030Y-112129329D01*
X125329520Y-112107150D01*
X125342132Y-112086107D01*
X125356747Y-112066401D01*
X125373223Y-112048223D01*
X125391401Y-112031747D01*
X125411107Y-112017132D01*
X125432150Y-112004520D01*
X125454329Y-111994030D01*
X125477428Y-111985765D01*
X125501227Y-111979804D01*
X125525495Y-111976204D01*
X125549999Y-111975000D01*
X126450001Y-111975000D01*
X126474505Y-111976204D01*
X126474505Y-111976204D01*
G37*
D16*
X126000000Y-112550000D03*
D15*
G36*
X126474505Y-109926204D02*
X126498773Y-109929804D01*
X126522572Y-109935765D01*
X126545671Y-109944030D01*
X126567850Y-109954520D01*
X126588893Y-109967132D01*
X126608599Y-109981747D01*
X126626777Y-109998223D01*
X126643253Y-110016401D01*
X126657868Y-110036107D01*
X126670480Y-110057150D01*
X126680970Y-110079329D01*
X126689235Y-110102428D01*
X126695196Y-110126227D01*
X126698796Y-110150495D01*
X126700000Y-110174999D01*
X126700000Y-110825001D01*
X126698796Y-110849505D01*
X126695196Y-110873773D01*
X126689235Y-110897572D01*
X126680970Y-110920671D01*
X126670480Y-110942850D01*
X126657868Y-110963893D01*
X126643253Y-110983599D01*
X126626777Y-111001777D01*
X126608599Y-111018253D01*
X126588893Y-111032868D01*
X126567850Y-111045480D01*
X126545671Y-111055970D01*
X126522572Y-111064235D01*
X126498773Y-111070196D01*
X126474505Y-111073796D01*
X126450001Y-111075000D01*
X125549999Y-111075000D01*
X125525495Y-111073796D01*
X125501227Y-111070196D01*
X125477428Y-111064235D01*
X125454329Y-111055970D01*
X125432150Y-111045480D01*
X125411107Y-111032868D01*
X125391401Y-111018253D01*
X125373223Y-111001777D01*
X125356747Y-110983599D01*
X125342132Y-110963893D01*
X125329520Y-110942850D01*
X125319030Y-110920671D01*
X125310765Y-110897572D01*
X125304804Y-110873773D01*
X125301204Y-110849505D01*
X125300000Y-110825001D01*
X125300000Y-110174999D01*
X125301204Y-110150495D01*
X125304804Y-110126227D01*
X125310765Y-110102428D01*
X125319030Y-110079329D01*
X125329520Y-110057150D01*
X125342132Y-110036107D01*
X125356747Y-110016401D01*
X125373223Y-109998223D01*
X125391401Y-109981747D01*
X125411107Y-109967132D01*
X125432150Y-109954520D01*
X125454329Y-109944030D01*
X125477428Y-109935765D01*
X125501227Y-109929804D01*
X125525495Y-109926204D01*
X125549999Y-109925000D01*
X126450001Y-109925000D01*
X126474505Y-109926204D01*
X126474505Y-109926204D01*
G37*
D16*
X126000000Y-110500000D03*
G04 #@! TD*
D15*
G04 #@! TO.C,R9*
G36*
X124474505Y-109926204D02*
X124498773Y-109929804D01*
X124522572Y-109935765D01*
X124545671Y-109944030D01*
X124567850Y-109954520D01*
X124588893Y-109967132D01*
X124608599Y-109981747D01*
X124626777Y-109998223D01*
X124643253Y-110016401D01*
X124657868Y-110036107D01*
X124670480Y-110057150D01*
X124680970Y-110079329D01*
X124689235Y-110102428D01*
X124695196Y-110126227D01*
X124698796Y-110150495D01*
X124700000Y-110174999D01*
X124700000Y-110825001D01*
X124698796Y-110849505D01*
X124695196Y-110873773D01*
X124689235Y-110897572D01*
X124680970Y-110920671D01*
X124670480Y-110942850D01*
X124657868Y-110963893D01*
X124643253Y-110983599D01*
X124626777Y-111001777D01*
X124608599Y-111018253D01*
X124588893Y-111032868D01*
X124567850Y-111045480D01*
X124545671Y-111055970D01*
X124522572Y-111064235D01*
X124498773Y-111070196D01*
X124474505Y-111073796D01*
X124450001Y-111075000D01*
X123549999Y-111075000D01*
X123525495Y-111073796D01*
X123501227Y-111070196D01*
X123477428Y-111064235D01*
X123454329Y-111055970D01*
X123432150Y-111045480D01*
X123411107Y-111032868D01*
X123391401Y-111018253D01*
X123373223Y-111001777D01*
X123356747Y-110983599D01*
X123342132Y-110963893D01*
X123329520Y-110942850D01*
X123319030Y-110920671D01*
X123310765Y-110897572D01*
X123304804Y-110873773D01*
X123301204Y-110849505D01*
X123300000Y-110825001D01*
X123300000Y-110174999D01*
X123301204Y-110150495D01*
X123304804Y-110126227D01*
X123310765Y-110102428D01*
X123319030Y-110079329D01*
X123329520Y-110057150D01*
X123342132Y-110036107D01*
X123356747Y-110016401D01*
X123373223Y-109998223D01*
X123391401Y-109981747D01*
X123411107Y-109967132D01*
X123432150Y-109954520D01*
X123454329Y-109944030D01*
X123477428Y-109935765D01*
X123501227Y-109929804D01*
X123525495Y-109926204D01*
X123549999Y-109925000D01*
X124450001Y-109925000D01*
X124474505Y-109926204D01*
X124474505Y-109926204D01*
G37*
D16*
X124000000Y-110500000D03*
D15*
G36*
X124474505Y-111976204D02*
X124498773Y-111979804D01*
X124522572Y-111985765D01*
X124545671Y-111994030D01*
X124567850Y-112004520D01*
X124588893Y-112017132D01*
X124608599Y-112031747D01*
X124626777Y-112048223D01*
X124643253Y-112066401D01*
X124657868Y-112086107D01*
X124670480Y-112107150D01*
X124680970Y-112129329D01*
X124689235Y-112152428D01*
X124695196Y-112176227D01*
X124698796Y-112200495D01*
X124700000Y-112224999D01*
X124700000Y-112875001D01*
X124698796Y-112899505D01*
X124695196Y-112923773D01*
X124689235Y-112947572D01*
X124680970Y-112970671D01*
X124670480Y-112992850D01*
X124657868Y-113013893D01*
X124643253Y-113033599D01*
X124626777Y-113051777D01*
X124608599Y-113068253D01*
X124588893Y-113082868D01*
X124567850Y-113095480D01*
X124545671Y-113105970D01*
X124522572Y-113114235D01*
X124498773Y-113120196D01*
X124474505Y-113123796D01*
X124450001Y-113125000D01*
X123549999Y-113125000D01*
X123525495Y-113123796D01*
X123501227Y-113120196D01*
X123477428Y-113114235D01*
X123454329Y-113105970D01*
X123432150Y-113095480D01*
X123411107Y-113082868D01*
X123391401Y-113068253D01*
X123373223Y-113051777D01*
X123356747Y-113033599D01*
X123342132Y-113013893D01*
X123329520Y-112992850D01*
X123319030Y-112970671D01*
X123310765Y-112947572D01*
X123304804Y-112923773D01*
X123301204Y-112899505D01*
X123300000Y-112875001D01*
X123300000Y-112224999D01*
X123301204Y-112200495D01*
X123304804Y-112176227D01*
X123310765Y-112152428D01*
X123319030Y-112129329D01*
X123329520Y-112107150D01*
X123342132Y-112086107D01*
X123356747Y-112066401D01*
X123373223Y-112048223D01*
X123391401Y-112031747D01*
X123411107Y-112017132D01*
X123432150Y-112004520D01*
X123454329Y-111994030D01*
X123477428Y-111985765D01*
X123501227Y-111979804D01*
X123525495Y-111976204D01*
X123549999Y-111975000D01*
X124450001Y-111975000D01*
X124474505Y-111976204D01*
X124474505Y-111976204D01*
G37*
D16*
X124000000Y-112550000D03*
G04 #@! TD*
D15*
G04 #@! TO.C,R10*
G36*
X143299505Y-73301204D02*
X143323773Y-73304804D01*
X143347572Y-73310765D01*
X143370671Y-73319030D01*
X143392850Y-73329520D01*
X143413893Y-73342132D01*
X143433599Y-73356747D01*
X143451777Y-73373223D01*
X143468253Y-73391401D01*
X143482868Y-73411107D01*
X143495480Y-73432150D01*
X143505970Y-73454329D01*
X143514235Y-73477428D01*
X143520196Y-73501227D01*
X143523796Y-73525495D01*
X143525000Y-73549999D01*
X143525000Y-74450001D01*
X143523796Y-74474505D01*
X143520196Y-74498773D01*
X143514235Y-74522572D01*
X143505970Y-74545671D01*
X143495480Y-74567850D01*
X143482868Y-74588893D01*
X143468253Y-74608599D01*
X143451777Y-74626777D01*
X143433599Y-74643253D01*
X143413893Y-74657868D01*
X143392850Y-74670480D01*
X143370671Y-74680970D01*
X143347572Y-74689235D01*
X143323773Y-74695196D01*
X143299505Y-74698796D01*
X143275001Y-74700000D01*
X142624999Y-74700000D01*
X142600495Y-74698796D01*
X142576227Y-74695196D01*
X142552428Y-74689235D01*
X142529329Y-74680970D01*
X142507150Y-74670480D01*
X142486107Y-74657868D01*
X142466401Y-74643253D01*
X142448223Y-74626777D01*
X142431747Y-74608599D01*
X142417132Y-74588893D01*
X142404520Y-74567850D01*
X142394030Y-74545671D01*
X142385765Y-74522572D01*
X142379804Y-74498773D01*
X142376204Y-74474505D01*
X142375000Y-74450001D01*
X142375000Y-73549999D01*
X142376204Y-73525495D01*
X142379804Y-73501227D01*
X142385765Y-73477428D01*
X142394030Y-73454329D01*
X142404520Y-73432150D01*
X142417132Y-73411107D01*
X142431747Y-73391401D01*
X142448223Y-73373223D01*
X142466401Y-73356747D01*
X142486107Y-73342132D01*
X142507150Y-73329520D01*
X142529329Y-73319030D01*
X142552428Y-73310765D01*
X142576227Y-73304804D01*
X142600495Y-73301204D01*
X142624999Y-73300000D01*
X143275001Y-73300000D01*
X143299505Y-73301204D01*
X143299505Y-73301204D01*
G37*
D16*
X142950000Y-74000000D03*
D15*
G36*
X145349505Y-73301204D02*
X145373773Y-73304804D01*
X145397572Y-73310765D01*
X145420671Y-73319030D01*
X145442850Y-73329520D01*
X145463893Y-73342132D01*
X145483599Y-73356747D01*
X145501777Y-73373223D01*
X145518253Y-73391401D01*
X145532868Y-73411107D01*
X145545480Y-73432150D01*
X145555970Y-73454329D01*
X145564235Y-73477428D01*
X145570196Y-73501227D01*
X145573796Y-73525495D01*
X145575000Y-73549999D01*
X145575000Y-74450001D01*
X145573796Y-74474505D01*
X145570196Y-74498773D01*
X145564235Y-74522572D01*
X145555970Y-74545671D01*
X145545480Y-74567850D01*
X145532868Y-74588893D01*
X145518253Y-74608599D01*
X145501777Y-74626777D01*
X145483599Y-74643253D01*
X145463893Y-74657868D01*
X145442850Y-74670480D01*
X145420671Y-74680970D01*
X145397572Y-74689235D01*
X145373773Y-74695196D01*
X145349505Y-74698796D01*
X145325001Y-74700000D01*
X144674999Y-74700000D01*
X144650495Y-74698796D01*
X144626227Y-74695196D01*
X144602428Y-74689235D01*
X144579329Y-74680970D01*
X144557150Y-74670480D01*
X144536107Y-74657868D01*
X144516401Y-74643253D01*
X144498223Y-74626777D01*
X144481747Y-74608599D01*
X144467132Y-74588893D01*
X144454520Y-74567850D01*
X144444030Y-74545671D01*
X144435765Y-74522572D01*
X144429804Y-74498773D01*
X144426204Y-74474505D01*
X144425000Y-74450001D01*
X144425000Y-73549999D01*
X144426204Y-73525495D01*
X144429804Y-73501227D01*
X144435765Y-73477428D01*
X144444030Y-73454329D01*
X144454520Y-73432150D01*
X144467132Y-73411107D01*
X144481747Y-73391401D01*
X144498223Y-73373223D01*
X144516401Y-73356747D01*
X144536107Y-73342132D01*
X144557150Y-73329520D01*
X144579329Y-73319030D01*
X144602428Y-73310765D01*
X144626227Y-73304804D01*
X144650495Y-73301204D01*
X144674999Y-73300000D01*
X145325001Y-73300000D01*
X145349505Y-73301204D01*
X145349505Y-73301204D01*
G37*
D16*
X145000000Y-74000000D03*
G04 #@! TD*
D15*
G04 #@! TO.C,R11*
G36*
X154899505Y-138301204D02*
X154923773Y-138304804D01*
X154947572Y-138310765D01*
X154970671Y-138319030D01*
X154992850Y-138329520D01*
X155013893Y-138342132D01*
X155033599Y-138356747D01*
X155051777Y-138373223D01*
X155068253Y-138391401D01*
X155082868Y-138411107D01*
X155095480Y-138432150D01*
X155105970Y-138454329D01*
X155114235Y-138477428D01*
X155120196Y-138501227D01*
X155123796Y-138525495D01*
X155125000Y-138549999D01*
X155125000Y-139450001D01*
X155123796Y-139474505D01*
X155120196Y-139498773D01*
X155114235Y-139522572D01*
X155105970Y-139545671D01*
X155095480Y-139567850D01*
X155082868Y-139588893D01*
X155068253Y-139608599D01*
X155051777Y-139626777D01*
X155033599Y-139643253D01*
X155013893Y-139657868D01*
X154992850Y-139670480D01*
X154970671Y-139680970D01*
X154947572Y-139689235D01*
X154923773Y-139695196D01*
X154899505Y-139698796D01*
X154875001Y-139700000D01*
X154224999Y-139700000D01*
X154200495Y-139698796D01*
X154176227Y-139695196D01*
X154152428Y-139689235D01*
X154129329Y-139680970D01*
X154107150Y-139670480D01*
X154086107Y-139657868D01*
X154066401Y-139643253D01*
X154048223Y-139626777D01*
X154031747Y-139608599D01*
X154017132Y-139588893D01*
X154004520Y-139567850D01*
X153994030Y-139545671D01*
X153985765Y-139522572D01*
X153979804Y-139498773D01*
X153976204Y-139474505D01*
X153975000Y-139450001D01*
X153975000Y-138549999D01*
X153976204Y-138525495D01*
X153979804Y-138501227D01*
X153985765Y-138477428D01*
X153994030Y-138454329D01*
X154004520Y-138432150D01*
X154017132Y-138411107D01*
X154031747Y-138391401D01*
X154048223Y-138373223D01*
X154066401Y-138356747D01*
X154086107Y-138342132D01*
X154107150Y-138329520D01*
X154129329Y-138319030D01*
X154152428Y-138310765D01*
X154176227Y-138304804D01*
X154200495Y-138301204D01*
X154224999Y-138300000D01*
X154875001Y-138300000D01*
X154899505Y-138301204D01*
X154899505Y-138301204D01*
G37*
D16*
X154550000Y-139000000D03*
D15*
G36*
X152849505Y-138301204D02*
X152873773Y-138304804D01*
X152897572Y-138310765D01*
X152920671Y-138319030D01*
X152942850Y-138329520D01*
X152963893Y-138342132D01*
X152983599Y-138356747D01*
X153001777Y-138373223D01*
X153018253Y-138391401D01*
X153032868Y-138411107D01*
X153045480Y-138432150D01*
X153055970Y-138454329D01*
X153064235Y-138477428D01*
X153070196Y-138501227D01*
X153073796Y-138525495D01*
X153075000Y-138549999D01*
X153075000Y-139450001D01*
X153073796Y-139474505D01*
X153070196Y-139498773D01*
X153064235Y-139522572D01*
X153055970Y-139545671D01*
X153045480Y-139567850D01*
X153032868Y-139588893D01*
X153018253Y-139608599D01*
X153001777Y-139626777D01*
X152983599Y-139643253D01*
X152963893Y-139657868D01*
X152942850Y-139670480D01*
X152920671Y-139680970D01*
X152897572Y-139689235D01*
X152873773Y-139695196D01*
X152849505Y-139698796D01*
X152825001Y-139700000D01*
X152174999Y-139700000D01*
X152150495Y-139698796D01*
X152126227Y-139695196D01*
X152102428Y-139689235D01*
X152079329Y-139680970D01*
X152057150Y-139670480D01*
X152036107Y-139657868D01*
X152016401Y-139643253D01*
X151998223Y-139626777D01*
X151981747Y-139608599D01*
X151967132Y-139588893D01*
X151954520Y-139567850D01*
X151944030Y-139545671D01*
X151935765Y-139522572D01*
X151929804Y-139498773D01*
X151926204Y-139474505D01*
X151925000Y-139450001D01*
X151925000Y-138549999D01*
X151926204Y-138525495D01*
X151929804Y-138501227D01*
X151935765Y-138477428D01*
X151944030Y-138454329D01*
X151954520Y-138432150D01*
X151967132Y-138411107D01*
X151981747Y-138391401D01*
X151998223Y-138373223D01*
X152016401Y-138356747D01*
X152036107Y-138342132D01*
X152057150Y-138329520D01*
X152079329Y-138319030D01*
X152102428Y-138310765D01*
X152126227Y-138304804D01*
X152150495Y-138301204D01*
X152174999Y-138300000D01*
X152825001Y-138300000D01*
X152849505Y-138301204D01*
X152849505Y-138301204D01*
G37*
D16*
X152500000Y-139000000D03*
G04 #@! TD*
D15*
G04 #@! TO.C,R12*
G36*
X143299505Y-71301204D02*
X143323773Y-71304804D01*
X143347572Y-71310765D01*
X143370671Y-71319030D01*
X143392850Y-71329520D01*
X143413893Y-71342132D01*
X143433599Y-71356747D01*
X143451777Y-71373223D01*
X143468253Y-71391401D01*
X143482868Y-71411107D01*
X143495480Y-71432150D01*
X143505970Y-71454329D01*
X143514235Y-71477428D01*
X143520196Y-71501227D01*
X143523796Y-71525495D01*
X143525000Y-71549999D01*
X143525000Y-72450001D01*
X143523796Y-72474505D01*
X143520196Y-72498773D01*
X143514235Y-72522572D01*
X143505970Y-72545671D01*
X143495480Y-72567850D01*
X143482868Y-72588893D01*
X143468253Y-72608599D01*
X143451777Y-72626777D01*
X143433599Y-72643253D01*
X143413893Y-72657868D01*
X143392850Y-72670480D01*
X143370671Y-72680970D01*
X143347572Y-72689235D01*
X143323773Y-72695196D01*
X143299505Y-72698796D01*
X143275001Y-72700000D01*
X142624999Y-72700000D01*
X142600495Y-72698796D01*
X142576227Y-72695196D01*
X142552428Y-72689235D01*
X142529329Y-72680970D01*
X142507150Y-72670480D01*
X142486107Y-72657868D01*
X142466401Y-72643253D01*
X142448223Y-72626777D01*
X142431747Y-72608599D01*
X142417132Y-72588893D01*
X142404520Y-72567850D01*
X142394030Y-72545671D01*
X142385765Y-72522572D01*
X142379804Y-72498773D01*
X142376204Y-72474505D01*
X142375000Y-72450001D01*
X142375000Y-71549999D01*
X142376204Y-71525495D01*
X142379804Y-71501227D01*
X142385765Y-71477428D01*
X142394030Y-71454329D01*
X142404520Y-71432150D01*
X142417132Y-71411107D01*
X142431747Y-71391401D01*
X142448223Y-71373223D01*
X142466401Y-71356747D01*
X142486107Y-71342132D01*
X142507150Y-71329520D01*
X142529329Y-71319030D01*
X142552428Y-71310765D01*
X142576227Y-71304804D01*
X142600495Y-71301204D01*
X142624999Y-71300000D01*
X143275001Y-71300000D01*
X143299505Y-71301204D01*
X143299505Y-71301204D01*
G37*
D16*
X142950000Y-72000000D03*
D15*
G36*
X145349505Y-71301204D02*
X145373773Y-71304804D01*
X145397572Y-71310765D01*
X145420671Y-71319030D01*
X145442850Y-71329520D01*
X145463893Y-71342132D01*
X145483599Y-71356747D01*
X145501777Y-71373223D01*
X145518253Y-71391401D01*
X145532868Y-71411107D01*
X145545480Y-71432150D01*
X145555970Y-71454329D01*
X145564235Y-71477428D01*
X145570196Y-71501227D01*
X145573796Y-71525495D01*
X145575000Y-71549999D01*
X145575000Y-72450001D01*
X145573796Y-72474505D01*
X145570196Y-72498773D01*
X145564235Y-72522572D01*
X145555970Y-72545671D01*
X145545480Y-72567850D01*
X145532868Y-72588893D01*
X145518253Y-72608599D01*
X145501777Y-72626777D01*
X145483599Y-72643253D01*
X145463893Y-72657868D01*
X145442850Y-72670480D01*
X145420671Y-72680970D01*
X145397572Y-72689235D01*
X145373773Y-72695196D01*
X145349505Y-72698796D01*
X145325001Y-72700000D01*
X144674999Y-72700000D01*
X144650495Y-72698796D01*
X144626227Y-72695196D01*
X144602428Y-72689235D01*
X144579329Y-72680970D01*
X144557150Y-72670480D01*
X144536107Y-72657868D01*
X144516401Y-72643253D01*
X144498223Y-72626777D01*
X144481747Y-72608599D01*
X144467132Y-72588893D01*
X144454520Y-72567850D01*
X144444030Y-72545671D01*
X144435765Y-72522572D01*
X144429804Y-72498773D01*
X144426204Y-72474505D01*
X144425000Y-72450001D01*
X144425000Y-71549999D01*
X144426204Y-71525495D01*
X144429804Y-71501227D01*
X144435765Y-71477428D01*
X144444030Y-71454329D01*
X144454520Y-71432150D01*
X144467132Y-71411107D01*
X144481747Y-71391401D01*
X144498223Y-71373223D01*
X144516401Y-71356747D01*
X144536107Y-71342132D01*
X144557150Y-71329520D01*
X144579329Y-71319030D01*
X144602428Y-71310765D01*
X144626227Y-71304804D01*
X144650495Y-71301204D01*
X144674999Y-71300000D01*
X145325001Y-71300000D01*
X145349505Y-71301204D01*
X145349505Y-71301204D01*
G37*
D16*
X145000000Y-72000000D03*
G04 #@! TD*
D15*
G04 #@! TO.C,R13*
G36*
X152849505Y-140301204D02*
X152873773Y-140304804D01*
X152897572Y-140310765D01*
X152920671Y-140319030D01*
X152942850Y-140329520D01*
X152963893Y-140342132D01*
X152983599Y-140356747D01*
X153001777Y-140373223D01*
X153018253Y-140391401D01*
X153032868Y-140411107D01*
X153045480Y-140432150D01*
X153055970Y-140454329D01*
X153064235Y-140477428D01*
X153070196Y-140501227D01*
X153073796Y-140525495D01*
X153075000Y-140549999D01*
X153075000Y-141450001D01*
X153073796Y-141474505D01*
X153070196Y-141498773D01*
X153064235Y-141522572D01*
X153055970Y-141545671D01*
X153045480Y-141567850D01*
X153032868Y-141588893D01*
X153018253Y-141608599D01*
X153001777Y-141626777D01*
X152983599Y-141643253D01*
X152963893Y-141657868D01*
X152942850Y-141670480D01*
X152920671Y-141680970D01*
X152897572Y-141689235D01*
X152873773Y-141695196D01*
X152849505Y-141698796D01*
X152825001Y-141700000D01*
X152174999Y-141700000D01*
X152150495Y-141698796D01*
X152126227Y-141695196D01*
X152102428Y-141689235D01*
X152079329Y-141680970D01*
X152057150Y-141670480D01*
X152036107Y-141657868D01*
X152016401Y-141643253D01*
X151998223Y-141626777D01*
X151981747Y-141608599D01*
X151967132Y-141588893D01*
X151954520Y-141567850D01*
X151944030Y-141545671D01*
X151935765Y-141522572D01*
X151929804Y-141498773D01*
X151926204Y-141474505D01*
X151925000Y-141450001D01*
X151925000Y-140549999D01*
X151926204Y-140525495D01*
X151929804Y-140501227D01*
X151935765Y-140477428D01*
X151944030Y-140454329D01*
X151954520Y-140432150D01*
X151967132Y-140411107D01*
X151981747Y-140391401D01*
X151998223Y-140373223D01*
X152016401Y-140356747D01*
X152036107Y-140342132D01*
X152057150Y-140329520D01*
X152079329Y-140319030D01*
X152102428Y-140310765D01*
X152126227Y-140304804D01*
X152150495Y-140301204D01*
X152174999Y-140300000D01*
X152825001Y-140300000D01*
X152849505Y-140301204D01*
X152849505Y-140301204D01*
G37*
D16*
X152500000Y-141000000D03*
D15*
G36*
X154899505Y-140301204D02*
X154923773Y-140304804D01*
X154947572Y-140310765D01*
X154970671Y-140319030D01*
X154992850Y-140329520D01*
X155013893Y-140342132D01*
X155033599Y-140356747D01*
X155051777Y-140373223D01*
X155068253Y-140391401D01*
X155082868Y-140411107D01*
X155095480Y-140432150D01*
X155105970Y-140454329D01*
X155114235Y-140477428D01*
X155120196Y-140501227D01*
X155123796Y-140525495D01*
X155125000Y-140549999D01*
X155125000Y-141450001D01*
X155123796Y-141474505D01*
X155120196Y-141498773D01*
X155114235Y-141522572D01*
X155105970Y-141545671D01*
X155095480Y-141567850D01*
X155082868Y-141588893D01*
X155068253Y-141608599D01*
X155051777Y-141626777D01*
X155033599Y-141643253D01*
X155013893Y-141657868D01*
X154992850Y-141670480D01*
X154970671Y-141680970D01*
X154947572Y-141689235D01*
X154923773Y-141695196D01*
X154899505Y-141698796D01*
X154875001Y-141700000D01*
X154224999Y-141700000D01*
X154200495Y-141698796D01*
X154176227Y-141695196D01*
X154152428Y-141689235D01*
X154129329Y-141680970D01*
X154107150Y-141670480D01*
X154086107Y-141657868D01*
X154066401Y-141643253D01*
X154048223Y-141626777D01*
X154031747Y-141608599D01*
X154017132Y-141588893D01*
X154004520Y-141567850D01*
X153994030Y-141545671D01*
X153985765Y-141522572D01*
X153979804Y-141498773D01*
X153976204Y-141474505D01*
X153975000Y-141450001D01*
X153975000Y-140549999D01*
X153976204Y-140525495D01*
X153979804Y-140501227D01*
X153985765Y-140477428D01*
X153994030Y-140454329D01*
X154004520Y-140432150D01*
X154017132Y-140411107D01*
X154031747Y-140391401D01*
X154048223Y-140373223D01*
X154066401Y-140356747D01*
X154086107Y-140342132D01*
X154107150Y-140329520D01*
X154129329Y-140319030D01*
X154152428Y-140310765D01*
X154176227Y-140304804D01*
X154200495Y-140301204D01*
X154224999Y-140300000D01*
X154875001Y-140300000D01*
X154899505Y-140301204D01*
X154899505Y-140301204D01*
G37*
D16*
X154550000Y-141000000D03*
G04 #@! TD*
D15*
G04 #@! TO.C,R14*
G36*
X171474505Y-102476204D02*
X171498773Y-102479804D01*
X171522572Y-102485765D01*
X171545671Y-102494030D01*
X171567850Y-102504520D01*
X171588893Y-102517132D01*
X171608599Y-102531747D01*
X171626777Y-102548223D01*
X171643253Y-102566401D01*
X171657868Y-102586107D01*
X171670480Y-102607150D01*
X171680970Y-102629329D01*
X171689235Y-102652428D01*
X171695196Y-102676227D01*
X171698796Y-102700495D01*
X171700000Y-102724999D01*
X171700000Y-103375001D01*
X171698796Y-103399505D01*
X171695196Y-103423773D01*
X171689235Y-103447572D01*
X171680970Y-103470671D01*
X171670480Y-103492850D01*
X171657868Y-103513893D01*
X171643253Y-103533599D01*
X171626777Y-103551777D01*
X171608599Y-103568253D01*
X171588893Y-103582868D01*
X171567850Y-103595480D01*
X171545671Y-103605970D01*
X171522572Y-103614235D01*
X171498773Y-103620196D01*
X171474505Y-103623796D01*
X171450001Y-103625000D01*
X170549999Y-103625000D01*
X170525495Y-103623796D01*
X170501227Y-103620196D01*
X170477428Y-103614235D01*
X170454329Y-103605970D01*
X170432150Y-103595480D01*
X170411107Y-103582868D01*
X170391401Y-103568253D01*
X170373223Y-103551777D01*
X170356747Y-103533599D01*
X170342132Y-103513893D01*
X170329520Y-103492850D01*
X170319030Y-103470671D01*
X170310765Y-103447572D01*
X170304804Y-103423773D01*
X170301204Y-103399505D01*
X170300000Y-103375001D01*
X170300000Y-102724999D01*
X170301204Y-102700495D01*
X170304804Y-102676227D01*
X170310765Y-102652428D01*
X170319030Y-102629329D01*
X170329520Y-102607150D01*
X170342132Y-102586107D01*
X170356747Y-102566401D01*
X170373223Y-102548223D01*
X170391401Y-102531747D01*
X170411107Y-102517132D01*
X170432150Y-102504520D01*
X170454329Y-102494030D01*
X170477428Y-102485765D01*
X170501227Y-102479804D01*
X170525495Y-102476204D01*
X170549999Y-102475000D01*
X171450001Y-102475000D01*
X171474505Y-102476204D01*
X171474505Y-102476204D01*
G37*
D16*
X171000000Y-103050000D03*
D15*
G36*
X171474505Y-100426204D02*
X171498773Y-100429804D01*
X171522572Y-100435765D01*
X171545671Y-100444030D01*
X171567850Y-100454520D01*
X171588893Y-100467132D01*
X171608599Y-100481747D01*
X171626777Y-100498223D01*
X171643253Y-100516401D01*
X171657868Y-100536107D01*
X171670480Y-100557150D01*
X171680970Y-100579329D01*
X171689235Y-100602428D01*
X171695196Y-100626227D01*
X171698796Y-100650495D01*
X171700000Y-100674999D01*
X171700000Y-101325001D01*
X171698796Y-101349505D01*
X171695196Y-101373773D01*
X171689235Y-101397572D01*
X171680970Y-101420671D01*
X171670480Y-101442850D01*
X171657868Y-101463893D01*
X171643253Y-101483599D01*
X171626777Y-101501777D01*
X171608599Y-101518253D01*
X171588893Y-101532868D01*
X171567850Y-101545480D01*
X171545671Y-101555970D01*
X171522572Y-101564235D01*
X171498773Y-101570196D01*
X171474505Y-101573796D01*
X171450001Y-101575000D01*
X170549999Y-101575000D01*
X170525495Y-101573796D01*
X170501227Y-101570196D01*
X170477428Y-101564235D01*
X170454329Y-101555970D01*
X170432150Y-101545480D01*
X170411107Y-101532868D01*
X170391401Y-101518253D01*
X170373223Y-101501777D01*
X170356747Y-101483599D01*
X170342132Y-101463893D01*
X170329520Y-101442850D01*
X170319030Y-101420671D01*
X170310765Y-101397572D01*
X170304804Y-101373773D01*
X170301204Y-101349505D01*
X170300000Y-101325001D01*
X170300000Y-100674999D01*
X170301204Y-100650495D01*
X170304804Y-100626227D01*
X170310765Y-100602428D01*
X170319030Y-100579329D01*
X170329520Y-100557150D01*
X170342132Y-100536107D01*
X170356747Y-100516401D01*
X170373223Y-100498223D01*
X170391401Y-100481747D01*
X170411107Y-100467132D01*
X170432150Y-100454520D01*
X170454329Y-100444030D01*
X170477428Y-100435765D01*
X170501227Y-100429804D01*
X170525495Y-100426204D01*
X170549999Y-100425000D01*
X171450001Y-100425000D01*
X171474505Y-100426204D01*
X171474505Y-100426204D01*
G37*
D16*
X171000000Y-101000000D03*
G04 #@! TD*
D15*
G04 #@! TO.C,R15*
G36*
X173474505Y-100426204D02*
X173498773Y-100429804D01*
X173522572Y-100435765D01*
X173545671Y-100444030D01*
X173567850Y-100454520D01*
X173588893Y-100467132D01*
X173608599Y-100481747D01*
X173626777Y-100498223D01*
X173643253Y-100516401D01*
X173657868Y-100536107D01*
X173670480Y-100557150D01*
X173680970Y-100579329D01*
X173689235Y-100602428D01*
X173695196Y-100626227D01*
X173698796Y-100650495D01*
X173700000Y-100674999D01*
X173700000Y-101325001D01*
X173698796Y-101349505D01*
X173695196Y-101373773D01*
X173689235Y-101397572D01*
X173680970Y-101420671D01*
X173670480Y-101442850D01*
X173657868Y-101463893D01*
X173643253Y-101483599D01*
X173626777Y-101501777D01*
X173608599Y-101518253D01*
X173588893Y-101532868D01*
X173567850Y-101545480D01*
X173545671Y-101555970D01*
X173522572Y-101564235D01*
X173498773Y-101570196D01*
X173474505Y-101573796D01*
X173450001Y-101575000D01*
X172549999Y-101575000D01*
X172525495Y-101573796D01*
X172501227Y-101570196D01*
X172477428Y-101564235D01*
X172454329Y-101555970D01*
X172432150Y-101545480D01*
X172411107Y-101532868D01*
X172391401Y-101518253D01*
X172373223Y-101501777D01*
X172356747Y-101483599D01*
X172342132Y-101463893D01*
X172329520Y-101442850D01*
X172319030Y-101420671D01*
X172310765Y-101397572D01*
X172304804Y-101373773D01*
X172301204Y-101349505D01*
X172300000Y-101325001D01*
X172300000Y-100674999D01*
X172301204Y-100650495D01*
X172304804Y-100626227D01*
X172310765Y-100602428D01*
X172319030Y-100579329D01*
X172329520Y-100557150D01*
X172342132Y-100536107D01*
X172356747Y-100516401D01*
X172373223Y-100498223D01*
X172391401Y-100481747D01*
X172411107Y-100467132D01*
X172432150Y-100454520D01*
X172454329Y-100444030D01*
X172477428Y-100435765D01*
X172501227Y-100429804D01*
X172525495Y-100426204D01*
X172549999Y-100425000D01*
X173450001Y-100425000D01*
X173474505Y-100426204D01*
X173474505Y-100426204D01*
G37*
D16*
X173000000Y-101000000D03*
D15*
G36*
X173474505Y-102476204D02*
X173498773Y-102479804D01*
X173522572Y-102485765D01*
X173545671Y-102494030D01*
X173567850Y-102504520D01*
X173588893Y-102517132D01*
X173608599Y-102531747D01*
X173626777Y-102548223D01*
X173643253Y-102566401D01*
X173657868Y-102586107D01*
X173670480Y-102607150D01*
X173680970Y-102629329D01*
X173689235Y-102652428D01*
X173695196Y-102676227D01*
X173698796Y-102700495D01*
X173700000Y-102724999D01*
X173700000Y-103375001D01*
X173698796Y-103399505D01*
X173695196Y-103423773D01*
X173689235Y-103447572D01*
X173680970Y-103470671D01*
X173670480Y-103492850D01*
X173657868Y-103513893D01*
X173643253Y-103533599D01*
X173626777Y-103551777D01*
X173608599Y-103568253D01*
X173588893Y-103582868D01*
X173567850Y-103595480D01*
X173545671Y-103605970D01*
X173522572Y-103614235D01*
X173498773Y-103620196D01*
X173474505Y-103623796D01*
X173450001Y-103625000D01*
X172549999Y-103625000D01*
X172525495Y-103623796D01*
X172501227Y-103620196D01*
X172477428Y-103614235D01*
X172454329Y-103605970D01*
X172432150Y-103595480D01*
X172411107Y-103582868D01*
X172391401Y-103568253D01*
X172373223Y-103551777D01*
X172356747Y-103533599D01*
X172342132Y-103513893D01*
X172329520Y-103492850D01*
X172319030Y-103470671D01*
X172310765Y-103447572D01*
X172304804Y-103423773D01*
X172301204Y-103399505D01*
X172300000Y-103375001D01*
X172300000Y-102724999D01*
X172301204Y-102700495D01*
X172304804Y-102676227D01*
X172310765Y-102652428D01*
X172319030Y-102629329D01*
X172329520Y-102607150D01*
X172342132Y-102586107D01*
X172356747Y-102566401D01*
X172373223Y-102548223D01*
X172391401Y-102531747D01*
X172411107Y-102517132D01*
X172432150Y-102504520D01*
X172454329Y-102494030D01*
X172477428Y-102485765D01*
X172501227Y-102479804D01*
X172525495Y-102476204D01*
X172549999Y-102475000D01*
X173450001Y-102475000D01*
X173474505Y-102476204D01*
X173474505Y-102476204D01*
G37*
D16*
X173000000Y-103050000D03*
G04 #@! TD*
D17*
G04 #@! TO.C,U1*
X124000000Y-105750000D03*
X124750000Y-105750000D03*
X125500000Y-105750000D03*
X126250000Y-105750000D03*
X127000000Y-105750000D03*
X127750000Y-105750000D03*
X127750000Y-107750000D03*
X127000000Y-107750000D03*
X126250000Y-107750000D03*
X125500000Y-107750000D03*
X124750000Y-107750000D03*
X124000000Y-107750000D03*
G04 #@! TD*
D18*
G04 #@! TO.C,U2*
X135550000Y-119550000D03*
X134600000Y-119550000D03*
X133650000Y-119550000D03*
X133650000Y-122250000D03*
X135550000Y-122250000D03*
X134600000Y-122250000D03*
G04 #@! TD*
D19*
G04 #@! TO.C,U3*
X149750000Y-72000000D03*
X149750000Y-72750000D03*
X149750000Y-73500000D03*
X149750000Y-74250000D03*
X149750000Y-75000000D03*
X149750000Y-75750000D03*
X147750000Y-75750000D03*
X147750000Y-75000000D03*
X147750000Y-74250000D03*
X147750000Y-73500000D03*
X147750000Y-72750000D03*
X147750000Y-72000000D03*
G04 #@! TD*
G04 #@! TO.C,U4*
X149750000Y-141250000D03*
X149750000Y-140500000D03*
X149750000Y-139750000D03*
X149750000Y-139000000D03*
X149750000Y-138250000D03*
X149750000Y-137500000D03*
X147750000Y-137500000D03*
X147750000Y-138250000D03*
X147750000Y-139000000D03*
X147750000Y-139750000D03*
X147750000Y-140500000D03*
X147750000Y-141250000D03*
G04 #@! TD*
D17*
G04 #@! TO.C,U5*
X173250000Y-105750000D03*
X172500000Y-105750000D03*
X171750000Y-105750000D03*
X171000000Y-105750000D03*
X170250000Y-105750000D03*
X169500000Y-105750000D03*
X169500000Y-107750000D03*
X170250000Y-107750000D03*
X171000000Y-107750000D03*
X171750000Y-107750000D03*
X172500000Y-107750000D03*
X173250000Y-107750000D03*
G04 #@! TD*
D20*
G04 #@! TO.C,U6*
X151500000Y-102400000D03*
X151000000Y-102400000D03*
X150500000Y-102400000D03*
X150000000Y-102400000D03*
X149500000Y-102400000D03*
X149000000Y-102400000D03*
X148500000Y-102400000D03*
X148000000Y-102400000D03*
X147500000Y-102400000D03*
X147000000Y-102400000D03*
X146500000Y-102400000D03*
X146000000Y-102400000D03*
D21*
X144400000Y-104000000D03*
X144400000Y-104500000D03*
X144400000Y-105000000D03*
X144400000Y-105500000D03*
X144400000Y-106000000D03*
X144400000Y-106500000D03*
X144400000Y-107000000D03*
X144400000Y-107500000D03*
X144400000Y-108000000D03*
X144400000Y-108500000D03*
X144400000Y-109000000D03*
X144400000Y-109500000D03*
D20*
X146000000Y-111100000D03*
X146500000Y-111100000D03*
X147000000Y-111100000D03*
X147500000Y-111100000D03*
X148000000Y-111100000D03*
X148500000Y-111100000D03*
X149000000Y-111100000D03*
X149500000Y-111100000D03*
X150000000Y-111100000D03*
X150500000Y-111100000D03*
X151000000Y-111100000D03*
X151500000Y-111100000D03*
D21*
X153100000Y-109500000D03*
X153100000Y-109000000D03*
X153100000Y-108500000D03*
X153100000Y-108000000D03*
X153100000Y-107500000D03*
X153100000Y-107000000D03*
X153100000Y-106500000D03*
X153100000Y-106000000D03*
X153100000Y-105500000D03*
X153100000Y-105000000D03*
X153100000Y-104500000D03*
X153100000Y-104000000D03*
G04 #@! TD*
D15*
G04 #@! TO.C,C15*
G36*
X142274505Y-109876204D02*
X142298773Y-109879804D01*
X142322572Y-109885765D01*
X142345671Y-109894030D01*
X142367850Y-109904520D01*
X142388893Y-109917132D01*
X142408599Y-109931747D01*
X142426777Y-109948223D01*
X142443253Y-109966401D01*
X142457868Y-109986107D01*
X142470480Y-110007150D01*
X142480970Y-110029329D01*
X142489235Y-110052428D01*
X142495196Y-110076227D01*
X142498796Y-110100495D01*
X142500000Y-110124999D01*
X142500000Y-110775001D01*
X142498796Y-110799505D01*
X142495196Y-110823773D01*
X142489235Y-110847572D01*
X142480970Y-110870671D01*
X142470480Y-110892850D01*
X142457868Y-110913893D01*
X142443253Y-110933599D01*
X142426777Y-110951777D01*
X142408599Y-110968253D01*
X142388893Y-110982868D01*
X142367850Y-110995480D01*
X142345671Y-111005970D01*
X142322572Y-111014235D01*
X142298773Y-111020196D01*
X142274505Y-111023796D01*
X142250001Y-111025000D01*
X141349999Y-111025000D01*
X141325495Y-111023796D01*
X141301227Y-111020196D01*
X141277428Y-111014235D01*
X141254329Y-111005970D01*
X141232150Y-110995480D01*
X141211107Y-110982868D01*
X141191401Y-110968253D01*
X141173223Y-110951777D01*
X141156747Y-110933599D01*
X141142132Y-110913893D01*
X141129520Y-110892850D01*
X141119030Y-110870671D01*
X141110765Y-110847572D01*
X141104804Y-110823773D01*
X141101204Y-110799505D01*
X141100000Y-110775001D01*
X141100000Y-110124999D01*
X141101204Y-110100495D01*
X141104804Y-110076227D01*
X141110765Y-110052428D01*
X141119030Y-110029329D01*
X141129520Y-110007150D01*
X141142132Y-109986107D01*
X141156747Y-109966401D01*
X141173223Y-109948223D01*
X141191401Y-109931747D01*
X141211107Y-109917132D01*
X141232150Y-109904520D01*
X141254329Y-109894030D01*
X141277428Y-109885765D01*
X141301227Y-109879804D01*
X141325495Y-109876204D01*
X141349999Y-109875000D01*
X142250001Y-109875000D01*
X142274505Y-109876204D01*
X142274505Y-109876204D01*
G37*
D16*
X141800000Y-110450000D03*
D15*
G36*
X142274505Y-107826204D02*
X142298773Y-107829804D01*
X142322572Y-107835765D01*
X142345671Y-107844030D01*
X142367850Y-107854520D01*
X142388893Y-107867132D01*
X142408599Y-107881747D01*
X142426777Y-107898223D01*
X142443253Y-107916401D01*
X142457868Y-107936107D01*
X142470480Y-107957150D01*
X142480970Y-107979329D01*
X142489235Y-108002428D01*
X142495196Y-108026227D01*
X142498796Y-108050495D01*
X142500000Y-108074999D01*
X142500000Y-108725001D01*
X142498796Y-108749505D01*
X142495196Y-108773773D01*
X142489235Y-108797572D01*
X142480970Y-108820671D01*
X142470480Y-108842850D01*
X142457868Y-108863893D01*
X142443253Y-108883599D01*
X142426777Y-108901777D01*
X142408599Y-108918253D01*
X142388893Y-108932868D01*
X142367850Y-108945480D01*
X142345671Y-108955970D01*
X142322572Y-108964235D01*
X142298773Y-108970196D01*
X142274505Y-108973796D01*
X142250001Y-108975000D01*
X141349999Y-108975000D01*
X141325495Y-108973796D01*
X141301227Y-108970196D01*
X141277428Y-108964235D01*
X141254329Y-108955970D01*
X141232150Y-108945480D01*
X141211107Y-108932868D01*
X141191401Y-108918253D01*
X141173223Y-108901777D01*
X141156747Y-108883599D01*
X141142132Y-108863893D01*
X141129520Y-108842850D01*
X141119030Y-108820671D01*
X141110765Y-108797572D01*
X141104804Y-108773773D01*
X141101204Y-108749505D01*
X141100000Y-108725001D01*
X141100000Y-108074999D01*
X141101204Y-108050495D01*
X141104804Y-108026227D01*
X141110765Y-108002428D01*
X141119030Y-107979329D01*
X141129520Y-107957150D01*
X141142132Y-107936107D01*
X141156747Y-107916401D01*
X141173223Y-107898223D01*
X141191401Y-107881747D01*
X141211107Y-107867132D01*
X141232150Y-107854520D01*
X141254329Y-107844030D01*
X141277428Y-107835765D01*
X141301227Y-107829804D01*
X141325495Y-107826204D01*
X141349999Y-107825000D01*
X142250001Y-107825000D01*
X142274505Y-107826204D01*
X142274505Y-107826204D01*
G37*
D16*
X141800000Y-108400000D03*
G04 #@! TD*
D15*
G04 #@! TO.C,C16*
G36*
X151449505Y-112839204D02*
X151473773Y-112842804D01*
X151497572Y-112848765D01*
X151520671Y-112857030D01*
X151542850Y-112867520D01*
X151563893Y-112880132D01*
X151583599Y-112894747D01*
X151601777Y-112911223D01*
X151618253Y-112929401D01*
X151632868Y-112949107D01*
X151645480Y-112970150D01*
X151655970Y-112992329D01*
X151664235Y-113015428D01*
X151670196Y-113039227D01*
X151673796Y-113063495D01*
X151675000Y-113087999D01*
X151675000Y-113988001D01*
X151673796Y-114012505D01*
X151670196Y-114036773D01*
X151664235Y-114060572D01*
X151655970Y-114083671D01*
X151645480Y-114105850D01*
X151632868Y-114126893D01*
X151618253Y-114146599D01*
X151601777Y-114164777D01*
X151583599Y-114181253D01*
X151563893Y-114195868D01*
X151542850Y-114208480D01*
X151520671Y-114218970D01*
X151497572Y-114227235D01*
X151473773Y-114233196D01*
X151449505Y-114236796D01*
X151425001Y-114238000D01*
X150774999Y-114238000D01*
X150750495Y-114236796D01*
X150726227Y-114233196D01*
X150702428Y-114227235D01*
X150679329Y-114218970D01*
X150657150Y-114208480D01*
X150636107Y-114195868D01*
X150616401Y-114181253D01*
X150598223Y-114164777D01*
X150581747Y-114146599D01*
X150567132Y-114126893D01*
X150554520Y-114105850D01*
X150544030Y-114083671D01*
X150535765Y-114060572D01*
X150529804Y-114036773D01*
X150526204Y-114012505D01*
X150525000Y-113988001D01*
X150525000Y-113087999D01*
X150526204Y-113063495D01*
X150529804Y-113039227D01*
X150535765Y-113015428D01*
X150544030Y-112992329D01*
X150554520Y-112970150D01*
X150567132Y-112949107D01*
X150581747Y-112929401D01*
X150598223Y-112911223D01*
X150616401Y-112894747D01*
X150636107Y-112880132D01*
X150657150Y-112867520D01*
X150679329Y-112857030D01*
X150702428Y-112848765D01*
X150726227Y-112842804D01*
X150750495Y-112839204D01*
X150774999Y-112838000D01*
X151425001Y-112838000D01*
X151449505Y-112839204D01*
X151449505Y-112839204D01*
G37*
D16*
X151100000Y-113538000D03*
D15*
G36*
X153499505Y-112839204D02*
X153523773Y-112842804D01*
X153547572Y-112848765D01*
X153570671Y-112857030D01*
X153592850Y-112867520D01*
X153613893Y-112880132D01*
X153633599Y-112894747D01*
X153651777Y-112911223D01*
X153668253Y-112929401D01*
X153682868Y-112949107D01*
X153695480Y-112970150D01*
X153705970Y-112992329D01*
X153714235Y-113015428D01*
X153720196Y-113039227D01*
X153723796Y-113063495D01*
X153725000Y-113087999D01*
X153725000Y-113988001D01*
X153723796Y-114012505D01*
X153720196Y-114036773D01*
X153714235Y-114060572D01*
X153705970Y-114083671D01*
X153695480Y-114105850D01*
X153682868Y-114126893D01*
X153668253Y-114146599D01*
X153651777Y-114164777D01*
X153633599Y-114181253D01*
X153613893Y-114195868D01*
X153592850Y-114208480D01*
X153570671Y-114218970D01*
X153547572Y-114227235D01*
X153523773Y-114233196D01*
X153499505Y-114236796D01*
X153475001Y-114238000D01*
X152824999Y-114238000D01*
X152800495Y-114236796D01*
X152776227Y-114233196D01*
X152752428Y-114227235D01*
X152729329Y-114218970D01*
X152707150Y-114208480D01*
X152686107Y-114195868D01*
X152666401Y-114181253D01*
X152648223Y-114164777D01*
X152631747Y-114146599D01*
X152617132Y-114126893D01*
X152604520Y-114105850D01*
X152594030Y-114083671D01*
X152585765Y-114060572D01*
X152579804Y-114036773D01*
X152576204Y-114012505D01*
X152575000Y-113988001D01*
X152575000Y-113087999D01*
X152576204Y-113063495D01*
X152579804Y-113039227D01*
X152585765Y-113015428D01*
X152594030Y-112992329D01*
X152604520Y-112970150D01*
X152617132Y-112949107D01*
X152631747Y-112929401D01*
X152648223Y-112911223D01*
X152666401Y-112894747D01*
X152686107Y-112880132D01*
X152707150Y-112867520D01*
X152729329Y-112857030D01*
X152752428Y-112848765D01*
X152776227Y-112842804D01*
X152800495Y-112839204D01*
X152824999Y-112838000D01*
X153475001Y-112838000D01*
X153499505Y-112839204D01*
X153499505Y-112839204D01*
G37*
D16*
X153150000Y-113538000D03*
G04 #@! TD*
D15*
G04 #@! TO.C,C17*
G36*
X155974505Y-102176204D02*
X155998773Y-102179804D01*
X156022572Y-102185765D01*
X156045671Y-102194030D01*
X156067850Y-102204520D01*
X156088893Y-102217132D01*
X156108599Y-102231747D01*
X156126777Y-102248223D01*
X156143253Y-102266401D01*
X156157868Y-102286107D01*
X156170480Y-102307150D01*
X156180970Y-102329329D01*
X156189235Y-102352428D01*
X156195196Y-102376227D01*
X156198796Y-102400495D01*
X156200000Y-102424999D01*
X156200000Y-103075001D01*
X156198796Y-103099505D01*
X156195196Y-103123773D01*
X156189235Y-103147572D01*
X156180970Y-103170671D01*
X156170480Y-103192850D01*
X156157868Y-103213893D01*
X156143253Y-103233599D01*
X156126777Y-103251777D01*
X156108599Y-103268253D01*
X156088893Y-103282868D01*
X156067850Y-103295480D01*
X156045671Y-103305970D01*
X156022572Y-103314235D01*
X155998773Y-103320196D01*
X155974505Y-103323796D01*
X155950001Y-103325000D01*
X155049999Y-103325000D01*
X155025495Y-103323796D01*
X155001227Y-103320196D01*
X154977428Y-103314235D01*
X154954329Y-103305970D01*
X154932150Y-103295480D01*
X154911107Y-103282868D01*
X154891401Y-103268253D01*
X154873223Y-103251777D01*
X154856747Y-103233599D01*
X154842132Y-103213893D01*
X154829520Y-103192850D01*
X154819030Y-103170671D01*
X154810765Y-103147572D01*
X154804804Y-103123773D01*
X154801204Y-103099505D01*
X154800000Y-103075001D01*
X154800000Y-102424999D01*
X154801204Y-102400495D01*
X154804804Y-102376227D01*
X154810765Y-102352428D01*
X154819030Y-102329329D01*
X154829520Y-102307150D01*
X154842132Y-102286107D01*
X154856747Y-102266401D01*
X154873223Y-102248223D01*
X154891401Y-102231747D01*
X154911107Y-102217132D01*
X154932150Y-102204520D01*
X154954329Y-102194030D01*
X154977428Y-102185765D01*
X155001227Y-102179804D01*
X155025495Y-102176204D01*
X155049999Y-102175000D01*
X155950001Y-102175000D01*
X155974505Y-102176204D01*
X155974505Y-102176204D01*
G37*
D16*
X155500000Y-102750000D03*
D15*
G36*
X155974505Y-104226204D02*
X155998773Y-104229804D01*
X156022572Y-104235765D01*
X156045671Y-104244030D01*
X156067850Y-104254520D01*
X156088893Y-104267132D01*
X156108599Y-104281747D01*
X156126777Y-104298223D01*
X156143253Y-104316401D01*
X156157868Y-104336107D01*
X156170480Y-104357150D01*
X156180970Y-104379329D01*
X156189235Y-104402428D01*
X156195196Y-104426227D01*
X156198796Y-104450495D01*
X156200000Y-104474999D01*
X156200000Y-105125001D01*
X156198796Y-105149505D01*
X156195196Y-105173773D01*
X156189235Y-105197572D01*
X156180970Y-105220671D01*
X156170480Y-105242850D01*
X156157868Y-105263893D01*
X156143253Y-105283599D01*
X156126777Y-105301777D01*
X156108599Y-105318253D01*
X156088893Y-105332868D01*
X156067850Y-105345480D01*
X156045671Y-105355970D01*
X156022572Y-105364235D01*
X155998773Y-105370196D01*
X155974505Y-105373796D01*
X155950001Y-105375000D01*
X155049999Y-105375000D01*
X155025495Y-105373796D01*
X155001227Y-105370196D01*
X154977428Y-105364235D01*
X154954329Y-105355970D01*
X154932150Y-105345480D01*
X154911107Y-105332868D01*
X154891401Y-105318253D01*
X154873223Y-105301777D01*
X154856747Y-105283599D01*
X154842132Y-105263893D01*
X154829520Y-105242850D01*
X154819030Y-105220671D01*
X154810765Y-105197572D01*
X154804804Y-105173773D01*
X154801204Y-105149505D01*
X154800000Y-105125001D01*
X154800000Y-104474999D01*
X154801204Y-104450495D01*
X154804804Y-104426227D01*
X154810765Y-104402428D01*
X154819030Y-104379329D01*
X154829520Y-104357150D01*
X154842132Y-104336107D01*
X154856747Y-104316401D01*
X154873223Y-104298223D01*
X154891401Y-104281747D01*
X154911107Y-104267132D01*
X154932150Y-104254520D01*
X154954329Y-104244030D01*
X154977428Y-104235765D01*
X155001227Y-104229804D01*
X155025495Y-104226204D01*
X155049999Y-104225000D01*
X155950001Y-104225000D01*
X155974505Y-104226204D01*
X155974505Y-104226204D01*
G37*
D16*
X155500000Y-104800000D03*
G04 #@! TD*
D15*
G04 #@! TO.C,C18*
G36*
X148199505Y-98801204D02*
X148223773Y-98804804D01*
X148247572Y-98810765D01*
X148270671Y-98819030D01*
X148292850Y-98829520D01*
X148313893Y-98842132D01*
X148333599Y-98856747D01*
X148351777Y-98873223D01*
X148368253Y-98891401D01*
X148382868Y-98911107D01*
X148395480Y-98932150D01*
X148405970Y-98954329D01*
X148414235Y-98977428D01*
X148420196Y-99001227D01*
X148423796Y-99025495D01*
X148425000Y-99049999D01*
X148425000Y-99950001D01*
X148423796Y-99974505D01*
X148420196Y-99998773D01*
X148414235Y-100022572D01*
X148405970Y-100045671D01*
X148395480Y-100067850D01*
X148382868Y-100088893D01*
X148368253Y-100108599D01*
X148351777Y-100126777D01*
X148333599Y-100143253D01*
X148313893Y-100157868D01*
X148292850Y-100170480D01*
X148270671Y-100180970D01*
X148247572Y-100189235D01*
X148223773Y-100195196D01*
X148199505Y-100198796D01*
X148175001Y-100200000D01*
X147524999Y-100200000D01*
X147500495Y-100198796D01*
X147476227Y-100195196D01*
X147452428Y-100189235D01*
X147429329Y-100180970D01*
X147407150Y-100170480D01*
X147386107Y-100157868D01*
X147366401Y-100143253D01*
X147348223Y-100126777D01*
X147331747Y-100108599D01*
X147317132Y-100088893D01*
X147304520Y-100067850D01*
X147294030Y-100045671D01*
X147285765Y-100022572D01*
X147279804Y-99998773D01*
X147276204Y-99974505D01*
X147275000Y-99950001D01*
X147275000Y-99049999D01*
X147276204Y-99025495D01*
X147279804Y-99001227D01*
X147285765Y-98977428D01*
X147294030Y-98954329D01*
X147304520Y-98932150D01*
X147317132Y-98911107D01*
X147331747Y-98891401D01*
X147348223Y-98873223D01*
X147366401Y-98856747D01*
X147386107Y-98842132D01*
X147407150Y-98829520D01*
X147429329Y-98819030D01*
X147452428Y-98810765D01*
X147476227Y-98804804D01*
X147500495Y-98801204D01*
X147524999Y-98800000D01*
X148175001Y-98800000D01*
X148199505Y-98801204D01*
X148199505Y-98801204D01*
G37*
D16*
X147850000Y-99500000D03*
D15*
G36*
X146149505Y-98801204D02*
X146173773Y-98804804D01*
X146197572Y-98810765D01*
X146220671Y-98819030D01*
X146242850Y-98829520D01*
X146263893Y-98842132D01*
X146283599Y-98856747D01*
X146301777Y-98873223D01*
X146318253Y-98891401D01*
X146332868Y-98911107D01*
X146345480Y-98932150D01*
X146355970Y-98954329D01*
X146364235Y-98977428D01*
X146370196Y-99001227D01*
X146373796Y-99025495D01*
X146375000Y-99049999D01*
X146375000Y-99950001D01*
X146373796Y-99974505D01*
X146370196Y-99998773D01*
X146364235Y-100022572D01*
X146355970Y-100045671D01*
X146345480Y-100067850D01*
X146332868Y-100088893D01*
X146318253Y-100108599D01*
X146301777Y-100126777D01*
X146283599Y-100143253D01*
X146263893Y-100157868D01*
X146242850Y-100170480D01*
X146220671Y-100180970D01*
X146197572Y-100189235D01*
X146173773Y-100195196D01*
X146149505Y-100198796D01*
X146125001Y-100200000D01*
X145474999Y-100200000D01*
X145450495Y-100198796D01*
X145426227Y-100195196D01*
X145402428Y-100189235D01*
X145379329Y-100180970D01*
X145357150Y-100170480D01*
X145336107Y-100157868D01*
X145316401Y-100143253D01*
X145298223Y-100126777D01*
X145281747Y-100108599D01*
X145267132Y-100088893D01*
X145254520Y-100067850D01*
X145244030Y-100045671D01*
X145235765Y-100022572D01*
X145229804Y-99998773D01*
X145226204Y-99974505D01*
X145225000Y-99950001D01*
X145225000Y-99049999D01*
X145226204Y-99025495D01*
X145229804Y-99001227D01*
X145235765Y-98977428D01*
X145244030Y-98954329D01*
X145254520Y-98932150D01*
X145267132Y-98911107D01*
X145281747Y-98891401D01*
X145298223Y-98873223D01*
X145316401Y-98856747D01*
X145336107Y-98842132D01*
X145357150Y-98829520D01*
X145379329Y-98819030D01*
X145402428Y-98810765D01*
X145426227Y-98804804D01*
X145450495Y-98801204D01*
X145474999Y-98800000D01*
X146125001Y-98800000D01*
X146149505Y-98801204D01*
X146149505Y-98801204D01*
G37*
D16*
X145800000Y-99500000D03*
G04 #@! TD*
D15*
G04 #@! TO.C,D1*
G36*
X149935779Y-77526144D02*
X149958834Y-77529563D01*
X149981443Y-77535227D01*
X150003387Y-77543079D01*
X150024457Y-77553044D01*
X150044448Y-77565026D01*
X150063168Y-77578910D01*
X150080438Y-77594562D01*
X150096090Y-77611832D01*
X150109974Y-77630552D01*
X150121956Y-77650543D01*
X150131921Y-77671613D01*
X150139773Y-77693557D01*
X150145437Y-77716166D01*
X150148856Y-77739221D01*
X150150000Y-77762500D01*
X150150000Y-78237500D01*
X150148856Y-78260779D01*
X150145437Y-78283834D01*
X150139773Y-78306443D01*
X150131921Y-78328387D01*
X150121956Y-78349457D01*
X150109974Y-78369448D01*
X150096090Y-78388168D01*
X150080438Y-78405438D01*
X150063168Y-78421090D01*
X150044448Y-78434974D01*
X150024457Y-78446956D01*
X150003387Y-78456921D01*
X149981443Y-78464773D01*
X149958834Y-78470437D01*
X149935779Y-78473856D01*
X149912500Y-78475000D01*
X149337500Y-78475000D01*
X149314221Y-78473856D01*
X149291166Y-78470437D01*
X149268557Y-78464773D01*
X149246613Y-78456921D01*
X149225543Y-78446956D01*
X149205552Y-78434974D01*
X149186832Y-78421090D01*
X149169562Y-78405438D01*
X149153910Y-78388168D01*
X149140026Y-78369448D01*
X149128044Y-78349457D01*
X149118079Y-78328387D01*
X149110227Y-78306443D01*
X149104563Y-78283834D01*
X149101144Y-78260779D01*
X149100000Y-78237500D01*
X149100000Y-77762500D01*
X149101144Y-77739221D01*
X149104563Y-77716166D01*
X149110227Y-77693557D01*
X149118079Y-77671613D01*
X149128044Y-77650543D01*
X149140026Y-77630552D01*
X149153910Y-77611832D01*
X149169562Y-77594562D01*
X149186832Y-77578910D01*
X149205552Y-77565026D01*
X149225543Y-77553044D01*
X149246613Y-77543079D01*
X149268557Y-77535227D01*
X149291166Y-77529563D01*
X149314221Y-77526144D01*
X149337500Y-77525000D01*
X149912500Y-77525000D01*
X149935779Y-77526144D01*
X149935779Y-77526144D01*
G37*
D22*
X149625000Y-78000000D03*
D15*
G36*
X148185779Y-77526144D02*
X148208834Y-77529563D01*
X148231443Y-77535227D01*
X148253387Y-77543079D01*
X148274457Y-77553044D01*
X148294448Y-77565026D01*
X148313168Y-77578910D01*
X148330438Y-77594562D01*
X148346090Y-77611832D01*
X148359974Y-77630552D01*
X148371956Y-77650543D01*
X148381921Y-77671613D01*
X148389773Y-77693557D01*
X148395437Y-77716166D01*
X148398856Y-77739221D01*
X148400000Y-77762500D01*
X148400000Y-78237500D01*
X148398856Y-78260779D01*
X148395437Y-78283834D01*
X148389773Y-78306443D01*
X148381921Y-78328387D01*
X148371956Y-78349457D01*
X148359974Y-78369448D01*
X148346090Y-78388168D01*
X148330438Y-78405438D01*
X148313168Y-78421090D01*
X148294448Y-78434974D01*
X148274457Y-78446956D01*
X148253387Y-78456921D01*
X148231443Y-78464773D01*
X148208834Y-78470437D01*
X148185779Y-78473856D01*
X148162500Y-78475000D01*
X147587500Y-78475000D01*
X147564221Y-78473856D01*
X147541166Y-78470437D01*
X147518557Y-78464773D01*
X147496613Y-78456921D01*
X147475543Y-78446956D01*
X147455552Y-78434974D01*
X147436832Y-78421090D01*
X147419562Y-78405438D01*
X147403910Y-78388168D01*
X147390026Y-78369448D01*
X147378044Y-78349457D01*
X147368079Y-78328387D01*
X147360227Y-78306443D01*
X147354563Y-78283834D01*
X147351144Y-78260779D01*
X147350000Y-78237500D01*
X147350000Y-77762500D01*
X147351144Y-77739221D01*
X147354563Y-77716166D01*
X147360227Y-77693557D01*
X147368079Y-77671613D01*
X147378044Y-77650543D01*
X147390026Y-77630552D01*
X147403910Y-77611832D01*
X147419562Y-77594562D01*
X147436832Y-77578910D01*
X147455552Y-77565026D01*
X147475543Y-77553044D01*
X147496613Y-77543079D01*
X147518557Y-77535227D01*
X147541166Y-77529563D01*
X147564221Y-77526144D01*
X147587500Y-77525000D01*
X148162500Y-77525000D01*
X148185779Y-77526144D01*
X148185779Y-77526144D01*
G37*
D22*
X147875000Y-78000000D03*
G04 #@! TD*
D15*
G04 #@! TO.C,D2*
G36*
X130260779Y-107101144D02*
X130283834Y-107104563D01*
X130306443Y-107110227D01*
X130328387Y-107118079D01*
X130349457Y-107128044D01*
X130369448Y-107140026D01*
X130388168Y-107153910D01*
X130405438Y-107169562D01*
X130421090Y-107186832D01*
X130434974Y-107205552D01*
X130446956Y-107225543D01*
X130456921Y-107246613D01*
X130464773Y-107268557D01*
X130470437Y-107291166D01*
X130473856Y-107314221D01*
X130475000Y-107337500D01*
X130475000Y-107912500D01*
X130473856Y-107935779D01*
X130470437Y-107958834D01*
X130464773Y-107981443D01*
X130456921Y-108003387D01*
X130446956Y-108024457D01*
X130434974Y-108044448D01*
X130421090Y-108063168D01*
X130405438Y-108080438D01*
X130388168Y-108096090D01*
X130369448Y-108109974D01*
X130349457Y-108121956D01*
X130328387Y-108131921D01*
X130306443Y-108139773D01*
X130283834Y-108145437D01*
X130260779Y-108148856D01*
X130237500Y-108150000D01*
X129762500Y-108150000D01*
X129739221Y-108148856D01*
X129716166Y-108145437D01*
X129693557Y-108139773D01*
X129671613Y-108131921D01*
X129650543Y-108121956D01*
X129630552Y-108109974D01*
X129611832Y-108096090D01*
X129594562Y-108080438D01*
X129578910Y-108063168D01*
X129565026Y-108044448D01*
X129553044Y-108024457D01*
X129543079Y-108003387D01*
X129535227Y-107981443D01*
X129529563Y-107958834D01*
X129526144Y-107935779D01*
X129525000Y-107912500D01*
X129525000Y-107337500D01*
X129526144Y-107314221D01*
X129529563Y-107291166D01*
X129535227Y-107268557D01*
X129543079Y-107246613D01*
X129553044Y-107225543D01*
X129565026Y-107205552D01*
X129578910Y-107186832D01*
X129594562Y-107169562D01*
X129611832Y-107153910D01*
X129630552Y-107140026D01*
X129650543Y-107128044D01*
X129671613Y-107118079D01*
X129693557Y-107110227D01*
X129716166Y-107104563D01*
X129739221Y-107101144D01*
X129762500Y-107100000D01*
X130237500Y-107100000D01*
X130260779Y-107101144D01*
X130260779Y-107101144D01*
G37*
D22*
X130000000Y-107625000D03*
D15*
G36*
X130260779Y-105351144D02*
X130283834Y-105354563D01*
X130306443Y-105360227D01*
X130328387Y-105368079D01*
X130349457Y-105378044D01*
X130369448Y-105390026D01*
X130388168Y-105403910D01*
X130405438Y-105419562D01*
X130421090Y-105436832D01*
X130434974Y-105455552D01*
X130446956Y-105475543D01*
X130456921Y-105496613D01*
X130464773Y-105518557D01*
X130470437Y-105541166D01*
X130473856Y-105564221D01*
X130475000Y-105587500D01*
X130475000Y-106162500D01*
X130473856Y-106185779D01*
X130470437Y-106208834D01*
X130464773Y-106231443D01*
X130456921Y-106253387D01*
X130446956Y-106274457D01*
X130434974Y-106294448D01*
X130421090Y-106313168D01*
X130405438Y-106330438D01*
X130388168Y-106346090D01*
X130369448Y-106359974D01*
X130349457Y-106371956D01*
X130328387Y-106381921D01*
X130306443Y-106389773D01*
X130283834Y-106395437D01*
X130260779Y-106398856D01*
X130237500Y-106400000D01*
X129762500Y-106400000D01*
X129739221Y-106398856D01*
X129716166Y-106395437D01*
X129693557Y-106389773D01*
X129671613Y-106381921D01*
X129650543Y-106371956D01*
X129630552Y-106359974D01*
X129611832Y-106346090D01*
X129594562Y-106330438D01*
X129578910Y-106313168D01*
X129565026Y-106294448D01*
X129553044Y-106274457D01*
X129543079Y-106253387D01*
X129535227Y-106231443D01*
X129529563Y-106208834D01*
X129526144Y-106185779D01*
X129525000Y-106162500D01*
X129525000Y-105587500D01*
X129526144Y-105564221D01*
X129529563Y-105541166D01*
X129535227Y-105518557D01*
X129543079Y-105496613D01*
X129553044Y-105475543D01*
X129565026Y-105455552D01*
X129578910Y-105436832D01*
X129594562Y-105419562D01*
X129611832Y-105403910D01*
X129630552Y-105390026D01*
X129650543Y-105378044D01*
X129671613Y-105368079D01*
X129693557Y-105360227D01*
X129716166Y-105354563D01*
X129739221Y-105351144D01*
X129762500Y-105350000D01*
X130237500Y-105350000D01*
X130260779Y-105351144D01*
X130260779Y-105351144D01*
G37*
D22*
X130000000Y-105875000D03*
G04 #@! TD*
D15*
G04 #@! TO.C,D3*
G36*
X167510779Y-107101144D02*
X167533834Y-107104563D01*
X167556443Y-107110227D01*
X167578387Y-107118079D01*
X167599457Y-107128044D01*
X167619448Y-107140026D01*
X167638168Y-107153910D01*
X167655438Y-107169562D01*
X167671090Y-107186832D01*
X167684974Y-107205552D01*
X167696956Y-107225543D01*
X167706921Y-107246613D01*
X167714773Y-107268557D01*
X167720437Y-107291166D01*
X167723856Y-107314221D01*
X167725000Y-107337500D01*
X167725000Y-107912500D01*
X167723856Y-107935779D01*
X167720437Y-107958834D01*
X167714773Y-107981443D01*
X167706921Y-108003387D01*
X167696956Y-108024457D01*
X167684974Y-108044448D01*
X167671090Y-108063168D01*
X167655438Y-108080438D01*
X167638168Y-108096090D01*
X167619448Y-108109974D01*
X167599457Y-108121956D01*
X167578387Y-108131921D01*
X167556443Y-108139773D01*
X167533834Y-108145437D01*
X167510779Y-108148856D01*
X167487500Y-108150000D01*
X167012500Y-108150000D01*
X166989221Y-108148856D01*
X166966166Y-108145437D01*
X166943557Y-108139773D01*
X166921613Y-108131921D01*
X166900543Y-108121956D01*
X166880552Y-108109974D01*
X166861832Y-108096090D01*
X166844562Y-108080438D01*
X166828910Y-108063168D01*
X166815026Y-108044448D01*
X166803044Y-108024457D01*
X166793079Y-108003387D01*
X166785227Y-107981443D01*
X166779563Y-107958834D01*
X166776144Y-107935779D01*
X166775000Y-107912500D01*
X166775000Y-107337500D01*
X166776144Y-107314221D01*
X166779563Y-107291166D01*
X166785227Y-107268557D01*
X166793079Y-107246613D01*
X166803044Y-107225543D01*
X166815026Y-107205552D01*
X166828910Y-107186832D01*
X166844562Y-107169562D01*
X166861832Y-107153910D01*
X166880552Y-107140026D01*
X166900543Y-107128044D01*
X166921613Y-107118079D01*
X166943557Y-107110227D01*
X166966166Y-107104563D01*
X166989221Y-107101144D01*
X167012500Y-107100000D01*
X167487500Y-107100000D01*
X167510779Y-107101144D01*
X167510779Y-107101144D01*
G37*
D22*
X167250000Y-107625000D03*
D15*
G36*
X167510779Y-105351144D02*
X167533834Y-105354563D01*
X167556443Y-105360227D01*
X167578387Y-105368079D01*
X167599457Y-105378044D01*
X167619448Y-105390026D01*
X167638168Y-105403910D01*
X167655438Y-105419562D01*
X167671090Y-105436832D01*
X167684974Y-105455552D01*
X167696956Y-105475543D01*
X167706921Y-105496613D01*
X167714773Y-105518557D01*
X167720437Y-105541166D01*
X167723856Y-105564221D01*
X167725000Y-105587500D01*
X167725000Y-106162500D01*
X167723856Y-106185779D01*
X167720437Y-106208834D01*
X167714773Y-106231443D01*
X167706921Y-106253387D01*
X167696956Y-106274457D01*
X167684974Y-106294448D01*
X167671090Y-106313168D01*
X167655438Y-106330438D01*
X167638168Y-106346090D01*
X167619448Y-106359974D01*
X167599457Y-106371956D01*
X167578387Y-106381921D01*
X167556443Y-106389773D01*
X167533834Y-106395437D01*
X167510779Y-106398856D01*
X167487500Y-106400000D01*
X167012500Y-106400000D01*
X166989221Y-106398856D01*
X166966166Y-106395437D01*
X166943557Y-106389773D01*
X166921613Y-106381921D01*
X166900543Y-106371956D01*
X166880552Y-106359974D01*
X166861832Y-106346090D01*
X166844562Y-106330438D01*
X166828910Y-106313168D01*
X166815026Y-106294448D01*
X166803044Y-106274457D01*
X166793079Y-106253387D01*
X166785227Y-106231443D01*
X166779563Y-106208834D01*
X166776144Y-106185779D01*
X166775000Y-106162500D01*
X166775000Y-105587500D01*
X166776144Y-105564221D01*
X166779563Y-105541166D01*
X166785227Y-105518557D01*
X166793079Y-105496613D01*
X166803044Y-105475543D01*
X166815026Y-105455552D01*
X166828910Y-105436832D01*
X166844562Y-105419562D01*
X166861832Y-105403910D01*
X166880552Y-105390026D01*
X166900543Y-105378044D01*
X166921613Y-105368079D01*
X166943557Y-105360227D01*
X166966166Y-105354563D01*
X166989221Y-105351144D01*
X167012500Y-105350000D01*
X167487500Y-105350000D01*
X167510779Y-105351144D01*
X167510779Y-105351144D01*
G37*
D22*
X167250000Y-105875000D03*
G04 #@! TD*
D15*
G04 #@! TO.C,D4*
G36*
X149935779Y-134776144D02*
X149958834Y-134779563D01*
X149981443Y-134785227D01*
X150003387Y-134793079D01*
X150024457Y-134803044D01*
X150044448Y-134815026D01*
X150063168Y-134828910D01*
X150080438Y-134844562D01*
X150096090Y-134861832D01*
X150109974Y-134880552D01*
X150121956Y-134900543D01*
X150131921Y-134921613D01*
X150139773Y-134943557D01*
X150145437Y-134966166D01*
X150148856Y-134989221D01*
X150150000Y-135012500D01*
X150150000Y-135487500D01*
X150148856Y-135510779D01*
X150145437Y-135533834D01*
X150139773Y-135556443D01*
X150131921Y-135578387D01*
X150121956Y-135599457D01*
X150109974Y-135619448D01*
X150096090Y-135638168D01*
X150080438Y-135655438D01*
X150063168Y-135671090D01*
X150044448Y-135684974D01*
X150024457Y-135696956D01*
X150003387Y-135706921D01*
X149981443Y-135714773D01*
X149958834Y-135720437D01*
X149935779Y-135723856D01*
X149912500Y-135725000D01*
X149337500Y-135725000D01*
X149314221Y-135723856D01*
X149291166Y-135720437D01*
X149268557Y-135714773D01*
X149246613Y-135706921D01*
X149225543Y-135696956D01*
X149205552Y-135684974D01*
X149186832Y-135671090D01*
X149169562Y-135655438D01*
X149153910Y-135638168D01*
X149140026Y-135619448D01*
X149128044Y-135599457D01*
X149118079Y-135578387D01*
X149110227Y-135556443D01*
X149104563Y-135533834D01*
X149101144Y-135510779D01*
X149100000Y-135487500D01*
X149100000Y-135012500D01*
X149101144Y-134989221D01*
X149104563Y-134966166D01*
X149110227Y-134943557D01*
X149118079Y-134921613D01*
X149128044Y-134900543D01*
X149140026Y-134880552D01*
X149153910Y-134861832D01*
X149169562Y-134844562D01*
X149186832Y-134828910D01*
X149205552Y-134815026D01*
X149225543Y-134803044D01*
X149246613Y-134793079D01*
X149268557Y-134785227D01*
X149291166Y-134779563D01*
X149314221Y-134776144D01*
X149337500Y-134775000D01*
X149912500Y-134775000D01*
X149935779Y-134776144D01*
X149935779Y-134776144D01*
G37*
D22*
X149625000Y-135250000D03*
D15*
G36*
X148185779Y-134776144D02*
X148208834Y-134779563D01*
X148231443Y-134785227D01*
X148253387Y-134793079D01*
X148274457Y-134803044D01*
X148294448Y-134815026D01*
X148313168Y-134828910D01*
X148330438Y-134844562D01*
X148346090Y-134861832D01*
X148359974Y-134880552D01*
X148371956Y-134900543D01*
X148381921Y-134921613D01*
X148389773Y-134943557D01*
X148395437Y-134966166D01*
X148398856Y-134989221D01*
X148400000Y-135012500D01*
X148400000Y-135487500D01*
X148398856Y-135510779D01*
X148395437Y-135533834D01*
X148389773Y-135556443D01*
X148381921Y-135578387D01*
X148371956Y-135599457D01*
X148359974Y-135619448D01*
X148346090Y-135638168D01*
X148330438Y-135655438D01*
X148313168Y-135671090D01*
X148294448Y-135684974D01*
X148274457Y-135696956D01*
X148253387Y-135706921D01*
X148231443Y-135714773D01*
X148208834Y-135720437D01*
X148185779Y-135723856D01*
X148162500Y-135725000D01*
X147587500Y-135725000D01*
X147564221Y-135723856D01*
X147541166Y-135720437D01*
X147518557Y-135714773D01*
X147496613Y-135706921D01*
X147475543Y-135696956D01*
X147455552Y-135684974D01*
X147436832Y-135671090D01*
X147419562Y-135655438D01*
X147403910Y-135638168D01*
X147390026Y-135619448D01*
X147378044Y-135599457D01*
X147368079Y-135578387D01*
X147360227Y-135556443D01*
X147354563Y-135533834D01*
X147351144Y-135510779D01*
X147350000Y-135487500D01*
X147350000Y-135012500D01*
X147351144Y-134989221D01*
X147354563Y-134966166D01*
X147360227Y-134943557D01*
X147368079Y-134921613D01*
X147378044Y-134900543D01*
X147390026Y-134880552D01*
X147403910Y-134861832D01*
X147419562Y-134844562D01*
X147436832Y-134828910D01*
X147455552Y-134815026D01*
X147475543Y-134803044D01*
X147496613Y-134793079D01*
X147518557Y-134785227D01*
X147541166Y-134779563D01*
X147564221Y-134776144D01*
X147587500Y-134775000D01*
X148162500Y-134775000D01*
X148185779Y-134776144D01*
X148185779Y-134776144D01*
G37*
D22*
X147875000Y-135250000D03*
G04 #@! TD*
M02*
