G04 #@! TF.GenerationSoftware,KiCad,Pcbnew,5.0.0-fee4fd1~66~ubuntu16.04.1*
G04 #@! TF.CreationDate,2018-10-30T04:03:00-04:00*
G04 #@! TF.ProjectId,quadrant,7175616472616E742E6B696361645F70,rev?*
G04 #@! TF.SameCoordinates,Original*
G04 #@! TF.FileFunction,Copper,L1,Top,Signal*
G04 #@! TF.FilePolarity,Positive*
%FSLAX46Y46*%
G04 Gerber Fmt 4.6, Leading zero omitted, Abs format (unit mm)*
G04 Created by KiCad (PCBNEW 5.0.0-fee4fd1~66~ubuntu16.04.1) date Tue Oct 30 04:03:00 2018*
%MOMM*%
%LPD*%
G01*
G04 APERTURE LIST*
G04 #@! TA.AperFunction,Conductor*
%ADD10C,0.100000*%
G04 #@! TD*
G04 #@! TA.AperFunction,SMDPad,CuDef*
%ADD11C,1.150000*%
G04 #@! TD*
G04 #@! TA.AperFunction,SMDPad,CuDef*
%ADD12C,0.750000*%
G04 #@! TD*
G04 #@! TA.AperFunction,SMDPad,CuDef*
%ADD13R,4.000000X2.000000*%
G04 #@! TD*
G04 #@! TA.AperFunction,SMDPad,CuDef*
%ADD14R,2.500000X1.000000*%
G04 #@! TD*
G04 #@! TA.AperFunction,ComponentPad*
%ADD15C,1.524000*%
G04 #@! TD*
G04 #@! TA.AperFunction,ComponentPad*
%ADD16O,1.700000X1.700000*%
G04 #@! TD*
G04 #@! TA.AperFunction,ComponentPad*
%ADD17R,1.700000X1.700000*%
G04 #@! TD*
G04 #@! TA.AperFunction,SMDPad,CuDef*
%ADD18R,2.500000X1.430000*%
G04 #@! TD*
G04 #@! TA.AperFunction,ComponentPad*
%ADD19O,1.700000X1.350000*%
G04 #@! TD*
G04 #@! TA.AperFunction,ComponentPad*
%ADD20O,1.500000X1.100000*%
G04 #@! TD*
G04 #@! TA.AperFunction,SMDPad,CuDef*
%ADD21R,1.650000X0.400000*%
G04 #@! TD*
G04 #@! TA.AperFunction,SMDPad,CuDef*
%ADD22R,1.500000X2.000000*%
G04 #@! TD*
G04 #@! TA.AperFunction,SMDPad,CuDef*
%ADD23R,0.700000X1.825000*%
G04 #@! TD*
G04 #@! TA.AperFunction,SMDPad,CuDef*
%ADD24R,2.000000X1.350000*%
G04 #@! TD*
G04 #@! TA.AperFunction,SMDPad,CuDef*
%ADD25R,0.450000X1.450000*%
G04 #@! TD*
G04 #@! TA.AperFunction,SMDPad,CuDef*
%ADD26C,1.425000*%
G04 #@! TD*
G04 #@! TA.AperFunction,SMDPad,CuDef*
%ADD27R,0.900000X0.800000*%
G04 #@! TD*
G04 #@! TA.AperFunction,SMDPad,CuDef*
%ADD28R,0.800000X0.900000*%
G04 #@! TD*
G04 #@! TA.AperFunction,ComponentPad*
%ADD29C,1.500000*%
G04 #@! TD*
G04 #@! TA.AperFunction,WasherPad*
%ADD30C,3.200000*%
G04 #@! TD*
G04 #@! TA.AperFunction,ViaPad*
%ADD31C,0.685800*%
G04 #@! TD*
G04 #@! TA.AperFunction,Conductor*
%ADD32C,0.254000*%
G04 #@! TD*
G04 APERTURE END LIST*
D10*
G04 #@! TO.N,USB5V*
G04 #@! TO.C,C4*
G36*
X131284505Y-121346204D02*
X131308773Y-121349804D01*
X131332572Y-121355765D01*
X131355671Y-121364030D01*
X131377850Y-121374520D01*
X131398893Y-121387132D01*
X131418599Y-121401747D01*
X131436777Y-121418223D01*
X131453253Y-121436401D01*
X131467868Y-121456107D01*
X131480480Y-121477150D01*
X131490970Y-121499329D01*
X131499235Y-121522428D01*
X131505196Y-121546227D01*
X131508796Y-121570495D01*
X131510000Y-121594999D01*
X131510000Y-122245001D01*
X131508796Y-122269505D01*
X131505196Y-122293773D01*
X131499235Y-122317572D01*
X131490970Y-122340671D01*
X131480480Y-122362850D01*
X131467868Y-122383893D01*
X131453253Y-122403599D01*
X131436777Y-122421777D01*
X131418599Y-122438253D01*
X131398893Y-122452868D01*
X131377850Y-122465480D01*
X131355671Y-122475970D01*
X131332572Y-122484235D01*
X131308773Y-122490196D01*
X131284505Y-122493796D01*
X131260001Y-122495000D01*
X130359999Y-122495000D01*
X130335495Y-122493796D01*
X130311227Y-122490196D01*
X130287428Y-122484235D01*
X130264329Y-122475970D01*
X130242150Y-122465480D01*
X130221107Y-122452868D01*
X130201401Y-122438253D01*
X130183223Y-122421777D01*
X130166747Y-122403599D01*
X130152132Y-122383893D01*
X130139520Y-122362850D01*
X130129030Y-122340671D01*
X130120765Y-122317572D01*
X130114804Y-122293773D01*
X130111204Y-122269505D01*
X130110000Y-122245001D01*
X130110000Y-121594999D01*
X130111204Y-121570495D01*
X130114804Y-121546227D01*
X130120765Y-121522428D01*
X130129030Y-121499329D01*
X130139520Y-121477150D01*
X130152132Y-121456107D01*
X130166747Y-121436401D01*
X130183223Y-121418223D01*
X130201401Y-121401747D01*
X130221107Y-121387132D01*
X130242150Y-121374520D01*
X130264329Y-121364030D01*
X130287428Y-121355765D01*
X130311227Y-121349804D01*
X130335495Y-121346204D01*
X130359999Y-121345000D01*
X131260001Y-121345000D01*
X131284505Y-121346204D01*
X131284505Y-121346204D01*
G37*
D11*
G04 #@! TD*
G04 #@! TO.P,C4,1*
G04 #@! TO.N,USB5V*
X130810000Y-121920000D03*
D10*
G04 #@! TO.N,GND*
G04 #@! TO.C,C4*
G36*
X131284505Y-119296204D02*
X131308773Y-119299804D01*
X131332572Y-119305765D01*
X131355671Y-119314030D01*
X131377850Y-119324520D01*
X131398893Y-119337132D01*
X131418599Y-119351747D01*
X131436777Y-119368223D01*
X131453253Y-119386401D01*
X131467868Y-119406107D01*
X131480480Y-119427150D01*
X131490970Y-119449329D01*
X131499235Y-119472428D01*
X131505196Y-119496227D01*
X131508796Y-119520495D01*
X131510000Y-119544999D01*
X131510000Y-120195001D01*
X131508796Y-120219505D01*
X131505196Y-120243773D01*
X131499235Y-120267572D01*
X131490970Y-120290671D01*
X131480480Y-120312850D01*
X131467868Y-120333893D01*
X131453253Y-120353599D01*
X131436777Y-120371777D01*
X131418599Y-120388253D01*
X131398893Y-120402868D01*
X131377850Y-120415480D01*
X131355671Y-120425970D01*
X131332572Y-120434235D01*
X131308773Y-120440196D01*
X131284505Y-120443796D01*
X131260001Y-120445000D01*
X130359999Y-120445000D01*
X130335495Y-120443796D01*
X130311227Y-120440196D01*
X130287428Y-120434235D01*
X130264329Y-120425970D01*
X130242150Y-120415480D01*
X130221107Y-120402868D01*
X130201401Y-120388253D01*
X130183223Y-120371777D01*
X130166747Y-120353599D01*
X130152132Y-120333893D01*
X130139520Y-120312850D01*
X130129030Y-120290671D01*
X130120765Y-120267572D01*
X130114804Y-120243773D01*
X130111204Y-120219505D01*
X130110000Y-120195001D01*
X130110000Y-119544999D01*
X130111204Y-119520495D01*
X130114804Y-119496227D01*
X130120765Y-119472428D01*
X130129030Y-119449329D01*
X130139520Y-119427150D01*
X130152132Y-119406107D01*
X130166747Y-119386401D01*
X130183223Y-119368223D01*
X130201401Y-119351747D01*
X130221107Y-119337132D01*
X130242150Y-119324520D01*
X130264329Y-119314030D01*
X130287428Y-119305765D01*
X130311227Y-119299804D01*
X130335495Y-119296204D01*
X130359999Y-119295000D01*
X131260001Y-119295000D01*
X131284505Y-119296204D01*
X131284505Y-119296204D01*
G37*
D11*
G04 #@! TD*
G04 #@! TO.P,C4,2*
G04 #@! TO.N,GND*
X130810000Y-119870000D03*
D10*
G04 #@! TO.N,GND*
G04 #@! TO.C,C5*
G36*
X143859505Y-119951204D02*
X143883773Y-119954804D01*
X143907572Y-119960765D01*
X143930671Y-119969030D01*
X143952850Y-119979520D01*
X143973893Y-119992132D01*
X143993599Y-120006747D01*
X144011777Y-120023223D01*
X144028253Y-120041401D01*
X144042868Y-120061107D01*
X144055480Y-120082150D01*
X144065970Y-120104329D01*
X144074235Y-120127428D01*
X144080196Y-120151227D01*
X144083796Y-120175495D01*
X144085000Y-120199999D01*
X144085000Y-121100001D01*
X144083796Y-121124505D01*
X144080196Y-121148773D01*
X144074235Y-121172572D01*
X144065970Y-121195671D01*
X144055480Y-121217850D01*
X144042868Y-121238893D01*
X144028253Y-121258599D01*
X144011777Y-121276777D01*
X143993599Y-121293253D01*
X143973893Y-121307868D01*
X143952850Y-121320480D01*
X143930671Y-121330970D01*
X143907572Y-121339235D01*
X143883773Y-121345196D01*
X143859505Y-121348796D01*
X143835001Y-121350000D01*
X143184999Y-121350000D01*
X143160495Y-121348796D01*
X143136227Y-121345196D01*
X143112428Y-121339235D01*
X143089329Y-121330970D01*
X143067150Y-121320480D01*
X143046107Y-121307868D01*
X143026401Y-121293253D01*
X143008223Y-121276777D01*
X142991747Y-121258599D01*
X142977132Y-121238893D01*
X142964520Y-121217850D01*
X142954030Y-121195671D01*
X142945765Y-121172572D01*
X142939804Y-121148773D01*
X142936204Y-121124505D01*
X142935000Y-121100001D01*
X142935000Y-120199999D01*
X142936204Y-120175495D01*
X142939804Y-120151227D01*
X142945765Y-120127428D01*
X142954030Y-120104329D01*
X142964520Y-120082150D01*
X142977132Y-120061107D01*
X142991747Y-120041401D01*
X143008223Y-120023223D01*
X143026401Y-120006747D01*
X143046107Y-119992132D01*
X143067150Y-119979520D01*
X143089329Y-119969030D01*
X143112428Y-119960765D01*
X143136227Y-119954804D01*
X143160495Y-119951204D01*
X143184999Y-119950000D01*
X143835001Y-119950000D01*
X143859505Y-119951204D01*
X143859505Y-119951204D01*
G37*
D11*
G04 #@! TD*
G04 #@! TO.P,C5,2*
G04 #@! TO.N,GND*
X143510000Y-120650000D03*
D10*
G04 #@! TO.N,VCC*
G04 #@! TO.C,C5*
G36*
X141809505Y-119951204D02*
X141833773Y-119954804D01*
X141857572Y-119960765D01*
X141880671Y-119969030D01*
X141902850Y-119979520D01*
X141923893Y-119992132D01*
X141943599Y-120006747D01*
X141961777Y-120023223D01*
X141978253Y-120041401D01*
X141992868Y-120061107D01*
X142005480Y-120082150D01*
X142015970Y-120104329D01*
X142024235Y-120127428D01*
X142030196Y-120151227D01*
X142033796Y-120175495D01*
X142035000Y-120199999D01*
X142035000Y-121100001D01*
X142033796Y-121124505D01*
X142030196Y-121148773D01*
X142024235Y-121172572D01*
X142015970Y-121195671D01*
X142005480Y-121217850D01*
X141992868Y-121238893D01*
X141978253Y-121258599D01*
X141961777Y-121276777D01*
X141943599Y-121293253D01*
X141923893Y-121307868D01*
X141902850Y-121320480D01*
X141880671Y-121330970D01*
X141857572Y-121339235D01*
X141833773Y-121345196D01*
X141809505Y-121348796D01*
X141785001Y-121350000D01*
X141134999Y-121350000D01*
X141110495Y-121348796D01*
X141086227Y-121345196D01*
X141062428Y-121339235D01*
X141039329Y-121330970D01*
X141017150Y-121320480D01*
X140996107Y-121307868D01*
X140976401Y-121293253D01*
X140958223Y-121276777D01*
X140941747Y-121258599D01*
X140927132Y-121238893D01*
X140914520Y-121217850D01*
X140904030Y-121195671D01*
X140895765Y-121172572D01*
X140889804Y-121148773D01*
X140886204Y-121124505D01*
X140885000Y-121100001D01*
X140885000Y-120199999D01*
X140886204Y-120175495D01*
X140889804Y-120151227D01*
X140895765Y-120127428D01*
X140904030Y-120104329D01*
X140914520Y-120082150D01*
X140927132Y-120061107D01*
X140941747Y-120041401D01*
X140958223Y-120023223D01*
X140976401Y-120006747D01*
X140996107Y-119992132D01*
X141017150Y-119979520D01*
X141039329Y-119969030D01*
X141062428Y-119960765D01*
X141086227Y-119954804D01*
X141110495Y-119951204D01*
X141134999Y-119950000D01*
X141785001Y-119950000D01*
X141809505Y-119951204D01*
X141809505Y-119951204D01*
G37*
D11*
G04 #@! TD*
G04 #@! TO.P,C5,1*
G04 #@! TO.N,VCC*
X141460000Y-120650000D03*
D12*
G04 #@! TO.P,U2,2*
G04 #@! TO.N,VCC*
X135520000Y-120650000D03*
D10*
G04 #@! TD*
G04 #@! TO.N,VCC*
G04 #@! TO.C,U2*
G36*
X135895000Y-121650000D02*
X135145000Y-121150000D01*
X135145000Y-120150000D01*
X135895000Y-119650000D01*
X135895000Y-121650000D01*
X135895000Y-121650000D01*
G37*
D13*
G04 #@! TO.P,U2,2*
G04 #@! TO.N,VCC*
X137870000Y-120650000D03*
D14*
G04 #@! TO.P,U2,3*
G04 #@! TO.N,USB5V*
X133910000Y-122150000D03*
G04 #@! TO.P,U2,2*
G04 #@! TO.N,VCC*
X133910000Y-120650000D03*
G04 #@! TO.P,U2,1*
G04 #@! TO.N,GND*
X133910000Y-119150000D03*
G04 #@! TD*
D15*
G04 #@! TO.P,D1,4*
G04 #@! TO.N,Net-(D1-Pad4)*
X147320000Y-78950000D03*
G04 #@! TO.P,D1,3*
G04 #@! TO.N,GND*
X147320000Y-73450000D03*
G04 #@! TO.P,D1,2*
G04 #@! TO.N,Net-(D1-Pad2)*
X149860000Y-78950000D03*
G04 #@! TO.P,D1,1*
G04 #@! TO.N,ADC_IN0*
X149860000Y-73450000D03*
G04 #@! TD*
G04 #@! TO.P,D2,4*
G04 #@! TO.N,Net-(D2-Pad4)*
X166160000Y-105410000D03*
G04 #@! TO.P,D2,3*
G04 #@! TO.N,GND*
X171660000Y-105410000D03*
G04 #@! TO.P,D2,2*
G04 #@! TO.N,Net-(D2-Pad2)*
X166160000Y-107950000D03*
G04 #@! TO.P,D2,1*
G04 #@! TO.N,ADC_IN2*
X171660000Y-107950000D03*
G04 #@! TD*
G04 #@! TO.P,D3,4*
G04 #@! TO.N,Net-(D3-Pad4)*
X149860000Y-134410000D03*
G04 #@! TO.P,D3,3*
G04 #@! TO.N,GND*
X149860000Y-139910000D03*
G04 #@! TO.P,D3,2*
G04 #@! TO.N,Net-(D3-Pad2)*
X147320000Y-134410000D03*
G04 #@! TO.P,D3,1*
G04 #@! TO.N,ADC_IN4*
X147320000Y-139910000D03*
G04 #@! TD*
G04 #@! TO.P,D4,4*
G04 #@! TO.N,Net-(D4-Pad4)*
X131020000Y-107950000D03*
G04 #@! TO.P,D4,3*
G04 #@! TO.N,GND*
X125520000Y-107950000D03*
G04 #@! TO.P,D4,2*
G04 #@! TO.N,Net-(D4-Pad2)*
X131020000Y-105410000D03*
G04 #@! TO.P,D4,1*
G04 #@! TO.N,ADC_IN6*
X125520000Y-105410000D03*
G04 #@! TD*
D16*
G04 #@! TO.P,J1,6*
G04 #@! TO.N,N/C*
X166370000Y-91440000D03*
G04 #@! TO.P,J1,5*
G04 #@! TO.N,NRST*
X166370000Y-88900000D03*
G04 #@! TO.P,J1,4*
G04 #@! TO.N,SWDIO*
X166370000Y-86360000D03*
G04 #@! TO.P,J1,3*
G04 #@! TO.N,GND*
X166370000Y-83820000D03*
G04 #@! TO.P,J1,2*
G04 #@! TO.N,SWCLK*
X166370000Y-81280000D03*
D17*
G04 #@! TO.P,J1,1*
G04 #@! TO.N,VCC*
X166370000Y-78740000D03*
G04 #@! TD*
D18*
G04 #@! TO.P,J2,6*
G04 #@! TO.N,GND*
X124345000Y-126111000D03*
X124345000Y-124191000D03*
D19*
X124615000Y-127881000D03*
X124615000Y-122421000D03*
D20*
X127615000Y-127571000D03*
X127615000Y-122731000D03*
D21*
G04 #@! TO.P,J2,5*
X127495000Y-126451000D03*
G04 #@! TO.P,J2,4*
G04 #@! TO.N,N/C*
X127495000Y-125801000D03*
G04 #@! TO.P,J2,3*
G04 #@! TO.N,USBDP*
X127495000Y-125151000D03*
G04 #@! TO.P,J2,2*
G04 #@! TO.N,USBDM*
X127495000Y-124501000D03*
G04 #@! TO.P,J2,1*
G04 #@! TO.N,USB5V*
X127495000Y-123851000D03*
D22*
G04 #@! TO.P,J2,6*
G04 #@! TO.N,GND*
X127615000Y-128051000D03*
X127595000Y-122301000D03*
D23*
X126295000Y-128151000D03*
X126295000Y-122201000D03*
D24*
X125545000Y-122421000D03*
X125545000Y-127901000D03*
G04 #@! TD*
D25*
G04 #@! TO.P,U1,20*
G04 #@! TO.N,SWCLK*
X151515000Y-108360000D03*
G04 #@! TO.P,U1,19*
G04 #@! TO.N,SWDIO*
X150865000Y-108360000D03*
G04 #@! TO.P,U1,18*
G04 #@! TO.N,USBDP*
X150215000Y-108360000D03*
G04 #@! TO.P,U1,17*
G04 #@! TO.N,USBDM*
X149565000Y-108360000D03*
G04 #@! TO.P,U1,16*
G04 #@! TO.N,VCC*
X148915000Y-108360000D03*
G04 #@! TO.P,U1,15*
G04 #@! TO.N,GND*
X148265000Y-108360000D03*
G04 #@! TO.P,U1,14*
G04 #@! TO.N,Net-(D5-Pad2)*
X147615000Y-108360000D03*
G04 #@! TO.P,U1,13*
G04 #@! TO.N,PA7*
X146965000Y-108360000D03*
G04 #@! TO.P,U1,12*
G04 #@! TO.N,ADC_IN6*
X146315000Y-108360000D03*
G04 #@! TO.P,U1,11*
G04 #@! TO.N,PA5*
X145665000Y-108360000D03*
G04 #@! TO.P,U1,10*
G04 #@! TO.N,ADC_IN4*
X145665000Y-102460000D03*
G04 #@! TO.P,U1,9*
G04 #@! TO.N,PA3*
X146315000Y-102460000D03*
G04 #@! TO.P,U1,8*
G04 #@! TO.N,ADC_IN2*
X146965000Y-102460000D03*
G04 #@! TO.P,U1,7*
G04 #@! TO.N,PA1*
X147615000Y-102460000D03*
G04 #@! TO.P,U1,6*
G04 #@! TO.N,ADC_IN0*
X148265000Y-102460000D03*
G04 #@! TO.P,U1,5*
G04 #@! TO.N,VCC*
X148915000Y-102460000D03*
G04 #@! TO.P,U1,4*
G04 #@! TO.N,NRST*
X149565000Y-102460000D03*
G04 #@! TO.P,U1,3*
G04 #@! TO.N,Net-(C3-Pad1)*
X150215000Y-102460000D03*
G04 #@! TO.P,U1,2*
G04 #@! TO.N,Net-(C2-Pad1)*
X150865000Y-102460000D03*
G04 #@! TO.P,U1,1*
G04 #@! TO.N,Net-(R10-Pad2)*
X151515000Y-102460000D03*
G04 #@! TD*
D10*
G04 #@! TO.N,VCC*
G04 #@! TO.C,C1*
G36*
X150989505Y-112331204D02*
X151013773Y-112334804D01*
X151037572Y-112340765D01*
X151060671Y-112349030D01*
X151082850Y-112359520D01*
X151103893Y-112372132D01*
X151123599Y-112386747D01*
X151141777Y-112403223D01*
X151158253Y-112421401D01*
X151172868Y-112441107D01*
X151185480Y-112462150D01*
X151195970Y-112484329D01*
X151204235Y-112507428D01*
X151210196Y-112531227D01*
X151213796Y-112555495D01*
X151215000Y-112579999D01*
X151215000Y-113480001D01*
X151213796Y-113504505D01*
X151210196Y-113528773D01*
X151204235Y-113552572D01*
X151195970Y-113575671D01*
X151185480Y-113597850D01*
X151172868Y-113618893D01*
X151158253Y-113638599D01*
X151141777Y-113656777D01*
X151123599Y-113673253D01*
X151103893Y-113687868D01*
X151082850Y-113700480D01*
X151060671Y-113710970D01*
X151037572Y-113719235D01*
X151013773Y-113725196D01*
X150989505Y-113728796D01*
X150965001Y-113730000D01*
X150314999Y-113730000D01*
X150290495Y-113728796D01*
X150266227Y-113725196D01*
X150242428Y-113719235D01*
X150219329Y-113710970D01*
X150197150Y-113700480D01*
X150176107Y-113687868D01*
X150156401Y-113673253D01*
X150138223Y-113656777D01*
X150121747Y-113638599D01*
X150107132Y-113618893D01*
X150094520Y-113597850D01*
X150084030Y-113575671D01*
X150075765Y-113552572D01*
X150069804Y-113528773D01*
X150066204Y-113504505D01*
X150065000Y-113480001D01*
X150065000Y-112579999D01*
X150066204Y-112555495D01*
X150069804Y-112531227D01*
X150075765Y-112507428D01*
X150084030Y-112484329D01*
X150094520Y-112462150D01*
X150107132Y-112441107D01*
X150121747Y-112421401D01*
X150138223Y-112403223D01*
X150156401Y-112386747D01*
X150176107Y-112372132D01*
X150197150Y-112359520D01*
X150219329Y-112349030D01*
X150242428Y-112340765D01*
X150266227Y-112334804D01*
X150290495Y-112331204D01*
X150314999Y-112330000D01*
X150965001Y-112330000D01*
X150989505Y-112331204D01*
X150989505Y-112331204D01*
G37*
D11*
G04 #@! TD*
G04 #@! TO.P,C1,1*
G04 #@! TO.N,VCC*
X150640000Y-113030000D03*
D10*
G04 #@! TO.N,GND*
G04 #@! TO.C,C1*
G36*
X148939505Y-112331204D02*
X148963773Y-112334804D01*
X148987572Y-112340765D01*
X149010671Y-112349030D01*
X149032850Y-112359520D01*
X149053893Y-112372132D01*
X149073599Y-112386747D01*
X149091777Y-112403223D01*
X149108253Y-112421401D01*
X149122868Y-112441107D01*
X149135480Y-112462150D01*
X149145970Y-112484329D01*
X149154235Y-112507428D01*
X149160196Y-112531227D01*
X149163796Y-112555495D01*
X149165000Y-112579999D01*
X149165000Y-113480001D01*
X149163796Y-113504505D01*
X149160196Y-113528773D01*
X149154235Y-113552572D01*
X149145970Y-113575671D01*
X149135480Y-113597850D01*
X149122868Y-113618893D01*
X149108253Y-113638599D01*
X149091777Y-113656777D01*
X149073599Y-113673253D01*
X149053893Y-113687868D01*
X149032850Y-113700480D01*
X149010671Y-113710970D01*
X148987572Y-113719235D01*
X148963773Y-113725196D01*
X148939505Y-113728796D01*
X148915001Y-113730000D01*
X148264999Y-113730000D01*
X148240495Y-113728796D01*
X148216227Y-113725196D01*
X148192428Y-113719235D01*
X148169329Y-113710970D01*
X148147150Y-113700480D01*
X148126107Y-113687868D01*
X148106401Y-113673253D01*
X148088223Y-113656777D01*
X148071747Y-113638599D01*
X148057132Y-113618893D01*
X148044520Y-113597850D01*
X148034030Y-113575671D01*
X148025765Y-113552572D01*
X148019804Y-113528773D01*
X148016204Y-113504505D01*
X148015000Y-113480001D01*
X148015000Y-112579999D01*
X148016204Y-112555495D01*
X148019804Y-112531227D01*
X148025765Y-112507428D01*
X148034030Y-112484329D01*
X148044520Y-112462150D01*
X148057132Y-112441107D01*
X148071747Y-112421401D01*
X148088223Y-112403223D01*
X148106401Y-112386747D01*
X148126107Y-112372132D01*
X148147150Y-112359520D01*
X148169329Y-112349030D01*
X148192428Y-112340765D01*
X148216227Y-112334804D01*
X148240495Y-112331204D01*
X148264999Y-112330000D01*
X148915001Y-112330000D01*
X148939505Y-112331204D01*
X148939505Y-112331204D01*
G37*
D11*
G04 #@! TD*
G04 #@! TO.P,C1,2*
G04 #@! TO.N,GND*
X148590000Y-113030000D03*
D10*
G04 #@! TO.N,GND*
G04 #@! TO.C,C2*
G36*
X152874505Y-89841204D02*
X152898773Y-89844804D01*
X152922572Y-89850765D01*
X152945671Y-89859030D01*
X152967850Y-89869520D01*
X152988893Y-89882132D01*
X153008599Y-89896747D01*
X153026777Y-89913223D01*
X153043253Y-89931401D01*
X153057868Y-89951107D01*
X153070480Y-89972150D01*
X153080970Y-89994329D01*
X153089235Y-90017428D01*
X153095196Y-90041227D01*
X153098796Y-90065495D01*
X153100000Y-90089999D01*
X153100000Y-90740001D01*
X153098796Y-90764505D01*
X153095196Y-90788773D01*
X153089235Y-90812572D01*
X153080970Y-90835671D01*
X153070480Y-90857850D01*
X153057868Y-90878893D01*
X153043253Y-90898599D01*
X153026777Y-90916777D01*
X153008599Y-90933253D01*
X152988893Y-90947868D01*
X152967850Y-90960480D01*
X152945671Y-90970970D01*
X152922572Y-90979235D01*
X152898773Y-90985196D01*
X152874505Y-90988796D01*
X152850001Y-90990000D01*
X151949999Y-90990000D01*
X151925495Y-90988796D01*
X151901227Y-90985196D01*
X151877428Y-90979235D01*
X151854329Y-90970970D01*
X151832150Y-90960480D01*
X151811107Y-90947868D01*
X151791401Y-90933253D01*
X151773223Y-90916777D01*
X151756747Y-90898599D01*
X151742132Y-90878893D01*
X151729520Y-90857850D01*
X151719030Y-90835671D01*
X151710765Y-90812572D01*
X151704804Y-90788773D01*
X151701204Y-90764505D01*
X151700000Y-90740001D01*
X151700000Y-90089999D01*
X151701204Y-90065495D01*
X151704804Y-90041227D01*
X151710765Y-90017428D01*
X151719030Y-89994329D01*
X151729520Y-89972150D01*
X151742132Y-89951107D01*
X151756747Y-89931401D01*
X151773223Y-89913223D01*
X151791401Y-89896747D01*
X151811107Y-89882132D01*
X151832150Y-89869520D01*
X151854329Y-89859030D01*
X151877428Y-89850765D01*
X151901227Y-89844804D01*
X151925495Y-89841204D01*
X151949999Y-89840000D01*
X152850001Y-89840000D01*
X152874505Y-89841204D01*
X152874505Y-89841204D01*
G37*
D11*
G04 #@! TD*
G04 #@! TO.P,C2,2*
G04 #@! TO.N,GND*
X152400000Y-90415000D03*
D10*
G04 #@! TO.N,Net-(C2-Pad1)*
G04 #@! TO.C,C2*
G36*
X152874505Y-91891204D02*
X152898773Y-91894804D01*
X152922572Y-91900765D01*
X152945671Y-91909030D01*
X152967850Y-91919520D01*
X152988893Y-91932132D01*
X153008599Y-91946747D01*
X153026777Y-91963223D01*
X153043253Y-91981401D01*
X153057868Y-92001107D01*
X153070480Y-92022150D01*
X153080970Y-92044329D01*
X153089235Y-92067428D01*
X153095196Y-92091227D01*
X153098796Y-92115495D01*
X153100000Y-92139999D01*
X153100000Y-92790001D01*
X153098796Y-92814505D01*
X153095196Y-92838773D01*
X153089235Y-92862572D01*
X153080970Y-92885671D01*
X153070480Y-92907850D01*
X153057868Y-92928893D01*
X153043253Y-92948599D01*
X153026777Y-92966777D01*
X153008599Y-92983253D01*
X152988893Y-92997868D01*
X152967850Y-93010480D01*
X152945671Y-93020970D01*
X152922572Y-93029235D01*
X152898773Y-93035196D01*
X152874505Y-93038796D01*
X152850001Y-93040000D01*
X151949999Y-93040000D01*
X151925495Y-93038796D01*
X151901227Y-93035196D01*
X151877428Y-93029235D01*
X151854329Y-93020970D01*
X151832150Y-93010480D01*
X151811107Y-92997868D01*
X151791401Y-92983253D01*
X151773223Y-92966777D01*
X151756747Y-92948599D01*
X151742132Y-92928893D01*
X151729520Y-92907850D01*
X151719030Y-92885671D01*
X151710765Y-92862572D01*
X151704804Y-92838773D01*
X151701204Y-92814505D01*
X151700000Y-92790001D01*
X151700000Y-92139999D01*
X151701204Y-92115495D01*
X151704804Y-92091227D01*
X151710765Y-92067428D01*
X151719030Y-92044329D01*
X151729520Y-92022150D01*
X151742132Y-92001107D01*
X151756747Y-91981401D01*
X151773223Y-91963223D01*
X151791401Y-91946747D01*
X151811107Y-91932132D01*
X151832150Y-91919520D01*
X151854329Y-91909030D01*
X151877428Y-91900765D01*
X151901227Y-91894804D01*
X151925495Y-91891204D01*
X151949999Y-91890000D01*
X152850001Y-91890000D01*
X152874505Y-91891204D01*
X152874505Y-91891204D01*
G37*
D11*
G04 #@! TD*
G04 #@! TO.P,C2,1*
G04 #@! TO.N,Net-(C2-Pad1)*
X152400000Y-92465000D03*
D10*
G04 #@! TO.N,Net-(C3-Pad1)*
G04 #@! TO.C,C3*
G36*
X147794505Y-91891204D02*
X147818773Y-91894804D01*
X147842572Y-91900765D01*
X147865671Y-91909030D01*
X147887850Y-91919520D01*
X147908893Y-91932132D01*
X147928599Y-91946747D01*
X147946777Y-91963223D01*
X147963253Y-91981401D01*
X147977868Y-92001107D01*
X147990480Y-92022150D01*
X148000970Y-92044329D01*
X148009235Y-92067428D01*
X148015196Y-92091227D01*
X148018796Y-92115495D01*
X148020000Y-92139999D01*
X148020000Y-92790001D01*
X148018796Y-92814505D01*
X148015196Y-92838773D01*
X148009235Y-92862572D01*
X148000970Y-92885671D01*
X147990480Y-92907850D01*
X147977868Y-92928893D01*
X147963253Y-92948599D01*
X147946777Y-92966777D01*
X147928599Y-92983253D01*
X147908893Y-92997868D01*
X147887850Y-93010480D01*
X147865671Y-93020970D01*
X147842572Y-93029235D01*
X147818773Y-93035196D01*
X147794505Y-93038796D01*
X147770001Y-93040000D01*
X146869999Y-93040000D01*
X146845495Y-93038796D01*
X146821227Y-93035196D01*
X146797428Y-93029235D01*
X146774329Y-93020970D01*
X146752150Y-93010480D01*
X146731107Y-92997868D01*
X146711401Y-92983253D01*
X146693223Y-92966777D01*
X146676747Y-92948599D01*
X146662132Y-92928893D01*
X146649520Y-92907850D01*
X146639030Y-92885671D01*
X146630765Y-92862572D01*
X146624804Y-92838773D01*
X146621204Y-92814505D01*
X146620000Y-92790001D01*
X146620000Y-92139999D01*
X146621204Y-92115495D01*
X146624804Y-92091227D01*
X146630765Y-92067428D01*
X146639030Y-92044329D01*
X146649520Y-92022150D01*
X146662132Y-92001107D01*
X146676747Y-91981401D01*
X146693223Y-91963223D01*
X146711401Y-91946747D01*
X146731107Y-91932132D01*
X146752150Y-91919520D01*
X146774329Y-91909030D01*
X146797428Y-91900765D01*
X146821227Y-91894804D01*
X146845495Y-91891204D01*
X146869999Y-91890000D01*
X147770001Y-91890000D01*
X147794505Y-91891204D01*
X147794505Y-91891204D01*
G37*
D11*
G04 #@! TD*
G04 #@! TO.P,C3,1*
G04 #@! TO.N,Net-(C3-Pad1)*
X147320000Y-92465000D03*
D10*
G04 #@! TO.N,GND*
G04 #@! TO.C,C3*
G36*
X147794505Y-89841204D02*
X147818773Y-89844804D01*
X147842572Y-89850765D01*
X147865671Y-89859030D01*
X147887850Y-89869520D01*
X147908893Y-89882132D01*
X147928599Y-89896747D01*
X147946777Y-89913223D01*
X147963253Y-89931401D01*
X147977868Y-89951107D01*
X147990480Y-89972150D01*
X148000970Y-89994329D01*
X148009235Y-90017428D01*
X148015196Y-90041227D01*
X148018796Y-90065495D01*
X148020000Y-90089999D01*
X148020000Y-90740001D01*
X148018796Y-90764505D01*
X148015196Y-90788773D01*
X148009235Y-90812572D01*
X148000970Y-90835671D01*
X147990480Y-90857850D01*
X147977868Y-90878893D01*
X147963253Y-90898599D01*
X147946777Y-90916777D01*
X147928599Y-90933253D01*
X147908893Y-90947868D01*
X147887850Y-90960480D01*
X147865671Y-90970970D01*
X147842572Y-90979235D01*
X147818773Y-90985196D01*
X147794505Y-90988796D01*
X147770001Y-90990000D01*
X146869999Y-90990000D01*
X146845495Y-90988796D01*
X146821227Y-90985196D01*
X146797428Y-90979235D01*
X146774329Y-90970970D01*
X146752150Y-90960480D01*
X146731107Y-90947868D01*
X146711401Y-90933253D01*
X146693223Y-90916777D01*
X146676747Y-90898599D01*
X146662132Y-90878893D01*
X146649520Y-90857850D01*
X146639030Y-90835671D01*
X146630765Y-90812572D01*
X146624804Y-90788773D01*
X146621204Y-90764505D01*
X146620000Y-90740001D01*
X146620000Y-90089999D01*
X146621204Y-90065495D01*
X146624804Y-90041227D01*
X146630765Y-90017428D01*
X146639030Y-89994329D01*
X146649520Y-89972150D01*
X146662132Y-89951107D01*
X146676747Y-89931401D01*
X146693223Y-89913223D01*
X146711401Y-89896747D01*
X146731107Y-89882132D01*
X146752150Y-89869520D01*
X146774329Y-89859030D01*
X146797428Y-89850765D01*
X146821227Y-89844804D01*
X146845495Y-89841204D01*
X146869999Y-89840000D01*
X147770001Y-89840000D01*
X147794505Y-89841204D01*
X147794505Y-89841204D01*
G37*
D11*
G04 #@! TD*
G04 #@! TO.P,C3,2*
G04 #@! TO.N,GND*
X147320000Y-90415000D03*
D10*
G04 #@! TO.N,Net-(D5-Pad1)*
G04 #@! TO.C,D5*
G36*
X143562004Y-112156204D02*
X143586273Y-112159804D01*
X143610071Y-112165765D01*
X143633171Y-112174030D01*
X143655349Y-112184520D01*
X143676393Y-112197133D01*
X143696098Y-112211747D01*
X143714277Y-112228223D01*
X143730753Y-112246402D01*
X143745367Y-112266107D01*
X143757980Y-112287151D01*
X143768470Y-112309329D01*
X143776735Y-112332429D01*
X143782696Y-112356227D01*
X143786296Y-112380496D01*
X143787500Y-112405000D01*
X143787500Y-113655000D01*
X143786296Y-113679504D01*
X143782696Y-113703773D01*
X143776735Y-113727571D01*
X143768470Y-113750671D01*
X143757980Y-113772849D01*
X143745367Y-113793893D01*
X143730753Y-113813598D01*
X143714277Y-113831777D01*
X143696098Y-113848253D01*
X143676393Y-113862867D01*
X143655349Y-113875480D01*
X143633171Y-113885970D01*
X143610071Y-113894235D01*
X143586273Y-113900196D01*
X143562004Y-113903796D01*
X143537500Y-113905000D01*
X142612500Y-113905000D01*
X142587996Y-113903796D01*
X142563727Y-113900196D01*
X142539929Y-113894235D01*
X142516829Y-113885970D01*
X142494651Y-113875480D01*
X142473607Y-113862867D01*
X142453902Y-113848253D01*
X142435723Y-113831777D01*
X142419247Y-113813598D01*
X142404633Y-113793893D01*
X142392020Y-113772849D01*
X142381530Y-113750671D01*
X142373265Y-113727571D01*
X142367304Y-113703773D01*
X142363704Y-113679504D01*
X142362500Y-113655000D01*
X142362500Y-112405000D01*
X142363704Y-112380496D01*
X142367304Y-112356227D01*
X142373265Y-112332429D01*
X142381530Y-112309329D01*
X142392020Y-112287151D01*
X142404633Y-112266107D01*
X142419247Y-112246402D01*
X142435723Y-112228223D01*
X142453902Y-112211747D01*
X142473607Y-112197133D01*
X142494651Y-112184520D01*
X142516829Y-112174030D01*
X142539929Y-112165765D01*
X142563727Y-112159804D01*
X142587996Y-112156204D01*
X142612500Y-112155000D01*
X143537500Y-112155000D01*
X143562004Y-112156204D01*
X143562004Y-112156204D01*
G37*
D26*
G04 #@! TD*
G04 #@! TO.P,D5,1*
G04 #@! TO.N,Net-(D5-Pad1)*
X143075000Y-113030000D03*
D10*
G04 #@! TO.N,Net-(D5-Pad2)*
G04 #@! TO.C,D5*
G36*
X146537004Y-112156204D02*
X146561273Y-112159804D01*
X146585071Y-112165765D01*
X146608171Y-112174030D01*
X146630349Y-112184520D01*
X146651393Y-112197133D01*
X146671098Y-112211747D01*
X146689277Y-112228223D01*
X146705753Y-112246402D01*
X146720367Y-112266107D01*
X146732980Y-112287151D01*
X146743470Y-112309329D01*
X146751735Y-112332429D01*
X146757696Y-112356227D01*
X146761296Y-112380496D01*
X146762500Y-112405000D01*
X146762500Y-113655000D01*
X146761296Y-113679504D01*
X146757696Y-113703773D01*
X146751735Y-113727571D01*
X146743470Y-113750671D01*
X146732980Y-113772849D01*
X146720367Y-113793893D01*
X146705753Y-113813598D01*
X146689277Y-113831777D01*
X146671098Y-113848253D01*
X146651393Y-113862867D01*
X146630349Y-113875480D01*
X146608171Y-113885970D01*
X146585071Y-113894235D01*
X146561273Y-113900196D01*
X146537004Y-113903796D01*
X146512500Y-113905000D01*
X145587500Y-113905000D01*
X145562996Y-113903796D01*
X145538727Y-113900196D01*
X145514929Y-113894235D01*
X145491829Y-113885970D01*
X145469651Y-113875480D01*
X145448607Y-113862867D01*
X145428902Y-113848253D01*
X145410723Y-113831777D01*
X145394247Y-113813598D01*
X145379633Y-113793893D01*
X145367020Y-113772849D01*
X145356530Y-113750671D01*
X145348265Y-113727571D01*
X145342304Y-113703773D01*
X145338704Y-113679504D01*
X145337500Y-113655000D01*
X145337500Y-112405000D01*
X145338704Y-112380496D01*
X145342304Y-112356227D01*
X145348265Y-112332429D01*
X145356530Y-112309329D01*
X145367020Y-112287151D01*
X145379633Y-112266107D01*
X145394247Y-112246402D01*
X145410723Y-112228223D01*
X145428902Y-112211747D01*
X145448607Y-112197133D01*
X145469651Y-112184520D01*
X145491829Y-112174030D01*
X145514929Y-112165765D01*
X145538727Y-112159804D01*
X145562996Y-112156204D01*
X145587500Y-112155000D01*
X146512500Y-112155000D01*
X146537004Y-112156204D01*
X146537004Y-112156204D01*
G37*
D26*
G04 #@! TD*
G04 #@! TO.P,D5,2*
G04 #@! TO.N,Net-(D5-Pad2)*
X146050000Y-113030000D03*
D27*
G04 #@! TO.P,Q1,1*
G04 #@! TO.N,Net-(Q1-Pad1)*
X142240000Y-77790000D03*
G04 #@! TO.P,Q1,2*
G04 #@! TO.N,GND*
X142240000Y-79690000D03*
G04 #@! TO.P,Q1,3*
G04 #@! TO.N,Net-(D1-Pad4)*
X144240000Y-78740000D03*
G04 #@! TD*
D28*
G04 #@! TO.P,Q2,1*
G04 #@! TO.N,Net-(Q2-Pad1)*
X167320000Y-100600000D03*
G04 #@! TO.P,Q2,2*
G04 #@! TO.N,GND*
X165420000Y-100600000D03*
G04 #@! TO.P,Q2,3*
G04 #@! TO.N,Net-(D2-Pad4)*
X166370000Y-102600000D03*
G04 #@! TD*
D27*
G04 #@! TO.P,Q3,3*
G04 #@! TO.N,Net-(D3-Pad4)*
X152670000Y-134620000D03*
G04 #@! TO.P,Q3,2*
G04 #@! TO.N,GND*
X154670000Y-133670000D03*
G04 #@! TO.P,Q3,1*
G04 #@! TO.N,Net-(Q3-Pad1)*
X154670000Y-135570000D03*
G04 #@! TD*
D28*
G04 #@! TO.P,Q4,3*
G04 #@! TO.N,Net-(D4-Pad4)*
X130810000Y-111030000D03*
G04 #@! TO.P,Q4,2*
G04 #@! TO.N,GND*
X131760000Y-113030000D03*
G04 #@! TO.P,Q4,1*
G04 #@! TO.N,Net-(Q4-Pad1)*
X129860000Y-113030000D03*
G04 #@! TD*
D10*
G04 #@! TO.N,GND*
G04 #@! TO.C,R1*
G36*
X147179505Y-116141204D02*
X147203773Y-116144804D01*
X147227572Y-116150765D01*
X147250671Y-116159030D01*
X147272850Y-116169520D01*
X147293893Y-116182132D01*
X147313599Y-116196747D01*
X147331777Y-116213223D01*
X147348253Y-116231401D01*
X147362868Y-116251107D01*
X147375480Y-116272150D01*
X147385970Y-116294329D01*
X147394235Y-116317428D01*
X147400196Y-116341227D01*
X147403796Y-116365495D01*
X147405000Y-116389999D01*
X147405000Y-117290001D01*
X147403796Y-117314505D01*
X147400196Y-117338773D01*
X147394235Y-117362572D01*
X147385970Y-117385671D01*
X147375480Y-117407850D01*
X147362868Y-117428893D01*
X147348253Y-117448599D01*
X147331777Y-117466777D01*
X147313599Y-117483253D01*
X147293893Y-117497868D01*
X147272850Y-117510480D01*
X147250671Y-117520970D01*
X147227572Y-117529235D01*
X147203773Y-117535196D01*
X147179505Y-117538796D01*
X147155001Y-117540000D01*
X146504999Y-117540000D01*
X146480495Y-117538796D01*
X146456227Y-117535196D01*
X146432428Y-117529235D01*
X146409329Y-117520970D01*
X146387150Y-117510480D01*
X146366107Y-117497868D01*
X146346401Y-117483253D01*
X146328223Y-117466777D01*
X146311747Y-117448599D01*
X146297132Y-117428893D01*
X146284520Y-117407850D01*
X146274030Y-117385671D01*
X146265765Y-117362572D01*
X146259804Y-117338773D01*
X146256204Y-117314505D01*
X146255000Y-117290001D01*
X146255000Y-116389999D01*
X146256204Y-116365495D01*
X146259804Y-116341227D01*
X146265765Y-116317428D01*
X146274030Y-116294329D01*
X146284520Y-116272150D01*
X146297132Y-116251107D01*
X146311747Y-116231401D01*
X146328223Y-116213223D01*
X146346401Y-116196747D01*
X146366107Y-116182132D01*
X146387150Y-116169520D01*
X146409329Y-116159030D01*
X146432428Y-116150765D01*
X146456227Y-116144804D01*
X146480495Y-116141204D01*
X146504999Y-116140000D01*
X147155001Y-116140000D01*
X147179505Y-116141204D01*
X147179505Y-116141204D01*
G37*
D11*
G04 #@! TD*
G04 #@! TO.P,R1,2*
G04 #@! TO.N,GND*
X146830000Y-116840000D03*
D10*
G04 #@! TO.N,Net-(D5-Pad1)*
G04 #@! TO.C,R1*
G36*
X145129505Y-116141204D02*
X145153773Y-116144804D01*
X145177572Y-116150765D01*
X145200671Y-116159030D01*
X145222850Y-116169520D01*
X145243893Y-116182132D01*
X145263599Y-116196747D01*
X145281777Y-116213223D01*
X145298253Y-116231401D01*
X145312868Y-116251107D01*
X145325480Y-116272150D01*
X145335970Y-116294329D01*
X145344235Y-116317428D01*
X145350196Y-116341227D01*
X145353796Y-116365495D01*
X145355000Y-116389999D01*
X145355000Y-117290001D01*
X145353796Y-117314505D01*
X145350196Y-117338773D01*
X145344235Y-117362572D01*
X145335970Y-117385671D01*
X145325480Y-117407850D01*
X145312868Y-117428893D01*
X145298253Y-117448599D01*
X145281777Y-117466777D01*
X145263599Y-117483253D01*
X145243893Y-117497868D01*
X145222850Y-117510480D01*
X145200671Y-117520970D01*
X145177572Y-117529235D01*
X145153773Y-117535196D01*
X145129505Y-117538796D01*
X145105001Y-117540000D01*
X144454999Y-117540000D01*
X144430495Y-117538796D01*
X144406227Y-117535196D01*
X144382428Y-117529235D01*
X144359329Y-117520970D01*
X144337150Y-117510480D01*
X144316107Y-117497868D01*
X144296401Y-117483253D01*
X144278223Y-117466777D01*
X144261747Y-117448599D01*
X144247132Y-117428893D01*
X144234520Y-117407850D01*
X144224030Y-117385671D01*
X144215765Y-117362572D01*
X144209804Y-117338773D01*
X144206204Y-117314505D01*
X144205000Y-117290001D01*
X144205000Y-116389999D01*
X144206204Y-116365495D01*
X144209804Y-116341227D01*
X144215765Y-116317428D01*
X144224030Y-116294329D01*
X144234520Y-116272150D01*
X144247132Y-116251107D01*
X144261747Y-116231401D01*
X144278223Y-116213223D01*
X144296401Y-116196747D01*
X144316107Y-116182132D01*
X144337150Y-116169520D01*
X144359329Y-116159030D01*
X144382428Y-116150765D01*
X144406227Y-116144804D01*
X144430495Y-116141204D01*
X144454999Y-116140000D01*
X145105001Y-116140000D01*
X145129505Y-116141204D01*
X145129505Y-116141204D01*
G37*
D11*
G04 #@! TD*
G04 #@! TO.P,R1,1*
G04 #@! TO.N,Net-(D5-Pad1)*
X144780000Y-116840000D03*
D10*
G04 #@! TO.N,ADC_IN6*
G04 #@! TO.C,R2*
G36*
X126204505Y-102051204D02*
X126228773Y-102054804D01*
X126252572Y-102060765D01*
X126275671Y-102069030D01*
X126297850Y-102079520D01*
X126318893Y-102092132D01*
X126338599Y-102106747D01*
X126356777Y-102123223D01*
X126373253Y-102141401D01*
X126387868Y-102161107D01*
X126400480Y-102182150D01*
X126410970Y-102204329D01*
X126419235Y-102227428D01*
X126425196Y-102251227D01*
X126428796Y-102275495D01*
X126430000Y-102299999D01*
X126430000Y-102950001D01*
X126428796Y-102974505D01*
X126425196Y-102998773D01*
X126419235Y-103022572D01*
X126410970Y-103045671D01*
X126400480Y-103067850D01*
X126387868Y-103088893D01*
X126373253Y-103108599D01*
X126356777Y-103126777D01*
X126338599Y-103143253D01*
X126318893Y-103157868D01*
X126297850Y-103170480D01*
X126275671Y-103180970D01*
X126252572Y-103189235D01*
X126228773Y-103195196D01*
X126204505Y-103198796D01*
X126180001Y-103200000D01*
X125279999Y-103200000D01*
X125255495Y-103198796D01*
X125231227Y-103195196D01*
X125207428Y-103189235D01*
X125184329Y-103180970D01*
X125162150Y-103170480D01*
X125141107Y-103157868D01*
X125121401Y-103143253D01*
X125103223Y-103126777D01*
X125086747Y-103108599D01*
X125072132Y-103088893D01*
X125059520Y-103067850D01*
X125049030Y-103045671D01*
X125040765Y-103022572D01*
X125034804Y-102998773D01*
X125031204Y-102974505D01*
X125030000Y-102950001D01*
X125030000Y-102299999D01*
X125031204Y-102275495D01*
X125034804Y-102251227D01*
X125040765Y-102227428D01*
X125049030Y-102204329D01*
X125059520Y-102182150D01*
X125072132Y-102161107D01*
X125086747Y-102141401D01*
X125103223Y-102123223D01*
X125121401Y-102106747D01*
X125141107Y-102092132D01*
X125162150Y-102079520D01*
X125184329Y-102069030D01*
X125207428Y-102060765D01*
X125231227Y-102054804D01*
X125255495Y-102051204D01*
X125279999Y-102050000D01*
X126180001Y-102050000D01*
X126204505Y-102051204D01*
X126204505Y-102051204D01*
G37*
D11*
G04 #@! TD*
G04 #@! TO.P,R2,2*
G04 #@! TO.N,ADC_IN6*
X125730000Y-102625000D03*
D10*
G04 #@! TO.N,VCC*
G04 #@! TO.C,R2*
G36*
X126204505Y-100001204D02*
X126228773Y-100004804D01*
X126252572Y-100010765D01*
X126275671Y-100019030D01*
X126297850Y-100029520D01*
X126318893Y-100042132D01*
X126338599Y-100056747D01*
X126356777Y-100073223D01*
X126373253Y-100091401D01*
X126387868Y-100111107D01*
X126400480Y-100132150D01*
X126410970Y-100154329D01*
X126419235Y-100177428D01*
X126425196Y-100201227D01*
X126428796Y-100225495D01*
X126430000Y-100249999D01*
X126430000Y-100900001D01*
X126428796Y-100924505D01*
X126425196Y-100948773D01*
X126419235Y-100972572D01*
X126410970Y-100995671D01*
X126400480Y-101017850D01*
X126387868Y-101038893D01*
X126373253Y-101058599D01*
X126356777Y-101076777D01*
X126338599Y-101093253D01*
X126318893Y-101107868D01*
X126297850Y-101120480D01*
X126275671Y-101130970D01*
X126252572Y-101139235D01*
X126228773Y-101145196D01*
X126204505Y-101148796D01*
X126180001Y-101150000D01*
X125279999Y-101150000D01*
X125255495Y-101148796D01*
X125231227Y-101145196D01*
X125207428Y-101139235D01*
X125184329Y-101130970D01*
X125162150Y-101120480D01*
X125141107Y-101107868D01*
X125121401Y-101093253D01*
X125103223Y-101076777D01*
X125086747Y-101058599D01*
X125072132Y-101038893D01*
X125059520Y-101017850D01*
X125049030Y-100995671D01*
X125040765Y-100972572D01*
X125034804Y-100948773D01*
X125031204Y-100924505D01*
X125030000Y-100900001D01*
X125030000Y-100249999D01*
X125031204Y-100225495D01*
X125034804Y-100201227D01*
X125040765Y-100177428D01*
X125049030Y-100154329D01*
X125059520Y-100132150D01*
X125072132Y-100111107D01*
X125086747Y-100091401D01*
X125103223Y-100073223D01*
X125121401Y-100056747D01*
X125141107Y-100042132D01*
X125162150Y-100029520D01*
X125184329Y-100019030D01*
X125207428Y-100010765D01*
X125231227Y-100004804D01*
X125255495Y-100001204D01*
X125279999Y-100000000D01*
X126180001Y-100000000D01*
X126204505Y-100001204D01*
X126204505Y-100001204D01*
G37*
D11*
G04 #@! TD*
G04 #@! TO.P,R2,1*
G04 #@! TO.N,VCC*
X125730000Y-100575000D03*
D10*
G04 #@! TO.N,ADC_IN0*
G04 #@! TO.C,R3*
G36*
X152994505Y-72961204D02*
X153018773Y-72964804D01*
X153042572Y-72970765D01*
X153065671Y-72979030D01*
X153087850Y-72989520D01*
X153108893Y-73002132D01*
X153128599Y-73016747D01*
X153146777Y-73033223D01*
X153163253Y-73051401D01*
X153177868Y-73071107D01*
X153190480Y-73092150D01*
X153200970Y-73114329D01*
X153209235Y-73137428D01*
X153215196Y-73161227D01*
X153218796Y-73185495D01*
X153220000Y-73209999D01*
X153220000Y-74110001D01*
X153218796Y-74134505D01*
X153215196Y-74158773D01*
X153209235Y-74182572D01*
X153200970Y-74205671D01*
X153190480Y-74227850D01*
X153177868Y-74248893D01*
X153163253Y-74268599D01*
X153146777Y-74286777D01*
X153128599Y-74303253D01*
X153108893Y-74317868D01*
X153087850Y-74330480D01*
X153065671Y-74340970D01*
X153042572Y-74349235D01*
X153018773Y-74355196D01*
X152994505Y-74358796D01*
X152970001Y-74360000D01*
X152319999Y-74360000D01*
X152295495Y-74358796D01*
X152271227Y-74355196D01*
X152247428Y-74349235D01*
X152224329Y-74340970D01*
X152202150Y-74330480D01*
X152181107Y-74317868D01*
X152161401Y-74303253D01*
X152143223Y-74286777D01*
X152126747Y-74268599D01*
X152112132Y-74248893D01*
X152099520Y-74227850D01*
X152089030Y-74205671D01*
X152080765Y-74182572D01*
X152074804Y-74158773D01*
X152071204Y-74134505D01*
X152070000Y-74110001D01*
X152070000Y-73209999D01*
X152071204Y-73185495D01*
X152074804Y-73161227D01*
X152080765Y-73137428D01*
X152089030Y-73114329D01*
X152099520Y-73092150D01*
X152112132Y-73071107D01*
X152126747Y-73051401D01*
X152143223Y-73033223D01*
X152161401Y-73016747D01*
X152181107Y-73002132D01*
X152202150Y-72989520D01*
X152224329Y-72979030D01*
X152247428Y-72970765D01*
X152271227Y-72964804D01*
X152295495Y-72961204D01*
X152319999Y-72960000D01*
X152970001Y-72960000D01*
X152994505Y-72961204D01*
X152994505Y-72961204D01*
G37*
D11*
G04 #@! TD*
G04 #@! TO.P,R3,2*
G04 #@! TO.N,ADC_IN0*
X152645000Y-73660000D03*
D10*
G04 #@! TO.N,VCC*
G04 #@! TO.C,R3*
G36*
X155044505Y-72961204D02*
X155068773Y-72964804D01*
X155092572Y-72970765D01*
X155115671Y-72979030D01*
X155137850Y-72989520D01*
X155158893Y-73002132D01*
X155178599Y-73016747D01*
X155196777Y-73033223D01*
X155213253Y-73051401D01*
X155227868Y-73071107D01*
X155240480Y-73092150D01*
X155250970Y-73114329D01*
X155259235Y-73137428D01*
X155265196Y-73161227D01*
X155268796Y-73185495D01*
X155270000Y-73209999D01*
X155270000Y-74110001D01*
X155268796Y-74134505D01*
X155265196Y-74158773D01*
X155259235Y-74182572D01*
X155250970Y-74205671D01*
X155240480Y-74227850D01*
X155227868Y-74248893D01*
X155213253Y-74268599D01*
X155196777Y-74286777D01*
X155178599Y-74303253D01*
X155158893Y-74317868D01*
X155137850Y-74330480D01*
X155115671Y-74340970D01*
X155092572Y-74349235D01*
X155068773Y-74355196D01*
X155044505Y-74358796D01*
X155020001Y-74360000D01*
X154369999Y-74360000D01*
X154345495Y-74358796D01*
X154321227Y-74355196D01*
X154297428Y-74349235D01*
X154274329Y-74340970D01*
X154252150Y-74330480D01*
X154231107Y-74317868D01*
X154211401Y-74303253D01*
X154193223Y-74286777D01*
X154176747Y-74268599D01*
X154162132Y-74248893D01*
X154149520Y-74227850D01*
X154139030Y-74205671D01*
X154130765Y-74182572D01*
X154124804Y-74158773D01*
X154121204Y-74134505D01*
X154120000Y-74110001D01*
X154120000Y-73209999D01*
X154121204Y-73185495D01*
X154124804Y-73161227D01*
X154130765Y-73137428D01*
X154139030Y-73114329D01*
X154149520Y-73092150D01*
X154162132Y-73071107D01*
X154176747Y-73051401D01*
X154193223Y-73033223D01*
X154211401Y-73016747D01*
X154231107Y-73002132D01*
X154252150Y-72989520D01*
X154274329Y-72979030D01*
X154297428Y-72970765D01*
X154321227Y-72964804D01*
X154345495Y-72961204D01*
X154369999Y-72960000D01*
X155020001Y-72960000D01*
X155044505Y-72961204D01*
X155044505Y-72961204D01*
G37*
D11*
G04 #@! TD*
G04 #@! TO.P,R3,1*
G04 #@! TO.N,VCC*
X154695000Y-73660000D03*
D10*
G04 #@! TO.N,VCC*
G04 #@! TO.C,R4*
G36*
X155044505Y-78041204D02*
X155068773Y-78044804D01*
X155092572Y-78050765D01*
X155115671Y-78059030D01*
X155137850Y-78069520D01*
X155158893Y-78082132D01*
X155178599Y-78096747D01*
X155196777Y-78113223D01*
X155213253Y-78131401D01*
X155227868Y-78151107D01*
X155240480Y-78172150D01*
X155250970Y-78194329D01*
X155259235Y-78217428D01*
X155265196Y-78241227D01*
X155268796Y-78265495D01*
X155270000Y-78289999D01*
X155270000Y-79190001D01*
X155268796Y-79214505D01*
X155265196Y-79238773D01*
X155259235Y-79262572D01*
X155250970Y-79285671D01*
X155240480Y-79307850D01*
X155227868Y-79328893D01*
X155213253Y-79348599D01*
X155196777Y-79366777D01*
X155178599Y-79383253D01*
X155158893Y-79397868D01*
X155137850Y-79410480D01*
X155115671Y-79420970D01*
X155092572Y-79429235D01*
X155068773Y-79435196D01*
X155044505Y-79438796D01*
X155020001Y-79440000D01*
X154369999Y-79440000D01*
X154345495Y-79438796D01*
X154321227Y-79435196D01*
X154297428Y-79429235D01*
X154274329Y-79420970D01*
X154252150Y-79410480D01*
X154231107Y-79397868D01*
X154211401Y-79383253D01*
X154193223Y-79366777D01*
X154176747Y-79348599D01*
X154162132Y-79328893D01*
X154149520Y-79307850D01*
X154139030Y-79285671D01*
X154130765Y-79262572D01*
X154124804Y-79238773D01*
X154121204Y-79214505D01*
X154120000Y-79190001D01*
X154120000Y-78289999D01*
X154121204Y-78265495D01*
X154124804Y-78241227D01*
X154130765Y-78217428D01*
X154139030Y-78194329D01*
X154149520Y-78172150D01*
X154162132Y-78151107D01*
X154176747Y-78131401D01*
X154193223Y-78113223D01*
X154211401Y-78096747D01*
X154231107Y-78082132D01*
X154252150Y-78069520D01*
X154274329Y-78059030D01*
X154297428Y-78050765D01*
X154321227Y-78044804D01*
X154345495Y-78041204D01*
X154369999Y-78040000D01*
X155020001Y-78040000D01*
X155044505Y-78041204D01*
X155044505Y-78041204D01*
G37*
D11*
G04 #@! TD*
G04 #@! TO.P,R4,1*
G04 #@! TO.N,VCC*
X154695000Y-78740000D03*
D10*
G04 #@! TO.N,Net-(D1-Pad2)*
G04 #@! TO.C,R4*
G36*
X152994505Y-78041204D02*
X153018773Y-78044804D01*
X153042572Y-78050765D01*
X153065671Y-78059030D01*
X153087850Y-78069520D01*
X153108893Y-78082132D01*
X153128599Y-78096747D01*
X153146777Y-78113223D01*
X153163253Y-78131401D01*
X153177868Y-78151107D01*
X153190480Y-78172150D01*
X153200970Y-78194329D01*
X153209235Y-78217428D01*
X153215196Y-78241227D01*
X153218796Y-78265495D01*
X153220000Y-78289999D01*
X153220000Y-79190001D01*
X153218796Y-79214505D01*
X153215196Y-79238773D01*
X153209235Y-79262572D01*
X153200970Y-79285671D01*
X153190480Y-79307850D01*
X153177868Y-79328893D01*
X153163253Y-79348599D01*
X153146777Y-79366777D01*
X153128599Y-79383253D01*
X153108893Y-79397868D01*
X153087850Y-79410480D01*
X153065671Y-79420970D01*
X153042572Y-79429235D01*
X153018773Y-79435196D01*
X152994505Y-79438796D01*
X152970001Y-79440000D01*
X152319999Y-79440000D01*
X152295495Y-79438796D01*
X152271227Y-79435196D01*
X152247428Y-79429235D01*
X152224329Y-79420970D01*
X152202150Y-79410480D01*
X152181107Y-79397868D01*
X152161401Y-79383253D01*
X152143223Y-79366777D01*
X152126747Y-79348599D01*
X152112132Y-79328893D01*
X152099520Y-79307850D01*
X152089030Y-79285671D01*
X152080765Y-79262572D01*
X152074804Y-79238773D01*
X152071204Y-79214505D01*
X152070000Y-79190001D01*
X152070000Y-78289999D01*
X152071204Y-78265495D01*
X152074804Y-78241227D01*
X152080765Y-78217428D01*
X152089030Y-78194329D01*
X152099520Y-78172150D01*
X152112132Y-78151107D01*
X152126747Y-78131401D01*
X152143223Y-78113223D01*
X152161401Y-78096747D01*
X152181107Y-78082132D01*
X152202150Y-78069520D01*
X152224329Y-78059030D01*
X152247428Y-78050765D01*
X152271227Y-78044804D01*
X152295495Y-78041204D01*
X152319999Y-78040000D01*
X152970001Y-78040000D01*
X152994505Y-78041204D01*
X152994505Y-78041204D01*
G37*
D11*
G04 #@! TD*
G04 #@! TO.P,R4,2*
G04 #@! TO.N,Net-(D1-Pad2)*
X152645000Y-78740000D03*
D10*
G04 #@! TO.N,VCC*
G04 #@! TO.C,R5*
G36*
X130864505Y-100001204D02*
X130888773Y-100004804D01*
X130912572Y-100010765D01*
X130935671Y-100019030D01*
X130957850Y-100029520D01*
X130978893Y-100042132D01*
X130998599Y-100056747D01*
X131016777Y-100073223D01*
X131033253Y-100091401D01*
X131047868Y-100111107D01*
X131060480Y-100132150D01*
X131070970Y-100154329D01*
X131079235Y-100177428D01*
X131085196Y-100201227D01*
X131088796Y-100225495D01*
X131090000Y-100249999D01*
X131090000Y-100900001D01*
X131088796Y-100924505D01*
X131085196Y-100948773D01*
X131079235Y-100972572D01*
X131070970Y-100995671D01*
X131060480Y-101017850D01*
X131047868Y-101038893D01*
X131033253Y-101058599D01*
X131016777Y-101076777D01*
X130998599Y-101093253D01*
X130978893Y-101107868D01*
X130957850Y-101120480D01*
X130935671Y-101130970D01*
X130912572Y-101139235D01*
X130888773Y-101145196D01*
X130864505Y-101148796D01*
X130840001Y-101150000D01*
X129939999Y-101150000D01*
X129915495Y-101148796D01*
X129891227Y-101145196D01*
X129867428Y-101139235D01*
X129844329Y-101130970D01*
X129822150Y-101120480D01*
X129801107Y-101107868D01*
X129781401Y-101093253D01*
X129763223Y-101076777D01*
X129746747Y-101058599D01*
X129732132Y-101038893D01*
X129719520Y-101017850D01*
X129709030Y-100995671D01*
X129700765Y-100972572D01*
X129694804Y-100948773D01*
X129691204Y-100924505D01*
X129690000Y-100900001D01*
X129690000Y-100249999D01*
X129691204Y-100225495D01*
X129694804Y-100201227D01*
X129700765Y-100177428D01*
X129709030Y-100154329D01*
X129719520Y-100132150D01*
X129732132Y-100111107D01*
X129746747Y-100091401D01*
X129763223Y-100073223D01*
X129781401Y-100056747D01*
X129801107Y-100042132D01*
X129822150Y-100029520D01*
X129844329Y-100019030D01*
X129867428Y-100010765D01*
X129891227Y-100004804D01*
X129915495Y-100001204D01*
X129939999Y-100000000D01*
X130840001Y-100000000D01*
X130864505Y-100001204D01*
X130864505Y-100001204D01*
G37*
D11*
G04 #@! TD*
G04 #@! TO.P,R5,1*
G04 #@! TO.N,VCC*
X130390000Y-100575000D03*
D10*
G04 #@! TO.N,Net-(D4-Pad2)*
G04 #@! TO.C,R5*
G36*
X130864505Y-102051204D02*
X130888773Y-102054804D01*
X130912572Y-102060765D01*
X130935671Y-102069030D01*
X130957850Y-102079520D01*
X130978893Y-102092132D01*
X130998599Y-102106747D01*
X131016777Y-102123223D01*
X131033253Y-102141401D01*
X131047868Y-102161107D01*
X131060480Y-102182150D01*
X131070970Y-102204329D01*
X131079235Y-102227428D01*
X131085196Y-102251227D01*
X131088796Y-102275495D01*
X131090000Y-102299999D01*
X131090000Y-102950001D01*
X131088796Y-102974505D01*
X131085196Y-102998773D01*
X131079235Y-103022572D01*
X131070970Y-103045671D01*
X131060480Y-103067850D01*
X131047868Y-103088893D01*
X131033253Y-103108599D01*
X131016777Y-103126777D01*
X130998599Y-103143253D01*
X130978893Y-103157868D01*
X130957850Y-103170480D01*
X130935671Y-103180970D01*
X130912572Y-103189235D01*
X130888773Y-103195196D01*
X130864505Y-103198796D01*
X130840001Y-103200000D01*
X129939999Y-103200000D01*
X129915495Y-103198796D01*
X129891227Y-103195196D01*
X129867428Y-103189235D01*
X129844329Y-103180970D01*
X129822150Y-103170480D01*
X129801107Y-103157868D01*
X129781401Y-103143253D01*
X129763223Y-103126777D01*
X129746747Y-103108599D01*
X129732132Y-103088893D01*
X129719520Y-103067850D01*
X129709030Y-103045671D01*
X129700765Y-103022572D01*
X129694804Y-102998773D01*
X129691204Y-102974505D01*
X129690000Y-102950001D01*
X129690000Y-102299999D01*
X129691204Y-102275495D01*
X129694804Y-102251227D01*
X129700765Y-102227428D01*
X129709030Y-102204329D01*
X129719520Y-102182150D01*
X129732132Y-102161107D01*
X129746747Y-102141401D01*
X129763223Y-102123223D01*
X129781401Y-102106747D01*
X129801107Y-102092132D01*
X129822150Y-102079520D01*
X129844329Y-102069030D01*
X129867428Y-102060765D01*
X129891227Y-102054804D01*
X129915495Y-102051204D01*
X129939999Y-102050000D01*
X130840001Y-102050000D01*
X130864505Y-102051204D01*
X130864505Y-102051204D01*
G37*
D11*
G04 #@! TD*
G04 #@! TO.P,R5,2*
G04 #@! TO.N,Net-(D4-Pad2)*
X130390000Y-102625000D03*
D10*
G04 #@! TO.N,Net-(Q4-Pad1)*
G04 #@! TO.C,R6*
G36*
X127349505Y-111061204D02*
X127373773Y-111064804D01*
X127397572Y-111070765D01*
X127420671Y-111079030D01*
X127442850Y-111089520D01*
X127463893Y-111102132D01*
X127483599Y-111116747D01*
X127501777Y-111133223D01*
X127518253Y-111151401D01*
X127532868Y-111171107D01*
X127545480Y-111192150D01*
X127555970Y-111214329D01*
X127564235Y-111237428D01*
X127570196Y-111261227D01*
X127573796Y-111285495D01*
X127575000Y-111309999D01*
X127575000Y-112210001D01*
X127573796Y-112234505D01*
X127570196Y-112258773D01*
X127564235Y-112282572D01*
X127555970Y-112305671D01*
X127545480Y-112327850D01*
X127532868Y-112348893D01*
X127518253Y-112368599D01*
X127501777Y-112386777D01*
X127483599Y-112403253D01*
X127463893Y-112417868D01*
X127442850Y-112430480D01*
X127420671Y-112440970D01*
X127397572Y-112449235D01*
X127373773Y-112455196D01*
X127349505Y-112458796D01*
X127325001Y-112460000D01*
X126674999Y-112460000D01*
X126650495Y-112458796D01*
X126626227Y-112455196D01*
X126602428Y-112449235D01*
X126579329Y-112440970D01*
X126557150Y-112430480D01*
X126536107Y-112417868D01*
X126516401Y-112403253D01*
X126498223Y-112386777D01*
X126481747Y-112368599D01*
X126467132Y-112348893D01*
X126454520Y-112327850D01*
X126444030Y-112305671D01*
X126435765Y-112282572D01*
X126429804Y-112258773D01*
X126426204Y-112234505D01*
X126425000Y-112210001D01*
X126425000Y-111309999D01*
X126426204Y-111285495D01*
X126429804Y-111261227D01*
X126435765Y-111237428D01*
X126444030Y-111214329D01*
X126454520Y-111192150D01*
X126467132Y-111171107D01*
X126481747Y-111151401D01*
X126498223Y-111133223D01*
X126516401Y-111116747D01*
X126536107Y-111102132D01*
X126557150Y-111089520D01*
X126579329Y-111079030D01*
X126602428Y-111070765D01*
X126626227Y-111064804D01*
X126650495Y-111061204D01*
X126674999Y-111060000D01*
X127325001Y-111060000D01*
X127349505Y-111061204D01*
X127349505Y-111061204D01*
G37*
D11*
G04 #@! TD*
G04 #@! TO.P,R6,1*
G04 #@! TO.N,Net-(Q4-Pad1)*
X127000000Y-111760000D03*
D10*
G04 #@! TO.N,PA7*
G04 #@! TO.C,R6*
G36*
X125299505Y-111061204D02*
X125323773Y-111064804D01*
X125347572Y-111070765D01*
X125370671Y-111079030D01*
X125392850Y-111089520D01*
X125413893Y-111102132D01*
X125433599Y-111116747D01*
X125451777Y-111133223D01*
X125468253Y-111151401D01*
X125482868Y-111171107D01*
X125495480Y-111192150D01*
X125505970Y-111214329D01*
X125514235Y-111237428D01*
X125520196Y-111261227D01*
X125523796Y-111285495D01*
X125525000Y-111309999D01*
X125525000Y-112210001D01*
X125523796Y-112234505D01*
X125520196Y-112258773D01*
X125514235Y-112282572D01*
X125505970Y-112305671D01*
X125495480Y-112327850D01*
X125482868Y-112348893D01*
X125468253Y-112368599D01*
X125451777Y-112386777D01*
X125433599Y-112403253D01*
X125413893Y-112417868D01*
X125392850Y-112430480D01*
X125370671Y-112440970D01*
X125347572Y-112449235D01*
X125323773Y-112455196D01*
X125299505Y-112458796D01*
X125275001Y-112460000D01*
X124624999Y-112460000D01*
X124600495Y-112458796D01*
X124576227Y-112455196D01*
X124552428Y-112449235D01*
X124529329Y-112440970D01*
X124507150Y-112430480D01*
X124486107Y-112417868D01*
X124466401Y-112403253D01*
X124448223Y-112386777D01*
X124431747Y-112368599D01*
X124417132Y-112348893D01*
X124404520Y-112327850D01*
X124394030Y-112305671D01*
X124385765Y-112282572D01*
X124379804Y-112258773D01*
X124376204Y-112234505D01*
X124375000Y-112210001D01*
X124375000Y-111309999D01*
X124376204Y-111285495D01*
X124379804Y-111261227D01*
X124385765Y-111237428D01*
X124394030Y-111214329D01*
X124404520Y-111192150D01*
X124417132Y-111171107D01*
X124431747Y-111151401D01*
X124448223Y-111133223D01*
X124466401Y-111116747D01*
X124486107Y-111102132D01*
X124507150Y-111089520D01*
X124529329Y-111079030D01*
X124552428Y-111070765D01*
X124576227Y-111064804D01*
X124600495Y-111061204D01*
X124624999Y-111060000D01*
X125275001Y-111060000D01*
X125299505Y-111061204D01*
X125299505Y-111061204D01*
G37*
D11*
G04 #@! TD*
G04 #@! TO.P,R6,2*
G04 #@! TO.N,PA7*
X124950000Y-111760000D03*
D10*
G04 #@! TO.N,VCC*
G04 #@! TO.C,R7*
G36*
X142834505Y-139001204D02*
X142858773Y-139004804D01*
X142882572Y-139010765D01*
X142905671Y-139019030D01*
X142927850Y-139029520D01*
X142948893Y-139042132D01*
X142968599Y-139056747D01*
X142986777Y-139073223D01*
X143003253Y-139091401D01*
X143017868Y-139111107D01*
X143030480Y-139132150D01*
X143040970Y-139154329D01*
X143049235Y-139177428D01*
X143055196Y-139201227D01*
X143058796Y-139225495D01*
X143060000Y-139249999D01*
X143060000Y-140150001D01*
X143058796Y-140174505D01*
X143055196Y-140198773D01*
X143049235Y-140222572D01*
X143040970Y-140245671D01*
X143030480Y-140267850D01*
X143017868Y-140288893D01*
X143003253Y-140308599D01*
X142986777Y-140326777D01*
X142968599Y-140343253D01*
X142948893Y-140357868D01*
X142927850Y-140370480D01*
X142905671Y-140380970D01*
X142882572Y-140389235D01*
X142858773Y-140395196D01*
X142834505Y-140398796D01*
X142810001Y-140400000D01*
X142159999Y-140400000D01*
X142135495Y-140398796D01*
X142111227Y-140395196D01*
X142087428Y-140389235D01*
X142064329Y-140380970D01*
X142042150Y-140370480D01*
X142021107Y-140357868D01*
X142001401Y-140343253D01*
X141983223Y-140326777D01*
X141966747Y-140308599D01*
X141952132Y-140288893D01*
X141939520Y-140267850D01*
X141929030Y-140245671D01*
X141920765Y-140222572D01*
X141914804Y-140198773D01*
X141911204Y-140174505D01*
X141910000Y-140150001D01*
X141910000Y-139249999D01*
X141911204Y-139225495D01*
X141914804Y-139201227D01*
X141920765Y-139177428D01*
X141929030Y-139154329D01*
X141939520Y-139132150D01*
X141952132Y-139111107D01*
X141966747Y-139091401D01*
X141983223Y-139073223D01*
X142001401Y-139056747D01*
X142021107Y-139042132D01*
X142042150Y-139029520D01*
X142064329Y-139019030D01*
X142087428Y-139010765D01*
X142111227Y-139004804D01*
X142135495Y-139001204D01*
X142159999Y-139000000D01*
X142810001Y-139000000D01*
X142834505Y-139001204D01*
X142834505Y-139001204D01*
G37*
D11*
G04 #@! TD*
G04 #@! TO.P,R7,1*
G04 #@! TO.N,VCC*
X142485000Y-139700000D03*
D10*
G04 #@! TO.N,ADC_IN4*
G04 #@! TO.C,R7*
G36*
X144884505Y-139001204D02*
X144908773Y-139004804D01*
X144932572Y-139010765D01*
X144955671Y-139019030D01*
X144977850Y-139029520D01*
X144998893Y-139042132D01*
X145018599Y-139056747D01*
X145036777Y-139073223D01*
X145053253Y-139091401D01*
X145067868Y-139111107D01*
X145080480Y-139132150D01*
X145090970Y-139154329D01*
X145099235Y-139177428D01*
X145105196Y-139201227D01*
X145108796Y-139225495D01*
X145110000Y-139249999D01*
X145110000Y-140150001D01*
X145108796Y-140174505D01*
X145105196Y-140198773D01*
X145099235Y-140222572D01*
X145090970Y-140245671D01*
X145080480Y-140267850D01*
X145067868Y-140288893D01*
X145053253Y-140308599D01*
X145036777Y-140326777D01*
X145018599Y-140343253D01*
X144998893Y-140357868D01*
X144977850Y-140370480D01*
X144955671Y-140380970D01*
X144932572Y-140389235D01*
X144908773Y-140395196D01*
X144884505Y-140398796D01*
X144860001Y-140400000D01*
X144209999Y-140400000D01*
X144185495Y-140398796D01*
X144161227Y-140395196D01*
X144137428Y-140389235D01*
X144114329Y-140380970D01*
X144092150Y-140370480D01*
X144071107Y-140357868D01*
X144051401Y-140343253D01*
X144033223Y-140326777D01*
X144016747Y-140308599D01*
X144002132Y-140288893D01*
X143989520Y-140267850D01*
X143979030Y-140245671D01*
X143970765Y-140222572D01*
X143964804Y-140198773D01*
X143961204Y-140174505D01*
X143960000Y-140150001D01*
X143960000Y-139249999D01*
X143961204Y-139225495D01*
X143964804Y-139201227D01*
X143970765Y-139177428D01*
X143979030Y-139154329D01*
X143989520Y-139132150D01*
X144002132Y-139111107D01*
X144016747Y-139091401D01*
X144033223Y-139073223D01*
X144051401Y-139056747D01*
X144071107Y-139042132D01*
X144092150Y-139029520D01*
X144114329Y-139019030D01*
X144137428Y-139010765D01*
X144161227Y-139004804D01*
X144185495Y-139001204D01*
X144209999Y-139000000D01*
X144860001Y-139000000D01*
X144884505Y-139001204D01*
X144884505Y-139001204D01*
G37*
D11*
G04 #@! TD*
G04 #@! TO.P,R7,2*
G04 #@! TO.N,ADC_IN4*
X144535000Y-139700000D03*
D10*
G04 #@! TO.N,Net-(D3-Pad2)*
G04 #@! TO.C,R8*
G36*
X144884505Y-133921204D02*
X144908773Y-133924804D01*
X144932572Y-133930765D01*
X144955671Y-133939030D01*
X144977850Y-133949520D01*
X144998893Y-133962132D01*
X145018599Y-133976747D01*
X145036777Y-133993223D01*
X145053253Y-134011401D01*
X145067868Y-134031107D01*
X145080480Y-134052150D01*
X145090970Y-134074329D01*
X145099235Y-134097428D01*
X145105196Y-134121227D01*
X145108796Y-134145495D01*
X145110000Y-134169999D01*
X145110000Y-135070001D01*
X145108796Y-135094505D01*
X145105196Y-135118773D01*
X145099235Y-135142572D01*
X145090970Y-135165671D01*
X145080480Y-135187850D01*
X145067868Y-135208893D01*
X145053253Y-135228599D01*
X145036777Y-135246777D01*
X145018599Y-135263253D01*
X144998893Y-135277868D01*
X144977850Y-135290480D01*
X144955671Y-135300970D01*
X144932572Y-135309235D01*
X144908773Y-135315196D01*
X144884505Y-135318796D01*
X144860001Y-135320000D01*
X144209999Y-135320000D01*
X144185495Y-135318796D01*
X144161227Y-135315196D01*
X144137428Y-135309235D01*
X144114329Y-135300970D01*
X144092150Y-135290480D01*
X144071107Y-135277868D01*
X144051401Y-135263253D01*
X144033223Y-135246777D01*
X144016747Y-135228599D01*
X144002132Y-135208893D01*
X143989520Y-135187850D01*
X143979030Y-135165671D01*
X143970765Y-135142572D01*
X143964804Y-135118773D01*
X143961204Y-135094505D01*
X143960000Y-135070001D01*
X143960000Y-134169999D01*
X143961204Y-134145495D01*
X143964804Y-134121227D01*
X143970765Y-134097428D01*
X143979030Y-134074329D01*
X143989520Y-134052150D01*
X144002132Y-134031107D01*
X144016747Y-134011401D01*
X144033223Y-133993223D01*
X144051401Y-133976747D01*
X144071107Y-133962132D01*
X144092150Y-133949520D01*
X144114329Y-133939030D01*
X144137428Y-133930765D01*
X144161227Y-133924804D01*
X144185495Y-133921204D01*
X144209999Y-133920000D01*
X144860001Y-133920000D01*
X144884505Y-133921204D01*
X144884505Y-133921204D01*
G37*
D11*
G04 #@! TD*
G04 #@! TO.P,R8,2*
G04 #@! TO.N,Net-(D3-Pad2)*
X144535000Y-134620000D03*
D10*
G04 #@! TO.N,VCC*
G04 #@! TO.C,R8*
G36*
X142834505Y-133921204D02*
X142858773Y-133924804D01*
X142882572Y-133930765D01*
X142905671Y-133939030D01*
X142927850Y-133949520D01*
X142948893Y-133962132D01*
X142968599Y-133976747D01*
X142986777Y-133993223D01*
X143003253Y-134011401D01*
X143017868Y-134031107D01*
X143030480Y-134052150D01*
X143040970Y-134074329D01*
X143049235Y-134097428D01*
X143055196Y-134121227D01*
X143058796Y-134145495D01*
X143060000Y-134169999D01*
X143060000Y-135070001D01*
X143058796Y-135094505D01*
X143055196Y-135118773D01*
X143049235Y-135142572D01*
X143040970Y-135165671D01*
X143030480Y-135187850D01*
X143017868Y-135208893D01*
X143003253Y-135228599D01*
X142986777Y-135246777D01*
X142968599Y-135263253D01*
X142948893Y-135277868D01*
X142927850Y-135290480D01*
X142905671Y-135300970D01*
X142882572Y-135309235D01*
X142858773Y-135315196D01*
X142834505Y-135318796D01*
X142810001Y-135320000D01*
X142159999Y-135320000D01*
X142135495Y-135318796D01*
X142111227Y-135315196D01*
X142087428Y-135309235D01*
X142064329Y-135300970D01*
X142042150Y-135290480D01*
X142021107Y-135277868D01*
X142001401Y-135263253D01*
X141983223Y-135246777D01*
X141966747Y-135228599D01*
X141952132Y-135208893D01*
X141939520Y-135187850D01*
X141929030Y-135165671D01*
X141920765Y-135142572D01*
X141914804Y-135118773D01*
X141911204Y-135094505D01*
X141910000Y-135070001D01*
X141910000Y-134169999D01*
X141911204Y-134145495D01*
X141914804Y-134121227D01*
X141920765Y-134097428D01*
X141929030Y-134074329D01*
X141939520Y-134052150D01*
X141952132Y-134031107D01*
X141966747Y-134011401D01*
X141983223Y-133993223D01*
X142001401Y-133976747D01*
X142021107Y-133962132D01*
X142042150Y-133949520D01*
X142064329Y-133939030D01*
X142087428Y-133930765D01*
X142111227Y-133924804D01*
X142135495Y-133921204D01*
X142159999Y-133920000D01*
X142810001Y-133920000D01*
X142834505Y-133921204D01*
X142834505Y-133921204D01*
G37*
D11*
G04 #@! TD*
G04 #@! TO.P,R8,1*
G04 #@! TO.N,VCC*
X142485000Y-134620000D03*
D10*
G04 #@! TO.N,Net-(Q1-Pad1)*
G04 #@! TO.C,R9*
G36*
X143984505Y-73866204D02*
X144008773Y-73869804D01*
X144032572Y-73875765D01*
X144055671Y-73884030D01*
X144077850Y-73894520D01*
X144098893Y-73907132D01*
X144118599Y-73921747D01*
X144136777Y-73938223D01*
X144153253Y-73956401D01*
X144167868Y-73976107D01*
X144180480Y-73997150D01*
X144190970Y-74019329D01*
X144199235Y-74042428D01*
X144205196Y-74066227D01*
X144208796Y-74090495D01*
X144210000Y-74114999D01*
X144210000Y-74765001D01*
X144208796Y-74789505D01*
X144205196Y-74813773D01*
X144199235Y-74837572D01*
X144190970Y-74860671D01*
X144180480Y-74882850D01*
X144167868Y-74903893D01*
X144153253Y-74923599D01*
X144136777Y-74941777D01*
X144118599Y-74958253D01*
X144098893Y-74972868D01*
X144077850Y-74985480D01*
X144055671Y-74995970D01*
X144032572Y-75004235D01*
X144008773Y-75010196D01*
X143984505Y-75013796D01*
X143960001Y-75015000D01*
X143059999Y-75015000D01*
X143035495Y-75013796D01*
X143011227Y-75010196D01*
X142987428Y-75004235D01*
X142964329Y-74995970D01*
X142942150Y-74985480D01*
X142921107Y-74972868D01*
X142901401Y-74958253D01*
X142883223Y-74941777D01*
X142866747Y-74923599D01*
X142852132Y-74903893D01*
X142839520Y-74882850D01*
X142829030Y-74860671D01*
X142820765Y-74837572D01*
X142814804Y-74813773D01*
X142811204Y-74789505D01*
X142810000Y-74765001D01*
X142810000Y-74114999D01*
X142811204Y-74090495D01*
X142814804Y-74066227D01*
X142820765Y-74042428D01*
X142829030Y-74019329D01*
X142839520Y-73997150D01*
X142852132Y-73976107D01*
X142866747Y-73956401D01*
X142883223Y-73938223D01*
X142901401Y-73921747D01*
X142921107Y-73907132D01*
X142942150Y-73894520D01*
X142964329Y-73884030D01*
X142987428Y-73875765D01*
X143011227Y-73869804D01*
X143035495Y-73866204D01*
X143059999Y-73865000D01*
X143960001Y-73865000D01*
X143984505Y-73866204D01*
X143984505Y-73866204D01*
G37*
D11*
G04 #@! TD*
G04 #@! TO.P,R9,1*
G04 #@! TO.N,Net-(Q1-Pad1)*
X143510000Y-74440000D03*
D10*
G04 #@! TO.N,PA1*
G04 #@! TO.C,R9*
G36*
X143984505Y-71816204D02*
X144008773Y-71819804D01*
X144032572Y-71825765D01*
X144055671Y-71834030D01*
X144077850Y-71844520D01*
X144098893Y-71857132D01*
X144118599Y-71871747D01*
X144136777Y-71888223D01*
X144153253Y-71906401D01*
X144167868Y-71926107D01*
X144180480Y-71947150D01*
X144190970Y-71969329D01*
X144199235Y-71992428D01*
X144205196Y-72016227D01*
X144208796Y-72040495D01*
X144210000Y-72064999D01*
X144210000Y-72715001D01*
X144208796Y-72739505D01*
X144205196Y-72763773D01*
X144199235Y-72787572D01*
X144190970Y-72810671D01*
X144180480Y-72832850D01*
X144167868Y-72853893D01*
X144153253Y-72873599D01*
X144136777Y-72891777D01*
X144118599Y-72908253D01*
X144098893Y-72922868D01*
X144077850Y-72935480D01*
X144055671Y-72945970D01*
X144032572Y-72954235D01*
X144008773Y-72960196D01*
X143984505Y-72963796D01*
X143960001Y-72965000D01*
X143059999Y-72965000D01*
X143035495Y-72963796D01*
X143011227Y-72960196D01*
X142987428Y-72954235D01*
X142964329Y-72945970D01*
X142942150Y-72935480D01*
X142921107Y-72922868D01*
X142901401Y-72908253D01*
X142883223Y-72891777D01*
X142866747Y-72873599D01*
X142852132Y-72853893D01*
X142839520Y-72832850D01*
X142829030Y-72810671D01*
X142820765Y-72787572D01*
X142814804Y-72763773D01*
X142811204Y-72739505D01*
X142810000Y-72715001D01*
X142810000Y-72064999D01*
X142811204Y-72040495D01*
X142814804Y-72016227D01*
X142820765Y-71992428D01*
X142829030Y-71969329D01*
X142839520Y-71947150D01*
X142852132Y-71926107D01*
X142866747Y-71906401D01*
X142883223Y-71888223D01*
X142901401Y-71871747D01*
X142921107Y-71857132D01*
X142942150Y-71844520D01*
X142964329Y-71834030D01*
X142987428Y-71825765D01*
X143011227Y-71819804D01*
X143035495Y-71816204D01*
X143059999Y-71815000D01*
X143960001Y-71815000D01*
X143984505Y-71816204D01*
X143984505Y-71816204D01*
G37*
D11*
G04 #@! TD*
G04 #@! TO.P,R9,2*
G04 #@! TO.N,PA1*
X143510000Y-72390000D03*
D10*
G04 #@! TO.N,Net-(R10-Pad2)*
G04 #@! TO.C,R10*
G36*
X155414505Y-102051204D02*
X155438773Y-102054804D01*
X155462572Y-102060765D01*
X155485671Y-102069030D01*
X155507850Y-102079520D01*
X155528893Y-102092132D01*
X155548599Y-102106747D01*
X155566777Y-102123223D01*
X155583253Y-102141401D01*
X155597868Y-102161107D01*
X155610480Y-102182150D01*
X155620970Y-102204329D01*
X155629235Y-102227428D01*
X155635196Y-102251227D01*
X155638796Y-102275495D01*
X155640000Y-102299999D01*
X155640000Y-102950001D01*
X155638796Y-102974505D01*
X155635196Y-102998773D01*
X155629235Y-103022572D01*
X155620970Y-103045671D01*
X155610480Y-103067850D01*
X155597868Y-103088893D01*
X155583253Y-103108599D01*
X155566777Y-103126777D01*
X155548599Y-103143253D01*
X155528893Y-103157868D01*
X155507850Y-103170480D01*
X155485671Y-103180970D01*
X155462572Y-103189235D01*
X155438773Y-103195196D01*
X155414505Y-103198796D01*
X155390001Y-103200000D01*
X154489999Y-103200000D01*
X154465495Y-103198796D01*
X154441227Y-103195196D01*
X154417428Y-103189235D01*
X154394329Y-103180970D01*
X154372150Y-103170480D01*
X154351107Y-103157868D01*
X154331401Y-103143253D01*
X154313223Y-103126777D01*
X154296747Y-103108599D01*
X154282132Y-103088893D01*
X154269520Y-103067850D01*
X154259030Y-103045671D01*
X154250765Y-103022572D01*
X154244804Y-102998773D01*
X154241204Y-102974505D01*
X154240000Y-102950001D01*
X154240000Y-102299999D01*
X154241204Y-102275495D01*
X154244804Y-102251227D01*
X154250765Y-102227428D01*
X154259030Y-102204329D01*
X154269520Y-102182150D01*
X154282132Y-102161107D01*
X154296747Y-102141401D01*
X154313223Y-102123223D01*
X154331401Y-102106747D01*
X154351107Y-102092132D01*
X154372150Y-102079520D01*
X154394329Y-102069030D01*
X154417428Y-102060765D01*
X154441227Y-102054804D01*
X154465495Y-102051204D01*
X154489999Y-102050000D01*
X155390001Y-102050000D01*
X155414505Y-102051204D01*
X155414505Y-102051204D01*
G37*
D11*
G04 #@! TD*
G04 #@! TO.P,R10,2*
G04 #@! TO.N,Net-(R10-Pad2)*
X154940000Y-102625000D03*
D10*
G04 #@! TO.N,GND*
G04 #@! TO.C,R10*
G36*
X155414505Y-100001204D02*
X155438773Y-100004804D01*
X155462572Y-100010765D01*
X155485671Y-100019030D01*
X155507850Y-100029520D01*
X155528893Y-100042132D01*
X155548599Y-100056747D01*
X155566777Y-100073223D01*
X155583253Y-100091401D01*
X155597868Y-100111107D01*
X155610480Y-100132150D01*
X155620970Y-100154329D01*
X155629235Y-100177428D01*
X155635196Y-100201227D01*
X155638796Y-100225495D01*
X155640000Y-100249999D01*
X155640000Y-100900001D01*
X155638796Y-100924505D01*
X155635196Y-100948773D01*
X155629235Y-100972572D01*
X155620970Y-100995671D01*
X155610480Y-101017850D01*
X155597868Y-101038893D01*
X155583253Y-101058599D01*
X155566777Y-101076777D01*
X155548599Y-101093253D01*
X155528893Y-101107868D01*
X155507850Y-101120480D01*
X155485671Y-101130970D01*
X155462572Y-101139235D01*
X155438773Y-101145196D01*
X155414505Y-101148796D01*
X155390001Y-101150000D01*
X154489999Y-101150000D01*
X154465495Y-101148796D01*
X154441227Y-101145196D01*
X154417428Y-101139235D01*
X154394329Y-101130970D01*
X154372150Y-101120480D01*
X154351107Y-101107868D01*
X154331401Y-101093253D01*
X154313223Y-101076777D01*
X154296747Y-101058599D01*
X154282132Y-101038893D01*
X154269520Y-101017850D01*
X154259030Y-100995671D01*
X154250765Y-100972572D01*
X154244804Y-100948773D01*
X154241204Y-100924505D01*
X154240000Y-100900001D01*
X154240000Y-100249999D01*
X154241204Y-100225495D01*
X154244804Y-100201227D01*
X154250765Y-100177428D01*
X154259030Y-100154329D01*
X154269520Y-100132150D01*
X154282132Y-100111107D01*
X154296747Y-100091401D01*
X154313223Y-100073223D01*
X154331401Y-100056747D01*
X154351107Y-100042132D01*
X154372150Y-100029520D01*
X154394329Y-100019030D01*
X154417428Y-100010765D01*
X154441227Y-100004804D01*
X154465495Y-100001204D01*
X154489999Y-100000000D01*
X155390001Y-100000000D01*
X155414505Y-100001204D01*
X155414505Y-100001204D01*
G37*
D11*
G04 #@! TD*
G04 #@! TO.P,R10,1*
G04 #@! TO.N,GND*
X154940000Y-100575000D03*
D10*
G04 #@! TO.N,PA5*
G04 #@! TO.C,R11*
G36*
X154144505Y-140151204D02*
X154168773Y-140154804D01*
X154192572Y-140160765D01*
X154215671Y-140169030D01*
X154237850Y-140179520D01*
X154258893Y-140192132D01*
X154278599Y-140206747D01*
X154296777Y-140223223D01*
X154313253Y-140241401D01*
X154327868Y-140261107D01*
X154340480Y-140282150D01*
X154350970Y-140304329D01*
X154359235Y-140327428D01*
X154365196Y-140351227D01*
X154368796Y-140375495D01*
X154370000Y-140399999D01*
X154370000Y-141050001D01*
X154368796Y-141074505D01*
X154365196Y-141098773D01*
X154359235Y-141122572D01*
X154350970Y-141145671D01*
X154340480Y-141167850D01*
X154327868Y-141188893D01*
X154313253Y-141208599D01*
X154296777Y-141226777D01*
X154278599Y-141243253D01*
X154258893Y-141257868D01*
X154237850Y-141270480D01*
X154215671Y-141280970D01*
X154192572Y-141289235D01*
X154168773Y-141295196D01*
X154144505Y-141298796D01*
X154120001Y-141300000D01*
X153219999Y-141300000D01*
X153195495Y-141298796D01*
X153171227Y-141295196D01*
X153147428Y-141289235D01*
X153124329Y-141280970D01*
X153102150Y-141270480D01*
X153081107Y-141257868D01*
X153061401Y-141243253D01*
X153043223Y-141226777D01*
X153026747Y-141208599D01*
X153012132Y-141188893D01*
X152999520Y-141167850D01*
X152989030Y-141145671D01*
X152980765Y-141122572D01*
X152974804Y-141098773D01*
X152971204Y-141074505D01*
X152970000Y-141050001D01*
X152970000Y-140399999D01*
X152971204Y-140375495D01*
X152974804Y-140351227D01*
X152980765Y-140327428D01*
X152989030Y-140304329D01*
X152999520Y-140282150D01*
X153012132Y-140261107D01*
X153026747Y-140241401D01*
X153043223Y-140223223D01*
X153061401Y-140206747D01*
X153081107Y-140192132D01*
X153102150Y-140179520D01*
X153124329Y-140169030D01*
X153147428Y-140160765D01*
X153171227Y-140154804D01*
X153195495Y-140151204D01*
X153219999Y-140150000D01*
X154120001Y-140150000D01*
X154144505Y-140151204D01*
X154144505Y-140151204D01*
G37*
D11*
G04 #@! TD*
G04 #@! TO.P,R11,2*
G04 #@! TO.N,PA5*
X153670000Y-140725000D03*
D10*
G04 #@! TO.N,Net-(Q3-Pad1)*
G04 #@! TO.C,R11*
G36*
X154144505Y-138101204D02*
X154168773Y-138104804D01*
X154192572Y-138110765D01*
X154215671Y-138119030D01*
X154237850Y-138129520D01*
X154258893Y-138142132D01*
X154278599Y-138156747D01*
X154296777Y-138173223D01*
X154313253Y-138191401D01*
X154327868Y-138211107D01*
X154340480Y-138232150D01*
X154350970Y-138254329D01*
X154359235Y-138277428D01*
X154365196Y-138301227D01*
X154368796Y-138325495D01*
X154370000Y-138349999D01*
X154370000Y-139000001D01*
X154368796Y-139024505D01*
X154365196Y-139048773D01*
X154359235Y-139072572D01*
X154350970Y-139095671D01*
X154340480Y-139117850D01*
X154327868Y-139138893D01*
X154313253Y-139158599D01*
X154296777Y-139176777D01*
X154278599Y-139193253D01*
X154258893Y-139207868D01*
X154237850Y-139220480D01*
X154215671Y-139230970D01*
X154192572Y-139239235D01*
X154168773Y-139245196D01*
X154144505Y-139248796D01*
X154120001Y-139250000D01*
X153219999Y-139250000D01*
X153195495Y-139248796D01*
X153171227Y-139245196D01*
X153147428Y-139239235D01*
X153124329Y-139230970D01*
X153102150Y-139220480D01*
X153081107Y-139207868D01*
X153061401Y-139193253D01*
X153043223Y-139176777D01*
X153026747Y-139158599D01*
X153012132Y-139138893D01*
X152999520Y-139117850D01*
X152989030Y-139095671D01*
X152980765Y-139072572D01*
X152974804Y-139048773D01*
X152971204Y-139024505D01*
X152970000Y-139000001D01*
X152970000Y-138349999D01*
X152971204Y-138325495D01*
X152974804Y-138301227D01*
X152980765Y-138277428D01*
X152989030Y-138254329D01*
X152999520Y-138232150D01*
X153012132Y-138211107D01*
X153026747Y-138191401D01*
X153043223Y-138173223D01*
X153061401Y-138156747D01*
X153081107Y-138142132D01*
X153102150Y-138129520D01*
X153124329Y-138119030D01*
X153147428Y-138110765D01*
X153171227Y-138104804D01*
X153195495Y-138101204D01*
X153219999Y-138100000D01*
X154120001Y-138100000D01*
X154144505Y-138101204D01*
X154144505Y-138101204D01*
G37*
D11*
G04 #@! TD*
G04 #@! TO.P,R11,1*
G04 #@! TO.N,Net-(Q3-Pad1)*
X153670000Y-138675000D03*
D10*
G04 #@! TO.N,ADC_IN2*
G04 #@! TO.C,R12*
G36*
X171679505Y-110161204D02*
X171703773Y-110164804D01*
X171727572Y-110170765D01*
X171750671Y-110179030D01*
X171772850Y-110189520D01*
X171793893Y-110202132D01*
X171813599Y-110216747D01*
X171831777Y-110233223D01*
X171848253Y-110251401D01*
X171862868Y-110271107D01*
X171875480Y-110292150D01*
X171885970Y-110314329D01*
X171894235Y-110337428D01*
X171900196Y-110361227D01*
X171903796Y-110385495D01*
X171905000Y-110409999D01*
X171905000Y-111060001D01*
X171903796Y-111084505D01*
X171900196Y-111108773D01*
X171894235Y-111132572D01*
X171885970Y-111155671D01*
X171875480Y-111177850D01*
X171862868Y-111198893D01*
X171848253Y-111218599D01*
X171831777Y-111236777D01*
X171813599Y-111253253D01*
X171793893Y-111267868D01*
X171772850Y-111280480D01*
X171750671Y-111290970D01*
X171727572Y-111299235D01*
X171703773Y-111305196D01*
X171679505Y-111308796D01*
X171655001Y-111310000D01*
X170754999Y-111310000D01*
X170730495Y-111308796D01*
X170706227Y-111305196D01*
X170682428Y-111299235D01*
X170659329Y-111290970D01*
X170637150Y-111280480D01*
X170616107Y-111267868D01*
X170596401Y-111253253D01*
X170578223Y-111236777D01*
X170561747Y-111218599D01*
X170547132Y-111198893D01*
X170534520Y-111177850D01*
X170524030Y-111155671D01*
X170515765Y-111132572D01*
X170509804Y-111108773D01*
X170506204Y-111084505D01*
X170505000Y-111060001D01*
X170505000Y-110409999D01*
X170506204Y-110385495D01*
X170509804Y-110361227D01*
X170515765Y-110337428D01*
X170524030Y-110314329D01*
X170534520Y-110292150D01*
X170547132Y-110271107D01*
X170561747Y-110251401D01*
X170578223Y-110233223D01*
X170596401Y-110216747D01*
X170616107Y-110202132D01*
X170637150Y-110189520D01*
X170659329Y-110179030D01*
X170682428Y-110170765D01*
X170706227Y-110164804D01*
X170730495Y-110161204D01*
X170754999Y-110160000D01*
X171655001Y-110160000D01*
X171679505Y-110161204D01*
X171679505Y-110161204D01*
G37*
D11*
G04 #@! TD*
G04 #@! TO.P,R12,2*
G04 #@! TO.N,ADC_IN2*
X171205000Y-110735000D03*
D10*
G04 #@! TO.N,VCC*
G04 #@! TO.C,R12*
G36*
X171679505Y-112211204D02*
X171703773Y-112214804D01*
X171727572Y-112220765D01*
X171750671Y-112229030D01*
X171772850Y-112239520D01*
X171793893Y-112252132D01*
X171813599Y-112266747D01*
X171831777Y-112283223D01*
X171848253Y-112301401D01*
X171862868Y-112321107D01*
X171875480Y-112342150D01*
X171885970Y-112364329D01*
X171894235Y-112387428D01*
X171900196Y-112411227D01*
X171903796Y-112435495D01*
X171905000Y-112459999D01*
X171905000Y-113110001D01*
X171903796Y-113134505D01*
X171900196Y-113158773D01*
X171894235Y-113182572D01*
X171885970Y-113205671D01*
X171875480Y-113227850D01*
X171862868Y-113248893D01*
X171848253Y-113268599D01*
X171831777Y-113286777D01*
X171813599Y-113303253D01*
X171793893Y-113317868D01*
X171772850Y-113330480D01*
X171750671Y-113340970D01*
X171727572Y-113349235D01*
X171703773Y-113355196D01*
X171679505Y-113358796D01*
X171655001Y-113360000D01*
X170754999Y-113360000D01*
X170730495Y-113358796D01*
X170706227Y-113355196D01*
X170682428Y-113349235D01*
X170659329Y-113340970D01*
X170637150Y-113330480D01*
X170616107Y-113317868D01*
X170596401Y-113303253D01*
X170578223Y-113286777D01*
X170561747Y-113268599D01*
X170547132Y-113248893D01*
X170534520Y-113227850D01*
X170524030Y-113205671D01*
X170515765Y-113182572D01*
X170509804Y-113158773D01*
X170506204Y-113134505D01*
X170505000Y-113110001D01*
X170505000Y-112459999D01*
X170506204Y-112435495D01*
X170509804Y-112411227D01*
X170515765Y-112387428D01*
X170524030Y-112364329D01*
X170534520Y-112342150D01*
X170547132Y-112321107D01*
X170561747Y-112301401D01*
X170578223Y-112283223D01*
X170596401Y-112266747D01*
X170616107Y-112252132D01*
X170637150Y-112239520D01*
X170659329Y-112229030D01*
X170682428Y-112220765D01*
X170706227Y-112214804D01*
X170730495Y-112211204D01*
X170754999Y-112210000D01*
X171655001Y-112210000D01*
X171679505Y-112211204D01*
X171679505Y-112211204D01*
G37*
D11*
G04 #@! TD*
G04 #@! TO.P,R12,1*
G04 #@! TO.N,VCC*
X171205000Y-112785000D03*
D10*
G04 #@! TO.N,VCC*
G04 #@! TO.C,R13*
G36*
X166599505Y-112211204D02*
X166623773Y-112214804D01*
X166647572Y-112220765D01*
X166670671Y-112229030D01*
X166692850Y-112239520D01*
X166713893Y-112252132D01*
X166733599Y-112266747D01*
X166751777Y-112283223D01*
X166768253Y-112301401D01*
X166782868Y-112321107D01*
X166795480Y-112342150D01*
X166805970Y-112364329D01*
X166814235Y-112387428D01*
X166820196Y-112411227D01*
X166823796Y-112435495D01*
X166825000Y-112459999D01*
X166825000Y-113110001D01*
X166823796Y-113134505D01*
X166820196Y-113158773D01*
X166814235Y-113182572D01*
X166805970Y-113205671D01*
X166795480Y-113227850D01*
X166782868Y-113248893D01*
X166768253Y-113268599D01*
X166751777Y-113286777D01*
X166733599Y-113303253D01*
X166713893Y-113317868D01*
X166692850Y-113330480D01*
X166670671Y-113340970D01*
X166647572Y-113349235D01*
X166623773Y-113355196D01*
X166599505Y-113358796D01*
X166575001Y-113360000D01*
X165674999Y-113360000D01*
X165650495Y-113358796D01*
X165626227Y-113355196D01*
X165602428Y-113349235D01*
X165579329Y-113340970D01*
X165557150Y-113330480D01*
X165536107Y-113317868D01*
X165516401Y-113303253D01*
X165498223Y-113286777D01*
X165481747Y-113268599D01*
X165467132Y-113248893D01*
X165454520Y-113227850D01*
X165444030Y-113205671D01*
X165435765Y-113182572D01*
X165429804Y-113158773D01*
X165426204Y-113134505D01*
X165425000Y-113110001D01*
X165425000Y-112459999D01*
X165426204Y-112435495D01*
X165429804Y-112411227D01*
X165435765Y-112387428D01*
X165444030Y-112364329D01*
X165454520Y-112342150D01*
X165467132Y-112321107D01*
X165481747Y-112301401D01*
X165498223Y-112283223D01*
X165516401Y-112266747D01*
X165536107Y-112252132D01*
X165557150Y-112239520D01*
X165579329Y-112229030D01*
X165602428Y-112220765D01*
X165626227Y-112214804D01*
X165650495Y-112211204D01*
X165674999Y-112210000D01*
X166575001Y-112210000D01*
X166599505Y-112211204D01*
X166599505Y-112211204D01*
G37*
D11*
G04 #@! TD*
G04 #@! TO.P,R13,1*
G04 #@! TO.N,VCC*
X166125000Y-112785000D03*
D10*
G04 #@! TO.N,Net-(D2-Pad2)*
G04 #@! TO.C,R13*
G36*
X166599505Y-110161204D02*
X166623773Y-110164804D01*
X166647572Y-110170765D01*
X166670671Y-110179030D01*
X166692850Y-110189520D01*
X166713893Y-110202132D01*
X166733599Y-110216747D01*
X166751777Y-110233223D01*
X166768253Y-110251401D01*
X166782868Y-110271107D01*
X166795480Y-110292150D01*
X166805970Y-110314329D01*
X166814235Y-110337428D01*
X166820196Y-110361227D01*
X166823796Y-110385495D01*
X166825000Y-110409999D01*
X166825000Y-111060001D01*
X166823796Y-111084505D01*
X166820196Y-111108773D01*
X166814235Y-111132572D01*
X166805970Y-111155671D01*
X166795480Y-111177850D01*
X166782868Y-111198893D01*
X166768253Y-111218599D01*
X166751777Y-111236777D01*
X166733599Y-111253253D01*
X166713893Y-111267868D01*
X166692850Y-111280480D01*
X166670671Y-111290970D01*
X166647572Y-111299235D01*
X166623773Y-111305196D01*
X166599505Y-111308796D01*
X166575001Y-111310000D01*
X165674999Y-111310000D01*
X165650495Y-111308796D01*
X165626227Y-111305196D01*
X165602428Y-111299235D01*
X165579329Y-111290970D01*
X165557150Y-111280480D01*
X165536107Y-111267868D01*
X165516401Y-111253253D01*
X165498223Y-111236777D01*
X165481747Y-111218599D01*
X165467132Y-111198893D01*
X165454520Y-111177850D01*
X165444030Y-111155671D01*
X165435765Y-111132572D01*
X165429804Y-111108773D01*
X165426204Y-111084505D01*
X165425000Y-111060001D01*
X165425000Y-110409999D01*
X165426204Y-110385495D01*
X165429804Y-110361227D01*
X165435765Y-110337428D01*
X165444030Y-110314329D01*
X165454520Y-110292150D01*
X165467132Y-110271107D01*
X165481747Y-110251401D01*
X165498223Y-110233223D01*
X165516401Y-110216747D01*
X165536107Y-110202132D01*
X165557150Y-110189520D01*
X165579329Y-110179030D01*
X165602428Y-110170765D01*
X165626227Y-110164804D01*
X165650495Y-110161204D01*
X165674999Y-110160000D01*
X166575001Y-110160000D01*
X166599505Y-110161204D01*
X166599505Y-110161204D01*
G37*
D11*
G04 #@! TD*
G04 #@! TO.P,R13,2*
G04 #@! TO.N,Net-(D2-Pad2)*
X166125000Y-110735000D03*
D10*
G04 #@! TO.N,Net-(Q2-Pad1)*
G04 #@! TO.C,R14*
G36*
X171019505Y-100901204D02*
X171043773Y-100904804D01*
X171067572Y-100910765D01*
X171090671Y-100919030D01*
X171112850Y-100929520D01*
X171133893Y-100942132D01*
X171153599Y-100956747D01*
X171171777Y-100973223D01*
X171188253Y-100991401D01*
X171202868Y-101011107D01*
X171215480Y-101032150D01*
X171225970Y-101054329D01*
X171234235Y-101077428D01*
X171240196Y-101101227D01*
X171243796Y-101125495D01*
X171245000Y-101149999D01*
X171245000Y-102050001D01*
X171243796Y-102074505D01*
X171240196Y-102098773D01*
X171234235Y-102122572D01*
X171225970Y-102145671D01*
X171215480Y-102167850D01*
X171202868Y-102188893D01*
X171188253Y-102208599D01*
X171171777Y-102226777D01*
X171153599Y-102243253D01*
X171133893Y-102257868D01*
X171112850Y-102270480D01*
X171090671Y-102280970D01*
X171067572Y-102289235D01*
X171043773Y-102295196D01*
X171019505Y-102298796D01*
X170995001Y-102300000D01*
X170344999Y-102300000D01*
X170320495Y-102298796D01*
X170296227Y-102295196D01*
X170272428Y-102289235D01*
X170249329Y-102280970D01*
X170227150Y-102270480D01*
X170206107Y-102257868D01*
X170186401Y-102243253D01*
X170168223Y-102226777D01*
X170151747Y-102208599D01*
X170137132Y-102188893D01*
X170124520Y-102167850D01*
X170114030Y-102145671D01*
X170105765Y-102122572D01*
X170099804Y-102098773D01*
X170096204Y-102074505D01*
X170095000Y-102050001D01*
X170095000Y-101149999D01*
X170096204Y-101125495D01*
X170099804Y-101101227D01*
X170105765Y-101077428D01*
X170114030Y-101054329D01*
X170124520Y-101032150D01*
X170137132Y-101011107D01*
X170151747Y-100991401D01*
X170168223Y-100973223D01*
X170186401Y-100956747D01*
X170206107Y-100942132D01*
X170227150Y-100929520D01*
X170249329Y-100919030D01*
X170272428Y-100910765D01*
X170296227Y-100904804D01*
X170320495Y-100901204D01*
X170344999Y-100900000D01*
X170995001Y-100900000D01*
X171019505Y-100901204D01*
X171019505Y-100901204D01*
G37*
D11*
G04 #@! TD*
G04 #@! TO.P,R14,1*
G04 #@! TO.N,Net-(Q2-Pad1)*
X170670000Y-101600000D03*
D10*
G04 #@! TO.N,PA3*
G04 #@! TO.C,R14*
G36*
X173069505Y-100901204D02*
X173093773Y-100904804D01*
X173117572Y-100910765D01*
X173140671Y-100919030D01*
X173162850Y-100929520D01*
X173183893Y-100942132D01*
X173203599Y-100956747D01*
X173221777Y-100973223D01*
X173238253Y-100991401D01*
X173252868Y-101011107D01*
X173265480Y-101032150D01*
X173275970Y-101054329D01*
X173284235Y-101077428D01*
X173290196Y-101101227D01*
X173293796Y-101125495D01*
X173295000Y-101149999D01*
X173295000Y-102050001D01*
X173293796Y-102074505D01*
X173290196Y-102098773D01*
X173284235Y-102122572D01*
X173275970Y-102145671D01*
X173265480Y-102167850D01*
X173252868Y-102188893D01*
X173238253Y-102208599D01*
X173221777Y-102226777D01*
X173203599Y-102243253D01*
X173183893Y-102257868D01*
X173162850Y-102270480D01*
X173140671Y-102280970D01*
X173117572Y-102289235D01*
X173093773Y-102295196D01*
X173069505Y-102298796D01*
X173045001Y-102300000D01*
X172394999Y-102300000D01*
X172370495Y-102298796D01*
X172346227Y-102295196D01*
X172322428Y-102289235D01*
X172299329Y-102280970D01*
X172277150Y-102270480D01*
X172256107Y-102257868D01*
X172236401Y-102243253D01*
X172218223Y-102226777D01*
X172201747Y-102208599D01*
X172187132Y-102188893D01*
X172174520Y-102167850D01*
X172164030Y-102145671D01*
X172155765Y-102122572D01*
X172149804Y-102098773D01*
X172146204Y-102074505D01*
X172145000Y-102050001D01*
X172145000Y-101149999D01*
X172146204Y-101125495D01*
X172149804Y-101101227D01*
X172155765Y-101077428D01*
X172164030Y-101054329D01*
X172174520Y-101032150D01*
X172187132Y-101011107D01*
X172201747Y-100991401D01*
X172218223Y-100973223D01*
X172236401Y-100956747D01*
X172256107Y-100942132D01*
X172277150Y-100929520D01*
X172299329Y-100919030D01*
X172322428Y-100910765D01*
X172346227Y-100904804D01*
X172370495Y-100901204D01*
X172394999Y-100900000D01*
X173045001Y-100900000D01*
X173069505Y-100901204D01*
X173069505Y-100901204D01*
G37*
D11*
G04 #@! TD*
G04 #@! TO.P,R14,2*
G04 #@! TO.N,PA3*
X172720000Y-101600000D03*
D29*
G04 #@! TO.P,Y1,1*
G04 #@! TO.N,Net-(C2-Pad1)*
X152400000Y-96520000D03*
G04 #@! TO.P,Y1,2*
G04 #@! TO.N,Net-(C3-Pad1)*
X147520000Y-96520000D03*
G04 #@! TD*
D30*
G04 #@! TO.P,REF\002A\002A,*
G04 #@! TO.N,*
X125730000Y-73660000D03*
G04 #@! TD*
G04 #@! TO.P,REF\002A\002A,*
G04 #@! TO.N,*
X171450000Y-73660000D03*
G04 #@! TD*
G04 #@! TO.P,REF\002A\002A,*
G04 #@! TO.N,*
X171450000Y-139700000D03*
G04 #@! TD*
G04 #@! TO.P,REF\002A\002A,*
G04 #@! TO.N,*
X125730000Y-139700000D03*
G04 #@! TD*
D31*
G04 #@! TO.N,NRST*
X149860000Y-104140000D03*
G04 #@! TO.N,VCC*
X168910000Y-112785000D03*
X128270000Y-100575000D03*
X154695000Y-76200000D03*
X142485000Y-137160000D03*
X142240000Y-118110000D03*
X151130000Y-114300000D03*
G04 #@! TO.N,ADC_IN0*
X148590000Y-100330000D03*
G04 #@! TO.N,ADC_IN2*
X147320000Y-104140000D03*
G04 #@! TO.N,ADC_IN4*
X144780000Y-137160000D03*
X143510000Y-106680000D03*
G04 #@! TO.N,ADC_IN6*
X146050000Y-106680000D03*
G04 #@! TO.N,PA5*
X149860000Y-121920000D03*
X144780000Y-107950000D03*
G04 #@! TO.N,PA3*
X168910000Y-95250000D03*
X160020000Y-96520000D03*
X152400000Y-99060000D03*
X145823946Y-103680302D03*
G04 #@! TD*
D32*
G04 #@! TO.N,GND*
X148265000Y-111435000D02*
X148590000Y-111760000D01*
X148265000Y-108360000D02*
X148265000Y-111435000D01*
X131530000Y-119150000D02*
X130810000Y-119870000D01*
X133910000Y-119150000D02*
X131530000Y-119150000D01*
X148590000Y-111760000D02*
X148590000Y-113030000D01*
X124345000Y-122691000D02*
X124615000Y-122421000D01*
X124345000Y-124191000D02*
X124345000Y-122691000D01*
X124345000Y-127611000D02*
X124615000Y-127881000D01*
X124345000Y-126111000D02*
X124345000Y-127611000D01*
X127615000Y-126571000D02*
X127495000Y-126451000D01*
X127615000Y-128051000D02*
X127615000Y-126571000D01*
G04 #@! TO.N,NRST*
X149565000Y-103845000D02*
X149860000Y-104140000D01*
X149565000Y-102460000D02*
X149565000Y-103845000D01*
G04 #@! TO.N,VCC*
X171205000Y-112785000D02*
X170405000Y-112785000D01*
X170405000Y-112785000D02*
X168910000Y-112785000D01*
X168910000Y-112785000D02*
X166125000Y-112785000D01*
X125730000Y-100575000D02*
X128270000Y-100575000D01*
X128270000Y-100575000D02*
X130390000Y-100575000D01*
X154695000Y-73660000D02*
X154695000Y-76200000D01*
X154695000Y-76200000D02*
X154695000Y-78740000D01*
X142485000Y-134620000D02*
X142485000Y-137160000D01*
X142485000Y-137160000D02*
X142485000Y-139700000D01*
X137870000Y-120650000D02*
X141460000Y-120650000D01*
X141460000Y-118890000D02*
X142240000Y-118110000D01*
X141460000Y-120650000D02*
X141460000Y-118890000D01*
X150016628Y-112406628D02*
X150640000Y-113030000D01*
X148915000Y-108360000D02*
X148915000Y-111305000D01*
X148915000Y-111305000D02*
X150016628Y-112406628D01*
X148915000Y-102460000D02*
X148915000Y-105410000D01*
X148915000Y-105410000D02*
X148915000Y-108360000D01*
X150640000Y-113810000D02*
X151130000Y-114300000D01*
X150640000Y-113030000D02*
X150640000Y-113810000D01*
X133910000Y-120650000D02*
X137870000Y-120650000D01*
G04 #@! TO.N,USBDM*
X127495000Y-124501000D02*
X143469000Y-124501000D01*
X143469000Y-124501000D02*
X152400000Y-115570000D01*
X152400000Y-115570000D02*
X152400000Y-112334750D01*
X149565000Y-109499750D02*
X149565000Y-108360000D01*
X152400000Y-112334750D02*
X149565000Y-109499750D01*
G04 #@! TO.N,USBDP*
X150215000Y-109339000D02*
X150215000Y-108360000D01*
X150215000Y-109575000D02*
X150215000Y-109339000D01*
X152806410Y-112166410D02*
X150215000Y-109575000D01*
X152806410Y-115738340D02*
X152806410Y-112166410D01*
X143393750Y-125151000D02*
X152806410Y-115738340D01*
X127495000Y-125151000D02*
X143393750Y-125151000D01*
G04 #@! TO.N,SWDIO*
X151566000Y-106680000D02*
X150865000Y-107381000D01*
X166370000Y-86360000D02*
X167640000Y-87630000D01*
X150865000Y-107381000D02*
X150865000Y-108360000D01*
X168910000Y-92710000D02*
X154940000Y-106680000D01*
X154940000Y-106680000D02*
X151566000Y-106680000D01*
X168910000Y-92710000D02*
X168910000Y-88900000D01*
X168910000Y-88900000D02*
X167640000Y-87630000D01*
G04 #@! TO.N,SWCLK*
X167219999Y-80859999D02*
X166370000Y-80010000D01*
X154530000Y-108360000D02*
X151515000Y-108360000D01*
X170180000Y-92710000D02*
X154530000Y-108360000D01*
X170180000Y-85090000D02*
X166370000Y-81280000D01*
X170180000Y-92710000D02*
X170180000Y-85090000D01*
G04 #@! TO.N,Net-(D1-Pad4)*
X144450000Y-78950000D02*
X144240000Y-78740000D01*
X147320000Y-78950000D02*
X144450000Y-78950000D01*
G04 #@! TO.N,Net-(D1-Pad2)*
X152435000Y-78950000D02*
X152645000Y-78740000D01*
X149860000Y-78950000D02*
X152435000Y-78950000D01*
G04 #@! TO.N,Net-(D2-Pad2)*
X166160000Y-110700000D02*
X166125000Y-110735000D01*
X166160000Y-107950000D02*
X166160000Y-110700000D01*
G04 #@! TO.N,Net-(D3-Pad2)*
X147110000Y-134620000D02*
X147320000Y-134410000D01*
X144535000Y-134620000D02*
X147110000Y-134620000D01*
G04 #@! TO.N,Net-(D4-Pad2)*
X131020000Y-103255000D02*
X130390000Y-102625000D01*
X131020000Y-105410000D02*
X131020000Y-103255000D01*
G04 #@! TO.N,USB5V*
X133680000Y-121920000D02*
X133910000Y-122150000D01*
X130810000Y-121920000D02*
X133680000Y-121920000D01*
X128879000Y-123851000D02*
X130810000Y-121920000D01*
X127495000Y-123851000D02*
X128879000Y-123851000D01*
G04 #@! TO.N,Net-(R10-Pad2)*
X154140000Y-102625000D02*
X154940000Y-102625000D01*
X151655000Y-102625000D02*
X154140000Y-102625000D01*
X151515000Y-102485000D02*
X151655000Y-102625000D01*
X151515000Y-102460000D02*
X151515000Y-102485000D01*
G04 #@! TO.N,Net-(C2-Pad1)*
X150865000Y-98055000D02*
X152400000Y-96520000D01*
X150865000Y-102240216D02*
X150865000Y-98055000D01*
X152400000Y-92465000D02*
X152400000Y-96520000D01*
G04 #@! TO.N,Net-(C3-Pad1)*
X150215000Y-99215000D02*
X147520000Y-96520000D01*
X150215000Y-102240216D02*
X150215000Y-99215000D01*
X147320000Y-96320000D02*
X147520000Y-96520000D01*
X147320000Y-92465000D02*
X147320000Y-96320000D01*
G04 #@! TO.N,ADC_IN0*
X152435000Y-73450000D02*
X152645000Y-73660000D01*
X149860000Y-73450000D02*
X152435000Y-73450000D01*
X148265000Y-100655000D02*
X148590000Y-100330000D01*
X148265000Y-102460000D02*
X148265000Y-100655000D01*
G04 #@! TO.N,Net-(D2-Pad4)*
X166370000Y-105200000D02*
X166160000Y-105410000D01*
X166370000Y-102600000D02*
X166370000Y-105200000D01*
G04 #@! TO.N,ADC_IN2*
X171660000Y-110280000D02*
X171205000Y-110735000D01*
X171660000Y-107950000D02*
X171660000Y-110280000D01*
X147320000Y-104140000D02*
X146965000Y-103785000D01*
X146965000Y-103785000D02*
X146965000Y-102460000D01*
G04 #@! TO.N,Net-(D3-Pad4)*
X152460000Y-134410000D02*
X152670000Y-134620000D01*
X149860000Y-134410000D02*
X152460000Y-134410000D01*
G04 #@! TO.N,ADC_IN4*
X147110000Y-139700000D02*
X147320000Y-139910000D01*
X144535000Y-139700000D02*
X147110000Y-139700000D01*
X144535000Y-137405000D02*
X144780000Y-137160000D01*
X144535000Y-139700000D02*
X144535000Y-137405000D01*
X145186000Y-102460000D02*
X145665000Y-102460000D01*
X143510000Y-104136000D02*
X145186000Y-102460000D01*
X143510000Y-106680000D02*
X143510000Y-104136000D01*
G04 #@! TO.N,Net-(D4-Pad4)*
X131020000Y-110820000D02*
X130810000Y-111030000D01*
X131020000Y-107950000D02*
X131020000Y-110820000D01*
G04 #@! TO.N,ADC_IN6*
X125730000Y-105200000D02*
X125520000Y-105410000D01*
X125520000Y-102835000D02*
X125730000Y-102625000D01*
X125520000Y-105410000D02*
X125520000Y-102835000D01*
X146315000Y-106945000D02*
X146315000Y-108360000D01*
X146050000Y-106680000D02*
X146315000Y-106945000D01*
G04 #@! TO.N,Net-(D5-Pad1)*
X143075000Y-115135000D02*
X144780000Y-116840000D01*
X143075000Y-113030000D02*
X143075000Y-115135000D01*
G04 #@! TO.N,Net-(D5-Pad2)*
X146050000Y-110904000D02*
X146050000Y-113030000D01*
X147615000Y-109339000D02*
X146050000Y-110904000D01*
X147615000Y-108360000D02*
X147615000Y-109339000D01*
G04 #@! TO.N,Net-(Q1-Pad1)*
X142240000Y-75710000D02*
X143510000Y-74440000D01*
X142240000Y-77790000D02*
X142240000Y-75710000D01*
G04 #@! TO.N,Net-(Q2-Pad1)*
X169670000Y-100600000D02*
X170670000Y-101600000D01*
X167320000Y-100600000D02*
X169670000Y-100600000D01*
G04 #@! TO.N,Net-(Q3-Pad1)*
X154670000Y-137675000D02*
X153670000Y-138675000D01*
X154670000Y-135570000D02*
X154670000Y-137675000D01*
G04 #@! TO.N,Net-(Q4-Pad1)*
X128270000Y-113030000D02*
X127000000Y-111760000D01*
X129860000Y-113030000D02*
X128270000Y-113030000D01*
G04 #@! TO.N,PA7*
X146965000Y-109339000D02*
X146965000Y-108360000D01*
X145814000Y-110490000D02*
X146965000Y-109339000D01*
X124950000Y-111760000D02*
X128760000Y-115570000D01*
X128760000Y-115570000D02*
X137160000Y-115570000D01*
X142240000Y-110490000D02*
X145814000Y-110490000D01*
X137160000Y-115570000D02*
X142240000Y-110490000D01*
G04 #@! TO.N,PA1*
X139700000Y-93566000D02*
X139700000Y-76200000D01*
X147615000Y-101481000D02*
X139700000Y-93566000D01*
X139700000Y-76200000D02*
X143510000Y-72390000D01*
X147615000Y-102460000D02*
X147615000Y-101481000D01*
G04 #@! TO.N,PA5*
X155185000Y-140725000D02*
X156210000Y-139700000D01*
X153670000Y-140725000D02*
X155185000Y-140725000D01*
X156210000Y-128270000D02*
X149860000Y-121920000D01*
X156210000Y-139700000D02*
X156210000Y-128270000D01*
X145255000Y-107950000D02*
X145665000Y-108360000D01*
X144780000Y-107950000D02*
X145255000Y-107950000D01*
G04 #@! TO.N,PA3*
X172720000Y-101600000D02*
X172720000Y-99060000D01*
X172720000Y-99060000D02*
X168910000Y-95250000D01*
X154940000Y-96520000D02*
X152400000Y-99060000D01*
X160020000Y-96520000D02*
X154940000Y-96520000D01*
X146315000Y-103189248D02*
X146315000Y-102460000D01*
X145823946Y-103680302D02*
X146315000Y-103189248D01*
G04 #@! TD*
G04 #@! TO.N,GND*
G36*
X174525001Y-142775000D02*
X122655000Y-142775000D01*
X122655000Y-139255431D01*
X123495000Y-139255431D01*
X123495000Y-140144569D01*
X123835259Y-140966026D01*
X124463974Y-141594741D01*
X125285431Y-141935000D01*
X126174569Y-141935000D01*
X126996026Y-141594741D01*
X127624741Y-140966026D01*
X127965000Y-140144569D01*
X127965000Y-139255431D01*
X127624741Y-138433974D01*
X126996026Y-137805259D01*
X126174569Y-137465000D01*
X125285431Y-137465000D01*
X124463974Y-137805259D01*
X123835259Y-138433974D01*
X123495000Y-139255431D01*
X122655000Y-139255431D01*
X122655000Y-134169999D01*
X141262560Y-134169999D01*
X141262560Y-135070001D01*
X141330873Y-135413436D01*
X141525414Y-135704586D01*
X141723000Y-135836610D01*
X141723001Y-136539040D01*
X141655977Y-136606064D01*
X141507100Y-136965484D01*
X141507100Y-137354516D01*
X141655977Y-137713936D01*
X141723000Y-137780959D01*
X141723001Y-138483390D01*
X141525414Y-138615414D01*
X141330873Y-138906564D01*
X141262560Y-139249999D01*
X141262560Y-140150001D01*
X141330873Y-140493436D01*
X141525414Y-140784586D01*
X141816564Y-140979127D01*
X142159999Y-141047440D01*
X142810001Y-141047440D01*
X143153436Y-140979127D01*
X143444586Y-140784586D01*
X143510000Y-140686687D01*
X143575414Y-140784586D01*
X143866564Y-140979127D01*
X144209999Y-141047440D01*
X144860001Y-141047440D01*
X145203436Y-140979127D01*
X145494586Y-140784586D01*
X145689127Y-140493436D01*
X145695380Y-140462000D01*
X146036544Y-140462000D01*
X146135680Y-140701337D01*
X146528663Y-141094320D01*
X147042119Y-141307000D01*
X147597881Y-141307000D01*
X148111337Y-141094320D01*
X148315444Y-140890213D01*
X149059392Y-140890213D01*
X149128857Y-141132397D01*
X149652302Y-141319144D01*
X150207368Y-141291362D01*
X150591143Y-141132397D01*
X150660608Y-140890213D01*
X149860000Y-140089605D01*
X149059392Y-140890213D01*
X148315444Y-140890213D01*
X148504320Y-140701337D01*
X148583428Y-140510353D01*
X148637603Y-140641143D01*
X148879787Y-140710608D01*
X149680395Y-139910000D01*
X150039605Y-139910000D01*
X150840213Y-140710608D01*
X151082397Y-140641143D01*
X151269144Y-140117698D01*
X151241362Y-139562632D01*
X151082397Y-139178857D01*
X150840213Y-139109392D01*
X150039605Y-139910000D01*
X149680395Y-139910000D01*
X148879787Y-139109392D01*
X148637603Y-139178857D01*
X148587465Y-139319393D01*
X148504320Y-139118663D01*
X148315444Y-138929787D01*
X149059392Y-138929787D01*
X149860000Y-139730395D01*
X150660608Y-138929787D01*
X150591143Y-138687603D01*
X150067698Y-138500856D01*
X149512632Y-138528638D01*
X149128857Y-138687603D01*
X149059392Y-138929787D01*
X148315444Y-138929787D01*
X148111337Y-138725680D01*
X147597881Y-138513000D01*
X147042119Y-138513000D01*
X146528663Y-138725680D01*
X146316343Y-138938000D01*
X145695380Y-138938000D01*
X145689127Y-138906564D01*
X145494586Y-138615414D01*
X145297000Y-138483391D01*
X145297000Y-138004322D01*
X145333936Y-137989023D01*
X145609023Y-137713936D01*
X145757900Y-137354516D01*
X145757900Y-136965484D01*
X145609023Y-136606064D01*
X145333936Y-136330977D01*
X144974516Y-136182100D01*
X144585484Y-136182100D01*
X144226064Y-136330977D01*
X143950977Y-136606064D01*
X143802100Y-136965484D01*
X143802100Y-137183661D01*
X143758073Y-137405000D01*
X143773001Y-137480048D01*
X143773001Y-138483390D01*
X143575414Y-138615414D01*
X143510000Y-138713313D01*
X143444586Y-138615414D01*
X143247000Y-138483391D01*
X143247000Y-137780959D01*
X143314023Y-137713936D01*
X143462900Y-137354516D01*
X143462900Y-136965484D01*
X143314023Y-136606064D01*
X143247000Y-136539041D01*
X143247000Y-135836609D01*
X143444586Y-135704586D01*
X143510000Y-135606687D01*
X143575414Y-135704586D01*
X143866564Y-135899127D01*
X144209999Y-135967440D01*
X144860001Y-135967440D01*
X145203436Y-135899127D01*
X145494586Y-135704586D01*
X145689127Y-135413436D01*
X145695380Y-135382000D01*
X146316343Y-135382000D01*
X146528663Y-135594320D01*
X147042119Y-135807000D01*
X147597881Y-135807000D01*
X148111337Y-135594320D01*
X148504320Y-135201337D01*
X148590000Y-134994487D01*
X148675680Y-135201337D01*
X149068663Y-135594320D01*
X149582119Y-135807000D01*
X150137881Y-135807000D01*
X150651337Y-135594320D01*
X151044320Y-135201337D01*
X151056472Y-135172000D01*
X151602794Y-135172000D01*
X151621843Y-135267765D01*
X151762191Y-135477809D01*
X151972235Y-135618157D01*
X152220000Y-135667440D01*
X153120000Y-135667440D01*
X153367765Y-135618157D01*
X153572560Y-135481316D01*
X153572560Y-135970000D01*
X153621843Y-136217765D01*
X153762191Y-136427809D01*
X153908000Y-136525237D01*
X153908001Y-137359368D01*
X153814809Y-137452560D01*
X153219999Y-137452560D01*
X152876564Y-137520873D01*
X152585414Y-137715414D01*
X152390873Y-138006564D01*
X152322560Y-138349999D01*
X152322560Y-139000001D01*
X152390873Y-139343436D01*
X152585414Y-139634586D01*
X152683313Y-139700000D01*
X152585414Y-139765414D01*
X152390873Y-140056564D01*
X152322560Y-140399999D01*
X152322560Y-141050001D01*
X152390873Y-141393436D01*
X152585414Y-141684586D01*
X152876564Y-141879127D01*
X153219999Y-141947440D01*
X154120001Y-141947440D01*
X154463436Y-141879127D01*
X154754586Y-141684586D01*
X154886609Y-141487000D01*
X155109957Y-141487000D01*
X155185000Y-141501927D01*
X155260043Y-141487000D01*
X155260048Y-141487000D01*
X155482317Y-141442788D01*
X155734371Y-141274371D01*
X155776883Y-141210747D01*
X156695750Y-140291881D01*
X156759371Y-140249371D01*
X156927788Y-139997317D01*
X156972000Y-139775048D01*
X156972000Y-139775043D01*
X156986927Y-139700000D01*
X156972000Y-139624957D01*
X156972000Y-139255431D01*
X169215000Y-139255431D01*
X169215000Y-140144569D01*
X169555259Y-140966026D01*
X170183974Y-141594741D01*
X171005431Y-141935000D01*
X171894569Y-141935000D01*
X172716026Y-141594741D01*
X173344741Y-140966026D01*
X173685000Y-140144569D01*
X173685000Y-139255431D01*
X173344741Y-138433974D01*
X172716026Y-137805259D01*
X171894569Y-137465000D01*
X171005431Y-137465000D01*
X170183974Y-137805259D01*
X169555259Y-138433974D01*
X169215000Y-139255431D01*
X156972000Y-139255431D01*
X156972000Y-128345042D01*
X156986927Y-128269999D01*
X156972000Y-128194956D01*
X156972000Y-128194952D01*
X156927788Y-127972683D01*
X156759371Y-127720629D01*
X156695749Y-127678118D01*
X150837900Y-121820270D01*
X150837900Y-121725484D01*
X150689023Y-121366064D01*
X150413936Y-121090977D01*
X150054516Y-120942100D01*
X149665484Y-120942100D01*
X149306064Y-121090977D01*
X149030977Y-121366064D01*
X148882100Y-121725484D01*
X148882100Y-122114516D01*
X149030977Y-122473936D01*
X149306064Y-122749023D01*
X149665484Y-122897900D01*
X149760270Y-122897900D01*
X155448001Y-128585632D01*
X155448001Y-132718543D01*
X155246309Y-132635000D01*
X154955750Y-132635000D01*
X154797000Y-132793750D01*
X154797000Y-133543000D01*
X154817000Y-133543000D01*
X154817000Y-133797000D01*
X154797000Y-133797000D01*
X154797000Y-133817000D01*
X154543000Y-133817000D01*
X154543000Y-133797000D01*
X153743750Y-133797000D01*
X153658219Y-133882531D01*
X153577809Y-133762191D01*
X153367765Y-133621843D01*
X153120000Y-133572560D01*
X152220000Y-133572560D01*
X151972235Y-133621843D01*
X151933089Y-133648000D01*
X151056472Y-133648000D01*
X151044320Y-133618663D01*
X150651337Y-133225680D01*
X150453396Y-133143690D01*
X153585000Y-133143690D01*
X153585000Y-133384250D01*
X153743750Y-133543000D01*
X154543000Y-133543000D01*
X154543000Y-132793750D01*
X154384250Y-132635000D01*
X154093691Y-132635000D01*
X153860302Y-132731673D01*
X153681673Y-132910301D01*
X153585000Y-133143690D01*
X150453396Y-133143690D01*
X150137881Y-133013000D01*
X149582119Y-133013000D01*
X149068663Y-133225680D01*
X148675680Y-133618663D01*
X148590000Y-133825513D01*
X148504320Y-133618663D01*
X148111337Y-133225680D01*
X147597881Y-133013000D01*
X147042119Y-133013000D01*
X146528663Y-133225680D01*
X146135680Y-133618663D01*
X146036544Y-133858000D01*
X145695380Y-133858000D01*
X145689127Y-133826564D01*
X145494586Y-133535414D01*
X145203436Y-133340873D01*
X144860001Y-133272560D01*
X144209999Y-133272560D01*
X143866564Y-133340873D01*
X143575414Y-133535414D01*
X143510000Y-133633313D01*
X143444586Y-133535414D01*
X143153436Y-133340873D01*
X142810001Y-133272560D01*
X142159999Y-133272560D01*
X141816564Y-133340873D01*
X141525414Y-133535414D01*
X141330873Y-133826564D01*
X141262560Y-134169999D01*
X122655000Y-134169999D01*
X122655000Y-127284025D01*
X122735302Y-127364327D01*
X122968691Y-127461000D01*
X123209039Y-127461000D01*
X123175144Y-127527971D01*
X123172090Y-127551600D01*
X123295776Y-127754000D01*
X124048750Y-127754000D01*
X124068750Y-127774000D01*
X124762000Y-127774000D01*
X124762000Y-128008000D01*
X124742000Y-128008000D01*
X124742000Y-128028000D01*
X124488000Y-128028000D01*
X124488000Y-128008000D01*
X123295776Y-128008000D01*
X123172090Y-128210400D01*
X123175144Y-128234029D01*
X123406524Y-128691196D01*
X123795241Y-129025018D01*
X124282117Y-129184673D01*
X124308570Y-129165387D01*
X124418690Y-129211000D01*
X125259250Y-129211000D01*
X125310000Y-129160250D01*
X125310000Y-129189809D01*
X125406673Y-129423198D01*
X125585301Y-129601827D01*
X125818690Y-129698500D01*
X126009250Y-129698500D01*
X126168000Y-129539750D01*
X126168000Y-129211000D01*
X126243955Y-129211000D01*
X126326673Y-129410698D01*
X126422000Y-129506026D01*
X126422000Y-129539750D01*
X126580750Y-129698500D01*
X126771310Y-129698500D01*
X126801488Y-129686000D01*
X127329250Y-129686000D01*
X127488000Y-129527250D01*
X127488000Y-127904000D01*
X127742000Y-127904000D01*
X127742000Y-129527250D01*
X127900750Y-129686000D01*
X128491310Y-129686000D01*
X128724699Y-129589327D01*
X128903327Y-129410698D01*
X129000000Y-129177309D01*
X129000000Y-128336750D01*
X128841250Y-128178000D01*
X128815043Y-128178000D01*
X128954006Y-127919526D01*
X128958803Y-127880744D01*
X128928562Y-127836688D01*
X129000000Y-127765250D01*
X129000000Y-126924691D01*
X128946976Y-126796681D01*
X128955000Y-126777310D01*
X128955000Y-126709750D01*
X128796250Y-126551000D01*
X128763026Y-126551000D01*
X128724699Y-126512673D01*
X128707721Y-126505641D01*
X128777809Y-126458809D01*
X128918157Y-126248765D01*
X128923042Y-126224208D01*
X128955000Y-126192250D01*
X128955000Y-126124690D01*
X128946783Y-126104852D01*
X128967440Y-126001000D01*
X128967440Y-125913000D01*
X143318707Y-125913000D01*
X143393750Y-125927927D01*
X143468793Y-125913000D01*
X143468798Y-125913000D01*
X143691067Y-125868788D01*
X143943121Y-125700371D01*
X143985633Y-125636747D01*
X153292160Y-116330221D01*
X153355781Y-116287711D01*
X153510773Y-116055749D01*
X153524197Y-116035659D01*
X153524197Y-116035658D01*
X153524198Y-116035657D01*
X153568410Y-115813388D01*
X153568410Y-115813384D01*
X153583337Y-115738341D01*
X153568410Y-115663298D01*
X153568410Y-112241452D01*
X153583337Y-112166409D01*
X153568410Y-112091366D01*
X153568410Y-112091362D01*
X153524198Y-111869093D01*
X153516290Y-111857257D01*
X153398292Y-111680661D01*
X153355781Y-111617039D01*
X153292159Y-111574528D01*
X151450070Y-109732440D01*
X151740000Y-109732440D01*
X151987765Y-109683157D01*
X152197809Y-109542809D01*
X152338157Y-109332765D01*
X152380080Y-109122000D01*
X154454957Y-109122000D01*
X154530000Y-109136927D01*
X154605043Y-109122000D01*
X154605048Y-109122000D01*
X154827317Y-109077788D01*
X155079371Y-108909371D01*
X155121884Y-108845746D01*
X163081880Y-100885750D01*
X164385000Y-100885750D01*
X164385000Y-101176309D01*
X164481673Y-101409698D01*
X164660301Y-101588327D01*
X164893690Y-101685000D01*
X165134250Y-101685000D01*
X165293000Y-101526250D01*
X165293000Y-100727000D01*
X164543750Y-100727000D01*
X164385000Y-100885750D01*
X163081880Y-100885750D01*
X163943939Y-100023691D01*
X164385000Y-100023691D01*
X164385000Y-100314250D01*
X164543750Y-100473000D01*
X165293000Y-100473000D01*
X165293000Y-99673750D01*
X165134250Y-99515000D01*
X164893690Y-99515000D01*
X164660301Y-99611673D01*
X164481673Y-99790302D01*
X164385000Y-100023691D01*
X163943939Y-100023691D01*
X168122336Y-95845295D01*
X168356064Y-96079023D01*
X168715484Y-96227900D01*
X168810270Y-96227900D01*
X171958001Y-99375632D01*
X171958000Y-100383390D01*
X171760414Y-100515414D01*
X171695000Y-100613313D01*
X171629586Y-100515414D01*
X171338436Y-100320873D01*
X170995001Y-100252560D01*
X170400190Y-100252560D01*
X170261883Y-100114253D01*
X170219371Y-100050629D01*
X169967317Y-99882212D01*
X169745048Y-99838000D01*
X169745043Y-99838000D01*
X169670000Y-99823073D01*
X169594957Y-99838000D01*
X168275236Y-99838000D01*
X168177809Y-99692191D01*
X167967765Y-99551843D01*
X167720000Y-99502560D01*
X166920000Y-99502560D01*
X166672235Y-99551843D01*
X166462191Y-99692191D01*
X166372987Y-99825694D01*
X166358327Y-99790302D01*
X166179699Y-99611673D01*
X165946310Y-99515000D01*
X165705750Y-99515000D01*
X165547000Y-99673750D01*
X165547000Y-100473000D01*
X165567000Y-100473000D01*
X165567000Y-100727000D01*
X165547000Y-100727000D01*
X165547000Y-101526250D01*
X165632531Y-101611781D01*
X165512191Y-101692191D01*
X165371843Y-101902235D01*
X165322560Y-102150000D01*
X165322560Y-103050000D01*
X165371843Y-103297765D01*
X165512191Y-103507809D01*
X165608000Y-103571827D01*
X165608001Y-104126543D01*
X165368663Y-104225680D01*
X164975680Y-104618663D01*
X164763000Y-105132119D01*
X164763000Y-105687881D01*
X164975680Y-106201337D01*
X165368663Y-106594320D01*
X165575513Y-106680000D01*
X165368663Y-106765680D01*
X164975680Y-107158663D01*
X164763000Y-107672119D01*
X164763000Y-108227881D01*
X164975680Y-108741337D01*
X165368663Y-109134320D01*
X165398000Y-109146472D01*
X165398001Y-109567658D01*
X165331564Y-109580873D01*
X165040414Y-109775414D01*
X164845873Y-110066564D01*
X164777560Y-110409999D01*
X164777560Y-111060001D01*
X164845873Y-111403436D01*
X165040414Y-111694586D01*
X165138313Y-111760000D01*
X165040414Y-111825414D01*
X164845873Y-112116564D01*
X164777560Y-112459999D01*
X164777560Y-113110001D01*
X164845873Y-113453436D01*
X165040414Y-113744586D01*
X165331564Y-113939127D01*
X165674999Y-114007440D01*
X166575001Y-114007440D01*
X166918436Y-113939127D01*
X167209586Y-113744586D01*
X167341609Y-113547000D01*
X168289041Y-113547000D01*
X168356064Y-113614023D01*
X168715484Y-113762900D01*
X169104516Y-113762900D01*
X169463936Y-113614023D01*
X169530959Y-113547000D01*
X169988391Y-113547000D01*
X170120414Y-113744586D01*
X170411564Y-113939127D01*
X170754999Y-114007440D01*
X171655001Y-114007440D01*
X171998436Y-113939127D01*
X172289586Y-113744586D01*
X172484127Y-113453436D01*
X172552440Y-113110001D01*
X172552440Y-112459999D01*
X172484127Y-112116564D01*
X172289586Y-111825414D01*
X172191687Y-111760000D01*
X172289586Y-111694586D01*
X172484127Y-111403436D01*
X172552440Y-111060001D01*
X172552440Y-110409999D01*
X172484127Y-110066564D01*
X172422000Y-109973585D01*
X172422000Y-109146472D01*
X172451337Y-109134320D01*
X172844320Y-108741337D01*
X173057000Y-108227881D01*
X173057000Y-107672119D01*
X172844320Y-107158663D01*
X172451337Y-106765680D01*
X172260353Y-106686572D01*
X172391143Y-106632397D01*
X172460608Y-106390213D01*
X171660000Y-105589605D01*
X170859392Y-106390213D01*
X170928857Y-106632397D01*
X171069393Y-106682535D01*
X170868663Y-106765680D01*
X170475680Y-107158663D01*
X170263000Y-107672119D01*
X170263000Y-108227881D01*
X170475680Y-108741337D01*
X170868663Y-109134320D01*
X170898001Y-109146472D01*
X170898001Y-109512560D01*
X170754999Y-109512560D01*
X170411564Y-109580873D01*
X170120414Y-109775414D01*
X169925873Y-110066564D01*
X169857560Y-110409999D01*
X169857560Y-111060001D01*
X169925873Y-111403436D01*
X170120414Y-111694586D01*
X170218313Y-111760000D01*
X170120414Y-111825414D01*
X169988391Y-112023000D01*
X169530959Y-112023000D01*
X169463936Y-111955977D01*
X169104516Y-111807100D01*
X168715484Y-111807100D01*
X168356064Y-111955977D01*
X168289041Y-112023000D01*
X167341609Y-112023000D01*
X167209586Y-111825414D01*
X167111687Y-111760000D01*
X167209586Y-111694586D01*
X167404127Y-111403436D01*
X167472440Y-111060001D01*
X167472440Y-110409999D01*
X167404127Y-110066564D01*
X167209586Y-109775414D01*
X166922000Y-109583254D01*
X166922000Y-109146472D01*
X166951337Y-109134320D01*
X167344320Y-108741337D01*
X167557000Y-108227881D01*
X167557000Y-107672119D01*
X167344320Y-107158663D01*
X166951337Y-106765680D01*
X166744487Y-106680000D01*
X166951337Y-106594320D01*
X167344320Y-106201337D01*
X167557000Y-105687881D01*
X167557000Y-105202302D01*
X170250856Y-105202302D01*
X170278638Y-105757368D01*
X170437603Y-106141143D01*
X170679787Y-106210608D01*
X171480395Y-105410000D01*
X171839605Y-105410000D01*
X172640213Y-106210608D01*
X172882397Y-106141143D01*
X173069144Y-105617698D01*
X173041362Y-105062632D01*
X172882397Y-104678857D01*
X172640213Y-104609392D01*
X171839605Y-105410000D01*
X171480395Y-105410000D01*
X170679787Y-104609392D01*
X170437603Y-104678857D01*
X170250856Y-105202302D01*
X167557000Y-105202302D01*
X167557000Y-105132119D01*
X167344320Y-104618663D01*
X167155444Y-104429787D01*
X170859392Y-104429787D01*
X171660000Y-105230395D01*
X172460608Y-104429787D01*
X172391143Y-104187603D01*
X171867698Y-104000856D01*
X171312632Y-104028638D01*
X170928857Y-104187603D01*
X170859392Y-104429787D01*
X167155444Y-104429787D01*
X167132000Y-104406343D01*
X167132000Y-103571827D01*
X167227809Y-103507809D01*
X167368157Y-103297765D01*
X167417440Y-103050000D01*
X167417440Y-102150000D01*
X167368157Y-101902235D01*
X167231316Y-101697440D01*
X167720000Y-101697440D01*
X167967765Y-101648157D01*
X168177809Y-101507809D01*
X168275236Y-101362000D01*
X169354370Y-101362000D01*
X169447560Y-101455190D01*
X169447560Y-102050001D01*
X169515873Y-102393436D01*
X169710414Y-102684586D01*
X170001564Y-102879127D01*
X170344999Y-102947440D01*
X170995001Y-102947440D01*
X171338436Y-102879127D01*
X171629586Y-102684586D01*
X171695000Y-102586687D01*
X171760414Y-102684586D01*
X172051564Y-102879127D01*
X172394999Y-102947440D01*
X173045001Y-102947440D01*
X173388436Y-102879127D01*
X173679586Y-102684586D01*
X173874127Y-102393436D01*
X173942440Y-102050001D01*
X173942440Y-101149999D01*
X173874127Y-100806564D01*
X173679586Y-100515414D01*
X173482000Y-100383391D01*
X173482000Y-99135047D01*
X173496928Y-99060000D01*
X173451561Y-98831927D01*
X173437788Y-98762683D01*
X173269371Y-98510629D01*
X173205749Y-98468118D01*
X169887900Y-95150270D01*
X169887900Y-95055484D01*
X169739023Y-94696064D01*
X169505295Y-94462336D01*
X170665750Y-93301881D01*
X170729371Y-93259371D01*
X170897788Y-93007317D01*
X170942000Y-92785048D01*
X170942000Y-92785044D01*
X170956927Y-92710001D01*
X170942000Y-92634958D01*
X170942000Y-85165047D01*
X170956928Y-85090000D01*
X170931300Y-84961161D01*
X170897788Y-84792683D01*
X170729371Y-84540629D01*
X170665749Y-84498118D01*
X167811679Y-81644048D01*
X167884092Y-81280000D01*
X167877604Y-81247384D01*
X167937786Y-81157316D01*
X167996926Y-80859998D01*
X167937786Y-80562681D01*
X167811881Y-80374250D01*
X167562492Y-80124862D01*
X167677809Y-80047809D01*
X167818157Y-79837765D01*
X167867440Y-79590000D01*
X167867440Y-77890000D01*
X167818157Y-77642235D01*
X167677809Y-77432191D01*
X167467765Y-77291843D01*
X167220000Y-77242560D01*
X165520000Y-77242560D01*
X165272235Y-77291843D01*
X165062191Y-77432191D01*
X164921843Y-77642235D01*
X164872560Y-77890000D01*
X164872560Y-79590000D01*
X164921843Y-79837765D01*
X165062191Y-80047809D01*
X165272235Y-80188157D01*
X165317619Y-80197184D01*
X165299375Y-80209375D01*
X164971161Y-80700582D01*
X164855908Y-81280000D01*
X164971161Y-81859418D01*
X165299375Y-82350625D01*
X165618478Y-82563843D01*
X165488642Y-82624817D01*
X165098355Y-83053076D01*
X164928524Y-83463110D01*
X165049845Y-83693000D01*
X166243000Y-83693000D01*
X166243000Y-83673000D01*
X166497000Y-83673000D01*
X166497000Y-83693000D01*
X166517000Y-83693000D01*
X166517000Y-83947000D01*
X166497000Y-83947000D01*
X166497000Y-83967000D01*
X166243000Y-83967000D01*
X166243000Y-83947000D01*
X165049845Y-83947000D01*
X164928524Y-84176890D01*
X165098355Y-84586924D01*
X165488642Y-85015183D01*
X165618478Y-85076157D01*
X165299375Y-85289375D01*
X164971161Y-85780582D01*
X164855908Y-86360000D01*
X164971161Y-86939418D01*
X165299375Y-87430625D01*
X165597761Y-87630000D01*
X165299375Y-87829375D01*
X164971161Y-88320582D01*
X164855908Y-88900000D01*
X164971161Y-89479418D01*
X165299375Y-89970625D01*
X165597761Y-90170000D01*
X165299375Y-90369375D01*
X164971161Y-90860582D01*
X164855908Y-91440000D01*
X164971161Y-92019418D01*
X165299375Y-92510625D01*
X165790582Y-92838839D01*
X166223744Y-92925000D01*
X166516256Y-92925000D01*
X166949418Y-92838839D01*
X167440625Y-92510625D01*
X167768839Y-92019418D01*
X167884092Y-91440000D01*
X167768839Y-90860582D01*
X167440625Y-90369375D01*
X167142239Y-90170000D01*
X167440625Y-89970625D01*
X167768839Y-89479418D01*
X167875511Y-88943141D01*
X168148001Y-89215632D01*
X168148000Y-92394370D01*
X154624370Y-105918000D01*
X151641047Y-105918000D01*
X151566000Y-105903072D01*
X151490953Y-105918000D01*
X151490952Y-105918000D01*
X151268683Y-105962212D01*
X151016629Y-106130629D01*
X150974118Y-106194251D01*
X150379253Y-106789117D01*
X150315629Y-106831629D01*
X150211440Y-106987560D01*
X149990000Y-106987560D01*
X149890000Y-107007451D01*
X149790000Y-106987560D01*
X149677000Y-106987560D01*
X149677000Y-105117900D01*
X150054516Y-105117900D01*
X150413936Y-104969023D01*
X150689023Y-104693936D01*
X150837900Y-104334516D01*
X150837900Y-103945484D01*
X150791076Y-103832440D01*
X151090000Y-103832440D01*
X151190000Y-103812549D01*
X151290000Y-103832440D01*
X151740000Y-103832440D01*
X151987765Y-103783157D01*
X152197809Y-103642809D01*
X152338157Y-103432765D01*
X152347260Y-103387000D01*
X153723391Y-103387000D01*
X153855414Y-103584586D01*
X154146564Y-103779127D01*
X154489999Y-103847440D01*
X155390001Y-103847440D01*
X155733436Y-103779127D01*
X156024586Y-103584586D01*
X156219127Y-103293436D01*
X156287440Y-102950001D01*
X156287440Y-102299999D01*
X156219127Y-101956564D01*
X156024586Y-101665414D01*
X156023403Y-101664623D01*
X156178327Y-101509698D01*
X156275000Y-101276309D01*
X156275000Y-100860750D01*
X156116250Y-100702000D01*
X155067000Y-100702000D01*
X155067000Y-100722000D01*
X154813000Y-100722000D01*
X154813000Y-100702000D01*
X153763750Y-100702000D01*
X153605000Y-100860750D01*
X153605000Y-101276309D01*
X153701673Y-101509698D01*
X153856597Y-101664623D01*
X153855414Y-101665414D01*
X153723391Y-101863000D01*
X152387440Y-101863000D01*
X152387440Y-101735000D01*
X152338157Y-101487235D01*
X152197809Y-101277191D01*
X151987765Y-101136843D01*
X151740000Y-101087560D01*
X151627000Y-101087560D01*
X151627000Y-99669959D01*
X151846064Y-99889023D01*
X152205484Y-100037900D01*
X152594516Y-100037900D01*
X152953936Y-99889023D01*
X152969268Y-99873691D01*
X153605000Y-99873691D01*
X153605000Y-100289250D01*
X153763750Y-100448000D01*
X154813000Y-100448000D01*
X154813000Y-99523750D01*
X155067000Y-99523750D01*
X155067000Y-100448000D01*
X156116250Y-100448000D01*
X156275000Y-100289250D01*
X156275000Y-99873691D01*
X156178327Y-99640302D01*
X155999699Y-99461673D01*
X155766310Y-99365000D01*
X155225750Y-99365000D01*
X155067000Y-99523750D01*
X154813000Y-99523750D01*
X154654250Y-99365000D01*
X154113690Y-99365000D01*
X153880301Y-99461673D01*
X153701673Y-99640302D01*
X153605000Y-99873691D01*
X152969268Y-99873691D01*
X153229023Y-99613936D01*
X153377900Y-99254516D01*
X153377900Y-99159730D01*
X155255630Y-97282000D01*
X159399041Y-97282000D01*
X159466064Y-97349023D01*
X159825484Y-97497900D01*
X160214516Y-97497900D01*
X160573936Y-97349023D01*
X160849023Y-97073936D01*
X160997900Y-96714516D01*
X160997900Y-96325484D01*
X160849023Y-95966064D01*
X160573936Y-95690977D01*
X160214516Y-95542100D01*
X159825484Y-95542100D01*
X159466064Y-95690977D01*
X159399041Y-95758000D01*
X155015042Y-95758000D01*
X154939999Y-95743073D01*
X154864956Y-95758000D01*
X154864952Y-95758000D01*
X154642683Y-95802212D01*
X154642682Y-95802213D01*
X154642681Y-95802213D01*
X154588641Y-95838322D01*
X154390629Y-95970629D01*
X154348116Y-96034254D01*
X153785000Y-96597370D01*
X153785000Y-96244506D01*
X153574147Y-95735460D01*
X153184540Y-95345853D01*
X153162000Y-95336517D01*
X153162000Y-93625380D01*
X153193436Y-93619127D01*
X153484586Y-93424586D01*
X153679127Y-93133436D01*
X153747440Y-92790001D01*
X153747440Y-92139999D01*
X153679127Y-91796564D01*
X153484586Y-91505414D01*
X153483403Y-91504623D01*
X153638327Y-91349698D01*
X153735000Y-91116309D01*
X153735000Y-90700750D01*
X153576250Y-90542000D01*
X152527000Y-90542000D01*
X152527000Y-90562000D01*
X152273000Y-90562000D01*
X152273000Y-90542000D01*
X151223750Y-90542000D01*
X151065000Y-90700750D01*
X151065000Y-91116309D01*
X151161673Y-91349698D01*
X151316597Y-91504623D01*
X151315414Y-91505414D01*
X151120873Y-91796564D01*
X151052560Y-92139999D01*
X151052560Y-92790001D01*
X151120873Y-93133436D01*
X151315414Y-93424586D01*
X151606564Y-93619127D01*
X151638000Y-93625380D01*
X151638001Y-95336516D01*
X151615460Y-95345853D01*
X151225853Y-95735460D01*
X151015000Y-96244506D01*
X151015000Y-96795494D01*
X151024336Y-96818033D01*
X150379251Y-97463119D01*
X150315630Y-97505629D01*
X150273119Y-97569251D01*
X150273118Y-97569252D01*
X150147213Y-97757683D01*
X150095466Y-98017835D01*
X148895664Y-96818034D01*
X148905000Y-96795494D01*
X148905000Y-96244506D01*
X148694147Y-95735460D01*
X148304540Y-95345853D01*
X148082000Y-95253674D01*
X148082000Y-93625380D01*
X148113436Y-93619127D01*
X148404586Y-93424586D01*
X148599127Y-93133436D01*
X148667440Y-92790001D01*
X148667440Y-92139999D01*
X148599127Y-91796564D01*
X148404586Y-91505414D01*
X148403403Y-91504623D01*
X148558327Y-91349698D01*
X148655000Y-91116309D01*
X148655000Y-90700750D01*
X148496250Y-90542000D01*
X147447000Y-90542000D01*
X147447000Y-90562000D01*
X147193000Y-90562000D01*
X147193000Y-90542000D01*
X146143750Y-90542000D01*
X145985000Y-90700750D01*
X145985000Y-91116309D01*
X146081673Y-91349698D01*
X146236597Y-91504623D01*
X146235414Y-91505414D01*
X146040873Y-91796564D01*
X145972560Y-92139999D01*
X145972560Y-92790001D01*
X146040873Y-93133436D01*
X146235414Y-93424586D01*
X146526564Y-93619127D01*
X146558000Y-93625380D01*
X146558001Y-95523312D01*
X146345853Y-95735460D01*
X146135000Y-96244506D01*
X146135000Y-96795494D01*
X146345853Y-97304540D01*
X146735460Y-97694147D01*
X147244506Y-97905000D01*
X147795494Y-97905000D01*
X147818034Y-97895664D01*
X149453001Y-99530632D01*
X149453001Y-99858093D01*
X149419023Y-99776064D01*
X149143936Y-99500977D01*
X148784516Y-99352100D01*
X148395484Y-99352100D01*
X148036064Y-99500977D01*
X147760977Y-99776064D01*
X147612100Y-100135484D01*
X147612100Y-100260572D01*
X147556065Y-100344434D01*
X140462000Y-93250370D01*
X140462000Y-89713691D01*
X145985000Y-89713691D01*
X145985000Y-90129250D01*
X146143750Y-90288000D01*
X147193000Y-90288000D01*
X147193000Y-89363750D01*
X147447000Y-89363750D01*
X147447000Y-90288000D01*
X148496250Y-90288000D01*
X148655000Y-90129250D01*
X148655000Y-89713691D01*
X151065000Y-89713691D01*
X151065000Y-90129250D01*
X151223750Y-90288000D01*
X152273000Y-90288000D01*
X152273000Y-89363750D01*
X152527000Y-89363750D01*
X152527000Y-90288000D01*
X153576250Y-90288000D01*
X153735000Y-90129250D01*
X153735000Y-89713691D01*
X153638327Y-89480302D01*
X153459699Y-89301673D01*
X153226310Y-89205000D01*
X152685750Y-89205000D01*
X152527000Y-89363750D01*
X152273000Y-89363750D01*
X152114250Y-89205000D01*
X151573690Y-89205000D01*
X151340301Y-89301673D01*
X151161673Y-89480302D01*
X151065000Y-89713691D01*
X148655000Y-89713691D01*
X148558327Y-89480302D01*
X148379699Y-89301673D01*
X148146310Y-89205000D01*
X147605750Y-89205000D01*
X147447000Y-89363750D01*
X147193000Y-89363750D01*
X147034250Y-89205000D01*
X146493690Y-89205000D01*
X146260301Y-89301673D01*
X146081673Y-89480302D01*
X145985000Y-89713691D01*
X140462000Y-89713691D01*
X140462000Y-79975750D01*
X141155000Y-79975750D01*
X141155000Y-80216310D01*
X141251673Y-80449699D01*
X141430302Y-80628327D01*
X141663691Y-80725000D01*
X141954250Y-80725000D01*
X142113000Y-80566250D01*
X142113000Y-79817000D01*
X142367000Y-79817000D01*
X142367000Y-80566250D01*
X142525750Y-80725000D01*
X142816309Y-80725000D01*
X143049698Y-80628327D01*
X143228327Y-80449699D01*
X143325000Y-80216310D01*
X143325000Y-79975750D01*
X143166250Y-79817000D01*
X142367000Y-79817000D01*
X142113000Y-79817000D01*
X141313750Y-79817000D01*
X141155000Y-79975750D01*
X140462000Y-79975750D01*
X140462000Y-76515630D01*
X141511602Y-75466028D01*
X141463073Y-75710000D01*
X141478001Y-75785048D01*
X141478000Y-76834763D01*
X141332191Y-76932191D01*
X141191843Y-77142235D01*
X141142560Y-77390000D01*
X141142560Y-78190000D01*
X141191843Y-78437765D01*
X141332191Y-78647809D01*
X141465694Y-78737013D01*
X141430302Y-78751673D01*
X141251673Y-78930301D01*
X141155000Y-79163690D01*
X141155000Y-79404250D01*
X141313750Y-79563000D01*
X142113000Y-79563000D01*
X142113000Y-79543000D01*
X142367000Y-79543000D01*
X142367000Y-79563000D01*
X143166250Y-79563000D01*
X143251781Y-79477469D01*
X143332191Y-79597809D01*
X143542235Y-79738157D01*
X143790000Y-79787440D01*
X144690000Y-79787440D01*
X144937765Y-79738157D01*
X144976911Y-79712000D01*
X146123528Y-79712000D01*
X146135680Y-79741337D01*
X146528663Y-80134320D01*
X147042119Y-80347000D01*
X147597881Y-80347000D01*
X148111337Y-80134320D01*
X148504320Y-79741337D01*
X148590000Y-79534487D01*
X148675680Y-79741337D01*
X149068663Y-80134320D01*
X149582119Y-80347000D01*
X150137881Y-80347000D01*
X150651337Y-80134320D01*
X151044320Y-79741337D01*
X151056472Y-79712000D01*
X151610186Y-79712000D01*
X151685414Y-79824586D01*
X151976564Y-80019127D01*
X152319999Y-80087440D01*
X152970001Y-80087440D01*
X153313436Y-80019127D01*
X153604586Y-79824586D01*
X153670000Y-79726687D01*
X153735414Y-79824586D01*
X154026564Y-80019127D01*
X154369999Y-80087440D01*
X155020001Y-80087440D01*
X155363436Y-80019127D01*
X155654586Y-79824586D01*
X155849127Y-79533436D01*
X155917440Y-79190001D01*
X155917440Y-78289999D01*
X155849127Y-77946564D01*
X155654586Y-77655414D01*
X155457000Y-77523391D01*
X155457000Y-76820959D01*
X155524023Y-76753936D01*
X155672900Y-76394516D01*
X155672900Y-76005484D01*
X155524023Y-75646064D01*
X155457000Y-75579041D01*
X155457000Y-74876609D01*
X155654586Y-74744586D01*
X155849127Y-74453436D01*
X155917440Y-74110001D01*
X155917440Y-73215431D01*
X169215000Y-73215431D01*
X169215000Y-74104569D01*
X169555259Y-74926026D01*
X170183974Y-75554741D01*
X171005431Y-75895000D01*
X171894569Y-75895000D01*
X172716026Y-75554741D01*
X173344741Y-74926026D01*
X173685000Y-74104569D01*
X173685000Y-73215431D01*
X173344741Y-72393974D01*
X172716026Y-71765259D01*
X171894569Y-71425000D01*
X171005431Y-71425000D01*
X170183974Y-71765259D01*
X169555259Y-72393974D01*
X169215000Y-73215431D01*
X155917440Y-73215431D01*
X155917440Y-73209999D01*
X155849127Y-72866564D01*
X155654586Y-72575414D01*
X155363436Y-72380873D01*
X155020001Y-72312560D01*
X154369999Y-72312560D01*
X154026564Y-72380873D01*
X153735414Y-72575414D01*
X153670000Y-72673313D01*
X153604586Y-72575414D01*
X153313436Y-72380873D01*
X152970001Y-72312560D01*
X152319999Y-72312560D01*
X151976564Y-72380873D01*
X151685414Y-72575414D01*
X151610186Y-72688000D01*
X151056472Y-72688000D01*
X151044320Y-72658663D01*
X150651337Y-72265680D01*
X150137881Y-72053000D01*
X149582119Y-72053000D01*
X149068663Y-72265680D01*
X148675680Y-72658663D01*
X148596572Y-72849647D01*
X148542397Y-72718857D01*
X148300213Y-72649392D01*
X147499605Y-73450000D01*
X148300213Y-74250608D01*
X148542397Y-74181143D01*
X148592535Y-74040607D01*
X148675680Y-74241337D01*
X149068663Y-74634320D01*
X149582119Y-74847000D01*
X150137881Y-74847000D01*
X150651337Y-74634320D01*
X151044320Y-74241337D01*
X151056472Y-74212000D01*
X151442849Y-74212000D01*
X151490873Y-74453436D01*
X151685414Y-74744586D01*
X151976564Y-74939127D01*
X152319999Y-75007440D01*
X152970001Y-75007440D01*
X153313436Y-74939127D01*
X153604586Y-74744586D01*
X153670000Y-74646687D01*
X153735414Y-74744586D01*
X153933000Y-74876610D01*
X153933001Y-75579040D01*
X153865977Y-75646064D01*
X153717100Y-76005484D01*
X153717100Y-76394516D01*
X153865977Y-76753936D01*
X153933000Y-76820959D01*
X153933001Y-77523390D01*
X153735414Y-77655414D01*
X153670000Y-77753313D01*
X153604586Y-77655414D01*
X153313436Y-77460873D01*
X152970001Y-77392560D01*
X152319999Y-77392560D01*
X151976564Y-77460873D01*
X151685414Y-77655414D01*
X151490873Y-77946564D01*
X151442849Y-78188000D01*
X151056472Y-78188000D01*
X151044320Y-78158663D01*
X150651337Y-77765680D01*
X150137881Y-77553000D01*
X149582119Y-77553000D01*
X149068663Y-77765680D01*
X148675680Y-78158663D01*
X148590000Y-78365513D01*
X148504320Y-78158663D01*
X148111337Y-77765680D01*
X147597881Y-77553000D01*
X147042119Y-77553000D01*
X146528663Y-77765680D01*
X146135680Y-78158663D01*
X146123528Y-78188000D01*
X145307206Y-78188000D01*
X145288157Y-78092235D01*
X145147809Y-77882191D01*
X144937765Y-77741843D01*
X144690000Y-77692560D01*
X143790000Y-77692560D01*
X143542235Y-77741843D01*
X143337440Y-77878684D01*
X143337440Y-77390000D01*
X143288157Y-77142235D01*
X143147809Y-76932191D01*
X143002000Y-76834764D01*
X143002000Y-76025630D01*
X143365190Y-75662440D01*
X143960001Y-75662440D01*
X144303436Y-75594127D01*
X144594586Y-75399586D01*
X144789127Y-75108436D01*
X144857440Y-74765001D01*
X144857440Y-74430213D01*
X146519392Y-74430213D01*
X146588857Y-74672397D01*
X147112302Y-74859144D01*
X147667368Y-74831362D01*
X148051143Y-74672397D01*
X148120608Y-74430213D01*
X147320000Y-73629605D01*
X146519392Y-74430213D01*
X144857440Y-74430213D01*
X144857440Y-74114999D01*
X144789127Y-73771564D01*
X144594586Y-73480414D01*
X144496687Y-73415000D01*
X144594586Y-73349586D01*
X144666271Y-73242302D01*
X145910856Y-73242302D01*
X145938638Y-73797368D01*
X146097603Y-74181143D01*
X146339787Y-74250608D01*
X147140395Y-73450000D01*
X146339787Y-72649392D01*
X146097603Y-72718857D01*
X145910856Y-73242302D01*
X144666271Y-73242302D01*
X144789127Y-73058436D01*
X144857440Y-72715001D01*
X144857440Y-72469787D01*
X146519392Y-72469787D01*
X147320000Y-73270395D01*
X148120608Y-72469787D01*
X148051143Y-72227603D01*
X147527698Y-72040856D01*
X146972632Y-72068638D01*
X146588857Y-72227603D01*
X146519392Y-72469787D01*
X144857440Y-72469787D01*
X144857440Y-72064999D01*
X144789127Y-71721564D01*
X144594586Y-71430414D01*
X144303436Y-71235873D01*
X143960001Y-71167560D01*
X143059999Y-71167560D01*
X142716564Y-71235873D01*
X142425414Y-71430414D01*
X142230873Y-71721564D01*
X142162560Y-72064999D01*
X142162560Y-72659809D01*
X139214251Y-75608119D01*
X139150630Y-75650629D01*
X139108119Y-75714251D01*
X139108118Y-75714252D01*
X138982213Y-75902683D01*
X138923073Y-76200000D01*
X138938001Y-76275048D01*
X138938000Y-93490957D01*
X138923073Y-93566000D01*
X138938000Y-93641043D01*
X138938000Y-93641047D01*
X138982212Y-93863316D01*
X139150629Y-94115371D01*
X139214253Y-94157883D01*
X146143929Y-101087560D01*
X146090000Y-101087560D01*
X145990000Y-101107451D01*
X145890000Y-101087560D01*
X145440000Y-101087560D01*
X145192235Y-101136843D01*
X144982191Y-101277191D01*
X144841843Y-101487235D01*
X144792560Y-101735000D01*
X144792560Y-101806439D01*
X144636629Y-101910629D01*
X144594118Y-101974251D01*
X143024251Y-103544119D01*
X142960630Y-103586629D01*
X142918119Y-103650251D01*
X142918118Y-103650252D01*
X142792213Y-103838683D01*
X142733073Y-104136000D01*
X142748001Y-104211048D01*
X142748000Y-106059041D01*
X142680977Y-106126064D01*
X142532100Y-106485484D01*
X142532100Y-106874516D01*
X142680977Y-107233936D01*
X142956064Y-107509023D01*
X143315484Y-107657900D01*
X143704516Y-107657900D01*
X143871103Y-107588897D01*
X143802100Y-107755484D01*
X143802100Y-108144516D01*
X143950977Y-108503936D01*
X144226064Y-108779023D01*
X144585484Y-108927900D01*
X144792560Y-108927900D01*
X144792560Y-109085000D01*
X144841843Y-109332765D01*
X144982191Y-109542809D01*
X145192235Y-109683157D01*
X145417678Y-109728000D01*
X142315043Y-109728000D01*
X142240000Y-109713073D01*
X142164957Y-109728000D01*
X142164952Y-109728000D01*
X141942683Y-109772212D01*
X141905485Y-109797067D01*
X141768839Y-109888371D01*
X141690629Y-109940629D01*
X141648118Y-110004251D01*
X136844370Y-114808000D01*
X129075631Y-114808000D01*
X128026030Y-113758399D01*
X128194952Y-113792000D01*
X128194956Y-113792000D01*
X128269999Y-113806927D01*
X128345042Y-113792000D01*
X128904764Y-113792000D01*
X129002191Y-113937809D01*
X129212235Y-114078157D01*
X129460000Y-114127440D01*
X130260000Y-114127440D01*
X130507765Y-114078157D01*
X130717809Y-113937809D01*
X130807013Y-113804306D01*
X130821673Y-113839698D01*
X131000301Y-114018327D01*
X131233690Y-114115000D01*
X131474250Y-114115000D01*
X131633000Y-113956250D01*
X131633000Y-113157000D01*
X131887000Y-113157000D01*
X131887000Y-113956250D01*
X132045750Y-114115000D01*
X132286310Y-114115000D01*
X132519699Y-114018327D01*
X132698327Y-113839698D01*
X132795000Y-113606309D01*
X132795000Y-113315750D01*
X132636250Y-113157000D01*
X131887000Y-113157000D01*
X131633000Y-113157000D01*
X131613000Y-113157000D01*
X131613000Y-112903000D01*
X131633000Y-112903000D01*
X131633000Y-112103750D01*
X131887000Y-112103750D01*
X131887000Y-112903000D01*
X132636250Y-112903000D01*
X132795000Y-112744250D01*
X132795000Y-112453691D01*
X132698327Y-112220302D01*
X132519699Y-112041673D01*
X132286310Y-111945000D01*
X132045750Y-111945000D01*
X131887000Y-112103750D01*
X131633000Y-112103750D01*
X131547469Y-112018219D01*
X131667809Y-111937809D01*
X131808157Y-111727765D01*
X131857440Y-111480000D01*
X131857440Y-110580000D01*
X131808157Y-110332235D01*
X131782000Y-110293089D01*
X131782000Y-109146472D01*
X131811337Y-109134320D01*
X132204320Y-108741337D01*
X132417000Y-108227881D01*
X132417000Y-107672119D01*
X132204320Y-107158663D01*
X131811337Y-106765680D01*
X131604487Y-106680000D01*
X131811337Y-106594320D01*
X132204320Y-106201337D01*
X132417000Y-105687881D01*
X132417000Y-105132119D01*
X132204320Y-104618663D01*
X131811337Y-104225680D01*
X131782000Y-104213528D01*
X131782000Y-103330047D01*
X131796928Y-103255000D01*
X131782000Y-103179952D01*
X131737788Y-102957683D01*
X131736342Y-102955519D01*
X131737440Y-102950001D01*
X131737440Y-102299999D01*
X131669127Y-101956564D01*
X131474586Y-101665414D01*
X131376687Y-101600000D01*
X131474586Y-101534586D01*
X131669127Y-101243436D01*
X131737440Y-100900001D01*
X131737440Y-100249999D01*
X131669127Y-99906564D01*
X131474586Y-99615414D01*
X131183436Y-99420873D01*
X130840001Y-99352560D01*
X129939999Y-99352560D01*
X129596564Y-99420873D01*
X129305414Y-99615414D01*
X129173391Y-99813000D01*
X128890959Y-99813000D01*
X128823936Y-99745977D01*
X128464516Y-99597100D01*
X128075484Y-99597100D01*
X127716064Y-99745977D01*
X127649041Y-99813000D01*
X126946609Y-99813000D01*
X126814586Y-99615414D01*
X126523436Y-99420873D01*
X126180001Y-99352560D01*
X125279999Y-99352560D01*
X124936564Y-99420873D01*
X124645414Y-99615414D01*
X124450873Y-99906564D01*
X124382560Y-100249999D01*
X124382560Y-100900001D01*
X124450873Y-101243436D01*
X124645414Y-101534586D01*
X124743313Y-101600000D01*
X124645414Y-101665414D01*
X124450873Y-101956564D01*
X124382560Y-102299999D01*
X124382560Y-102950001D01*
X124450873Y-103293436D01*
X124645414Y-103584586D01*
X124758001Y-103659814D01*
X124758000Y-104213528D01*
X124728663Y-104225680D01*
X124335680Y-104618663D01*
X124123000Y-105132119D01*
X124123000Y-105687881D01*
X124335680Y-106201337D01*
X124728663Y-106594320D01*
X124919647Y-106673428D01*
X124788857Y-106727603D01*
X124719392Y-106969787D01*
X125520000Y-107770395D01*
X126320608Y-106969787D01*
X126251143Y-106727603D01*
X126110607Y-106677465D01*
X126311337Y-106594320D01*
X126704320Y-106201337D01*
X126917000Y-105687881D01*
X126917000Y-105132119D01*
X126704320Y-104618663D01*
X126311337Y-104225680D01*
X126282000Y-104213528D01*
X126282000Y-103827151D01*
X126523436Y-103779127D01*
X126814586Y-103584586D01*
X127009127Y-103293436D01*
X127077440Y-102950001D01*
X127077440Y-102299999D01*
X127009127Y-101956564D01*
X126814586Y-101665414D01*
X126716687Y-101600000D01*
X126814586Y-101534586D01*
X126946609Y-101337000D01*
X127649041Y-101337000D01*
X127716064Y-101404023D01*
X128075484Y-101552900D01*
X128464516Y-101552900D01*
X128823936Y-101404023D01*
X128890959Y-101337000D01*
X129173391Y-101337000D01*
X129305414Y-101534586D01*
X129403313Y-101600000D01*
X129305414Y-101665414D01*
X129110873Y-101956564D01*
X129042560Y-102299999D01*
X129042560Y-102950001D01*
X129110873Y-103293436D01*
X129305414Y-103584586D01*
X129596564Y-103779127D01*
X129939999Y-103847440D01*
X130258001Y-103847440D01*
X130258001Y-104213528D01*
X130228663Y-104225680D01*
X129835680Y-104618663D01*
X129623000Y-105132119D01*
X129623000Y-105687881D01*
X129835680Y-106201337D01*
X130228663Y-106594320D01*
X130435513Y-106680000D01*
X130228663Y-106765680D01*
X129835680Y-107158663D01*
X129623000Y-107672119D01*
X129623000Y-108227881D01*
X129835680Y-108741337D01*
X130228663Y-109134320D01*
X130258000Y-109146472D01*
X130258001Y-109962794D01*
X130162235Y-109981843D01*
X129952191Y-110122191D01*
X129811843Y-110332235D01*
X129762560Y-110580000D01*
X129762560Y-111480000D01*
X129811843Y-111727765D01*
X129948684Y-111932560D01*
X129460000Y-111932560D01*
X129212235Y-111981843D01*
X129002191Y-112122191D01*
X128904764Y-112268000D01*
X128585631Y-112268000D01*
X128222440Y-111904809D01*
X128222440Y-111309999D01*
X128154127Y-110966564D01*
X127959586Y-110675414D01*
X127668436Y-110480873D01*
X127325001Y-110412560D01*
X126674999Y-110412560D01*
X126331564Y-110480873D01*
X126040414Y-110675414D01*
X125975000Y-110773313D01*
X125909586Y-110675414D01*
X125618436Y-110480873D01*
X125275001Y-110412560D01*
X124624999Y-110412560D01*
X124281564Y-110480873D01*
X123990414Y-110675414D01*
X123795873Y-110966564D01*
X123727560Y-111309999D01*
X123727560Y-112210001D01*
X123795873Y-112553436D01*
X123990414Y-112844586D01*
X124281564Y-113039127D01*
X124624999Y-113107440D01*
X125219810Y-113107440D01*
X128168118Y-116055749D01*
X128210629Y-116119371D01*
X128462683Y-116287788D01*
X128684952Y-116332000D01*
X128684953Y-116332000D01*
X128760000Y-116346928D01*
X128835047Y-116332000D01*
X137084957Y-116332000D01*
X137160000Y-116346927D01*
X137235043Y-116332000D01*
X137235048Y-116332000D01*
X137457317Y-116287788D01*
X137709371Y-116119371D01*
X137751883Y-116055747D01*
X141858499Y-111949131D01*
X141783374Y-112061565D01*
X141715060Y-112405000D01*
X141715060Y-113655000D01*
X141783374Y-113998435D01*
X141977914Y-114289586D01*
X142269065Y-114484126D01*
X142313001Y-114492865D01*
X142313001Y-115059952D01*
X142298073Y-115135000D01*
X142357213Y-115432317D01*
X142449210Y-115570000D01*
X142525630Y-115684371D01*
X142589251Y-115726881D01*
X143557560Y-116695191D01*
X143557560Y-117290001D01*
X143625873Y-117633436D01*
X143820414Y-117924586D01*
X144111564Y-118119127D01*
X144454999Y-118187440D01*
X145105001Y-118187440D01*
X145448436Y-118119127D01*
X145739586Y-117924586D01*
X145740377Y-117923403D01*
X145895302Y-118078327D01*
X146128691Y-118175000D01*
X146544250Y-118175000D01*
X146703000Y-118016250D01*
X146703000Y-116967000D01*
X146957000Y-116967000D01*
X146957000Y-118016250D01*
X147115750Y-118175000D01*
X147531309Y-118175000D01*
X147764698Y-118078327D01*
X147943327Y-117899699D01*
X148040000Y-117666310D01*
X148040000Y-117125750D01*
X147881250Y-116967000D01*
X146957000Y-116967000D01*
X146703000Y-116967000D01*
X146683000Y-116967000D01*
X146683000Y-116713000D01*
X146703000Y-116713000D01*
X146703000Y-115663750D01*
X146957000Y-115663750D01*
X146957000Y-116713000D01*
X147881250Y-116713000D01*
X148040000Y-116554250D01*
X148040000Y-116013690D01*
X147943327Y-115780301D01*
X147764698Y-115601673D01*
X147531309Y-115505000D01*
X147115750Y-115505000D01*
X146957000Y-115663750D01*
X146703000Y-115663750D01*
X146544250Y-115505000D01*
X146128691Y-115505000D01*
X145895302Y-115601673D01*
X145740377Y-115756597D01*
X145739586Y-115755414D01*
X145448436Y-115560873D01*
X145105001Y-115492560D01*
X144510191Y-115492560D01*
X143837000Y-114819370D01*
X143837000Y-114492865D01*
X143880935Y-114484126D01*
X144172086Y-114289586D01*
X144366626Y-113998435D01*
X144434940Y-113655000D01*
X144434940Y-112405000D01*
X144366626Y-112061565D01*
X144172086Y-111770414D01*
X143880935Y-111575874D01*
X143537500Y-111507560D01*
X142612500Y-111507560D01*
X142269065Y-111575874D01*
X142156632Y-111650999D01*
X142555631Y-111252000D01*
X145288000Y-111252000D01*
X145288000Y-111567135D01*
X145244065Y-111575874D01*
X144952914Y-111770414D01*
X144758374Y-112061565D01*
X144690060Y-112405000D01*
X144690060Y-113655000D01*
X144758374Y-113998435D01*
X144952914Y-114289586D01*
X145244065Y-114484126D01*
X145587500Y-114552440D01*
X146512500Y-114552440D01*
X146855935Y-114484126D01*
X147147086Y-114289586D01*
X147341626Y-113998435D01*
X147380000Y-113805517D01*
X147380000Y-113856310D01*
X147476673Y-114089699D01*
X147655302Y-114268327D01*
X147888691Y-114365000D01*
X148304250Y-114365000D01*
X148463000Y-114206250D01*
X148463000Y-113157000D01*
X148443000Y-113157000D01*
X148443000Y-112903000D01*
X148463000Y-112903000D01*
X148463000Y-112883000D01*
X148717000Y-112883000D01*
X148717000Y-112903000D01*
X148737000Y-112903000D01*
X148737000Y-113157000D01*
X148717000Y-113157000D01*
X148717000Y-114206250D01*
X148875750Y-114365000D01*
X149291309Y-114365000D01*
X149524698Y-114268327D01*
X149679623Y-114113403D01*
X149680414Y-114114586D01*
X149971564Y-114309127D01*
X150070163Y-114328739D01*
X150090630Y-114359371D01*
X150152100Y-114400444D01*
X150152100Y-114494516D01*
X150300977Y-114853936D01*
X150576064Y-115129023D01*
X150935484Y-115277900D01*
X151324516Y-115277900D01*
X151638000Y-115148050D01*
X151638000Y-115254369D01*
X143153370Y-123739000D01*
X130068630Y-123739000D01*
X130665191Y-123142440D01*
X131260001Y-123142440D01*
X131603436Y-123074127D01*
X131894586Y-122879586D01*
X132020688Y-122690862D01*
X132061843Y-122897765D01*
X132202191Y-123107809D01*
X132412235Y-123248157D01*
X132660000Y-123297440D01*
X135160000Y-123297440D01*
X135407765Y-123248157D01*
X135617809Y-123107809D01*
X135758157Y-122897765D01*
X135807440Y-122650000D01*
X135807440Y-122284996D01*
X135870000Y-122297440D01*
X139870000Y-122297440D01*
X140117765Y-122248157D01*
X140327809Y-122107809D01*
X140468157Y-121897765D01*
X140500591Y-121734705D01*
X140791564Y-121929127D01*
X141134999Y-121997440D01*
X141785001Y-121997440D01*
X142128436Y-121929127D01*
X142419586Y-121734586D01*
X142420377Y-121733403D01*
X142575302Y-121888327D01*
X142808691Y-121985000D01*
X143224250Y-121985000D01*
X143383000Y-121826250D01*
X143383000Y-120777000D01*
X143637000Y-120777000D01*
X143637000Y-121826250D01*
X143795750Y-121985000D01*
X144211309Y-121985000D01*
X144444698Y-121888327D01*
X144623327Y-121709699D01*
X144720000Y-121476310D01*
X144720000Y-120935750D01*
X144561250Y-120777000D01*
X143637000Y-120777000D01*
X143383000Y-120777000D01*
X143363000Y-120777000D01*
X143363000Y-120523000D01*
X143383000Y-120523000D01*
X143383000Y-119473750D01*
X143637000Y-119473750D01*
X143637000Y-120523000D01*
X144561250Y-120523000D01*
X144720000Y-120364250D01*
X144720000Y-119823690D01*
X144623327Y-119590301D01*
X144444698Y-119411673D01*
X144211309Y-119315000D01*
X143795750Y-119315000D01*
X143637000Y-119473750D01*
X143383000Y-119473750D01*
X143224250Y-119315000D01*
X142808691Y-119315000D01*
X142575302Y-119411673D01*
X142420377Y-119566597D01*
X142419586Y-119565414D01*
X142222000Y-119433391D01*
X142222000Y-119205630D01*
X142339730Y-119087900D01*
X142434516Y-119087900D01*
X142793936Y-118939023D01*
X143069023Y-118663936D01*
X143217900Y-118304516D01*
X143217900Y-117915484D01*
X143069023Y-117556064D01*
X142793936Y-117280977D01*
X142434516Y-117132100D01*
X142045484Y-117132100D01*
X141686064Y-117280977D01*
X141410977Y-117556064D01*
X141262100Y-117915484D01*
X141262100Y-118010270D01*
X140974251Y-118298119D01*
X140910630Y-118340629D01*
X140868119Y-118404251D01*
X140868118Y-118404252D01*
X140742213Y-118592683D01*
X140683073Y-118890000D01*
X140698001Y-118965048D01*
X140698001Y-119433390D01*
X140500591Y-119565295D01*
X140468157Y-119402235D01*
X140327809Y-119192191D01*
X140117765Y-119051843D01*
X139870000Y-119002560D01*
X135870000Y-119002560D01*
X135807915Y-119014909D01*
X135769355Y-119014869D01*
X135749671Y-119022998D01*
X135636252Y-119022998D01*
X135795000Y-118864250D01*
X135795000Y-118523691D01*
X135698327Y-118290302D01*
X135519699Y-118111673D01*
X135286310Y-118015000D01*
X134195750Y-118015000D01*
X134037000Y-118173750D01*
X134037000Y-119023000D01*
X134057000Y-119023000D01*
X134057000Y-119277000D01*
X134037000Y-119277000D01*
X134037000Y-119297000D01*
X133783000Y-119297000D01*
X133783000Y-119277000D01*
X133763000Y-119277000D01*
X133763000Y-119023000D01*
X133783000Y-119023000D01*
X133783000Y-118173750D01*
X133624250Y-118015000D01*
X132533690Y-118015000D01*
X132300301Y-118111673D01*
X132121673Y-118290302D01*
X132025000Y-118523691D01*
X132025000Y-118864250D01*
X132183748Y-119022998D01*
X132084652Y-119022998D01*
X132048327Y-118935302D01*
X131869699Y-118756673D01*
X131636310Y-118660000D01*
X131095750Y-118660000D01*
X130937000Y-118818750D01*
X130937000Y-119743000D01*
X130957000Y-119743000D01*
X130957000Y-119997000D01*
X130937000Y-119997000D01*
X130937000Y-120017000D01*
X130683000Y-120017000D01*
X130683000Y-119997000D01*
X129633750Y-119997000D01*
X129475000Y-120155750D01*
X129475000Y-120571309D01*
X129571673Y-120804698D01*
X129726597Y-120959623D01*
X129725414Y-120960414D01*
X129530873Y-121251564D01*
X129462560Y-121594999D01*
X129462560Y-122189809D01*
X129000000Y-122652370D01*
X129000000Y-122603998D01*
X128980000Y-122603998D01*
X128980000Y-122586750D01*
X128900069Y-122506819D01*
X128958803Y-122421256D01*
X128954006Y-122382474D01*
X128834696Y-122160554D01*
X128980000Y-122015250D01*
X128980000Y-121174691D01*
X128883327Y-120941302D01*
X128704699Y-120762673D01*
X128471310Y-120666000D01*
X127880750Y-120666000D01*
X127722000Y-120824750D01*
X127722000Y-122174000D01*
X127742000Y-122174000D01*
X127742000Y-122428000D01*
X127722000Y-122428000D01*
X127722000Y-122448000D01*
X127488000Y-122448000D01*
X127488000Y-121700852D01*
X127468000Y-121684207D01*
X127468000Y-120824750D01*
X127309250Y-120666000D01*
X126801488Y-120666000D01*
X126771310Y-120653500D01*
X126580750Y-120653500D01*
X126422000Y-120812250D01*
X126422000Y-120825974D01*
X126306673Y-120941302D01*
X126236382Y-121111000D01*
X126168000Y-121111000D01*
X126168000Y-120812250D01*
X126009250Y-120653500D01*
X125818690Y-120653500D01*
X125585301Y-120750173D01*
X125406673Y-120928802D01*
X125310129Y-121161879D01*
X125259250Y-121111000D01*
X124418690Y-121111000D01*
X124326064Y-121149367D01*
X124282117Y-121117327D01*
X123795241Y-121276982D01*
X123406524Y-121610804D01*
X123175144Y-122067971D01*
X123172090Y-122091600D01*
X123295776Y-122294000D01*
X124762000Y-122294000D01*
X124762000Y-122548000D01*
X123295776Y-122548000D01*
X123172090Y-122750400D01*
X123175144Y-122774029D01*
X123209039Y-122841000D01*
X122968691Y-122841000D01*
X122735302Y-122937673D01*
X122655000Y-123017975D01*
X122655000Y-119168691D01*
X129475000Y-119168691D01*
X129475000Y-119584250D01*
X129633750Y-119743000D01*
X130683000Y-119743000D01*
X130683000Y-118818750D01*
X130524250Y-118660000D01*
X129983690Y-118660000D01*
X129750301Y-118756673D01*
X129571673Y-118935302D01*
X129475000Y-119168691D01*
X122655000Y-119168691D01*
X122655000Y-108930213D01*
X124719392Y-108930213D01*
X124788857Y-109172397D01*
X125312302Y-109359144D01*
X125867368Y-109331362D01*
X126251143Y-109172397D01*
X126320608Y-108930213D01*
X125520000Y-108129605D01*
X124719392Y-108930213D01*
X122655000Y-108930213D01*
X122655000Y-107742302D01*
X124110856Y-107742302D01*
X124138638Y-108297368D01*
X124297603Y-108681143D01*
X124539787Y-108750608D01*
X125340395Y-107950000D01*
X125699605Y-107950000D01*
X126500213Y-108750608D01*
X126742397Y-108681143D01*
X126929144Y-108157698D01*
X126901362Y-107602632D01*
X126742397Y-107218857D01*
X126500213Y-107149392D01*
X125699605Y-107950000D01*
X125340395Y-107950000D01*
X124539787Y-107149392D01*
X124297603Y-107218857D01*
X124110856Y-107742302D01*
X122655000Y-107742302D01*
X122655000Y-73215431D01*
X123495000Y-73215431D01*
X123495000Y-74104569D01*
X123835259Y-74926026D01*
X124463974Y-75554741D01*
X125285431Y-75895000D01*
X126174569Y-75895000D01*
X126996026Y-75554741D01*
X127624741Y-74926026D01*
X127965000Y-74104569D01*
X127965000Y-73215431D01*
X127624741Y-72393974D01*
X126996026Y-71765259D01*
X126174569Y-71425000D01*
X125285431Y-71425000D01*
X124463974Y-71765259D01*
X123835259Y-72393974D01*
X123495000Y-73215431D01*
X122655000Y-73215431D01*
X122655000Y-70585000D01*
X174525000Y-70585000D01*
X174525001Y-142775000D01*
X174525001Y-142775000D01*
G37*
X174525001Y-142775000D02*
X122655000Y-142775000D01*
X122655000Y-139255431D01*
X123495000Y-139255431D01*
X123495000Y-140144569D01*
X123835259Y-140966026D01*
X124463974Y-141594741D01*
X125285431Y-141935000D01*
X126174569Y-141935000D01*
X126996026Y-141594741D01*
X127624741Y-140966026D01*
X127965000Y-140144569D01*
X127965000Y-139255431D01*
X127624741Y-138433974D01*
X126996026Y-137805259D01*
X126174569Y-137465000D01*
X125285431Y-137465000D01*
X124463974Y-137805259D01*
X123835259Y-138433974D01*
X123495000Y-139255431D01*
X122655000Y-139255431D01*
X122655000Y-134169999D01*
X141262560Y-134169999D01*
X141262560Y-135070001D01*
X141330873Y-135413436D01*
X141525414Y-135704586D01*
X141723000Y-135836610D01*
X141723001Y-136539040D01*
X141655977Y-136606064D01*
X141507100Y-136965484D01*
X141507100Y-137354516D01*
X141655977Y-137713936D01*
X141723000Y-137780959D01*
X141723001Y-138483390D01*
X141525414Y-138615414D01*
X141330873Y-138906564D01*
X141262560Y-139249999D01*
X141262560Y-140150001D01*
X141330873Y-140493436D01*
X141525414Y-140784586D01*
X141816564Y-140979127D01*
X142159999Y-141047440D01*
X142810001Y-141047440D01*
X143153436Y-140979127D01*
X143444586Y-140784586D01*
X143510000Y-140686687D01*
X143575414Y-140784586D01*
X143866564Y-140979127D01*
X144209999Y-141047440D01*
X144860001Y-141047440D01*
X145203436Y-140979127D01*
X145494586Y-140784586D01*
X145689127Y-140493436D01*
X145695380Y-140462000D01*
X146036544Y-140462000D01*
X146135680Y-140701337D01*
X146528663Y-141094320D01*
X147042119Y-141307000D01*
X147597881Y-141307000D01*
X148111337Y-141094320D01*
X148315444Y-140890213D01*
X149059392Y-140890213D01*
X149128857Y-141132397D01*
X149652302Y-141319144D01*
X150207368Y-141291362D01*
X150591143Y-141132397D01*
X150660608Y-140890213D01*
X149860000Y-140089605D01*
X149059392Y-140890213D01*
X148315444Y-140890213D01*
X148504320Y-140701337D01*
X148583428Y-140510353D01*
X148637603Y-140641143D01*
X148879787Y-140710608D01*
X149680395Y-139910000D01*
X150039605Y-139910000D01*
X150840213Y-140710608D01*
X151082397Y-140641143D01*
X151269144Y-140117698D01*
X151241362Y-139562632D01*
X151082397Y-139178857D01*
X150840213Y-139109392D01*
X150039605Y-139910000D01*
X149680395Y-139910000D01*
X148879787Y-139109392D01*
X148637603Y-139178857D01*
X148587465Y-139319393D01*
X148504320Y-139118663D01*
X148315444Y-138929787D01*
X149059392Y-138929787D01*
X149860000Y-139730395D01*
X150660608Y-138929787D01*
X150591143Y-138687603D01*
X150067698Y-138500856D01*
X149512632Y-138528638D01*
X149128857Y-138687603D01*
X149059392Y-138929787D01*
X148315444Y-138929787D01*
X148111337Y-138725680D01*
X147597881Y-138513000D01*
X147042119Y-138513000D01*
X146528663Y-138725680D01*
X146316343Y-138938000D01*
X145695380Y-138938000D01*
X145689127Y-138906564D01*
X145494586Y-138615414D01*
X145297000Y-138483391D01*
X145297000Y-138004322D01*
X145333936Y-137989023D01*
X145609023Y-137713936D01*
X145757900Y-137354516D01*
X145757900Y-136965484D01*
X145609023Y-136606064D01*
X145333936Y-136330977D01*
X144974516Y-136182100D01*
X144585484Y-136182100D01*
X144226064Y-136330977D01*
X143950977Y-136606064D01*
X143802100Y-136965484D01*
X143802100Y-137183661D01*
X143758073Y-137405000D01*
X143773001Y-137480048D01*
X143773001Y-138483390D01*
X143575414Y-138615414D01*
X143510000Y-138713313D01*
X143444586Y-138615414D01*
X143247000Y-138483391D01*
X143247000Y-137780959D01*
X143314023Y-137713936D01*
X143462900Y-137354516D01*
X143462900Y-136965484D01*
X143314023Y-136606064D01*
X143247000Y-136539041D01*
X143247000Y-135836609D01*
X143444586Y-135704586D01*
X143510000Y-135606687D01*
X143575414Y-135704586D01*
X143866564Y-135899127D01*
X144209999Y-135967440D01*
X144860001Y-135967440D01*
X145203436Y-135899127D01*
X145494586Y-135704586D01*
X145689127Y-135413436D01*
X145695380Y-135382000D01*
X146316343Y-135382000D01*
X146528663Y-135594320D01*
X147042119Y-135807000D01*
X147597881Y-135807000D01*
X148111337Y-135594320D01*
X148504320Y-135201337D01*
X148590000Y-134994487D01*
X148675680Y-135201337D01*
X149068663Y-135594320D01*
X149582119Y-135807000D01*
X150137881Y-135807000D01*
X150651337Y-135594320D01*
X151044320Y-135201337D01*
X151056472Y-135172000D01*
X151602794Y-135172000D01*
X151621843Y-135267765D01*
X151762191Y-135477809D01*
X151972235Y-135618157D01*
X152220000Y-135667440D01*
X153120000Y-135667440D01*
X153367765Y-135618157D01*
X153572560Y-135481316D01*
X153572560Y-135970000D01*
X153621843Y-136217765D01*
X153762191Y-136427809D01*
X153908000Y-136525237D01*
X153908001Y-137359368D01*
X153814809Y-137452560D01*
X153219999Y-137452560D01*
X152876564Y-137520873D01*
X152585414Y-137715414D01*
X152390873Y-138006564D01*
X152322560Y-138349999D01*
X152322560Y-139000001D01*
X152390873Y-139343436D01*
X152585414Y-139634586D01*
X152683313Y-139700000D01*
X152585414Y-139765414D01*
X152390873Y-140056564D01*
X152322560Y-140399999D01*
X152322560Y-141050001D01*
X152390873Y-141393436D01*
X152585414Y-141684586D01*
X152876564Y-141879127D01*
X153219999Y-141947440D01*
X154120001Y-141947440D01*
X154463436Y-141879127D01*
X154754586Y-141684586D01*
X154886609Y-141487000D01*
X155109957Y-141487000D01*
X155185000Y-141501927D01*
X155260043Y-141487000D01*
X155260048Y-141487000D01*
X155482317Y-141442788D01*
X155734371Y-141274371D01*
X155776883Y-141210747D01*
X156695750Y-140291881D01*
X156759371Y-140249371D01*
X156927788Y-139997317D01*
X156972000Y-139775048D01*
X156972000Y-139775043D01*
X156986927Y-139700000D01*
X156972000Y-139624957D01*
X156972000Y-139255431D01*
X169215000Y-139255431D01*
X169215000Y-140144569D01*
X169555259Y-140966026D01*
X170183974Y-141594741D01*
X171005431Y-141935000D01*
X171894569Y-141935000D01*
X172716026Y-141594741D01*
X173344741Y-140966026D01*
X173685000Y-140144569D01*
X173685000Y-139255431D01*
X173344741Y-138433974D01*
X172716026Y-137805259D01*
X171894569Y-137465000D01*
X171005431Y-137465000D01*
X170183974Y-137805259D01*
X169555259Y-138433974D01*
X169215000Y-139255431D01*
X156972000Y-139255431D01*
X156972000Y-128345042D01*
X156986927Y-128269999D01*
X156972000Y-128194956D01*
X156972000Y-128194952D01*
X156927788Y-127972683D01*
X156759371Y-127720629D01*
X156695749Y-127678118D01*
X150837900Y-121820270D01*
X150837900Y-121725484D01*
X150689023Y-121366064D01*
X150413936Y-121090977D01*
X150054516Y-120942100D01*
X149665484Y-120942100D01*
X149306064Y-121090977D01*
X149030977Y-121366064D01*
X148882100Y-121725484D01*
X148882100Y-122114516D01*
X149030977Y-122473936D01*
X149306064Y-122749023D01*
X149665484Y-122897900D01*
X149760270Y-122897900D01*
X155448001Y-128585632D01*
X155448001Y-132718543D01*
X155246309Y-132635000D01*
X154955750Y-132635000D01*
X154797000Y-132793750D01*
X154797000Y-133543000D01*
X154817000Y-133543000D01*
X154817000Y-133797000D01*
X154797000Y-133797000D01*
X154797000Y-133817000D01*
X154543000Y-133817000D01*
X154543000Y-133797000D01*
X153743750Y-133797000D01*
X153658219Y-133882531D01*
X153577809Y-133762191D01*
X153367765Y-133621843D01*
X153120000Y-133572560D01*
X152220000Y-133572560D01*
X151972235Y-133621843D01*
X151933089Y-133648000D01*
X151056472Y-133648000D01*
X151044320Y-133618663D01*
X150651337Y-133225680D01*
X150453396Y-133143690D01*
X153585000Y-133143690D01*
X153585000Y-133384250D01*
X153743750Y-133543000D01*
X154543000Y-133543000D01*
X154543000Y-132793750D01*
X154384250Y-132635000D01*
X154093691Y-132635000D01*
X153860302Y-132731673D01*
X153681673Y-132910301D01*
X153585000Y-133143690D01*
X150453396Y-133143690D01*
X150137881Y-133013000D01*
X149582119Y-133013000D01*
X149068663Y-133225680D01*
X148675680Y-133618663D01*
X148590000Y-133825513D01*
X148504320Y-133618663D01*
X148111337Y-133225680D01*
X147597881Y-133013000D01*
X147042119Y-133013000D01*
X146528663Y-133225680D01*
X146135680Y-133618663D01*
X146036544Y-133858000D01*
X145695380Y-133858000D01*
X145689127Y-133826564D01*
X145494586Y-133535414D01*
X145203436Y-133340873D01*
X144860001Y-133272560D01*
X144209999Y-133272560D01*
X143866564Y-133340873D01*
X143575414Y-133535414D01*
X143510000Y-133633313D01*
X143444586Y-133535414D01*
X143153436Y-133340873D01*
X142810001Y-133272560D01*
X142159999Y-133272560D01*
X141816564Y-133340873D01*
X141525414Y-133535414D01*
X141330873Y-133826564D01*
X141262560Y-134169999D01*
X122655000Y-134169999D01*
X122655000Y-127284025D01*
X122735302Y-127364327D01*
X122968691Y-127461000D01*
X123209039Y-127461000D01*
X123175144Y-127527971D01*
X123172090Y-127551600D01*
X123295776Y-127754000D01*
X124048750Y-127754000D01*
X124068750Y-127774000D01*
X124762000Y-127774000D01*
X124762000Y-128008000D01*
X124742000Y-128008000D01*
X124742000Y-128028000D01*
X124488000Y-128028000D01*
X124488000Y-128008000D01*
X123295776Y-128008000D01*
X123172090Y-128210400D01*
X123175144Y-128234029D01*
X123406524Y-128691196D01*
X123795241Y-129025018D01*
X124282117Y-129184673D01*
X124308570Y-129165387D01*
X124418690Y-129211000D01*
X125259250Y-129211000D01*
X125310000Y-129160250D01*
X125310000Y-129189809D01*
X125406673Y-129423198D01*
X125585301Y-129601827D01*
X125818690Y-129698500D01*
X126009250Y-129698500D01*
X126168000Y-129539750D01*
X126168000Y-129211000D01*
X126243955Y-129211000D01*
X126326673Y-129410698D01*
X126422000Y-129506026D01*
X126422000Y-129539750D01*
X126580750Y-129698500D01*
X126771310Y-129698500D01*
X126801488Y-129686000D01*
X127329250Y-129686000D01*
X127488000Y-129527250D01*
X127488000Y-127904000D01*
X127742000Y-127904000D01*
X127742000Y-129527250D01*
X127900750Y-129686000D01*
X128491310Y-129686000D01*
X128724699Y-129589327D01*
X128903327Y-129410698D01*
X129000000Y-129177309D01*
X129000000Y-128336750D01*
X128841250Y-128178000D01*
X128815043Y-128178000D01*
X128954006Y-127919526D01*
X128958803Y-127880744D01*
X128928562Y-127836688D01*
X129000000Y-127765250D01*
X129000000Y-126924691D01*
X128946976Y-126796681D01*
X128955000Y-126777310D01*
X128955000Y-126709750D01*
X128796250Y-126551000D01*
X128763026Y-126551000D01*
X128724699Y-126512673D01*
X128707721Y-126505641D01*
X128777809Y-126458809D01*
X128918157Y-126248765D01*
X128923042Y-126224208D01*
X128955000Y-126192250D01*
X128955000Y-126124690D01*
X128946783Y-126104852D01*
X128967440Y-126001000D01*
X128967440Y-125913000D01*
X143318707Y-125913000D01*
X143393750Y-125927927D01*
X143468793Y-125913000D01*
X143468798Y-125913000D01*
X143691067Y-125868788D01*
X143943121Y-125700371D01*
X143985633Y-125636747D01*
X153292160Y-116330221D01*
X153355781Y-116287711D01*
X153510773Y-116055749D01*
X153524197Y-116035659D01*
X153524197Y-116035658D01*
X153524198Y-116035657D01*
X153568410Y-115813388D01*
X153568410Y-115813384D01*
X153583337Y-115738341D01*
X153568410Y-115663298D01*
X153568410Y-112241452D01*
X153583337Y-112166409D01*
X153568410Y-112091366D01*
X153568410Y-112091362D01*
X153524198Y-111869093D01*
X153516290Y-111857257D01*
X153398292Y-111680661D01*
X153355781Y-111617039D01*
X153292159Y-111574528D01*
X151450070Y-109732440D01*
X151740000Y-109732440D01*
X151987765Y-109683157D01*
X152197809Y-109542809D01*
X152338157Y-109332765D01*
X152380080Y-109122000D01*
X154454957Y-109122000D01*
X154530000Y-109136927D01*
X154605043Y-109122000D01*
X154605048Y-109122000D01*
X154827317Y-109077788D01*
X155079371Y-108909371D01*
X155121884Y-108845746D01*
X163081880Y-100885750D01*
X164385000Y-100885750D01*
X164385000Y-101176309D01*
X164481673Y-101409698D01*
X164660301Y-101588327D01*
X164893690Y-101685000D01*
X165134250Y-101685000D01*
X165293000Y-101526250D01*
X165293000Y-100727000D01*
X164543750Y-100727000D01*
X164385000Y-100885750D01*
X163081880Y-100885750D01*
X163943939Y-100023691D01*
X164385000Y-100023691D01*
X164385000Y-100314250D01*
X164543750Y-100473000D01*
X165293000Y-100473000D01*
X165293000Y-99673750D01*
X165134250Y-99515000D01*
X164893690Y-99515000D01*
X164660301Y-99611673D01*
X164481673Y-99790302D01*
X164385000Y-100023691D01*
X163943939Y-100023691D01*
X168122336Y-95845295D01*
X168356064Y-96079023D01*
X168715484Y-96227900D01*
X168810270Y-96227900D01*
X171958001Y-99375632D01*
X171958000Y-100383390D01*
X171760414Y-100515414D01*
X171695000Y-100613313D01*
X171629586Y-100515414D01*
X171338436Y-100320873D01*
X170995001Y-100252560D01*
X170400190Y-100252560D01*
X170261883Y-100114253D01*
X170219371Y-100050629D01*
X169967317Y-99882212D01*
X169745048Y-99838000D01*
X169745043Y-99838000D01*
X169670000Y-99823073D01*
X169594957Y-99838000D01*
X168275236Y-99838000D01*
X168177809Y-99692191D01*
X167967765Y-99551843D01*
X167720000Y-99502560D01*
X166920000Y-99502560D01*
X166672235Y-99551843D01*
X166462191Y-99692191D01*
X166372987Y-99825694D01*
X166358327Y-99790302D01*
X166179699Y-99611673D01*
X165946310Y-99515000D01*
X165705750Y-99515000D01*
X165547000Y-99673750D01*
X165547000Y-100473000D01*
X165567000Y-100473000D01*
X165567000Y-100727000D01*
X165547000Y-100727000D01*
X165547000Y-101526250D01*
X165632531Y-101611781D01*
X165512191Y-101692191D01*
X165371843Y-101902235D01*
X165322560Y-102150000D01*
X165322560Y-103050000D01*
X165371843Y-103297765D01*
X165512191Y-103507809D01*
X165608000Y-103571827D01*
X165608001Y-104126543D01*
X165368663Y-104225680D01*
X164975680Y-104618663D01*
X164763000Y-105132119D01*
X164763000Y-105687881D01*
X164975680Y-106201337D01*
X165368663Y-106594320D01*
X165575513Y-106680000D01*
X165368663Y-106765680D01*
X164975680Y-107158663D01*
X164763000Y-107672119D01*
X164763000Y-108227881D01*
X164975680Y-108741337D01*
X165368663Y-109134320D01*
X165398000Y-109146472D01*
X165398001Y-109567658D01*
X165331564Y-109580873D01*
X165040414Y-109775414D01*
X164845873Y-110066564D01*
X164777560Y-110409999D01*
X164777560Y-111060001D01*
X164845873Y-111403436D01*
X165040414Y-111694586D01*
X165138313Y-111760000D01*
X165040414Y-111825414D01*
X164845873Y-112116564D01*
X164777560Y-112459999D01*
X164777560Y-113110001D01*
X164845873Y-113453436D01*
X165040414Y-113744586D01*
X165331564Y-113939127D01*
X165674999Y-114007440D01*
X166575001Y-114007440D01*
X166918436Y-113939127D01*
X167209586Y-113744586D01*
X167341609Y-113547000D01*
X168289041Y-113547000D01*
X168356064Y-113614023D01*
X168715484Y-113762900D01*
X169104516Y-113762900D01*
X169463936Y-113614023D01*
X169530959Y-113547000D01*
X169988391Y-113547000D01*
X170120414Y-113744586D01*
X170411564Y-113939127D01*
X170754999Y-114007440D01*
X171655001Y-114007440D01*
X171998436Y-113939127D01*
X172289586Y-113744586D01*
X172484127Y-113453436D01*
X172552440Y-113110001D01*
X172552440Y-112459999D01*
X172484127Y-112116564D01*
X172289586Y-111825414D01*
X172191687Y-111760000D01*
X172289586Y-111694586D01*
X172484127Y-111403436D01*
X172552440Y-111060001D01*
X172552440Y-110409999D01*
X172484127Y-110066564D01*
X172422000Y-109973585D01*
X172422000Y-109146472D01*
X172451337Y-109134320D01*
X172844320Y-108741337D01*
X173057000Y-108227881D01*
X173057000Y-107672119D01*
X172844320Y-107158663D01*
X172451337Y-106765680D01*
X172260353Y-106686572D01*
X172391143Y-106632397D01*
X172460608Y-106390213D01*
X171660000Y-105589605D01*
X170859392Y-106390213D01*
X170928857Y-106632397D01*
X171069393Y-106682535D01*
X170868663Y-106765680D01*
X170475680Y-107158663D01*
X170263000Y-107672119D01*
X170263000Y-108227881D01*
X170475680Y-108741337D01*
X170868663Y-109134320D01*
X170898001Y-109146472D01*
X170898001Y-109512560D01*
X170754999Y-109512560D01*
X170411564Y-109580873D01*
X170120414Y-109775414D01*
X169925873Y-110066564D01*
X169857560Y-110409999D01*
X169857560Y-111060001D01*
X169925873Y-111403436D01*
X170120414Y-111694586D01*
X170218313Y-111760000D01*
X170120414Y-111825414D01*
X169988391Y-112023000D01*
X169530959Y-112023000D01*
X169463936Y-111955977D01*
X169104516Y-111807100D01*
X168715484Y-111807100D01*
X168356064Y-111955977D01*
X168289041Y-112023000D01*
X167341609Y-112023000D01*
X167209586Y-111825414D01*
X167111687Y-111760000D01*
X167209586Y-111694586D01*
X167404127Y-111403436D01*
X167472440Y-111060001D01*
X167472440Y-110409999D01*
X167404127Y-110066564D01*
X167209586Y-109775414D01*
X166922000Y-109583254D01*
X166922000Y-109146472D01*
X166951337Y-109134320D01*
X167344320Y-108741337D01*
X167557000Y-108227881D01*
X167557000Y-107672119D01*
X167344320Y-107158663D01*
X166951337Y-106765680D01*
X166744487Y-106680000D01*
X166951337Y-106594320D01*
X167344320Y-106201337D01*
X167557000Y-105687881D01*
X167557000Y-105202302D01*
X170250856Y-105202302D01*
X170278638Y-105757368D01*
X170437603Y-106141143D01*
X170679787Y-106210608D01*
X171480395Y-105410000D01*
X171839605Y-105410000D01*
X172640213Y-106210608D01*
X172882397Y-106141143D01*
X173069144Y-105617698D01*
X173041362Y-105062632D01*
X172882397Y-104678857D01*
X172640213Y-104609392D01*
X171839605Y-105410000D01*
X171480395Y-105410000D01*
X170679787Y-104609392D01*
X170437603Y-104678857D01*
X170250856Y-105202302D01*
X167557000Y-105202302D01*
X167557000Y-105132119D01*
X167344320Y-104618663D01*
X167155444Y-104429787D01*
X170859392Y-104429787D01*
X171660000Y-105230395D01*
X172460608Y-104429787D01*
X172391143Y-104187603D01*
X171867698Y-104000856D01*
X171312632Y-104028638D01*
X170928857Y-104187603D01*
X170859392Y-104429787D01*
X167155444Y-104429787D01*
X167132000Y-104406343D01*
X167132000Y-103571827D01*
X167227809Y-103507809D01*
X167368157Y-103297765D01*
X167417440Y-103050000D01*
X167417440Y-102150000D01*
X167368157Y-101902235D01*
X167231316Y-101697440D01*
X167720000Y-101697440D01*
X167967765Y-101648157D01*
X168177809Y-101507809D01*
X168275236Y-101362000D01*
X169354370Y-101362000D01*
X169447560Y-101455190D01*
X169447560Y-102050001D01*
X169515873Y-102393436D01*
X169710414Y-102684586D01*
X170001564Y-102879127D01*
X170344999Y-102947440D01*
X170995001Y-102947440D01*
X171338436Y-102879127D01*
X171629586Y-102684586D01*
X171695000Y-102586687D01*
X171760414Y-102684586D01*
X172051564Y-102879127D01*
X172394999Y-102947440D01*
X173045001Y-102947440D01*
X173388436Y-102879127D01*
X173679586Y-102684586D01*
X173874127Y-102393436D01*
X173942440Y-102050001D01*
X173942440Y-101149999D01*
X173874127Y-100806564D01*
X173679586Y-100515414D01*
X173482000Y-100383391D01*
X173482000Y-99135047D01*
X173496928Y-99060000D01*
X173451561Y-98831927D01*
X173437788Y-98762683D01*
X173269371Y-98510629D01*
X173205749Y-98468118D01*
X169887900Y-95150270D01*
X169887900Y-95055484D01*
X169739023Y-94696064D01*
X169505295Y-94462336D01*
X170665750Y-93301881D01*
X170729371Y-93259371D01*
X170897788Y-93007317D01*
X170942000Y-92785048D01*
X170942000Y-92785044D01*
X170956927Y-92710001D01*
X170942000Y-92634958D01*
X170942000Y-85165047D01*
X170956928Y-85090000D01*
X170931300Y-84961161D01*
X170897788Y-84792683D01*
X170729371Y-84540629D01*
X170665749Y-84498118D01*
X167811679Y-81644048D01*
X167884092Y-81280000D01*
X167877604Y-81247384D01*
X167937786Y-81157316D01*
X167996926Y-80859998D01*
X167937786Y-80562681D01*
X167811881Y-80374250D01*
X167562492Y-80124862D01*
X167677809Y-80047809D01*
X167818157Y-79837765D01*
X167867440Y-79590000D01*
X167867440Y-77890000D01*
X167818157Y-77642235D01*
X167677809Y-77432191D01*
X167467765Y-77291843D01*
X167220000Y-77242560D01*
X165520000Y-77242560D01*
X165272235Y-77291843D01*
X165062191Y-77432191D01*
X164921843Y-77642235D01*
X164872560Y-77890000D01*
X164872560Y-79590000D01*
X164921843Y-79837765D01*
X165062191Y-80047809D01*
X165272235Y-80188157D01*
X165317619Y-80197184D01*
X165299375Y-80209375D01*
X164971161Y-80700582D01*
X164855908Y-81280000D01*
X164971161Y-81859418D01*
X165299375Y-82350625D01*
X165618478Y-82563843D01*
X165488642Y-82624817D01*
X165098355Y-83053076D01*
X164928524Y-83463110D01*
X165049845Y-83693000D01*
X166243000Y-83693000D01*
X166243000Y-83673000D01*
X166497000Y-83673000D01*
X166497000Y-83693000D01*
X166517000Y-83693000D01*
X166517000Y-83947000D01*
X166497000Y-83947000D01*
X166497000Y-83967000D01*
X166243000Y-83967000D01*
X166243000Y-83947000D01*
X165049845Y-83947000D01*
X164928524Y-84176890D01*
X165098355Y-84586924D01*
X165488642Y-85015183D01*
X165618478Y-85076157D01*
X165299375Y-85289375D01*
X164971161Y-85780582D01*
X164855908Y-86360000D01*
X164971161Y-86939418D01*
X165299375Y-87430625D01*
X165597761Y-87630000D01*
X165299375Y-87829375D01*
X164971161Y-88320582D01*
X164855908Y-88900000D01*
X164971161Y-89479418D01*
X165299375Y-89970625D01*
X165597761Y-90170000D01*
X165299375Y-90369375D01*
X164971161Y-90860582D01*
X164855908Y-91440000D01*
X164971161Y-92019418D01*
X165299375Y-92510625D01*
X165790582Y-92838839D01*
X166223744Y-92925000D01*
X166516256Y-92925000D01*
X166949418Y-92838839D01*
X167440625Y-92510625D01*
X167768839Y-92019418D01*
X167884092Y-91440000D01*
X167768839Y-90860582D01*
X167440625Y-90369375D01*
X167142239Y-90170000D01*
X167440625Y-89970625D01*
X167768839Y-89479418D01*
X167875511Y-88943141D01*
X168148001Y-89215632D01*
X168148000Y-92394370D01*
X154624370Y-105918000D01*
X151641047Y-105918000D01*
X151566000Y-105903072D01*
X151490953Y-105918000D01*
X151490952Y-105918000D01*
X151268683Y-105962212D01*
X151016629Y-106130629D01*
X150974118Y-106194251D01*
X150379253Y-106789117D01*
X150315629Y-106831629D01*
X150211440Y-106987560D01*
X149990000Y-106987560D01*
X149890000Y-107007451D01*
X149790000Y-106987560D01*
X149677000Y-106987560D01*
X149677000Y-105117900D01*
X150054516Y-105117900D01*
X150413936Y-104969023D01*
X150689023Y-104693936D01*
X150837900Y-104334516D01*
X150837900Y-103945484D01*
X150791076Y-103832440D01*
X151090000Y-103832440D01*
X151190000Y-103812549D01*
X151290000Y-103832440D01*
X151740000Y-103832440D01*
X151987765Y-103783157D01*
X152197809Y-103642809D01*
X152338157Y-103432765D01*
X152347260Y-103387000D01*
X153723391Y-103387000D01*
X153855414Y-103584586D01*
X154146564Y-103779127D01*
X154489999Y-103847440D01*
X155390001Y-103847440D01*
X155733436Y-103779127D01*
X156024586Y-103584586D01*
X156219127Y-103293436D01*
X156287440Y-102950001D01*
X156287440Y-102299999D01*
X156219127Y-101956564D01*
X156024586Y-101665414D01*
X156023403Y-101664623D01*
X156178327Y-101509698D01*
X156275000Y-101276309D01*
X156275000Y-100860750D01*
X156116250Y-100702000D01*
X155067000Y-100702000D01*
X155067000Y-100722000D01*
X154813000Y-100722000D01*
X154813000Y-100702000D01*
X153763750Y-100702000D01*
X153605000Y-100860750D01*
X153605000Y-101276309D01*
X153701673Y-101509698D01*
X153856597Y-101664623D01*
X153855414Y-101665414D01*
X153723391Y-101863000D01*
X152387440Y-101863000D01*
X152387440Y-101735000D01*
X152338157Y-101487235D01*
X152197809Y-101277191D01*
X151987765Y-101136843D01*
X151740000Y-101087560D01*
X151627000Y-101087560D01*
X151627000Y-99669959D01*
X151846064Y-99889023D01*
X152205484Y-100037900D01*
X152594516Y-100037900D01*
X152953936Y-99889023D01*
X152969268Y-99873691D01*
X153605000Y-99873691D01*
X153605000Y-100289250D01*
X153763750Y-100448000D01*
X154813000Y-100448000D01*
X154813000Y-99523750D01*
X155067000Y-99523750D01*
X155067000Y-100448000D01*
X156116250Y-100448000D01*
X156275000Y-100289250D01*
X156275000Y-99873691D01*
X156178327Y-99640302D01*
X155999699Y-99461673D01*
X155766310Y-99365000D01*
X155225750Y-99365000D01*
X155067000Y-99523750D01*
X154813000Y-99523750D01*
X154654250Y-99365000D01*
X154113690Y-99365000D01*
X153880301Y-99461673D01*
X153701673Y-99640302D01*
X153605000Y-99873691D01*
X152969268Y-99873691D01*
X153229023Y-99613936D01*
X153377900Y-99254516D01*
X153377900Y-99159730D01*
X155255630Y-97282000D01*
X159399041Y-97282000D01*
X159466064Y-97349023D01*
X159825484Y-97497900D01*
X160214516Y-97497900D01*
X160573936Y-97349023D01*
X160849023Y-97073936D01*
X160997900Y-96714516D01*
X160997900Y-96325484D01*
X160849023Y-95966064D01*
X160573936Y-95690977D01*
X160214516Y-95542100D01*
X159825484Y-95542100D01*
X159466064Y-95690977D01*
X159399041Y-95758000D01*
X155015042Y-95758000D01*
X154939999Y-95743073D01*
X154864956Y-95758000D01*
X154864952Y-95758000D01*
X154642683Y-95802212D01*
X154642682Y-95802213D01*
X154642681Y-95802213D01*
X154588641Y-95838322D01*
X154390629Y-95970629D01*
X154348116Y-96034254D01*
X153785000Y-96597370D01*
X153785000Y-96244506D01*
X153574147Y-95735460D01*
X153184540Y-95345853D01*
X153162000Y-95336517D01*
X153162000Y-93625380D01*
X153193436Y-93619127D01*
X153484586Y-93424586D01*
X153679127Y-93133436D01*
X153747440Y-92790001D01*
X153747440Y-92139999D01*
X153679127Y-91796564D01*
X153484586Y-91505414D01*
X153483403Y-91504623D01*
X153638327Y-91349698D01*
X153735000Y-91116309D01*
X153735000Y-90700750D01*
X153576250Y-90542000D01*
X152527000Y-90542000D01*
X152527000Y-90562000D01*
X152273000Y-90562000D01*
X152273000Y-90542000D01*
X151223750Y-90542000D01*
X151065000Y-90700750D01*
X151065000Y-91116309D01*
X151161673Y-91349698D01*
X151316597Y-91504623D01*
X151315414Y-91505414D01*
X151120873Y-91796564D01*
X151052560Y-92139999D01*
X151052560Y-92790001D01*
X151120873Y-93133436D01*
X151315414Y-93424586D01*
X151606564Y-93619127D01*
X151638000Y-93625380D01*
X151638001Y-95336516D01*
X151615460Y-95345853D01*
X151225853Y-95735460D01*
X151015000Y-96244506D01*
X151015000Y-96795494D01*
X151024336Y-96818033D01*
X150379251Y-97463119D01*
X150315630Y-97505629D01*
X150273119Y-97569251D01*
X150273118Y-97569252D01*
X150147213Y-97757683D01*
X150095466Y-98017835D01*
X148895664Y-96818034D01*
X148905000Y-96795494D01*
X148905000Y-96244506D01*
X148694147Y-95735460D01*
X148304540Y-95345853D01*
X148082000Y-95253674D01*
X148082000Y-93625380D01*
X148113436Y-93619127D01*
X148404586Y-93424586D01*
X148599127Y-93133436D01*
X148667440Y-92790001D01*
X148667440Y-92139999D01*
X148599127Y-91796564D01*
X148404586Y-91505414D01*
X148403403Y-91504623D01*
X148558327Y-91349698D01*
X148655000Y-91116309D01*
X148655000Y-90700750D01*
X148496250Y-90542000D01*
X147447000Y-90542000D01*
X147447000Y-90562000D01*
X147193000Y-90562000D01*
X147193000Y-90542000D01*
X146143750Y-90542000D01*
X145985000Y-90700750D01*
X145985000Y-91116309D01*
X146081673Y-91349698D01*
X146236597Y-91504623D01*
X146235414Y-91505414D01*
X146040873Y-91796564D01*
X145972560Y-92139999D01*
X145972560Y-92790001D01*
X146040873Y-93133436D01*
X146235414Y-93424586D01*
X146526564Y-93619127D01*
X146558000Y-93625380D01*
X146558001Y-95523312D01*
X146345853Y-95735460D01*
X146135000Y-96244506D01*
X146135000Y-96795494D01*
X146345853Y-97304540D01*
X146735460Y-97694147D01*
X147244506Y-97905000D01*
X147795494Y-97905000D01*
X147818034Y-97895664D01*
X149453001Y-99530632D01*
X149453001Y-99858093D01*
X149419023Y-99776064D01*
X149143936Y-99500977D01*
X148784516Y-99352100D01*
X148395484Y-99352100D01*
X148036064Y-99500977D01*
X147760977Y-99776064D01*
X147612100Y-100135484D01*
X147612100Y-100260572D01*
X147556065Y-100344434D01*
X140462000Y-93250370D01*
X140462000Y-89713691D01*
X145985000Y-89713691D01*
X145985000Y-90129250D01*
X146143750Y-90288000D01*
X147193000Y-90288000D01*
X147193000Y-89363750D01*
X147447000Y-89363750D01*
X147447000Y-90288000D01*
X148496250Y-90288000D01*
X148655000Y-90129250D01*
X148655000Y-89713691D01*
X151065000Y-89713691D01*
X151065000Y-90129250D01*
X151223750Y-90288000D01*
X152273000Y-90288000D01*
X152273000Y-89363750D01*
X152527000Y-89363750D01*
X152527000Y-90288000D01*
X153576250Y-90288000D01*
X153735000Y-90129250D01*
X153735000Y-89713691D01*
X153638327Y-89480302D01*
X153459699Y-89301673D01*
X153226310Y-89205000D01*
X152685750Y-89205000D01*
X152527000Y-89363750D01*
X152273000Y-89363750D01*
X152114250Y-89205000D01*
X151573690Y-89205000D01*
X151340301Y-89301673D01*
X151161673Y-89480302D01*
X151065000Y-89713691D01*
X148655000Y-89713691D01*
X148558327Y-89480302D01*
X148379699Y-89301673D01*
X148146310Y-89205000D01*
X147605750Y-89205000D01*
X147447000Y-89363750D01*
X147193000Y-89363750D01*
X147034250Y-89205000D01*
X146493690Y-89205000D01*
X146260301Y-89301673D01*
X146081673Y-89480302D01*
X145985000Y-89713691D01*
X140462000Y-89713691D01*
X140462000Y-79975750D01*
X141155000Y-79975750D01*
X141155000Y-80216310D01*
X141251673Y-80449699D01*
X141430302Y-80628327D01*
X141663691Y-80725000D01*
X141954250Y-80725000D01*
X142113000Y-80566250D01*
X142113000Y-79817000D01*
X142367000Y-79817000D01*
X142367000Y-80566250D01*
X142525750Y-80725000D01*
X142816309Y-80725000D01*
X143049698Y-80628327D01*
X143228327Y-80449699D01*
X143325000Y-80216310D01*
X143325000Y-79975750D01*
X143166250Y-79817000D01*
X142367000Y-79817000D01*
X142113000Y-79817000D01*
X141313750Y-79817000D01*
X141155000Y-79975750D01*
X140462000Y-79975750D01*
X140462000Y-76515630D01*
X141511602Y-75466028D01*
X141463073Y-75710000D01*
X141478001Y-75785048D01*
X141478000Y-76834763D01*
X141332191Y-76932191D01*
X141191843Y-77142235D01*
X141142560Y-77390000D01*
X141142560Y-78190000D01*
X141191843Y-78437765D01*
X141332191Y-78647809D01*
X141465694Y-78737013D01*
X141430302Y-78751673D01*
X141251673Y-78930301D01*
X141155000Y-79163690D01*
X141155000Y-79404250D01*
X141313750Y-79563000D01*
X142113000Y-79563000D01*
X142113000Y-79543000D01*
X142367000Y-79543000D01*
X142367000Y-79563000D01*
X143166250Y-79563000D01*
X143251781Y-79477469D01*
X143332191Y-79597809D01*
X143542235Y-79738157D01*
X143790000Y-79787440D01*
X144690000Y-79787440D01*
X144937765Y-79738157D01*
X144976911Y-79712000D01*
X146123528Y-79712000D01*
X146135680Y-79741337D01*
X146528663Y-80134320D01*
X147042119Y-80347000D01*
X147597881Y-80347000D01*
X148111337Y-80134320D01*
X148504320Y-79741337D01*
X148590000Y-79534487D01*
X148675680Y-79741337D01*
X149068663Y-80134320D01*
X149582119Y-80347000D01*
X150137881Y-80347000D01*
X150651337Y-80134320D01*
X151044320Y-79741337D01*
X151056472Y-79712000D01*
X151610186Y-79712000D01*
X151685414Y-79824586D01*
X151976564Y-80019127D01*
X152319999Y-80087440D01*
X152970001Y-80087440D01*
X153313436Y-80019127D01*
X153604586Y-79824586D01*
X153670000Y-79726687D01*
X153735414Y-79824586D01*
X154026564Y-80019127D01*
X154369999Y-80087440D01*
X155020001Y-80087440D01*
X155363436Y-80019127D01*
X155654586Y-79824586D01*
X155849127Y-79533436D01*
X155917440Y-79190001D01*
X155917440Y-78289999D01*
X155849127Y-77946564D01*
X155654586Y-77655414D01*
X155457000Y-77523391D01*
X155457000Y-76820959D01*
X155524023Y-76753936D01*
X155672900Y-76394516D01*
X155672900Y-76005484D01*
X155524023Y-75646064D01*
X155457000Y-75579041D01*
X155457000Y-74876609D01*
X155654586Y-74744586D01*
X155849127Y-74453436D01*
X155917440Y-74110001D01*
X155917440Y-73215431D01*
X169215000Y-73215431D01*
X169215000Y-74104569D01*
X169555259Y-74926026D01*
X170183974Y-75554741D01*
X171005431Y-75895000D01*
X171894569Y-75895000D01*
X172716026Y-75554741D01*
X173344741Y-74926026D01*
X173685000Y-74104569D01*
X173685000Y-73215431D01*
X173344741Y-72393974D01*
X172716026Y-71765259D01*
X171894569Y-71425000D01*
X171005431Y-71425000D01*
X170183974Y-71765259D01*
X169555259Y-72393974D01*
X169215000Y-73215431D01*
X155917440Y-73215431D01*
X155917440Y-73209999D01*
X155849127Y-72866564D01*
X155654586Y-72575414D01*
X155363436Y-72380873D01*
X155020001Y-72312560D01*
X154369999Y-72312560D01*
X154026564Y-72380873D01*
X153735414Y-72575414D01*
X153670000Y-72673313D01*
X153604586Y-72575414D01*
X153313436Y-72380873D01*
X152970001Y-72312560D01*
X152319999Y-72312560D01*
X151976564Y-72380873D01*
X151685414Y-72575414D01*
X151610186Y-72688000D01*
X151056472Y-72688000D01*
X151044320Y-72658663D01*
X150651337Y-72265680D01*
X150137881Y-72053000D01*
X149582119Y-72053000D01*
X149068663Y-72265680D01*
X148675680Y-72658663D01*
X148596572Y-72849647D01*
X148542397Y-72718857D01*
X148300213Y-72649392D01*
X147499605Y-73450000D01*
X148300213Y-74250608D01*
X148542397Y-74181143D01*
X148592535Y-74040607D01*
X148675680Y-74241337D01*
X149068663Y-74634320D01*
X149582119Y-74847000D01*
X150137881Y-74847000D01*
X150651337Y-74634320D01*
X151044320Y-74241337D01*
X151056472Y-74212000D01*
X151442849Y-74212000D01*
X151490873Y-74453436D01*
X151685414Y-74744586D01*
X151976564Y-74939127D01*
X152319999Y-75007440D01*
X152970001Y-75007440D01*
X153313436Y-74939127D01*
X153604586Y-74744586D01*
X153670000Y-74646687D01*
X153735414Y-74744586D01*
X153933000Y-74876610D01*
X153933001Y-75579040D01*
X153865977Y-75646064D01*
X153717100Y-76005484D01*
X153717100Y-76394516D01*
X153865977Y-76753936D01*
X153933000Y-76820959D01*
X153933001Y-77523390D01*
X153735414Y-77655414D01*
X153670000Y-77753313D01*
X153604586Y-77655414D01*
X153313436Y-77460873D01*
X152970001Y-77392560D01*
X152319999Y-77392560D01*
X151976564Y-77460873D01*
X151685414Y-77655414D01*
X151490873Y-77946564D01*
X151442849Y-78188000D01*
X151056472Y-78188000D01*
X151044320Y-78158663D01*
X150651337Y-77765680D01*
X150137881Y-77553000D01*
X149582119Y-77553000D01*
X149068663Y-77765680D01*
X148675680Y-78158663D01*
X148590000Y-78365513D01*
X148504320Y-78158663D01*
X148111337Y-77765680D01*
X147597881Y-77553000D01*
X147042119Y-77553000D01*
X146528663Y-77765680D01*
X146135680Y-78158663D01*
X146123528Y-78188000D01*
X145307206Y-78188000D01*
X145288157Y-78092235D01*
X145147809Y-77882191D01*
X144937765Y-77741843D01*
X144690000Y-77692560D01*
X143790000Y-77692560D01*
X143542235Y-77741843D01*
X143337440Y-77878684D01*
X143337440Y-77390000D01*
X143288157Y-77142235D01*
X143147809Y-76932191D01*
X143002000Y-76834764D01*
X143002000Y-76025630D01*
X143365190Y-75662440D01*
X143960001Y-75662440D01*
X144303436Y-75594127D01*
X144594586Y-75399586D01*
X144789127Y-75108436D01*
X144857440Y-74765001D01*
X144857440Y-74430213D01*
X146519392Y-74430213D01*
X146588857Y-74672397D01*
X147112302Y-74859144D01*
X147667368Y-74831362D01*
X148051143Y-74672397D01*
X148120608Y-74430213D01*
X147320000Y-73629605D01*
X146519392Y-74430213D01*
X144857440Y-74430213D01*
X144857440Y-74114999D01*
X144789127Y-73771564D01*
X144594586Y-73480414D01*
X144496687Y-73415000D01*
X144594586Y-73349586D01*
X144666271Y-73242302D01*
X145910856Y-73242302D01*
X145938638Y-73797368D01*
X146097603Y-74181143D01*
X146339787Y-74250608D01*
X147140395Y-73450000D01*
X146339787Y-72649392D01*
X146097603Y-72718857D01*
X145910856Y-73242302D01*
X144666271Y-73242302D01*
X144789127Y-73058436D01*
X144857440Y-72715001D01*
X144857440Y-72469787D01*
X146519392Y-72469787D01*
X147320000Y-73270395D01*
X148120608Y-72469787D01*
X148051143Y-72227603D01*
X147527698Y-72040856D01*
X146972632Y-72068638D01*
X146588857Y-72227603D01*
X146519392Y-72469787D01*
X144857440Y-72469787D01*
X144857440Y-72064999D01*
X144789127Y-71721564D01*
X144594586Y-71430414D01*
X144303436Y-71235873D01*
X143960001Y-71167560D01*
X143059999Y-71167560D01*
X142716564Y-71235873D01*
X142425414Y-71430414D01*
X142230873Y-71721564D01*
X142162560Y-72064999D01*
X142162560Y-72659809D01*
X139214251Y-75608119D01*
X139150630Y-75650629D01*
X139108119Y-75714251D01*
X139108118Y-75714252D01*
X138982213Y-75902683D01*
X138923073Y-76200000D01*
X138938001Y-76275048D01*
X138938000Y-93490957D01*
X138923073Y-93566000D01*
X138938000Y-93641043D01*
X138938000Y-93641047D01*
X138982212Y-93863316D01*
X139150629Y-94115371D01*
X139214253Y-94157883D01*
X146143929Y-101087560D01*
X146090000Y-101087560D01*
X145990000Y-101107451D01*
X145890000Y-101087560D01*
X145440000Y-101087560D01*
X145192235Y-101136843D01*
X144982191Y-101277191D01*
X144841843Y-101487235D01*
X144792560Y-101735000D01*
X144792560Y-101806439D01*
X144636629Y-101910629D01*
X144594118Y-101974251D01*
X143024251Y-103544119D01*
X142960630Y-103586629D01*
X142918119Y-103650251D01*
X142918118Y-103650252D01*
X142792213Y-103838683D01*
X142733073Y-104136000D01*
X142748001Y-104211048D01*
X142748000Y-106059041D01*
X142680977Y-106126064D01*
X142532100Y-106485484D01*
X142532100Y-106874516D01*
X142680977Y-107233936D01*
X142956064Y-107509023D01*
X143315484Y-107657900D01*
X143704516Y-107657900D01*
X143871103Y-107588897D01*
X143802100Y-107755484D01*
X143802100Y-108144516D01*
X143950977Y-108503936D01*
X144226064Y-108779023D01*
X144585484Y-108927900D01*
X144792560Y-108927900D01*
X144792560Y-109085000D01*
X144841843Y-109332765D01*
X144982191Y-109542809D01*
X145192235Y-109683157D01*
X145417678Y-109728000D01*
X142315043Y-109728000D01*
X142240000Y-109713073D01*
X142164957Y-109728000D01*
X142164952Y-109728000D01*
X141942683Y-109772212D01*
X141905485Y-109797067D01*
X141768839Y-109888371D01*
X141690629Y-109940629D01*
X141648118Y-110004251D01*
X136844370Y-114808000D01*
X129075631Y-114808000D01*
X128026030Y-113758399D01*
X128194952Y-113792000D01*
X128194956Y-113792000D01*
X128269999Y-113806927D01*
X128345042Y-113792000D01*
X128904764Y-113792000D01*
X129002191Y-113937809D01*
X129212235Y-114078157D01*
X129460000Y-114127440D01*
X130260000Y-114127440D01*
X130507765Y-114078157D01*
X130717809Y-113937809D01*
X130807013Y-113804306D01*
X130821673Y-113839698D01*
X131000301Y-114018327D01*
X131233690Y-114115000D01*
X131474250Y-114115000D01*
X131633000Y-113956250D01*
X131633000Y-113157000D01*
X131887000Y-113157000D01*
X131887000Y-113956250D01*
X132045750Y-114115000D01*
X132286310Y-114115000D01*
X132519699Y-114018327D01*
X132698327Y-113839698D01*
X132795000Y-113606309D01*
X132795000Y-113315750D01*
X132636250Y-113157000D01*
X131887000Y-113157000D01*
X131633000Y-113157000D01*
X131613000Y-113157000D01*
X131613000Y-112903000D01*
X131633000Y-112903000D01*
X131633000Y-112103750D01*
X131887000Y-112103750D01*
X131887000Y-112903000D01*
X132636250Y-112903000D01*
X132795000Y-112744250D01*
X132795000Y-112453691D01*
X132698327Y-112220302D01*
X132519699Y-112041673D01*
X132286310Y-111945000D01*
X132045750Y-111945000D01*
X131887000Y-112103750D01*
X131633000Y-112103750D01*
X131547469Y-112018219D01*
X131667809Y-111937809D01*
X131808157Y-111727765D01*
X131857440Y-111480000D01*
X131857440Y-110580000D01*
X131808157Y-110332235D01*
X131782000Y-110293089D01*
X131782000Y-109146472D01*
X131811337Y-109134320D01*
X132204320Y-108741337D01*
X132417000Y-108227881D01*
X132417000Y-107672119D01*
X132204320Y-107158663D01*
X131811337Y-106765680D01*
X131604487Y-106680000D01*
X131811337Y-106594320D01*
X132204320Y-106201337D01*
X132417000Y-105687881D01*
X132417000Y-105132119D01*
X132204320Y-104618663D01*
X131811337Y-104225680D01*
X131782000Y-104213528D01*
X131782000Y-103330047D01*
X131796928Y-103255000D01*
X131782000Y-103179952D01*
X131737788Y-102957683D01*
X131736342Y-102955519D01*
X131737440Y-102950001D01*
X131737440Y-102299999D01*
X131669127Y-101956564D01*
X131474586Y-101665414D01*
X131376687Y-101600000D01*
X131474586Y-101534586D01*
X131669127Y-101243436D01*
X131737440Y-100900001D01*
X131737440Y-100249999D01*
X131669127Y-99906564D01*
X131474586Y-99615414D01*
X131183436Y-99420873D01*
X130840001Y-99352560D01*
X129939999Y-99352560D01*
X129596564Y-99420873D01*
X129305414Y-99615414D01*
X129173391Y-99813000D01*
X128890959Y-99813000D01*
X128823936Y-99745977D01*
X128464516Y-99597100D01*
X128075484Y-99597100D01*
X127716064Y-99745977D01*
X127649041Y-99813000D01*
X126946609Y-99813000D01*
X126814586Y-99615414D01*
X126523436Y-99420873D01*
X126180001Y-99352560D01*
X125279999Y-99352560D01*
X124936564Y-99420873D01*
X124645414Y-99615414D01*
X124450873Y-99906564D01*
X124382560Y-100249999D01*
X124382560Y-100900001D01*
X124450873Y-101243436D01*
X124645414Y-101534586D01*
X124743313Y-101600000D01*
X124645414Y-101665414D01*
X124450873Y-101956564D01*
X124382560Y-102299999D01*
X124382560Y-102950001D01*
X124450873Y-103293436D01*
X124645414Y-103584586D01*
X124758001Y-103659814D01*
X124758000Y-104213528D01*
X124728663Y-104225680D01*
X124335680Y-104618663D01*
X124123000Y-105132119D01*
X124123000Y-105687881D01*
X124335680Y-106201337D01*
X124728663Y-106594320D01*
X124919647Y-106673428D01*
X124788857Y-106727603D01*
X124719392Y-106969787D01*
X125520000Y-107770395D01*
X126320608Y-106969787D01*
X126251143Y-106727603D01*
X126110607Y-106677465D01*
X126311337Y-106594320D01*
X126704320Y-106201337D01*
X126917000Y-105687881D01*
X126917000Y-105132119D01*
X126704320Y-104618663D01*
X126311337Y-104225680D01*
X126282000Y-104213528D01*
X126282000Y-103827151D01*
X126523436Y-103779127D01*
X126814586Y-103584586D01*
X127009127Y-103293436D01*
X127077440Y-102950001D01*
X127077440Y-102299999D01*
X127009127Y-101956564D01*
X126814586Y-101665414D01*
X126716687Y-101600000D01*
X126814586Y-101534586D01*
X126946609Y-101337000D01*
X127649041Y-101337000D01*
X127716064Y-101404023D01*
X128075484Y-101552900D01*
X128464516Y-101552900D01*
X128823936Y-101404023D01*
X128890959Y-101337000D01*
X129173391Y-101337000D01*
X129305414Y-101534586D01*
X129403313Y-101600000D01*
X129305414Y-101665414D01*
X129110873Y-101956564D01*
X129042560Y-102299999D01*
X129042560Y-102950001D01*
X129110873Y-103293436D01*
X129305414Y-103584586D01*
X129596564Y-103779127D01*
X129939999Y-103847440D01*
X130258001Y-103847440D01*
X130258001Y-104213528D01*
X130228663Y-104225680D01*
X129835680Y-104618663D01*
X129623000Y-105132119D01*
X129623000Y-105687881D01*
X129835680Y-106201337D01*
X130228663Y-106594320D01*
X130435513Y-106680000D01*
X130228663Y-106765680D01*
X129835680Y-107158663D01*
X129623000Y-107672119D01*
X129623000Y-108227881D01*
X129835680Y-108741337D01*
X130228663Y-109134320D01*
X130258000Y-109146472D01*
X130258001Y-109962794D01*
X130162235Y-109981843D01*
X129952191Y-110122191D01*
X129811843Y-110332235D01*
X129762560Y-110580000D01*
X129762560Y-111480000D01*
X129811843Y-111727765D01*
X129948684Y-111932560D01*
X129460000Y-111932560D01*
X129212235Y-111981843D01*
X129002191Y-112122191D01*
X128904764Y-112268000D01*
X128585631Y-112268000D01*
X128222440Y-111904809D01*
X128222440Y-111309999D01*
X128154127Y-110966564D01*
X127959586Y-110675414D01*
X127668436Y-110480873D01*
X127325001Y-110412560D01*
X126674999Y-110412560D01*
X126331564Y-110480873D01*
X126040414Y-110675414D01*
X125975000Y-110773313D01*
X125909586Y-110675414D01*
X125618436Y-110480873D01*
X125275001Y-110412560D01*
X124624999Y-110412560D01*
X124281564Y-110480873D01*
X123990414Y-110675414D01*
X123795873Y-110966564D01*
X123727560Y-111309999D01*
X123727560Y-112210001D01*
X123795873Y-112553436D01*
X123990414Y-112844586D01*
X124281564Y-113039127D01*
X124624999Y-113107440D01*
X125219810Y-113107440D01*
X128168118Y-116055749D01*
X128210629Y-116119371D01*
X128462683Y-116287788D01*
X128684952Y-116332000D01*
X128684953Y-116332000D01*
X128760000Y-116346928D01*
X128835047Y-116332000D01*
X137084957Y-116332000D01*
X137160000Y-116346927D01*
X137235043Y-116332000D01*
X137235048Y-116332000D01*
X137457317Y-116287788D01*
X137709371Y-116119371D01*
X137751883Y-116055747D01*
X141858499Y-111949131D01*
X141783374Y-112061565D01*
X141715060Y-112405000D01*
X141715060Y-113655000D01*
X141783374Y-113998435D01*
X141977914Y-114289586D01*
X142269065Y-114484126D01*
X142313001Y-114492865D01*
X142313001Y-115059952D01*
X142298073Y-115135000D01*
X142357213Y-115432317D01*
X142449210Y-115570000D01*
X142525630Y-115684371D01*
X142589251Y-115726881D01*
X143557560Y-116695191D01*
X143557560Y-117290001D01*
X143625873Y-117633436D01*
X143820414Y-117924586D01*
X144111564Y-118119127D01*
X144454999Y-118187440D01*
X145105001Y-118187440D01*
X145448436Y-118119127D01*
X145739586Y-117924586D01*
X145740377Y-117923403D01*
X145895302Y-118078327D01*
X146128691Y-118175000D01*
X146544250Y-118175000D01*
X146703000Y-118016250D01*
X146703000Y-116967000D01*
X146957000Y-116967000D01*
X146957000Y-118016250D01*
X147115750Y-118175000D01*
X147531309Y-118175000D01*
X147764698Y-118078327D01*
X147943327Y-117899699D01*
X148040000Y-117666310D01*
X148040000Y-117125750D01*
X147881250Y-116967000D01*
X146957000Y-116967000D01*
X146703000Y-116967000D01*
X146683000Y-116967000D01*
X146683000Y-116713000D01*
X146703000Y-116713000D01*
X146703000Y-115663750D01*
X146957000Y-115663750D01*
X146957000Y-116713000D01*
X147881250Y-116713000D01*
X148040000Y-116554250D01*
X148040000Y-116013690D01*
X147943327Y-115780301D01*
X147764698Y-115601673D01*
X147531309Y-115505000D01*
X147115750Y-115505000D01*
X146957000Y-115663750D01*
X146703000Y-115663750D01*
X146544250Y-115505000D01*
X146128691Y-115505000D01*
X145895302Y-115601673D01*
X145740377Y-115756597D01*
X145739586Y-115755414D01*
X145448436Y-115560873D01*
X145105001Y-115492560D01*
X144510191Y-115492560D01*
X143837000Y-114819370D01*
X143837000Y-114492865D01*
X143880935Y-114484126D01*
X144172086Y-114289586D01*
X144366626Y-113998435D01*
X144434940Y-113655000D01*
X144434940Y-112405000D01*
X144366626Y-112061565D01*
X144172086Y-111770414D01*
X143880935Y-111575874D01*
X143537500Y-111507560D01*
X142612500Y-111507560D01*
X142269065Y-111575874D01*
X142156632Y-111650999D01*
X142555631Y-111252000D01*
X145288000Y-111252000D01*
X145288000Y-111567135D01*
X145244065Y-111575874D01*
X144952914Y-111770414D01*
X144758374Y-112061565D01*
X144690060Y-112405000D01*
X144690060Y-113655000D01*
X144758374Y-113998435D01*
X144952914Y-114289586D01*
X145244065Y-114484126D01*
X145587500Y-114552440D01*
X146512500Y-114552440D01*
X146855935Y-114484126D01*
X147147086Y-114289586D01*
X147341626Y-113998435D01*
X147380000Y-113805517D01*
X147380000Y-113856310D01*
X147476673Y-114089699D01*
X147655302Y-114268327D01*
X147888691Y-114365000D01*
X148304250Y-114365000D01*
X148463000Y-114206250D01*
X148463000Y-113157000D01*
X148443000Y-113157000D01*
X148443000Y-112903000D01*
X148463000Y-112903000D01*
X148463000Y-112883000D01*
X148717000Y-112883000D01*
X148717000Y-112903000D01*
X148737000Y-112903000D01*
X148737000Y-113157000D01*
X148717000Y-113157000D01*
X148717000Y-114206250D01*
X148875750Y-114365000D01*
X149291309Y-114365000D01*
X149524698Y-114268327D01*
X149679623Y-114113403D01*
X149680414Y-114114586D01*
X149971564Y-114309127D01*
X150070163Y-114328739D01*
X150090630Y-114359371D01*
X150152100Y-114400444D01*
X150152100Y-114494516D01*
X150300977Y-114853936D01*
X150576064Y-115129023D01*
X150935484Y-115277900D01*
X151324516Y-115277900D01*
X151638000Y-115148050D01*
X151638000Y-115254369D01*
X143153370Y-123739000D01*
X130068630Y-123739000D01*
X130665191Y-123142440D01*
X131260001Y-123142440D01*
X131603436Y-123074127D01*
X131894586Y-122879586D01*
X132020688Y-122690862D01*
X132061843Y-122897765D01*
X132202191Y-123107809D01*
X132412235Y-123248157D01*
X132660000Y-123297440D01*
X135160000Y-123297440D01*
X135407765Y-123248157D01*
X135617809Y-123107809D01*
X135758157Y-122897765D01*
X135807440Y-122650000D01*
X135807440Y-122284996D01*
X135870000Y-122297440D01*
X139870000Y-122297440D01*
X140117765Y-122248157D01*
X140327809Y-122107809D01*
X140468157Y-121897765D01*
X140500591Y-121734705D01*
X140791564Y-121929127D01*
X141134999Y-121997440D01*
X141785001Y-121997440D01*
X142128436Y-121929127D01*
X142419586Y-121734586D01*
X142420377Y-121733403D01*
X142575302Y-121888327D01*
X142808691Y-121985000D01*
X143224250Y-121985000D01*
X143383000Y-121826250D01*
X143383000Y-120777000D01*
X143637000Y-120777000D01*
X143637000Y-121826250D01*
X143795750Y-121985000D01*
X144211309Y-121985000D01*
X144444698Y-121888327D01*
X144623327Y-121709699D01*
X144720000Y-121476310D01*
X144720000Y-120935750D01*
X144561250Y-120777000D01*
X143637000Y-120777000D01*
X143383000Y-120777000D01*
X143363000Y-120777000D01*
X143363000Y-120523000D01*
X143383000Y-120523000D01*
X143383000Y-119473750D01*
X143637000Y-119473750D01*
X143637000Y-120523000D01*
X144561250Y-120523000D01*
X144720000Y-120364250D01*
X144720000Y-119823690D01*
X144623327Y-119590301D01*
X144444698Y-119411673D01*
X144211309Y-119315000D01*
X143795750Y-119315000D01*
X143637000Y-119473750D01*
X143383000Y-119473750D01*
X143224250Y-119315000D01*
X142808691Y-119315000D01*
X142575302Y-119411673D01*
X142420377Y-119566597D01*
X142419586Y-119565414D01*
X142222000Y-119433391D01*
X142222000Y-119205630D01*
X142339730Y-119087900D01*
X142434516Y-119087900D01*
X142793936Y-118939023D01*
X143069023Y-118663936D01*
X143217900Y-118304516D01*
X143217900Y-117915484D01*
X143069023Y-117556064D01*
X142793936Y-117280977D01*
X142434516Y-117132100D01*
X142045484Y-117132100D01*
X141686064Y-117280977D01*
X141410977Y-117556064D01*
X141262100Y-117915484D01*
X141262100Y-118010270D01*
X140974251Y-118298119D01*
X140910630Y-118340629D01*
X140868119Y-118404251D01*
X140868118Y-118404252D01*
X140742213Y-118592683D01*
X140683073Y-118890000D01*
X140698001Y-118965048D01*
X140698001Y-119433390D01*
X140500591Y-119565295D01*
X140468157Y-119402235D01*
X140327809Y-119192191D01*
X140117765Y-119051843D01*
X139870000Y-119002560D01*
X135870000Y-119002560D01*
X135807915Y-119014909D01*
X135769355Y-119014869D01*
X135749671Y-119022998D01*
X135636252Y-119022998D01*
X135795000Y-118864250D01*
X135795000Y-118523691D01*
X135698327Y-118290302D01*
X135519699Y-118111673D01*
X135286310Y-118015000D01*
X134195750Y-118015000D01*
X134037000Y-118173750D01*
X134037000Y-119023000D01*
X134057000Y-119023000D01*
X134057000Y-119277000D01*
X134037000Y-119277000D01*
X134037000Y-119297000D01*
X133783000Y-119297000D01*
X133783000Y-119277000D01*
X133763000Y-119277000D01*
X133763000Y-119023000D01*
X133783000Y-119023000D01*
X133783000Y-118173750D01*
X133624250Y-118015000D01*
X132533690Y-118015000D01*
X132300301Y-118111673D01*
X132121673Y-118290302D01*
X132025000Y-118523691D01*
X132025000Y-118864250D01*
X132183748Y-119022998D01*
X132084652Y-119022998D01*
X132048327Y-118935302D01*
X131869699Y-118756673D01*
X131636310Y-118660000D01*
X131095750Y-118660000D01*
X130937000Y-118818750D01*
X130937000Y-119743000D01*
X130957000Y-119743000D01*
X130957000Y-119997000D01*
X130937000Y-119997000D01*
X130937000Y-120017000D01*
X130683000Y-120017000D01*
X130683000Y-119997000D01*
X129633750Y-119997000D01*
X129475000Y-120155750D01*
X129475000Y-120571309D01*
X129571673Y-120804698D01*
X129726597Y-120959623D01*
X129725414Y-120960414D01*
X129530873Y-121251564D01*
X129462560Y-121594999D01*
X129462560Y-122189809D01*
X129000000Y-122652370D01*
X129000000Y-122603998D01*
X128980000Y-122603998D01*
X128980000Y-122586750D01*
X128900069Y-122506819D01*
X128958803Y-122421256D01*
X128954006Y-122382474D01*
X128834696Y-122160554D01*
X128980000Y-122015250D01*
X128980000Y-121174691D01*
X128883327Y-120941302D01*
X128704699Y-120762673D01*
X128471310Y-120666000D01*
X127880750Y-120666000D01*
X127722000Y-120824750D01*
X127722000Y-122174000D01*
X127742000Y-122174000D01*
X127742000Y-122428000D01*
X127722000Y-122428000D01*
X127722000Y-122448000D01*
X127488000Y-122448000D01*
X127488000Y-121700852D01*
X127468000Y-121684207D01*
X127468000Y-120824750D01*
X127309250Y-120666000D01*
X126801488Y-120666000D01*
X126771310Y-120653500D01*
X126580750Y-120653500D01*
X126422000Y-120812250D01*
X126422000Y-120825974D01*
X126306673Y-120941302D01*
X126236382Y-121111000D01*
X126168000Y-121111000D01*
X126168000Y-120812250D01*
X126009250Y-120653500D01*
X125818690Y-120653500D01*
X125585301Y-120750173D01*
X125406673Y-120928802D01*
X125310129Y-121161879D01*
X125259250Y-121111000D01*
X124418690Y-121111000D01*
X124326064Y-121149367D01*
X124282117Y-121117327D01*
X123795241Y-121276982D01*
X123406524Y-121610804D01*
X123175144Y-122067971D01*
X123172090Y-122091600D01*
X123295776Y-122294000D01*
X124762000Y-122294000D01*
X124762000Y-122548000D01*
X123295776Y-122548000D01*
X123172090Y-122750400D01*
X123175144Y-122774029D01*
X123209039Y-122841000D01*
X122968691Y-122841000D01*
X122735302Y-122937673D01*
X122655000Y-123017975D01*
X122655000Y-119168691D01*
X129475000Y-119168691D01*
X129475000Y-119584250D01*
X129633750Y-119743000D01*
X130683000Y-119743000D01*
X130683000Y-118818750D01*
X130524250Y-118660000D01*
X129983690Y-118660000D01*
X129750301Y-118756673D01*
X129571673Y-118935302D01*
X129475000Y-119168691D01*
X122655000Y-119168691D01*
X122655000Y-108930213D01*
X124719392Y-108930213D01*
X124788857Y-109172397D01*
X125312302Y-109359144D01*
X125867368Y-109331362D01*
X126251143Y-109172397D01*
X126320608Y-108930213D01*
X125520000Y-108129605D01*
X124719392Y-108930213D01*
X122655000Y-108930213D01*
X122655000Y-107742302D01*
X124110856Y-107742302D01*
X124138638Y-108297368D01*
X124297603Y-108681143D01*
X124539787Y-108750608D01*
X125340395Y-107950000D01*
X125699605Y-107950000D01*
X126500213Y-108750608D01*
X126742397Y-108681143D01*
X126929144Y-108157698D01*
X126901362Y-107602632D01*
X126742397Y-107218857D01*
X126500213Y-107149392D01*
X125699605Y-107950000D01*
X125340395Y-107950000D01*
X124539787Y-107149392D01*
X124297603Y-107218857D01*
X124110856Y-107742302D01*
X122655000Y-107742302D01*
X122655000Y-73215431D01*
X123495000Y-73215431D01*
X123495000Y-74104569D01*
X123835259Y-74926026D01*
X124463974Y-75554741D01*
X125285431Y-75895000D01*
X126174569Y-75895000D01*
X126996026Y-75554741D01*
X127624741Y-74926026D01*
X127965000Y-74104569D01*
X127965000Y-73215431D01*
X127624741Y-72393974D01*
X126996026Y-71765259D01*
X126174569Y-71425000D01*
X125285431Y-71425000D01*
X124463974Y-71765259D01*
X123835259Y-72393974D01*
X123495000Y-73215431D01*
X122655000Y-73215431D01*
X122655000Y-70585000D01*
X174525000Y-70585000D01*
X174525001Y-142775000D01*
G36*
X124472000Y-124064000D02*
X124492000Y-124064000D01*
X124492000Y-124318000D01*
X124472000Y-124318000D01*
X124472000Y-125984000D01*
X124492000Y-125984000D01*
X124492000Y-126238000D01*
X124472000Y-126238000D01*
X124472000Y-126258000D01*
X124218000Y-126258000D01*
X124218000Y-126238000D01*
X124198000Y-126238000D01*
X124198000Y-125984000D01*
X124218000Y-125984000D01*
X124218000Y-124318000D01*
X124198000Y-124318000D01*
X124198000Y-124064000D01*
X124218000Y-124064000D01*
X124218000Y-124044000D01*
X124472000Y-124044000D01*
X124472000Y-124064000D01*
X124472000Y-124064000D01*
G37*
X124472000Y-124064000D02*
X124492000Y-124064000D01*
X124492000Y-124318000D01*
X124472000Y-124318000D01*
X124472000Y-125984000D01*
X124492000Y-125984000D01*
X124492000Y-126238000D01*
X124472000Y-126238000D01*
X124472000Y-126258000D01*
X124218000Y-126258000D01*
X124218000Y-126238000D01*
X124198000Y-126238000D01*
X124198000Y-125984000D01*
X124218000Y-125984000D01*
X124218000Y-124318000D01*
X124198000Y-124318000D01*
X124198000Y-124064000D01*
X124218000Y-124064000D01*
X124218000Y-124044000D01*
X124472000Y-124044000D01*
X124472000Y-124064000D01*
G36*
X148153001Y-111229952D02*
X148138073Y-111305000D01*
X148197213Y-111602317D01*
X148259142Y-111695000D01*
X147888691Y-111695000D01*
X147655302Y-111791673D01*
X147476673Y-111970301D01*
X147380000Y-112203690D01*
X147380000Y-112254483D01*
X147341626Y-112061565D01*
X147147086Y-111770414D01*
X146855935Y-111575874D01*
X146812000Y-111567135D01*
X146812000Y-111219630D01*
X148100749Y-109930882D01*
X148153001Y-109895969D01*
X148153001Y-111229952D01*
X148153001Y-111229952D01*
G37*
X148153001Y-111229952D02*
X148138073Y-111305000D01*
X148197213Y-111602317D01*
X148259142Y-111695000D01*
X147888691Y-111695000D01*
X147655302Y-111791673D01*
X147476673Y-111970301D01*
X147380000Y-112203690D01*
X147380000Y-112254483D01*
X147341626Y-112061565D01*
X147147086Y-111770414D01*
X146855935Y-111575874D01*
X146812000Y-111567135D01*
X146812000Y-111219630D01*
X148100749Y-109930882D01*
X148153001Y-109895969D01*
X148153001Y-111229952D01*
G04 #@! TD*
M02*
