M48
;DRILL file {KiCad 5.0.0-fee4fd1~66~ubuntu16.04.1} date Tue Oct 30 04:04:06 2018
;FORMAT={2:4/ absolute / inch / suppress trailing zeros}
FMAT,2
INCH,LZ
T1C0.0130
T2C0.0256
T3C0.0276
T4C0.0300
T5C0.0315
T6C0.0394
T7C0.1181
%
G90
G05
M72
T1
X0505Y-039596
X056Y-0465
X056096Y-054
X0565Y-042
X057Y-0425
X057Y-054
X057411Y-040819
X0575Y-042
X058Y-041
X0585Y-0395
X059Y-041
X059Y-048
X0595Y-045
X06Y-039
X060904Y-03
X063Y-038
X0665Y-0375
X0665Y-044404
T4
X065417Y-0415
X065417Y-0425
X067583Y-0415
X067583Y-0425
X058Y-028917
X058Y-031083
X059Y-028917
X059Y-031083
X058Y-052917
X058Y-055083
X059Y-052917
X059Y-055083
X049417Y-0415
X049417Y-0425
X051583Y-0415
X051583Y-0425
T5
X058079Y-038
X06Y-038
T6
X0655Y-031
X0655Y-032
X0655Y-033
X0655Y-034
X0655Y-035
X0655Y-036
T7
X0675Y-055
X0675Y-029
X0495Y-029
X0495Y-055
T2
X050163Y-048319G85X050321Y-048319
G05
X050163Y-050225G85X050321Y-050225
G05
T3
X048963Y-048197G85X049159Y-048197
G05
X048963Y-050347G85X049159Y-050347
G05
T0
M30
