G04 #@! TF.GenerationSoftware,KiCad,Pcbnew,5.0.0-fee4fd1~66~ubuntu16.04.1*
G04 #@! TF.CreationDate,2018-09-19T03:43:27-04:00*
G04 #@! TF.ProjectId,quadrant,7175616472616E742E6B696361645F70,rev?*
G04 #@! TF.SameCoordinates,Original*
G04 #@! TF.FileFunction,Soldermask,Top*
G04 #@! TF.FilePolarity,Negative*
%FSLAX46Y46*%
G04 Gerber Fmt 4.6, Leading zero omitted, Abs format (unit mm)*
G04 Created by KiCad (PCBNEW 5.0.0-fee4fd1~66~ubuntu16.04.1) date Wed Sep 19 03:43:27 2018*
%MOMM*%
%LPD*%
G01*
G04 APERTURE LIST*
%ADD10C,1.924000*%
%ADD11O,2.100000X2.100000*%
%ADD12R,2.100000X2.100000*%
%ADD13R,2.900000X1.830000*%
%ADD14O,2.100000X1.750000*%
%ADD15O,1.900000X1.500000*%
%ADD16R,2.050000X0.800000*%
%ADD17R,1.900000X2.400000*%
%ADD18R,1.100000X2.225000*%
%ADD19R,2.400000X1.750000*%
%ADD20C,0.100000*%
%ADD21C,1.825000*%
%ADD22R,1.850000X0.850000*%
%ADD23C,1.150000*%
%ADD24R,4.400000X2.400000*%
%ADD25R,2.900000X1.400000*%
%ADD26R,1.700000X1.700000*%
%ADD27C,1.700000*%
G04 APERTURE END LIST*
D10*
G04 #@! TO.C,D1*
X149860000Y-73450000D03*
X149860000Y-78950000D03*
X147320000Y-73450000D03*
X147320000Y-78950000D03*
G04 #@! TD*
G04 #@! TO.C,D2*
X125520000Y-105410000D03*
X131020000Y-105410000D03*
X125520000Y-107950000D03*
X131020000Y-107950000D03*
G04 #@! TD*
G04 #@! TO.C,D3*
X147320000Y-139910000D03*
X147320000Y-134410000D03*
X149860000Y-139910000D03*
X149860000Y-134410000D03*
G04 #@! TD*
G04 #@! TO.C,D4*
X171660000Y-107950000D03*
X166160000Y-107950000D03*
X171660000Y-105410000D03*
X166160000Y-105410000D03*
G04 #@! TD*
D11*
G04 #@! TO.C,J1*
X166370000Y-90170000D03*
X166370000Y-87630000D03*
X166370000Y-85090000D03*
X166370000Y-82550000D03*
X166370000Y-80010000D03*
D12*
X166370000Y-77470000D03*
G04 #@! TD*
D13*
G04 #@! TO.C,J2*
X124345000Y-126111000D03*
X124345000Y-124191000D03*
D14*
X124615000Y-127881000D03*
X124615000Y-122421000D03*
D15*
X127615000Y-127571000D03*
X127615000Y-122731000D03*
D16*
X127495000Y-126451000D03*
X127495000Y-125801000D03*
X127495000Y-125151000D03*
X127495000Y-124501000D03*
X127495000Y-123851000D03*
D17*
X127615000Y-128051000D03*
X127595000Y-122301000D03*
D18*
X126295000Y-128151000D03*
X126295000Y-122201000D03*
D19*
X125545000Y-122421000D03*
X125545000Y-127901000D03*
G04 #@! TD*
D20*
G04 #@! TO.C,R1*
G36*
X147943707Y-82746542D02*
X147974787Y-82751152D01*
X148005266Y-82758787D01*
X148034850Y-82769372D01*
X148063254Y-82782806D01*
X148090204Y-82798959D01*
X148115442Y-82817677D01*
X148138723Y-82838777D01*
X148159823Y-82862058D01*
X148178541Y-82887296D01*
X148194694Y-82914246D01*
X148208128Y-82942650D01*
X148218713Y-82972234D01*
X148226348Y-83002713D01*
X148230958Y-83033793D01*
X148232500Y-83065176D01*
X148232500Y-84574824D01*
X148230958Y-84606207D01*
X148226348Y-84637287D01*
X148218713Y-84667766D01*
X148208128Y-84697350D01*
X148194694Y-84725754D01*
X148178541Y-84752704D01*
X148159823Y-84777942D01*
X148138723Y-84801223D01*
X148115442Y-84822323D01*
X148090204Y-84841041D01*
X148063254Y-84857194D01*
X148034850Y-84870628D01*
X148005266Y-84881213D01*
X147974787Y-84888848D01*
X147943707Y-84893458D01*
X147912324Y-84895000D01*
X146727676Y-84895000D01*
X146696293Y-84893458D01*
X146665213Y-84888848D01*
X146634734Y-84881213D01*
X146605150Y-84870628D01*
X146576746Y-84857194D01*
X146549796Y-84841041D01*
X146524558Y-84822323D01*
X146501277Y-84801223D01*
X146480177Y-84777942D01*
X146461459Y-84752704D01*
X146445306Y-84725754D01*
X146431872Y-84697350D01*
X146421287Y-84667766D01*
X146413652Y-84637287D01*
X146409042Y-84606207D01*
X146407500Y-84574824D01*
X146407500Y-83065176D01*
X146409042Y-83033793D01*
X146413652Y-83002713D01*
X146421287Y-82972234D01*
X146431872Y-82942650D01*
X146445306Y-82914246D01*
X146461459Y-82887296D01*
X146480177Y-82862058D01*
X146501277Y-82838777D01*
X146524558Y-82817677D01*
X146549796Y-82798959D01*
X146576746Y-82782806D01*
X146605150Y-82769372D01*
X146634734Y-82758787D01*
X146665213Y-82751152D01*
X146696293Y-82746542D01*
X146727676Y-82745000D01*
X147912324Y-82745000D01*
X147943707Y-82746542D01*
X147943707Y-82746542D01*
G37*
D21*
X147320000Y-83820000D03*
D20*
G36*
X144968707Y-82746542D02*
X144999787Y-82751152D01*
X145030266Y-82758787D01*
X145059850Y-82769372D01*
X145088254Y-82782806D01*
X145115204Y-82798959D01*
X145140442Y-82817677D01*
X145163723Y-82838777D01*
X145184823Y-82862058D01*
X145203541Y-82887296D01*
X145219694Y-82914246D01*
X145233128Y-82942650D01*
X145243713Y-82972234D01*
X145251348Y-83002713D01*
X145255958Y-83033793D01*
X145257500Y-83065176D01*
X145257500Y-84574824D01*
X145255958Y-84606207D01*
X145251348Y-84637287D01*
X145243713Y-84667766D01*
X145233128Y-84697350D01*
X145219694Y-84725754D01*
X145203541Y-84752704D01*
X145184823Y-84777942D01*
X145163723Y-84801223D01*
X145140442Y-84822323D01*
X145115204Y-84841041D01*
X145088254Y-84857194D01*
X145059850Y-84870628D01*
X145030266Y-84881213D01*
X144999787Y-84888848D01*
X144968707Y-84893458D01*
X144937324Y-84895000D01*
X143752676Y-84895000D01*
X143721293Y-84893458D01*
X143690213Y-84888848D01*
X143659734Y-84881213D01*
X143630150Y-84870628D01*
X143601746Y-84857194D01*
X143574796Y-84841041D01*
X143549558Y-84822323D01*
X143526277Y-84801223D01*
X143505177Y-84777942D01*
X143486459Y-84752704D01*
X143470306Y-84725754D01*
X143456872Y-84697350D01*
X143446287Y-84667766D01*
X143438652Y-84637287D01*
X143434042Y-84606207D01*
X143432500Y-84574824D01*
X143432500Y-83065176D01*
X143434042Y-83033793D01*
X143438652Y-83002713D01*
X143446287Y-82972234D01*
X143456872Y-82942650D01*
X143470306Y-82914246D01*
X143486459Y-82887296D01*
X143505177Y-82862058D01*
X143526277Y-82838777D01*
X143549558Y-82817677D01*
X143574796Y-82798959D01*
X143601746Y-82782806D01*
X143630150Y-82769372D01*
X143659734Y-82758787D01*
X143690213Y-82751152D01*
X143721293Y-82746542D01*
X143752676Y-82745000D01*
X144937324Y-82745000D01*
X144968707Y-82746542D01*
X144968707Y-82746542D01*
G37*
D21*
X144345000Y-83820000D03*
G04 #@! TD*
D20*
G04 #@! TO.C,R2*
G36*
X144296207Y-72749042D02*
X144327287Y-72753652D01*
X144357766Y-72761287D01*
X144387350Y-72771872D01*
X144415754Y-72785306D01*
X144442704Y-72801459D01*
X144467942Y-72820177D01*
X144491223Y-72841277D01*
X144512323Y-72864558D01*
X144531041Y-72889796D01*
X144547194Y-72916746D01*
X144560628Y-72945150D01*
X144571213Y-72974734D01*
X144578848Y-73005213D01*
X144583458Y-73036293D01*
X144585000Y-73067676D01*
X144585000Y-74252324D01*
X144583458Y-74283707D01*
X144578848Y-74314787D01*
X144571213Y-74345266D01*
X144560628Y-74374850D01*
X144547194Y-74403254D01*
X144531041Y-74430204D01*
X144512323Y-74455442D01*
X144491223Y-74478723D01*
X144467942Y-74499823D01*
X144442704Y-74518541D01*
X144415754Y-74534694D01*
X144387350Y-74548128D01*
X144357766Y-74558713D01*
X144327287Y-74566348D01*
X144296207Y-74570958D01*
X144264824Y-74572500D01*
X142755176Y-74572500D01*
X142723793Y-74570958D01*
X142692713Y-74566348D01*
X142662234Y-74558713D01*
X142632650Y-74548128D01*
X142604246Y-74534694D01*
X142577296Y-74518541D01*
X142552058Y-74499823D01*
X142528777Y-74478723D01*
X142507677Y-74455442D01*
X142488959Y-74430204D01*
X142472806Y-74403254D01*
X142459372Y-74374850D01*
X142448787Y-74345266D01*
X142441152Y-74314787D01*
X142436542Y-74283707D01*
X142435000Y-74252324D01*
X142435000Y-73067676D01*
X142436542Y-73036293D01*
X142441152Y-73005213D01*
X142448787Y-72974734D01*
X142459372Y-72945150D01*
X142472806Y-72916746D01*
X142488959Y-72889796D01*
X142507677Y-72864558D01*
X142528777Y-72841277D01*
X142552058Y-72820177D01*
X142577296Y-72801459D01*
X142604246Y-72785306D01*
X142632650Y-72771872D01*
X142662234Y-72761287D01*
X142692713Y-72753652D01*
X142723793Y-72749042D01*
X142755176Y-72747500D01*
X144264824Y-72747500D01*
X144296207Y-72749042D01*
X144296207Y-72749042D01*
G37*
D21*
X143510000Y-73660000D03*
D20*
G36*
X144296207Y-75724042D02*
X144327287Y-75728652D01*
X144357766Y-75736287D01*
X144387350Y-75746872D01*
X144415754Y-75760306D01*
X144442704Y-75776459D01*
X144467942Y-75795177D01*
X144491223Y-75816277D01*
X144512323Y-75839558D01*
X144531041Y-75864796D01*
X144547194Y-75891746D01*
X144560628Y-75920150D01*
X144571213Y-75949734D01*
X144578848Y-75980213D01*
X144583458Y-76011293D01*
X144585000Y-76042676D01*
X144585000Y-77227324D01*
X144583458Y-77258707D01*
X144578848Y-77289787D01*
X144571213Y-77320266D01*
X144560628Y-77349850D01*
X144547194Y-77378254D01*
X144531041Y-77405204D01*
X144512323Y-77430442D01*
X144491223Y-77453723D01*
X144467942Y-77474823D01*
X144442704Y-77493541D01*
X144415754Y-77509694D01*
X144387350Y-77523128D01*
X144357766Y-77533713D01*
X144327287Y-77541348D01*
X144296207Y-77545958D01*
X144264824Y-77547500D01*
X142755176Y-77547500D01*
X142723793Y-77545958D01*
X142692713Y-77541348D01*
X142662234Y-77533713D01*
X142632650Y-77523128D01*
X142604246Y-77509694D01*
X142577296Y-77493541D01*
X142552058Y-77474823D01*
X142528777Y-77453723D01*
X142507677Y-77430442D01*
X142488959Y-77405204D01*
X142472806Y-77378254D01*
X142459372Y-77349850D01*
X142448787Y-77320266D01*
X142441152Y-77289787D01*
X142436542Y-77258707D01*
X142435000Y-77227324D01*
X142435000Y-76042676D01*
X142436542Y-76011293D01*
X142441152Y-75980213D01*
X142448787Y-75949734D01*
X142459372Y-75920150D01*
X142472806Y-75891746D01*
X142488959Y-75864796D01*
X142507677Y-75839558D01*
X142528777Y-75816277D01*
X142552058Y-75795177D01*
X142577296Y-75776459D01*
X142604246Y-75760306D01*
X142632650Y-75746872D01*
X142662234Y-75736287D01*
X142692713Y-75728652D01*
X142723793Y-75724042D01*
X142755176Y-75722500D01*
X144264824Y-75722500D01*
X144296207Y-75724042D01*
X144296207Y-75724042D01*
G37*
D21*
X143510000Y-76635000D03*
G04 #@! TD*
D20*
G04 #@! TO.C,R3*
G36*
X162076207Y-104499042D02*
X162107287Y-104503652D01*
X162137766Y-104511287D01*
X162167350Y-104521872D01*
X162195754Y-104535306D01*
X162222704Y-104551459D01*
X162247942Y-104570177D01*
X162271223Y-104591277D01*
X162292323Y-104614558D01*
X162311041Y-104639796D01*
X162327194Y-104666746D01*
X162340628Y-104695150D01*
X162351213Y-104724734D01*
X162358848Y-104755213D01*
X162363458Y-104786293D01*
X162365000Y-104817676D01*
X162365000Y-106002324D01*
X162363458Y-106033707D01*
X162358848Y-106064787D01*
X162351213Y-106095266D01*
X162340628Y-106124850D01*
X162327194Y-106153254D01*
X162311041Y-106180204D01*
X162292323Y-106205442D01*
X162271223Y-106228723D01*
X162247942Y-106249823D01*
X162222704Y-106268541D01*
X162195754Y-106284694D01*
X162167350Y-106298128D01*
X162137766Y-106308713D01*
X162107287Y-106316348D01*
X162076207Y-106320958D01*
X162044824Y-106322500D01*
X160535176Y-106322500D01*
X160503793Y-106320958D01*
X160472713Y-106316348D01*
X160442234Y-106308713D01*
X160412650Y-106298128D01*
X160384246Y-106284694D01*
X160357296Y-106268541D01*
X160332058Y-106249823D01*
X160308777Y-106228723D01*
X160287677Y-106205442D01*
X160268959Y-106180204D01*
X160252806Y-106153254D01*
X160239372Y-106124850D01*
X160228787Y-106095266D01*
X160221152Y-106064787D01*
X160216542Y-106033707D01*
X160215000Y-106002324D01*
X160215000Y-104817676D01*
X160216542Y-104786293D01*
X160221152Y-104755213D01*
X160228787Y-104724734D01*
X160239372Y-104695150D01*
X160252806Y-104666746D01*
X160268959Y-104639796D01*
X160287677Y-104614558D01*
X160308777Y-104591277D01*
X160332058Y-104570177D01*
X160357296Y-104551459D01*
X160384246Y-104535306D01*
X160412650Y-104521872D01*
X160442234Y-104511287D01*
X160472713Y-104503652D01*
X160503793Y-104499042D01*
X160535176Y-104497500D01*
X162044824Y-104497500D01*
X162076207Y-104499042D01*
X162076207Y-104499042D01*
G37*
D21*
X161290000Y-105410000D03*
D20*
G36*
X162076207Y-101524042D02*
X162107287Y-101528652D01*
X162137766Y-101536287D01*
X162167350Y-101546872D01*
X162195754Y-101560306D01*
X162222704Y-101576459D01*
X162247942Y-101595177D01*
X162271223Y-101616277D01*
X162292323Y-101639558D01*
X162311041Y-101664796D01*
X162327194Y-101691746D01*
X162340628Y-101720150D01*
X162351213Y-101749734D01*
X162358848Y-101780213D01*
X162363458Y-101811293D01*
X162365000Y-101842676D01*
X162365000Y-103027324D01*
X162363458Y-103058707D01*
X162358848Y-103089787D01*
X162351213Y-103120266D01*
X162340628Y-103149850D01*
X162327194Y-103178254D01*
X162311041Y-103205204D01*
X162292323Y-103230442D01*
X162271223Y-103253723D01*
X162247942Y-103274823D01*
X162222704Y-103293541D01*
X162195754Y-103309694D01*
X162167350Y-103323128D01*
X162137766Y-103333713D01*
X162107287Y-103341348D01*
X162076207Y-103345958D01*
X162044824Y-103347500D01*
X160535176Y-103347500D01*
X160503793Y-103345958D01*
X160472713Y-103341348D01*
X160442234Y-103333713D01*
X160412650Y-103323128D01*
X160384246Y-103309694D01*
X160357296Y-103293541D01*
X160332058Y-103274823D01*
X160308777Y-103253723D01*
X160287677Y-103230442D01*
X160268959Y-103205204D01*
X160252806Y-103178254D01*
X160239372Y-103149850D01*
X160228787Y-103120266D01*
X160221152Y-103089787D01*
X160216542Y-103058707D01*
X160215000Y-103027324D01*
X160215000Y-101842676D01*
X160216542Y-101811293D01*
X160221152Y-101780213D01*
X160228787Y-101749734D01*
X160239372Y-101720150D01*
X160252806Y-101691746D01*
X160268959Y-101664796D01*
X160287677Y-101639558D01*
X160308777Y-101616277D01*
X160332058Y-101595177D01*
X160357296Y-101576459D01*
X160384246Y-101560306D01*
X160412650Y-101546872D01*
X160442234Y-101536287D01*
X160472713Y-101528652D01*
X160503793Y-101524042D01*
X160535176Y-101522500D01*
X162044824Y-101522500D01*
X162076207Y-101524042D01*
X162076207Y-101524042D01*
G37*
D21*
X161290000Y-102435000D03*
G04 #@! TD*
D20*
G04 #@! TO.C,R4*
G36*
X172291207Y-100526542D02*
X172322287Y-100531152D01*
X172352766Y-100538787D01*
X172382350Y-100549372D01*
X172410754Y-100562806D01*
X172437704Y-100578959D01*
X172462942Y-100597677D01*
X172486223Y-100618777D01*
X172507323Y-100642058D01*
X172526041Y-100667296D01*
X172542194Y-100694246D01*
X172555628Y-100722650D01*
X172566213Y-100752234D01*
X172573848Y-100782713D01*
X172578458Y-100813793D01*
X172580000Y-100845176D01*
X172580000Y-102354824D01*
X172578458Y-102386207D01*
X172573848Y-102417287D01*
X172566213Y-102447766D01*
X172555628Y-102477350D01*
X172542194Y-102505754D01*
X172526041Y-102532704D01*
X172507323Y-102557942D01*
X172486223Y-102581223D01*
X172462942Y-102602323D01*
X172437704Y-102621041D01*
X172410754Y-102637194D01*
X172382350Y-102650628D01*
X172352766Y-102661213D01*
X172322287Y-102668848D01*
X172291207Y-102673458D01*
X172259824Y-102675000D01*
X171075176Y-102675000D01*
X171043793Y-102673458D01*
X171012713Y-102668848D01*
X170982234Y-102661213D01*
X170952650Y-102650628D01*
X170924246Y-102637194D01*
X170897296Y-102621041D01*
X170872058Y-102602323D01*
X170848777Y-102581223D01*
X170827677Y-102557942D01*
X170808959Y-102532704D01*
X170792806Y-102505754D01*
X170779372Y-102477350D01*
X170768787Y-102447766D01*
X170761152Y-102417287D01*
X170756542Y-102386207D01*
X170755000Y-102354824D01*
X170755000Y-100845176D01*
X170756542Y-100813793D01*
X170761152Y-100782713D01*
X170768787Y-100752234D01*
X170779372Y-100722650D01*
X170792806Y-100694246D01*
X170808959Y-100667296D01*
X170827677Y-100642058D01*
X170848777Y-100618777D01*
X170872058Y-100597677D01*
X170897296Y-100578959D01*
X170924246Y-100562806D01*
X170952650Y-100549372D01*
X170982234Y-100538787D01*
X171012713Y-100531152D01*
X171043793Y-100526542D01*
X171075176Y-100525000D01*
X172259824Y-100525000D01*
X172291207Y-100526542D01*
X172291207Y-100526542D01*
G37*
D21*
X171667500Y-101600000D03*
D20*
G36*
X169316207Y-100526542D02*
X169347287Y-100531152D01*
X169377766Y-100538787D01*
X169407350Y-100549372D01*
X169435754Y-100562806D01*
X169462704Y-100578959D01*
X169487942Y-100597677D01*
X169511223Y-100618777D01*
X169532323Y-100642058D01*
X169551041Y-100667296D01*
X169567194Y-100694246D01*
X169580628Y-100722650D01*
X169591213Y-100752234D01*
X169598848Y-100782713D01*
X169603458Y-100813793D01*
X169605000Y-100845176D01*
X169605000Y-102354824D01*
X169603458Y-102386207D01*
X169598848Y-102417287D01*
X169591213Y-102447766D01*
X169580628Y-102477350D01*
X169567194Y-102505754D01*
X169551041Y-102532704D01*
X169532323Y-102557942D01*
X169511223Y-102581223D01*
X169487942Y-102602323D01*
X169462704Y-102621041D01*
X169435754Y-102637194D01*
X169407350Y-102650628D01*
X169377766Y-102661213D01*
X169347287Y-102668848D01*
X169316207Y-102673458D01*
X169284824Y-102675000D01*
X168100176Y-102675000D01*
X168068793Y-102673458D01*
X168037713Y-102668848D01*
X168007234Y-102661213D01*
X167977650Y-102650628D01*
X167949246Y-102637194D01*
X167922296Y-102621041D01*
X167897058Y-102602323D01*
X167873777Y-102581223D01*
X167852677Y-102557942D01*
X167833959Y-102532704D01*
X167817806Y-102505754D01*
X167804372Y-102477350D01*
X167793787Y-102447766D01*
X167786152Y-102417287D01*
X167781542Y-102386207D01*
X167780000Y-102354824D01*
X167780000Y-100845176D01*
X167781542Y-100813793D01*
X167786152Y-100782713D01*
X167793787Y-100752234D01*
X167804372Y-100722650D01*
X167817806Y-100694246D01*
X167833959Y-100667296D01*
X167852677Y-100642058D01*
X167873777Y-100618777D01*
X167897058Y-100597677D01*
X167922296Y-100578959D01*
X167949246Y-100562806D01*
X167977650Y-100549372D01*
X168007234Y-100538787D01*
X168037713Y-100531152D01*
X168068793Y-100526542D01*
X168100176Y-100525000D01*
X169284824Y-100525000D01*
X169316207Y-100526542D01*
X169316207Y-100526542D01*
G37*
D21*
X168692500Y-101600000D03*
G04 #@! TD*
D20*
G04 #@! TO.C,R5*
G36*
X150483707Y-128466542D02*
X150514787Y-128471152D01*
X150545266Y-128478787D01*
X150574850Y-128489372D01*
X150603254Y-128502806D01*
X150630204Y-128518959D01*
X150655442Y-128537677D01*
X150678723Y-128558777D01*
X150699823Y-128582058D01*
X150718541Y-128607296D01*
X150734694Y-128634246D01*
X150748128Y-128662650D01*
X150758713Y-128692234D01*
X150766348Y-128722713D01*
X150770958Y-128753793D01*
X150772500Y-128785176D01*
X150772500Y-130294824D01*
X150770958Y-130326207D01*
X150766348Y-130357287D01*
X150758713Y-130387766D01*
X150748128Y-130417350D01*
X150734694Y-130445754D01*
X150718541Y-130472704D01*
X150699823Y-130497942D01*
X150678723Y-130521223D01*
X150655442Y-130542323D01*
X150630204Y-130561041D01*
X150603254Y-130577194D01*
X150574850Y-130590628D01*
X150545266Y-130601213D01*
X150514787Y-130608848D01*
X150483707Y-130613458D01*
X150452324Y-130615000D01*
X149267676Y-130615000D01*
X149236293Y-130613458D01*
X149205213Y-130608848D01*
X149174734Y-130601213D01*
X149145150Y-130590628D01*
X149116746Y-130577194D01*
X149089796Y-130561041D01*
X149064558Y-130542323D01*
X149041277Y-130521223D01*
X149020177Y-130497942D01*
X149001459Y-130472704D01*
X148985306Y-130445754D01*
X148971872Y-130417350D01*
X148961287Y-130387766D01*
X148953652Y-130357287D01*
X148949042Y-130326207D01*
X148947500Y-130294824D01*
X148947500Y-128785176D01*
X148949042Y-128753793D01*
X148953652Y-128722713D01*
X148961287Y-128692234D01*
X148971872Y-128662650D01*
X148985306Y-128634246D01*
X149001459Y-128607296D01*
X149020177Y-128582058D01*
X149041277Y-128558777D01*
X149064558Y-128537677D01*
X149089796Y-128518959D01*
X149116746Y-128502806D01*
X149145150Y-128489372D01*
X149174734Y-128478787D01*
X149205213Y-128471152D01*
X149236293Y-128466542D01*
X149267676Y-128465000D01*
X150452324Y-128465000D01*
X150483707Y-128466542D01*
X150483707Y-128466542D01*
G37*
D21*
X149860000Y-129540000D03*
D20*
G36*
X153458707Y-128466542D02*
X153489787Y-128471152D01*
X153520266Y-128478787D01*
X153549850Y-128489372D01*
X153578254Y-128502806D01*
X153605204Y-128518959D01*
X153630442Y-128537677D01*
X153653723Y-128558777D01*
X153674823Y-128582058D01*
X153693541Y-128607296D01*
X153709694Y-128634246D01*
X153723128Y-128662650D01*
X153733713Y-128692234D01*
X153741348Y-128722713D01*
X153745958Y-128753793D01*
X153747500Y-128785176D01*
X153747500Y-130294824D01*
X153745958Y-130326207D01*
X153741348Y-130357287D01*
X153733713Y-130387766D01*
X153723128Y-130417350D01*
X153709694Y-130445754D01*
X153693541Y-130472704D01*
X153674823Y-130497942D01*
X153653723Y-130521223D01*
X153630442Y-130542323D01*
X153605204Y-130561041D01*
X153578254Y-130577194D01*
X153549850Y-130590628D01*
X153520266Y-130601213D01*
X153489787Y-130608848D01*
X153458707Y-130613458D01*
X153427324Y-130615000D01*
X152242676Y-130615000D01*
X152211293Y-130613458D01*
X152180213Y-130608848D01*
X152149734Y-130601213D01*
X152120150Y-130590628D01*
X152091746Y-130577194D01*
X152064796Y-130561041D01*
X152039558Y-130542323D01*
X152016277Y-130521223D01*
X151995177Y-130497942D01*
X151976459Y-130472704D01*
X151960306Y-130445754D01*
X151946872Y-130417350D01*
X151936287Y-130387766D01*
X151928652Y-130357287D01*
X151924042Y-130326207D01*
X151922500Y-130294824D01*
X151922500Y-128785176D01*
X151924042Y-128753793D01*
X151928652Y-128722713D01*
X151936287Y-128692234D01*
X151946872Y-128662650D01*
X151960306Y-128634246D01*
X151976459Y-128607296D01*
X151995177Y-128582058D01*
X152016277Y-128558777D01*
X152039558Y-128537677D01*
X152064796Y-128518959D01*
X152091746Y-128502806D01*
X152120150Y-128489372D01*
X152149734Y-128478787D01*
X152180213Y-128471152D01*
X152211293Y-128466542D01*
X152242676Y-128465000D01*
X153427324Y-128465000D01*
X153458707Y-128466542D01*
X153458707Y-128466542D01*
G37*
D21*
X152835000Y-129540000D03*
G04 #@! TD*
D20*
G04 #@! TO.C,R6*
G36*
X154456207Y-138789042D02*
X154487287Y-138793652D01*
X154517766Y-138801287D01*
X154547350Y-138811872D01*
X154575754Y-138825306D01*
X154602704Y-138841459D01*
X154627942Y-138860177D01*
X154651223Y-138881277D01*
X154672323Y-138904558D01*
X154691041Y-138929796D01*
X154707194Y-138956746D01*
X154720628Y-138985150D01*
X154731213Y-139014734D01*
X154738848Y-139045213D01*
X154743458Y-139076293D01*
X154745000Y-139107676D01*
X154745000Y-140292324D01*
X154743458Y-140323707D01*
X154738848Y-140354787D01*
X154731213Y-140385266D01*
X154720628Y-140414850D01*
X154707194Y-140443254D01*
X154691041Y-140470204D01*
X154672323Y-140495442D01*
X154651223Y-140518723D01*
X154627942Y-140539823D01*
X154602704Y-140558541D01*
X154575754Y-140574694D01*
X154547350Y-140588128D01*
X154517766Y-140598713D01*
X154487287Y-140606348D01*
X154456207Y-140610958D01*
X154424824Y-140612500D01*
X152915176Y-140612500D01*
X152883793Y-140610958D01*
X152852713Y-140606348D01*
X152822234Y-140598713D01*
X152792650Y-140588128D01*
X152764246Y-140574694D01*
X152737296Y-140558541D01*
X152712058Y-140539823D01*
X152688777Y-140518723D01*
X152667677Y-140495442D01*
X152648959Y-140470204D01*
X152632806Y-140443254D01*
X152619372Y-140414850D01*
X152608787Y-140385266D01*
X152601152Y-140354787D01*
X152596542Y-140323707D01*
X152595000Y-140292324D01*
X152595000Y-139107676D01*
X152596542Y-139076293D01*
X152601152Y-139045213D01*
X152608787Y-139014734D01*
X152619372Y-138985150D01*
X152632806Y-138956746D01*
X152648959Y-138929796D01*
X152667677Y-138904558D01*
X152688777Y-138881277D01*
X152712058Y-138860177D01*
X152737296Y-138841459D01*
X152764246Y-138825306D01*
X152792650Y-138811872D01*
X152822234Y-138801287D01*
X152852713Y-138793652D01*
X152883793Y-138789042D01*
X152915176Y-138787500D01*
X154424824Y-138787500D01*
X154456207Y-138789042D01*
X154456207Y-138789042D01*
G37*
D21*
X153670000Y-139700000D03*
D20*
G36*
X154456207Y-135814042D02*
X154487287Y-135818652D01*
X154517766Y-135826287D01*
X154547350Y-135836872D01*
X154575754Y-135850306D01*
X154602704Y-135866459D01*
X154627942Y-135885177D01*
X154651223Y-135906277D01*
X154672323Y-135929558D01*
X154691041Y-135954796D01*
X154707194Y-135981746D01*
X154720628Y-136010150D01*
X154731213Y-136039734D01*
X154738848Y-136070213D01*
X154743458Y-136101293D01*
X154745000Y-136132676D01*
X154745000Y-137317324D01*
X154743458Y-137348707D01*
X154738848Y-137379787D01*
X154731213Y-137410266D01*
X154720628Y-137439850D01*
X154707194Y-137468254D01*
X154691041Y-137495204D01*
X154672323Y-137520442D01*
X154651223Y-137543723D01*
X154627942Y-137564823D01*
X154602704Y-137583541D01*
X154575754Y-137599694D01*
X154547350Y-137613128D01*
X154517766Y-137623713D01*
X154487287Y-137631348D01*
X154456207Y-137635958D01*
X154424824Y-137637500D01*
X152915176Y-137637500D01*
X152883793Y-137635958D01*
X152852713Y-137631348D01*
X152822234Y-137623713D01*
X152792650Y-137613128D01*
X152764246Y-137599694D01*
X152737296Y-137583541D01*
X152712058Y-137564823D01*
X152688777Y-137543723D01*
X152667677Y-137520442D01*
X152648959Y-137495204D01*
X152632806Y-137468254D01*
X152619372Y-137439850D01*
X152608787Y-137410266D01*
X152601152Y-137379787D01*
X152596542Y-137348707D01*
X152595000Y-137317324D01*
X152595000Y-136132676D01*
X152596542Y-136101293D01*
X152601152Y-136070213D01*
X152608787Y-136039734D01*
X152619372Y-136010150D01*
X152632806Y-135981746D01*
X152648959Y-135954796D01*
X152667677Y-135929558D01*
X152688777Y-135906277D01*
X152712058Y-135885177D01*
X152737296Y-135866459D01*
X152764246Y-135850306D01*
X152792650Y-135836872D01*
X152822234Y-135826287D01*
X152852713Y-135818652D01*
X152883793Y-135814042D01*
X152915176Y-135812500D01*
X154424824Y-135812500D01*
X154456207Y-135814042D01*
X154456207Y-135814042D01*
G37*
D21*
X153670000Y-136725000D03*
G04 #@! TD*
D20*
G04 #@! TO.C,R7*
G36*
X136676207Y-107039042D02*
X136707287Y-107043652D01*
X136737766Y-107051287D01*
X136767350Y-107061872D01*
X136795754Y-107075306D01*
X136822704Y-107091459D01*
X136847942Y-107110177D01*
X136871223Y-107131277D01*
X136892323Y-107154558D01*
X136911041Y-107179796D01*
X136927194Y-107206746D01*
X136940628Y-107235150D01*
X136951213Y-107264734D01*
X136958848Y-107295213D01*
X136963458Y-107326293D01*
X136965000Y-107357676D01*
X136965000Y-108542324D01*
X136963458Y-108573707D01*
X136958848Y-108604787D01*
X136951213Y-108635266D01*
X136940628Y-108664850D01*
X136927194Y-108693254D01*
X136911041Y-108720204D01*
X136892323Y-108745442D01*
X136871223Y-108768723D01*
X136847942Y-108789823D01*
X136822704Y-108808541D01*
X136795754Y-108824694D01*
X136767350Y-108838128D01*
X136737766Y-108848713D01*
X136707287Y-108856348D01*
X136676207Y-108860958D01*
X136644824Y-108862500D01*
X135135176Y-108862500D01*
X135103793Y-108860958D01*
X135072713Y-108856348D01*
X135042234Y-108848713D01*
X135012650Y-108838128D01*
X134984246Y-108824694D01*
X134957296Y-108808541D01*
X134932058Y-108789823D01*
X134908777Y-108768723D01*
X134887677Y-108745442D01*
X134868959Y-108720204D01*
X134852806Y-108693254D01*
X134839372Y-108664850D01*
X134828787Y-108635266D01*
X134821152Y-108604787D01*
X134816542Y-108573707D01*
X134815000Y-108542324D01*
X134815000Y-107357676D01*
X134816542Y-107326293D01*
X134821152Y-107295213D01*
X134828787Y-107264734D01*
X134839372Y-107235150D01*
X134852806Y-107206746D01*
X134868959Y-107179796D01*
X134887677Y-107154558D01*
X134908777Y-107131277D01*
X134932058Y-107110177D01*
X134957296Y-107091459D01*
X134984246Y-107075306D01*
X135012650Y-107061872D01*
X135042234Y-107051287D01*
X135072713Y-107043652D01*
X135103793Y-107039042D01*
X135135176Y-107037500D01*
X136644824Y-107037500D01*
X136676207Y-107039042D01*
X136676207Y-107039042D01*
G37*
D21*
X135890000Y-107950000D03*
D20*
G36*
X136676207Y-110014042D02*
X136707287Y-110018652D01*
X136737766Y-110026287D01*
X136767350Y-110036872D01*
X136795754Y-110050306D01*
X136822704Y-110066459D01*
X136847942Y-110085177D01*
X136871223Y-110106277D01*
X136892323Y-110129558D01*
X136911041Y-110154796D01*
X136927194Y-110181746D01*
X136940628Y-110210150D01*
X136951213Y-110239734D01*
X136958848Y-110270213D01*
X136963458Y-110301293D01*
X136965000Y-110332676D01*
X136965000Y-111517324D01*
X136963458Y-111548707D01*
X136958848Y-111579787D01*
X136951213Y-111610266D01*
X136940628Y-111639850D01*
X136927194Y-111668254D01*
X136911041Y-111695204D01*
X136892323Y-111720442D01*
X136871223Y-111743723D01*
X136847942Y-111764823D01*
X136822704Y-111783541D01*
X136795754Y-111799694D01*
X136767350Y-111813128D01*
X136737766Y-111823713D01*
X136707287Y-111831348D01*
X136676207Y-111835958D01*
X136644824Y-111837500D01*
X135135176Y-111837500D01*
X135103793Y-111835958D01*
X135072713Y-111831348D01*
X135042234Y-111823713D01*
X135012650Y-111813128D01*
X134984246Y-111799694D01*
X134957296Y-111783541D01*
X134932058Y-111764823D01*
X134908777Y-111743723D01*
X134887677Y-111720442D01*
X134868959Y-111695204D01*
X134852806Y-111668254D01*
X134839372Y-111639850D01*
X134828787Y-111610266D01*
X134821152Y-111579787D01*
X134816542Y-111548707D01*
X134815000Y-111517324D01*
X134815000Y-110332676D01*
X134816542Y-110301293D01*
X134821152Y-110270213D01*
X134828787Y-110239734D01*
X134839372Y-110210150D01*
X134852806Y-110181746D01*
X134868959Y-110154796D01*
X134887677Y-110129558D01*
X134908777Y-110106277D01*
X134932058Y-110085177D01*
X134957296Y-110066459D01*
X134984246Y-110050306D01*
X135012650Y-110036872D01*
X135042234Y-110026287D01*
X135072713Y-110018652D01*
X135103793Y-110014042D01*
X135135176Y-110012500D01*
X136644824Y-110012500D01*
X136676207Y-110014042D01*
X136676207Y-110014042D01*
G37*
D21*
X135890000Y-110925000D03*
G04 #@! TD*
D20*
G04 #@! TO.C,R8*
G36*
X126353707Y-110686542D02*
X126384787Y-110691152D01*
X126415266Y-110698787D01*
X126444850Y-110709372D01*
X126473254Y-110722806D01*
X126500204Y-110738959D01*
X126525442Y-110757677D01*
X126548723Y-110778777D01*
X126569823Y-110802058D01*
X126588541Y-110827296D01*
X126604694Y-110854246D01*
X126618128Y-110882650D01*
X126628713Y-110912234D01*
X126636348Y-110942713D01*
X126640958Y-110973793D01*
X126642500Y-111005176D01*
X126642500Y-112514824D01*
X126640958Y-112546207D01*
X126636348Y-112577287D01*
X126628713Y-112607766D01*
X126618128Y-112637350D01*
X126604694Y-112665754D01*
X126588541Y-112692704D01*
X126569823Y-112717942D01*
X126548723Y-112741223D01*
X126525442Y-112762323D01*
X126500204Y-112781041D01*
X126473254Y-112797194D01*
X126444850Y-112810628D01*
X126415266Y-112821213D01*
X126384787Y-112828848D01*
X126353707Y-112833458D01*
X126322324Y-112835000D01*
X125137676Y-112835000D01*
X125106293Y-112833458D01*
X125075213Y-112828848D01*
X125044734Y-112821213D01*
X125015150Y-112810628D01*
X124986746Y-112797194D01*
X124959796Y-112781041D01*
X124934558Y-112762323D01*
X124911277Y-112741223D01*
X124890177Y-112717942D01*
X124871459Y-112692704D01*
X124855306Y-112665754D01*
X124841872Y-112637350D01*
X124831287Y-112607766D01*
X124823652Y-112577287D01*
X124819042Y-112546207D01*
X124817500Y-112514824D01*
X124817500Y-111005176D01*
X124819042Y-110973793D01*
X124823652Y-110942713D01*
X124831287Y-110912234D01*
X124841872Y-110882650D01*
X124855306Y-110854246D01*
X124871459Y-110827296D01*
X124890177Y-110802058D01*
X124911277Y-110778777D01*
X124934558Y-110757677D01*
X124959796Y-110738959D01*
X124986746Y-110722806D01*
X125015150Y-110709372D01*
X125044734Y-110698787D01*
X125075213Y-110691152D01*
X125106293Y-110686542D01*
X125137676Y-110685000D01*
X126322324Y-110685000D01*
X126353707Y-110686542D01*
X126353707Y-110686542D01*
G37*
D21*
X125730000Y-111760000D03*
D20*
G36*
X129328707Y-110686542D02*
X129359787Y-110691152D01*
X129390266Y-110698787D01*
X129419850Y-110709372D01*
X129448254Y-110722806D01*
X129475204Y-110738959D01*
X129500442Y-110757677D01*
X129523723Y-110778777D01*
X129544823Y-110802058D01*
X129563541Y-110827296D01*
X129579694Y-110854246D01*
X129593128Y-110882650D01*
X129603713Y-110912234D01*
X129611348Y-110942713D01*
X129615958Y-110973793D01*
X129617500Y-111005176D01*
X129617500Y-112514824D01*
X129615958Y-112546207D01*
X129611348Y-112577287D01*
X129603713Y-112607766D01*
X129593128Y-112637350D01*
X129579694Y-112665754D01*
X129563541Y-112692704D01*
X129544823Y-112717942D01*
X129523723Y-112741223D01*
X129500442Y-112762323D01*
X129475204Y-112781041D01*
X129448254Y-112797194D01*
X129419850Y-112810628D01*
X129390266Y-112821213D01*
X129359787Y-112828848D01*
X129328707Y-112833458D01*
X129297324Y-112835000D01*
X128112676Y-112835000D01*
X128081293Y-112833458D01*
X128050213Y-112828848D01*
X128019734Y-112821213D01*
X127990150Y-112810628D01*
X127961746Y-112797194D01*
X127934796Y-112781041D01*
X127909558Y-112762323D01*
X127886277Y-112741223D01*
X127865177Y-112717942D01*
X127846459Y-112692704D01*
X127830306Y-112665754D01*
X127816872Y-112637350D01*
X127806287Y-112607766D01*
X127798652Y-112577287D01*
X127794042Y-112546207D01*
X127792500Y-112514824D01*
X127792500Y-111005176D01*
X127794042Y-110973793D01*
X127798652Y-110942713D01*
X127806287Y-110912234D01*
X127816872Y-110882650D01*
X127830306Y-110854246D01*
X127846459Y-110827296D01*
X127865177Y-110802058D01*
X127886277Y-110778777D01*
X127909558Y-110757677D01*
X127934796Y-110738959D01*
X127961746Y-110722806D01*
X127990150Y-110709372D01*
X128019734Y-110698787D01*
X128050213Y-110691152D01*
X128081293Y-110686542D01*
X128112676Y-110685000D01*
X129297324Y-110685000D01*
X129328707Y-110686542D01*
X129328707Y-110686542D01*
G37*
D21*
X128705000Y-111760000D03*
G04 #@! TD*
D20*
G04 #@! TO.C,R9*
G36*
X143026207Y-91581542D02*
X143057287Y-91586152D01*
X143087766Y-91593787D01*
X143117350Y-91604372D01*
X143145754Y-91617806D01*
X143172704Y-91633959D01*
X143197942Y-91652677D01*
X143221223Y-91673777D01*
X143242323Y-91697058D01*
X143261041Y-91722296D01*
X143277194Y-91749246D01*
X143290628Y-91777650D01*
X143301213Y-91807234D01*
X143308848Y-91837713D01*
X143313458Y-91868793D01*
X143315000Y-91900176D01*
X143315000Y-93084824D01*
X143313458Y-93116207D01*
X143308848Y-93147287D01*
X143301213Y-93177766D01*
X143290628Y-93207350D01*
X143277194Y-93235754D01*
X143261041Y-93262704D01*
X143242323Y-93287942D01*
X143221223Y-93311223D01*
X143197942Y-93332323D01*
X143172704Y-93351041D01*
X143145754Y-93367194D01*
X143117350Y-93380628D01*
X143087766Y-93391213D01*
X143057287Y-93398848D01*
X143026207Y-93403458D01*
X142994824Y-93405000D01*
X141485176Y-93405000D01*
X141453793Y-93403458D01*
X141422713Y-93398848D01*
X141392234Y-93391213D01*
X141362650Y-93380628D01*
X141334246Y-93367194D01*
X141307296Y-93351041D01*
X141282058Y-93332323D01*
X141258777Y-93311223D01*
X141237677Y-93287942D01*
X141218959Y-93262704D01*
X141202806Y-93235754D01*
X141189372Y-93207350D01*
X141178787Y-93177766D01*
X141171152Y-93147287D01*
X141166542Y-93116207D01*
X141165000Y-93084824D01*
X141165000Y-91900176D01*
X141166542Y-91868793D01*
X141171152Y-91837713D01*
X141178787Y-91807234D01*
X141189372Y-91777650D01*
X141202806Y-91749246D01*
X141218959Y-91722296D01*
X141237677Y-91697058D01*
X141258777Y-91673777D01*
X141282058Y-91652677D01*
X141307296Y-91633959D01*
X141334246Y-91617806D01*
X141362650Y-91604372D01*
X141392234Y-91593787D01*
X141422713Y-91586152D01*
X141453793Y-91581542D01*
X141485176Y-91580000D01*
X142994824Y-91580000D01*
X143026207Y-91581542D01*
X143026207Y-91581542D01*
G37*
D21*
X142240000Y-92492500D03*
D20*
G36*
X143026207Y-94556542D02*
X143057287Y-94561152D01*
X143087766Y-94568787D01*
X143117350Y-94579372D01*
X143145754Y-94592806D01*
X143172704Y-94608959D01*
X143197942Y-94627677D01*
X143221223Y-94648777D01*
X143242323Y-94672058D01*
X143261041Y-94697296D01*
X143277194Y-94724246D01*
X143290628Y-94752650D01*
X143301213Y-94782234D01*
X143308848Y-94812713D01*
X143313458Y-94843793D01*
X143315000Y-94875176D01*
X143315000Y-96059824D01*
X143313458Y-96091207D01*
X143308848Y-96122287D01*
X143301213Y-96152766D01*
X143290628Y-96182350D01*
X143277194Y-96210754D01*
X143261041Y-96237704D01*
X143242323Y-96262942D01*
X143221223Y-96286223D01*
X143197942Y-96307323D01*
X143172704Y-96326041D01*
X143145754Y-96342194D01*
X143117350Y-96355628D01*
X143087766Y-96366213D01*
X143057287Y-96373848D01*
X143026207Y-96378458D01*
X142994824Y-96380000D01*
X141485176Y-96380000D01*
X141453793Y-96378458D01*
X141422713Y-96373848D01*
X141392234Y-96366213D01*
X141362650Y-96355628D01*
X141334246Y-96342194D01*
X141307296Y-96326041D01*
X141282058Y-96307323D01*
X141258777Y-96286223D01*
X141237677Y-96262942D01*
X141218959Y-96237704D01*
X141202806Y-96210754D01*
X141189372Y-96182350D01*
X141178787Y-96152766D01*
X141171152Y-96122287D01*
X141166542Y-96091207D01*
X141165000Y-96059824D01*
X141165000Y-94875176D01*
X141166542Y-94843793D01*
X141171152Y-94812713D01*
X141178787Y-94782234D01*
X141189372Y-94752650D01*
X141202806Y-94724246D01*
X141218959Y-94697296D01*
X141237677Y-94672058D01*
X141258777Y-94648777D01*
X141282058Y-94627677D01*
X141307296Y-94608959D01*
X141334246Y-94592806D01*
X141362650Y-94579372D01*
X141392234Y-94568787D01*
X141422713Y-94561152D01*
X141453793Y-94556542D01*
X141485176Y-94555000D01*
X142994824Y-94555000D01*
X143026207Y-94556542D01*
X143026207Y-94556542D01*
G37*
D21*
X142240000Y-95467500D03*
G04 #@! TD*
D22*
G04 #@! TO.C,U1*
X151540000Y-105290000D03*
X151540000Y-105940000D03*
X151540000Y-106590000D03*
X151540000Y-107240000D03*
X151540000Y-107890000D03*
X151540000Y-108540000D03*
X151540000Y-109190000D03*
X151540000Y-109840000D03*
X151540000Y-110490000D03*
X151540000Y-111140000D03*
X145640000Y-111140000D03*
X145640000Y-110490000D03*
X145640000Y-109840000D03*
X145640000Y-109190000D03*
X145640000Y-108540000D03*
X145640000Y-107890000D03*
X145640000Y-107240000D03*
X145640000Y-106590000D03*
X145640000Y-105940000D03*
X145640000Y-105290000D03*
G04 #@! TD*
D23*
G04 #@! TO.C,U2*
X135520000Y-118110000D03*
D20*
G36*
X136095000Y-119483703D02*
X134945000Y-118717037D01*
X134945000Y-117502963D01*
X136095000Y-116736297D01*
X136095000Y-119483703D01*
X136095000Y-119483703D01*
G37*
D24*
X137870000Y-118110000D03*
D25*
X133910000Y-119610000D03*
X133910000Y-118110000D03*
X133910000Y-116610000D03*
G04 #@! TD*
D26*
G04 #@! TO.C,Q1*
X147320000Y-93726000D03*
D27*
X149860000Y-93726000D03*
X148590000Y-92456000D03*
G04 #@! TD*
D20*
G04 #@! TO.C,C1*
G36*
X155726207Y-110849042D02*
X155757287Y-110853652D01*
X155787766Y-110861287D01*
X155817350Y-110871872D01*
X155845754Y-110885306D01*
X155872704Y-110901459D01*
X155897942Y-110920177D01*
X155921223Y-110941277D01*
X155942323Y-110964558D01*
X155961041Y-110989796D01*
X155977194Y-111016746D01*
X155990628Y-111045150D01*
X156001213Y-111074734D01*
X156008848Y-111105213D01*
X156013458Y-111136293D01*
X156015000Y-111167676D01*
X156015000Y-112352324D01*
X156013458Y-112383707D01*
X156008848Y-112414787D01*
X156001213Y-112445266D01*
X155990628Y-112474850D01*
X155977194Y-112503254D01*
X155961041Y-112530204D01*
X155942323Y-112555442D01*
X155921223Y-112578723D01*
X155897942Y-112599823D01*
X155872704Y-112618541D01*
X155845754Y-112634694D01*
X155817350Y-112648128D01*
X155787766Y-112658713D01*
X155757287Y-112666348D01*
X155726207Y-112670958D01*
X155694824Y-112672500D01*
X154185176Y-112672500D01*
X154153793Y-112670958D01*
X154122713Y-112666348D01*
X154092234Y-112658713D01*
X154062650Y-112648128D01*
X154034246Y-112634694D01*
X154007296Y-112618541D01*
X153982058Y-112599823D01*
X153958777Y-112578723D01*
X153937677Y-112555442D01*
X153918959Y-112530204D01*
X153902806Y-112503254D01*
X153889372Y-112474850D01*
X153878787Y-112445266D01*
X153871152Y-112414787D01*
X153866542Y-112383707D01*
X153865000Y-112352324D01*
X153865000Y-111167676D01*
X153866542Y-111136293D01*
X153871152Y-111105213D01*
X153878787Y-111074734D01*
X153889372Y-111045150D01*
X153902806Y-111016746D01*
X153918959Y-110989796D01*
X153937677Y-110964558D01*
X153958777Y-110941277D01*
X153982058Y-110920177D01*
X154007296Y-110901459D01*
X154034246Y-110885306D01*
X154062650Y-110871872D01*
X154092234Y-110861287D01*
X154122713Y-110853652D01*
X154153793Y-110849042D01*
X154185176Y-110847500D01*
X155694824Y-110847500D01*
X155726207Y-110849042D01*
X155726207Y-110849042D01*
G37*
D21*
X154940000Y-111760000D03*
D20*
G36*
X155726207Y-107874042D02*
X155757287Y-107878652D01*
X155787766Y-107886287D01*
X155817350Y-107896872D01*
X155845754Y-107910306D01*
X155872704Y-107926459D01*
X155897942Y-107945177D01*
X155921223Y-107966277D01*
X155942323Y-107989558D01*
X155961041Y-108014796D01*
X155977194Y-108041746D01*
X155990628Y-108070150D01*
X156001213Y-108099734D01*
X156008848Y-108130213D01*
X156013458Y-108161293D01*
X156015000Y-108192676D01*
X156015000Y-109377324D01*
X156013458Y-109408707D01*
X156008848Y-109439787D01*
X156001213Y-109470266D01*
X155990628Y-109499850D01*
X155977194Y-109528254D01*
X155961041Y-109555204D01*
X155942323Y-109580442D01*
X155921223Y-109603723D01*
X155897942Y-109624823D01*
X155872704Y-109643541D01*
X155845754Y-109659694D01*
X155817350Y-109673128D01*
X155787766Y-109683713D01*
X155757287Y-109691348D01*
X155726207Y-109695958D01*
X155694824Y-109697500D01*
X154185176Y-109697500D01*
X154153793Y-109695958D01*
X154122713Y-109691348D01*
X154092234Y-109683713D01*
X154062650Y-109673128D01*
X154034246Y-109659694D01*
X154007296Y-109643541D01*
X153982058Y-109624823D01*
X153958777Y-109603723D01*
X153937677Y-109580442D01*
X153918959Y-109555204D01*
X153902806Y-109528254D01*
X153889372Y-109499850D01*
X153878787Y-109470266D01*
X153871152Y-109439787D01*
X153866542Y-109408707D01*
X153865000Y-109377324D01*
X153865000Y-108192676D01*
X153866542Y-108161293D01*
X153871152Y-108130213D01*
X153878787Y-108099734D01*
X153889372Y-108070150D01*
X153902806Y-108041746D01*
X153918959Y-108014796D01*
X153937677Y-107989558D01*
X153958777Y-107966277D01*
X153982058Y-107945177D01*
X154007296Y-107926459D01*
X154034246Y-107910306D01*
X154062650Y-107896872D01*
X154092234Y-107886287D01*
X154122713Y-107878652D01*
X154153793Y-107874042D01*
X154185176Y-107872500D01*
X155694824Y-107872500D01*
X155726207Y-107874042D01*
X155726207Y-107874042D01*
G37*
D21*
X154940000Y-108785000D03*
G04 #@! TD*
D20*
G04 #@! TO.C,R10*
G36*
X143026207Y-103664042D02*
X143057287Y-103668652D01*
X143087766Y-103676287D01*
X143117350Y-103686872D01*
X143145754Y-103700306D01*
X143172704Y-103716459D01*
X143197942Y-103735177D01*
X143221223Y-103756277D01*
X143242323Y-103779558D01*
X143261041Y-103804796D01*
X143277194Y-103831746D01*
X143290628Y-103860150D01*
X143301213Y-103889734D01*
X143308848Y-103920213D01*
X143313458Y-103951293D01*
X143315000Y-103982676D01*
X143315000Y-105167324D01*
X143313458Y-105198707D01*
X143308848Y-105229787D01*
X143301213Y-105260266D01*
X143290628Y-105289850D01*
X143277194Y-105318254D01*
X143261041Y-105345204D01*
X143242323Y-105370442D01*
X143221223Y-105393723D01*
X143197942Y-105414823D01*
X143172704Y-105433541D01*
X143145754Y-105449694D01*
X143117350Y-105463128D01*
X143087766Y-105473713D01*
X143057287Y-105481348D01*
X143026207Y-105485958D01*
X142994824Y-105487500D01*
X141485176Y-105487500D01*
X141453793Y-105485958D01*
X141422713Y-105481348D01*
X141392234Y-105473713D01*
X141362650Y-105463128D01*
X141334246Y-105449694D01*
X141307296Y-105433541D01*
X141282058Y-105414823D01*
X141258777Y-105393723D01*
X141237677Y-105370442D01*
X141218959Y-105345204D01*
X141202806Y-105318254D01*
X141189372Y-105289850D01*
X141178787Y-105260266D01*
X141171152Y-105229787D01*
X141166542Y-105198707D01*
X141165000Y-105167324D01*
X141165000Y-103982676D01*
X141166542Y-103951293D01*
X141171152Y-103920213D01*
X141178787Y-103889734D01*
X141189372Y-103860150D01*
X141202806Y-103831746D01*
X141218959Y-103804796D01*
X141237677Y-103779558D01*
X141258777Y-103756277D01*
X141282058Y-103735177D01*
X141307296Y-103716459D01*
X141334246Y-103700306D01*
X141362650Y-103686872D01*
X141392234Y-103676287D01*
X141422713Y-103668652D01*
X141453793Y-103664042D01*
X141485176Y-103662500D01*
X142994824Y-103662500D01*
X143026207Y-103664042D01*
X143026207Y-103664042D01*
G37*
D21*
X142240000Y-104575000D03*
D20*
G36*
X143026207Y-100689042D02*
X143057287Y-100693652D01*
X143087766Y-100701287D01*
X143117350Y-100711872D01*
X143145754Y-100725306D01*
X143172704Y-100741459D01*
X143197942Y-100760177D01*
X143221223Y-100781277D01*
X143242323Y-100804558D01*
X143261041Y-100829796D01*
X143277194Y-100856746D01*
X143290628Y-100885150D01*
X143301213Y-100914734D01*
X143308848Y-100945213D01*
X143313458Y-100976293D01*
X143315000Y-101007676D01*
X143315000Y-102192324D01*
X143313458Y-102223707D01*
X143308848Y-102254787D01*
X143301213Y-102285266D01*
X143290628Y-102314850D01*
X143277194Y-102343254D01*
X143261041Y-102370204D01*
X143242323Y-102395442D01*
X143221223Y-102418723D01*
X143197942Y-102439823D01*
X143172704Y-102458541D01*
X143145754Y-102474694D01*
X143117350Y-102488128D01*
X143087766Y-102498713D01*
X143057287Y-102506348D01*
X143026207Y-102510958D01*
X142994824Y-102512500D01*
X141485176Y-102512500D01*
X141453793Y-102510958D01*
X141422713Y-102506348D01*
X141392234Y-102498713D01*
X141362650Y-102488128D01*
X141334246Y-102474694D01*
X141307296Y-102458541D01*
X141282058Y-102439823D01*
X141258777Y-102418723D01*
X141237677Y-102395442D01*
X141218959Y-102370204D01*
X141202806Y-102343254D01*
X141189372Y-102314850D01*
X141178787Y-102285266D01*
X141171152Y-102254787D01*
X141166542Y-102223707D01*
X141165000Y-102192324D01*
X141165000Y-101007676D01*
X141166542Y-100976293D01*
X141171152Y-100945213D01*
X141178787Y-100914734D01*
X141189372Y-100885150D01*
X141202806Y-100856746D01*
X141218959Y-100829796D01*
X141237677Y-100804558D01*
X141258777Y-100781277D01*
X141282058Y-100760177D01*
X141307296Y-100741459D01*
X141334246Y-100725306D01*
X141362650Y-100711872D01*
X141392234Y-100701287D01*
X141422713Y-100693652D01*
X141453793Y-100689042D01*
X141485176Y-100687500D01*
X142994824Y-100687500D01*
X143026207Y-100689042D01*
X143026207Y-100689042D01*
G37*
D21*
X142240000Y-101600000D03*
G04 #@! TD*
M02*
