G04 #@! TF.GenerationSoftware,KiCad,Pcbnew,5.0.0-fee4fd1~66~ubuntu16.04.1*
G04 #@! TF.CreationDate,2019-01-16T05:40:02-05:00*
G04 #@! TF.ProjectId,quadrant,7175616472616E742E6B696361645F70,rev?*
G04 #@! TF.SameCoordinates,Original*
G04 #@! TF.FileFunction,Copper,L2,Bot,Signal*
G04 #@! TF.FilePolarity,Positive*
%FSLAX46Y46*%
G04 Gerber Fmt 4.6, Leading zero omitted, Abs format (unit mm)*
G04 Created by KiCad (PCBNEW 5.0.0-fee4fd1~66~ubuntu16.04.1) date Wed Jan 16 05:40:02 2019*
%MOMM*%
%LPD*%
G01*
G04 APERTURE LIST*
G04 #@! TA.AperFunction,ComponentPad*
%ADD10O,1.700000X1.700000*%
G04 #@! TD*
G04 #@! TA.AperFunction,ComponentPad*
%ADD11R,1.700000X1.700000*%
G04 #@! TD*
G04 #@! TA.AperFunction,ComponentPad*
%ADD12O,1.700000X1.350000*%
G04 #@! TD*
G04 #@! TA.AperFunction,ComponentPad*
%ADD13O,1.500000X1.100000*%
G04 #@! TD*
G04 #@! TA.AperFunction,ComponentPad*
%ADD14C,1.500000*%
G04 #@! TD*
G04 #@! TA.AperFunction,ViaPad*
%ADD15C,0.685800*%
G04 #@! TD*
G04 #@! TA.AperFunction,Conductor*
%ADD16C,0.254000*%
G04 #@! TD*
G04 APERTURE END LIST*
D10*
G04 #@! TO.P,J1,6*
G04 #@! TO.N,GND*
X166370000Y-91200000D03*
G04 #@! TO.P,J1,5*
G04 #@! TO.N,NRST*
X166370000Y-88660000D03*
G04 #@! TO.P,J1,4*
G04 #@! TO.N,SWDIO*
X166370000Y-86120000D03*
G04 #@! TO.P,J1,3*
G04 #@! TO.N,GND*
X166370000Y-83580000D03*
G04 #@! TO.P,J1,2*
G04 #@! TO.N,SWCLK*
X166370000Y-81040000D03*
D11*
G04 #@! TO.P,J1,1*
G04 #@! TO.N,+3V3*
X166370000Y-78500000D03*
G04 #@! TD*
D12*
G04 #@! TO.P,J2,6*
G04 #@! TO.N,GND*
X124615000Y-127881000D03*
X124615000Y-122421000D03*
D13*
X127615000Y-127571000D03*
X127615000Y-122731000D03*
G04 #@! TD*
D14*
G04 #@! TO.P,Y1,1*
G04 #@! TO.N,Net-(C9-Pad1)*
X151250000Y-97250000D03*
G04 #@! TO.P,Y1,2*
G04 #@! TO.N,Net-(C10-Pad1)*
X146370000Y-97250000D03*
G04 #@! TD*
D15*
G04 #@! TO.N,GND*
X157500000Y-108000000D03*
X158000000Y-112000000D03*
X133000000Y-116000000D03*
X136750000Y-119750000D03*
G04 #@! TO.N,NRST*
X148751183Y-103871117D03*
G04 #@! TO.N,USBDM*
X148500000Y-109250000D03*
X140250000Y-118750000D03*
G04 #@! TO.N,USBDP*
X149500000Y-109250000D03*
X141500000Y-118750000D03*
G04 #@! TO.N,SWDIO*
X151000000Y-113122300D03*
G04 #@! TO.N,Net-(D1-Pad2)*
X152000000Y-79500000D03*
X146250000Y-105750000D03*
G04 #@! TO.N,Net-(D2-Pad2)*
X157500000Y-106750000D03*
X168250000Y-104000000D03*
G04 #@! TO.N,Net-(D3-Pad2)*
X151250000Y-105500000D03*
X146250000Y-130500000D03*
G04 #@! TO.N,Net-(D4-Pad2)*
X132500000Y-103500000D03*
X142750000Y-118750000D03*
G04 #@! TO.N,+2V8*
X143500000Y-77500000D03*
X152000000Y-77500000D03*
X167000000Y-101500000D03*
X167000000Y-110000000D03*
X145500000Y-116500000D03*
X130500000Y-103500000D03*
X154000000Y-114500000D03*
X130815040Y-111684960D03*
X154000000Y-136000000D03*
X136500000Y-125250000D03*
X145750000Y-135500000D03*
G04 #@! TO.N,+3V3*
X148000000Y-100250000D03*
X150500000Y-100250000D03*
G04 #@! TO.N,SCL*
X147500000Y-116500000D03*
X170000000Y-104500000D03*
X151000000Y-138000000D03*
X146500000Y-75500000D03*
X127998508Y-108868428D03*
G04 #@! TO.N,SDA*
X150000000Y-116500000D03*
X168500000Y-106500000D03*
X149000000Y-136000000D03*
X149000000Y-77000000D03*
X129000000Y-106500000D03*
X147000000Y-121000000D03*
G04 #@! TD*
D16*
G04 #@! TO.N,GND*
X158000000Y-108500000D02*
X158000000Y-112000000D01*
X157500000Y-108000000D02*
X158000000Y-108500000D01*
X133000000Y-116000000D02*
X136750000Y-119750000D01*
G04 #@! TO.N,NRST*
X163962300Y-88660000D02*
X166370000Y-88660000D01*
X148751183Y-103871117D02*
X163962300Y-88660000D01*
G04 #@! TO.N,USBDM*
X148500000Y-109250000D02*
X143250000Y-114500000D01*
X140250000Y-117500000D02*
X140250000Y-118750000D01*
X143500000Y-114250000D02*
X141250000Y-116500000D01*
X143250000Y-114500000D02*
X143500000Y-114250000D01*
X141250000Y-116500000D02*
X140250000Y-117500000D01*
G04 #@! TO.N,USBDP*
X141500000Y-117250000D02*
X141500000Y-118265067D01*
X149500000Y-109250000D02*
X141500000Y-117250000D01*
X141500000Y-118265067D02*
X141500000Y-118750000D01*
G04 #@! TO.N,SWDIO*
X167219999Y-86969999D02*
X166370000Y-86120000D01*
X151000000Y-112250000D02*
X168500000Y-94750000D01*
X168500000Y-94750000D02*
X168500000Y-88250000D01*
X151000000Y-113122300D02*
X151000000Y-112250000D01*
X168500000Y-88250000D02*
X167219999Y-86969999D01*
G04 #@! TO.N,Net-(D1-Pad2)*
X146250000Y-105265067D02*
X146250000Y-105750000D01*
X149000000Y-97500000D02*
X146250000Y-100250000D01*
X152000000Y-79500000D02*
X149000000Y-82500000D01*
X149000000Y-82500000D02*
X149000000Y-97500000D01*
X146250000Y-100250000D02*
X146250000Y-105265067D01*
G04 #@! TO.N,Net-(D2-Pad2)*
X160250000Y-104000000D02*
X167765067Y-104000000D01*
X167765067Y-104000000D02*
X168250000Y-104000000D01*
X157500000Y-106750000D02*
X160250000Y-104000000D01*
G04 #@! TO.N,Net-(D3-Pad2)*
X146592899Y-130157101D02*
X146250000Y-130500000D01*
X148750000Y-128000000D02*
X146592899Y-130157101D01*
X148750000Y-120250000D02*
X148750000Y-128000000D01*
X151250000Y-105500000D02*
X151250000Y-110500000D01*
X151250000Y-110500000D02*
X146500000Y-115250000D01*
X146500000Y-115250000D02*
X146500000Y-118000000D01*
X146500000Y-118000000D02*
X148750000Y-120250000D01*
G04 #@! TO.N,Net-(D4-Pad2)*
X142407101Y-119092899D02*
X142750000Y-118750000D01*
X132500000Y-103500000D02*
X132500000Y-112500000D01*
X132500000Y-112500000D02*
X139750000Y-119750000D01*
X139750000Y-119750000D02*
X141750000Y-119750000D01*
X141750000Y-119750000D02*
X142407101Y-119092899D01*
G04 #@! TO.N,+3V3*
X148000000Y-100250000D02*
X150500000Y-100250000D01*
G04 #@! TO.N,SCL*
X170000000Y-104984933D02*
X170000000Y-104500000D01*
X147500000Y-116500000D02*
X151500000Y-120500000D01*
X151500000Y-120500000D02*
X158000000Y-120500000D01*
X158000000Y-120500000D02*
X170000000Y-108500000D01*
X170000000Y-108500000D02*
X170000000Y-104984933D01*
X151000000Y-121000000D02*
X151500000Y-120500000D01*
X151000000Y-138000000D02*
X151000000Y-121000000D01*
X127500000Y-109366936D02*
X127655609Y-109211327D01*
X146448914Y-138000000D02*
X127500000Y-119051086D01*
X127655609Y-109211327D02*
X127998508Y-108868428D01*
X151000000Y-138000000D02*
X146448914Y-138000000D01*
X127500000Y-119051086D02*
X127500000Y-109366936D01*
X127998508Y-108868428D02*
X127998508Y-96501492D01*
X146500000Y-75984933D02*
X146500000Y-75500000D01*
X146500000Y-78000000D02*
X146500000Y-75984933D01*
X127998508Y-96501492D02*
X146500000Y-78000000D01*
G04 #@! TO.N,SDA*
X158500000Y-116500000D02*
X168500000Y-106500000D01*
X150000000Y-116500000D02*
X158500000Y-116500000D01*
X149000000Y-135750000D02*
X149000000Y-136000000D01*
X129000000Y-106500000D02*
X129000000Y-115750000D01*
X141000000Y-127750000D02*
X149000000Y-135750000D01*
X129000000Y-115750000D02*
X141000000Y-127750000D01*
X147000000Y-121750000D02*
X141000000Y-127750000D01*
X147000000Y-121000000D02*
X147000000Y-121750000D01*
X148657101Y-77342899D02*
X149000000Y-77000000D01*
X129000000Y-97000000D02*
X148657101Y-77342899D01*
X129000000Y-106500000D02*
X129000000Y-97000000D01*
G04 #@! TD*
G04 #@! TO.N,+2V8*
G36*
X174265001Y-142765000D02*
X122735000Y-142765000D01*
X122735000Y-139305431D01*
X123515000Y-139305431D01*
X123515000Y-140194569D01*
X123855259Y-141016026D01*
X124483974Y-141644741D01*
X125305431Y-141985000D01*
X126194569Y-141985000D01*
X127016026Y-141644741D01*
X127644741Y-141016026D01*
X127985000Y-140194569D01*
X127985000Y-139305431D01*
X169015000Y-139305431D01*
X169015000Y-140194569D01*
X169355259Y-141016026D01*
X169983974Y-141644741D01*
X170805431Y-141985000D01*
X171694569Y-141985000D01*
X172516026Y-141644741D01*
X173144741Y-141016026D01*
X173485000Y-140194569D01*
X173485000Y-139305431D01*
X173144741Y-138483974D01*
X172516026Y-137855259D01*
X171694569Y-137515000D01*
X170805431Y-137515000D01*
X169983974Y-137855259D01*
X169355259Y-138483974D01*
X169015000Y-139305431D01*
X127985000Y-139305431D01*
X127644741Y-138483974D01*
X127016026Y-137855259D01*
X126194569Y-137515000D01*
X125305431Y-137515000D01*
X124483974Y-137855259D01*
X123855259Y-138483974D01*
X123515000Y-139305431D01*
X122735000Y-139305431D01*
X122735000Y-127881000D01*
X123104336Y-127881000D01*
X123206007Y-128392136D01*
X123495543Y-128825457D01*
X123928864Y-129114993D01*
X124310978Y-129191000D01*
X124919022Y-129191000D01*
X125301136Y-129114993D01*
X125734457Y-128825457D01*
X126023993Y-128392136D01*
X126125664Y-127881000D01*
X126064002Y-127571000D01*
X126206785Y-127571000D01*
X126298755Y-128033364D01*
X126560663Y-128425337D01*
X126952636Y-128687245D01*
X127298290Y-128756000D01*
X127931710Y-128756000D01*
X128277364Y-128687245D01*
X128669337Y-128425337D01*
X128931245Y-128033364D01*
X129023215Y-127571000D01*
X128931245Y-127108636D01*
X128669337Y-126716663D01*
X128277364Y-126454755D01*
X127931710Y-126386000D01*
X127298290Y-126386000D01*
X126952636Y-126454755D01*
X126560663Y-126716663D01*
X126298755Y-127108636D01*
X126206785Y-127571000D01*
X126064002Y-127571000D01*
X126023993Y-127369864D01*
X125734457Y-126936543D01*
X125301136Y-126647007D01*
X124919022Y-126571000D01*
X124310978Y-126571000D01*
X123928864Y-126647007D01*
X123495543Y-126936543D01*
X123206007Y-127369864D01*
X123104336Y-127881000D01*
X122735000Y-127881000D01*
X122735000Y-122421000D01*
X123104336Y-122421000D01*
X123206007Y-122932136D01*
X123495543Y-123365457D01*
X123928864Y-123654993D01*
X124310978Y-123731000D01*
X124919022Y-123731000D01*
X125301136Y-123654993D01*
X125734457Y-123365457D01*
X126023993Y-122932136D01*
X126064001Y-122731000D01*
X126206785Y-122731000D01*
X126298755Y-123193364D01*
X126560663Y-123585337D01*
X126952636Y-123847245D01*
X127298290Y-123916000D01*
X127931710Y-123916000D01*
X128277364Y-123847245D01*
X128669337Y-123585337D01*
X128931245Y-123193364D01*
X129023215Y-122731000D01*
X128931245Y-122268636D01*
X128669337Y-121876663D01*
X128277364Y-121614755D01*
X127931710Y-121546000D01*
X127298290Y-121546000D01*
X126952636Y-121614755D01*
X126560663Y-121876663D01*
X126298755Y-122268636D01*
X126206785Y-122731000D01*
X126064001Y-122731000D01*
X126125664Y-122421000D01*
X126023993Y-121909864D01*
X125734457Y-121476543D01*
X125301136Y-121187007D01*
X124919022Y-121111000D01*
X124310978Y-121111000D01*
X123928864Y-121187007D01*
X123495543Y-121476543D01*
X123206007Y-121909864D01*
X123104336Y-122421000D01*
X122735000Y-122421000D01*
X122735000Y-109366936D01*
X126723073Y-109366936D01*
X126738001Y-109441984D01*
X126738000Y-118976043D01*
X126723073Y-119051086D01*
X126738000Y-119126129D01*
X126738000Y-119126133D01*
X126782212Y-119348402D01*
X126950629Y-119600457D01*
X127014254Y-119642970D01*
X145857032Y-138485749D01*
X145899543Y-138549371D01*
X145963165Y-138591882D01*
X146151595Y-138717787D01*
X146151596Y-138717787D01*
X146151597Y-138717788D01*
X146373866Y-138762000D01*
X146373870Y-138762000D01*
X146448913Y-138776927D01*
X146523956Y-138762000D01*
X150379041Y-138762000D01*
X150446064Y-138829023D01*
X150805484Y-138977900D01*
X151194516Y-138977900D01*
X151553936Y-138829023D01*
X151829023Y-138553936D01*
X151977900Y-138194516D01*
X151977900Y-137805484D01*
X151829023Y-137446064D01*
X151762000Y-137379041D01*
X151762000Y-121315630D01*
X151815631Y-121262000D01*
X157924957Y-121262000D01*
X158000000Y-121276927D01*
X158075043Y-121262000D01*
X158075048Y-121262000D01*
X158297317Y-121217788D01*
X158549371Y-121049371D01*
X158591884Y-120985747D01*
X170485750Y-109091881D01*
X170549371Y-109049371D01*
X170597127Y-108977900D01*
X170661747Y-108881188D01*
X170717788Y-108797317D01*
X170762000Y-108575048D01*
X170762000Y-108575047D01*
X170776928Y-108500000D01*
X170762000Y-108424952D01*
X170762000Y-105120959D01*
X170829023Y-105053936D01*
X170977900Y-104694516D01*
X170977900Y-104305484D01*
X170829023Y-103946064D01*
X170553936Y-103670977D01*
X170194516Y-103522100D01*
X169805484Y-103522100D01*
X169446064Y-103670977D01*
X169227900Y-103889141D01*
X169227900Y-103805484D01*
X169079023Y-103446064D01*
X168803936Y-103170977D01*
X168444516Y-103022100D01*
X168055484Y-103022100D01*
X167696064Y-103170977D01*
X167629041Y-103238000D01*
X161089631Y-103238000D01*
X168985750Y-95341881D01*
X169049371Y-95299371D01*
X169217788Y-95047317D01*
X169262000Y-94825048D01*
X169262000Y-94825044D01*
X169276927Y-94750001D01*
X169262000Y-94674958D01*
X169262000Y-88325047D01*
X169276928Y-88250000D01*
X169249205Y-88110629D01*
X169217788Y-87952683D01*
X169049371Y-87700629D01*
X168985749Y-87658118D01*
X167811883Y-86484253D01*
X167811881Y-86484250D01*
X167811679Y-86484048D01*
X167884092Y-86120000D01*
X167768839Y-85540582D01*
X167440625Y-85049375D01*
X167142239Y-84850000D01*
X167440625Y-84650625D01*
X167768839Y-84159418D01*
X167884092Y-83580000D01*
X167768839Y-83000582D01*
X167440625Y-82509375D01*
X167142239Y-82310000D01*
X167440625Y-82110625D01*
X167768839Y-81619418D01*
X167884092Y-81040000D01*
X167768839Y-80460582D01*
X167440625Y-79969375D01*
X167422381Y-79957184D01*
X167467765Y-79948157D01*
X167677809Y-79807809D01*
X167818157Y-79597765D01*
X167867440Y-79350000D01*
X167867440Y-77650000D01*
X167818157Y-77402235D01*
X167677809Y-77192191D01*
X167467765Y-77051843D01*
X167220000Y-77002560D01*
X165520000Y-77002560D01*
X165272235Y-77051843D01*
X165062191Y-77192191D01*
X164921843Y-77402235D01*
X164872560Y-77650000D01*
X164872560Y-79350000D01*
X164921843Y-79597765D01*
X165062191Y-79807809D01*
X165272235Y-79948157D01*
X165317619Y-79957184D01*
X165299375Y-79969375D01*
X164971161Y-80460582D01*
X164855908Y-81040000D01*
X164971161Y-81619418D01*
X165299375Y-82110625D01*
X165597761Y-82310000D01*
X165299375Y-82509375D01*
X164971161Y-83000582D01*
X164855908Y-83580000D01*
X164971161Y-84159418D01*
X165299375Y-84650625D01*
X165597761Y-84850000D01*
X165299375Y-85049375D01*
X164971161Y-85540582D01*
X164855908Y-86120000D01*
X164971161Y-86699418D01*
X165299375Y-87190625D01*
X165597761Y-87390000D01*
X165299375Y-87589375D01*
X165093158Y-87898000D01*
X164037343Y-87898000D01*
X163962300Y-87883073D01*
X163887257Y-87898000D01*
X163887252Y-87898000D01*
X163664983Y-87942212D01*
X163412929Y-88110629D01*
X163370418Y-88174251D01*
X151477900Y-100066770D01*
X151477900Y-100055484D01*
X151329023Y-99696064D01*
X151053936Y-99420977D01*
X150694516Y-99272100D01*
X150305484Y-99272100D01*
X149946064Y-99420977D01*
X149879041Y-99488000D01*
X148620959Y-99488000D01*
X148553936Y-99420977D01*
X148273015Y-99304615D01*
X149485749Y-98091882D01*
X149549371Y-98049371D01*
X149717788Y-97797317D01*
X149762000Y-97575048D01*
X149762000Y-97575044D01*
X149776927Y-97500001D01*
X149762000Y-97424958D01*
X149762000Y-96974506D01*
X149865000Y-96974506D01*
X149865000Y-97525494D01*
X150075853Y-98034540D01*
X150465460Y-98424147D01*
X150974506Y-98635000D01*
X151525494Y-98635000D01*
X152034540Y-98424147D01*
X152424147Y-98034540D01*
X152635000Y-97525494D01*
X152635000Y-96974506D01*
X152424147Y-96465460D01*
X152034540Y-96075853D01*
X151525494Y-95865000D01*
X150974506Y-95865000D01*
X150465460Y-96075853D01*
X150075853Y-96465460D01*
X149865000Y-96974506D01*
X149762000Y-96974506D01*
X149762000Y-82815630D01*
X152099731Y-80477900D01*
X152194516Y-80477900D01*
X152553936Y-80329023D01*
X152829023Y-80053936D01*
X152977900Y-79694516D01*
X152977900Y-79305484D01*
X152829023Y-78946064D01*
X152553936Y-78670977D01*
X152194516Y-78522100D01*
X151805484Y-78522100D01*
X151446064Y-78670977D01*
X151170977Y-78946064D01*
X151022100Y-79305484D01*
X151022100Y-79400269D01*
X148514253Y-81908117D01*
X148450629Y-81950629D01*
X148282212Y-82202684D01*
X148238000Y-82424953D01*
X148238000Y-82424957D01*
X148223073Y-82500000D01*
X148238000Y-82575043D01*
X148238001Y-97184368D01*
X147654680Y-97767690D01*
X147755000Y-97525494D01*
X147755000Y-96974506D01*
X147544147Y-96465460D01*
X147154540Y-96075853D01*
X146645494Y-95865000D01*
X146094506Y-95865000D01*
X145585460Y-96075853D01*
X145195853Y-96465460D01*
X144985000Y-96974506D01*
X144985000Y-97525494D01*
X145195853Y-98034540D01*
X145585460Y-98424147D01*
X146094506Y-98635000D01*
X146645494Y-98635000D01*
X146887690Y-98534679D01*
X145764253Y-99658117D01*
X145700629Y-99700629D01*
X145532212Y-99952684D01*
X145488000Y-100174953D01*
X145488000Y-100174957D01*
X145473073Y-100250000D01*
X145488000Y-100325043D01*
X145488001Y-105129040D01*
X145420977Y-105196064D01*
X145272100Y-105555484D01*
X145272100Y-105944516D01*
X145420977Y-106303936D01*
X145696064Y-106579023D01*
X146055484Y-106727900D01*
X146444516Y-106727900D01*
X146803936Y-106579023D01*
X147079023Y-106303936D01*
X147227900Y-105944516D01*
X147227900Y-105555484D01*
X147079023Y-105196064D01*
X147012000Y-105129041D01*
X147012000Y-100565630D01*
X147054615Y-100523015D01*
X147170977Y-100803936D01*
X147446064Y-101079023D01*
X147805484Y-101227900D01*
X148194516Y-101227900D01*
X148553936Y-101079023D01*
X148620959Y-101012000D01*
X149879041Y-101012000D01*
X149946064Y-101079023D01*
X150305484Y-101227900D01*
X150316770Y-101227900D01*
X148651453Y-102893217D01*
X148556667Y-102893217D01*
X148197247Y-103042094D01*
X147922160Y-103317181D01*
X147773283Y-103676601D01*
X147773283Y-104065633D01*
X147922160Y-104425053D01*
X148197247Y-104700140D01*
X148556667Y-104849017D01*
X148945699Y-104849017D01*
X149305119Y-104700140D01*
X149580206Y-104425053D01*
X149729083Y-104065633D01*
X149729083Y-103970847D01*
X164277931Y-89422000D01*
X165093158Y-89422000D01*
X165299375Y-89730625D01*
X165597761Y-89930000D01*
X165299375Y-90129375D01*
X164971161Y-90620582D01*
X164855908Y-91200000D01*
X164971161Y-91779418D01*
X165299375Y-92270625D01*
X165790582Y-92598839D01*
X166223744Y-92685000D01*
X166516256Y-92685000D01*
X166949418Y-92598839D01*
X167440625Y-92270625D01*
X167738000Y-91825571D01*
X167738000Y-94434369D01*
X152012000Y-110160370D01*
X152012000Y-106120959D01*
X152079023Y-106053936D01*
X152227900Y-105694516D01*
X152227900Y-105305484D01*
X152079023Y-104946064D01*
X151803936Y-104670977D01*
X151444516Y-104522100D01*
X151055484Y-104522100D01*
X150696064Y-104670977D01*
X150420977Y-104946064D01*
X150272100Y-105305484D01*
X150272100Y-105694516D01*
X150420977Y-106053936D01*
X150488000Y-106120959D01*
X150488001Y-110184368D01*
X146014253Y-114658117D01*
X145950629Y-114700629D01*
X145782212Y-114952684D01*
X145738000Y-115174953D01*
X145738000Y-115174957D01*
X145723073Y-115250000D01*
X145738000Y-115325043D01*
X145738001Y-117924952D01*
X145723073Y-118000000D01*
X145738001Y-118075048D01*
X145782213Y-118297317D01*
X145950630Y-118549371D01*
X146014251Y-118591881D01*
X147988000Y-120565631D01*
X147988001Y-127684369D01*
X146150270Y-129522100D01*
X146055484Y-129522100D01*
X145696064Y-129670977D01*
X145420977Y-129946064D01*
X145272100Y-130305484D01*
X145272100Y-130694516D01*
X145420977Y-131053936D01*
X145696064Y-131329023D01*
X146055484Y-131477900D01*
X146444516Y-131477900D01*
X146803936Y-131329023D01*
X147079023Y-131053936D01*
X147227900Y-130694516D01*
X147227900Y-130599730D01*
X149235746Y-128591884D01*
X149299371Y-128549371D01*
X149467788Y-128297317D01*
X149512000Y-128075048D01*
X149512000Y-128075044D01*
X149526927Y-128000001D01*
X149512000Y-127924958D01*
X149512000Y-120325047D01*
X149526928Y-120250000D01*
X149511209Y-120170977D01*
X149467788Y-119952683D01*
X149299371Y-119700629D01*
X149235750Y-119658119D01*
X147262000Y-117684370D01*
X147262000Y-117459888D01*
X147305484Y-117477900D01*
X147400270Y-117477900D01*
X150419535Y-120497166D01*
X150408119Y-120514251D01*
X150408118Y-120514252D01*
X150282213Y-120702683D01*
X150223073Y-121000000D01*
X150238001Y-121075048D01*
X150238000Y-137238000D01*
X146764545Y-137238000D01*
X128262000Y-118735456D01*
X128262000Y-115945699D01*
X128282213Y-116047317D01*
X128386025Y-116202682D01*
X128450630Y-116299371D01*
X128514251Y-116341881D01*
X140408119Y-128235750D01*
X140450629Y-128299371D01*
X140514250Y-128341881D01*
X140514251Y-128341882D01*
X140514254Y-128341884D01*
X148022100Y-135849730D01*
X148022100Y-136194516D01*
X148170977Y-136553936D01*
X148446064Y-136829023D01*
X148805484Y-136977900D01*
X149194516Y-136977900D01*
X149553936Y-136829023D01*
X149829023Y-136553936D01*
X149977900Y-136194516D01*
X149977900Y-135805484D01*
X149829023Y-135446064D01*
X149553936Y-135170977D01*
X149459483Y-135131853D01*
X142077630Y-127750000D01*
X147485749Y-122341882D01*
X147549371Y-122299371D01*
X147717788Y-122047317D01*
X147762000Y-121825048D01*
X147762000Y-121825044D01*
X147776927Y-121750001D01*
X147762000Y-121674958D01*
X147762000Y-121620959D01*
X147829023Y-121553936D01*
X147977900Y-121194516D01*
X147977900Y-120805484D01*
X147829023Y-120446064D01*
X147553936Y-120170977D01*
X147194516Y-120022100D01*
X146805484Y-120022100D01*
X146446064Y-120170977D01*
X146170977Y-120446064D01*
X146022100Y-120805484D01*
X146022100Y-121194516D01*
X146155587Y-121516782D01*
X141000000Y-126672369D01*
X130133115Y-115805484D01*
X132022100Y-115805484D01*
X132022100Y-116194516D01*
X132170977Y-116553936D01*
X132446064Y-116829023D01*
X132805484Y-116977900D01*
X132900270Y-116977900D01*
X135772100Y-119849731D01*
X135772100Y-119944516D01*
X135920977Y-120303936D01*
X136196064Y-120579023D01*
X136555484Y-120727900D01*
X136944516Y-120727900D01*
X137303936Y-120579023D01*
X137579023Y-120303936D01*
X137727900Y-119944516D01*
X137727900Y-119555484D01*
X137579023Y-119196064D01*
X137303936Y-118920977D01*
X136944516Y-118772100D01*
X136849731Y-118772100D01*
X133977900Y-115900270D01*
X133977900Y-115805484D01*
X133829023Y-115446064D01*
X133553936Y-115170977D01*
X133194516Y-115022100D01*
X132805484Y-115022100D01*
X132446064Y-115170977D01*
X132170977Y-115446064D01*
X132022100Y-115805484D01*
X130133115Y-115805484D01*
X129762000Y-115434370D01*
X129762000Y-107120959D01*
X129829023Y-107053936D01*
X129977900Y-106694516D01*
X129977900Y-106305484D01*
X129829023Y-105946064D01*
X129762000Y-105879041D01*
X129762000Y-103305484D01*
X131522100Y-103305484D01*
X131522100Y-103694516D01*
X131670977Y-104053936D01*
X131738000Y-104120959D01*
X131738001Y-112424952D01*
X131723073Y-112500000D01*
X131782213Y-112797317D01*
X131902875Y-112977900D01*
X131950630Y-113049371D01*
X132014251Y-113091881D01*
X139158118Y-120235749D01*
X139200629Y-120299371D01*
X139264251Y-120341882D01*
X139452681Y-120467787D01*
X139452682Y-120467787D01*
X139452683Y-120467788D01*
X139674952Y-120512000D01*
X139674956Y-120512000D01*
X139749999Y-120526927D01*
X139825042Y-120512000D01*
X141674957Y-120512000D01*
X141750000Y-120526927D01*
X141825043Y-120512000D01*
X141825048Y-120512000D01*
X142047317Y-120467788D01*
X142299371Y-120299371D01*
X142341883Y-120235747D01*
X142849731Y-119727900D01*
X142944516Y-119727900D01*
X143303936Y-119579023D01*
X143579023Y-119303936D01*
X143727900Y-118944516D01*
X143727900Y-118555484D01*
X143579023Y-118196064D01*
X143303936Y-117920977D01*
X142944516Y-117772100D01*
X142555484Y-117772100D01*
X142262000Y-117893665D01*
X142262000Y-117565630D01*
X149599730Y-110227900D01*
X149694516Y-110227900D01*
X150053936Y-110079023D01*
X150329023Y-109803936D01*
X150477900Y-109444516D01*
X150477900Y-109055484D01*
X150329023Y-108696064D01*
X150053936Y-108420977D01*
X149694516Y-108272100D01*
X149305484Y-108272100D01*
X149000000Y-108398636D01*
X148694516Y-108272100D01*
X148305484Y-108272100D01*
X147946064Y-108420977D01*
X147670977Y-108696064D01*
X147522100Y-109055484D01*
X147522100Y-109150269D01*
X143014254Y-113658116D01*
X143014251Y-113658118D01*
X140764254Y-115908116D01*
X140764251Y-115908118D01*
X139764253Y-116908117D01*
X139700629Y-116950629D01*
X139532212Y-117202684D01*
X139488000Y-117424953D01*
X139488000Y-117424957D01*
X139473073Y-117500000D01*
X139488000Y-117575044D01*
X139488001Y-118129040D01*
X139420977Y-118196064D01*
X139377839Y-118300208D01*
X133262000Y-112184370D01*
X133262000Y-104120959D01*
X133329023Y-104053936D01*
X133477900Y-103694516D01*
X133477900Y-103305484D01*
X133329023Y-102946064D01*
X133053936Y-102670977D01*
X132694516Y-102522100D01*
X132305484Y-102522100D01*
X131946064Y-102670977D01*
X131670977Y-102946064D01*
X131522100Y-103305484D01*
X129762000Y-103305484D01*
X129762000Y-97315630D01*
X149099731Y-77977900D01*
X149194516Y-77977900D01*
X149553936Y-77829023D01*
X149829023Y-77553936D01*
X149977900Y-77194516D01*
X149977900Y-76805484D01*
X149829023Y-76446064D01*
X149553936Y-76170977D01*
X149194516Y-76022100D01*
X148805484Y-76022100D01*
X148446064Y-76170977D01*
X148170977Y-76446064D01*
X148022100Y-76805484D01*
X148022100Y-76900269D01*
X147262000Y-77660369D01*
X147262000Y-76120959D01*
X147329023Y-76053936D01*
X147477900Y-75694516D01*
X147477900Y-75305484D01*
X147329023Y-74946064D01*
X147053936Y-74670977D01*
X146694516Y-74522100D01*
X146305484Y-74522100D01*
X145946064Y-74670977D01*
X145670977Y-74946064D01*
X145522100Y-75305484D01*
X145522100Y-75694516D01*
X145670977Y-76053936D01*
X145738001Y-76120960D01*
X145738000Y-77684369D01*
X127512759Y-95909611D01*
X127449138Y-95952121D01*
X127406627Y-96015743D01*
X127406626Y-96015744D01*
X127280721Y-96204175D01*
X127221581Y-96501492D01*
X127236509Y-96576540D01*
X127236508Y-108247469D01*
X127169485Y-108314492D01*
X127020608Y-108673912D01*
X127020608Y-108768698D01*
X127014252Y-108775054D01*
X126950630Y-108817565D01*
X126908119Y-108881187D01*
X126908118Y-108881188D01*
X126782213Y-109069619D01*
X126723073Y-109366936D01*
X122735000Y-109366936D01*
X122735000Y-73305431D01*
X123515000Y-73305431D01*
X123515000Y-74194569D01*
X123855259Y-75016026D01*
X124483974Y-75644741D01*
X125305431Y-75985000D01*
X126194569Y-75985000D01*
X127016026Y-75644741D01*
X127644741Y-75016026D01*
X127985000Y-74194569D01*
X127985000Y-73305431D01*
X169015000Y-73305431D01*
X169015000Y-74194569D01*
X169355259Y-75016026D01*
X169983974Y-75644741D01*
X170805431Y-75985000D01*
X171694569Y-75985000D01*
X172516026Y-75644741D01*
X173144741Y-75016026D01*
X173485000Y-74194569D01*
X173485000Y-73305431D01*
X173144741Y-72483974D01*
X172516026Y-71855259D01*
X171694569Y-71515000D01*
X170805431Y-71515000D01*
X169983974Y-71855259D01*
X169355259Y-72483974D01*
X169015000Y-73305431D01*
X127985000Y-73305431D01*
X127644741Y-72483974D01*
X127016026Y-71855259D01*
X126194569Y-71515000D01*
X125305431Y-71515000D01*
X124483974Y-71855259D01*
X123855259Y-72483974D01*
X123515000Y-73305431D01*
X122735000Y-73305431D01*
X122735000Y-70735000D01*
X174265000Y-70735000D01*
X174265001Y-142765000D01*
X174265001Y-142765000D01*
G37*
X174265001Y-142765000D02*
X122735000Y-142765000D01*
X122735000Y-139305431D01*
X123515000Y-139305431D01*
X123515000Y-140194569D01*
X123855259Y-141016026D01*
X124483974Y-141644741D01*
X125305431Y-141985000D01*
X126194569Y-141985000D01*
X127016026Y-141644741D01*
X127644741Y-141016026D01*
X127985000Y-140194569D01*
X127985000Y-139305431D01*
X169015000Y-139305431D01*
X169015000Y-140194569D01*
X169355259Y-141016026D01*
X169983974Y-141644741D01*
X170805431Y-141985000D01*
X171694569Y-141985000D01*
X172516026Y-141644741D01*
X173144741Y-141016026D01*
X173485000Y-140194569D01*
X173485000Y-139305431D01*
X173144741Y-138483974D01*
X172516026Y-137855259D01*
X171694569Y-137515000D01*
X170805431Y-137515000D01*
X169983974Y-137855259D01*
X169355259Y-138483974D01*
X169015000Y-139305431D01*
X127985000Y-139305431D01*
X127644741Y-138483974D01*
X127016026Y-137855259D01*
X126194569Y-137515000D01*
X125305431Y-137515000D01*
X124483974Y-137855259D01*
X123855259Y-138483974D01*
X123515000Y-139305431D01*
X122735000Y-139305431D01*
X122735000Y-127881000D01*
X123104336Y-127881000D01*
X123206007Y-128392136D01*
X123495543Y-128825457D01*
X123928864Y-129114993D01*
X124310978Y-129191000D01*
X124919022Y-129191000D01*
X125301136Y-129114993D01*
X125734457Y-128825457D01*
X126023993Y-128392136D01*
X126125664Y-127881000D01*
X126064002Y-127571000D01*
X126206785Y-127571000D01*
X126298755Y-128033364D01*
X126560663Y-128425337D01*
X126952636Y-128687245D01*
X127298290Y-128756000D01*
X127931710Y-128756000D01*
X128277364Y-128687245D01*
X128669337Y-128425337D01*
X128931245Y-128033364D01*
X129023215Y-127571000D01*
X128931245Y-127108636D01*
X128669337Y-126716663D01*
X128277364Y-126454755D01*
X127931710Y-126386000D01*
X127298290Y-126386000D01*
X126952636Y-126454755D01*
X126560663Y-126716663D01*
X126298755Y-127108636D01*
X126206785Y-127571000D01*
X126064002Y-127571000D01*
X126023993Y-127369864D01*
X125734457Y-126936543D01*
X125301136Y-126647007D01*
X124919022Y-126571000D01*
X124310978Y-126571000D01*
X123928864Y-126647007D01*
X123495543Y-126936543D01*
X123206007Y-127369864D01*
X123104336Y-127881000D01*
X122735000Y-127881000D01*
X122735000Y-122421000D01*
X123104336Y-122421000D01*
X123206007Y-122932136D01*
X123495543Y-123365457D01*
X123928864Y-123654993D01*
X124310978Y-123731000D01*
X124919022Y-123731000D01*
X125301136Y-123654993D01*
X125734457Y-123365457D01*
X126023993Y-122932136D01*
X126064001Y-122731000D01*
X126206785Y-122731000D01*
X126298755Y-123193364D01*
X126560663Y-123585337D01*
X126952636Y-123847245D01*
X127298290Y-123916000D01*
X127931710Y-123916000D01*
X128277364Y-123847245D01*
X128669337Y-123585337D01*
X128931245Y-123193364D01*
X129023215Y-122731000D01*
X128931245Y-122268636D01*
X128669337Y-121876663D01*
X128277364Y-121614755D01*
X127931710Y-121546000D01*
X127298290Y-121546000D01*
X126952636Y-121614755D01*
X126560663Y-121876663D01*
X126298755Y-122268636D01*
X126206785Y-122731000D01*
X126064001Y-122731000D01*
X126125664Y-122421000D01*
X126023993Y-121909864D01*
X125734457Y-121476543D01*
X125301136Y-121187007D01*
X124919022Y-121111000D01*
X124310978Y-121111000D01*
X123928864Y-121187007D01*
X123495543Y-121476543D01*
X123206007Y-121909864D01*
X123104336Y-122421000D01*
X122735000Y-122421000D01*
X122735000Y-109366936D01*
X126723073Y-109366936D01*
X126738001Y-109441984D01*
X126738000Y-118976043D01*
X126723073Y-119051086D01*
X126738000Y-119126129D01*
X126738000Y-119126133D01*
X126782212Y-119348402D01*
X126950629Y-119600457D01*
X127014254Y-119642970D01*
X145857032Y-138485749D01*
X145899543Y-138549371D01*
X145963165Y-138591882D01*
X146151595Y-138717787D01*
X146151596Y-138717787D01*
X146151597Y-138717788D01*
X146373866Y-138762000D01*
X146373870Y-138762000D01*
X146448913Y-138776927D01*
X146523956Y-138762000D01*
X150379041Y-138762000D01*
X150446064Y-138829023D01*
X150805484Y-138977900D01*
X151194516Y-138977900D01*
X151553936Y-138829023D01*
X151829023Y-138553936D01*
X151977900Y-138194516D01*
X151977900Y-137805484D01*
X151829023Y-137446064D01*
X151762000Y-137379041D01*
X151762000Y-121315630D01*
X151815631Y-121262000D01*
X157924957Y-121262000D01*
X158000000Y-121276927D01*
X158075043Y-121262000D01*
X158075048Y-121262000D01*
X158297317Y-121217788D01*
X158549371Y-121049371D01*
X158591884Y-120985747D01*
X170485750Y-109091881D01*
X170549371Y-109049371D01*
X170597127Y-108977900D01*
X170661747Y-108881188D01*
X170717788Y-108797317D01*
X170762000Y-108575048D01*
X170762000Y-108575047D01*
X170776928Y-108500000D01*
X170762000Y-108424952D01*
X170762000Y-105120959D01*
X170829023Y-105053936D01*
X170977900Y-104694516D01*
X170977900Y-104305484D01*
X170829023Y-103946064D01*
X170553936Y-103670977D01*
X170194516Y-103522100D01*
X169805484Y-103522100D01*
X169446064Y-103670977D01*
X169227900Y-103889141D01*
X169227900Y-103805484D01*
X169079023Y-103446064D01*
X168803936Y-103170977D01*
X168444516Y-103022100D01*
X168055484Y-103022100D01*
X167696064Y-103170977D01*
X167629041Y-103238000D01*
X161089631Y-103238000D01*
X168985750Y-95341881D01*
X169049371Y-95299371D01*
X169217788Y-95047317D01*
X169262000Y-94825048D01*
X169262000Y-94825044D01*
X169276927Y-94750001D01*
X169262000Y-94674958D01*
X169262000Y-88325047D01*
X169276928Y-88250000D01*
X169249205Y-88110629D01*
X169217788Y-87952683D01*
X169049371Y-87700629D01*
X168985749Y-87658118D01*
X167811883Y-86484253D01*
X167811881Y-86484250D01*
X167811679Y-86484048D01*
X167884092Y-86120000D01*
X167768839Y-85540582D01*
X167440625Y-85049375D01*
X167142239Y-84850000D01*
X167440625Y-84650625D01*
X167768839Y-84159418D01*
X167884092Y-83580000D01*
X167768839Y-83000582D01*
X167440625Y-82509375D01*
X167142239Y-82310000D01*
X167440625Y-82110625D01*
X167768839Y-81619418D01*
X167884092Y-81040000D01*
X167768839Y-80460582D01*
X167440625Y-79969375D01*
X167422381Y-79957184D01*
X167467765Y-79948157D01*
X167677809Y-79807809D01*
X167818157Y-79597765D01*
X167867440Y-79350000D01*
X167867440Y-77650000D01*
X167818157Y-77402235D01*
X167677809Y-77192191D01*
X167467765Y-77051843D01*
X167220000Y-77002560D01*
X165520000Y-77002560D01*
X165272235Y-77051843D01*
X165062191Y-77192191D01*
X164921843Y-77402235D01*
X164872560Y-77650000D01*
X164872560Y-79350000D01*
X164921843Y-79597765D01*
X165062191Y-79807809D01*
X165272235Y-79948157D01*
X165317619Y-79957184D01*
X165299375Y-79969375D01*
X164971161Y-80460582D01*
X164855908Y-81040000D01*
X164971161Y-81619418D01*
X165299375Y-82110625D01*
X165597761Y-82310000D01*
X165299375Y-82509375D01*
X164971161Y-83000582D01*
X164855908Y-83580000D01*
X164971161Y-84159418D01*
X165299375Y-84650625D01*
X165597761Y-84850000D01*
X165299375Y-85049375D01*
X164971161Y-85540582D01*
X164855908Y-86120000D01*
X164971161Y-86699418D01*
X165299375Y-87190625D01*
X165597761Y-87390000D01*
X165299375Y-87589375D01*
X165093158Y-87898000D01*
X164037343Y-87898000D01*
X163962300Y-87883073D01*
X163887257Y-87898000D01*
X163887252Y-87898000D01*
X163664983Y-87942212D01*
X163412929Y-88110629D01*
X163370418Y-88174251D01*
X151477900Y-100066770D01*
X151477900Y-100055484D01*
X151329023Y-99696064D01*
X151053936Y-99420977D01*
X150694516Y-99272100D01*
X150305484Y-99272100D01*
X149946064Y-99420977D01*
X149879041Y-99488000D01*
X148620959Y-99488000D01*
X148553936Y-99420977D01*
X148273015Y-99304615D01*
X149485749Y-98091882D01*
X149549371Y-98049371D01*
X149717788Y-97797317D01*
X149762000Y-97575048D01*
X149762000Y-97575044D01*
X149776927Y-97500001D01*
X149762000Y-97424958D01*
X149762000Y-96974506D01*
X149865000Y-96974506D01*
X149865000Y-97525494D01*
X150075853Y-98034540D01*
X150465460Y-98424147D01*
X150974506Y-98635000D01*
X151525494Y-98635000D01*
X152034540Y-98424147D01*
X152424147Y-98034540D01*
X152635000Y-97525494D01*
X152635000Y-96974506D01*
X152424147Y-96465460D01*
X152034540Y-96075853D01*
X151525494Y-95865000D01*
X150974506Y-95865000D01*
X150465460Y-96075853D01*
X150075853Y-96465460D01*
X149865000Y-96974506D01*
X149762000Y-96974506D01*
X149762000Y-82815630D01*
X152099731Y-80477900D01*
X152194516Y-80477900D01*
X152553936Y-80329023D01*
X152829023Y-80053936D01*
X152977900Y-79694516D01*
X152977900Y-79305484D01*
X152829023Y-78946064D01*
X152553936Y-78670977D01*
X152194516Y-78522100D01*
X151805484Y-78522100D01*
X151446064Y-78670977D01*
X151170977Y-78946064D01*
X151022100Y-79305484D01*
X151022100Y-79400269D01*
X148514253Y-81908117D01*
X148450629Y-81950629D01*
X148282212Y-82202684D01*
X148238000Y-82424953D01*
X148238000Y-82424957D01*
X148223073Y-82500000D01*
X148238000Y-82575043D01*
X148238001Y-97184368D01*
X147654680Y-97767690D01*
X147755000Y-97525494D01*
X147755000Y-96974506D01*
X147544147Y-96465460D01*
X147154540Y-96075853D01*
X146645494Y-95865000D01*
X146094506Y-95865000D01*
X145585460Y-96075853D01*
X145195853Y-96465460D01*
X144985000Y-96974506D01*
X144985000Y-97525494D01*
X145195853Y-98034540D01*
X145585460Y-98424147D01*
X146094506Y-98635000D01*
X146645494Y-98635000D01*
X146887690Y-98534679D01*
X145764253Y-99658117D01*
X145700629Y-99700629D01*
X145532212Y-99952684D01*
X145488000Y-100174953D01*
X145488000Y-100174957D01*
X145473073Y-100250000D01*
X145488000Y-100325043D01*
X145488001Y-105129040D01*
X145420977Y-105196064D01*
X145272100Y-105555484D01*
X145272100Y-105944516D01*
X145420977Y-106303936D01*
X145696064Y-106579023D01*
X146055484Y-106727900D01*
X146444516Y-106727900D01*
X146803936Y-106579023D01*
X147079023Y-106303936D01*
X147227900Y-105944516D01*
X147227900Y-105555484D01*
X147079023Y-105196064D01*
X147012000Y-105129041D01*
X147012000Y-100565630D01*
X147054615Y-100523015D01*
X147170977Y-100803936D01*
X147446064Y-101079023D01*
X147805484Y-101227900D01*
X148194516Y-101227900D01*
X148553936Y-101079023D01*
X148620959Y-101012000D01*
X149879041Y-101012000D01*
X149946064Y-101079023D01*
X150305484Y-101227900D01*
X150316770Y-101227900D01*
X148651453Y-102893217D01*
X148556667Y-102893217D01*
X148197247Y-103042094D01*
X147922160Y-103317181D01*
X147773283Y-103676601D01*
X147773283Y-104065633D01*
X147922160Y-104425053D01*
X148197247Y-104700140D01*
X148556667Y-104849017D01*
X148945699Y-104849017D01*
X149305119Y-104700140D01*
X149580206Y-104425053D01*
X149729083Y-104065633D01*
X149729083Y-103970847D01*
X164277931Y-89422000D01*
X165093158Y-89422000D01*
X165299375Y-89730625D01*
X165597761Y-89930000D01*
X165299375Y-90129375D01*
X164971161Y-90620582D01*
X164855908Y-91200000D01*
X164971161Y-91779418D01*
X165299375Y-92270625D01*
X165790582Y-92598839D01*
X166223744Y-92685000D01*
X166516256Y-92685000D01*
X166949418Y-92598839D01*
X167440625Y-92270625D01*
X167738000Y-91825571D01*
X167738000Y-94434369D01*
X152012000Y-110160370D01*
X152012000Y-106120959D01*
X152079023Y-106053936D01*
X152227900Y-105694516D01*
X152227900Y-105305484D01*
X152079023Y-104946064D01*
X151803936Y-104670977D01*
X151444516Y-104522100D01*
X151055484Y-104522100D01*
X150696064Y-104670977D01*
X150420977Y-104946064D01*
X150272100Y-105305484D01*
X150272100Y-105694516D01*
X150420977Y-106053936D01*
X150488000Y-106120959D01*
X150488001Y-110184368D01*
X146014253Y-114658117D01*
X145950629Y-114700629D01*
X145782212Y-114952684D01*
X145738000Y-115174953D01*
X145738000Y-115174957D01*
X145723073Y-115250000D01*
X145738000Y-115325043D01*
X145738001Y-117924952D01*
X145723073Y-118000000D01*
X145738001Y-118075048D01*
X145782213Y-118297317D01*
X145950630Y-118549371D01*
X146014251Y-118591881D01*
X147988000Y-120565631D01*
X147988001Y-127684369D01*
X146150270Y-129522100D01*
X146055484Y-129522100D01*
X145696064Y-129670977D01*
X145420977Y-129946064D01*
X145272100Y-130305484D01*
X145272100Y-130694516D01*
X145420977Y-131053936D01*
X145696064Y-131329023D01*
X146055484Y-131477900D01*
X146444516Y-131477900D01*
X146803936Y-131329023D01*
X147079023Y-131053936D01*
X147227900Y-130694516D01*
X147227900Y-130599730D01*
X149235746Y-128591884D01*
X149299371Y-128549371D01*
X149467788Y-128297317D01*
X149512000Y-128075048D01*
X149512000Y-128075044D01*
X149526927Y-128000001D01*
X149512000Y-127924958D01*
X149512000Y-120325047D01*
X149526928Y-120250000D01*
X149511209Y-120170977D01*
X149467788Y-119952683D01*
X149299371Y-119700629D01*
X149235750Y-119658119D01*
X147262000Y-117684370D01*
X147262000Y-117459888D01*
X147305484Y-117477900D01*
X147400270Y-117477900D01*
X150419535Y-120497166D01*
X150408119Y-120514251D01*
X150408118Y-120514252D01*
X150282213Y-120702683D01*
X150223073Y-121000000D01*
X150238001Y-121075048D01*
X150238000Y-137238000D01*
X146764545Y-137238000D01*
X128262000Y-118735456D01*
X128262000Y-115945699D01*
X128282213Y-116047317D01*
X128386025Y-116202682D01*
X128450630Y-116299371D01*
X128514251Y-116341881D01*
X140408119Y-128235750D01*
X140450629Y-128299371D01*
X140514250Y-128341881D01*
X140514251Y-128341882D01*
X140514254Y-128341884D01*
X148022100Y-135849730D01*
X148022100Y-136194516D01*
X148170977Y-136553936D01*
X148446064Y-136829023D01*
X148805484Y-136977900D01*
X149194516Y-136977900D01*
X149553936Y-136829023D01*
X149829023Y-136553936D01*
X149977900Y-136194516D01*
X149977900Y-135805484D01*
X149829023Y-135446064D01*
X149553936Y-135170977D01*
X149459483Y-135131853D01*
X142077630Y-127750000D01*
X147485749Y-122341882D01*
X147549371Y-122299371D01*
X147717788Y-122047317D01*
X147762000Y-121825048D01*
X147762000Y-121825044D01*
X147776927Y-121750001D01*
X147762000Y-121674958D01*
X147762000Y-121620959D01*
X147829023Y-121553936D01*
X147977900Y-121194516D01*
X147977900Y-120805484D01*
X147829023Y-120446064D01*
X147553936Y-120170977D01*
X147194516Y-120022100D01*
X146805484Y-120022100D01*
X146446064Y-120170977D01*
X146170977Y-120446064D01*
X146022100Y-120805484D01*
X146022100Y-121194516D01*
X146155587Y-121516782D01*
X141000000Y-126672369D01*
X130133115Y-115805484D01*
X132022100Y-115805484D01*
X132022100Y-116194516D01*
X132170977Y-116553936D01*
X132446064Y-116829023D01*
X132805484Y-116977900D01*
X132900270Y-116977900D01*
X135772100Y-119849731D01*
X135772100Y-119944516D01*
X135920977Y-120303936D01*
X136196064Y-120579023D01*
X136555484Y-120727900D01*
X136944516Y-120727900D01*
X137303936Y-120579023D01*
X137579023Y-120303936D01*
X137727900Y-119944516D01*
X137727900Y-119555484D01*
X137579023Y-119196064D01*
X137303936Y-118920977D01*
X136944516Y-118772100D01*
X136849731Y-118772100D01*
X133977900Y-115900270D01*
X133977900Y-115805484D01*
X133829023Y-115446064D01*
X133553936Y-115170977D01*
X133194516Y-115022100D01*
X132805484Y-115022100D01*
X132446064Y-115170977D01*
X132170977Y-115446064D01*
X132022100Y-115805484D01*
X130133115Y-115805484D01*
X129762000Y-115434370D01*
X129762000Y-107120959D01*
X129829023Y-107053936D01*
X129977900Y-106694516D01*
X129977900Y-106305484D01*
X129829023Y-105946064D01*
X129762000Y-105879041D01*
X129762000Y-103305484D01*
X131522100Y-103305484D01*
X131522100Y-103694516D01*
X131670977Y-104053936D01*
X131738000Y-104120959D01*
X131738001Y-112424952D01*
X131723073Y-112500000D01*
X131782213Y-112797317D01*
X131902875Y-112977900D01*
X131950630Y-113049371D01*
X132014251Y-113091881D01*
X139158118Y-120235749D01*
X139200629Y-120299371D01*
X139264251Y-120341882D01*
X139452681Y-120467787D01*
X139452682Y-120467787D01*
X139452683Y-120467788D01*
X139674952Y-120512000D01*
X139674956Y-120512000D01*
X139749999Y-120526927D01*
X139825042Y-120512000D01*
X141674957Y-120512000D01*
X141750000Y-120526927D01*
X141825043Y-120512000D01*
X141825048Y-120512000D01*
X142047317Y-120467788D01*
X142299371Y-120299371D01*
X142341883Y-120235747D01*
X142849731Y-119727900D01*
X142944516Y-119727900D01*
X143303936Y-119579023D01*
X143579023Y-119303936D01*
X143727900Y-118944516D01*
X143727900Y-118555484D01*
X143579023Y-118196064D01*
X143303936Y-117920977D01*
X142944516Y-117772100D01*
X142555484Y-117772100D01*
X142262000Y-117893665D01*
X142262000Y-117565630D01*
X149599730Y-110227900D01*
X149694516Y-110227900D01*
X150053936Y-110079023D01*
X150329023Y-109803936D01*
X150477900Y-109444516D01*
X150477900Y-109055484D01*
X150329023Y-108696064D01*
X150053936Y-108420977D01*
X149694516Y-108272100D01*
X149305484Y-108272100D01*
X149000000Y-108398636D01*
X148694516Y-108272100D01*
X148305484Y-108272100D01*
X147946064Y-108420977D01*
X147670977Y-108696064D01*
X147522100Y-109055484D01*
X147522100Y-109150269D01*
X143014254Y-113658116D01*
X143014251Y-113658118D01*
X140764254Y-115908116D01*
X140764251Y-115908118D01*
X139764253Y-116908117D01*
X139700629Y-116950629D01*
X139532212Y-117202684D01*
X139488000Y-117424953D01*
X139488000Y-117424957D01*
X139473073Y-117500000D01*
X139488000Y-117575044D01*
X139488001Y-118129040D01*
X139420977Y-118196064D01*
X139377839Y-118300208D01*
X133262000Y-112184370D01*
X133262000Y-104120959D01*
X133329023Y-104053936D01*
X133477900Y-103694516D01*
X133477900Y-103305484D01*
X133329023Y-102946064D01*
X133053936Y-102670977D01*
X132694516Y-102522100D01*
X132305484Y-102522100D01*
X131946064Y-102670977D01*
X131670977Y-102946064D01*
X131522100Y-103305484D01*
X129762000Y-103305484D01*
X129762000Y-97315630D01*
X149099731Y-77977900D01*
X149194516Y-77977900D01*
X149553936Y-77829023D01*
X149829023Y-77553936D01*
X149977900Y-77194516D01*
X149977900Y-76805484D01*
X149829023Y-76446064D01*
X149553936Y-76170977D01*
X149194516Y-76022100D01*
X148805484Y-76022100D01*
X148446064Y-76170977D01*
X148170977Y-76446064D01*
X148022100Y-76805484D01*
X148022100Y-76900269D01*
X147262000Y-77660369D01*
X147262000Y-76120959D01*
X147329023Y-76053936D01*
X147477900Y-75694516D01*
X147477900Y-75305484D01*
X147329023Y-74946064D01*
X147053936Y-74670977D01*
X146694516Y-74522100D01*
X146305484Y-74522100D01*
X145946064Y-74670977D01*
X145670977Y-74946064D01*
X145522100Y-75305484D01*
X145522100Y-75694516D01*
X145670977Y-76053936D01*
X145738001Y-76120960D01*
X145738000Y-77684369D01*
X127512759Y-95909611D01*
X127449138Y-95952121D01*
X127406627Y-96015743D01*
X127406626Y-96015744D01*
X127280721Y-96204175D01*
X127221581Y-96501492D01*
X127236509Y-96576540D01*
X127236508Y-108247469D01*
X127169485Y-108314492D01*
X127020608Y-108673912D01*
X127020608Y-108768698D01*
X127014252Y-108775054D01*
X126950630Y-108817565D01*
X126908119Y-108881187D01*
X126908118Y-108881188D01*
X126782213Y-109069619D01*
X126723073Y-109366936D01*
X122735000Y-109366936D01*
X122735000Y-73305431D01*
X123515000Y-73305431D01*
X123515000Y-74194569D01*
X123855259Y-75016026D01*
X124483974Y-75644741D01*
X125305431Y-75985000D01*
X126194569Y-75985000D01*
X127016026Y-75644741D01*
X127644741Y-75016026D01*
X127985000Y-74194569D01*
X127985000Y-73305431D01*
X169015000Y-73305431D01*
X169015000Y-74194569D01*
X169355259Y-75016026D01*
X169983974Y-75644741D01*
X170805431Y-75985000D01*
X171694569Y-75985000D01*
X172516026Y-75644741D01*
X173144741Y-75016026D01*
X173485000Y-74194569D01*
X173485000Y-73305431D01*
X173144741Y-72483974D01*
X172516026Y-71855259D01*
X171694569Y-71515000D01*
X170805431Y-71515000D01*
X169983974Y-71855259D01*
X169355259Y-72483974D01*
X169015000Y-73305431D01*
X127985000Y-73305431D01*
X127644741Y-72483974D01*
X127016026Y-71855259D01*
X126194569Y-71515000D01*
X125305431Y-71515000D01*
X124483974Y-71855259D01*
X123855259Y-72483974D01*
X123515000Y-73305431D01*
X122735000Y-73305431D01*
X122735000Y-70735000D01*
X174265000Y-70735000D01*
X174265001Y-142765000D01*
G36*
X169022100Y-104694516D02*
X169170977Y-105053936D01*
X169238001Y-105120960D01*
X169238001Y-105855042D01*
X169053936Y-105670977D01*
X168694516Y-105522100D01*
X168305484Y-105522100D01*
X167946064Y-105670977D01*
X167670977Y-105946064D01*
X167522100Y-106305484D01*
X167522100Y-106400269D01*
X158184370Y-115738000D01*
X150620959Y-115738000D01*
X150553936Y-115670977D01*
X150194516Y-115522100D01*
X149805484Y-115522100D01*
X149446064Y-115670977D01*
X149170977Y-115946064D01*
X149022100Y-116305484D01*
X149022100Y-116694516D01*
X149170977Y-117053936D01*
X149446064Y-117329023D01*
X149805484Y-117477900D01*
X150194516Y-117477900D01*
X150553936Y-117329023D01*
X150620959Y-117262000D01*
X158424957Y-117262000D01*
X158500000Y-117276927D01*
X158575043Y-117262000D01*
X158575048Y-117262000D01*
X158797317Y-117217788D01*
X159049371Y-117049371D01*
X159091883Y-116985747D01*
X168599731Y-107477900D01*
X168694516Y-107477900D01*
X169053936Y-107329023D01*
X169238000Y-107144959D01*
X169238000Y-108184369D01*
X157684370Y-119738000D01*
X151815631Y-119738000D01*
X148477900Y-116400270D01*
X148477900Y-116305484D01*
X148329023Y-115946064D01*
X148053936Y-115670977D01*
X147694516Y-115522100D01*
X147305530Y-115522100D01*
X150108547Y-112719084D01*
X150022100Y-112927784D01*
X150022100Y-113316816D01*
X150170977Y-113676236D01*
X150446064Y-113951323D01*
X150805484Y-114100200D01*
X151194516Y-114100200D01*
X151553936Y-113951323D01*
X151829023Y-113676236D01*
X151977900Y-113316816D01*
X151977900Y-112927784D01*
X151829023Y-112568364D01*
X151794145Y-112533486D01*
X156522100Y-107805530D01*
X156522100Y-108194516D01*
X156670977Y-108553936D01*
X156946064Y-108829023D01*
X157238000Y-108949947D01*
X157238001Y-111379040D01*
X157170977Y-111446064D01*
X157022100Y-111805484D01*
X157022100Y-112194516D01*
X157170977Y-112553936D01*
X157446064Y-112829023D01*
X157805484Y-112977900D01*
X158194516Y-112977900D01*
X158553936Y-112829023D01*
X158829023Y-112553936D01*
X158977900Y-112194516D01*
X158977900Y-111805484D01*
X158829023Y-111446064D01*
X158762000Y-111379041D01*
X158762000Y-108575047D01*
X158776928Y-108500000D01*
X158740028Y-108314492D01*
X158717788Y-108202683D01*
X158549371Y-107950629D01*
X158485749Y-107908118D01*
X158477900Y-107900269D01*
X158477900Y-107805484D01*
X158329023Y-107446064D01*
X158257959Y-107375000D01*
X158329023Y-107303936D01*
X158477900Y-106944516D01*
X158477900Y-106849730D01*
X160565631Y-104762000D01*
X167629041Y-104762000D01*
X167696064Y-104829023D01*
X168055484Y-104977900D01*
X168444516Y-104977900D01*
X168803936Y-104829023D01*
X169022100Y-104610859D01*
X169022100Y-104694516D01*
X169022100Y-104694516D01*
G37*
X169022100Y-104694516D02*
X169170977Y-105053936D01*
X169238001Y-105120960D01*
X169238001Y-105855042D01*
X169053936Y-105670977D01*
X168694516Y-105522100D01*
X168305484Y-105522100D01*
X167946064Y-105670977D01*
X167670977Y-105946064D01*
X167522100Y-106305484D01*
X167522100Y-106400269D01*
X158184370Y-115738000D01*
X150620959Y-115738000D01*
X150553936Y-115670977D01*
X150194516Y-115522100D01*
X149805484Y-115522100D01*
X149446064Y-115670977D01*
X149170977Y-115946064D01*
X149022100Y-116305484D01*
X149022100Y-116694516D01*
X149170977Y-117053936D01*
X149446064Y-117329023D01*
X149805484Y-117477900D01*
X150194516Y-117477900D01*
X150553936Y-117329023D01*
X150620959Y-117262000D01*
X158424957Y-117262000D01*
X158500000Y-117276927D01*
X158575043Y-117262000D01*
X158575048Y-117262000D01*
X158797317Y-117217788D01*
X159049371Y-117049371D01*
X159091883Y-116985747D01*
X168599731Y-107477900D01*
X168694516Y-107477900D01*
X169053936Y-107329023D01*
X169238000Y-107144959D01*
X169238000Y-108184369D01*
X157684370Y-119738000D01*
X151815631Y-119738000D01*
X148477900Y-116400270D01*
X148477900Y-116305484D01*
X148329023Y-115946064D01*
X148053936Y-115670977D01*
X147694516Y-115522100D01*
X147305530Y-115522100D01*
X150108547Y-112719084D01*
X150022100Y-112927784D01*
X150022100Y-113316816D01*
X150170977Y-113676236D01*
X150446064Y-113951323D01*
X150805484Y-114100200D01*
X151194516Y-114100200D01*
X151553936Y-113951323D01*
X151829023Y-113676236D01*
X151977900Y-113316816D01*
X151977900Y-112927784D01*
X151829023Y-112568364D01*
X151794145Y-112533486D01*
X156522100Y-107805530D01*
X156522100Y-108194516D01*
X156670977Y-108553936D01*
X156946064Y-108829023D01*
X157238000Y-108949947D01*
X157238001Y-111379040D01*
X157170977Y-111446064D01*
X157022100Y-111805484D01*
X157022100Y-112194516D01*
X157170977Y-112553936D01*
X157446064Y-112829023D01*
X157805484Y-112977900D01*
X158194516Y-112977900D01*
X158553936Y-112829023D01*
X158829023Y-112553936D01*
X158977900Y-112194516D01*
X158977900Y-111805484D01*
X158829023Y-111446064D01*
X158762000Y-111379041D01*
X158762000Y-108575047D01*
X158776928Y-108500000D01*
X158740028Y-108314492D01*
X158717788Y-108202683D01*
X158549371Y-107950629D01*
X158485749Y-107908118D01*
X158477900Y-107900269D01*
X158477900Y-107805484D01*
X158329023Y-107446064D01*
X158257959Y-107375000D01*
X158329023Y-107303936D01*
X158477900Y-106944516D01*
X158477900Y-106849730D01*
X160565631Y-104762000D01*
X167629041Y-104762000D01*
X167696064Y-104829023D01*
X168055484Y-104977900D01*
X168444516Y-104977900D01*
X168803936Y-104829023D01*
X169022100Y-104610859D01*
X169022100Y-104694516D01*
G04 #@! TD*
M02*
