G04 #@! TF.GenerationSoftware,KiCad,Pcbnew,5.0.0-fee4fd1~66~ubuntu16.04.1*
G04 #@! TF.CreationDate,2019-03-05T11:42:27-05:00*
G04 #@! TF.ProjectId,quadrant,7175616472616E742E6B696361645F70,rev?*
G04 #@! TF.SameCoordinates,Original*
G04 #@! TF.FileFunction,Copper,L2,Bot,Signal*
G04 #@! TF.FilePolarity,Positive*
%FSLAX46Y46*%
G04 Gerber Fmt 4.6, Leading zero omitted, Abs format (unit mm)*
G04 Created by KiCad (PCBNEW 5.0.0-fee4fd1~66~ubuntu16.04.1) date Tue Mar  5 11:42:27 2019*
%MOMM*%
%LPD*%
G01*
G04 APERTURE LIST*
G04 #@! TA.AperFunction,ComponentPad*
%ADD10O,1.700000X1.700000*%
G04 #@! TD*
G04 #@! TA.AperFunction,ComponentPad*
%ADD11R,1.700000X1.700000*%
G04 #@! TD*
G04 #@! TA.AperFunction,ComponentPad*
%ADD12O,1.700000X1.350000*%
G04 #@! TD*
G04 #@! TA.AperFunction,ComponentPad*
%ADD13O,1.500000X1.100000*%
G04 #@! TD*
G04 #@! TA.AperFunction,ComponentPad*
%ADD14C,1.500000*%
G04 #@! TD*
G04 #@! TA.AperFunction,ViaPad*
%ADD15C,0.685800*%
G04 #@! TD*
G04 #@! TA.AperFunction,Conductor*
%ADD16C,0.254000*%
G04 #@! TD*
G04 APERTURE END LIST*
D10*
G04 #@! TO.P,J1,6*
G04 #@! TO.N,GND*
X166370000Y-91200000D03*
G04 #@! TO.P,J1,5*
G04 #@! TO.N,NRST*
X166370000Y-88660000D03*
G04 #@! TO.P,J1,4*
G04 #@! TO.N,SWDIO*
X166370000Y-86120000D03*
G04 #@! TO.P,J1,3*
G04 #@! TO.N,GND*
X166370000Y-83580000D03*
G04 #@! TO.P,J1,2*
G04 #@! TO.N,SWCLK*
X166370000Y-81040000D03*
D11*
G04 #@! TO.P,J1,1*
G04 #@! TO.N,+3V3*
X166370000Y-78500000D03*
G04 #@! TD*
D12*
G04 #@! TO.P,J2,6*
G04 #@! TO.N,GND*
X124615000Y-127881000D03*
X124615000Y-122421000D03*
D13*
X127615000Y-127571000D03*
X127615000Y-122731000D03*
G04 #@! TD*
D14*
G04 #@! TO.P,Y1,1*
G04 #@! TO.N,Net-(C9-Pad1)*
X151680000Y-95600000D03*
G04 #@! TO.P,Y1,2*
G04 #@! TO.N,Net-(C10-Pad1)*
X146800000Y-95600000D03*
G04 #@! TD*
D15*
G04 #@! TO.N,GND*
X141750000Y-82500000D03*
X144500000Y-79750000D03*
X168500000Y-99750000D03*
X168500000Y-102250000D03*
G04 #@! TO.N,NRST*
X159185396Y-95000000D03*
X149499992Y-104500000D03*
G04 #@! TO.N,SWDIO*
X158500000Y-96500000D03*
X150000006Y-108000000D03*
G04 #@! TO.N,SWCLK*
X157970388Y-98000000D03*
X151750000Y-108749998D03*
G04 #@! TO.N,Net-(D2-Pad2)*
X140500000Y-106622300D03*
X138000000Y-104500000D03*
G04 #@! TO.N,Net-(D4-Pad2)*
X147377700Y-112907302D03*
X146000000Y-124907302D03*
G04 #@! TO.N,+2V8*
X139000000Y-123750006D03*
X134500000Y-123750000D03*
X145500000Y-136750000D03*
X129250000Y-103500000D03*
X152000000Y-76500000D03*
X141500000Y-72000000D03*
X124000000Y-114000000D03*
X173000000Y-99500000D03*
X164250006Y-98500000D03*
X168250000Y-110000000D03*
X156000000Y-141000000D03*
G04 #@! TO.N,SCL*
X150800000Y-138238203D03*
X146600000Y-75000000D03*
X127000000Y-109000000D03*
X170238203Y-104500000D03*
X170250000Y-95500004D03*
G04 #@! TO.N,SDA*
X169400000Y-104500000D03*
X150800000Y-137319920D03*
X146600000Y-75880081D03*
X127838213Y-109000000D03*
X166250000Y-98500000D03*
G04 #@! TO.N,EN3*
X148000000Y-125500000D03*
X148000000Y-113500000D03*
G04 #@! TD*
D16*
G04 #@! TO.N,GND*
X142092899Y-82157101D02*
X144500000Y-79750000D01*
X141750000Y-82500000D02*
X142092899Y-82157101D01*
X168500000Y-99750000D02*
X168500000Y-102250000D01*
G04 #@! TO.N,NRST*
X149842891Y-104157101D02*
X149499992Y-104500000D01*
X158999992Y-95000000D02*
X149842891Y-104157101D01*
X159185396Y-95000000D02*
X158999992Y-95000000D01*
G04 #@! TO.N,SWDIO*
X158500000Y-96500000D02*
X150000006Y-104999994D01*
X150000006Y-107515067D02*
X150000006Y-108000000D01*
X150000006Y-104999994D02*
X150000006Y-107515067D01*
G04 #@! TO.N,SWCLK*
X151750000Y-104220388D02*
X151750000Y-108265065D01*
X151750000Y-108265065D02*
X151750000Y-108749998D01*
X157970388Y-98000000D02*
X151750000Y-104220388D01*
G04 #@! TO.N,Net-(D2-Pad2)*
X140500000Y-106622300D02*
X138377700Y-104500000D01*
X138377700Y-104500000D02*
X138000000Y-104500000D01*
G04 #@! TO.N,Net-(D4-Pad2)*
X146000000Y-114285002D02*
X146000000Y-125000000D01*
X147377700Y-112907302D02*
X146000000Y-114285002D01*
G04 #@! TO.N,SCL*
X150800000Y-138238203D02*
X150800000Y-138200000D01*
X127000000Y-109484933D02*
X127000000Y-109000000D01*
X127000000Y-114400000D02*
X127000000Y-109484933D01*
X127000000Y-94600000D02*
X127000000Y-108515067D01*
X150800000Y-138200000D02*
X127000000Y-114400000D01*
X146600000Y-75000000D02*
X127000000Y-94600000D01*
X127000000Y-108515067D02*
X127000000Y-109000000D01*
X150800000Y-138200000D02*
X170238203Y-118761797D01*
X170238203Y-98638203D02*
X170238203Y-104600000D01*
X170238203Y-118761797D02*
X170238203Y-105084933D01*
X170238203Y-105084933D02*
X170238203Y-104600000D01*
X168850000Y-97250000D02*
X170238203Y-98638203D01*
X168750004Y-97000000D02*
X170250000Y-95500004D01*
X168600000Y-97000000D02*
X168750004Y-97000000D01*
X146600000Y-75000000D02*
X168600000Y-97000000D01*
X168600000Y-97000000D02*
X168850000Y-97250000D01*
G04 #@! TO.N,SDA*
X169400000Y-104600000D02*
X169400000Y-118719920D01*
X169400000Y-118719920D02*
X151142899Y-136977021D01*
X151142899Y-136977021D02*
X150800000Y-137319920D01*
X169400000Y-104600000D02*
X169400000Y-98680081D01*
X146942899Y-76222980D02*
X146600000Y-75880081D01*
X146600000Y-75880081D02*
X127838213Y-94641868D01*
X150800000Y-137319920D02*
X127838213Y-114358133D01*
X127838213Y-108515067D02*
X127838213Y-109000000D01*
X127838213Y-109484933D02*
X127838213Y-109000000D01*
X127838213Y-114358133D02*
X127838213Y-109484933D01*
X127838213Y-94641868D02*
X127838213Y-108515067D01*
X166000000Y-95280081D02*
X146942899Y-76222980D01*
X166719919Y-96000000D02*
X166000000Y-95280081D01*
X169400000Y-98680081D02*
X167969919Y-97250000D01*
X167719919Y-97030081D02*
X167719919Y-97000000D01*
X166250000Y-98500000D02*
X167719919Y-97030081D01*
X167719919Y-97000000D02*
X166719919Y-96000000D01*
X167969919Y-97250000D02*
X167719919Y-97000000D01*
G04 #@! TO.N,EN3*
X148000000Y-125500000D02*
X148000000Y-113500000D01*
G04 #@! TD*
G04 #@! TO.N,+2V8*
G36*
X170849696Y-70719468D02*
X170925724Y-70731237D01*
X171655756Y-70805391D01*
X172284730Y-71002500D01*
X172861224Y-71322055D01*
X173361682Y-71751001D01*
X173765669Y-72271818D01*
X174056682Y-72863233D01*
X174225112Y-73509848D01*
X174267166Y-74056388D01*
X174290000Y-74183296D01*
X174290001Y-139319846D01*
X174280532Y-139349696D01*
X174268763Y-139425723D01*
X174194609Y-140155759D01*
X173997499Y-140784734D01*
X173677945Y-141361224D01*
X173249002Y-141861680D01*
X172728182Y-142265669D01*
X172136767Y-142556682D01*
X171490153Y-142725112D01*
X170943612Y-142767166D01*
X170816704Y-142790000D01*
X126180150Y-142790000D01*
X126150304Y-142780532D01*
X126074277Y-142768763D01*
X125344241Y-142694609D01*
X124715266Y-142497499D01*
X124138776Y-142177945D01*
X123638320Y-141749002D01*
X123234331Y-141228182D01*
X122943318Y-140636767D01*
X122774888Y-139990153D01*
X122732834Y-139443612D01*
X122710000Y-139316704D01*
X122710000Y-139055431D01*
X123765000Y-139055431D01*
X123765000Y-139944569D01*
X124105259Y-140766026D01*
X124733974Y-141394741D01*
X125555431Y-141735000D01*
X126444569Y-141735000D01*
X127266026Y-141394741D01*
X127894741Y-140766026D01*
X128235000Y-139944569D01*
X128235000Y-139055431D01*
X127894741Y-138233974D01*
X127266026Y-137605259D01*
X126444569Y-137265000D01*
X125555431Y-137265000D01*
X124733974Y-137605259D01*
X124105259Y-138233974D01*
X123765000Y-139055431D01*
X122710000Y-139055431D01*
X122710000Y-127881000D01*
X123104336Y-127881000D01*
X123206007Y-128392136D01*
X123495543Y-128825457D01*
X123928864Y-129114993D01*
X124310978Y-129191000D01*
X124919022Y-129191000D01*
X125301136Y-129114993D01*
X125734457Y-128825457D01*
X126023993Y-128392136D01*
X126125664Y-127881000D01*
X126064002Y-127571000D01*
X126206785Y-127571000D01*
X126298755Y-128033364D01*
X126560663Y-128425337D01*
X126952636Y-128687245D01*
X127298290Y-128756000D01*
X127931710Y-128756000D01*
X128277364Y-128687245D01*
X128669337Y-128425337D01*
X128931245Y-128033364D01*
X129023215Y-127571000D01*
X128931245Y-127108636D01*
X128669337Y-126716663D01*
X128277364Y-126454755D01*
X127931710Y-126386000D01*
X127298290Y-126386000D01*
X126952636Y-126454755D01*
X126560663Y-126716663D01*
X126298755Y-127108636D01*
X126206785Y-127571000D01*
X126064002Y-127571000D01*
X126023993Y-127369864D01*
X125734457Y-126936543D01*
X125301136Y-126647007D01*
X124919022Y-126571000D01*
X124310978Y-126571000D01*
X123928864Y-126647007D01*
X123495543Y-126936543D01*
X123206007Y-127369864D01*
X123104336Y-127881000D01*
X122710000Y-127881000D01*
X122710000Y-122421000D01*
X123104336Y-122421000D01*
X123206007Y-122932136D01*
X123495543Y-123365457D01*
X123928864Y-123654993D01*
X124310978Y-123731000D01*
X124919022Y-123731000D01*
X125301136Y-123654993D01*
X125734457Y-123365457D01*
X126023993Y-122932136D01*
X126064001Y-122731000D01*
X126206785Y-122731000D01*
X126298755Y-123193364D01*
X126560663Y-123585337D01*
X126952636Y-123847245D01*
X127298290Y-123916000D01*
X127931710Y-123916000D01*
X128277364Y-123847245D01*
X128669337Y-123585337D01*
X128931245Y-123193364D01*
X129023215Y-122731000D01*
X128931245Y-122268636D01*
X128669337Y-121876663D01*
X128277364Y-121614755D01*
X127931710Y-121546000D01*
X127298290Y-121546000D01*
X126952636Y-121614755D01*
X126560663Y-121876663D01*
X126298755Y-122268636D01*
X126206785Y-122731000D01*
X126064001Y-122731000D01*
X126125664Y-122421000D01*
X126023993Y-121909864D01*
X125734457Y-121476543D01*
X125301136Y-121187007D01*
X124919022Y-121111000D01*
X124310978Y-121111000D01*
X123928864Y-121187007D01*
X123495543Y-121476543D01*
X123206007Y-121909864D01*
X123104336Y-122421000D01*
X122710000Y-122421000D01*
X122710000Y-108805484D01*
X126022100Y-108805484D01*
X126022100Y-109194516D01*
X126170977Y-109553936D01*
X126238001Y-109620960D01*
X126238000Y-114324957D01*
X126223073Y-114400000D01*
X126238000Y-114475043D01*
X126238000Y-114475047D01*
X126282212Y-114697316D01*
X126450629Y-114949371D01*
X126514254Y-114991884D01*
X149822100Y-138299731D01*
X149822100Y-138432719D01*
X149970977Y-138792139D01*
X150246064Y-139067226D01*
X150605484Y-139216103D01*
X150994516Y-139216103D01*
X151353936Y-139067226D01*
X151365731Y-139055431D01*
X168765000Y-139055431D01*
X168765000Y-139944569D01*
X169105259Y-140766026D01*
X169733974Y-141394741D01*
X170555431Y-141735000D01*
X171444569Y-141735000D01*
X172266026Y-141394741D01*
X172894741Y-140766026D01*
X173235000Y-139944569D01*
X173235000Y-139055431D01*
X172894741Y-138233974D01*
X172266026Y-137605259D01*
X171444569Y-137265000D01*
X170555431Y-137265000D01*
X169733974Y-137605259D01*
X169105259Y-138233974D01*
X168765000Y-139055431D01*
X151365731Y-139055431D01*
X151629023Y-138792139D01*
X151777900Y-138432719D01*
X151777900Y-138299730D01*
X170723953Y-119353678D01*
X170787574Y-119311168D01*
X170955991Y-119059114D01*
X171000203Y-118836845D01*
X171000203Y-118836841D01*
X171015130Y-118761798D01*
X171000203Y-118686755D01*
X171000203Y-105120959D01*
X171067226Y-105053936D01*
X171216103Y-104694516D01*
X171216103Y-104305484D01*
X171067226Y-103946064D01*
X171000203Y-103879041D01*
X171000203Y-98713250D01*
X171015131Y-98638203D01*
X170998369Y-98553936D01*
X170955991Y-98340886D01*
X170787574Y-98088832D01*
X170723953Y-98046322D01*
X169752632Y-97075002D01*
X170349731Y-96477904D01*
X170444516Y-96477904D01*
X170803936Y-96329027D01*
X171079023Y-96053940D01*
X171227900Y-95694520D01*
X171227900Y-95305488D01*
X171079023Y-94946068D01*
X170803936Y-94670981D01*
X170444516Y-94522104D01*
X170055484Y-94522104D01*
X169696064Y-94670981D01*
X169420977Y-94946068D01*
X169272100Y-95305488D01*
X169272100Y-95400273D01*
X168675002Y-95997371D01*
X153717631Y-81040000D01*
X164855908Y-81040000D01*
X164971161Y-81619418D01*
X165299375Y-82110625D01*
X165597761Y-82310000D01*
X165299375Y-82509375D01*
X164971161Y-83000582D01*
X164855908Y-83580000D01*
X164971161Y-84159418D01*
X165299375Y-84650625D01*
X165597761Y-84850000D01*
X165299375Y-85049375D01*
X164971161Y-85540582D01*
X164855908Y-86120000D01*
X164971161Y-86699418D01*
X165299375Y-87190625D01*
X165597761Y-87390000D01*
X165299375Y-87589375D01*
X164971161Y-88080582D01*
X164855908Y-88660000D01*
X164971161Y-89239418D01*
X165299375Y-89730625D01*
X165597761Y-89930000D01*
X165299375Y-90129375D01*
X164971161Y-90620582D01*
X164855908Y-91200000D01*
X164971161Y-91779418D01*
X165299375Y-92270625D01*
X165790582Y-92598839D01*
X166223744Y-92685000D01*
X166516256Y-92685000D01*
X166949418Y-92598839D01*
X167440625Y-92270625D01*
X167768839Y-91779418D01*
X167884092Y-91200000D01*
X167768839Y-90620582D01*
X167440625Y-90129375D01*
X167142239Y-89930000D01*
X167440625Y-89730625D01*
X167768839Y-89239418D01*
X167884092Y-88660000D01*
X167768839Y-88080582D01*
X167440625Y-87589375D01*
X167142239Y-87390000D01*
X167440625Y-87190625D01*
X167768839Y-86699418D01*
X167884092Y-86120000D01*
X167768839Y-85540582D01*
X167440625Y-85049375D01*
X167142239Y-84850000D01*
X167440625Y-84650625D01*
X167768839Y-84159418D01*
X167884092Y-83580000D01*
X167768839Y-83000582D01*
X167440625Y-82509375D01*
X167142239Y-82310000D01*
X167440625Y-82110625D01*
X167768839Y-81619418D01*
X167884092Y-81040000D01*
X167768839Y-80460582D01*
X167440625Y-79969375D01*
X167422381Y-79957184D01*
X167467765Y-79948157D01*
X167677809Y-79807809D01*
X167818157Y-79597765D01*
X167867440Y-79350000D01*
X167867440Y-77650000D01*
X167818157Y-77402235D01*
X167677809Y-77192191D01*
X167467765Y-77051843D01*
X167220000Y-77002560D01*
X165520000Y-77002560D01*
X165272235Y-77051843D01*
X165062191Y-77192191D01*
X164921843Y-77402235D01*
X164872560Y-77650000D01*
X164872560Y-79350000D01*
X164921843Y-79597765D01*
X165062191Y-79807809D01*
X165272235Y-79948157D01*
X165317619Y-79957184D01*
X165299375Y-79969375D01*
X164971161Y-80460582D01*
X164855908Y-81040000D01*
X153717631Y-81040000D01*
X147577900Y-74900270D01*
X147577900Y-74805484D01*
X147429023Y-74446064D01*
X147153936Y-74170977D01*
X146794516Y-74022100D01*
X146405484Y-74022100D01*
X146046064Y-74170977D01*
X145770977Y-74446064D01*
X145622100Y-74805484D01*
X145622100Y-74900269D01*
X126514254Y-94008116D01*
X126450629Y-94050629D01*
X126282212Y-94302684D01*
X126238000Y-94524953D01*
X126238000Y-94524957D01*
X126223073Y-94600000D01*
X126238000Y-94675043D01*
X126238001Y-108379040D01*
X126170977Y-108446064D01*
X126022100Y-108805484D01*
X122710000Y-108805484D01*
X122710000Y-74180151D01*
X122719468Y-74150304D01*
X122731237Y-74074276D01*
X122783939Y-73555431D01*
X123765000Y-73555431D01*
X123765000Y-74444569D01*
X124105259Y-75266026D01*
X124733974Y-75894741D01*
X125555431Y-76235000D01*
X126444569Y-76235000D01*
X127266026Y-75894741D01*
X127894741Y-75266026D01*
X128235000Y-74444569D01*
X128235000Y-73555431D01*
X168765000Y-73555431D01*
X168765000Y-74444569D01*
X169105259Y-75266026D01*
X169733974Y-75894741D01*
X170555431Y-76235000D01*
X171444569Y-76235000D01*
X172266026Y-75894741D01*
X172894741Y-75266026D01*
X173235000Y-74444569D01*
X173235000Y-73555431D01*
X172894741Y-72733974D01*
X172266026Y-72105259D01*
X171444569Y-71765000D01*
X170555431Y-71765000D01*
X169733974Y-72105259D01*
X169105259Y-72733974D01*
X168765000Y-73555431D01*
X128235000Y-73555431D01*
X127894741Y-72733974D01*
X127266026Y-72105259D01*
X126444569Y-71765000D01*
X125555431Y-71765000D01*
X124733974Y-72105259D01*
X124105259Y-72733974D01*
X123765000Y-73555431D01*
X122783939Y-73555431D01*
X122805391Y-73344244D01*
X123002500Y-72715270D01*
X123322055Y-72138776D01*
X123751001Y-71638318D01*
X124271818Y-71234331D01*
X124863233Y-70943318D01*
X125509848Y-70774888D01*
X126056388Y-70732834D01*
X126183296Y-70710000D01*
X170819849Y-70710000D01*
X170849696Y-70719468D01*
X170849696Y-70719468D01*
G37*
X170849696Y-70719468D02*
X170925724Y-70731237D01*
X171655756Y-70805391D01*
X172284730Y-71002500D01*
X172861224Y-71322055D01*
X173361682Y-71751001D01*
X173765669Y-72271818D01*
X174056682Y-72863233D01*
X174225112Y-73509848D01*
X174267166Y-74056388D01*
X174290000Y-74183296D01*
X174290001Y-139319846D01*
X174280532Y-139349696D01*
X174268763Y-139425723D01*
X174194609Y-140155759D01*
X173997499Y-140784734D01*
X173677945Y-141361224D01*
X173249002Y-141861680D01*
X172728182Y-142265669D01*
X172136767Y-142556682D01*
X171490153Y-142725112D01*
X170943612Y-142767166D01*
X170816704Y-142790000D01*
X126180150Y-142790000D01*
X126150304Y-142780532D01*
X126074277Y-142768763D01*
X125344241Y-142694609D01*
X124715266Y-142497499D01*
X124138776Y-142177945D01*
X123638320Y-141749002D01*
X123234331Y-141228182D01*
X122943318Y-140636767D01*
X122774888Y-139990153D01*
X122732834Y-139443612D01*
X122710000Y-139316704D01*
X122710000Y-139055431D01*
X123765000Y-139055431D01*
X123765000Y-139944569D01*
X124105259Y-140766026D01*
X124733974Y-141394741D01*
X125555431Y-141735000D01*
X126444569Y-141735000D01*
X127266026Y-141394741D01*
X127894741Y-140766026D01*
X128235000Y-139944569D01*
X128235000Y-139055431D01*
X127894741Y-138233974D01*
X127266026Y-137605259D01*
X126444569Y-137265000D01*
X125555431Y-137265000D01*
X124733974Y-137605259D01*
X124105259Y-138233974D01*
X123765000Y-139055431D01*
X122710000Y-139055431D01*
X122710000Y-127881000D01*
X123104336Y-127881000D01*
X123206007Y-128392136D01*
X123495543Y-128825457D01*
X123928864Y-129114993D01*
X124310978Y-129191000D01*
X124919022Y-129191000D01*
X125301136Y-129114993D01*
X125734457Y-128825457D01*
X126023993Y-128392136D01*
X126125664Y-127881000D01*
X126064002Y-127571000D01*
X126206785Y-127571000D01*
X126298755Y-128033364D01*
X126560663Y-128425337D01*
X126952636Y-128687245D01*
X127298290Y-128756000D01*
X127931710Y-128756000D01*
X128277364Y-128687245D01*
X128669337Y-128425337D01*
X128931245Y-128033364D01*
X129023215Y-127571000D01*
X128931245Y-127108636D01*
X128669337Y-126716663D01*
X128277364Y-126454755D01*
X127931710Y-126386000D01*
X127298290Y-126386000D01*
X126952636Y-126454755D01*
X126560663Y-126716663D01*
X126298755Y-127108636D01*
X126206785Y-127571000D01*
X126064002Y-127571000D01*
X126023993Y-127369864D01*
X125734457Y-126936543D01*
X125301136Y-126647007D01*
X124919022Y-126571000D01*
X124310978Y-126571000D01*
X123928864Y-126647007D01*
X123495543Y-126936543D01*
X123206007Y-127369864D01*
X123104336Y-127881000D01*
X122710000Y-127881000D01*
X122710000Y-122421000D01*
X123104336Y-122421000D01*
X123206007Y-122932136D01*
X123495543Y-123365457D01*
X123928864Y-123654993D01*
X124310978Y-123731000D01*
X124919022Y-123731000D01*
X125301136Y-123654993D01*
X125734457Y-123365457D01*
X126023993Y-122932136D01*
X126064001Y-122731000D01*
X126206785Y-122731000D01*
X126298755Y-123193364D01*
X126560663Y-123585337D01*
X126952636Y-123847245D01*
X127298290Y-123916000D01*
X127931710Y-123916000D01*
X128277364Y-123847245D01*
X128669337Y-123585337D01*
X128931245Y-123193364D01*
X129023215Y-122731000D01*
X128931245Y-122268636D01*
X128669337Y-121876663D01*
X128277364Y-121614755D01*
X127931710Y-121546000D01*
X127298290Y-121546000D01*
X126952636Y-121614755D01*
X126560663Y-121876663D01*
X126298755Y-122268636D01*
X126206785Y-122731000D01*
X126064001Y-122731000D01*
X126125664Y-122421000D01*
X126023993Y-121909864D01*
X125734457Y-121476543D01*
X125301136Y-121187007D01*
X124919022Y-121111000D01*
X124310978Y-121111000D01*
X123928864Y-121187007D01*
X123495543Y-121476543D01*
X123206007Y-121909864D01*
X123104336Y-122421000D01*
X122710000Y-122421000D01*
X122710000Y-108805484D01*
X126022100Y-108805484D01*
X126022100Y-109194516D01*
X126170977Y-109553936D01*
X126238001Y-109620960D01*
X126238000Y-114324957D01*
X126223073Y-114400000D01*
X126238000Y-114475043D01*
X126238000Y-114475047D01*
X126282212Y-114697316D01*
X126450629Y-114949371D01*
X126514254Y-114991884D01*
X149822100Y-138299731D01*
X149822100Y-138432719D01*
X149970977Y-138792139D01*
X150246064Y-139067226D01*
X150605484Y-139216103D01*
X150994516Y-139216103D01*
X151353936Y-139067226D01*
X151365731Y-139055431D01*
X168765000Y-139055431D01*
X168765000Y-139944569D01*
X169105259Y-140766026D01*
X169733974Y-141394741D01*
X170555431Y-141735000D01*
X171444569Y-141735000D01*
X172266026Y-141394741D01*
X172894741Y-140766026D01*
X173235000Y-139944569D01*
X173235000Y-139055431D01*
X172894741Y-138233974D01*
X172266026Y-137605259D01*
X171444569Y-137265000D01*
X170555431Y-137265000D01*
X169733974Y-137605259D01*
X169105259Y-138233974D01*
X168765000Y-139055431D01*
X151365731Y-139055431D01*
X151629023Y-138792139D01*
X151777900Y-138432719D01*
X151777900Y-138299730D01*
X170723953Y-119353678D01*
X170787574Y-119311168D01*
X170955991Y-119059114D01*
X171000203Y-118836845D01*
X171000203Y-118836841D01*
X171015130Y-118761798D01*
X171000203Y-118686755D01*
X171000203Y-105120959D01*
X171067226Y-105053936D01*
X171216103Y-104694516D01*
X171216103Y-104305484D01*
X171067226Y-103946064D01*
X171000203Y-103879041D01*
X171000203Y-98713250D01*
X171015131Y-98638203D01*
X170998369Y-98553936D01*
X170955991Y-98340886D01*
X170787574Y-98088832D01*
X170723953Y-98046322D01*
X169752632Y-97075002D01*
X170349731Y-96477904D01*
X170444516Y-96477904D01*
X170803936Y-96329027D01*
X171079023Y-96053940D01*
X171227900Y-95694520D01*
X171227900Y-95305488D01*
X171079023Y-94946068D01*
X170803936Y-94670981D01*
X170444516Y-94522104D01*
X170055484Y-94522104D01*
X169696064Y-94670981D01*
X169420977Y-94946068D01*
X169272100Y-95305488D01*
X169272100Y-95400273D01*
X168675002Y-95997371D01*
X153717631Y-81040000D01*
X164855908Y-81040000D01*
X164971161Y-81619418D01*
X165299375Y-82110625D01*
X165597761Y-82310000D01*
X165299375Y-82509375D01*
X164971161Y-83000582D01*
X164855908Y-83580000D01*
X164971161Y-84159418D01*
X165299375Y-84650625D01*
X165597761Y-84850000D01*
X165299375Y-85049375D01*
X164971161Y-85540582D01*
X164855908Y-86120000D01*
X164971161Y-86699418D01*
X165299375Y-87190625D01*
X165597761Y-87390000D01*
X165299375Y-87589375D01*
X164971161Y-88080582D01*
X164855908Y-88660000D01*
X164971161Y-89239418D01*
X165299375Y-89730625D01*
X165597761Y-89930000D01*
X165299375Y-90129375D01*
X164971161Y-90620582D01*
X164855908Y-91200000D01*
X164971161Y-91779418D01*
X165299375Y-92270625D01*
X165790582Y-92598839D01*
X166223744Y-92685000D01*
X166516256Y-92685000D01*
X166949418Y-92598839D01*
X167440625Y-92270625D01*
X167768839Y-91779418D01*
X167884092Y-91200000D01*
X167768839Y-90620582D01*
X167440625Y-90129375D01*
X167142239Y-89930000D01*
X167440625Y-89730625D01*
X167768839Y-89239418D01*
X167884092Y-88660000D01*
X167768839Y-88080582D01*
X167440625Y-87589375D01*
X167142239Y-87390000D01*
X167440625Y-87190625D01*
X167768839Y-86699418D01*
X167884092Y-86120000D01*
X167768839Y-85540582D01*
X167440625Y-85049375D01*
X167142239Y-84850000D01*
X167440625Y-84650625D01*
X167768839Y-84159418D01*
X167884092Y-83580000D01*
X167768839Y-83000582D01*
X167440625Y-82509375D01*
X167142239Y-82310000D01*
X167440625Y-82110625D01*
X167768839Y-81619418D01*
X167884092Y-81040000D01*
X167768839Y-80460582D01*
X167440625Y-79969375D01*
X167422381Y-79957184D01*
X167467765Y-79948157D01*
X167677809Y-79807809D01*
X167818157Y-79597765D01*
X167867440Y-79350000D01*
X167867440Y-77650000D01*
X167818157Y-77402235D01*
X167677809Y-77192191D01*
X167467765Y-77051843D01*
X167220000Y-77002560D01*
X165520000Y-77002560D01*
X165272235Y-77051843D01*
X165062191Y-77192191D01*
X164921843Y-77402235D01*
X164872560Y-77650000D01*
X164872560Y-79350000D01*
X164921843Y-79597765D01*
X165062191Y-79807809D01*
X165272235Y-79948157D01*
X165317619Y-79957184D01*
X165299375Y-79969375D01*
X164971161Y-80460582D01*
X164855908Y-81040000D01*
X153717631Y-81040000D01*
X147577900Y-74900270D01*
X147577900Y-74805484D01*
X147429023Y-74446064D01*
X147153936Y-74170977D01*
X146794516Y-74022100D01*
X146405484Y-74022100D01*
X146046064Y-74170977D01*
X145770977Y-74446064D01*
X145622100Y-74805484D01*
X145622100Y-74900269D01*
X126514254Y-94008116D01*
X126450629Y-94050629D01*
X126282212Y-94302684D01*
X126238000Y-94524953D01*
X126238000Y-94524957D01*
X126223073Y-94600000D01*
X126238000Y-94675043D01*
X126238001Y-108379040D01*
X126170977Y-108446064D01*
X126022100Y-108805484D01*
X122710000Y-108805484D01*
X122710000Y-74180151D01*
X122719468Y-74150304D01*
X122731237Y-74074276D01*
X122783939Y-73555431D01*
X123765000Y-73555431D01*
X123765000Y-74444569D01*
X124105259Y-75266026D01*
X124733974Y-75894741D01*
X125555431Y-76235000D01*
X126444569Y-76235000D01*
X127266026Y-75894741D01*
X127894741Y-75266026D01*
X128235000Y-74444569D01*
X128235000Y-73555431D01*
X168765000Y-73555431D01*
X168765000Y-74444569D01*
X169105259Y-75266026D01*
X169733974Y-75894741D01*
X170555431Y-76235000D01*
X171444569Y-76235000D01*
X172266026Y-75894741D01*
X172894741Y-75266026D01*
X173235000Y-74444569D01*
X173235000Y-73555431D01*
X172894741Y-72733974D01*
X172266026Y-72105259D01*
X171444569Y-71765000D01*
X170555431Y-71765000D01*
X169733974Y-72105259D01*
X169105259Y-72733974D01*
X168765000Y-73555431D01*
X128235000Y-73555431D01*
X127894741Y-72733974D01*
X127266026Y-72105259D01*
X126444569Y-71765000D01*
X125555431Y-71765000D01*
X124733974Y-72105259D01*
X124105259Y-72733974D01*
X123765000Y-73555431D01*
X122783939Y-73555431D01*
X122805391Y-73344244D01*
X123002500Y-72715270D01*
X123322055Y-72138776D01*
X123751001Y-71638318D01*
X124271818Y-71234331D01*
X124863233Y-70943318D01*
X125509848Y-70774888D01*
X126056388Y-70732834D01*
X126183296Y-70710000D01*
X170819849Y-70710000D01*
X170849696Y-70719468D01*
G36*
X165514251Y-95871963D02*
X165514254Y-95871965D01*
X166234170Y-96591882D01*
X166234173Y-96591884D01*
X166657329Y-97015040D01*
X166150270Y-97522100D01*
X166055484Y-97522100D01*
X165696064Y-97670977D01*
X165420977Y-97946064D01*
X165272100Y-98305484D01*
X165272100Y-98694516D01*
X165420977Y-99053936D01*
X165696064Y-99329023D01*
X166055484Y-99477900D01*
X166444516Y-99477900D01*
X166803936Y-99329023D01*
X167079023Y-99053936D01*
X167227900Y-98694516D01*
X167227900Y-98599730D01*
X167734960Y-98092671D01*
X168414388Y-98772100D01*
X168305484Y-98772100D01*
X167946064Y-98920977D01*
X167670977Y-99196064D01*
X167522100Y-99555484D01*
X167522100Y-99944516D01*
X167670977Y-100303936D01*
X167738000Y-100370959D01*
X167738001Y-101629040D01*
X167670977Y-101696064D01*
X167522100Y-102055484D01*
X167522100Y-102444516D01*
X167670977Y-102803936D01*
X167946064Y-103079023D01*
X168305484Y-103227900D01*
X168638000Y-103227900D01*
X168638000Y-103879041D01*
X168570977Y-103946064D01*
X168422100Y-104305484D01*
X168422100Y-104694516D01*
X168570977Y-105053936D01*
X168638000Y-105120959D01*
X168638001Y-118404288D01*
X150800000Y-136242290D01*
X139270496Y-124712786D01*
X145022100Y-124712786D01*
X145022100Y-125101818D01*
X145170977Y-125461238D01*
X145446064Y-125736325D01*
X145805484Y-125885202D01*
X146194516Y-125885202D01*
X146553936Y-125736325D01*
X146829023Y-125461238D01*
X146977900Y-125101818D01*
X146977900Y-124712786D01*
X146829023Y-124353366D01*
X146762000Y-124286343D01*
X146762000Y-114600632D01*
X147238001Y-114124632D01*
X147238000Y-124879041D01*
X147170977Y-124946064D01*
X147022100Y-125305484D01*
X147022100Y-125694516D01*
X147170977Y-126053936D01*
X147446064Y-126329023D01*
X147805484Y-126477900D01*
X148194516Y-126477900D01*
X148553936Y-126329023D01*
X148829023Y-126053936D01*
X148977900Y-125694516D01*
X148977900Y-125305484D01*
X148829023Y-124946064D01*
X148762000Y-124879041D01*
X148762000Y-114120959D01*
X148829023Y-114053936D01*
X148977900Y-113694516D01*
X148977900Y-113305484D01*
X148829023Y-112946064D01*
X148553936Y-112670977D01*
X148293618Y-112563150D01*
X148206723Y-112353366D01*
X147931636Y-112078279D01*
X147572216Y-111929402D01*
X147183184Y-111929402D01*
X146823764Y-112078279D01*
X146548677Y-112353366D01*
X146399800Y-112712786D01*
X146399800Y-112807571D01*
X145514253Y-113693119D01*
X145450629Y-113735631D01*
X145282212Y-113987686D01*
X145238000Y-114209955D01*
X145238000Y-114209959D01*
X145223073Y-114285002D01*
X145238000Y-114360045D01*
X145238001Y-124286342D01*
X145170977Y-124353366D01*
X145022100Y-124712786D01*
X139270496Y-124712786D01*
X128600213Y-114042503D01*
X128600213Y-109620959D01*
X128667236Y-109553936D01*
X128816113Y-109194516D01*
X128816113Y-108805484D01*
X128667236Y-108446064D01*
X128600213Y-108379041D01*
X128600213Y-104305484D01*
X137022100Y-104305484D01*
X137022100Y-104694516D01*
X137170977Y-105053936D01*
X137446064Y-105329023D01*
X137805484Y-105477900D01*
X138194516Y-105477900D01*
X138253527Y-105453457D01*
X139522100Y-106722031D01*
X139522100Y-106816816D01*
X139670977Y-107176236D01*
X139946064Y-107451323D01*
X140305484Y-107600200D01*
X140694516Y-107600200D01*
X141053936Y-107451323D01*
X141329023Y-107176236D01*
X141477900Y-106816816D01*
X141477900Y-106427784D01*
X141329023Y-106068364D01*
X141053936Y-105793277D01*
X140694516Y-105644400D01*
X140599731Y-105644400D01*
X139260815Y-104305484D01*
X148522092Y-104305484D01*
X148522092Y-104694516D01*
X148670969Y-105053936D01*
X148946056Y-105329023D01*
X149238006Y-105449953D01*
X149238007Y-107379040D01*
X149170983Y-107446064D01*
X149022106Y-107805484D01*
X149022106Y-108194516D01*
X149170983Y-108553936D01*
X149446070Y-108829023D01*
X149805490Y-108977900D01*
X150194522Y-108977900D01*
X150553942Y-108829023D01*
X150772100Y-108610865D01*
X150772100Y-108944514D01*
X150920977Y-109303934D01*
X151196064Y-109579021D01*
X151555484Y-109727898D01*
X151944516Y-109727898D01*
X152303936Y-109579021D01*
X152579023Y-109303934D01*
X152727900Y-108944514D01*
X152727900Y-108555482D01*
X152579023Y-108196062D01*
X152512000Y-108129039D01*
X152512000Y-104536018D01*
X158070119Y-98977900D01*
X158164904Y-98977900D01*
X158524324Y-98829023D01*
X158799411Y-98553936D01*
X158948288Y-98194516D01*
X158948288Y-97805484D01*
X158799411Y-97446064D01*
X158791199Y-97437852D01*
X159053936Y-97329023D01*
X159329023Y-97053936D01*
X159477900Y-96694516D01*
X159477900Y-96305484D01*
X159342210Y-95977900D01*
X159379912Y-95977900D01*
X159739332Y-95829023D01*
X160014419Y-95553936D01*
X160163296Y-95194516D01*
X160163296Y-94805484D01*
X160014419Y-94446064D01*
X159739332Y-94170977D01*
X159379912Y-94022100D01*
X158990880Y-94022100D01*
X158631460Y-94170977D01*
X158356373Y-94446064D01*
X158271574Y-94650787D01*
X149400262Y-103522100D01*
X149305476Y-103522100D01*
X148946056Y-103670977D01*
X148670969Y-103946064D01*
X148522092Y-104305484D01*
X139260815Y-104305484D01*
X138969583Y-104014253D01*
X138927071Y-103950629D01*
X138675017Y-103782212D01*
X138662726Y-103779767D01*
X138553936Y-103670977D01*
X138194516Y-103522100D01*
X137805484Y-103522100D01*
X137446064Y-103670977D01*
X137170977Y-103946064D01*
X137022100Y-104305484D01*
X128600213Y-104305484D01*
X128600213Y-95324506D01*
X145415000Y-95324506D01*
X145415000Y-95875494D01*
X145625853Y-96384540D01*
X146015460Y-96774147D01*
X146524506Y-96985000D01*
X147075494Y-96985000D01*
X147584540Y-96774147D01*
X147974147Y-96384540D01*
X148185000Y-95875494D01*
X148185000Y-95324506D01*
X150295000Y-95324506D01*
X150295000Y-95875494D01*
X150505853Y-96384540D01*
X150895460Y-96774147D01*
X151404506Y-96985000D01*
X151955494Y-96985000D01*
X152464540Y-96774147D01*
X152854147Y-96384540D01*
X153065000Y-95875494D01*
X153065000Y-95324506D01*
X152854147Y-94815460D01*
X152464540Y-94425853D01*
X151955494Y-94215000D01*
X151404506Y-94215000D01*
X150895460Y-94425853D01*
X150505853Y-94815460D01*
X150295000Y-95324506D01*
X148185000Y-95324506D01*
X147974147Y-94815460D01*
X147584540Y-94425853D01*
X147075494Y-94215000D01*
X146524506Y-94215000D01*
X146015460Y-94425853D01*
X145625853Y-94815460D01*
X145415000Y-95324506D01*
X128600213Y-95324506D01*
X128600213Y-94957498D01*
X140798781Y-82758930D01*
X140920977Y-83053936D01*
X141196064Y-83329023D01*
X141555484Y-83477900D01*
X141944516Y-83477900D01*
X142303936Y-83329023D01*
X142579023Y-83053936D01*
X142727900Y-82694516D01*
X142727900Y-82599730D01*
X144599731Y-80727900D01*
X144694516Y-80727900D01*
X145053936Y-80579023D01*
X145329023Y-80303936D01*
X145477900Y-79944516D01*
X145477900Y-79555484D01*
X145329023Y-79196064D01*
X145053936Y-78920977D01*
X144758930Y-78798781D01*
X146600000Y-76957711D01*
X165514251Y-95871963D01*
X165514251Y-95871963D01*
G37*
X165514251Y-95871963D02*
X165514254Y-95871965D01*
X166234170Y-96591882D01*
X166234173Y-96591884D01*
X166657329Y-97015040D01*
X166150270Y-97522100D01*
X166055484Y-97522100D01*
X165696064Y-97670977D01*
X165420977Y-97946064D01*
X165272100Y-98305484D01*
X165272100Y-98694516D01*
X165420977Y-99053936D01*
X165696064Y-99329023D01*
X166055484Y-99477900D01*
X166444516Y-99477900D01*
X166803936Y-99329023D01*
X167079023Y-99053936D01*
X167227900Y-98694516D01*
X167227900Y-98599730D01*
X167734960Y-98092671D01*
X168414388Y-98772100D01*
X168305484Y-98772100D01*
X167946064Y-98920977D01*
X167670977Y-99196064D01*
X167522100Y-99555484D01*
X167522100Y-99944516D01*
X167670977Y-100303936D01*
X167738000Y-100370959D01*
X167738001Y-101629040D01*
X167670977Y-101696064D01*
X167522100Y-102055484D01*
X167522100Y-102444516D01*
X167670977Y-102803936D01*
X167946064Y-103079023D01*
X168305484Y-103227900D01*
X168638000Y-103227900D01*
X168638000Y-103879041D01*
X168570977Y-103946064D01*
X168422100Y-104305484D01*
X168422100Y-104694516D01*
X168570977Y-105053936D01*
X168638000Y-105120959D01*
X168638001Y-118404288D01*
X150800000Y-136242290D01*
X139270496Y-124712786D01*
X145022100Y-124712786D01*
X145022100Y-125101818D01*
X145170977Y-125461238D01*
X145446064Y-125736325D01*
X145805484Y-125885202D01*
X146194516Y-125885202D01*
X146553936Y-125736325D01*
X146829023Y-125461238D01*
X146977900Y-125101818D01*
X146977900Y-124712786D01*
X146829023Y-124353366D01*
X146762000Y-124286343D01*
X146762000Y-114600632D01*
X147238001Y-114124632D01*
X147238000Y-124879041D01*
X147170977Y-124946064D01*
X147022100Y-125305484D01*
X147022100Y-125694516D01*
X147170977Y-126053936D01*
X147446064Y-126329023D01*
X147805484Y-126477900D01*
X148194516Y-126477900D01*
X148553936Y-126329023D01*
X148829023Y-126053936D01*
X148977900Y-125694516D01*
X148977900Y-125305484D01*
X148829023Y-124946064D01*
X148762000Y-124879041D01*
X148762000Y-114120959D01*
X148829023Y-114053936D01*
X148977900Y-113694516D01*
X148977900Y-113305484D01*
X148829023Y-112946064D01*
X148553936Y-112670977D01*
X148293618Y-112563150D01*
X148206723Y-112353366D01*
X147931636Y-112078279D01*
X147572216Y-111929402D01*
X147183184Y-111929402D01*
X146823764Y-112078279D01*
X146548677Y-112353366D01*
X146399800Y-112712786D01*
X146399800Y-112807571D01*
X145514253Y-113693119D01*
X145450629Y-113735631D01*
X145282212Y-113987686D01*
X145238000Y-114209955D01*
X145238000Y-114209959D01*
X145223073Y-114285002D01*
X145238000Y-114360045D01*
X145238001Y-124286342D01*
X145170977Y-124353366D01*
X145022100Y-124712786D01*
X139270496Y-124712786D01*
X128600213Y-114042503D01*
X128600213Y-109620959D01*
X128667236Y-109553936D01*
X128816113Y-109194516D01*
X128816113Y-108805484D01*
X128667236Y-108446064D01*
X128600213Y-108379041D01*
X128600213Y-104305484D01*
X137022100Y-104305484D01*
X137022100Y-104694516D01*
X137170977Y-105053936D01*
X137446064Y-105329023D01*
X137805484Y-105477900D01*
X138194516Y-105477900D01*
X138253527Y-105453457D01*
X139522100Y-106722031D01*
X139522100Y-106816816D01*
X139670977Y-107176236D01*
X139946064Y-107451323D01*
X140305484Y-107600200D01*
X140694516Y-107600200D01*
X141053936Y-107451323D01*
X141329023Y-107176236D01*
X141477900Y-106816816D01*
X141477900Y-106427784D01*
X141329023Y-106068364D01*
X141053936Y-105793277D01*
X140694516Y-105644400D01*
X140599731Y-105644400D01*
X139260815Y-104305484D01*
X148522092Y-104305484D01*
X148522092Y-104694516D01*
X148670969Y-105053936D01*
X148946056Y-105329023D01*
X149238006Y-105449953D01*
X149238007Y-107379040D01*
X149170983Y-107446064D01*
X149022106Y-107805484D01*
X149022106Y-108194516D01*
X149170983Y-108553936D01*
X149446070Y-108829023D01*
X149805490Y-108977900D01*
X150194522Y-108977900D01*
X150553942Y-108829023D01*
X150772100Y-108610865D01*
X150772100Y-108944514D01*
X150920977Y-109303934D01*
X151196064Y-109579021D01*
X151555484Y-109727898D01*
X151944516Y-109727898D01*
X152303936Y-109579021D01*
X152579023Y-109303934D01*
X152727900Y-108944514D01*
X152727900Y-108555482D01*
X152579023Y-108196062D01*
X152512000Y-108129039D01*
X152512000Y-104536018D01*
X158070119Y-98977900D01*
X158164904Y-98977900D01*
X158524324Y-98829023D01*
X158799411Y-98553936D01*
X158948288Y-98194516D01*
X158948288Y-97805484D01*
X158799411Y-97446064D01*
X158791199Y-97437852D01*
X159053936Y-97329023D01*
X159329023Y-97053936D01*
X159477900Y-96694516D01*
X159477900Y-96305484D01*
X159342210Y-95977900D01*
X159379912Y-95977900D01*
X159739332Y-95829023D01*
X160014419Y-95553936D01*
X160163296Y-95194516D01*
X160163296Y-94805484D01*
X160014419Y-94446064D01*
X159739332Y-94170977D01*
X159379912Y-94022100D01*
X158990880Y-94022100D01*
X158631460Y-94170977D01*
X158356373Y-94446064D01*
X158271574Y-94650787D01*
X149400262Y-103522100D01*
X149305476Y-103522100D01*
X148946056Y-103670977D01*
X148670969Y-103946064D01*
X148522092Y-104305484D01*
X139260815Y-104305484D01*
X138969583Y-104014253D01*
X138927071Y-103950629D01*
X138675017Y-103782212D01*
X138662726Y-103779767D01*
X138553936Y-103670977D01*
X138194516Y-103522100D01*
X137805484Y-103522100D01*
X137446064Y-103670977D01*
X137170977Y-103946064D01*
X137022100Y-104305484D01*
X128600213Y-104305484D01*
X128600213Y-95324506D01*
X145415000Y-95324506D01*
X145415000Y-95875494D01*
X145625853Y-96384540D01*
X146015460Y-96774147D01*
X146524506Y-96985000D01*
X147075494Y-96985000D01*
X147584540Y-96774147D01*
X147974147Y-96384540D01*
X148185000Y-95875494D01*
X148185000Y-95324506D01*
X150295000Y-95324506D01*
X150295000Y-95875494D01*
X150505853Y-96384540D01*
X150895460Y-96774147D01*
X151404506Y-96985000D01*
X151955494Y-96985000D01*
X152464540Y-96774147D01*
X152854147Y-96384540D01*
X153065000Y-95875494D01*
X153065000Y-95324506D01*
X152854147Y-94815460D01*
X152464540Y-94425853D01*
X151955494Y-94215000D01*
X151404506Y-94215000D01*
X150895460Y-94425853D01*
X150505853Y-94815460D01*
X150295000Y-95324506D01*
X148185000Y-95324506D01*
X147974147Y-94815460D01*
X147584540Y-94425853D01*
X147075494Y-94215000D01*
X146524506Y-94215000D01*
X146015460Y-94425853D01*
X145625853Y-94815460D01*
X145415000Y-95324506D01*
X128600213Y-95324506D01*
X128600213Y-94957498D01*
X140798781Y-82758930D01*
X140920977Y-83053936D01*
X141196064Y-83329023D01*
X141555484Y-83477900D01*
X141944516Y-83477900D01*
X142303936Y-83329023D01*
X142579023Y-83053936D01*
X142727900Y-82694516D01*
X142727900Y-82599730D01*
X144599731Y-80727900D01*
X144694516Y-80727900D01*
X145053936Y-80579023D01*
X145329023Y-80303936D01*
X145477900Y-79944516D01*
X145477900Y-79555484D01*
X145329023Y-79196064D01*
X145053936Y-78920977D01*
X144758930Y-78798781D01*
X146600000Y-76957711D01*
X165514251Y-95871963D01*
G04 #@! TD*
M02*
