M48
;DRILL file {KiCad 5.0.0-fee4fd1~66~ubuntu16.04.1} date Mon Jan 21 23:12:00 2019
;FORMAT={2:4/ absolute / inch / suppress trailing zeros}
FMAT,2
INCH,LZ
T1C0.0130
T2C0.0256
T3C0.0276
T4C0.0315
T5C0.0394
T6C0.1260
%
G90
G05
M72
T1
X050393Y-042862
X050787Y-041929
X051378Y-040748
X051502Y-04397
X052165Y-040748
X052362Y-045669
X05374Y-049311
X053839Y-047146
X055217Y-046752
X055709Y-046752
X056201Y-046752
X056496Y-030512
X057283Y-045866
X057382Y-053346
X057579Y-041634
X057579Y-051378
X057677Y-029724
X057874Y-047638
X058071Y-045866
X058268Y-039469
X058465Y-043012
X058563Y-040894
X058661Y-030315
X058661Y-053543
X058858Y-043012
X059055Y-045866
X059252Y-039469
X059449Y-044536
X059449Y-054331
X059547Y-041535
X059843Y-030512
X059843Y-031299
X06063Y-045079
X06063Y-053543
X062008Y-042028
X062008Y-04252
X062205Y-044094
X065669Y-040945
X065748Y-039961
X065748Y-043307
X066339Y-041929
X066929Y-041142
T4
X057626Y-038287
X059547Y-038287
T5
X0655Y-030906
X0655Y-031906
X0655Y-032906
X0655Y-033906
X0655Y-034906
X0655Y-035906
T6
X067421Y-029035
X049508Y-05502
X049508Y-029035
X067421Y-05502
T2
X050163Y-048319G85X050321Y-048319
G05
X050163Y-050225G85X050321Y-050225
G05
T3
X048963Y-048197G85X049159Y-048197
G05
X048963Y-050347G85X049159Y-050347
G05
T0
M30
