G04 #@! TF.GenerationSoftware,KiCad,Pcbnew,5.0.0-fee4fd1~66~ubuntu16.04.1*
G04 #@! TF.CreationDate,2018-10-30T04:03:00-04:00*
G04 #@! TF.ProjectId,quadrant,7175616472616E742E6B696361645F70,rev?*
G04 #@! TF.SameCoordinates,Original*
G04 #@! TF.FileFunction,Copper,L2,Bot,Signal*
G04 #@! TF.FilePolarity,Positive*
%FSLAX46Y46*%
G04 Gerber Fmt 4.6, Leading zero omitted, Abs format (unit mm)*
G04 Created by KiCad (PCBNEW 5.0.0-fee4fd1~66~ubuntu16.04.1) date Tue Oct 30 04:03:00 2018*
%MOMM*%
%LPD*%
G01*
G04 APERTURE LIST*
G04 #@! TA.AperFunction,ComponentPad*
%ADD10C,1.524000*%
G04 #@! TD*
G04 #@! TA.AperFunction,ComponentPad*
%ADD11O,1.700000X1.700000*%
G04 #@! TD*
G04 #@! TA.AperFunction,ComponentPad*
%ADD12R,1.700000X1.700000*%
G04 #@! TD*
G04 #@! TA.AperFunction,ComponentPad*
%ADD13O,1.700000X1.350000*%
G04 #@! TD*
G04 #@! TA.AperFunction,ComponentPad*
%ADD14O,1.500000X1.100000*%
G04 #@! TD*
G04 #@! TA.AperFunction,ComponentPad*
%ADD15C,1.500000*%
G04 #@! TD*
G04 #@! TA.AperFunction,WasherPad*
%ADD16C,3.200000*%
G04 #@! TD*
G04 #@! TA.AperFunction,ViaPad*
%ADD17C,0.685800*%
G04 #@! TD*
G04 #@! TA.AperFunction,Conductor*
%ADD18C,0.254000*%
G04 #@! TD*
G04 APERTURE END LIST*
D10*
G04 #@! TO.P,D1,4*
G04 #@! TO.N,Net-(D1-Pad4)*
X147320000Y-78950000D03*
G04 #@! TO.P,D1,3*
G04 #@! TO.N,GND*
X147320000Y-73450000D03*
G04 #@! TO.P,D1,2*
G04 #@! TO.N,Net-(D1-Pad2)*
X149860000Y-78950000D03*
G04 #@! TO.P,D1,1*
G04 #@! TO.N,ADC_IN0*
X149860000Y-73450000D03*
G04 #@! TD*
G04 #@! TO.P,D2,4*
G04 #@! TO.N,Net-(D2-Pad4)*
X166160000Y-105410000D03*
G04 #@! TO.P,D2,3*
G04 #@! TO.N,GND*
X171660000Y-105410000D03*
G04 #@! TO.P,D2,2*
G04 #@! TO.N,Net-(D2-Pad2)*
X166160000Y-107950000D03*
G04 #@! TO.P,D2,1*
G04 #@! TO.N,ADC_IN2*
X171660000Y-107950000D03*
G04 #@! TD*
G04 #@! TO.P,D3,4*
G04 #@! TO.N,Net-(D3-Pad4)*
X149860000Y-134410000D03*
G04 #@! TO.P,D3,3*
G04 #@! TO.N,GND*
X149860000Y-139910000D03*
G04 #@! TO.P,D3,2*
G04 #@! TO.N,Net-(D3-Pad2)*
X147320000Y-134410000D03*
G04 #@! TO.P,D3,1*
G04 #@! TO.N,ADC_IN4*
X147320000Y-139910000D03*
G04 #@! TD*
G04 #@! TO.P,D4,4*
G04 #@! TO.N,Net-(D4-Pad4)*
X131020000Y-107950000D03*
G04 #@! TO.P,D4,3*
G04 #@! TO.N,GND*
X125520000Y-107950000D03*
G04 #@! TO.P,D4,2*
G04 #@! TO.N,Net-(D4-Pad2)*
X131020000Y-105410000D03*
G04 #@! TO.P,D4,1*
G04 #@! TO.N,ADC_IN6*
X125520000Y-105410000D03*
G04 #@! TD*
D11*
G04 #@! TO.P,J1,6*
G04 #@! TO.N,N/C*
X166370000Y-91440000D03*
G04 #@! TO.P,J1,5*
G04 #@! TO.N,NRST*
X166370000Y-88900000D03*
G04 #@! TO.P,J1,4*
G04 #@! TO.N,SWDIO*
X166370000Y-86360000D03*
G04 #@! TO.P,J1,3*
G04 #@! TO.N,GND*
X166370000Y-83820000D03*
G04 #@! TO.P,J1,2*
G04 #@! TO.N,SWCLK*
X166370000Y-81280000D03*
D12*
G04 #@! TO.P,J1,1*
G04 #@! TO.N,VCC*
X166370000Y-78740000D03*
G04 #@! TD*
D13*
G04 #@! TO.P,J2,6*
G04 #@! TO.N,GND*
X124615000Y-127881000D03*
X124615000Y-122421000D03*
D14*
X127615000Y-127571000D03*
X127615000Y-122731000D03*
G04 #@! TD*
D15*
G04 #@! TO.P,Y1,1*
G04 #@! TO.N,Net-(C2-Pad1)*
X152400000Y-96520000D03*
G04 #@! TO.P,Y1,2*
G04 #@! TO.N,Net-(C3-Pad1)*
X147520000Y-96520000D03*
G04 #@! TD*
D16*
G04 #@! TO.P,REF\002A\002A,*
G04 #@! TO.N,*
X125730000Y-73660000D03*
G04 #@! TD*
G04 #@! TO.P,REF\002A\002A,*
G04 #@! TO.N,*
X171450000Y-73660000D03*
G04 #@! TD*
G04 #@! TO.P,REF\002A\002A,*
G04 #@! TO.N,*
X171450000Y-139700000D03*
G04 #@! TD*
G04 #@! TO.P,REF\002A\002A,*
G04 #@! TO.N,*
X125730000Y-139700000D03*
G04 #@! TD*
D17*
G04 #@! TO.N,NRST*
X149860000Y-104140000D03*
G04 #@! TO.N,VCC*
X168910000Y-112785000D03*
X128270000Y-100575000D03*
X154695000Y-76200000D03*
X142485000Y-137160000D03*
X142240000Y-118110000D03*
X151130000Y-114300000D03*
G04 #@! TO.N,ADC_IN0*
X148590000Y-100330000D03*
G04 #@! TO.N,ADC_IN2*
X147320000Y-104140000D03*
G04 #@! TO.N,ADC_IN4*
X144780000Y-137160000D03*
X143510000Y-106680000D03*
G04 #@! TO.N,ADC_IN6*
X146050000Y-106680000D03*
G04 #@! TO.N,PA5*
X149860000Y-121920000D03*
X144780000Y-107950000D03*
G04 #@! TO.N,PA3*
X168910000Y-95250000D03*
X160020000Y-96520000D03*
X152400000Y-99060000D03*
X145823946Y-103680302D03*
G04 #@! TD*
D18*
G04 #@! TO.N,NRST*
X165100000Y-88900000D02*
X166370000Y-88900000D01*
X149860000Y-104140000D02*
X165100000Y-88900000D01*
G04 #@! TO.N,ADC_IN0*
X152400000Y-75990000D02*
X149860000Y-73450000D01*
X148590000Y-100330000D02*
X149860000Y-99060000D01*
X149860000Y-99060000D02*
X149860000Y-82550000D01*
X149860000Y-82550000D02*
X152400000Y-80010000D01*
X152400000Y-80010000D02*
X152400000Y-75990000D01*
G04 #@! TO.N,ADC_IN2*
X153670000Y-110490000D02*
X147320000Y-104140000D01*
X171660000Y-107950000D02*
X169120000Y-110490000D01*
X169120000Y-110490000D02*
X153670000Y-110490000D01*
G04 #@! TO.N,ADC_IN4*
X144780000Y-119728994D02*
X143510000Y-118458994D01*
X144780000Y-137160000D02*
X144780000Y-119728994D01*
X143510000Y-118458994D02*
X143510000Y-106680000D01*
G04 #@! TO.N,ADC_IN6*
X142240000Y-102870000D02*
X146050000Y-106680000D01*
X130810000Y-102870000D02*
X142240000Y-102870000D01*
X128270000Y-105410000D02*
X130810000Y-102870000D01*
X128270000Y-105410000D02*
X125520000Y-105410000D01*
G04 #@! TO.N,PA5*
X144780000Y-116840000D02*
X144780000Y-107950000D01*
X149860000Y-121920000D02*
X144780000Y-116840000D01*
G04 #@! TO.N,PA3*
X167640000Y-96520000D02*
X160020000Y-96520000D01*
X168910000Y-95250000D02*
X167640000Y-96520000D01*
X151478994Y-99060000D02*
X146858692Y-103680302D01*
X146858692Y-103680302D02*
X145823946Y-103680302D01*
X152400000Y-99060000D02*
X151478994Y-99060000D01*
G04 #@! TD*
G04 #@! TO.N,VCC*
G36*
X174525001Y-142775000D02*
X122655000Y-142775000D01*
X122655000Y-139255431D01*
X123495000Y-139255431D01*
X123495000Y-140144569D01*
X123835259Y-140966026D01*
X124463974Y-141594741D01*
X125285431Y-141935000D01*
X126174569Y-141935000D01*
X126996026Y-141594741D01*
X127624741Y-140966026D01*
X127965000Y-140144569D01*
X127965000Y-139632119D01*
X145923000Y-139632119D01*
X145923000Y-140187881D01*
X146135680Y-140701337D01*
X146528663Y-141094320D01*
X147042119Y-141307000D01*
X147597881Y-141307000D01*
X148111337Y-141094320D01*
X148504320Y-140701337D01*
X148590000Y-140494487D01*
X148675680Y-140701337D01*
X149068663Y-141094320D01*
X149582119Y-141307000D01*
X150137881Y-141307000D01*
X150651337Y-141094320D01*
X151044320Y-140701337D01*
X151257000Y-140187881D01*
X151257000Y-139632119D01*
X151100972Y-139255431D01*
X169215000Y-139255431D01*
X169215000Y-140144569D01*
X169555259Y-140966026D01*
X170183974Y-141594741D01*
X171005431Y-141935000D01*
X171894569Y-141935000D01*
X172716026Y-141594741D01*
X173344741Y-140966026D01*
X173685000Y-140144569D01*
X173685000Y-139255431D01*
X173344741Y-138433974D01*
X172716026Y-137805259D01*
X171894569Y-137465000D01*
X171005431Y-137465000D01*
X170183974Y-137805259D01*
X169555259Y-138433974D01*
X169215000Y-139255431D01*
X151100972Y-139255431D01*
X151044320Y-139118663D01*
X150651337Y-138725680D01*
X150137881Y-138513000D01*
X149582119Y-138513000D01*
X149068663Y-138725680D01*
X148675680Y-139118663D01*
X148590000Y-139325513D01*
X148504320Y-139118663D01*
X148111337Y-138725680D01*
X147597881Y-138513000D01*
X147042119Y-138513000D01*
X146528663Y-138725680D01*
X146135680Y-139118663D01*
X145923000Y-139632119D01*
X127965000Y-139632119D01*
X127965000Y-139255431D01*
X127624741Y-138433974D01*
X126996026Y-137805259D01*
X126174569Y-137465000D01*
X125285431Y-137465000D01*
X124463974Y-137805259D01*
X123835259Y-138433974D01*
X123495000Y-139255431D01*
X122655000Y-139255431D01*
X122655000Y-127881000D01*
X123104336Y-127881000D01*
X123206007Y-128392136D01*
X123495543Y-128825457D01*
X123928864Y-129114993D01*
X124310978Y-129191000D01*
X124919022Y-129191000D01*
X125301136Y-129114993D01*
X125734457Y-128825457D01*
X126023993Y-128392136D01*
X126125664Y-127881000D01*
X126064002Y-127571000D01*
X126206785Y-127571000D01*
X126298755Y-128033364D01*
X126560663Y-128425337D01*
X126952636Y-128687245D01*
X127298290Y-128756000D01*
X127931710Y-128756000D01*
X128277364Y-128687245D01*
X128669337Y-128425337D01*
X128931245Y-128033364D01*
X129023215Y-127571000D01*
X128931245Y-127108636D01*
X128669337Y-126716663D01*
X128277364Y-126454755D01*
X127931710Y-126386000D01*
X127298290Y-126386000D01*
X126952636Y-126454755D01*
X126560663Y-126716663D01*
X126298755Y-127108636D01*
X126206785Y-127571000D01*
X126064002Y-127571000D01*
X126023993Y-127369864D01*
X125734457Y-126936543D01*
X125301136Y-126647007D01*
X124919022Y-126571000D01*
X124310978Y-126571000D01*
X123928864Y-126647007D01*
X123495543Y-126936543D01*
X123206007Y-127369864D01*
X123104336Y-127881000D01*
X122655000Y-127881000D01*
X122655000Y-122421000D01*
X123104336Y-122421000D01*
X123206007Y-122932136D01*
X123495543Y-123365457D01*
X123928864Y-123654993D01*
X124310978Y-123731000D01*
X124919022Y-123731000D01*
X125301136Y-123654993D01*
X125734457Y-123365457D01*
X126023993Y-122932136D01*
X126064001Y-122731000D01*
X126206785Y-122731000D01*
X126298755Y-123193364D01*
X126560663Y-123585337D01*
X126952636Y-123847245D01*
X127298290Y-123916000D01*
X127931710Y-123916000D01*
X128277364Y-123847245D01*
X128669337Y-123585337D01*
X128931245Y-123193364D01*
X129023215Y-122731000D01*
X128931245Y-122268636D01*
X128669337Y-121876663D01*
X128277364Y-121614755D01*
X127931710Y-121546000D01*
X127298290Y-121546000D01*
X126952636Y-121614755D01*
X126560663Y-121876663D01*
X126298755Y-122268636D01*
X126206785Y-122731000D01*
X126064001Y-122731000D01*
X126125664Y-122421000D01*
X126023993Y-121909864D01*
X125734457Y-121476543D01*
X125301136Y-121187007D01*
X124919022Y-121111000D01*
X124310978Y-121111000D01*
X123928864Y-121187007D01*
X123495543Y-121476543D01*
X123206007Y-121909864D01*
X123104336Y-122421000D01*
X122655000Y-122421000D01*
X122655000Y-105132119D01*
X124123000Y-105132119D01*
X124123000Y-105687881D01*
X124335680Y-106201337D01*
X124728663Y-106594320D01*
X124935513Y-106680000D01*
X124728663Y-106765680D01*
X124335680Y-107158663D01*
X124123000Y-107672119D01*
X124123000Y-108227881D01*
X124335680Y-108741337D01*
X124728663Y-109134320D01*
X125242119Y-109347000D01*
X125797881Y-109347000D01*
X126311337Y-109134320D01*
X126704320Y-108741337D01*
X126917000Y-108227881D01*
X126917000Y-107672119D01*
X126704320Y-107158663D01*
X126311337Y-106765680D01*
X126104487Y-106680000D01*
X126311337Y-106594320D01*
X126704320Y-106201337D01*
X126716472Y-106172000D01*
X128194957Y-106172000D01*
X128270000Y-106186927D01*
X128345043Y-106172000D01*
X128345048Y-106172000D01*
X128567317Y-106127788D01*
X128819371Y-105959371D01*
X128861884Y-105895746D01*
X129623000Y-105134630D01*
X129623000Y-105687881D01*
X129835680Y-106201337D01*
X130228663Y-106594320D01*
X130435513Y-106680000D01*
X130228663Y-106765680D01*
X129835680Y-107158663D01*
X129623000Y-107672119D01*
X129623000Y-108227881D01*
X129835680Y-108741337D01*
X130228663Y-109134320D01*
X130742119Y-109347000D01*
X131297881Y-109347000D01*
X131811337Y-109134320D01*
X132204320Y-108741337D01*
X132417000Y-108227881D01*
X132417000Y-107672119D01*
X132204320Y-107158663D01*
X131811337Y-106765680D01*
X131604487Y-106680000D01*
X131811337Y-106594320D01*
X132204320Y-106201337D01*
X132417000Y-105687881D01*
X132417000Y-105132119D01*
X132204320Y-104618663D01*
X131811337Y-104225680D01*
X131297881Y-104013000D01*
X130744630Y-104013000D01*
X131125630Y-103632000D01*
X141924370Y-103632000D01*
X145072100Y-106779731D01*
X145072100Y-106874516D01*
X145141103Y-107041103D01*
X144974516Y-106972100D01*
X144585484Y-106972100D01*
X144418897Y-107041103D01*
X144487900Y-106874516D01*
X144487900Y-106485484D01*
X144339023Y-106126064D01*
X144063936Y-105850977D01*
X143704516Y-105702100D01*
X143315484Y-105702100D01*
X142956064Y-105850977D01*
X142680977Y-106126064D01*
X142532100Y-106485484D01*
X142532100Y-106874516D01*
X142680977Y-107233936D01*
X142748001Y-107300960D01*
X142748000Y-118383951D01*
X142733073Y-118458994D01*
X142748000Y-118534037D01*
X142748000Y-118534041D01*
X142792212Y-118756310D01*
X142960629Y-119008365D01*
X143024253Y-119050877D01*
X144018001Y-120044626D01*
X144018000Y-136539041D01*
X143950977Y-136606064D01*
X143802100Y-136965484D01*
X143802100Y-137354516D01*
X143950977Y-137713936D01*
X144226064Y-137989023D01*
X144585484Y-138137900D01*
X144974516Y-138137900D01*
X145333936Y-137989023D01*
X145609023Y-137713936D01*
X145757900Y-137354516D01*
X145757900Y-136965484D01*
X145609023Y-136606064D01*
X145542000Y-136539041D01*
X145542000Y-134132119D01*
X145923000Y-134132119D01*
X145923000Y-134687881D01*
X146135680Y-135201337D01*
X146528663Y-135594320D01*
X147042119Y-135807000D01*
X147597881Y-135807000D01*
X148111337Y-135594320D01*
X148504320Y-135201337D01*
X148590000Y-134994487D01*
X148675680Y-135201337D01*
X149068663Y-135594320D01*
X149582119Y-135807000D01*
X150137881Y-135807000D01*
X150651337Y-135594320D01*
X151044320Y-135201337D01*
X151257000Y-134687881D01*
X151257000Y-134132119D01*
X151044320Y-133618663D01*
X150651337Y-133225680D01*
X150137881Y-133013000D01*
X149582119Y-133013000D01*
X149068663Y-133225680D01*
X148675680Y-133618663D01*
X148590000Y-133825513D01*
X148504320Y-133618663D01*
X148111337Y-133225680D01*
X147597881Y-133013000D01*
X147042119Y-133013000D01*
X146528663Y-133225680D01*
X146135680Y-133618663D01*
X145923000Y-134132119D01*
X145542000Y-134132119D01*
X145542000Y-119804036D01*
X145556927Y-119728993D01*
X145542000Y-119653950D01*
X145542000Y-119653946D01*
X145497788Y-119431677D01*
X145329371Y-119179623D01*
X145265749Y-119137112D01*
X144272000Y-118143364D01*
X144272000Y-117417014D01*
X144294253Y-117431883D01*
X148882100Y-122019731D01*
X148882100Y-122114516D01*
X149030977Y-122473936D01*
X149306064Y-122749023D01*
X149665484Y-122897900D01*
X150054516Y-122897900D01*
X150413936Y-122749023D01*
X150689023Y-122473936D01*
X150837900Y-122114516D01*
X150837900Y-121725484D01*
X150689023Y-121366064D01*
X150413936Y-121090977D01*
X150054516Y-120942100D01*
X149959731Y-120942100D01*
X145542000Y-116524370D01*
X145542000Y-108570959D01*
X145609023Y-108503936D01*
X145757900Y-108144516D01*
X145757900Y-107755484D01*
X145688897Y-107588897D01*
X145855484Y-107657900D01*
X146244516Y-107657900D01*
X146603936Y-107509023D01*
X146879023Y-107233936D01*
X147027900Y-106874516D01*
X147027900Y-106485484D01*
X146879023Y-106126064D01*
X146603936Y-105850977D01*
X146244516Y-105702100D01*
X146149731Y-105702100D01*
X143933417Y-103485786D01*
X144846046Y-103485786D01*
X144846046Y-103874818D01*
X144994923Y-104234238D01*
X145270010Y-104509325D01*
X145629430Y-104658202D01*
X146018462Y-104658202D01*
X146377882Y-104509325D01*
X146403781Y-104483426D01*
X146490977Y-104693936D01*
X146766064Y-104969023D01*
X147125484Y-105117900D01*
X147220270Y-105117900D01*
X153078118Y-110975749D01*
X153120629Y-111039371D01*
X153372683Y-111207788D01*
X153594952Y-111252000D01*
X153594956Y-111252000D01*
X153669999Y-111266927D01*
X153745042Y-111252000D01*
X169044957Y-111252000D01*
X169120000Y-111266927D01*
X169195043Y-111252000D01*
X169195048Y-111252000D01*
X169417317Y-111207788D01*
X169669371Y-111039371D01*
X169711884Y-110975746D01*
X171352782Y-109334848D01*
X171382119Y-109347000D01*
X171937881Y-109347000D01*
X172451337Y-109134320D01*
X172844320Y-108741337D01*
X173057000Y-108227881D01*
X173057000Y-107672119D01*
X172844320Y-107158663D01*
X172451337Y-106765680D01*
X172244487Y-106680000D01*
X172451337Y-106594320D01*
X172844320Y-106201337D01*
X173057000Y-105687881D01*
X173057000Y-105132119D01*
X172844320Y-104618663D01*
X172451337Y-104225680D01*
X171937881Y-104013000D01*
X171382119Y-104013000D01*
X170868663Y-104225680D01*
X170475680Y-104618663D01*
X170263000Y-105132119D01*
X170263000Y-105687881D01*
X170475680Y-106201337D01*
X170868663Y-106594320D01*
X171075513Y-106680000D01*
X170868663Y-106765680D01*
X170475680Y-107158663D01*
X170263000Y-107672119D01*
X170263000Y-108227881D01*
X170275152Y-108257218D01*
X168804370Y-109728000D01*
X153985631Y-109728000D01*
X149389750Y-105132119D01*
X164763000Y-105132119D01*
X164763000Y-105687881D01*
X164975680Y-106201337D01*
X165368663Y-106594320D01*
X165575513Y-106680000D01*
X165368663Y-106765680D01*
X164975680Y-107158663D01*
X164763000Y-107672119D01*
X164763000Y-108227881D01*
X164975680Y-108741337D01*
X165368663Y-109134320D01*
X165882119Y-109347000D01*
X166437881Y-109347000D01*
X166951337Y-109134320D01*
X167344320Y-108741337D01*
X167557000Y-108227881D01*
X167557000Y-107672119D01*
X167344320Y-107158663D01*
X166951337Y-106765680D01*
X166744487Y-106680000D01*
X166951337Y-106594320D01*
X167344320Y-106201337D01*
X167557000Y-105687881D01*
X167557000Y-105132119D01*
X167344320Y-104618663D01*
X166951337Y-104225680D01*
X166437881Y-104013000D01*
X165882119Y-104013000D01*
X165368663Y-104225680D01*
X164975680Y-104618663D01*
X164763000Y-105132119D01*
X149389750Y-105132119D01*
X148297900Y-104040270D01*
X148297900Y-103945484D01*
X148882100Y-103945484D01*
X148882100Y-104334516D01*
X149030977Y-104693936D01*
X149306064Y-104969023D01*
X149665484Y-105117900D01*
X150054516Y-105117900D01*
X150413936Y-104969023D01*
X150689023Y-104693936D01*
X150837900Y-104334516D01*
X150837900Y-104239730D01*
X158752146Y-96325484D01*
X159042100Y-96325484D01*
X159042100Y-96714516D01*
X159190977Y-97073936D01*
X159466064Y-97349023D01*
X159825484Y-97497900D01*
X160214516Y-97497900D01*
X160573936Y-97349023D01*
X160640959Y-97282000D01*
X167564957Y-97282000D01*
X167640000Y-97296927D01*
X167715043Y-97282000D01*
X167715048Y-97282000D01*
X167937317Y-97237788D01*
X168189371Y-97069371D01*
X168231883Y-97005747D01*
X169009731Y-96227900D01*
X169104516Y-96227900D01*
X169463936Y-96079023D01*
X169739023Y-95803936D01*
X169887900Y-95444516D01*
X169887900Y-95055484D01*
X169739023Y-94696064D01*
X169463936Y-94420977D01*
X169104516Y-94272100D01*
X168715484Y-94272100D01*
X168356064Y-94420977D01*
X168080977Y-94696064D01*
X167932100Y-95055484D01*
X167932100Y-95150269D01*
X167324370Y-95758000D01*
X160640959Y-95758000D01*
X160573936Y-95690977D01*
X160214516Y-95542100D01*
X159825484Y-95542100D01*
X159466064Y-95690977D01*
X159190977Y-95966064D01*
X159042100Y-96325484D01*
X158752146Y-96325484D01*
X165222323Y-89855308D01*
X165299375Y-89970625D01*
X165597761Y-90170000D01*
X165299375Y-90369375D01*
X164971161Y-90860582D01*
X164855908Y-91440000D01*
X164971161Y-92019418D01*
X165299375Y-92510625D01*
X165790582Y-92838839D01*
X166223744Y-92925000D01*
X166516256Y-92925000D01*
X166949418Y-92838839D01*
X167440625Y-92510625D01*
X167768839Y-92019418D01*
X167884092Y-91440000D01*
X167768839Y-90860582D01*
X167440625Y-90369375D01*
X167142239Y-90170000D01*
X167440625Y-89970625D01*
X167768839Y-89479418D01*
X167884092Y-88900000D01*
X167768839Y-88320582D01*
X167440625Y-87829375D01*
X167142239Y-87630000D01*
X167440625Y-87430625D01*
X167768839Y-86939418D01*
X167884092Y-86360000D01*
X167768839Y-85780582D01*
X167440625Y-85289375D01*
X167142239Y-85090000D01*
X167440625Y-84890625D01*
X167768839Y-84399418D01*
X167884092Y-83820000D01*
X167768839Y-83240582D01*
X167440625Y-82749375D01*
X167142239Y-82550000D01*
X167440625Y-82350625D01*
X167768839Y-81859418D01*
X167884092Y-81280000D01*
X167768839Y-80700582D01*
X167440625Y-80209375D01*
X167418967Y-80194904D01*
X167579698Y-80128327D01*
X167758327Y-79949699D01*
X167855000Y-79716310D01*
X167855000Y-79025750D01*
X167696250Y-78867000D01*
X166497000Y-78867000D01*
X166497000Y-78887000D01*
X166243000Y-78887000D01*
X166243000Y-78867000D01*
X165043750Y-78867000D01*
X164885000Y-79025750D01*
X164885000Y-79716310D01*
X164981673Y-79949699D01*
X165160302Y-80128327D01*
X165321033Y-80194904D01*
X165299375Y-80209375D01*
X164971161Y-80700582D01*
X164855908Y-81280000D01*
X164971161Y-81859418D01*
X165299375Y-82350625D01*
X165597761Y-82550000D01*
X165299375Y-82749375D01*
X164971161Y-83240582D01*
X164855908Y-83820000D01*
X164971161Y-84399418D01*
X165299375Y-84890625D01*
X165597761Y-85090000D01*
X165299375Y-85289375D01*
X164971161Y-85780582D01*
X164855908Y-86360000D01*
X164971161Y-86939418D01*
X165299375Y-87430625D01*
X165597761Y-87630000D01*
X165299375Y-87829375D01*
X165102765Y-88123622D01*
X165100000Y-88123072D01*
X165024953Y-88138000D01*
X165024952Y-88138000D01*
X164802683Y-88182212D01*
X164550629Y-88350629D01*
X164508118Y-88414251D01*
X149760270Y-103162100D01*
X149665484Y-103162100D01*
X149306064Y-103310977D01*
X149030977Y-103586064D01*
X148882100Y-103945484D01*
X148297900Y-103945484D01*
X148149023Y-103586064D01*
X148089792Y-103526833D01*
X151786833Y-99829792D01*
X151846064Y-99889023D01*
X152205484Y-100037900D01*
X152594516Y-100037900D01*
X152953936Y-99889023D01*
X153229023Y-99613936D01*
X153377900Y-99254516D01*
X153377900Y-98865484D01*
X153229023Y-98506064D01*
X152953936Y-98230977D01*
X152594516Y-98082100D01*
X152205484Y-98082100D01*
X151846064Y-98230977D01*
X151779041Y-98298000D01*
X151554041Y-98298000D01*
X151478994Y-98283072D01*
X151403947Y-98298000D01*
X151403946Y-98298000D01*
X151181677Y-98342212D01*
X150929623Y-98510629D01*
X150887112Y-98574251D01*
X150622000Y-98839363D01*
X150622000Y-96244506D01*
X151015000Y-96244506D01*
X151015000Y-96795494D01*
X151225853Y-97304540D01*
X151615460Y-97694147D01*
X152124506Y-97905000D01*
X152675494Y-97905000D01*
X153184540Y-97694147D01*
X153574147Y-97304540D01*
X153785000Y-96795494D01*
X153785000Y-96244506D01*
X153574147Y-95735460D01*
X153184540Y-95345853D01*
X152675494Y-95135000D01*
X152124506Y-95135000D01*
X151615460Y-95345853D01*
X151225853Y-95735460D01*
X151015000Y-96244506D01*
X150622000Y-96244506D01*
X150622000Y-82865630D01*
X152885747Y-80601883D01*
X152949371Y-80559371D01*
X153117788Y-80307317D01*
X153162000Y-80085048D01*
X153162000Y-80085044D01*
X153176927Y-80010001D01*
X153162000Y-79934958D01*
X153162000Y-77763690D01*
X164885000Y-77763690D01*
X164885000Y-78454250D01*
X165043750Y-78613000D01*
X166243000Y-78613000D01*
X166243000Y-77413750D01*
X166497000Y-77413750D01*
X166497000Y-78613000D01*
X167696250Y-78613000D01*
X167855000Y-78454250D01*
X167855000Y-77763690D01*
X167758327Y-77530301D01*
X167579698Y-77351673D01*
X167346309Y-77255000D01*
X166655750Y-77255000D01*
X166497000Y-77413750D01*
X166243000Y-77413750D01*
X166084250Y-77255000D01*
X165393691Y-77255000D01*
X165160302Y-77351673D01*
X164981673Y-77530301D01*
X164885000Y-77763690D01*
X153162000Y-77763690D01*
X153162000Y-76065042D01*
X153176927Y-75989999D01*
X153162000Y-75914956D01*
X153162000Y-75914952D01*
X153117788Y-75692683D01*
X152949371Y-75440629D01*
X152885746Y-75398116D01*
X151244848Y-73757218D01*
X151257000Y-73727881D01*
X151257000Y-73215431D01*
X169215000Y-73215431D01*
X169215000Y-74104569D01*
X169555259Y-74926026D01*
X170183974Y-75554741D01*
X171005431Y-75895000D01*
X171894569Y-75895000D01*
X172716026Y-75554741D01*
X173344741Y-74926026D01*
X173685000Y-74104569D01*
X173685000Y-73215431D01*
X173344741Y-72393974D01*
X172716026Y-71765259D01*
X171894569Y-71425000D01*
X171005431Y-71425000D01*
X170183974Y-71765259D01*
X169555259Y-72393974D01*
X169215000Y-73215431D01*
X151257000Y-73215431D01*
X151257000Y-73172119D01*
X151044320Y-72658663D01*
X150651337Y-72265680D01*
X150137881Y-72053000D01*
X149582119Y-72053000D01*
X149068663Y-72265680D01*
X148675680Y-72658663D01*
X148590000Y-72865513D01*
X148504320Y-72658663D01*
X148111337Y-72265680D01*
X147597881Y-72053000D01*
X147042119Y-72053000D01*
X146528663Y-72265680D01*
X146135680Y-72658663D01*
X145923000Y-73172119D01*
X145923000Y-73727881D01*
X146135680Y-74241337D01*
X146528663Y-74634320D01*
X147042119Y-74847000D01*
X147597881Y-74847000D01*
X148111337Y-74634320D01*
X148504320Y-74241337D01*
X148590000Y-74034487D01*
X148675680Y-74241337D01*
X149068663Y-74634320D01*
X149582119Y-74847000D01*
X150137881Y-74847000D01*
X150167218Y-74834848D01*
X151638001Y-76305631D01*
X151638000Y-79694370D01*
X149374252Y-81958118D01*
X149310630Y-82000629D01*
X149268119Y-82064251D01*
X149268118Y-82064252D01*
X149142213Y-82252683D01*
X149083073Y-82550000D01*
X149098001Y-82625048D01*
X149098000Y-98744369D01*
X148490270Y-99352100D01*
X148395484Y-99352100D01*
X148036064Y-99500977D01*
X147760977Y-99776064D01*
X147612100Y-100135484D01*
X147612100Y-100524516D01*
X147760977Y-100883936D01*
X148036064Y-101159023D01*
X148224350Y-101237014D01*
X146543062Y-102918302D01*
X146444905Y-102918302D01*
X146377882Y-102851279D01*
X146018462Y-102702402D01*
X145629430Y-102702402D01*
X145270010Y-102851279D01*
X144994923Y-103126366D01*
X144846046Y-103485786D01*
X143933417Y-103485786D01*
X142831883Y-102384253D01*
X142789371Y-102320629D01*
X142537317Y-102152212D01*
X142315048Y-102108000D01*
X142315043Y-102108000D01*
X142240000Y-102093073D01*
X142164957Y-102108000D01*
X130885042Y-102108000D01*
X130809999Y-102093073D01*
X130734956Y-102108000D01*
X130734952Y-102108000D01*
X130512683Y-102152212D01*
X130512682Y-102152213D01*
X130512681Y-102152213D01*
X130458641Y-102188322D01*
X130260629Y-102320629D01*
X130218116Y-102384254D01*
X127954370Y-104648000D01*
X126716472Y-104648000D01*
X126704320Y-104618663D01*
X126311337Y-104225680D01*
X125797881Y-104013000D01*
X125242119Y-104013000D01*
X124728663Y-104225680D01*
X124335680Y-104618663D01*
X124123000Y-105132119D01*
X122655000Y-105132119D01*
X122655000Y-96244506D01*
X146135000Y-96244506D01*
X146135000Y-96795494D01*
X146345853Y-97304540D01*
X146735460Y-97694147D01*
X147244506Y-97905000D01*
X147795494Y-97905000D01*
X148304540Y-97694147D01*
X148694147Y-97304540D01*
X148905000Y-96795494D01*
X148905000Y-96244506D01*
X148694147Y-95735460D01*
X148304540Y-95345853D01*
X147795494Y-95135000D01*
X147244506Y-95135000D01*
X146735460Y-95345853D01*
X146345853Y-95735460D01*
X146135000Y-96244506D01*
X122655000Y-96244506D01*
X122655000Y-78672119D01*
X145923000Y-78672119D01*
X145923000Y-79227881D01*
X146135680Y-79741337D01*
X146528663Y-80134320D01*
X147042119Y-80347000D01*
X147597881Y-80347000D01*
X148111337Y-80134320D01*
X148504320Y-79741337D01*
X148590000Y-79534487D01*
X148675680Y-79741337D01*
X149068663Y-80134320D01*
X149582119Y-80347000D01*
X150137881Y-80347000D01*
X150651337Y-80134320D01*
X151044320Y-79741337D01*
X151257000Y-79227881D01*
X151257000Y-78672119D01*
X151044320Y-78158663D01*
X150651337Y-77765680D01*
X150137881Y-77553000D01*
X149582119Y-77553000D01*
X149068663Y-77765680D01*
X148675680Y-78158663D01*
X148590000Y-78365513D01*
X148504320Y-78158663D01*
X148111337Y-77765680D01*
X147597881Y-77553000D01*
X147042119Y-77553000D01*
X146528663Y-77765680D01*
X146135680Y-78158663D01*
X145923000Y-78672119D01*
X122655000Y-78672119D01*
X122655000Y-73215431D01*
X123495000Y-73215431D01*
X123495000Y-74104569D01*
X123835259Y-74926026D01*
X124463974Y-75554741D01*
X125285431Y-75895000D01*
X126174569Y-75895000D01*
X126996026Y-75554741D01*
X127624741Y-74926026D01*
X127965000Y-74104569D01*
X127965000Y-73215431D01*
X127624741Y-72393974D01*
X126996026Y-71765259D01*
X126174569Y-71425000D01*
X125285431Y-71425000D01*
X124463974Y-71765259D01*
X123835259Y-72393974D01*
X123495000Y-73215431D01*
X122655000Y-73215431D01*
X122655000Y-70585000D01*
X174525000Y-70585000D01*
X174525001Y-142775000D01*
X174525001Y-142775000D01*
G37*
X174525001Y-142775000D02*
X122655000Y-142775000D01*
X122655000Y-139255431D01*
X123495000Y-139255431D01*
X123495000Y-140144569D01*
X123835259Y-140966026D01*
X124463974Y-141594741D01*
X125285431Y-141935000D01*
X126174569Y-141935000D01*
X126996026Y-141594741D01*
X127624741Y-140966026D01*
X127965000Y-140144569D01*
X127965000Y-139632119D01*
X145923000Y-139632119D01*
X145923000Y-140187881D01*
X146135680Y-140701337D01*
X146528663Y-141094320D01*
X147042119Y-141307000D01*
X147597881Y-141307000D01*
X148111337Y-141094320D01*
X148504320Y-140701337D01*
X148590000Y-140494487D01*
X148675680Y-140701337D01*
X149068663Y-141094320D01*
X149582119Y-141307000D01*
X150137881Y-141307000D01*
X150651337Y-141094320D01*
X151044320Y-140701337D01*
X151257000Y-140187881D01*
X151257000Y-139632119D01*
X151100972Y-139255431D01*
X169215000Y-139255431D01*
X169215000Y-140144569D01*
X169555259Y-140966026D01*
X170183974Y-141594741D01*
X171005431Y-141935000D01*
X171894569Y-141935000D01*
X172716026Y-141594741D01*
X173344741Y-140966026D01*
X173685000Y-140144569D01*
X173685000Y-139255431D01*
X173344741Y-138433974D01*
X172716026Y-137805259D01*
X171894569Y-137465000D01*
X171005431Y-137465000D01*
X170183974Y-137805259D01*
X169555259Y-138433974D01*
X169215000Y-139255431D01*
X151100972Y-139255431D01*
X151044320Y-139118663D01*
X150651337Y-138725680D01*
X150137881Y-138513000D01*
X149582119Y-138513000D01*
X149068663Y-138725680D01*
X148675680Y-139118663D01*
X148590000Y-139325513D01*
X148504320Y-139118663D01*
X148111337Y-138725680D01*
X147597881Y-138513000D01*
X147042119Y-138513000D01*
X146528663Y-138725680D01*
X146135680Y-139118663D01*
X145923000Y-139632119D01*
X127965000Y-139632119D01*
X127965000Y-139255431D01*
X127624741Y-138433974D01*
X126996026Y-137805259D01*
X126174569Y-137465000D01*
X125285431Y-137465000D01*
X124463974Y-137805259D01*
X123835259Y-138433974D01*
X123495000Y-139255431D01*
X122655000Y-139255431D01*
X122655000Y-127881000D01*
X123104336Y-127881000D01*
X123206007Y-128392136D01*
X123495543Y-128825457D01*
X123928864Y-129114993D01*
X124310978Y-129191000D01*
X124919022Y-129191000D01*
X125301136Y-129114993D01*
X125734457Y-128825457D01*
X126023993Y-128392136D01*
X126125664Y-127881000D01*
X126064002Y-127571000D01*
X126206785Y-127571000D01*
X126298755Y-128033364D01*
X126560663Y-128425337D01*
X126952636Y-128687245D01*
X127298290Y-128756000D01*
X127931710Y-128756000D01*
X128277364Y-128687245D01*
X128669337Y-128425337D01*
X128931245Y-128033364D01*
X129023215Y-127571000D01*
X128931245Y-127108636D01*
X128669337Y-126716663D01*
X128277364Y-126454755D01*
X127931710Y-126386000D01*
X127298290Y-126386000D01*
X126952636Y-126454755D01*
X126560663Y-126716663D01*
X126298755Y-127108636D01*
X126206785Y-127571000D01*
X126064002Y-127571000D01*
X126023993Y-127369864D01*
X125734457Y-126936543D01*
X125301136Y-126647007D01*
X124919022Y-126571000D01*
X124310978Y-126571000D01*
X123928864Y-126647007D01*
X123495543Y-126936543D01*
X123206007Y-127369864D01*
X123104336Y-127881000D01*
X122655000Y-127881000D01*
X122655000Y-122421000D01*
X123104336Y-122421000D01*
X123206007Y-122932136D01*
X123495543Y-123365457D01*
X123928864Y-123654993D01*
X124310978Y-123731000D01*
X124919022Y-123731000D01*
X125301136Y-123654993D01*
X125734457Y-123365457D01*
X126023993Y-122932136D01*
X126064001Y-122731000D01*
X126206785Y-122731000D01*
X126298755Y-123193364D01*
X126560663Y-123585337D01*
X126952636Y-123847245D01*
X127298290Y-123916000D01*
X127931710Y-123916000D01*
X128277364Y-123847245D01*
X128669337Y-123585337D01*
X128931245Y-123193364D01*
X129023215Y-122731000D01*
X128931245Y-122268636D01*
X128669337Y-121876663D01*
X128277364Y-121614755D01*
X127931710Y-121546000D01*
X127298290Y-121546000D01*
X126952636Y-121614755D01*
X126560663Y-121876663D01*
X126298755Y-122268636D01*
X126206785Y-122731000D01*
X126064001Y-122731000D01*
X126125664Y-122421000D01*
X126023993Y-121909864D01*
X125734457Y-121476543D01*
X125301136Y-121187007D01*
X124919022Y-121111000D01*
X124310978Y-121111000D01*
X123928864Y-121187007D01*
X123495543Y-121476543D01*
X123206007Y-121909864D01*
X123104336Y-122421000D01*
X122655000Y-122421000D01*
X122655000Y-105132119D01*
X124123000Y-105132119D01*
X124123000Y-105687881D01*
X124335680Y-106201337D01*
X124728663Y-106594320D01*
X124935513Y-106680000D01*
X124728663Y-106765680D01*
X124335680Y-107158663D01*
X124123000Y-107672119D01*
X124123000Y-108227881D01*
X124335680Y-108741337D01*
X124728663Y-109134320D01*
X125242119Y-109347000D01*
X125797881Y-109347000D01*
X126311337Y-109134320D01*
X126704320Y-108741337D01*
X126917000Y-108227881D01*
X126917000Y-107672119D01*
X126704320Y-107158663D01*
X126311337Y-106765680D01*
X126104487Y-106680000D01*
X126311337Y-106594320D01*
X126704320Y-106201337D01*
X126716472Y-106172000D01*
X128194957Y-106172000D01*
X128270000Y-106186927D01*
X128345043Y-106172000D01*
X128345048Y-106172000D01*
X128567317Y-106127788D01*
X128819371Y-105959371D01*
X128861884Y-105895746D01*
X129623000Y-105134630D01*
X129623000Y-105687881D01*
X129835680Y-106201337D01*
X130228663Y-106594320D01*
X130435513Y-106680000D01*
X130228663Y-106765680D01*
X129835680Y-107158663D01*
X129623000Y-107672119D01*
X129623000Y-108227881D01*
X129835680Y-108741337D01*
X130228663Y-109134320D01*
X130742119Y-109347000D01*
X131297881Y-109347000D01*
X131811337Y-109134320D01*
X132204320Y-108741337D01*
X132417000Y-108227881D01*
X132417000Y-107672119D01*
X132204320Y-107158663D01*
X131811337Y-106765680D01*
X131604487Y-106680000D01*
X131811337Y-106594320D01*
X132204320Y-106201337D01*
X132417000Y-105687881D01*
X132417000Y-105132119D01*
X132204320Y-104618663D01*
X131811337Y-104225680D01*
X131297881Y-104013000D01*
X130744630Y-104013000D01*
X131125630Y-103632000D01*
X141924370Y-103632000D01*
X145072100Y-106779731D01*
X145072100Y-106874516D01*
X145141103Y-107041103D01*
X144974516Y-106972100D01*
X144585484Y-106972100D01*
X144418897Y-107041103D01*
X144487900Y-106874516D01*
X144487900Y-106485484D01*
X144339023Y-106126064D01*
X144063936Y-105850977D01*
X143704516Y-105702100D01*
X143315484Y-105702100D01*
X142956064Y-105850977D01*
X142680977Y-106126064D01*
X142532100Y-106485484D01*
X142532100Y-106874516D01*
X142680977Y-107233936D01*
X142748001Y-107300960D01*
X142748000Y-118383951D01*
X142733073Y-118458994D01*
X142748000Y-118534037D01*
X142748000Y-118534041D01*
X142792212Y-118756310D01*
X142960629Y-119008365D01*
X143024253Y-119050877D01*
X144018001Y-120044626D01*
X144018000Y-136539041D01*
X143950977Y-136606064D01*
X143802100Y-136965484D01*
X143802100Y-137354516D01*
X143950977Y-137713936D01*
X144226064Y-137989023D01*
X144585484Y-138137900D01*
X144974516Y-138137900D01*
X145333936Y-137989023D01*
X145609023Y-137713936D01*
X145757900Y-137354516D01*
X145757900Y-136965484D01*
X145609023Y-136606064D01*
X145542000Y-136539041D01*
X145542000Y-134132119D01*
X145923000Y-134132119D01*
X145923000Y-134687881D01*
X146135680Y-135201337D01*
X146528663Y-135594320D01*
X147042119Y-135807000D01*
X147597881Y-135807000D01*
X148111337Y-135594320D01*
X148504320Y-135201337D01*
X148590000Y-134994487D01*
X148675680Y-135201337D01*
X149068663Y-135594320D01*
X149582119Y-135807000D01*
X150137881Y-135807000D01*
X150651337Y-135594320D01*
X151044320Y-135201337D01*
X151257000Y-134687881D01*
X151257000Y-134132119D01*
X151044320Y-133618663D01*
X150651337Y-133225680D01*
X150137881Y-133013000D01*
X149582119Y-133013000D01*
X149068663Y-133225680D01*
X148675680Y-133618663D01*
X148590000Y-133825513D01*
X148504320Y-133618663D01*
X148111337Y-133225680D01*
X147597881Y-133013000D01*
X147042119Y-133013000D01*
X146528663Y-133225680D01*
X146135680Y-133618663D01*
X145923000Y-134132119D01*
X145542000Y-134132119D01*
X145542000Y-119804036D01*
X145556927Y-119728993D01*
X145542000Y-119653950D01*
X145542000Y-119653946D01*
X145497788Y-119431677D01*
X145329371Y-119179623D01*
X145265749Y-119137112D01*
X144272000Y-118143364D01*
X144272000Y-117417014D01*
X144294253Y-117431883D01*
X148882100Y-122019731D01*
X148882100Y-122114516D01*
X149030977Y-122473936D01*
X149306064Y-122749023D01*
X149665484Y-122897900D01*
X150054516Y-122897900D01*
X150413936Y-122749023D01*
X150689023Y-122473936D01*
X150837900Y-122114516D01*
X150837900Y-121725484D01*
X150689023Y-121366064D01*
X150413936Y-121090977D01*
X150054516Y-120942100D01*
X149959731Y-120942100D01*
X145542000Y-116524370D01*
X145542000Y-108570959D01*
X145609023Y-108503936D01*
X145757900Y-108144516D01*
X145757900Y-107755484D01*
X145688897Y-107588897D01*
X145855484Y-107657900D01*
X146244516Y-107657900D01*
X146603936Y-107509023D01*
X146879023Y-107233936D01*
X147027900Y-106874516D01*
X147027900Y-106485484D01*
X146879023Y-106126064D01*
X146603936Y-105850977D01*
X146244516Y-105702100D01*
X146149731Y-105702100D01*
X143933417Y-103485786D01*
X144846046Y-103485786D01*
X144846046Y-103874818D01*
X144994923Y-104234238D01*
X145270010Y-104509325D01*
X145629430Y-104658202D01*
X146018462Y-104658202D01*
X146377882Y-104509325D01*
X146403781Y-104483426D01*
X146490977Y-104693936D01*
X146766064Y-104969023D01*
X147125484Y-105117900D01*
X147220270Y-105117900D01*
X153078118Y-110975749D01*
X153120629Y-111039371D01*
X153372683Y-111207788D01*
X153594952Y-111252000D01*
X153594956Y-111252000D01*
X153669999Y-111266927D01*
X153745042Y-111252000D01*
X169044957Y-111252000D01*
X169120000Y-111266927D01*
X169195043Y-111252000D01*
X169195048Y-111252000D01*
X169417317Y-111207788D01*
X169669371Y-111039371D01*
X169711884Y-110975746D01*
X171352782Y-109334848D01*
X171382119Y-109347000D01*
X171937881Y-109347000D01*
X172451337Y-109134320D01*
X172844320Y-108741337D01*
X173057000Y-108227881D01*
X173057000Y-107672119D01*
X172844320Y-107158663D01*
X172451337Y-106765680D01*
X172244487Y-106680000D01*
X172451337Y-106594320D01*
X172844320Y-106201337D01*
X173057000Y-105687881D01*
X173057000Y-105132119D01*
X172844320Y-104618663D01*
X172451337Y-104225680D01*
X171937881Y-104013000D01*
X171382119Y-104013000D01*
X170868663Y-104225680D01*
X170475680Y-104618663D01*
X170263000Y-105132119D01*
X170263000Y-105687881D01*
X170475680Y-106201337D01*
X170868663Y-106594320D01*
X171075513Y-106680000D01*
X170868663Y-106765680D01*
X170475680Y-107158663D01*
X170263000Y-107672119D01*
X170263000Y-108227881D01*
X170275152Y-108257218D01*
X168804370Y-109728000D01*
X153985631Y-109728000D01*
X149389750Y-105132119D01*
X164763000Y-105132119D01*
X164763000Y-105687881D01*
X164975680Y-106201337D01*
X165368663Y-106594320D01*
X165575513Y-106680000D01*
X165368663Y-106765680D01*
X164975680Y-107158663D01*
X164763000Y-107672119D01*
X164763000Y-108227881D01*
X164975680Y-108741337D01*
X165368663Y-109134320D01*
X165882119Y-109347000D01*
X166437881Y-109347000D01*
X166951337Y-109134320D01*
X167344320Y-108741337D01*
X167557000Y-108227881D01*
X167557000Y-107672119D01*
X167344320Y-107158663D01*
X166951337Y-106765680D01*
X166744487Y-106680000D01*
X166951337Y-106594320D01*
X167344320Y-106201337D01*
X167557000Y-105687881D01*
X167557000Y-105132119D01*
X167344320Y-104618663D01*
X166951337Y-104225680D01*
X166437881Y-104013000D01*
X165882119Y-104013000D01*
X165368663Y-104225680D01*
X164975680Y-104618663D01*
X164763000Y-105132119D01*
X149389750Y-105132119D01*
X148297900Y-104040270D01*
X148297900Y-103945484D01*
X148882100Y-103945484D01*
X148882100Y-104334516D01*
X149030977Y-104693936D01*
X149306064Y-104969023D01*
X149665484Y-105117900D01*
X150054516Y-105117900D01*
X150413936Y-104969023D01*
X150689023Y-104693936D01*
X150837900Y-104334516D01*
X150837900Y-104239730D01*
X158752146Y-96325484D01*
X159042100Y-96325484D01*
X159042100Y-96714516D01*
X159190977Y-97073936D01*
X159466064Y-97349023D01*
X159825484Y-97497900D01*
X160214516Y-97497900D01*
X160573936Y-97349023D01*
X160640959Y-97282000D01*
X167564957Y-97282000D01*
X167640000Y-97296927D01*
X167715043Y-97282000D01*
X167715048Y-97282000D01*
X167937317Y-97237788D01*
X168189371Y-97069371D01*
X168231883Y-97005747D01*
X169009731Y-96227900D01*
X169104516Y-96227900D01*
X169463936Y-96079023D01*
X169739023Y-95803936D01*
X169887900Y-95444516D01*
X169887900Y-95055484D01*
X169739023Y-94696064D01*
X169463936Y-94420977D01*
X169104516Y-94272100D01*
X168715484Y-94272100D01*
X168356064Y-94420977D01*
X168080977Y-94696064D01*
X167932100Y-95055484D01*
X167932100Y-95150269D01*
X167324370Y-95758000D01*
X160640959Y-95758000D01*
X160573936Y-95690977D01*
X160214516Y-95542100D01*
X159825484Y-95542100D01*
X159466064Y-95690977D01*
X159190977Y-95966064D01*
X159042100Y-96325484D01*
X158752146Y-96325484D01*
X165222323Y-89855308D01*
X165299375Y-89970625D01*
X165597761Y-90170000D01*
X165299375Y-90369375D01*
X164971161Y-90860582D01*
X164855908Y-91440000D01*
X164971161Y-92019418D01*
X165299375Y-92510625D01*
X165790582Y-92838839D01*
X166223744Y-92925000D01*
X166516256Y-92925000D01*
X166949418Y-92838839D01*
X167440625Y-92510625D01*
X167768839Y-92019418D01*
X167884092Y-91440000D01*
X167768839Y-90860582D01*
X167440625Y-90369375D01*
X167142239Y-90170000D01*
X167440625Y-89970625D01*
X167768839Y-89479418D01*
X167884092Y-88900000D01*
X167768839Y-88320582D01*
X167440625Y-87829375D01*
X167142239Y-87630000D01*
X167440625Y-87430625D01*
X167768839Y-86939418D01*
X167884092Y-86360000D01*
X167768839Y-85780582D01*
X167440625Y-85289375D01*
X167142239Y-85090000D01*
X167440625Y-84890625D01*
X167768839Y-84399418D01*
X167884092Y-83820000D01*
X167768839Y-83240582D01*
X167440625Y-82749375D01*
X167142239Y-82550000D01*
X167440625Y-82350625D01*
X167768839Y-81859418D01*
X167884092Y-81280000D01*
X167768839Y-80700582D01*
X167440625Y-80209375D01*
X167418967Y-80194904D01*
X167579698Y-80128327D01*
X167758327Y-79949699D01*
X167855000Y-79716310D01*
X167855000Y-79025750D01*
X167696250Y-78867000D01*
X166497000Y-78867000D01*
X166497000Y-78887000D01*
X166243000Y-78887000D01*
X166243000Y-78867000D01*
X165043750Y-78867000D01*
X164885000Y-79025750D01*
X164885000Y-79716310D01*
X164981673Y-79949699D01*
X165160302Y-80128327D01*
X165321033Y-80194904D01*
X165299375Y-80209375D01*
X164971161Y-80700582D01*
X164855908Y-81280000D01*
X164971161Y-81859418D01*
X165299375Y-82350625D01*
X165597761Y-82550000D01*
X165299375Y-82749375D01*
X164971161Y-83240582D01*
X164855908Y-83820000D01*
X164971161Y-84399418D01*
X165299375Y-84890625D01*
X165597761Y-85090000D01*
X165299375Y-85289375D01*
X164971161Y-85780582D01*
X164855908Y-86360000D01*
X164971161Y-86939418D01*
X165299375Y-87430625D01*
X165597761Y-87630000D01*
X165299375Y-87829375D01*
X165102765Y-88123622D01*
X165100000Y-88123072D01*
X165024953Y-88138000D01*
X165024952Y-88138000D01*
X164802683Y-88182212D01*
X164550629Y-88350629D01*
X164508118Y-88414251D01*
X149760270Y-103162100D01*
X149665484Y-103162100D01*
X149306064Y-103310977D01*
X149030977Y-103586064D01*
X148882100Y-103945484D01*
X148297900Y-103945484D01*
X148149023Y-103586064D01*
X148089792Y-103526833D01*
X151786833Y-99829792D01*
X151846064Y-99889023D01*
X152205484Y-100037900D01*
X152594516Y-100037900D01*
X152953936Y-99889023D01*
X153229023Y-99613936D01*
X153377900Y-99254516D01*
X153377900Y-98865484D01*
X153229023Y-98506064D01*
X152953936Y-98230977D01*
X152594516Y-98082100D01*
X152205484Y-98082100D01*
X151846064Y-98230977D01*
X151779041Y-98298000D01*
X151554041Y-98298000D01*
X151478994Y-98283072D01*
X151403947Y-98298000D01*
X151403946Y-98298000D01*
X151181677Y-98342212D01*
X150929623Y-98510629D01*
X150887112Y-98574251D01*
X150622000Y-98839363D01*
X150622000Y-96244506D01*
X151015000Y-96244506D01*
X151015000Y-96795494D01*
X151225853Y-97304540D01*
X151615460Y-97694147D01*
X152124506Y-97905000D01*
X152675494Y-97905000D01*
X153184540Y-97694147D01*
X153574147Y-97304540D01*
X153785000Y-96795494D01*
X153785000Y-96244506D01*
X153574147Y-95735460D01*
X153184540Y-95345853D01*
X152675494Y-95135000D01*
X152124506Y-95135000D01*
X151615460Y-95345853D01*
X151225853Y-95735460D01*
X151015000Y-96244506D01*
X150622000Y-96244506D01*
X150622000Y-82865630D01*
X152885747Y-80601883D01*
X152949371Y-80559371D01*
X153117788Y-80307317D01*
X153162000Y-80085048D01*
X153162000Y-80085044D01*
X153176927Y-80010001D01*
X153162000Y-79934958D01*
X153162000Y-77763690D01*
X164885000Y-77763690D01*
X164885000Y-78454250D01*
X165043750Y-78613000D01*
X166243000Y-78613000D01*
X166243000Y-77413750D01*
X166497000Y-77413750D01*
X166497000Y-78613000D01*
X167696250Y-78613000D01*
X167855000Y-78454250D01*
X167855000Y-77763690D01*
X167758327Y-77530301D01*
X167579698Y-77351673D01*
X167346309Y-77255000D01*
X166655750Y-77255000D01*
X166497000Y-77413750D01*
X166243000Y-77413750D01*
X166084250Y-77255000D01*
X165393691Y-77255000D01*
X165160302Y-77351673D01*
X164981673Y-77530301D01*
X164885000Y-77763690D01*
X153162000Y-77763690D01*
X153162000Y-76065042D01*
X153176927Y-75989999D01*
X153162000Y-75914956D01*
X153162000Y-75914952D01*
X153117788Y-75692683D01*
X152949371Y-75440629D01*
X152885746Y-75398116D01*
X151244848Y-73757218D01*
X151257000Y-73727881D01*
X151257000Y-73215431D01*
X169215000Y-73215431D01*
X169215000Y-74104569D01*
X169555259Y-74926026D01*
X170183974Y-75554741D01*
X171005431Y-75895000D01*
X171894569Y-75895000D01*
X172716026Y-75554741D01*
X173344741Y-74926026D01*
X173685000Y-74104569D01*
X173685000Y-73215431D01*
X173344741Y-72393974D01*
X172716026Y-71765259D01*
X171894569Y-71425000D01*
X171005431Y-71425000D01*
X170183974Y-71765259D01*
X169555259Y-72393974D01*
X169215000Y-73215431D01*
X151257000Y-73215431D01*
X151257000Y-73172119D01*
X151044320Y-72658663D01*
X150651337Y-72265680D01*
X150137881Y-72053000D01*
X149582119Y-72053000D01*
X149068663Y-72265680D01*
X148675680Y-72658663D01*
X148590000Y-72865513D01*
X148504320Y-72658663D01*
X148111337Y-72265680D01*
X147597881Y-72053000D01*
X147042119Y-72053000D01*
X146528663Y-72265680D01*
X146135680Y-72658663D01*
X145923000Y-73172119D01*
X145923000Y-73727881D01*
X146135680Y-74241337D01*
X146528663Y-74634320D01*
X147042119Y-74847000D01*
X147597881Y-74847000D01*
X148111337Y-74634320D01*
X148504320Y-74241337D01*
X148590000Y-74034487D01*
X148675680Y-74241337D01*
X149068663Y-74634320D01*
X149582119Y-74847000D01*
X150137881Y-74847000D01*
X150167218Y-74834848D01*
X151638001Y-76305631D01*
X151638000Y-79694370D01*
X149374252Y-81958118D01*
X149310630Y-82000629D01*
X149268119Y-82064251D01*
X149268118Y-82064252D01*
X149142213Y-82252683D01*
X149083073Y-82550000D01*
X149098001Y-82625048D01*
X149098000Y-98744369D01*
X148490270Y-99352100D01*
X148395484Y-99352100D01*
X148036064Y-99500977D01*
X147760977Y-99776064D01*
X147612100Y-100135484D01*
X147612100Y-100524516D01*
X147760977Y-100883936D01*
X148036064Y-101159023D01*
X148224350Y-101237014D01*
X146543062Y-102918302D01*
X146444905Y-102918302D01*
X146377882Y-102851279D01*
X146018462Y-102702402D01*
X145629430Y-102702402D01*
X145270010Y-102851279D01*
X144994923Y-103126366D01*
X144846046Y-103485786D01*
X143933417Y-103485786D01*
X142831883Y-102384253D01*
X142789371Y-102320629D01*
X142537317Y-102152212D01*
X142315048Y-102108000D01*
X142315043Y-102108000D01*
X142240000Y-102093073D01*
X142164957Y-102108000D01*
X130885042Y-102108000D01*
X130809999Y-102093073D01*
X130734956Y-102108000D01*
X130734952Y-102108000D01*
X130512683Y-102152212D01*
X130512682Y-102152213D01*
X130512681Y-102152213D01*
X130458641Y-102188322D01*
X130260629Y-102320629D01*
X130218116Y-102384254D01*
X127954370Y-104648000D01*
X126716472Y-104648000D01*
X126704320Y-104618663D01*
X126311337Y-104225680D01*
X125797881Y-104013000D01*
X125242119Y-104013000D01*
X124728663Y-104225680D01*
X124335680Y-104618663D01*
X124123000Y-105132119D01*
X122655000Y-105132119D01*
X122655000Y-96244506D01*
X146135000Y-96244506D01*
X146135000Y-96795494D01*
X146345853Y-97304540D01*
X146735460Y-97694147D01*
X147244506Y-97905000D01*
X147795494Y-97905000D01*
X148304540Y-97694147D01*
X148694147Y-97304540D01*
X148905000Y-96795494D01*
X148905000Y-96244506D01*
X148694147Y-95735460D01*
X148304540Y-95345853D01*
X147795494Y-95135000D01*
X147244506Y-95135000D01*
X146735460Y-95345853D01*
X146345853Y-95735460D01*
X146135000Y-96244506D01*
X122655000Y-96244506D01*
X122655000Y-78672119D01*
X145923000Y-78672119D01*
X145923000Y-79227881D01*
X146135680Y-79741337D01*
X146528663Y-80134320D01*
X147042119Y-80347000D01*
X147597881Y-80347000D01*
X148111337Y-80134320D01*
X148504320Y-79741337D01*
X148590000Y-79534487D01*
X148675680Y-79741337D01*
X149068663Y-80134320D01*
X149582119Y-80347000D01*
X150137881Y-80347000D01*
X150651337Y-80134320D01*
X151044320Y-79741337D01*
X151257000Y-79227881D01*
X151257000Y-78672119D01*
X151044320Y-78158663D01*
X150651337Y-77765680D01*
X150137881Y-77553000D01*
X149582119Y-77553000D01*
X149068663Y-77765680D01*
X148675680Y-78158663D01*
X148590000Y-78365513D01*
X148504320Y-78158663D01*
X148111337Y-77765680D01*
X147597881Y-77553000D01*
X147042119Y-77553000D01*
X146528663Y-77765680D01*
X146135680Y-78158663D01*
X145923000Y-78672119D01*
X122655000Y-78672119D01*
X122655000Y-73215431D01*
X123495000Y-73215431D01*
X123495000Y-74104569D01*
X123835259Y-74926026D01*
X124463974Y-75554741D01*
X125285431Y-75895000D01*
X126174569Y-75895000D01*
X126996026Y-75554741D01*
X127624741Y-74926026D01*
X127965000Y-74104569D01*
X127965000Y-73215431D01*
X127624741Y-72393974D01*
X126996026Y-71765259D01*
X126174569Y-71425000D01*
X125285431Y-71425000D01*
X124463974Y-71765259D01*
X123835259Y-72393974D01*
X123495000Y-73215431D01*
X122655000Y-73215431D01*
X122655000Y-70585000D01*
X174525000Y-70585000D01*
X174525001Y-142775000D01*
G04 #@! TD*
M02*
