M48
;DRILL file {KiCad 5.0.0-fee4fd1~66~ubuntu16.04.1} date Tue Mar  5 11:43:25 2019
;FORMAT={-:-/ absolute / metric / decimal}
FMAT,2
METRIC,TZ
T1C0.330
T2C0.650
T3C0.700
T4C0.800
T5C1.000
%
G90
G05
M71
T1
X124.Y-114.
X127.Y-109.
X127.838Y-109.
X129.25Y-103.5
X134.5Y-123.75
X138.Y-104.5
X139.Y-123.75
X140.5Y-106.622
X141.5Y-72.
X141.75Y-82.5
X144.5Y-79.75
X145.5Y-136.75
X146.Y-124.907
X146.6Y-75.
X146.6Y-75.88
X147.378Y-112.907
X148.Y-113.5
X148.Y-125.5
X149.5Y-104.5
X150.Y-108.
X150.8Y-137.32
X150.8Y-138.238
X151.75Y-108.75
X152.Y-76.5
X156.Y-141.
X157.97Y-98.
X158.5Y-96.5
X159.185Y-95.
X164.25Y-98.5
X166.25Y-98.5
X168.25Y-110.
X168.5Y-99.75
X168.5Y-102.25
X169.4Y-104.5
X170.238Y-104.5
X170.25Y-95.5
X173.Y-99.5
T4
X146.8Y-95.6
X151.68Y-95.6
T5
X166.37Y-78.5
X166.37Y-81.04
X166.37Y-83.58
X166.37Y-86.12
X166.37Y-88.66
X166.37Y-91.2
T2
X127.415Y-122.731G85X127.815Y-122.731
G05
X127.415Y-127.571G85X127.815Y-127.571
G05
T3
X124.365Y-122.421G85X124.865Y-122.421
G05
X124.365Y-127.881G85X124.865Y-127.881
G05
T0
M30
