G04 #@! TF.GenerationSoftware,KiCad,Pcbnew,5.0.0-fee4fd1~66~ubuntu16.04.1*
G04 #@! TF.CreationDate,2018-09-19T03:43:27-04:00*
G04 #@! TF.ProjectId,quadrant,7175616472616E742E6B696361645F70,rev?*
G04 #@! TF.SameCoordinates,Original*
G04 #@! TF.FileFunction,Copper,L2,Bot,Signal*
G04 #@! TF.FilePolarity,Positive*
%FSLAX46Y46*%
G04 Gerber Fmt 4.6, Leading zero omitted, Abs format (unit mm)*
G04 Created by KiCad (PCBNEW 5.0.0-fee4fd1~66~ubuntu16.04.1) date Wed Sep 19 03:43:27 2018*
%MOMM*%
%LPD*%
G01*
G04 APERTURE LIST*
G04 #@! TA.AperFunction,ComponentPad*
%ADD10C,1.524000*%
G04 #@! TD*
G04 #@! TA.AperFunction,ComponentPad*
%ADD11O,1.700000X1.700000*%
G04 #@! TD*
G04 #@! TA.AperFunction,ComponentPad*
%ADD12R,1.700000X1.700000*%
G04 #@! TD*
G04 #@! TA.AperFunction,ComponentPad*
%ADD13O,1.700000X1.350000*%
G04 #@! TD*
G04 #@! TA.AperFunction,ComponentPad*
%ADD14O,1.500000X1.100000*%
G04 #@! TD*
G04 #@! TA.AperFunction,ComponentPad*
%ADD15R,1.300000X1.300000*%
G04 #@! TD*
G04 #@! TA.AperFunction,ComponentPad*
%ADD16C,1.300000*%
G04 #@! TD*
G04 #@! TA.AperFunction,ViaPad*
%ADD17C,0.685800*%
G04 #@! TD*
G04 #@! TA.AperFunction,Conductor*
%ADD18C,0.254000*%
G04 #@! TD*
G04 APERTURE END LIST*
D10*
G04 #@! TO.P,D1,4*
G04 #@! TO.N,Net-(D1-Pad4)*
X149860000Y-73450000D03*
G04 #@! TO.P,D1,3*
G04 #@! TO.N,GND*
X149860000Y-78950000D03*
G04 #@! TO.P,D1,2*
G04 #@! TO.N,Net-(D1-Pad2)*
X147320000Y-73450000D03*
G04 #@! TO.P,D1,1*
G04 #@! TO.N,Net-(D1-Pad1)*
X147320000Y-78950000D03*
G04 #@! TD*
G04 #@! TO.P,D2,4*
G04 #@! TO.N,Net-(D1-Pad4)*
X125520000Y-105410000D03*
G04 #@! TO.P,D2,3*
G04 #@! TO.N,GND*
X131020000Y-105410000D03*
G04 #@! TO.P,D2,2*
G04 #@! TO.N,Net-(D2-Pad2)*
X125520000Y-107950000D03*
G04 #@! TO.P,D2,1*
G04 #@! TO.N,Net-(D2-Pad1)*
X131020000Y-107950000D03*
G04 #@! TD*
G04 #@! TO.P,D3,4*
G04 #@! TO.N,Net-(D1-Pad4)*
X147320000Y-139910000D03*
G04 #@! TO.P,D3,3*
G04 #@! TO.N,GND*
X147320000Y-134410000D03*
G04 #@! TO.P,D3,2*
G04 #@! TO.N,Net-(D3-Pad2)*
X149860000Y-139910000D03*
G04 #@! TO.P,D3,1*
G04 #@! TO.N,Net-(D3-Pad1)*
X149860000Y-134410000D03*
G04 #@! TD*
G04 #@! TO.P,D4,4*
G04 #@! TO.N,Net-(D1-Pad4)*
X171660000Y-107950000D03*
G04 #@! TO.P,D4,3*
G04 #@! TO.N,GND*
X166160000Y-107950000D03*
G04 #@! TO.P,D4,2*
G04 #@! TO.N,Net-(D4-Pad2)*
X171660000Y-105410000D03*
G04 #@! TO.P,D4,1*
G04 #@! TO.N,Net-(D4-Pad1)*
X166160000Y-105410000D03*
G04 #@! TD*
D11*
G04 #@! TO.P,J1,6*
G04 #@! TO.N,GND*
X166370000Y-90170000D03*
G04 #@! TO.P,J1,5*
G04 #@! TO.N,NRST*
X166370000Y-87630000D03*
G04 #@! TO.P,J1,4*
G04 #@! TO.N,SWDIO*
X166370000Y-85090000D03*
G04 #@! TO.P,J1,3*
G04 #@! TO.N,GND*
X166370000Y-82550000D03*
G04 #@! TO.P,J1,2*
G04 #@! TO.N,SWCLK*
X166370000Y-80010000D03*
D12*
G04 #@! TO.P,J1,1*
G04 #@! TO.N,VCC*
X166370000Y-77470000D03*
G04 #@! TD*
D13*
G04 #@! TO.P,J2,6*
G04 #@! TO.N,GND*
X124615000Y-127881000D03*
X124615000Y-122421000D03*
D14*
X127615000Y-127571000D03*
X127615000Y-122731000D03*
G04 #@! TD*
D15*
G04 #@! TO.P,Q1,1*
G04 #@! TO.N,GND*
X147320000Y-93726000D03*
D16*
G04 #@! TO.P,Q1,3*
G04 #@! TO.N,Net-(D1-Pad4)*
X149860000Y-93726000D03*
G04 #@! TO.P,Q1,2*
G04 #@! TO.N,Net-(Q1-Pad2)*
X148590000Y-92456000D03*
G04 #@! TD*
D17*
G04 #@! TO.N,VCC*
X140970000Y-78740000D03*
X140970000Y-86360000D03*
X143510000Y-106680000D03*
X139700000Y-121920000D03*
X157480000Y-135890000D03*
X152400000Y-132080000D03*
X157480000Y-107949982D03*
G04 #@! TO.N,Net-(R9-Pad1)*
X148590000Y-101600000D03*
X148590000Y-114300000D03*
G04 #@! TO.N,USBDM*
X133350000Y-124460000D03*
X148590000Y-109220000D03*
G04 #@! TO.N,USBDP*
X148590000Y-107950000D03*
X129539820Y-125730000D03*
G04 #@! TO.N,Net-(D1-Pad4)*
X170180000Y-99060100D03*
G04 #@! TD*
D18*
G04 #@! TO.N,GND*
X165520001Y-89320001D02*
X166370000Y-90170000D01*
X165100000Y-88900000D02*
X165520001Y-89320001D01*
X165100000Y-83820000D02*
X165100000Y-88900000D01*
X166370000Y-82550000D02*
X165100000Y-83820000D01*
G04 #@! TO.N,VCC*
X140970000Y-78740000D02*
X140970000Y-80010000D01*
X140970000Y-86360000D02*
X143510000Y-86360000D01*
G04 #@! TO.N,Net-(R9-Pad1)*
X148590000Y-101600000D02*
X151130000Y-104140000D01*
X151130000Y-104140000D02*
X151130000Y-111760000D01*
X151130000Y-111760000D02*
X148590000Y-114300000D01*
G04 #@! TO.N,USBDM*
X133350000Y-124460000D02*
X148590000Y-109220000D01*
G04 #@! TO.N,USBDP*
X148590000Y-107950000D02*
X130810000Y-125730000D01*
X130810000Y-125730000D02*
X129539820Y-125730000D01*
G04 #@! TO.N,Net-(D1-Pad4)*
X155194100Y-99060100D02*
X149860000Y-93726000D01*
X170180000Y-99060100D02*
X155194100Y-99060100D01*
G04 #@! TD*
G04 #@! TO.N,VCC*
G36*
X174525001Y-142775000D02*
X122655000Y-142775000D01*
X122655000Y-139632119D01*
X145923000Y-139632119D01*
X145923000Y-140187881D01*
X146135680Y-140701337D01*
X146528663Y-141094320D01*
X147042119Y-141307000D01*
X147597881Y-141307000D01*
X148111337Y-141094320D01*
X148504320Y-140701337D01*
X148590000Y-140494487D01*
X148675680Y-140701337D01*
X149068663Y-141094320D01*
X149582119Y-141307000D01*
X150137881Y-141307000D01*
X150651337Y-141094320D01*
X151044320Y-140701337D01*
X151257000Y-140187881D01*
X151257000Y-139632119D01*
X151044320Y-139118663D01*
X150651337Y-138725680D01*
X150137881Y-138513000D01*
X149582119Y-138513000D01*
X149068663Y-138725680D01*
X148675680Y-139118663D01*
X148590000Y-139325513D01*
X148504320Y-139118663D01*
X148111337Y-138725680D01*
X147597881Y-138513000D01*
X147042119Y-138513000D01*
X146528663Y-138725680D01*
X146135680Y-139118663D01*
X145923000Y-139632119D01*
X122655000Y-139632119D01*
X122655000Y-134132119D01*
X145923000Y-134132119D01*
X145923000Y-134687881D01*
X146135680Y-135201337D01*
X146528663Y-135594320D01*
X147042119Y-135807000D01*
X147597881Y-135807000D01*
X148111337Y-135594320D01*
X148504320Y-135201337D01*
X148590000Y-134994487D01*
X148675680Y-135201337D01*
X149068663Y-135594320D01*
X149582119Y-135807000D01*
X150137881Y-135807000D01*
X150651337Y-135594320D01*
X151044320Y-135201337D01*
X151257000Y-134687881D01*
X151257000Y-134132119D01*
X151044320Y-133618663D01*
X150651337Y-133225680D01*
X150137881Y-133013000D01*
X149582119Y-133013000D01*
X149068663Y-133225680D01*
X148675680Y-133618663D01*
X148590000Y-133825513D01*
X148504320Y-133618663D01*
X148111337Y-133225680D01*
X147597881Y-133013000D01*
X147042119Y-133013000D01*
X146528663Y-133225680D01*
X146135680Y-133618663D01*
X145923000Y-134132119D01*
X122655000Y-134132119D01*
X122655000Y-127881000D01*
X123104336Y-127881000D01*
X123206007Y-128392136D01*
X123495543Y-128825457D01*
X123928864Y-129114993D01*
X124310978Y-129191000D01*
X124919022Y-129191000D01*
X125301136Y-129114993D01*
X125734457Y-128825457D01*
X126023993Y-128392136D01*
X126125664Y-127881000D01*
X126064002Y-127571000D01*
X126206785Y-127571000D01*
X126298755Y-128033364D01*
X126560663Y-128425337D01*
X126952636Y-128687245D01*
X127298290Y-128756000D01*
X127931710Y-128756000D01*
X128277364Y-128687245D01*
X128669337Y-128425337D01*
X128931245Y-128033364D01*
X129023215Y-127571000D01*
X128931245Y-127108636D01*
X128669337Y-126716663D01*
X128277364Y-126454755D01*
X127931710Y-126386000D01*
X127298290Y-126386000D01*
X126952636Y-126454755D01*
X126560663Y-126716663D01*
X126298755Y-127108636D01*
X126206785Y-127571000D01*
X126064002Y-127571000D01*
X126023993Y-127369864D01*
X125734457Y-126936543D01*
X125301136Y-126647007D01*
X124919022Y-126571000D01*
X124310978Y-126571000D01*
X123928864Y-126647007D01*
X123495543Y-126936543D01*
X123206007Y-127369864D01*
X123104336Y-127881000D01*
X122655000Y-127881000D01*
X122655000Y-125535484D01*
X128561920Y-125535484D01*
X128561920Y-125924516D01*
X128710797Y-126283936D01*
X128985884Y-126559023D01*
X129345304Y-126707900D01*
X129734336Y-126707900D01*
X130093756Y-126559023D01*
X130160779Y-126492000D01*
X130734957Y-126492000D01*
X130810000Y-126506927D01*
X130885043Y-126492000D01*
X130885048Y-126492000D01*
X131107317Y-126447788D01*
X131359371Y-126279371D01*
X131401884Y-126215746D01*
X132562336Y-125055295D01*
X132796064Y-125289023D01*
X133155484Y-125437900D01*
X133544516Y-125437900D01*
X133903936Y-125289023D01*
X134179023Y-125013936D01*
X134327900Y-124654516D01*
X134327900Y-124559730D01*
X148689731Y-110197900D01*
X148784516Y-110197900D01*
X149143936Y-110049023D01*
X149419023Y-109773936D01*
X149567900Y-109414516D01*
X149567900Y-109025484D01*
X149419023Y-108666064D01*
X149337959Y-108585000D01*
X149419023Y-108503936D01*
X149567900Y-108144516D01*
X149567900Y-107755484D01*
X149419023Y-107396064D01*
X149143936Y-107120977D01*
X148784516Y-106972100D01*
X148395484Y-106972100D01*
X148036064Y-107120977D01*
X147760977Y-107396064D01*
X147612100Y-107755484D01*
X147612100Y-107850269D01*
X130494370Y-124968000D01*
X130160779Y-124968000D01*
X130093756Y-124900977D01*
X129734336Y-124752100D01*
X129345304Y-124752100D01*
X128985884Y-124900977D01*
X128710797Y-125176064D01*
X128561920Y-125535484D01*
X122655000Y-125535484D01*
X122655000Y-122421000D01*
X123104336Y-122421000D01*
X123206007Y-122932136D01*
X123495543Y-123365457D01*
X123928864Y-123654993D01*
X124310978Y-123731000D01*
X124919022Y-123731000D01*
X125301136Y-123654993D01*
X125734457Y-123365457D01*
X126023993Y-122932136D01*
X126064001Y-122731000D01*
X126206785Y-122731000D01*
X126298755Y-123193364D01*
X126560663Y-123585337D01*
X126952636Y-123847245D01*
X127298290Y-123916000D01*
X127931710Y-123916000D01*
X128277364Y-123847245D01*
X128669337Y-123585337D01*
X128931245Y-123193364D01*
X129023215Y-122731000D01*
X128931245Y-122268636D01*
X128669337Y-121876663D01*
X128277364Y-121614755D01*
X127931710Y-121546000D01*
X127298290Y-121546000D01*
X126952636Y-121614755D01*
X126560663Y-121876663D01*
X126298755Y-122268636D01*
X126206785Y-122731000D01*
X126064001Y-122731000D01*
X126125664Y-122421000D01*
X126023993Y-121909864D01*
X125734457Y-121476543D01*
X125301136Y-121187007D01*
X124919022Y-121111000D01*
X124310978Y-121111000D01*
X123928864Y-121187007D01*
X123495543Y-121476543D01*
X123206007Y-121909864D01*
X123104336Y-122421000D01*
X122655000Y-122421000D01*
X122655000Y-105132119D01*
X124123000Y-105132119D01*
X124123000Y-105687881D01*
X124335680Y-106201337D01*
X124728663Y-106594320D01*
X124935513Y-106680000D01*
X124728663Y-106765680D01*
X124335680Y-107158663D01*
X124123000Y-107672119D01*
X124123000Y-108227881D01*
X124335680Y-108741337D01*
X124728663Y-109134320D01*
X125242119Y-109347000D01*
X125797881Y-109347000D01*
X126311337Y-109134320D01*
X126704320Y-108741337D01*
X126917000Y-108227881D01*
X126917000Y-107672119D01*
X126704320Y-107158663D01*
X126311337Y-106765680D01*
X126104487Y-106680000D01*
X126311337Y-106594320D01*
X126704320Y-106201337D01*
X126917000Y-105687881D01*
X126917000Y-105132119D01*
X129623000Y-105132119D01*
X129623000Y-105687881D01*
X129835680Y-106201337D01*
X130228663Y-106594320D01*
X130435513Y-106680000D01*
X130228663Y-106765680D01*
X129835680Y-107158663D01*
X129623000Y-107672119D01*
X129623000Y-108227881D01*
X129835680Y-108741337D01*
X130228663Y-109134320D01*
X130742119Y-109347000D01*
X131297881Y-109347000D01*
X131811337Y-109134320D01*
X132204320Y-108741337D01*
X132417000Y-108227881D01*
X132417000Y-107672119D01*
X132204320Y-107158663D01*
X131811337Y-106765680D01*
X131604487Y-106680000D01*
X131811337Y-106594320D01*
X132204320Y-106201337D01*
X132417000Y-105687881D01*
X132417000Y-105132119D01*
X132204320Y-104618663D01*
X131811337Y-104225680D01*
X131297881Y-104013000D01*
X130742119Y-104013000D01*
X130228663Y-104225680D01*
X129835680Y-104618663D01*
X129623000Y-105132119D01*
X126917000Y-105132119D01*
X126704320Y-104618663D01*
X126311337Y-104225680D01*
X125797881Y-104013000D01*
X125242119Y-104013000D01*
X124728663Y-104225680D01*
X124335680Y-104618663D01*
X124123000Y-105132119D01*
X122655000Y-105132119D01*
X122655000Y-101405484D01*
X147612100Y-101405484D01*
X147612100Y-101794516D01*
X147760977Y-102153936D01*
X148036064Y-102429023D01*
X148395484Y-102577900D01*
X148490270Y-102577900D01*
X150368000Y-104455630D01*
X150368001Y-111444369D01*
X148490270Y-113322100D01*
X148395484Y-113322100D01*
X148036064Y-113470977D01*
X147760977Y-113746064D01*
X147612100Y-114105484D01*
X147612100Y-114494516D01*
X147760977Y-114853936D01*
X148036064Y-115129023D01*
X148395484Y-115277900D01*
X148784516Y-115277900D01*
X149143936Y-115129023D01*
X149419023Y-114853936D01*
X149567900Y-114494516D01*
X149567900Y-114399730D01*
X151615746Y-112351884D01*
X151679371Y-112309371D01*
X151847788Y-112057317D01*
X151892000Y-111835048D01*
X151892000Y-111835044D01*
X151906927Y-111760001D01*
X151892000Y-111684958D01*
X151892000Y-105132119D01*
X164763000Y-105132119D01*
X164763000Y-105687881D01*
X164975680Y-106201337D01*
X165368663Y-106594320D01*
X165575513Y-106680000D01*
X165368663Y-106765680D01*
X164975680Y-107158663D01*
X164763000Y-107672119D01*
X164763000Y-108227881D01*
X164975680Y-108741337D01*
X165368663Y-109134320D01*
X165882119Y-109347000D01*
X166437881Y-109347000D01*
X166951337Y-109134320D01*
X167344320Y-108741337D01*
X167557000Y-108227881D01*
X167557000Y-107672119D01*
X167344320Y-107158663D01*
X166951337Y-106765680D01*
X166744487Y-106680000D01*
X166951337Y-106594320D01*
X167344320Y-106201337D01*
X167557000Y-105687881D01*
X167557000Y-105132119D01*
X170263000Y-105132119D01*
X170263000Y-105687881D01*
X170475680Y-106201337D01*
X170868663Y-106594320D01*
X171075513Y-106680000D01*
X170868663Y-106765680D01*
X170475680Y-107158663D01*
X170263000Y-107672119D01*
X170263000Y-108227881D01*
X170475680Y-108741337D01*
X170868663Y-109134320D01*
X171382119Y-109347000D01*
X171937881Y-109347000D01*
X172451337Y-109134320D01*
X172844320Y-108741337D01*
X173057000Y-108227881D01*
X173057000Y-107672119D01*
X172844320Y-107158663D01*
X172451337Y-106765680D01*
X172244487Y-106680000D01*
X172451337Y-106594320D01*
X172844320Y-106201337D01*
X173057000Y-105687881D01*
X173057000Y-105132119D01*
X172844320Y-104618663D01*
X172451337Y-104225680D01*
X171937881Y-104013000D01*
X171382119Y-104013000D01*
X170868663Y-104225680D01*
X170475680Y-104618663D01*
X170263000Y-105132119D01*
X167557000Y-105132119D01*
X167344320Y-104618663D01*
X166951337Y-104225680D01*
X166437881Y-104013000D01*
X165882119Y-104013000D01*
X165368663Y-104225680D01*
X164975680Y-104618663D01*
X164763000Y-105132119D01*
X151892000Y-105132119D01*
X151892000Y-104215042D01*
X151906927Y-104139999D01*
X151892000Y-104064956D01*
X151892000Y-104064952D01*
X151847788Y-103842683D01*
X151679371Y-103590629D01*
X151615747Y-103548117D01*
X149567900Y-101500270D01*
X149567900Y-101405484D01*
X149419023Y-101046064D01*
X149143936Y-100770977D01*
X148784516Y-100622100D01*
X148395484Y-100622100D01*
X148036064Y-100770977D01*
X147760977Y-101046064D01*
X147612100Y-101405484D01*
X122655000Y-101405484D01*
X122655000Y-93076000D01*
X146022560Y-93076000D01*
X146022560Y-94376000D01*
X146071843Y-94623765D01*
X146212191Y-94833809D01*
X146422235Y-94974157D01*
X146670000Y-95023440D01*
X147970000Y-95023440D01*
X148217765Y-94974157D01*
X148427809Y-94833809D01*
X148568157Y-94623765D01*
X148617440Y-94376000D01*
X148617440Y-94084062D01*
X148770629Y-94453894D01*
X149132106Y-94815371D01*
X149604398Y-95011000D01*
X150067370Y-95011000D01*
X154602218Y-99545849D01*
X154644729Y-99609471D01*
X154896783Y-99777888D01*
X155119052Y-99822100D01*
X155119053Y-99822100D01*
X155194100Y-99837028D01*
X155269147Y-99822100D01*
X169559041Y-99822100D01*
X169626064Y-99889123D01*
X169985484Y-100038000D01*
X170374516Y-100038000D01*
X170733936Y-99889123D01*
X171009023Y-99614036D01*
X171157900Y-99254616D01*
X171157900Y-98865584D01*
X171009023Y-98506164D01*
X170733936Y-98231077D01*
X170374516Y-98082200D01*
X169985484Y-98082200D01*
X169626064Y-98231077D01*
X169559041Y-98298100D01*
X155509731Y-98298100D01*
X151145000Y-93933370D01*
X151145000Y-93470398D01*
X150949371Y-92998106D01*
X150587894Y-92636629D01*
X150115602Y-92441000D01*
X149875000Y-92441000D01*
X149875000Y-92200398D01*
X149679371Y-91728106D01*
X149317894Y-91366629D01*
X148845602Y-91171000D01*
X148334398Y-91171000D01*
X147862106Y-91366629D01*
X147500629Y-91728106D01*
X147305000Y-92200398D01*
X147305000Y-92428560D01*
X146670000Y-92428560D01*
X146422235Y-92477843D01*
X146212191Y-92618191D01*
X146071843Y-92828235D01*
X146022560Y-93076000D01*
X122655000Y-93076000D01*
X122655000Y-83820000D01*
X164323073Y-83820000D01*
X164338000Y-83895043D01*
X164338001Y-88824952D01*
X164323073Y-88900000D01*
X164382213Y-89197317D01*
X164464188Y-89320001D01*
X164550630Y-89449371D01*
X164614252Y-89491882D01*
X164928321Y-89805951D01*
X164855908Y-90170000D01*
X164971161Y-90749418D01*
X165299375Y-91240625D01*
X165790582Y-91568839D01*
X166223744Y-91655000D01*
X166516256Y-91655000D01*
X166949418Y-91568839D01*
X167440625Y-91240625D01*
X167768839Y-90749418D01*
X167884092Y-90170000D01*
X167768839Y-89590582D01*
X167440625Y-89099375D01*
X167142239Y-88900000D01*
X167440625Y-88700625D01*
X167768839Y-88209418D01*
X167884092Y-87630000D01*
X167768839Y-87050582D01*
X167440625Y-86559375D01*
X167142239Y-86360000D01*
X167440625Y-86160625D01*
X167768839Y-85669418D01*
X167884092Y-85090000D01*
X167768839Y-84510582D01*
X167440625Y-84019375D01*
X167142239Y-83820000D01*
X167440625Y-83620625D01*
X167768839Y-83129418D01*
X167884092Y-82550000D01*
X167768839Y-81970582D01*
X167440625Y-81479375D01*
X167142239Y-81280000D01*
X167440625Y-81080625D01*
X167768839Y-80589418D01*
X167884092Y-80010000D01*
X167768839Y-79430582D01*
X167440625Y-78939375D01*
X167418967Y-78924904D01*
X167579698Y-78858327D01*
X167758327Y-78679699D01*
X167855000Y-78446310D01*
X167855000Y-77755750D01*
X167696250Y-77597000D01*
X166497000Y-77597000D01*
X166497000Y-77617000D01*
X166243000Y-77617000D01*
X166243000Y-77597000D01*
X165043750Y-77597000D01*
X164885000Y-77755750D01*
X164885000Y-78446310D01*
X164981673Y-78679699D01*
X165160302Y-78858327D01*
X165321033Y-78924904D01*
X165299375Y-78939375D01*
X164971161Y-79430582D01*
X164855908Y-80010000D01*
X164971161Y-80589418D01*
X165299375Y-81080625D01*
X165597761Y-81280000D01*
X165299375Y-81479375D01*
X164971161Y-81970582D01*
X164855908Y-82550000D01*
X164928321Y-82914048D01*
X164614253Y-83228117D01*
X164550629Y-83270629D01*
X164382212Y-83522684D01*
X164338000Y-83744953D01*
X164338000Y-83744957D01*
X164323073Y-83820000D01*
X122655000Y-83820000D01*
X122655000Y-78672119D01*
X145923000Y-78672119D01*
X145923000Y-79227881D01*
X146135680Y-79741337D01*
X146528663Y-80134320D01*
X147042119Y-80347000D01*
X147597881Y-80347000D01*
X148111337Y-80134320D01*
X148504320Y-79741337D01*
X148590000Y-79534487D01*
X148675680Y-79741337D01*
X149068663Y-80134320D01*
X149582119Y-80347000D01*
X150137881Y-80347000D01*
X150651337Y-80134320D01*
X151044320Y-79741337D01*
X151257000Y-79227881D01*
X151257000Y-78672119D01*
X151044320Y-78158663D01*
X150651337Y-77765680D01*
X150137881Y-77553000D01*
X149582119Y-77553000D01*
X149068663Y-77765680D01*
X148675680Y-78158663D01*
X148590000Y-78365513D01*
X148504320Y-78158663D01*
X148111337Y-77765680D01*
X147597881Y-77553000D01*
X147042119Y-77553000D01*
X146528663Y-77765680D01*
X146135680Y-78158663D01*
X145923000Y-78672119D01*
X122655000Y-78672119D01*
X122655000Y-76493690D01*
X164885000Y-76493690D01*
X164885000Y-77184250D01*
X165043750Y-77343000D01*
X166243000Y-77343000D01*
X166243000Y-76143750D01*
X166497000Y-76143750D01*
X166497000Y-77343000D01*
X167696250Y-77343000D01*
X167855000Y-77184250D01*
X167855000Y-76493690D01*
X167758327Y-76260301D01*
X167579698Y-76081673D01*
X167346309Y-75985000D01*
X166655750Y-75985000D01*
X166497000Y-76143750D01*
X166243000Y-76143750D01*
X166084250Y-75985000D01*
X165393691Y-75985000D01*
X165160302Y-76081673D01*
X164981673Y-76260301D01*
X164885000Y-76493690D01*
X122655000Y-76493690D01*
X122655000Y-73172119D01*
X145923000Y-73172119D01*
X145923000Y-73727881D01*
X146135680Y-74241337D01*
X146528663Y-74634320D01*
X147042119Y-74847000D01*
X147597881Y-74847000D01*
X148111337Y-74634320D01*
X148504320Y-74241337D01*
X148590000Y-74034487D01*
X148675680Y-74241337D01*
X149068663Y-74634320D01*
X149582119Y-74847000D01*
X150137881Y-74847000D01*
X150651337Y-74634320D01*
X151044320Y-74241337D01*
X151257000Y-73727881D01*
X151257000Y-73172119D01*
X151044320Y-72658663D01*
X150651337Y-72265680D01*
X150137881Y-72053000D01*
X149582119Y-72053000D01*
X149068663Y-72265680D01*
X148675680Y-72658663D01*
X148590000Y-72865513D01*
X148504320Y-72658663D01*
X148111337Y-72265680D01*
X147597881Y-72053000D01*
X147042119Y-72053000D01*
X146528663Y-72265680D01*
X146135680Y-72658663D01*
X145923000Y-73172119D01*
X122655000Y-73172119D01*
X122655000Y-70585000D01*
X174525000Y-70585000D01*
X174525001Y-142775000D01*
X174525001Y-142775000D01*
G37*
X174525001Y-142775000D02*
X122655000Y-142775000D01*
X122655000Y-139632119D01*
X145923000Y-139632119D01*
X145923000Y-140187881D01*
X146135680Y-140701337D01*
X146528663Y-141094320D01*
X147042119Y-141307000D01*
X147597881Y-141307000D01*
X148111337Y-141094320D01*
X148504320Y-140701337D01*
X148590000Y-140494487D01*
X148675680Y-140701337D01*
X149068663Y-141094320D01*
X149582119Y-141307000D01*
X150137881Y-141307000D01*
X150651337Y-141094320D01*
X151044320Y-140701337D01*
X151257000Y-140187881D01*
X151257000Y-139632119D01*
X151044320Y-139118663D01*
X150651337Y-138725680D01*
X150137881Y-138513000D01*
X149582119Y-138513000D01*
X149068663Y-138725680D01*
X148675680Y-139118663D01*
X148590000Y-139325513D01*
X148504320Y-139118663D01*
X148111337Y-138725680D01*
X147597881Y-138513000D01*
X147042119Y-138513000D01*
X146528663Y-138725680D01*
X146135680Y-139118663D01*
X145923000Y-139632119D01*
X122655000Y-139632119D01*
X122655000Y-134132119D01*
X145923000Y-134132119D01*
X145923000Y-134687881D01*
X146135680Y-135201337D01*
X146528663Y-135594320D01*
X147042119Y-135807000D01*
X147597881Y-135807000D01*
X148111337Y-135594320D01*
X148504320Y-135201337D01*
X148590000Y-134994487D01*
X148675680Y-135201337D01*
X149068663Y-135594320D01*
X149582119Y-135807000D01*
X150137881Y-135807000D01*
X150651337Y-135594320D01*
X151044320Y-135201337D01*
X151257000Y-134687881D01*
X151257000Y-134132119D01*
X151044320Y-133618663D01*
X150651337Y-133225680D01*
X150137881Y-133013000D01*
X149582119Y-133013000D01*
X149068663Y-133225680D01*
X148675680Y-133618663D01*
X148590000Y-133825513D01*
X148504320Y-133618663D01*
X148111337Y-133225680D01*
X147597881Y-133013000D01*
X147042119Y-133013000D01*
X146528663Y-133225680D01*
X146135680Y-133618663D01*
X145923000Y-134132119D01*
X122655000Y-134132119D01*
X122655000Y-127881000D01*
X123104336Y-127881000D01*
X123206007Y-128392136D01*
X123495543Y-128825457D01*
X123928864Y-129114993D01*
X124310978Y-129191000D01*
X124919022Y-129191000D01*
X125301136Y-129114993D01*
X125734457Y-128825457D01*
X126023993Y-128392136D01*
X126125664Y-127881000D01*
X126064002Y-127571000D01*
X126206785Y-127571000D01*
X126298755Y-128033364D01*
X126560663Y-128425337D01*
X126952636Y-128687245D01*
X127298290Y-128756000D01*
X127931710Y-128756000D01*
X128277364Y-128687245D01*
X128669337Y-128425337D01*
X128931245Y-128033364D01*
X129023215Y-127571000D01*
X128931245Y-127108636D01*
X128669337Y-126716663D01*
X128277364Y-126454755D01*
X127931710Y-126386000D01*
X127298290Y-126386000D01*
X126952636Y-126454755D01*
X126560663Y-126716663D01*
X126298755Y-127108636D01*
X126206785Y-127571000D01*
X126064002Y-127571000D01*
X126023993Y-127369864D01*
X125734457Y-126936543D01*
X125301136Y-126647007D01*
X124919022Y-126571000D01*
X124310978Y-126571000D01*
X123928864Y-126647007D01*
X123495543Y-126936543D01*
X123206007Y-127369864D01*
X123104336Y-127881000D01*
X122655000Y-127881000D01*
X122655000Y-125535484D01*
X128561920Y-125535484D01*
X128561920Y-125924516D01*
X128710797Y-126283936D01*
X128985884Y-126559023D01*
X129345304Y-126707900D01*
X129734336Y-126707900D01*
X130093756Y-126559023D01*
X130160779Y-126492000D01*
X130734957Y-126492000D01*
X130810000Y-126506927D01*
X130885043Y-126492000D01*
X130885048Y-126492000D01*
X131107317Y-126447788D01*
X131359371Y-126279371D01*
X131401884Y-126215746D01*
X132562336Y-125055295D01*
X132796064Y-125289023D01*
X133155484Y-125437900D01*
X133544516Y-125437900D01*
X133903936Y-125289023D01*
X134179023Y-125013936D01*
X134327900Y-124654516D01*
X134327900Y-124559730D01*
X148689731Y-110197900D01*
X148784516Y-110197900D01*
X149143936Y-110049023D01*
X149419023Y-109773936D01*
X149567900Y-109414516D01*
X149567900Y-109025484D01*
X149419023Y-108666064D01*
X149337959Y-108585000D01*
X149419023Y-108503936D01*
X149567900Y-108144516D01*
X149567900Y-107755484D01*
X149419023Y-107396064D01*
X149143936Y-107120977D01*
X148784516Y-106972100D01*
X148395484Y-106972100D01*
X148036064Y-107120977D01*
X147760977Y-107396064D01*
X147612100Y-107755484D01*
X147612100Y-107850269D01*
X130494370Y-124968000D01*
X130160779Y-124968000D01*
X130093756Y-124900977D01*
X129734336Y-124752100D01*
X129345304Y-124752100D01*
X128985884Y-124900977D01*
X128710797Y-125176064D01*
X128561920Y-125535484D01*
X122655000Y-125535484D01*
X122655000Y-122421000D01*
X123104336Y-122421000D01*
X123206007Y-122932136D01*
X123495543Y-123365457D01*
X123928864Y-123654993D01*
X124310978Y-123731000D01*
X124919022Y-123731000D01*
X125301136Y-123654993D01*
X125734457Y-123365457D01*
X126023993Y-122932136D01*
X126064001Y-122731000D01*
X126206785Y-122731000D01*
X126298755Y-123193364D01*
X126560663Y-123585337D01*
X126952636Y-123847245D01*
X127298290Y-123916000D01*
X127931710Y-123916000D01*
X128277364Y-123847245D01*
X128669337Y-123585337D01*
X128931245Y-123193364D01*
X129023215Y-122731000D01*
X128931245Y-122268636D01*
X128669337Y-121876663D01*
X128277364Y-121614755D01*
X127931710Y-121546000D01*
X127298290Y-121546000D01*
X126952636Y-121614755D01*
X126560663Y-121876663D01*
X126298755Y-122268636D01*
X126206785Y-122731000D01*
X126064001Y-122731000D01*
X126125664Y-122421000D01*
X126023993Y-121909864D01*
X125734457Y-121476543D01*
X125301136Y-121187007D01*
X124919022Y-121111000D01*
X124310978Y-121111000D01*
X123928864Y-121187007D01*
X123495543Y-121476543D01*
X123206007Y-121909864D01*
X123104336Y-122421000D01*
X122655000Y-122421000D01*
X122655000Y-105132119D01*
X124123000Y-105132119D01*
X124123000Y-105687881D01*
X124335680Y-106201337D01*
X124728663Y-106594320D01*
X124935513Y-106680000D01*
X124728663Y-106765680D01*
X124335680Y-107158663D01*
X124123000Y-107672119D01*
X124123000Y-108227881D01*
X124335680Y-108741337D01*
X124728663Y-109134320D01*
X125242119Y-109347000D01*
X125797881Y-109347000D01*
X126311337Y-109134320D01*
X126704320Y-108741337D01*
X126917000Y-108227881D01*
X126917000Y-107672119D01*
X126704320Y-107158663D01*
X126311337Y-106765680D01*
X126104487Y-106680000D01*
X126311337Y-106594320D01*
X126704320Y-106201337D01*
X126917000Y-105687881D01*
X126917000Y-105132119D01*
X129623000Y-105132119D01*
X129623000Y-105687881D01*
X129835680Y-106201337D01*
X130228663Y-106594320D01*
X130435513Y-106680000D01*
X130228663Y-106765680D01*
X129835680Y-107158663D01*
X129623000Y-107672119D01*
X129623000Y-108227881D01*
X129835680Y-108741337D01*
X130228663Y-109134320D01*
X130742119Y-109347000D01*
X131297881Y-109347000D01*
X131811337Y-109134320D01*
X132204320Y-108741337D01*
X132417000Y-108227881D01*
X132417000Y-107672119D01*
X132204320Y-107158663D01*
X131811337Y-106765680D01*
X131604487Y-106680000D01*
X131811337Y-106594320D01*
X132204320Y-106201337D01*
X132417000Y-105687881D01*
X132417000Y-105132119D01*
X132204320Y-104618663D01*
X131811337Y-104225680D01*
X131297881Y-104013000D01*
X130742119Y-104013000D01*
X130228663Y-104225680D01*
X129835680Y-104618663D01*
X129623000Y-105132119D01*
X126917000Y-105132119D01*
X126704320Y-104618663D01*
X126311337Y-104225680D01*
X125797881Y-104013000D01*
X125242119Y-104013000D01*
X124728663Y-104225680D01*
X124335680Y-104618663D01*
X124123000Y-105132119D01*
X122655000Y-105132119D01*
X122655000Y-101405484D01*
X147612100Y-101405484D01*
X147612100Y-101794516D01*
X147760977Y-102153936D01*
X148036064Y-102429023D01*
X148395484Y-102577900D01*
X148490270Y-102577900D01*
X150368000Y-104455630D01*
X150368001Y-111444369D01*
X148490270Y-113322100D01*
X148395484Y-113322100D01*
X148036064Y-113470977D01*
X147760977Y-113746064D01*
X147612100Y-114105484D01*
X147612100Y-114494516D01*
X147760977Y-114853936D01*
X148036064Y-115129023D01*
X148395484Y-115277900D01*
X148784516Y-115277900D01*
X149143936Y-115129023D01*
X149419023Y-114853936D01*
X149567900Y-114494516D01*
X149567900Y-114399730D01*
X151615746Y-112351884D01*
X151679371Y-112309371D01*
X151847788Y-112057317D01*
X151892000Y-111835048D01*
X151892000Y-111835044D01*
X151906927Y-111760001D01*
X151892000Y-111684958D01*
X151892000Y-105132119D01*
X164763000Y-105132119D01*
X164763000Y-105687881D01*
X164975680Y-106201337D01*
X165368663Y-106594320D01*
X165575513Y-106680000D01*
X165368663Y-106765680D01*
X164975680Y-107158663D01*
X164763000Y-107672119D01*
X164763000Y-108227881D01*
X164975680Y-108741337D01*
X165368663Y-109134320D01*
X165882119Y-109347000D01*
X166437881Y-109347000D01*
X166951337Y-109134320D01*
X167344320Y-108741337D01*
X167557000Y-108227881D01*
X167557000Y-107672119D01*
X167344320Y-107158663D01*
X166951337Y-106765680D01*
X166744487Y-106680000D01*
X166951337Y-106594320D01*
X167344320Y-106201337D01*
X167557000Y-105687881D01*
X167557000Y-105132119D01*
X170263000Y-105132119D01*
X170263000Y-105687881D01*
X170475680Y-106201337D01*
X170868663Y-106594320D01*
X171075513Y-106680000D01*
X170868663Y-106765680D01*
X170475680Y-107158663D01*
X170263000Y-107672119D01*
X170263000Y-108227881D01*
X170475680Y-108741337D01*
X170868663Y-109134320D01*
X171382119Y-109347000D01*
X171937881Y-109347000D01*
X172451337Y-109134320D01*
X172844320Y-108741337D01*
X173057000Y-108227881D01*
X173057000Y-107672119D01*
X172844320Y-107158663D01*
X172451337Y-106765680D01*
X172244487Y-106680000D01*
X172451337Y-106594320D01*
X172844320Y-106201337D01*
X173057000Y-105687881D01*
X173057000Y-105132119D01*
X172844320Y-104618663D01*
X172451337Y-104225680D01*
X171937881Y-104013000D01*
X171382119Y-104013000D01*
X170868663Y-104225680D01*
X170475680Y-104618663D01*
X170263000Y-105132119D01*
X167557000Y-105132119D01*
X167344320Y-104618663D01*
X166951337Y-104225680D01*
X166437881Y-104013000D01*
X165882119Y-104013000D01*
X165368663Y-104225680D01*
X164975680Y-104618663D01*
X164763000Y-105132119D01*
X151892000Y-105132119D01*
X151892000Y-104215042D01*
X151906927Y-104139999D01*
X151892000Y-104064956D01*
X151892000Y-104064952D01*
X151847788Y-103842683D01*
X151679371Y-103590629D01*
X151615747Y-103548117D01*
X149567900Y-101500270D01*
X149567900Y-101405484D01*
X149419023Y-101046064D01*
X149143936Y-100770977D01*
X148784516Y-100622100D01*
X148395484Y-100622100D01*
X148036064Y-100770977D01*
X147760977Y-101046064D01*
X147612100Y-101405484D01*
X122655000Y-101405484D01*
X122655000Y-93076000D01*
X146022560Y-93076000D01*
X146022560Y-94376000D01*
X146071843Y-94623765D01*
X146212191Y-94833809D01*
X146422235Y-94974157D01*
X146670000Y-95023440D01*
X147970000Y-95023440D01*
X148217765Y-94974157D01*
X148427809Y-94833809D01*
X148568157Y-94623765D01*
X148617440Y-94376000D01*
X148617440Y-94084062D01*
X148770629Y-94453894D01*
X149132106Y-94815371D01*
X149604398Y-95011000D01*
X150067370Y-95011000D01*
X154602218Y-99545849D01*
X154644729Y-99609471D01*
X154896783Y-99777888D01*
X155119052Y-99822100D01*
X155119053Y-99822100D01*
X155194100Y-99837028D01*
X155269147Y-99822100D01*
X169559041Y-99822100D01*
X169626064Y-99889123D01*
X169985484Y-100038000D01*
X170374516Y-100038000D01*
X170733936Y-99889123D01*
X171009023Y-99614036D01*
X171157900Y-99254616D01*
X171157900Y-98865584D01*
X171009023Y-98506164D01*
X170733936Y-98231077D01*
X170374516Y-98082200D01*
X169985484Y-98082200D01*
X169626064Y-98231077D01*
X169559041Y-98298100D01*
X155509731Y-98298100D01*
X151145000Y-93933370D01*
X151145000Y-93470398D01*
X150949371Y-92998106D01*
X150587894Y-92636629D01*
X150115602Y-92441000D01*
X149875000Y-92441000D01*
X149875000Y-92200398D01*
X149679371Y-91728106D01*
X149317894Y-91366629D01*
X148845602Y-91171000D01*
X148334398Y-91171000D01*
X147862106Y-91366629D01*
X147500629Y-91728106D01*
X147305000Y-92200398D01*
X147305000Y-92428560D01*
X146670000Y-92428560D01*
X146422235Y-92477843D01*
X146212191Y-92618191D01*
X146071843Y-92828235D01*
X146022560Y-93076000D01*
X122655000Y-93076000D01*
X122655000Y-83820000D01*
X164323073Y-83820000D01*
X164338000Y-83895043D01*
X164338001Y-88824952D01*
X164323073Y-88900000D01*
X164382213Y-89197317D01*
X164464188Y-89320001D01*
X164550630Y-89449371D01*
X164614252Y-89491882D01*
X164928321Y-89805951D01*
X164855908Y-90170000D01*
X164971161Y-90749418D01*
X165299375Y-91240625D01*
X165790582Y-91568839D01*
X166223744Y-91655000D01*
X166516256Y-91655000D01*
X166949418Y-91568839D01*
X167440625Y-91240625D01*
X167768839Y-90749418D01*
X167884092Y-90170000D01*
X167768839Y-89590582D01*
X167440625Y-89099375D01*
X167142239Y-88900000D01*
X167440625Y-88700625D01*
X167768839Y-88209418D01*
X167884092Y-87630000D01*
X167768839Y-87050582D01*
X167440625Y-86559375D01*
X167142239Y-86360000D01*
X167440625Y-86160625D01*
X167768839Y-85669418D01*
X167884092Y-85090000D01*
X167768839Y-84510582D01*
X167440625Y-84019375D01*
X167142239Y-83820000D01*
X167440625Y-83620625D01*
X167768839Y-83129418D01*
X167884092Y-82550000D01*
X167768839Y-81970582D01*
X167440625Y-81479375D01*
X167142239Y-81280000D01*
X167440625Y-81080625D01*
X167768839Y-80589418D01*
X167884092Y-80010000D01*
X167768839Y-79430582D01*
X167440625Y-78939375D01*
X167418967Y-78924904D01*
X167579698Y-78858327D01*
X167758327Y-78679699D01*
X167855000Y-78446310D01*
X167855000Y-77755750D01*
X167696250Y-77597000D01*
X166497000Y-77597000D01*
X166497000Y-77617000D01*
X166243000Y-77617000D01*
X166243000Y-77597000D01*
X165043750Y-77597000D01*
X164885000Y-77755750D01*
X164885000Y-78446310D01*
X164981673Y-78679699D01*
X165160302Y-78858327D01*
X165321033Y-78924904D01*
X165299375Y-78939375D01*
X164971161Y-79430582D01*
X164855908Y-80010000D01*
X164971161Y-80589418D01*
X165299375Y-81080625D01*
X165597761Y-81280000D01*
X165299375Y-81479375D01*
X164971161Y-81970582D01*
X164855908Y-82550000D01*
X164928321Y-82914048D01*
X164614253Y-83228117D01*
X164550629Y-83270629D01*
X164382212Y-83522684D01*
X164338000Y-83744953D01*
X164338000Y-83744957D01*
X164323073Y-83820000D01*
X122655000Y-83820000D01*
X122655000Y-78672119D01*
X145923000Y-78672119D01*
X145923000Y-79227881D01*
X146135680Y-79741337D01*
X146528663Y-80134320D01*
X147042119Y-80347000D01*
X147597881Y-80347000D01*
X148111337Y-80134320D01*
X148504320Y-79741337D01*
X148590000Y-79534487D01*
X148675680Y-79741337D01*
X149068663Y-80134320D01*
X149582119Y-80347000D01*
X150137881Y-80347000D01*
X150651337Y-80134320D01*
X151044320Y-79741337D01*
X151257000Y-79227881D01*
X151257000Y-78672119D01*
X151044320Y-78158663D01*
X150651337Y-77765680D01*
X150137881Y-77553000D01*
X149582119Y-77553000D01*
X149068663Y-77765680D01*
X148675680Y-78158663D01*
X148590000Y-78365513D01*
X148504320Y-78158663D01*
X148111337Y-77765680D01*
X147597881Y-77553000D01*
X147042119Y-77553000D01*
X146528663Y-77765680D01*
X146135680Y-78158663D01*
X145923000Y-78672119D01*
X122655000Y-78672119D01*
X122655000Y-76493690D01*
X164885000Y-76493690D01*
X164885000Y-77184250D01*
X165043750Y-77343000D01*
X166243000Y-77343000D01*
X166243000Y-76143750D01*
X166497000Y-76143750D01*
X166497000Y-77343000D01*
X167696250Y-77343000D01*
X167855000Y-77184250D01*
X167855000Y-76493690D01*
X167758327Y-76260301D01*
X167579698Y-76081673D01*
X167346309Y-75985000D01*
X166655750Y-75985000D01*
X166497000Y-76143750D01*
X166243000Y-76143750D01*
X166084250Y-75985000D01*
X165393691Y-75985000D01*
X165160302Y-76081673D01*
X164981673Y-76260301D01*
X164885000Y-76493690D01*
X122655000Y-76493690D01*
X122655000Y-73172119D01*
X145923000Y-73172119D01*
X145923000Y-73727881D01*
X146135680Y-74241337D01*
X146528663Y-74634320D01*
X147042119Y-74847000D01*
X147597881Y-74847000D01*
X148111337Y-74634320D01*
X148504320Y-74241337D01*
X148590000Y-74034487D01*
X148675680Y-74241337D01*
X149068663Y-74634320D01*
X149582119Y-74847000D01*
X150137881Y-74847000D01*
X150651337Y-74634320D01*
X151044320Y-74241337D01*
X151257000Y-73727881D01*
X151257000Y-73172119D01*
X151044320Y-72658663D01*
X150651337Y-72265680D01*
X150137881Y-72053000D01*
X149582119Y-72053000D01*
X149068663Y-72265680D01*
X148675680Y-72658663D01*
X148590000Y-72865513D01*
X148504320Y-72658663D01*
X148111337Y-72265680D01*
X147597881Y-72053000D01*
X147042119Y-72053000D01*
X146528663Y-72265680D01*
X146135680Y-72658663D01*
X145923000Y-73172119D01*
X122655000Y-73172119D01*
X122655000Y-70585000D01*
X174525000Y-70585000D01*
X174525001Y-142775000D01*
G04 #@! TD*
M02*
