M48
;DRILL file {KiCad 5.0.0-fee4fd1~66~ubuntu16.04.1} date Wed Sep 19 03:43:43 2018
;FORMAT={2:4/ absolute / inch / suppress trailing zeros}
FMAT,2
INCH,LZ
T1C0.0130
T2C0.0256
T3C0.0276
T4C0.0295
T5C0.0300
T6C0.0394
%
G90
G05
M72
T1
X051Y-0495
X0525Y-049
X055Y-048
X0555Y-031
X0555Y-034
X0565Y-042
X0585Y-04
X0585Y-0425
X0585Y-043
X0585Y-045
X06Y-052
X062Y-0425
X062Y-0535
X067Y-039
T4
X058Y-0369
X0585Y-0364
X059Y-0369
T5
X058Y-028917
X058Y-031083
X059Y-028917
X059Y-031083
X065417Y-0415
X065417Y-0425
X067583Y-0415
X067583Y-0425
X049417Y-0415
X049417Y-0425
X051583Y-0415
X051583Y-0425
X058Y-052917
X058Y-055083
X059Y-052917
X059Y-055083
T6
X0655Y-0305
X0655Y-0315
X0655Y-0325
X0655Y-0335
X0655Y-0345
X0655Y-0355
T2
X050163Y-048319G85X050321Y-048319
G05
X050163Y-050225G85X050321Y-050225
G05
T3
X048963Y-048197G85X049159Y-048197
G05
X048963Y-050347G85X049159Y-050347
G05
T0
M30
